G75*
G70*
%OFA0B0*%
%FSLAX24Y24*%
%IPPOS*%
%LPD*%
%AMOC8*
5,1,8,0,0,1.08239X$1,22.5*
%
%ADD10C,0.0110*%
%ADD11C,0.0030*%
%ADD12OC8,0.0594*%
%ADD13C,0.0594*%
%ADD14OC8,0.0554*%
%ADD15C,0.0554*%
%ADD16R,0.0594X0.0594*%
%ADD17C,0.0554*%
%ADD18C,0.1000*%
%ADD19OC8,0.1000*%
%ADD20OC8,0.0630*%
%ADD21C,0.0630*%
%ADD22C,0.0827*%
%ADD23C,0.0650*%
%ADD24C,0.0160*%
%ADD25OC8,0.0475*%
%ADD26C,0.0240*%
%ADD27OC8,0.0531*%
D10*
X001063Y000686D02*
X001063Y001276D01*
X000866Y001276D02*
X001260Y001276D01*
X001510Y001178D02*
X001510Y000784D01*
X001609Y000686D01*
X001806Y000686D01*
X001904Y000784D01*
X001904Y001178D01*
X001806Y001276D01*
X001609Y001276D01*
X001510Y001178D01*
X002155Y001276D02*
X002450Y001276D01*
X002549Y001178D01*
X002549Y000981D01*
X002450Y000883D01*
X002155Y000883D01*
X002155Y000686D02*
X002155Y001276D01*
D11*
X025976Y003258D02*
X026037Y003196D01*
X026284Y003196D01*
X026346Y003258D01*
X026346Y003381D01*
X026284Y003443D01*
X026284Y003626D02*
X026346Y003688D01*
X026284Y003626D02*
X026037Y003626D01*
X026099Y003564D02*
X026099Y003688D01*
X026099Y003810D02*
X026346Y003810D01*
X026222Y003810D02*
X026099Y003933D01*
X026099Y003995D01*
X025976Y004117D02*
X025976Y004178D01*
X026346Y004178D01*
X026346Y004117D02*
X026346Y004240D01*
X026346Y004731D02*
X026099Y004731D01*
X025976Y004854D01*
X026099Y004977D01*
X026346Y004977D01*
X026222Y005099D02*
X026346Y005222D01*
X026222Y005346D01*
X025976Y005346D01*
X025976Y005467D02*
X025976Y005652D01*
X026037Y005714D01*
X026161Y005714D01*
X026222Y005652D01*
X026222Y005467D01*
X026222Y005591D02*
X026346Y005714D01*
X026469Y005835D02*
X026346Y005959D01*
X026346Y005897D01*
X026284Y005897D01*
X026284Y005959D01*
X026346Y005959D01*
X026346Y006449D02*
X025976Y006449D01*
X025976Y006634D01*
X026037Y006696D01*
X026161Y006696D01*
X026222Y006634D01*
X026222Y006449D01*
X026222Y006573D02*
X026346Y006696D01*
X026284Y006818D02*
X026161Y006818D01*
X026099Y006879D01*
X026099Y007003D01*
X026161Y007064D01*
X026222Y007064D01*
X026222Y006818D01*
X026284Y006818D02*
X026346Y006879D01*
X026346Y007003D01*
X026346Y007309D02*
X026099Y007186D01*
X026099Y007433D02*
X026346Y007309D01*
X026346Y007554D02*
X026284Y007554D01*
X026284Y007616D01*
X026346Y007616D01*
X026346Y007554D01*
X026284Y008107D02*
X026346Y008168D01*
X026346Y008292D01*
X026284Y008354D01*
X026222Y008354D01*
X026161Y008292D01*
X026161Y008230D01*
X026161Y008292D02*
X026099Y008354D01*
X026037Y008354D01*
X025976Y008292D01*
X025976Y008168D01*
X026037Y008107D01*
X026284Y008475D02*
X026284Y008537D01*
X026346Y008537D01*
X026346Y008475D01*
X026284Y008475D01*
X026284Y008659D02*
X026037Y008906D01*
X026284Y008906D01*
X026346Y008844D01*
X026346Y008721D01*
X026284Y008659D01*
X026037Y008659D01*
X025976Y008721D01*
X025976Y008844D01*
X026037Y008906D01*
X026037Y009027D02*
X025976Y009089D01*
X025976Y009213D01*
X026037Y009274D01*
X026284Y009027D01*
X026346Y009089D01*
X026346Y009213D01*
X026284Y009274D01*
X026037Y009274D01*
X026037Y009027D02*
X026284Y009027D01*
X026346Y005467D02*
X025976Y005467D01*
X025976Y005099D02*
X026222Y005099D01*
X026161Y004977D02*
X026161Y004731D01*
X026037Y003443D02*
X025976Y003381D01*
X025976Y003258D01*
D12*
X019511Y003031D03*
X019511Y002031D03*
X019511Y001031D03*
X015511Y001031D03*
X015511Y002031D03*
X015511Y003031D03*
X016511Y004031D03*
X015511Y005131D03*
X015511Y006131D03*
X018511Y004031D03*
X019511Y005131D03*
X019511Y006131D03*
X011011Y006041D03*
X010111Y004131D03*
X009011Y004131D03*
X009011Y002131D03*
X010111Y002131D03*
X009011Y001031D03*
X007511Y001031D03*
X007511Y002031D03*
X003511Y002031D03*
X003511Y001031D03*
X013011Y001031D03*
X003611Y007131D03*
X002611Y007131D03*
X002611Y008131D03*
X003611Y008131D03*
X003611Y009131D03*
X002611Y009131D03*
X002611Y010131D03*
X003611Y010131D03*
X003611Y011131D03*
X002611Y011131D03*
X002611Y012131D03*
X003611Y012131D03*
X005611Y013031D03*
X005611Y014031D03*
X003611Y014131D03*
X002611Y014131D03*
X002611Y013131D03*
X003611Y013131D03*
X003611Y015131D03*
X002611Y015131D03*
X003611Y016131D03*
X005611Y016031D03*
X005511Y020931D03*
X004511Y020931D03*
X003511Y020931D03*
X003511Y021931D03*
X004511Y021931D03*
X005511Y021931D03*
X015311Y022031D03*
X015311Y021031D03*
X015311Y020031D03*
X015311Y019031D03*
X019311Y019031D03*
X019311Y020031D03*
X019311Y021031D03*
X019311Y022031D03*
X021811Y017331D03*
X021811Y012331D03*
X011011Y010041D03*
X005611Y011031D03*
D13*
X011731Y014724D02*
X011731Y015318D01*
X013731Y015318D02*
X013731Y014724D01*
X020911Y016034D02*
X020911Y016628D01*
X022814Y016931D02*
X023408Y016931D01*
X023408Y015931D02*
X022814Y015931D01*
X022814Y014931D02*
X023408Y014931D01*
X023408Y013931D02*
X022814Y013931D01*
X022814Y012931D02*
X023408Y012931D01*
X023408Y011931D02*
X022814Y011931D01*
X020911Y012034D02*
X020911Y012628D01*
X014408Y010631D02*
X013814Y010631D01*
X013814Y009631D02*
X014408Y009631D01*
X014408Y008631D02*
X013814Y008631D01*
X013814Y007631D02*
X014408Y007631D01*
X015514Y008331D02*
X016108Y008331D01*
X015834Y007171D02*
X016428Y007171D01*
X014408Y006631D02*
X013814Y006631D01*
X013814Y005631D02*
X014408Y005631D01*
X018834Y007171D02*
X019428Y007171D01*
X019514Y008331D02*
X020108Y008331D01*
X014408Y002331D02*
X013814Y002331D01*
X013814Y001331D02*
X014408Y001331D01*
X007808Y002931D02*
X007214Y002931D01*
X003808Y002931D02*
X003214Y002931D01*
X001618Y019331D02*
X001024Y019331D01*
X005024Y019331D02*
X005618Y019331D01*
X006534Y020441D02*
X007128Y020441D01*
X009094Y020441D02*
X009688Y020441D01*
X009688Y022221D02*
X009094Y022221D01*
X007128Y022221D02*
X006534Y022221D01*
D14*
X010511Y021831D03*
X012111Y016881D03*
X011291Y013591D03*
X012111Y013131D03*
X011291Y012591D03*
X014041Y012591D03*
X014041Y013591D03*
X012111Y009381D03*
X012111Y005631D03*
X011811Y003731D03*
X011061Y003231D03*
X011811Y002731D03*
X020861Y004731D03*
X021611Y004231D03*
X021611Y005231D03*
X024111Y005631D03*
X024111Y009381D03*
X024111Y013131D03*
X024111Y016881D03*
X024711Y018781D03*
X024711Y019781D03*
D15*
X023611Y019208D02*
X023611Y018654D01*
X022611Y018654D02*
X022611Y019208D01*
X021611Y019208D02*
X021611Y018654D01*
X020611Y018654D02*
X020611Y019208D01*
X020611Y021654D02*
X020611Y022208D01*
X021611Y022208D02*
X021611Y021654D01*
X022611Y021654D02*
X022611Y022208D01*
X023611Y022208D02*
X023611Y021654D01*
X009988Y019031D02*
X009434Y019031D01*
X009434Y018031D02*
X009988Y018031D01*
X009988Y017031D02*
X009434Y017031D01*
X009434Y016031D02*
X009988Y016031D01*
X009988Y015031D02*
X009434Y015031D01*
X009434Y014031D02*
X009988Y014031D01*
X009988Y013031D02*
X009434Y013031D01*
X009434Y012031D02*
X009988Y012031D01*
X009988Y011031D02*
X009434Y011031D01*
X009434Y010031D02*
X009988Y010031D01*
X009988Y009031D02*
X009434Y009031D01*
X009434Y008031D02*
X009988Y008031D01*
X009988Y007031D02*
X009434Y007031D01*
X009434Y006031D02*
X009988Y006031D01*
X006988Y006031D02*
X006434Y006031D01*
X006434Y007031D02*
X006988Y007031D01*
X006988Y008031D02*
X006434Y008031D01*
X006434Y009031D02*
X006988Y009031D01*
X006988Y010031D02*
X006434Y010031D01*
X006434Y011031D02*
X006988Y011031D01*
X006988Y012031D02*
X006434Y012031D01*
X006434Y013031D02*
X006988Y013031D01*
X006988Y014031D02*
X006434Y014031D01*
X006434Y015031D02*
X006988Y015031D01*
X006988Y016031D02*
X006434Y016031D01*
X006434Y017031D02*
X006988Y017031D01*
X006988Y018031D02*
X006434Y018031D01*
X006434Y019031D02*
X006988Y019031D01*
X015234Y014131D02*
X015788Y014131D01*
X015788Y013131D02*
X015234Y013131D01*
X015234Y012131D02*
X015788Y012131D01*
X015788Y011131D02*
X015234Y011131D01*
X015234Y010131D02*
X015788Y010131D01*
X022834Y009731D02*
X023388Y009731D01*
X023388Y008731D02*
X022834Y008731D01*
X022834Y007731D02*
X023388Y007731D01*
X023388Y006731D02*
X022834Y006731D01*
X021688Y003031D02*
X021134Y003031D01*
X021134Y002031D02*
X021688Y002031D01*
X021688Y001031D02*
X021134Y001031D01*
X022834Y010731D02*
X023388Y010731D01*
D16*
X002611Y016131D03*
D17*
X010511Y020831D03*
X013111Y016881D03*
X013111Y013131D03*
X013111Y009381D03*
X013111Y005631D03*
X025111Y005631D03*
X025111Y009381D03*
X025111Y013131D03*
X025111Y016881D03*
D18*
X013811Y019431D03*
D19*
X011811Y019431D03*
D20*
X018361Y012631D03*
D21*
X018361Y011631D03*
D22*
X007987Y004131D02*
X007160Y004131D01*
X001987Y004131D02*
X001160Y004131D01*
D23*
X017027Y015706D02*
X017027Y016356D01*
X018995Y016356D02*
X018995Y015706D01*
D24*
X018508Y015510D02*
X017513Y015510D01*
X017551Y015602D02*
X017551Y016460D01*
X017471Y016653D01*
X017391Y016734D01*
X017391Y017307D01*
X017333Y017446D01*
X017226Y017553D01*
X016678Y018101D01*
X018203Y018101D01*
X018631Y017674D01*
X018631Y016734D01*
X018550Y016653D01*
X018470Y016460D01*
X018470Y015602D01*
X018550Y015409D01*
X018618Y015341D01*
X018578Y013114D01*
X018566Y013126D01*
X018369Y013126D01*
X018369Y012640D01*
X018352Y012640D01*
X018352Y013126D01*
X018156Y013126D01*
X017866Y012836D01*
X017866Y012640D01*
X018352Y012640D01*
X018352Y012622D01*
X017866Y012622D01*
X017866Y012426D01*
X018156Y012136D01*
X018234Y012136D01*
X018069Y012068D01*
X017924Y011923D01*
X017846Y011733D01*
X017846Y011529D01*
X017918Y011355D01*
X017451Y011822D01*
X017451Y013402D01*
X017548Y013500D01*
X017548Y013862D01*
X017292Y014118D01*
X016930Y014118D01*
X016673Y013862D01*
X016673Y013500D01*
X016771Y013402D01*
X016771Y011749D01*
X016771Y011613D01*
X016823Y011488D01*
X017421Y010890D01*
X017421Y010372D01*
X017146Y010097D01*
X016918Y010097D01*
X016792Y009971D01*
X016238Y009971D01*
X016265Y010036D01*
X016265Y010226D01*
X016193Y010401D01*
X016058Y010536D01*
X015883Y010608D01*
X015139Y010608D01*
X014963Y010536D01*
X014865Y010437D01*
X014905Y010532D01*
X014905Y010730D01*
X014879Y010791D01*
X014899Y010791D01*
X014963Y010726D01*
X015139Y010654D01*
X015883Y010654D01*
X016058Y010726D01*
X016193Y010861D01*
X016198Y010875D01*
X016380Y010694D01*
X016742Y010694D01*
X016998Y010950D01*
X016998Y011312D01*
X016742Y011568D01*
X016604Y011568D01*
X016253Y011919D01*
X016222Y011932D01*
X016265Y012036D01*
X016265Y012226D01*
X016193Y012401D01*
X016058Y012536D01*
X015883Y012608D01*
X015139Y012608D01*
X014963Y012536D01*
X014899Y012471D01*
X014679Y012471D01*
X014543Y012471D01*
X014498Y012452D01*
X014498Y012582D01*
X014050Y012582D01*
X014050Y012600D01*
X014498Y012600D01*
X014498Y012741D01*
X014779Y012741D01*
X014899Y012791D01*
X014963Y012726D01*
X015139Y012654D01*
X015883Y012654D01*
X016058Y012726D01*
X016193Y012861D01*
X016265Y013036D01*
X016265Y013226D01*
X016193Y013401D01*
X016058Y013536D01*
X015883Y013608D01*
X015139Y013608D01*
X014963Y013536D01*
X014899Y013471D01*
X014829Y013471D01*
X014693Y013471D01*
X014573Y013421D01*
X014518Y013421D01*
X014518Y013789D01*
X014351Y013956D01*
X014351Y014299D01*
X014299Y014424D01*
X014203Y014519D01*
X014189Y014533D01*
X014228Y014625D01*
X014228Y015417D01*
X014152Y015599D01*
X014012Y015739D01*
X013830Y015815D01*
X013632Y015815D01*
X013449Y015739D01*
X013310Y015599D01*
X013234Y015417D01*
X013234Y014625D01*
X013310Y014443D01*
X013449Y014303D01*
X013464Y014297D01*
X013671Y014090D01*
X013671Y013896D01*
X013564Y013789D01*
X013564Y013472D01*
X013549Y013471D01*
X013446Y013471D01*
X013381Y013536D01*
X013206Y013608D01*
X013016Y013608D01*
X012841Y013536D01*
X012706Y013401D01*
X012634Y013226D01*
X012634Y013036D01*
X012706Y012861D01*
X012841Y012726D01*
X013016Y012654D01*
X013206Y012654D01*
X013381Y012726D01*
X013446Y012791D01*
X013506Y012791D01*
X013584Y012765D01*
X013584Y012600D01*
X014032Y012600D01*
X014032Y012582D01*
X013584Y012582D01*
X013584Y012402D01*
X013614Y012371D01*
X012579Y012371D01*
X012443Y012371D01*
X012318Y012319D01*
X011773Y011774D01*
X011721Y011649D01*
X011721Y011513D01*
X011721Y010460D01*
X011623Y010362D01*
X011623Y010000D01*
X011839Y009784D01*
X011634Y009579D01*
X011634Y009183D01*
X011913Y008904D01*
X012271Y008904D01*
X012271Y008763D01*
X012323Y008638D01*
X012418Y008543D01*
X012771Y008190D01*
X012771Y007052D01*
X010503Y009319D01*
X010379Y009371D01*
X010323Y009371D01*
X010258Y009436D01*
X010083Y009508D01*
X009339Y009508D01*
X009263Y009477D01*
X009263Y009585D01*
X009339Y009554D01*
X010083Y009554D01*
X010258Y009626D01*
X010393Y009761D01*
X010465Y009936D01*
X010465Y010126D01*
X010393Y010301D01*
X010258Y010436D01*
X010083Y010508D01*
X009339Y010508D01*
X009263Y010477D01*
X009263Y010585D01*
X009339Y010554D01*
X010083Y010554D01*
X010258Y010626D01*
X010393Y010761D01*
X010465Y010936D01*
X010465Y011126D01*
X010393Y011301D01*
X010258Y011436D01*
X010083Y011508D01*
X009339Y011508D01*
X009163Y011436D01*
X009067Y011340D01*
X009018Y011319D01*
X008813Y011114D01*
X008813Y011302D01*
X008911Y011400D01*
X008911Y011762D01*
X008655Y012018D01*
X008292Y012018D01*
X008036Y011762D01*
X008036Y011431D01*
X007780Y011431D01*
X007586Y011237D01*
X007503Y011319D01*
X007416Y011355D01*
X007379Y011371D01*
X007323Y011371D01*
X007258Y011436D01*
X007083Y011508D01*
X006339Y011508D01*
X006163Y011436D01*
X006029Y011301D01*
X006025Y011291D01*
X005808Y011508D01*
X005629Y011508D01*
X005629Y011050D01*
X005592Y011050D01*
X005592Y011508D01*
X005413Y011508D01*
X005134Y011229D01*
X005134Y011049D01*
X005592Y011049D01*
X005592Y011013D01*
X005134Y011013D01*
X005134Y010834D01*
X005413Y010554D01*
X005592Y010554D01*
X005592Y011012D01*
X005629Y011012D01*
X005629Y010554D01*
X005808Y010554D01*
X006025Y010771D01*
X006029Y010761D01*
X006163Y010626D01*
X006339Y010554D01*
X007083Y010554D01*
X007158Y010585D01*
X007158Y010477D01*
X007083Y010508D01*
X006339Y010508D01*
X006163Y010436D01*
X006099Y010371D01*
X004952Y010371D01*
X004851Y010472D01*
X004851Y012463D01*
X004851Y012599D01*
X004799Y012724D01*
X004103Y013419D01*
X003979Y013471D01*
X003973Y013471D01*
X003817Y013628D01*
X003405Y013628D01*
X003114Y013337D01*
X003114Y012925D01*
X003405Y012634D01*
X003817Y012634D01*
X003872Y012689D01*
X004171Y012390D01*
X004171Y010263D01*
X004223Y010138D01*
X004318Y010043D01*
X004618Y009743D01*
X004743Y009691D01*
X004879Y009691D01*
X006099Y009691D01*
X006163Y009626D01*
X006339Y009554D01*
X007083Y009554D01*
X007158Y009585D01*
X007158Y009477D01*
X007083Y009508D01*
X006339Y009508D01*
X006163Y009436D01*
X006029Y009301D01*
X005957Y009126D01*
X005957Y008936D01*
X005992Y008850D01*
X005918Y008819D01*
X005823Y008724D01*
X005570Y008471D01*
X003973Y008471D01*
X003817Y008628D01*
X003405Y008628D01*
X003114Y008337D01*
X003114Y007925D01*
X003405Y007634D01*
X003817Y007634D01*
X003973Y007791D01*
X005643Y007791D01*
X005779Y007791D01*
X005903Y007843D01*
X005968Y007908D01*
X006029Y007761D01*
X006163Y007626D01*
X006339Y007554D01*
X007083Y007554D01*
X007258Y007626D01*
X007323Y007691D01*
X008370Y007691D01*
X008723Y007338D01*
X008818Y007243D01*
X008943Y007191D01*
X008984Y007191D01*
X008957Y007126D01*
X008957Y006936D01*
X009029Y006761D01*
X009163Y006626D01*
X009339Y006554D01*
X010083Y006554D01*
X010171Y006590D01*
X010171Y006472D01*
X010083Y006508D01*
X009339Y006508D01*
X009163Y006436D01*
X009099Y006371D01*
X009043Y006371D01*
X008918Y006319D01*
X008370Y005771D01*
X007397Y005771D01*
X007465Y005936D01*
X007465Y006126D01*
X007393Y006301D01*
X007258Y006436D01*
X007083Y006508D01*
X006339Y006508D01*
X006163Y006436D01*
X006099Y006371D01*
X005832Y006371D01*
X006125Y006665D01*
X006163Y006626D01*
X006339Y006554D01*
X007083Y006554D01*
X007258Y006626D01*
X007393Y006761D01*
X007465Y006936D01*
X007465Y007126D01*
X007393Y007301D01*
X007258Y007436D01*
X007083Y007508D01*
X006339Y007508D01*
X006163Y007436D01*
X006099Y007371D01*
X005943Y007371D01*
X005818Y007319D01*
X005723Y007224D01*
X005270Y006771D01*
X003953Y006771D01*
X004108Y006925D01*
X004108Y007337D01*
X003817Y007628D01*
X003405Y007628D01*
X003114Y007337D01*
X003114Y006925D01*
X003268Y006771D01*
X002953Y006771D01*
X003108Y006925D01*
X003108Y007337D01*
X002817Y007628D01*
X002405Y007628D01*
X002351Y007574D01*
X002351Y007688D01*
X002405Y007634D01*
X002817Y007634D01*
X003108Y007925D01*
X003108Y008337D01*
X002817Y008628D01*
X002405Y008628D01*
X002351Y008574D01*
X002351Y008688D01*
X002405Y008634D01*
X002817Y008634D01*
X003108Y008925D01*
X003108Y009337D01*
X002817Y009628D01*
X002405Y009628D01*
X002351Y009574D01*
X002351Y009688D01*
X002405Y009634D01*
X002817Y009634D01*
X003108Y009925D01*
X003108Y010337D01*
X002817Y010628D01*
X002588Y010628D01*
X002595Y010634D01*
X002817Y010634D01*
X003108Y010925D01*
X003108Y011153D01*
X003114Y011147D01*
X003114Y010925D01*
X003405Y010634D01*
X003817Y010634D01*
X004108Y010925D01*
X004108Y011337D01*
X003817Y011628D01*
X003595Y011628D01*
X003588Y011634D01*
X003817Y011634D01*
X004108Y011925D01*
X004108Y012337D01*
X003817Y012628D01*
X003405Y012628D01*
X003114Y012337D01*
X003114Y011971D01*
X003108Y011971D01*
X003108Y012337D01*
X002817Y012628D01*
X002405Y012628D01*
X002114Y012337D01*
X002114Y011925D01*
X002120Y011920D01*
X002118Y011919D01*
X002023Y011824D01*
X001351Y011152D01*
X001351Y014894D01*
X001671Y014894D01*
X001671Y014463D01*
X001723Y014338D01*
X001818Y014243D01*
X002114Y013947D01*
X002114Y013925D01*
X002405Y013634D01*
X002817Y013634D01*
X003108Y013925D01*
X003108Y014337D01*
X002817Y014628D01*
X002405Y014628D01*
X002400Y014623D01*
X002351Y014672D01*
X002351Y014688D01*
X002405Y014634D01*
X002817Y014634D01*
X003108Y014925D01*
X003108Y015337D01*
X002817Y015628D01*
X002405Y015628D01*
X002351Y015574D01*
X002351Y015634D01*
X002991Y015634D01*
X003108Y015751D01*
X003108Y016511D01*
X002991Y016628D01*
X002388Y016628D01*
X003171Y017410D01*
X003171Y017063D01*
X003223Y016938D01*
X003318Y016843D01*
X003553Y016608D01*
X003413Y016608D01*
X003134Y016329D01*
X003134Y016149D01*
X003592Y016149D01*
X003592Y016113D01*
X003134Y016113D01*
X003134Y015934D01*
X003413Y015654D01*
X003592Y015654D01*
X003592Y016112D01*
X003629Y016112D01*
X003629Y015654D01*
X003808Y015654D01*
X004088Y015934D01*
X004088Y016113D01*
X003630Y016113D01*
X003630Y016149D01*
X004088Y016149D01*
X004088Y016291D01*
X005197Y016291D01*
X005134Y016229D01*
X005134Y016049D01*
X005592Y016049D01*
X005592Y016013D01*
X005134Y016013D01*
X005134Y015834D01*
X005413Y015554D01*
X005592Y015554D01*
X005592Y016012D01*
X005629Y016012D01*
X005629Y015554D01*
X005808Y015554D01*
X006025Y015771D01*
X006029Y015761D01*
X006163Y015626D01*
X006339Y015554D01*
X007083Y015554D01*
X007258Y015626D01*
X007271Y015639D01*
X007271Y015572D01*
X007171Y015472D01*
X007083Y015508D01*
X006339Y015508D01*
X006163Y015436D01*
X006029Y015301D01*
X005957Y015126D01*
X005957Y014936D01*
X006029Y014761D01*
X006163Y014626D01*
X006339Y014554D01*
X007083Y014554D01*
X007111Y014565D01*
X007111Y014497D01*
X007083Y014508D01*
X006339Y014508D01*
X006163Y014436D01*
X006036Y014308D01*
X005817Y014528D01*
X005405Y014528D01*
X005114Y014237D01*
X005114Y013825D01*
X005405Y013534D01*
X005817Y013534D01*
X006036Y013754D01*
X006163Y013626D01*
X006339Y013554D01*
X007083Y013554D01*
X007171Y013590D01*
X007423Y013338D01*
X007518Y013243D01*
X007643Y013191D01*
X009005Y013191D01*
X008977Y013122D01*
X008977Y013040D01*
X009702Y013040D01*
X009702Y013022D01*
X009719Y013022D01*
X009719Y012574D01*
X010079Y012574D01*
X010171Y012612D01*
X010171Y012472D01*
X010083Y012508D01*
X009339Y012508D01*
X009163Y012436D01*
X009029Y012301D01*
X008957Y012126D01*
X008957Y011936D01*
X009029Y011761D01*
X009163Y011626D01*
X009339Y011554D01*
X010083Y011554D01*
X010258Y011626D01*
X010323Y011691D01*
X010343Y011691D01*
X010658Y011691D01*
X010773Y011561D01*
X010773Y011400D01*
X010871Y011302D01*
X010871Y010538D01*
X010805Y010538D01*
X010514Y010247D01*
X010514Y009835D01*
X010805Y009544D01*
X011217Y009544D01*
X011508Y009835D01*
X011508Y010069D01*
X011551Y010173D01*
X011551Y011302D01*
X011648Y011400D01*
X011648Y011762D01*
X011392Y012018D01*
X011277Y012018D01*
X011174Y012134D01*
X011282Y012134D01*
X011282Y012582D01*
X011299Y012582D01*
X011299Y012134D01*
X011480Y012134D01*
X011748Y012402D01*
X011748Y012582D01*
X011300Y012582D01*
X011300Y012600D01*
X011748Y012600D01*
X011748Y012780D01*
X011480Y013048D01*
X011299Y013048D01*
X011299Y012600D01*
X011282Y012600D01*
X011282Y013048D01*
X011101Y013048D01*
X010851Y012797D01*
X010851Y013299D01*
X010799Y013424D01*
X010703Y013519D01*
X010413Y013810D01*
X010465Y013936D01*
X010465Y014126D01*
X010393Y014301D01*
X010258Y014436D01*
X010083Y014508D01*
X009339Y014508D01*
X009163Y014436D01*
X009029Y014301D01*
X008957Y014126D01*
X008957Y013936D01*
X008984Y013871D01*
X007852Y013871D01*
X007629Y014094D01*
X007730Y014094D01*
X007986Y014350D01*
X007986Y014477D01*
X008199Y014678D01*
X008203Y014680D01*
X008247Y014724D01*
X008294Y014768D01*
X008296Y014773D01*
X008299Y014776D01*
X008323Y014833D01*
X008349Y014891D01*
X008349Y014896D01*
X008351Y014901D01*
X008351Y014964D01*
X008353Y015027D01*
X008351Y015031D01*
X008351Y017990D01*
X008426Y018065D01*
X008604Y018065D01*
X008877Y018338D01*
X008877Y018724D01*
X008604Y018997D01*
X008218Y018997D01*
X007945Y018724D01*
X007945Y018546D01*
X007723Y018324D01*
X007671Y018199D01*
X007671Y018063D01*
X007671Y017552D01*
X007413Y017810D01*
X007465Y017936D01*
X007465Y018126D01*
X007393Y018301D01*
X007258Y018436D01*
X007083Y018508D01*
X006339Y018508D01*
X006163Y018436D01*
X006029Y018301D01*
X005957Y018126D01*
X005957Y017936D01*
X005984Y017871D01*
X004952Y017871D01*
X004851Y017972D01*
X004851Y018865D01*
X004925Y018834D01*
X005717Y018834D01*
X005899Y018910D01*
X005957Y018967D01*
X005957Y018936D01*
X006029Y018761D01*
X006163Y018626D01*
X006339Y018554D01*
X007083Y018554D01*
X007258Y018626D01*
X007393Y018761D01*
X007465Y018936D01*
X007465Y019126D01*
X007413Y019251D01*
X009008Y019251D01*
X008957Y019126D01*
X008957Y018936D01*
X009029Y018761D01*
X009163Y018626D01*
X009339Y018554D01*
X010083Y018554D01*
X010258Y018626D01*
X010393Y018761D01*
X010465Y018936D01*
X010465Y018939D01*
X011534Y017871D01*
X010952Y017871D01*
X010599Y018224D01*
X010503Y018319D01*
X010379Y018371D01*
X010323Y018371D01*
X010258Y018436D01*
X010083Y018508D01*
X009339Y018508D01*
X009163Y018436D01*
X009029Y018301D01*
X008957Y018126D01*
X008957Y017936D01*
X009029Y017761D01*
X009163Y017626D01*
X009339Y017554D01*
X010083Y017554D01*
X010242Y017620D01*
X010618Y017243D01*
X010743Y017191D01*
X010879Y017191D01*
X011746Y017191D01*
X011634Y017079D01*
X011634Y016683D01*
X011913Y016404D01*
X012271Y016404D01*
X012271Y013972D01*
X011823Y013524D01*
X011818Y013513D01*
X011768Y013463D01*
X011768Y013789D01*
X011651Y013906D01*
X011651Y013990D01*
X011929Y014269D01*
X012012Y014303D01*
X012152Y014443D01*
X012228Y014625D01*
X012228Y015417D01*
X012152Y015599D01*
X012012Y015739D01*
X011830Y015815D01*
X011632Y015815D01*
X011449Y015739D01*
X011310Y015599D01*
X011234Y015417D01*
X011234Y014625D01*
X011261Y014561D01*
X011118Y014419D01*
X011023Y014324D01*
X010971Y014199D01*
X010971Y013946D01*
X010814Y013789D01*
X010814Y013393D01*
X011093Y013114D01*
X011488Y013114D01*
X011634Y013259D01*
X011634Y012933D01*
X011913Y012654D01*
X012308Y012654D01*
X012588Y012933D01*
X012588Y013327D01*
X012899Y013638D01*
X012951Y013763D01*
X012951Y013899D01*
X012951Y016431D01*
X013016Y016404D01*
X013206Y016404D01*
X013381Y016476D01*
X013446Y016541D01*
X014820Y016541D01*
X015171Y016190D01*
X015171Y014608D01*
X015139Y014608D01*
X014963Y014536D01*
X014829Y014401D01*
X014757Y014226D01*
X014757Y014036D01*
X014829Y013861D01*
X014963Y013726D01*
X015139Y013654D01*
X015883Y013654D01*
X016058Y013726D01*
X016193Y013861D01*
X016265Y014036D01*
X016265Y014226D01*
X016193Y014401D01*
X016058Y014536D01*
X015883Y014608D01*
X015851Y014608D01*
X015851Y016399D01*
X015799Y016524D01*
X015703Y016619D01*
X015153Y017169D01*
X015029Y017221D01*
X014893Y017221D01*
X013446Y017221D01*
X013381Y017286D01*
X013206Y017358D01*
X013016Y017358D01*
X012904Y017312D01*
X012899Y017324D01*
X012572Y017651D01*
X016053Y017651D01*
X016631Y017074D01*
X016631Y016702D01*
X016582Y016653D01*
X016502Y016460D01*
X016502Y015602D01*
X016582Y015409D01*
X016729Y015261D01*
X016922Y015181D01*
X017131Y015181D01*
X017324Y015261D01*
X017471Y015409D01*
X017551Y015602D01*
X017551Y015668D02*
X018470Y015668D01*
X018470Y015827D02*
X017551Y015827D01*
X017551Y015985D02*
X018470Y015985D01*
X018470Y016144D02*
X017551Y016144D01*
X017551Y016302D02*
X018470Y016302D01*
X018471Y016461D02*
X017551Y016461D01*
X017485Y016620D02*
X018536Y016620D01*
X018631Y016778D02*
X017391Y016778D01*
X017391Y016937D02*
X018631Y016937D01*
X018631Y017095D02*
X017391Y017095D01*
X017391Y017254D02*
X018631Y017254D01*
X018631Y017412D02*
X017347Y017412D01*
X017208Y017571D02*
X018631Y017571D01*
X018575Y017729D02*
X017050Y017729D01*
X016891Y017888D02*
X018417Y017888D01*
X018258Y018046D02*
X016733Y018046D01*
X016134Y017571D02*
X012652Y017571D01*
X012810Y017412D02*
X016292Y017412D01*
X016451Y017254D02*
X013413Y017254D01*
X013111Y016881D02*
X014961Y016881D01*
X015511Y016331D01*
X015511Y014131D01*
X014829Y014400D02*
X014309Y014400D01*
X014203Y014519D02*
X014203Y014519D01*
X014200Y014558D02*
X015019Y014558D01*
X015171Y014717D02*
X014228Y014717D01*
X014228Y014876D02*
X015171Y014876D01*
X015171Y015034D02*
X014228Y015034D01*
X014228Y015193D02*
X015171Y015193D01*
X015171Y015351D02*
X014228Y015351D01*
X014189Y015510D02*
X015171Y015510D01*
X015171Y015668D02*
X014083Y015668D01*
X013379Y015668D02*
X012951Y015668D01*
X012951Y015510D02*
X013273Y015510D01*
X013234Y015351D02*
X012951Y015351D01*
X012951Y015193D02*
X013234Y015193D01*
X013234Y015034D02*
X012951Y015034D01*
X012951Y014876D02*
X013234Y014876D01*
X013234Y014717D02*
X012951Y014717D01*
X012951Y014558D02*
X013262Y014558D01*
X013352Y014400D02*
X012951Y014400D01*
X012951Y014241D02*
X013520Y014241D01*
X013671Y014083D02*
X012951Y014083D01*
X012951Y013924D02*
X013671Y013924D01*
X013564Y013766D02*
X012951Y013766D01*
X013014Y013607D02*
X012868Y013607D01*
X012754Y013449D02*
X012709Y013449D01*
X012660Y013290D02*
X012588Y013290D01*
X012588Y013132D02*
X012634Y013132D01*
X012660Y012973D02*
X012588Y012973D01*
X012469Y012814D02*
X012753Y012814D01*
X013011Y012656D02*
X012311Y012656D01*
X012366Y012339D02*
X011685Y012339D01*
X011748Y012497D02*
X013584Y012497D01*
X013584Y012656D02*
X013211Y012656D01*
X013561Y013131D02*
X013711Y013081D01*
X014711Y013081D01*
X014761Y013131D01*
X015511Y013131D01*
X015885Y013607D02*
X016673Y013607D01*
X016673Y013766D02*
X016098Y013766D01*
X016219Y013924D02*
X016735Y013924D01*
X016894Y014083D02*
X016265Y014083D01*
X016311Y014031D02*
X016511Y014231D01*
X017811Y014231D01*
X018011Y014031D01*
X018011Y012981D01*
X018361Y012631D01*
X018352Y012656D02*
X018369Y012656D01*
X018352Y012814D02*
X018369Y012814D01*
X018352Y012973D02*
X018369Y012973D01*
X018578Y013132D02*
X017451Y013132D01*
X017451Y013290D02*
X018581Y013290D01*
X018584Y013449D02*
X017497Y013449D01*
X017548Y013607D02*
X018587Y013607D01*
X018590Y013766D02*
X017548Y013766D01*
X017486Y013924D02*
X018593Y013924D01*
X018595Y014083D02*
X017328Y014083D01*
X017111Y013681D02*
X017111Y011681D01*
X017761Y011031D01*
X017761Y010231D01*
X017161Y009631D01*
X017111Y009631D01*
X014111Y009631D01*
X014961Y008581D02*
X015511Y009131D01*
X014961Y008581D02*
X014961Y004281D01*
X014111Y003431D01*
X014111Y002331D01*
X014507Y001834D02*
X014689Y001910D01*
X014829Y002050D01*
X014905Y002232D01*
X014905Y002430D01*
X014829Y002612D01*
X014689Y002752D01*
X014507Y002828D01*
X014451Y002828D01*
X014451Y003290D01*
X015153Y003993D01*
X015249Y004088D01*
X015301Y004213D01*
X015301Y004667D01*
X015313Y004654D01*
X015492Y004654D01*
X015492Y005112D01*
X015529Y005112D01*
X015529Y004654D01*
X015708Y004654D01*
X015988Y004934D01*
X015988Y005113D01*
X015530Y005113D01*
X015530Y005149D01*
X015988Y005149D01*
X015988Y005329D01*
X015708Y005608D01*
X015529Y005608D01*
X015529Y005150D01*
X015492Y005150D01*
X015492Y005608D01*
X015313Y005608D01*
X015301Y005595D01*
X015301Y005638D01*
X015305Y005634D01*
X015717Y005634D01*
X016008Y005925D01*
X016008Y006337D01*
X015717Y006628D01*
X015651Y006628D01*
X015651Y006709D01*
X015735Y006674D01*
X016527Y006674D01*
X016569Y006692D01*
X016771Y006490D01*
X016771Y004474D01*
X016717Y004528D01*
X016305Y004528D01*
X016014Y004237D01*
X016014Y003825D01*
X016305Y003534D01*
X016717Y003534D01*
X016771Y003588D01*
X016771Y003572D01*
X016570Y003371D01*
X015873Y003371D01*
X015717Y003528D01*
X015305Y003528D01*
X015014Y003237D01*
X015014Y002825D01*
X015171Y002668D01*
X014774Y002668D01*
X014872Y002509D02*
X015171Y002509D01*
X015171Y002394D02*
X015014Y002237D01*
X015014Y001825D01*
X015020Y001820D01*
X015018Y001819D01*
X014923Y001724D01*
X014806Y001607D01*
X014678Y001735D01*
X014503Y001808D01*
X014129Y001808D01*
X014129Y001350D01*
X014092Y001350D01*
X014092Y001808D01*
X013719Y001808D01*
X013544Y001735D01*
X013410Y001601D01*
X013337Y001426D01*
X013337Y001407D01*
X013217Y001528D01*
X012805Y001528D01*
X012514Y001237D01*
X012514Y000825D01*
X012577Y000762D01*
X009445Y000762D01*
X009508Y000825D01*
X009508Y001237D01*
X009217Y001528D01*
X008805Y001528D01*
X008514Y001237D01*
X008514Y000825D01*
X008577Y000762D01*
X007945Y000762D01*
X008008Y000825D01*
X008008Y001237D01*
X007717Y001528D01*
X007305Y001528D01*
X007014Y001237D01*
X007014Y000825D01*
X007077Y000762D01*
X003916Y000762D01*
X003988Y000834D01*
X003988Y001013D01*
X003530Y001013D01*
X003530Y001049D01*
X003988Y001049D01*
X003988Y001229D01*
X003708Y001508D01*
X003529Y001508D01*
X003529Y001050D01*
X003492Y001050D01*
X003492Y001508D01*
X003313Y001508D01*
X003034Y001229D01*
X003034Y001049D01*
X003492Y001049D01*
X003492Y001013D01*
X003034Y001013D01*
X003034Y000834D01*
X003105Y000762D01*
X002775Y000762D01*
X002816Y000803D01*
X002864Y000919D01*
X002864Y001044D01*
X002864Y001241D01*
X003046Y001241D01*
X003034Y001082D02*
X002864Y001082D01*
X002864Y000924D02*
X003034Y000924D01*
X003102Y000765D02*
X002778Y000765D01*
X003492Y001082D02*
X003529Y001082D01*
X003529Y001241D02*
X003492Y001241D01*
X003492Y001399D02*
X003529Y001399D01*
X003529Y001554D02*
X003708Y001554D01*
X003988Y001834D01*
X003988Y002013D01*
X003530Y002013D01*
X003530Y002049D01*
X003988Y002049D01*
X003988Y002229D01*
X003782Y002434D01*
X003907Y002434D01*
X004089Y002510D01*
X004229Y002650D01*
X004305Y002832D01*
X004305Y003030D01*
X004229Y003212D01*
X004089Y003352D01*
X003907Y003428D01*
X003115Y003428D01*
X002933Y003352D01*
X002793Y003212D01*
X002717Y003030D01*
X002717Y002832D01*
X002793Y002650D01*
X002933Y002510D01*
X003115Y002434D01*
X003240Y002434D01*
X003034Y002229D01*
X003034Y002049D01*
X003492Y002049D01*
X003492Y002013D01*
X003034Y002013D01*
X003034Y001834D01*
X003313Y001554D01*
X003492Y001554D01*
X003492Y002012D01*
X003529Y002012D01*
X003529Y001554D01*
X003529Y001558D02*
X003492Y001558D01*
X003492Y001716D02*
X003529Y001716D01*
X003529Y001875D02*
X003492Y001875D01*
X003492Y002034D02*
X002742Y002034D01*
X002742Y001982D02*
X002742Y002280D01*
X002665Y002568D01*
X002516Y002826D01*
X002305Y003036D01*
X002047Y003185D01*
X001760Y003262D01*
X001462Y003262D01*
X001174Y003185D01*
X000916Y003036D01*
X000792Y002911D01*
X000792Y003632D01*
X000813Y003611D01*
X001038Y003518D01*
X002109Y003518D01*
X002334Y003611D01*
X002507Y003784D01*
X002600Y004009D01*
X002600Y004253D01*
X002507Y004478D01*
X002334Y004651D01*
X002109Y004744D01*
X001038Y004744D01*
X000813Y004651D01*
X000792Y004630D01*
X000792Y006545D01*
X000818Y006518D01*
X002193Y005143D01*
X002318Y005091D01*
X002454Y005091D01*
X008579Y005091D01*
X008703Y005143D01*
X008799Y005238D01*
X009180Y005620D01*
X009339Y005554D01*
X009371Y005554D01*
X009371Y005313D01*
X009423Y005188D01*
X009518Y005093D01*
X009771Y004840D01*
X009771Y004494D01*
X009614Y004337D01*
X009614Y003925D01*
X009905Y003634D01*
X010317Y003634D01*
X010608Y003925D01*
X010608Y004337D01*
X010451Y004494D01*
X010451Y004865D01*
X010704Y004865D01*
X010977Y005138D01*
X010977Y005524D01*
X010956Y005544D01*
X011217Y005544D01*
X011271Y005598D01*
X011271Y005299D01*
X011271Y005163D01*
X011323Y005038D01*
X011545Y004816D01*
X011545Y004638D01*
X011818Y004365D01*
X012204Y004365D01*
X012271Y004432D01*
X012271Y004272D01*
X012108Y004109D01*
X012008Y004208D01*
X011613Y004208D01*
X011334Y003929D01*
X011334Y003633D01*
X011258Y003708D01*
X010863Y003708D01*
X010726Y003571D01*
X009543Y003571D01*
X009418Y003519D01*
X009323Y003424D01*
X008723Y002824D01*
X008671Y002699D01*
X008671Y002563D01*
X008671Y002494D01*
X008514Y002337D01*
X008514Y001925D01*
X008805Y001634D01*
X009217Y001634D01*
X009508Y001925D01*
X009508Y002337D01*
X009353Y002492D01*
X009752Y002891D01*
X010726Y002891D01*
X010863Y002754D01*
X011258Y002754D01*
X011354Y002849D01*
X011354Y002740D01*
X011802Y002740D01*
X011802Y003188D01*
X011621Y003188D01*
X011538Y003105D01*
X011538Y003329D01*
X011613Y003254D01*
X012008Y003254D01*
X012146Y003391D01*
X012279Y003391D01*
X012403Y003443D01*
X012499Y003538D01*
X012499Y003538D01*
X012803Y003843D01*
X012803Y003843D01*
X012899Y003938D01*
X012951Y004063D01*
X012951Y005181D01*
X013016Y005154D01*
X013206Y005154D01*
X013381Y005226D01*
X013463Y005308D01*
X013544Y005227D01*
X013719Y005154D01*
X014092Y005154D01*
X014092Y005612D01*
X014129Y005612D01*
X014129Y005154D01*
X014503Y005154D01*
X014621Y005203D01*
X014621Y004422D01*
X013823Y003624D01*
X013771Y003499D01*
X013771Y003363D01*
X013771Y002828D01*
X013715Y002828D01*
X013533Y002752D01*
X013393Y002612D01*
X013317Y002430D01*
X013317Y002232D01*
X013393Y002050D01*
X013533Y001910D01*
X013715Y001834D01*
X014507Y001834D01*
X014605Y001875D02*
X015014Y001875D01*
X015014Y002034D02*
X014813Y002034D01*
X014888Y002192D02*
X015014Y002192D01*
X014905Y002351D02*
X015128Y002351D01*
X015171Y002394D02*
X015171Y002668D01*
X015014Y002826D02*
X014510Y002826D01*
X014451Y002985D02*
X015014Y002985D01*
X015014Y003143D02*
X014451Y003143D01*
X014463Y003302D02*
X015079Y003302D01*
X015238Y003460D02*
X014621Y003460D01*
X014780Y003619D02*
X016220Y003619D01*
X016062Y003778D02*
X014938Y003778D01*
X015097Y003936D02*
X016014Y003936D01*
X016014Y004095D02*
X015252Y004095D01*
X015301Y004253D02*
X016030Y004253D01*
X016189Y004412D02*
X015301Y004412D01*
X015301Y004570D02*
X016771Y004570D01*
X016771Y004729D02*
X015783Y004729D01*
X015941Y004887D02*
X016771Y004887D01*
X016771Y005046D02*
X015988Y005046D01*
X015988Y005204D02*
X016771Y005204D01*
X016771Y005363D02*
X015953Y005363D01*
X015795Y005521D02*
X016771Y005521D01*
X016771Y005680D02*
X015762Y005680D01*
X015921Y005839D02*
X016771Y005839D01*
X016771Y005997D02*
X016008Y005997D01*
X016008Y006156D02*
X016771Y006156D01*
X016771Y006314D02*
X016008Y006314D01*
X015872Y006473D02*
X016771Y006473D01*
X016630Y006631D02*
X015651Y006631D01*
X015311Y006331D02*
X015311Y007831D01*
X015811Y008331D01*
X015795Y007834D02*
X016207Y007834D01*
X016389Y007910D01*
X016430Y007951D01*
X016935Y007951D01*
X017086Y007951D01*
X017226Y008009D01*
X019126Y009909D01*
X019233Y010016D01*
X019291Y010155D01*
X019291Y010527D01*
X019378Y015347D01*
X019440Y015409D01*
X019520Y015602D01*
X019520Y016460D01*
X019440Y016653D01*
X019391Y016702D01*
X019391Y017907D01*
X019333Y018046D01*
X019226Y018153D01*
X018576Y018803D01*
X018436Y018861D01*
X018285Y018861D01*
X015808Y018861D01*
X015808Y019237D01*
X015651Y019394D01*
X015651Y019668D01*
X015808Y019825D01*
X015808Y020047D01*
X015952Y020191D01*
X018814Y020191D01*
X018814Y019825D01*
X019105Y019534D01*
X019517Y019534D01*
X019808Y019825D01*
X019808Y020191D01*
X023043Y020191D01*
X023179Y020191D01*
X023303Y020243D01*
X023899Y020838D01*
X023951Y020963D01*
X023951Y021099D01*
X023951Y021319D01*
X024015Y021384D01*
X024088Y021559D01*
X024088Y022303D01*
X024015Y022478D01*
X023881Y022613D01*
X023706Y022685D01*
X023516Y022685D01*
X023341Y022613D01*
X023206Y022478D01*
X023134Y022303D01*
X023134Y021559D01*
X023206Y021384D01*
X023271Y021319D01*
X023271Y021172D01*
X022970Y020871D01*
X022732Y020871D01*
X022899Y021038D01*
X022951Y021163D01*
X022951Y021299D01*
X022951Y021319D01*
X023015Y021384D01*
X023088Y021559D01*
X023088Y022303D01*
X023015Y022478D01*
X022881Y022613D01*
X022706Y022685D01*
X022516Y022685D01*
X022341Y022613D01*
X022206Y022478D01*
X022134Y022303D01*
X022134Y021559D01*
X022206Y021384D01*
X022219Y021371D01*
X022003Y021371D01*
X022015Y021384D01*
X022088Y021559D01*
X022088Y022303D01*
X022015Y022478D01*
X021881Y022613D01*
X021706Y022685D01*
X021516Y022685D01*
X021341Y022613D01*
X021206Y022478D01*
X021134Y022303D01*
X021134Y021559D01*
X021206Y021384D01*
X021219Y021371D01*
X021003Y021371D01*
X021015Y021384D01*
X021088Y021559D01*
X021088Y022303D01*
X021015Y022478D01*
X020881Y022613D01*
X020706Y022685D01*
X020516Y022685D01*
X020341Y022613D01*
X020206Y022478D01*
X020134Y022303D01*
X020134Y021559D01*
X020206Y021384D01*
X020219Y021371D01*
X019673Y021371D01*
X019517Y021528D01*
X019295Y021528D01*
X019288Y021534D01*
X019517Y021534D01*
X020144Y021534D01*
X020134Y021693D02*
X019675Y021693D01*
X019808Y021825D02*
X019517Y021534D01*
X019669Y021376D02*
X020214Y021376D01*
X020134Y021851D02*
X019808Y021851D01*
X019808Y021825D02*
X019808Y022237D01*
X019517Y022528D01*
X019105Y022528D01*
X018948Y022371D01*
X016352Y022371D01*
X015975Y022747D01*
X026181Y022747D01*
X026181Y022160D01*
X026055Y022286D01*
X025797Y022435D01*
X025510Y022512D01*
X025212Y022512D01*
X024924Y022435D01*
X024666Y022286D01*
X024456Y022076D01*
X024307Y021818D01*
X024230Y021530D01*
X024230Y021232D01*
X024307Y020944D01*
X024456Y020686D01*
X024666Y020476D01*
X024924Y020327D01*
X025212Y020250D01*
X025510Y020250D01*
X025797Y020327D01*
X026055Y020476D01*
X026181Y020602D01*
X026181Y009781D01*
X025711Y009781D01*
X025711Y009292D01*
X025709Y009288D01*
X025701Y009267D01*
X025701Y009034D01*
X025711Y009009D01*
X025414Y009009D01*
X025381Y008976D02*
X025515Y009111D01*
X025588Y009286D01*
X025588Y009476D01*
X025515Y009651D01*
X025381Y009786D01*
X025206Y009858D01*
X025016Y009858D01*
X024841Y009786D01*
X024706Y009651D01*
X024634Y009476D01*
X024634Y009286D01*
X024706Y009111D01*
X024841Y008976D01*
X025016Y008904D01*
X025206Y008904D01*
X025381Y008976D01*
X025539Y009168D02*
X025701Y009168D01*
X025701Y009267D02*
X025701Y009267D01*
X025711Y009327D02*
X025588Y009327D01*
X025584Y009485D02*
X025711Y009485D01*
X025711Y009644D02*
X025519Y009644D01*
X025341Y009802D02*
X026181Y009802D01*
X026181Y009961D02*
X024321Y009961D01*
X024308Y009858D02*
X024219Y009858D01*
X025399Y011038D01*
X025451Y011163D01*
X025451Y011299D01*
X025451Y012796D01*
X025515Y012861D01*
X025588Y013036D01*
X025588Y013226D01*
X025515Y013401D01*
X025381Y013536D01*
X025206Y013608D01*
X025016Y013608D01*
X024951Y013581D01*
X024951Y016240D01*
X025114Y016404D01*
X025206Y016404D01*
X025381Y016476D01*
X025515Y016611D01*
X025588Y016786D01*
X025588Y016976D01*
X025515Y017151D01*
X025381Y017286D01*
X025206Y017358D01*
X025016Y017358D01*
X024841Y017286D01*
X024706Y017151D01*
X024634Y016976D01*
X024634Y016885D01*
X024588Y016839D01*
X024588Y017079D01*
X024308Y017358D01*
X023913Y017358D01*
X023798Y017243D01*
X023689Y017352D01*
X023507Y017428D01*
X022715Y017428D01*
X022533Y017352D01*
X022491Y017311D01*
X022435Y017311D01*
X022308Y017258D01*
X022308Y017537D01*
X022151Y017694D01*
X022151Y017999D01*
X022099Y018124D01*
X022003Y018219D01*
X021951Y018272D01*
X021951Y018319D01*
X022015Y018384D01*
X022088Y018559D01*
X022088Y019303D01*
X022015Y019478D01*
X021881Y019613D01*
X021706Y019685D01*
X021516Y019685D01*
X021341Y019613D01*
X021206Y019478D01*
X021134Y019303D01*
X021134Y018559D01*
X021206Y018384D01*
X021271Y018319D01*
X021271Y018199D01*
X021271Y018063D01*
X021323Y017938D01*
X021471Y017790D01*
X021471Y017694D01*
X021448Y017671D01*
X021143Y017671D01*
X021018Y017619D01*
X020923Y017524D01*
X020623Y017224D01*
X020571Y017099D01*
X020571Y016991D01*
X020490Y016909D01*
X020414Y016727D01*
X020414Y015935D01*
X020490Y015753D01*
X020629Y015613D01*
X020812Y015537D01*
X021010Y015537D01*
X021192Y015613D01*
X021332Y015753D01*
X021408Y015935D01*
X021408Y016727D01*
X021332Y016909D01*
X021301Y016940D01*
X021352Y016991D01*
X021448Y016991D01*
X021605Y016834D01*
X021877Y016834D01*
X021596Y016553D01*
X021489Y016446D01*
X021431Y016307D01*
X021431Y012654D01*
X021388Y012610D01*
X021388Y012723D01*
X021315Y012898D01*
X021181Y013032D01*
X021006Y013105D01*
X020929Y013105D01*
X020929Y012350D01*
X020892Y012350D01*
X020892Y013105D01*
X020816Y013105D01*
X020641Y013032D01*
X020507Y012898D01*
X020434Y012723D01*
X020434Y012349D01*
X020892Y012349D01*
X020892Y012313D01*
X020434Y012313D01*
X020434Y011939D01*
X020507Y011764D01*
X020641Y011630D01*
X020816Y011557D01*
X020892Y011557D01*
X020892Y012312D01*
X020929Y012312D01*
X020929Y011557D01*
X021006Y011557D01*
X021071Y011584D01*
X021071Y011463D01*
X021071Y006163D01*
X021123Y006038D01*
X021218Y005943D01*
X021473Y005688D01*
X021421Y005688D01*
X021154Y005420D01*
X021154Y005240D01*
X021602Y005240D01*
X021602Y005222D01*
X021619Y005222D01*
X021619Y004774D01*
X021800Y004774D01*
X022068Y005042D01*
X022068Y005093D01*
X022671Y004490D01*
X022671Y004252D01*
X022403Y004519D01*
X022279Y004571D01*
X022143Y004571D01*
X021946Y004571D01*
X021808Y004708D01*
X021413Y004708D01*
X021338Y004633D01*
X021338Y004857D01*
X021421Y004774D01*
X021602Y004774D01*
X021602Y005222D01*
X021154Y005222D01*
X021154Y005113D01*
X021058Y005208D01*
X020663Y005208D01*
X020384Y004929D01*
X020384Y004533D01*
X020663Y004254D01*
X021058Y004254D01*
X021134Y004329D01*
X021134Y004033D01*
X021413Y003754D01*
X021808Y003754D01*
X021946Y003891D01*
X022070Y003891D01*
X022271Y003690D01*
X022271Y002472D01*
X022170Y002371D01*
X022023Y002371D01*
X021958Y002436D01*
X021783Y002508D01*
X021039Y002508D01*
X020863Y002436D01*
X020729Y002301D01*
X020657Y002126D01*
X020657Y001936D01*
X020684Y001871D01*
X020008Y001871D01*
X020008Y002237D01*
X019717Y002528D01*
X019305Y002528D01*
X019014Y002237D01*
X019014Y001871D01*
X016008Y001871D01*
X016008Y002237D01*
X015851Y002394D01*
X015851Y002668D01*
X019172Y002668D01*
X019305Y002534D02*
X019014Y002825D01*
X019014Y003237D01*
X019305Y003528D01*
X019717Y003528D01*
X020008Y003237D01*
X020008Y002825D01*
X019717Y002534D01*
X019305Y002534D01*
X019286Y002509D02*
X015851Y002509D01*
X015851Y002668D02*
X015873Y002691D01*
X016779Y002691D01*
X016903Y002743D01*
X016999Y002838D01*
X017399Y003238D01*
X017451Y003363D01*
X017451Y003499D01*
X017451Y006699D01*
X017399Y006824D01*
X017303Y006919D01*
X016905Y007318D01*
X016849Y007452D01*
X016709Y007592D01*
X016527Y007668D01*
X015735Y007668D01*
X015651Y007633D01*
X015651Y007690D01*
X015795Y007834D01*
X015702Y007741D02*
X019471Y007741D01*
X019471Y007668D02*
X019471Y007834D01*
X019415Y007834D01*
X019233Y007910D01*
X019093Y008050D01*
X019017Y008232D01*
X019017Y008430D01*
X019093Y008612D01*
X019233Y008752D01*
X019415Y008828D01*
X020207Y008828D01*
X020389Y008752D01*
X020529Y008612D01*
X020605Y008430D01*
X020605Y008232D01*
X020529Y008050D01*
X020389Y007910D01*
X020207Y007834D01*
X020151Y007834D01*
X020151Y007263D01*
X020099Y007138D01*
X020003Y007043D01*
X019843Y006883D01*
X019841Y006882D01*
X019709Y006750D01*
X019527Y006674D01*
X018735Y006674D01*
X018553Y006750D01*
X018413Y006890D01*
X018337Y007072D01*
X018337Y007270D01*
X018413Y007452D01*
X018553Y007592D01*
X018735Y007668D01*
X019471Y007668D01*
X019257Y007900D02*
X016365Y007900D01*
X016719Y007583D02*
X018543Y007583D01*
X018401Y007424D02*
X016861Y007424D01*
X016957Y007265D02*
X018337Y007265D01*
X018337Y007107D02*
X017116Y007107D01*
X017274Y006948D02*
X018388Y006948D01*
X018513Y006790D02*
X017413Y006790D01*
X017451Y006631D02*
X021071Y006631D01*
X021071Y006473D02*
X019872Y006473D01*
X020008Y006337D02*
X019717Y006628D01*
X019305Y006628D01*
X019014Y006337D01*
X019014Y005925D01*
X019171Y005768D01*
X019171Y005494D01*
X019014Y005337D01*
X019014Y004925D01*
X019171Y004768D01*
X019171Y004472D01*
X019070Y004371D01*
X018873Y004371D01*
X018717Y004528D01*
X018305Y004528D01*
X018014Y004237D01*
X018014Y003825D01*
X018305Y003534D01*
X018717Y003534D01*
X018873Y003691D01*
X019143Y003691D01*
X019279Y003691D01*
X019403Y003743D01*
X019703Y004043D01*
X019799Y004138D01*
X019851Y004263D01*
X019851Y004768D01*
X020008Y004925D01*
X020008Y005337D01*
X019851Y005494D01*
X019851Y005768D01*
X020008Y005925D01*
X020008Y006337D01*
X020008Y006314D02*
X021071Y006314D01*
X021074Y006156D02*
X020008Y006156D01*
X020008Y005997D02*
X021164Y005997D01*
X021322Y005839D02*
X019921Y005839D01*
X019851Y005680D02*
X021413Y005680D01*
X021255Y005521D02*
X019851Y005521D01*
X019981Y005363D02*
X021154Y005363D01*
X021154Y005204D02*
X021062Y005204D01*
X020659Y005204D02*
X020008Y005204D01*
X020008Y005046D02*
X020501Y005046D01*
X020384Y004887D02*
X019970Y004887D01*
X019851Y004729D02*
X020384Y004729D01*
X020384Y004570D02*
X019851Y004570D01*
X019851Y004412D02*
X020505Y004412D01*
X021134Y004253D02*
X019847Y004253D01*
X019755Y004095D02*
X021134Y004095D01*
X021231Y003936D02*
X019597Y003936D01*
X019438Y003778D02*
X021390Y003778D01*
X021832Y003778D02*
X022184Y003778D01*
X022271Y003619D02*
X018801Y003619D01*
X019079Y003302D02*
X017425Y003302D01*
X017451Y003460D02*
X019238Y003460D01*
X019014Y003143D02*
X017304Y003143D01*
X017145Y002985D02*
X019014Y002985D01*
X019014Y002826D02*
X016987Y002826D01*
X016711Y003031D02*
X015511Y003031D01*
X015511Y002031D01*
X016008Y002034D02*
X019014Y002034D01*
X019014Y002192D02*
X016008Y002192D01*
X015894Y002351D02*
X019128Y002351D01*
X019735Y002509D02*
X022271Y002509D01*
X022271Y002668D02*
X022000Y002668D01*
X021958Y002626D02*
X022093Y002761D01*
X022165Y002936D01*
X022165Y003126D01*
X022093Y003301D01*
X021958Y003436D01*
X021783Y003508D01*
X021039Y003508D01*
X020863Y003436D01*
X020729Y003301D01*
X020657Y003126D01*
X020657Y002936D01*
X020729Y002761D01*
X020863Y002626D01*
X021039Y002554D01*
X021783Y002554D01*
X021958Y002626D01*
X022120Y002826D02*
X022271Y002826D01*
X022271Y002985D02*
X022165Y002985D01*
X022158Y003143D02*
X022271Y003143D01*
X022271Y003302D02*
X022092Y003302D01*
X022271Y003460D02*
X021898Y003460D01*
X022611Y003831D02*
X022611Y002331D01*
X022311Y002031D01*
X021411Y002031D01*
X020779Y002351D02*
X019894Y002351D01*
X020008Y002192D02*
X020684Y002192D01*
X020657Y002034D02*
X020008Y002034D01*
X020008Y001875D02*
X020682Y001875D01*
X022138Y001191D02*
X022165Y001126D01*
X022165Y000936D01*
X022093Y000762D01*
X025734Y000762D01*
X025733Y001060D01*
X025510Y001000D01*
X025212Y001000D01*
X024924Y001077D01*
X024666Y001226D01*
X024456Y001436D01*
X024307Y001694D01*
X024230Y001982D01*
X024230Y002280D01*
X024307Y002568D01*
X024456Y002826D01*
X023351Y002826D01*
X023351Y002668D02*
X024365Y002668D01*
X024291Y002509D02*
X023351Y002509D01*
X023351Y002351D02*
X024249Y002351D01*
X024230Y002192D02*
X023351Y002192D01*
X023351Y002163D02*
X023351Y004563D01*
X023351Y004699D01*
X023299Y004824D01*
X021751Y006372D01*
X021751Y011390D01*
X022003Y011643D01*
X022099Y011738D01*
X022151Y011863D01*
X022317Y011863D01*
X022317Y011832D02*
X022393Y011650D01*
X022533Y011510D01*
X022715Y011434D01*
X023507Y011434D01*
X023689Y011510D01*
X023829Y011650D01*
X023905Y011832D01*
X023905Y012030D01*
X023829Y012212D01*
X023689Y012352D01*
X023507Y012428D01*
X022715Y012428D01*
X022533Y012352D01*
X022393Y012212D01*
X022317Y012030D01*
X022317Y011832D01*
X022370Y011705D02*
X022065Y011705D01*
X022151Y011863D02*
X022151Y011968D01*
X022308Y012125D01*
X022308Y012537D01*
X022191Y012654D01*
X022191Y016074D01*
X022599Y016482D01*
X022715Y016434D01*
X023507Y016434D01*
X023689Y016510D01*
X023748Y016569D01*
X023913Y016404D01*
X024271Y016404D01*
X024271Y013608D01*
X023913Y013608D01*
X023667Y013361D01*
X023507Y013428D01*
X022715Y013428D01*
X022533Y013352D01*
X022393Y013212D01*
X022317Y013030D01*
X022317Y012832D01*
X022393Y012650D01*
X022533Y012510D01*
X022715Y012434D01*
X023507Y012434D01*
X023689Y012510D01*
X023829Y012650D01*
X023855Y012712D01*
X023913Y012654D01*
X024271Y012654D01*
X024271Y011672D01*
X023696Y011097D01*
X023658Y011136D01*
X023483Y011208D01*
X022739Y011208D01*
X022563Y011136D01*
X022429Y011001D01*
X022357Y010826D01*
X022357Y010636D01*
X022429Y010461D01*
X022563Y010326D01*
X022739Y010254D01*
X023483Y010254D01*
X023658Y010326D01*
X023723Y010391D01*
X023790Y010391D01*
X023571Y010172D01*
X023483Y010208D01*
X022739Y010208D01*
X022563Y010136D01*
X022429Y010001D01*
X022357Y009826D01*
X022357Y009636D01*
X022429Y009461D01*
X022563Y009326D01*
X022563Y009327D02*
X021751Y009327D01*
X021751Y009485D02*
X022419Y009485D01*
X022357Y009644D02*
X021751Y009644D01*
X021751Y009802D02*
X022357Y009802D01*
X022412Y009961D02*
X021751Y009961D01*
X021751Y010119D02*
X022547Y010119D01*
X022681Y010278D02*
X021751Y010278D01*
X021751Y010436D02*
X022454Y010436D01*
X022374Y010595D02*
X021751Y010595D01*
X021751Y010753D02*
X022357Y010753D01*
X022392Y010912D02*
X021751Y010912D01*
X021751Y011071D02*
X022498Y011071D01*
X022496Y011546D02*
X021907Y011546D01*
X021751Y011388D02*
X023987Y011388D01*
X024145Y011546D02*
X023725Y011546D01*
X023852Y011705D02*
X024271Y011705D01*
X024271Y011863D02*
X023905Y011863D01*
X023905Y012022D02*
X024271Y012022D01*
X024271Y012180D02*
X023842Y012180D01*
X023702Y012339D02*
X024271Y012339D01*
X024271Y012497D02*
X023659Y012497D01*
X023832Y012656D02*
X023911Y012656D01*
X025111Y013131D02*
X025111Y011231D01*
X023611Y009731D01*
X023111Y009731D01*
X022739Y009254D02*
X023483Y009254D01*
X023634Y009316D01*
X023634Y009183D01*
X023913Y008904D01*
X024308Y008904D01*
X024588Y009183D01*
X024588Y009579D01*
X024308Y009858D01*
X024364Y009802D02*
X024881Y009802D01*
X024703Y009644D02*
X024523Y009644D01*
X024588Y009485D02*
X024638Y009485D01*
X024634Y009327D02*
X024588Y009327D01*
X024573Y009168D02*
X024683Y009168D01*
X024808Y009009D02*
X024414Y009009D01*
X023865Y008826D02*
X023793Y009001D01*
X023658Y009136D01*
X023483Y009208D01*
X022739Y009208D01*
X022563Y009136D01*
X022429Y009001D01*
X022357Y008826D01*
X022357Y008636D01*
X022429Y008461D01*
X022563Y008326D01*
X022739Y008254D01*
X023483Y008254D01*
X023658Y008326D01*
X023793Y008461D01*
X023865Y008636D01*
X023865Y008826D01*
X023855Y008851D02*
X025701Y008851D01*
X025701Y008899D02*
X025701Y008790D01*
X025701Y008666D01*
X025712Y008639D01*
X025712Y008375D01*
X025701Y008347D01*
X025701Y008237D01*
X025701Y008114D01*
X025701Y008114D01*
X025713Y008083D01*
X025717Y006729D01*
X025701Y006689D01*
X025701Y006580D01*
X025701Y006395D01*
X025718Y006352D01*
X025720Y005754D01*
X025718Y005750D01*
X025701Y005707D01*
X025701Y005598D01*
X025701Y005412D01*
X025703Y005406D01*
X025701Y005400D01*
X025701Y005291D01*
X025721Y005241D01*
X025722Y005204D01*
X025701Y005154D01*
X025701Y005044D01*
X025722Y004992D01*
X025722Y004961D01*
X025701Y004909D01*
X025701Y004799D01*
X025723Y004746D01*
X025724Y004290D01*
X025701Y004233D01*
X025701Y004124D01*
X025701Y004062D01*
X025725Y004003D01*
X025726Y003498D01*
X025718Y003477D01*
X025701Y003436D01*
X025701Y003312D01*
X025701Y003211D01*
X025510Y003262D01*
X025212Y003262D01*
X024924Y003185D01*
X024666Y003036D01*
X024456Y002826D01*
X024615Y002985D02*
X023351Y002985D01*
X023351Y003143D02*
X024852Y003143D01*
X025701Y003302D02*
X023351Y003302D01*
X023351Y003460D02*
X025711Y003460D01*
X025701Y003436D02*
X025701Y003436D01*
X025726Y003619D02*
X023351Y003619D01*
X023351Y003778D02*
X025726Y003778D01*
X025725Y003936D02*
X023351Y003936D01*
X023351Y004095D02*
X025701Y004095D01*
X025709Y004253D02*
X023351Y004253D01*
X023351Y004412D02*
X025724Y004412D01*
X025723Y004570D02*
X023351Y004570D01*
X023338Y004729D02*
X025723Y004729D01*
X025701Y004799D02*
X025701Y004799D01*
X025701Y004887D02*
X023235Y004887D01*
X023077Y005046D02*
X025701Y005046D01*
X025721Y005204D02*
X025328Y005204D01*
X025381Y005226D02*
X025515Y005361D01*
X025588Y005536D01*
X025588Y005726D01*
X025515Y005901D01*
X025381Y006036D01*
X025206Y006108D01*
X025016Y006108D01*
X024841Y006036D01*
X024706Y005901D01*
X024634Y005726D01*
X024634Y005536D01*
X024706Y005361D01*
X024841Y005226D01*
X025016Y005154D01*
X025206Y005154D01*
X025381Y005226D01*
X025516Y005363D02*
X025701Y005363D01*
X025701Y005521D02*
X025582Y005521D01*
X025588Y005680D02*
X025701Y005680D01*
X025720Y005839D02*
X025541Y005839D01*
X025420Y005997D02*
X025719Y005997D01*
X025719Y006156D02*
X021967Y006156D01*
X021808Y006314D02*
X022593Y006314D01*
X022563Y006326D02*
X022739Y006254D01*
X023483Y006254D01*
X023658Y006326D01*
X023793Y006461D01*
X023865Y006636D01*
X023865Y006826D01*
X023793Y007001D01*
X023658Y007136D01*
X023483Y007208D01*
X022739Y007208D01*
X022563Y007136D01*
X022429Y007001D01*
X022357Y006826D01*
X022357Y006636D01*
X022429Y006461D01*
X022563Y006326D01*
X022424Y006473D02*
X021751Y006473D01*
X021751Y006631D02*
X022359Y006631D01*
X022357Y006790D02*
X021751Y006790D01*
X021751Y006948D02*
X022407Y006948D01*
X022535Y007107D02*
X021751Y007107D01*
X021751Y007265D02*
X022711Y007265D01*
X022739Y007254D02*
X022563Y007326D01*
X022429Y007461D01*
X022357Y007636D01*
X022357Y007826D01*
X022429Y008001D01*
X022563Y008136D01*
X022739Y008208D01*
X023483Y008208D01*
X023658Y008136D01*
X023793Y008001D01*
X023865Y007826D01*
X023865Y007636D01*
X023793Y007461D01*
X023658Y007326D01*
X023483Y007254D01*
X022739Y007254D01*
X022466Y007424D02*
X021751Y007424D01*
X021751Y007583D02*
X022379Y007583D01*
X022357Y007741D02*
X021751Y007741D01*
X021751Y007900D02*
X022387Y007900D01*
X022486Y008058D02*
X021751Y008058D01*
X021751Y008217D02*
X025701Y008217D01*
X025712Y008375D02*
X023707Y008375D01*
X023823Y008534D02*
X025712Y008534D01*
X025701Y008666D02*
X025701Y008666D01*
X025701Y008692D02*
X023865Y008692D01*
X023808Y009009D02*
X023784Y009009D01*
X023649Y009168D02*
X023580Y009168D01*
X022739Y009254D02*
X022563Y009326D01*
X022642Y009168D02*
X021751Y009168D01*
X021751Y009009D02*
X022437Y009009D01*
X022367Y008851D02*
X021751Y008851D01*
X021751Y008692D02*
X022357Y008692D01*
X022399Y008534D02*
X021751Y008534D01*
X021751Y008375D02*
X022515Y008375D01*
X023736Y008058D02*
X025713Y008058D01*
X025714Y007900D02*
X023835Y007900D01*
X023865Y007741D02*
X025714Y007741D01*
X025715Y007583D02*
X023843Y007583D01*
X023756Y007424D02*
X025715Y007424D01*
X025716Y007265D02*
X023511Y007265D01*
X023687Y007107D02*
X025716Y007107D01*
X025716Y006948D02*
X023814Y006948D01*
X023865Y006790D02*
X025717Y006790D01*
X025701Y006631D02*
X023863Y006631D01*
X023797Y006473D02*
X025701Y006473D01*
X025718Y006314D02*
X023629Y006314D01*
X023913Y006108D02*
X023634Y005829D01*
X023634Y005433D01*
X023913Y005154D01*
X024308Y005154D01*
X024588Y005433D01*
X024588Y005829D01*
X024308Y006108D01*
X023913Y006108D01*
X023802Y005997D02*
X022126Y005997D01*
X022284Y005839D02*
X023644Y005839D01*
X023634Y005680D02*
X022443Y005680D01*
X022601Y005521D02*
X023634Y005521D01*
X023704Y005363D02*
X022760Y005363D01*
X022918Y005204D02*
X023863Y005204D01*
X024359Y005204D02*
X024894Y005204D01*
X024705Y005363D02*
X024518Y005363D01*
X024588Y005521D02*
X024640Y005521D01*
X024634Y005680D02*
X024588Y005680D01*
X024578Y005839D02*
X024680Y005839D01*
X024802Y005997D02*
X024419Y005997D01*
X022432Y004729D02*
X021338Y004729D01*
X021602Y004887D02*
X021619Y004887D01*
X021602Y005046D02*
X021619Y005046D01*
X021602Y005204D02*
X021619Y005204D01*
X021611Y005231D02*
X020911Y005931D01*
X020911Y012331D01*
X020911Y015231D01*
X020411Y015731D01*
X020411Y017431D01*
X019311Y018531D01*
X019311Y019031D01*
X019511Y019031D01*
X020211Y019731D01*
X023411Y019731D01*
X023611Y019531D01*
X023611Y019031D01*
X023511Y018931D01*
X023611Y018931D01*
X023619Y018922D02*
X023619Y018197D01*
X023702Y018197D01*
X023870Y018266D01*
X023998Y018395D01*
X024068Y018563D01*
X024068Y018922D01*
X023620Y018922D01*
X023620Y018940D01*
X024068Y018940D01*
X024068Y019299D01*
X023998Y019467D01*
X023870Y019596D01*
X023702Y019665D01*
X023619Y019665D01*
X023619Y018940D01*
X023602Y018940D01*
X023602Y019665D01*
X023520Y019665D01*
X023352Y019596D01*
X023223Y019467D01*
X023154Y019299D01*
X023154Y018940D01*
X023602Y018940D01*
X023602Y018922D01*
X023619Y018922D01*
X023602Y018922D02*
X023602Y018197D01*
X023520Y018197D01*
X023352Y018266D01*
X023223Y018395D01*
X023154Y018563D01*
X023154Y018922D01*
X023602Y018922D01*
X023602Y018998D02*
X023619Y018998D01*
X023602Y019156D02*
X023619Y019156D01*
X023602Y019315D02*
X023619Y019315D01*
X023602Y019473D02*
X023619Y019473D01*
X023602Y019632D02*
X023619Y019632D01*
X023783Y019632D02*
X024234Y019632D01*
X024234Y019583D02*
X024513Y019304D01*
X024908Y019304D01*
X025188Y019583D01*
X025188Y019979D01*
X024908Y020258D01*
X024513Y020258D01*
X024234Y019979D01*
X024234Y019583D01*
X024344Y019473D02*
X023992Y019473D01*
X024062Y019315D02*
X024502Y019315D01*
X024521Y019238D02*
X024254Y018970D01*
X024254Y018790D01*
X024702Y018790D01*
X024702Y019238D01*
X024521Y019238D01*
X024440Y019156D02*
X024068Y019156D01*
X024068Y018998D02*
X024281Y018998D01*
X024254Y018839D02*
X024068Y018839D01*
X024068Y018681D02*
X024254Y018681D01*
X024254Y018592D02*
X024521Y018324D01*
X024702Y018324D01*
X024702Y018772D01*
X024719Y018772D01*
X024719Y018324D01*
X024900Y018324D01*
X025168Y018592D01*
X025168Y018772D01*
X024720Y018772D01*
X024720Y018790D01*
X025168Y018790D01*
X025168Y018970D01*
X024900Y019238D01*
X024719Y019238D01*
X024719Y018790D01*
X024702Y018790D01*
X024702Y018772D01*
X024254Y018772D01*
X024254Y018592D01*
X024323Y018522D02*
X024051Y018522D01*
X023967Y018364D02*
X024482Y018364D01*
X024702Y018364D02*
X024719Y018364D01*
X024702Y018522D02*
X024719Y018522D01*
X024702Y018681D02*
X024719Y018681D01*
X024702Y018839D02*
X024719Y018839D01*
X024702Y018998D02*
X024719Y018998D01*
X024702Y019156D02*
X024719Y019156D01*
X024919Y019315D02*
X026181Y019315D01*
X026181Y019473D02*
X025078Y019473D01*
X025188Y019632D02*
X026181Y019632D01*
X026181Y019790D02*
X025188Y019790D01*
X025188Y019949D02*
X026181Y019949D01*
X026181Y020107D02*
X025059Y020107D01*
X025151Y020266D02*
X023327Y020266D01*
X023485Y020425D02*
X024755Y020425D01*
X024559Y020583D02*
X023644Y020583D01*
X023802Y020742D02*
X024424Y020742D01*
X024332Y020900D02*
X023925Y020900D01*
X023951Y021059D02*
X024276Y021059D01*
X024234Y021217D02*
X023951Y021217D01*
X024008Y021376D02*
X024230Y021376D01*
X024231Y021534D02*
X024078Y021534D01*
X024088Y021693D02*
X024273Y021693D01*
X024326Y021851D02*
X024088Y021851D01*
X024088Y022010D02*
X024418Y022010D01*
X024549Y022169D02*
X024088Y022169D01*
X024078Y022327D02*
X024737Y022327D01*
X025113Y022486D02*
X024008Y022486D01*
X023805Y022644D02*
X026181Y022644D01*
X026181Y022486D02*
X025609Y022486D01*
X025985Y022327D02*
X026181Y022327D01*
X026173Y022169D02*
X026181Y022169D01*
X023611Y021931D02*
X023611Y021031D01*
X023111Y020531D01*
X015811Y020531D01*
X015311Y020031D01*
X015311Y019031D01*
X015808Y018998D02*
X018834Y018998D01*
X018834Y019013D02*
X018834Y018834D01*
X019113Y018554D01*
X019292Y018554D01*
X019292Y019012D01*
X019329Y019012D01*
X019329Y018554D01*
X019508Y018554D01*
X019788Y018834D01*
X019788Y019013D01*
X019330Y019013D01*
X019330Y019049D01*
X019788Y019049D01*
X019788Y019229D01*
X019508Y019508D01*
X019329Y019508D01*
X019329Y019050D01*
X019292Y019050D01*
X019292Y019508D01*
X019113Y019508D01*
X018834Y019229D01*
X018834Y019049D01*
X019292Y019049D01*
X019292Y019013D01*
X018834Y019013D01*
X018834Y019156D02*
X015808Y019156D01*
X015730Y019315D02*
X018920Y019315D01*
X019079Y019473D02*
X015651Y019473D01*
X015651Y019632D02*
X019007Y019632D01*
X018849Y019790D02*
X015773Y019790D01*
X015808Y019949D02*
X018814Y019949D01*
X018814Y020107D02*
X015868Y020107D01*
X014411Y021531D02*
X013811Y020931D01*
X013811Y019431D01*
X013167Y019156D02*
X012491Y019156D01*
X012491Y019149D02*
X012491Y019403D01*
X011839Y019403D01*
X011839Y019459D01*
X012491Y019459D01*
X012491Y019713D01*
X012092Y020111D01*
X011839Y020111D01*
X011839Y019460D01*
X011783Y019460D01*
X011783Y020111D01*
X011529Y020111D01*
X011131Y019713D01*
X011131Y019459D01*
X011782Y019459D01*
X011782Y019403D01*
X011131Y019403D01*
X011131Y019348D01*
X010526Y019953D01*
X010386Y020011D01*
X010235Y020011D01*
X009896Y020011D01*
X009958Y020037D01*
X010092Y020171D01*
X010165Y020346D01*
X010165Y020423D01*
X009410Y020423D01*
X009410Y020459D01*
X010165Y020459D01*
X010165Y020503D01*
X010241Y020426D01*
X010416Y020354D01*
X010606Y020354D01*
X010781Y020426D01*
X010915Y020561D01*
X010988Y020736D01*
X010988Y020926D01*
X010915Y021101D01*
X010781Y021236D01*
X010606Y021308D01*
X010416Y021308D01*
X010241Y021236D01*
X010106Y021101D01*
X010034Y020926D01*
X010034Y020769D01*
X009958Y020845D01*
X009783Y020918D01*
X009409Y020918D01*
X009409Y020460D01*
X009372Y020460D01*
X009372Y020918D01*
X008999Y020918D01*
X008824Y020845D01*
X008690Y020711D01*
X008617Y020536D01*
X008617Y020459D01*
X009372Y020459D01*
X009372Y020423D01*
X008617Y020423D01*
X008617Y020346D01*
X008690Y020171D01*
X008824Y020037D01*
X008886Y020011D01*
X007335Y020011D01*
X007398Y020037D01*
X007532Y020171D01*
X007605Y020346D01*
X007605Y020423D01*
X006850Y020423D01*
X006850Y020459D01*
X007605Y020459D01*
X007605Y020536D01*
X007532Y020711D01*
X007398Y020845D01*
X007223Y020918D01*
X006849Y020918D01*
X006849Y020460D01*
X006812Y020460D01*
X006812Y020918D01*
X006439Y020918D01*
X006264Y020845D01*
X006130Y020711D01*
X006057Y020536D01*
X006057Y020459D01*
X006812Y020459D01*
X006812Y020423D01*
X006057Y020423D01*
X006057Y020346D01*
X006130Y020171D01*
X006264Y020037D01*
X006326Y020011D01*
X005885Y020011D01*
X005746Y019953D01*
X005639Y019846D01*
X005620Y019828D01*
X004925Y019828D01*
X004851Y019797D01*
X004851Y020568D01*
X005008Y020725D01*
X005008Y021137D01*
X004717Y021428D01*
X004488Y021428D01*
X004495Y021434D01*
X004717Y021434D01*
X005008Y021725D01*
X005008Y022137D01*
X004753Y022391D01*
X005297Y022391D01*
X005034Y022129D01*
X005034Y021949D01*
X005492Y021949D01*
X005492Y021913D01*
X005034Y021913D01*
X005034Y021734D01*
X005313Y021454D01*
X005492Y021454D01*
X005492Y021912D01*
X005529Y021912D01*
X005529Y021454D01*
X005708Y021454D01*
X005988Y021734D01*
X005988Y021913D01*
X005530Y021913D01*
X005530Y021949D01*
X005988Y021949D01*
X005988Y022129D01*
X005725Y022391D01*
X006067Y022391D01*
X006037Y022320D01*
X006037Y022122D01*
X006113Y021940D01*
X006253Y021800D01*
X006435Y021724D01*
X007227Y021724D01*
X007409Y021800D01*
X007549Y021940D01*
X007625Y022122D01*
X007625Y022320D01*
X007595Y022391D01*
X008627Y022391D01*
X008597Y022320D01*
X008597Y022122D01*
X008673Y021940D01*
X008813Y021800D01*
X008995Y021724D01*
X009787Y021724D01*
X009969Y021800D01*
X010034Y021864D01*
X010034Y021633D01*
X010313Y021354D01*
X010708Y021354D01*
X010988Y021633D01*
X010988Y022029D01*
X010708Y022308D01*
X010313Y022308D01*
X010185Y022179D01*
X010185Y022320D01*
X010155Y022391D01*
X014968Y022391D01*
X014814Y022237D01*
X014814Y021871D01*
X014343Y021871D01*
X014218Y021819D01*
X014123Y021724D01*
X013523Y021124D01*
X013471Y020999D01*
X013471Y020863D01*
X013471Y020048D01*
X013414Y020024D01*
X013217Y019828D01*
X013111Y019570D01*
X013111Y019292D01*
X013217Y019034D01*
X013414Y018838D01*
X013431Y018831D01*
X013431Y018755D01*
X013489Y018616D01*
X013596Y018509D01*
X013694Y018411D01*
X012068Y018411D01*
X011728Y018751D01*
X011783Y018751D01*
X011783Y019402D01*
X011839Y019402D01*
X011839Y018751D01*
X012092Y018751D01*
X012491Y019149D01*
X012491Y019315D02*
X013111Y019315D01*
X013111Y019473D02*
X012491Y019473D01*
X012491Y019632D02*
X013136Y019632D01*
X013202Y019790D02*
X012413Y019790D01*
X012255Y019949D02*
X013339Y019949D01*
X013471Y020107D02*
X012096Y020107D01*
X011839Y020107D02*
X011783Y020107D01*
X011783Y019949D02*
X011839Y019949D01*
X011811Y019931D02*
X011811Y019431D01*
X011783Y019473D02*
X011839Y019473D01*
X011839Y019315D02*
X011783Y019315D01*
X011783Y019156D02*
X011839Y019156D01*
X011839Y018998D02*
X011783Y018998D01*
X011783Y018839D02*
X011839Y018839D01*
X011799Y018681D02*
X013462Y018681D01*
X013413Y018839D02*
X012181Y018839D01*
X012339Y018998D02*
X013254Y018998D01*
X013582Y018522D02*
X011957Y018522D01*
X011200Y018205D02*
X010618Y018205D01*
X010776Y018046D02*
X011358Y018046D01*
X011517Y017888D02*
X010935Y017888D01*
X010811Y017531D02*
X010311Y018031D01*
X009711Y018031D01*
X009061Y017729D02*
X008351Y017729D01*
X008351Y017571D02*
X009298Y017571D01*
X009339Y017508D02*
X009163Y017436D01*
X009029Y017301D01*
X008957Y017126D01*
X008957Y016936D01*
X009029Y016761D01*
X009163Y016626D01*
X009339Y016554D01*
X010083Y016554D01*
X010258Y016626D01*
X010393Y016761D01*
X010465Y016936D01*
X010465Y017126D01*
X010393Y017301D01*
X010258Y017436D01*
X010083Y017508D01*
X009339Y017508D01*
X009140Y017412D02*
X008351Y017412D01*
X008351Y017254D02*
X009009Y017254D01*
X008957Y017095D02*
X008351Y017095D01*
X008351Y016937D02*
X008957Y016937D01*
X009022Y016778D02*
X008351Y016778D01*
X008351Y016620D02*
X009180Y016620D01*
X009225Y016461D02*
X008351Y016461D01*
X008351Y016302D02*
X009030Y016302D01*
X009029Y016301D02*
X008957Y016126D01*
X008957Y015936D01*
X009029Y015761D01*
X009163Y015626D01*
X009339Y015554D01*
X010083Y015554D01*
X010258Y015626D01*
X010393Y015761D01*
X010465Y015936D01*
X010465Y016126D01*
X010393Y016301D01*
X010258Y016436D01*
X010083Y016508D01*
X009339Y016508D01*
X009163Y016436D01*
X009029Y016301D01*
X008964Y016144D02*
X008351Y016144D01*
X008351Y015985D02*
X008957Y015985D01*
X009002Y015827D02*
X008351Y015827D01*
X008351Y015668D02*
X009122Y015668D01*
X009163Y015436D02*
X009339Y015508D01*
X010083Y015508D01*
X010258Y015436D01*
X010393Y015301D01*
X010465Y015126D01*
X010465Y014936D01*
X010393Y014761D01*
X010258Y014626D01*
X010083Y014554D01*
X009339Y014554D01*
X009163Y014626D01*
X009029Y014761D01*
X008957Y014936D01*
X008957Y015126D01*
X009029Y015301D01*
X009163Y015436D01*
X009079Y015351D02*
X008351Y015351D01*
X008351Y015193D02*
X008984Y015193D01*
X008957Y015034D02*
X008351Y015034D01*
X008342Y014876D02*
X008982Y014876D01*
X009073Y014717D02*
X008240Y014717D01*
X008072Y014558D02*
X009328Y014558D01*
X009128Y014400D02*
X007986Y014400D01*
X007877Y014241D02*
X009004Y014241D01*
X008957Y014083D02*
X007640Y014083D01*
X007798Y013924D02*
X008961Y013924D01*
X010211Y013531D02*
X010511Y013231D01*
X010511Y012131D01*
X010411Y012031D01*
X010811Y012031D01*
X011211Y011581D01*
X011211Y010241D01*
X011011Y010041D01*
X011011Y010031D01*
X011316Y009644D02*
X011699Y009644D01*
X011634Y009485D02*
X010139Y009485D01*
X010275Y009644D02*
X010706Y009644D01*
X010547Y009802D02*
X010410Y009802D01*
X010465Y009961D02*
X010514Y009961D01*
X010514Y010119D02*
X010465Y010119D01*
X010402Y010278D02*
X010545Y010278D01*
X010704Y010436D02*
X010256Y010436D01*
X010182Y010595D02*
X010871Y010595D01*
X010871Y010753D02*
X010385Y010753D01*
X010455Y010912D02*
X010871Y010912D01*
X010871Y011071D02*
X010465Y011071D01*
X010422Y011229D02*
X010871Y011229D01*
X010786Y011388D02*
X010306Y011388D01*
X010773Y011546D02*
X008911Y011546D01*
X008911Y011705D02*
X009085Y011705D01*
X008987Y011863D02*
X008810Y011863D01*
X008957Y012022D02*
X007445Y012022D01*
X006720Y012022D01*
X006720Y012040D01*
X007445Y012040D01*
X007445Y012122D01*
X007376Y012290D01*
X007247Y012419D01*
X007079Y012488D01*
X006719Y012488D01*
X006719Y012040D01*
X006702Y012040D01*
X006702Y012488D01*
X006343Y012488D01*
X006175Y012419D01*
X006046Y012290D01*
X005977Y012122D01*
X005977Y012040D01*
X006702Y012040D01*
X006702Y012022D01*
X006719Y012022D01*
X006719Y011574D01*
X007079Y011574D01*
X007247Y011643D01*
X007376Y011772D01*
X007445Y011940D01*
X007445Y012022D01*
X007421Y012180D02*
X008979Y012180D01*
X009067Y012339D02*
X007327Y012339D01*
X007258Y012626D02*
X007083Y012554D01*
X006339Y012554D01*
X006163Y012626D01*
X006036Y012754D01*
X005817Y012534D01*
X005405Y012534D01*
X005114Y012825D01*
X005114Y013237D01*
X005405Y013528D01*
X005817Y013528D01*
X006036Y013308D01*
X006163Y013436D01*
X006339Y013508D01*
X007083Y013508D01*
X007258Y013436D01*
X007393Y013301D01*
X007465Y013126D01*
X007465Y012936D01*
X007393Y012761D01*
X007258Y012626D01*
X007288Y012656D02*
X009162Y012656D01*
X009175Y012643D02*
X009343Y012574D01*
X009702Y012574D01*
X009702Y013022D01*
X008977Y013022D01*
X008977Y012940D01*
X009046Y012772D01*
X009175Y012643D01*
X009313Y012497D02*
X004851Y012497D01*
X004851Y012339D02*
X006095Y012339D01*
X006001Y012180D02*
X004851Y012180D01*
X004861Y012281D02*
X005111Y012031D01*
X005611Y012031D01*
X006711Y012031D01*
X007911Y012031D01*
X008911Y013031D01*
X009711Y013031D01*
X009702Y012973D02*
X009719Y012973D01*
X009702Y012814D02*
X009719Y012814D01*
X009702Y012656D02*
X009719Y012656D01*
X010109Y012497D02*
X010171Y012497D01*
X010411Y012031D02*
X009711Y012031D01*
X008473Y011581D02*
X008473Y009406D01*
X009263Y009485D02*
X009283Y009485D01*
X009711Y009031D02*
X010311Y009031D01*
X012611Y006731D01*
X012611Y004131D01*
X012211Y003731D01*
X011811Y003731D01*
X011334Y003778D02*
X010460Y003778D01*
X010608Y003936D02*
X011341Y003936D01*
X011500Y004095D02*
X010608Y004095D01*
X010608Y004253D02*
X012252Y004253D01*
X012250Y004412D02*
X012271Y004412D01*
X011772Y004412D02*
X010533Y004412D01*
X010451Y004570D02*
X011613Y004570D01*
X011545Y004729D02*
X010451Y004729D01*
X010726Y004887D02*
X011474Y004887D01*
X011320Y005046D02*
X010884Y005046D01*
X010977Y005204D02*
X011271Y005204D01*
X011271Y005363D02*
X010977Y005363D01*
X010977Y005521D02*
X011271Y005521D01*
X011611Y005231D02*
X012011Y004831D01*
X011611Y005231D02*
X011611Y007131D01*
X010211Y008531D01*
X009211Y008531D01*
X008923Y008819D01*
X008923Y010744D01*
X009211Y011031D01*
X009711Y011031D01*
X009115Y011388D02*
X008899Y011388D01*
X008928Y011229D02*
X008813Y011229D01*
X008036Y011546D02*
X004851Y011546D01*
X004851Y011388D02*
X005293Y011388D01*
X005135Y011229D02*
X004851Y011229D01*
X004851Y011071D02*
X005134Y011071D01*
X005134Y010912D02*
X004851Y010912D01*
X004851Y010753D02*
X005214Y010753D01*
X005373Y010595D02*
X004851Y010595D01*
X004886Y010436D02*
X006165Y010436D01*
X006240Y010595D02*
X005849Y010595D01*
X005629Y010595D02*
X005592Y010595D01*
X005592Y010753D02*
X005629Y010753D01*
X005629Y010912D02*
X005592Y010912D01*
X005611Y011031D02*
X005611Y012031D01*
X005977Y012022D02*
X005977Y011940D01*
X006046Y011772D01*
X006175Y011643D01*
X006343Y011574D01*
X006702Y011574D01*
X006702Y012022D01*
X006719Y012022D01*
X006702Y012022D02*
X005977Y012022D01*
X004851Y012022D01*
X004851Y011863D02*
X006008Y011863D01*
X006114Y011705D02*
X004851Y011705D01*
X004171Y011705D02*
X003887Y011705D01*
X003898Y011546D02*
X004171Y011546D01*
X004171Y011388D02*
X004057Y011388D01*
X004108Y011229D02*
X004171Y011229D01*
X004171Y011071D02*
X004108Y011071D01*
X004094Y010912D02*
X004171Y010912D01*
X004171Y010753D02*
X003936Y010753D01*
X003817Y010628D02*
X003405Y010628D01*
X003114Y010337D01*
X003114Y009925D01*
X003405Y009634D01*
X003817Y009634D01*
X004108Y009925D01*
X004108Y010337D01*
X003817Y010628D01*
X003850Y010595D02*
X004171Y010595D01*
X004171Y010436D02*
X004008Y010436D01*
X004108Y010278D02*
X004171Y010278D01*
X004108Y010119D02*
X004242Y010119D01*
X004108Y009961D02*
X004400Y009961D01*
X004559Y009802D02*
X003985Y009802D01*
X003826Y009644D02*
X006146Y009644D01*
X006283Y009485D02*
X003959Y009485D01*
X003817Y009628D02*
X003405Y009628D01*
X003114Y009337D01*
X003114Y008925D01*
X003405Y008634D01*
X003817Y008634D01*
X004108Y008925D01*
X004108Y009337D01*
X003817Y009628D01*
X003396Y009644D02*
X002826Y009644D01*
X002959Y009485D02*
X003262Y009485D01*
X003114Y009327D02*
X003108Y009327D01*
X003108Y009168D02*
X003114Y009168D01*
X003108Y009009D02*
X003114Y009009D01*
X003188Y008851D02*
X003033Y008851D01*
X002875Y008692D02*
X003347Y008692D01*
X003311Y008534D02*
X002911Y008534D01*
X003069Y008375D02*
X003153Y008375D01*
X003114Y008217D02*
X003108Y008217D01*
X003108Y008058D02*
X003114Y008058D01*
X003140Y007900D02*
X003082Y007900D01*
X002924Y007741D02*
X003298Y007741D01*
X003360Y007583D02*
X002862Y007583D01*
X003020Y007424D02*
X003201Y007424D01*
X003114Y007265D02*
X003108Y007265D01*
X003108Y007107D02*
X003114Y007107D01*
X003108Y006948D02*
X003114Y006948D01*
X003249Y006790D02*
X002972Y006790D01*
X002511Y006431D02*
X005411Y006431D01*
X006011Y007031D01*
X006711Y007031D01*
X007263Y006631D02*
X009159Y006631D01*
X009253Y006473D02*
X007168Y006473D01*
X007380Y006314D02*
X008913Y006314D01*
X008755Y006156D02*
X007453Y006156D01*
X007465Y005997D02*
X008596Y005997D01*
X008438Y005839D02*
X007425Y005839D01*
X006711Y006031D02*
X002386Y006031D01*
X001511Y006906D01*
X001511Y010831D01*
X002311Y011631D01*
X003111Y011631D01*
X003611Y011131D01*
X003127Y010912D02*
X003094Y010912D01*
X003108Y011071D02*
X003114Y011071D01*
X002611Y011131D02*
X002011Y010531D01*
X002011Y006931D01*
X002511Y006431D01*
X001339Y005997D02*
X000792Y005997D01*
X000792Y005839D02*
X001497Y005839D01*
X001656Y005680D02*
X000792Y005680D01*
X000792Y005521D02*
X001815Y005521D01*
X001973Y005363D02*
X000792Y005363D01*
X000792Y005204D02*
X002132Y005204D01*
X002386Y005431D02*
X001011Y006806D01*
X001011Y017831D01*
X002161Y018981D01*
X002161Y019981D01*
X002411Y020231D01*
X003511Y020931D02*
X003511Y017131D01*
X004011Y016631D01*
X005911Y016631D01*
X006511Y016031D01*
X006711Y016031D01*
X006122Y015668D02*
X005922Y015668D01*
X005629Y015668D02*
X005592Y015668D01*
X005592Y015827D02*
X005629Y015827D01*
X005629Y015985D02*
X005592Y015985D01*
X005611Y016031D02*
X004861Y015281D01*
X004861Y012281D01*
X004827Y012656D02*
X005283Y012656D01*
X005125Y012814D02*
X004708Y012814D01*
X004550Y012973D02*
X005114Y012973D01*
X005114Y013132D02*
X004391Y013132D01*
X004233Y013290D02*
X005167Y013290D01*
X005326Y013449D02*
X004032Y013449D01*
X003837Y013607D02*
X005332Y013607D01*
X005174Y013766D02*
X003948Y013766D01*
X003817Y013634D02*
X004108Y013925D01*
X004108Y014337D01*
X003817Y014628D01*
X003405Y014628D01*
X003114Y014337D01*
X003114Y013925D01*
X003405Y013634D01*
X003817Y013634D01*
X004107Y013924D02*
X005114Y013924D01*
X005114Y014083D02*
X004108Y014083D01*
X004108Y014241D02*
X005119Y014241D01*
X005277Y014400D02*
X004045Y014400D01*
X003886Y014558D02*
X006328Y014558D01*
X006128Y014400D02*
X005945Y014400D01*
X006073Y014717D02*
X003899Y014717D01*
X003817Y014634D02*
X004108Y014925D01*
X004108Y015337D01*
X003817Y015628D01*
X003405Y015628D01*
X003114Y015337D01*
X003114Y014925D01*
X003405Y014634D01*
X003817Y014634D01*
X004058Y014876D02*
X005982Y014876D01*
X005957Y015034D02*
X004108Y015034D01*
X004108Y015193D02*
X005984Y015193D01*
X006079Y015351D02*
X004093Y015351D01*
X003935Y015510D02*
X007209Y015510D01*
X007611Y015431D02*
X007211Y015031D01*
X006711Y015031D01*
X007094Y014558D02*
X007111Y014558D01*
X007548Y014531D02*
X008011Y014969D01*
X008011Y018131D01*
X008411Y018531D01*
X008877Y018522D02*
X010882Y018522D01*
X010724Y018681D02*
X010312Y018681D01*
X010425Y018839D02*
X010565Y018839D01*
X010397Y018364D02*
X011041Y018364D01*
X010811Y017531D02*
X012211Y017531D01*
X012611Y017131D01*
X012611Y013831D01*
X012111Y013331D01*
X012111Y013131D01*
X011634Y013132D02*
X011506Y013132D01*
X011555Y012973D02*
X011634Y012973D01*
X011714Y012814D02*
X011753Y012814D01*
X011748Y012656D02*
X011911Y012656D01*
X011299Y012656D02*
X011282Y012656D01*
X011291Y012591D02*
X014041Y012591D01*
X014821Y012591D01*
X014911Y012631D01*
X016111Y012631D01*
X016311Y012831D01*
X016311Y014031D01*
X016259Y014241D02*
X018598Y014241D01*
X018601Y014400D02*
X016193Y014400D01*
X016003Y014558D02*
X018604Y014558D01*
X018607Y014717D02*
X015851Y014717D01*
X015851Y014876D02*
X018610Y014876D01*
X018613Y015034D02*
X015851Y015034D01*
X015851Y015193D02*
X016895Y015193D01*
X017158Y015193D02*
X018616Y015193D01*
X018608Y015351D02*
X017414Y015351D01*
X016639Y015351D02*
X015851Y015351D01*
X015851Y015510D02*
X016540Y015510D01*
X016502Y015668D02*
X015851Y015668D01*
X015851Y015827D02*
X016502Y015827D01*
X016502Y015985D02*
X015851Y015985D01*
X015851Y016144D02*
X016502Y016144D01*
X016502Y016302D02*
X015851Y016302D01*
X015825Y016461D02*
X016502Y016461D01*
X016568Y016620D02*
X015703Y016620D01*
X015545Y016778D02*
X016631Y016778D01*
X016631Y016937D02*
X015386Y016937D01*
X015227Y017095D02*
X016609Y017095D01*
X015171Y016144D02*
X012951Y016144D01*
X012951Y016302D02*
X015059Y016302D01*
X014900Y016461D02*
X013344Y016461D01*
X012951Y015985D02*
X015171Y015985D01*
X015171Y015827D02*
X012951Y015827D01*
X012271Y015827D02*
X010420Y015827D01*
X010465Y015985D02*
X012271Y015985D01*
X012271Y016144D02*
X010458Y016144D01*
X010391Y016302D02*
X012271Y016302D01*
X011856Y016461D02*
X010197Y016461D01*
X010241Y016620D02*
X011698Y016620D01*
X011634Y016778D02*
X010400Y016778D01*
X010465Y016937D02*
X011634Y016937D01*
X011650Y017095D02*
X010465Y017095D01*
X010412Y017254D02*
X010607Y017254D01*
X010449Y017412D02*
X010282Y017412D01*
X010290Y017571D02*
X010124Y017571D01*
X008976Y017888D02*
X008351Y017888D01*
X008407Y018046D02*
X008957Y018046D01*
X008989Y018205D02*
X008743Y018205D01*
X008877Y018364D02*
X009091Y018364D01*
X009109Y018681D02*
X008877Y018681D01*
X008761Y018839D02*
X008997Y018839D01*
X008957Y018998D02*
X007465Y018998D01*
X007453Y019156D02*
X008969Y019156D01*
X008060Y018839D02*
X007425Y018839D01*
X007312Y018681D02*
X007945Y018681D01*
X007921Y018522D02*
X004851Y018522D01*
X004851Y018364D02*
X006091Y018364D01*
X005989Y018205D02*
X004851Y018205D01*
X004851Y018046D02*
X005957Y018046D01*
X005976Y017888D02*
X004935Y017888D01*
X004811Y017531D02*
X004511Y017831D01*
X004511Y020931D01*
X005008Y020900D02*
X005014Y020900D01*
X005008Y020742D02*
X005014Y020742D01*
X005014Y020725D02*
X005305Y020434D01*
X005717Y020434D01*
X006008Y020725D01*
X006008Y021137D01*
X005717Y021428D01*
X005305Y021428D01*
X005014Y021137D01*
X005014Y020725D01*
X005156Y020583D02*
X004866Y020583D01*
X004851Y020425D02*
X006812Y020425D01*
X006831Y020441D02*
X006901Y020441D01*
X006911Y020431D01*
X006921Y020441D01*
X009391Y020441D01*
X010001Y020441D01*
X010311Y020131D01*
X011611Y020131D01*
X011811Y019931D01*
X011783Y019790D02*
X011839Y019790D01*
X011839Y019632D02*
X011783Y019632D01*
X011209Y019790D02*
X010689Y019790D01*
X010847Y019632D02*
X011131Y019632D01*
X011131Y019473D02*
X011006Y019473D01*
X011367Y019949D02*
X010530Y019949D01*
X010131Y020266D02*
X013471Y020266D01*
X013471Y020425D02*
X010776Y020425D01*
X010925Y020583D02*
X013471Y020583D01*
X013471Y020742D02*
X010988Y020742D01*
X010988Y020900D02*
X013471Y020900D01*
X013496Y021059D02*
X010933Y021059D01*
X010799Y021217D02*
X013616Y021217D01*
X013775Y021376D02*
X010730Y021376D01*
X010889Y021534D02*
X013933Y021534D01*
X014092Y021693D02*
X010988Y021693D01*
X010988Y021851D02*
X014296Y021851D01*
X014814Y022010D02*
X010988Y022010D01*
X010848Y022169D02*
X014814Y022169D01*
X014904Y022327D02*
X010182Y022327D01*
X010034Y021851D02*
X010021Y021851D01*
X010034Y021693D02*
X005947Y021693D01*
X005988Y021851D02*
X006201Y021851D01*
X006084Y022010D02*
X005988Y022010D01*
X005948Y022169D02*
X006037Y022169D01*
X006040Y022327D02*
X005789Y022327D01*
X005233Y022327D02*
X004817Y022327D01*
X004976Y022169D02*
X005074Y022169D01*
X005034Y022010D02*
X005008Y022010D01*
X005008Y021851D02*
X005034Y021851D01*
X005075Y021693D02*
X004975Y021693D01*
X004817Y021534D02*
X005233Y021534D01*
X005253Y021376D02*
X004769Y021376D01*
X004927Y021217D02*
X005095Y021217D01*
X005014Y021059D02*
X005008Y021059D01*
X005492Y021534D02*
X005529Y021534D01*
X005529Y021693D02*
X005492Y021693D01*
X005492Y021851D02*
X005529Y021851D01*
X005789Y021534D02*
X010133Y021534D01*
X010291Y021376D02*
X005769Y021376D01*
X005927Y021217D02*
X010222Y021217D01*
X010089Y021059D02*
X006008Y021059D01*
X006008Y020900D02*
X006397Y020900D01*
X006160Y020742D02*
X006008Y020742D01*
X006077Y020583D02*
X005866Y020583D01*
X006090Y020266D02*
X004851Y020266D01*
X004851Y020107D02*
X006193Y020107D01*
X005741Y019949D02*
X004851Y019949D01*
X004851Y018839D02*
X004913Y018839D01*
X004851Y018681D02*
X006109Y018681D01*
X005997Y018839D02*
X005729Y018839D01*
X007330Y018364D02*
X007763Y018364D01*
X007674Y018205D02*
X007432Y018205D01*
X007465Y018046D02*
X007671Y018046D01*
X007671Y017888D02*
X007445Y017888D01*
X007493Y017729D02*
X007671Y017729D01*
X007671Y017571D02*
X007652Y017571D01*
X007611Y017131D02*
X007611Y015431D01*
X008351Y015510D02*
X011273Y015510D01*
X011234Y015351D02*
X010343Y015351D01*
X010438Y015193D02*
X011234Y015193D01*
X011234Y015034D02*
X010465Y015034D01*
X010440Y014876D02*
X011234Y014876D01*
X011234Y014717D02*
X010349Y014717D01*
X010094Y014558D02*
X011258Y014558D01*
X011118Y014419D02*
X011118Y014419D01*
X011099Y014400D02*
X010294Y014400D01*
X010417Y014241D02*
X010989Y014241D01*
X010971Y014083D02*
X010465Y014083D01*
X010460Y013924D02*
X010949Y013924D01*
X010814Y013766D02*
X010457Y013766D01*
X010615Y013607D02*
X010814Y013607D01*
X010814Y013449D02*
X010774Y013449D01*
X010851Y013290D02*
X010917Y013290D01*
X010851Y013132D02*
X011076Y013132D01*
X011026Y012973D02*
X010851Y012973D01*
X010851Y012814D02*
X010868Y012814D01*
X011282Y012814D02*
X011299Y012814D01*
X011282Y012973D02*
X011299Y012973D01*
X011282Y012497D02*
X011299Y012497D01*
X011282Y012339D02*
X011299Y012339D01*
X011282Y012180D02*
X011299Y012180D01*
X011274Y012022D02*
X012021Y012022D01*
X012179Y012180D02*
X011527Y012180D01*
X011547Y011863D02*
X011862Y011863D01*
X011744Y011705D02*
X011648Y011705D01*
X011648Y011546D02*
X011721Y011546D01*
X011721Y011388D02*
X011636Y011388D01*
X011551Y011229D02*
X011721Y011229D01*
X011721Y011071D02*
X011551Y011071D01*
X011551Y010912D02*
X011721Y010912D01*
X011721Y010753D02*
X011551Y010753D01*
X011551Y010595D02*
X011721Y010595D01*
X011698Y010436D02*
X011551Y010436D01*
X011551Y010278D02*
X011623Y010278D01*
X011623Y010119D02*
X011528Y010119D01*
X011508Y009961D02*
X011662Y009961D01*
X011821Y009802D02*
X011475Y009802D01*
X011634Y009327D02*
X010486Y009327D01*
X010655Y009168D02*
X011649Y009168D01*
X011808Y009009D02*
X010813Y009009D01*
X010972Y008851D02*
X012271Y008851D01*
X012300Y008692D02*
X011130Y008692D01*
X011289Y008534D02*
X012427Y008534D01*
X012586Y008375D02*
X011447Y008375D01*
X011606Y008217D02*
X012744Y008217D01*
X012771Y008058D02*
X011764Y008058D01*
X011923Y007900D02*
X012771Y007900D01*
X012771Y007741D02*
X012082Y007741D01*
X012240Y007583D02*
X012771Y007583D01*
X012771Y007424D02*
X012399Y007424D01*
X012557Y007265D02*
X012771Y007265D01*
X012771Y007107D02*
X012716Y007107D01*
X013451Y006292D02*
X013533Y006210D01*
X013715Y006134D01*
X014507Y006134D01*
X014621Y006182D01*
X014621Y006059D01*
X014503Y006108D01*
X014129Y006108D01*
X014129Y005650D01*
X014092Y005650D01*
X014092Y006108D01*
X013719Y006108D01*
X013544Y006035D01*
X013463Y005954D01*
X013451Y005966D01*
X013451Y006292D01*
X013451Y006156D02*
X013663Y006156D01*
X013506Y005997D02*
X013451Y005997D01*
X013111Y005631D02*
X013111Y008331D01*
X012611Y008831D01*
X012611Y010331D01*
X013411Y011131D01*
X015511Y011131D01*
X015915Y010595D02*
X017421Y010595D01*
X017421Y010753D02*
X016802Y010753D01*
X016960Y010912D02*
X017399Y010912D01*
X017241Y011071D02*
X016998Y011071D01*
X016998Y011229D02*
X017082Y011229D01*
X016923Y011388D02*
X016923Y011388D01*
X016799Y011546D02*
X016764Y011546D01*
X016771Y011705D02*
X016468Y011705D01*
X016309Y011863D02*
X016771Y011863D01*
X016771Y012022D02*
X016259Y012022D01*
X016265Y012180D02*
X016771Y012180D01*
X016771Y012339D02*
X016218Y012339D01*
X016096Y012497D02*
X016771Y012497D01*
X016771Y012656D02*
X015888Y012656D01*
X016146Y012814D02*
X016771Y012814D01*
X016771Y012973D02*
X016239Y012973D01*
X016265Y013132D02*
X016771Y013132D01*
X016771Y013290D02*
X016239Y013290D01*
X016145Y013449D02*
X016725Y013449D01*
X017451Y012973D02*
X018003Y012973D01*
X017866Y012814D02*
X017451Y012814D01*
X017451Y012656D02*
X017866Y012656D01*
X017866Y012497D02*
X017451Y012497D01*
X017451Y012339D02*
X017953Y012339D01*
X018112Y012180D02*
X017451Y012180D01*
X017451Y012022D02*
X018023Y012022D01*
X017900Y011863D02*
X017451Y011863D01*
X017568Y011705D02*
X017846Y011705D01*
X017846Y011546D02*
X017726Y011546D01*
X017885Y011388D02*
X017904Y011388D01*
X016561Y011131D02*
X016061Y011631D01*
X013111Y011631D01*
X012611Y011131D01*
X012061Y011581D02*
X012061Y010181D01*
X012061Y011581D02*
X012511Y012031D01*
X014511Y012031D01*
X014611Y012131D01*
X015511Y012131D01*
X015134Y012656D02*
X014498Y012656D01*
X014498Y012497D02*
X014925Y012497D01*
X013561Y013131D02*
X013111Y013131D01*
X013208Y013607D02*
X013564Y013607D01*
X014011Y013531D02*
X014011Y014231D01*
X013731Y014511D01*
X013731Y015021D01*
X012271Y015034D02*
X012228Y015034D01*
X012228Y014876D02*
X012271Y014876D01*
X012271Y014717D02*
X012228Y014717D01*
X012200Y014558D02*
X012271Y014558D01*
X012271Y014400D02*
X012109Y014400D01*
X012271Y014241D02*
X011902Y014241D01*
X011743Y014083D02*
X012271Y014083D01*
X012223Y013924D02*
X011651Y013924D01*
X011768Y013766D02*
X012065Y013766D01*
X011906Y013607D02*
X011768Y013607D01*
X011311Y013531D02*
X011311Y014131D01*
X011721Y014541D01*
X011721Y015021D01*
X012228Y015193D02*
X012271Y015193D01*
X012271Y015351D02*
X012228Y015351D01*
X012189Y015510D02*
X012271Y015510D01*
X012271Y015668D02*
X012083Y015668D01*
X011379Y015668D02*
X010300Y015668D01*
X007611Y017131D02*
X007211Y017531D01*
X004811Y017531D01*
X004311Y017031D02*
X006711Y017031D01*
X005134Y016144D02*
X003630Y016144D01*
X003592Y016144D02*
X003108Y016144D01*
X003108Y016302D02*
X003134Y016302D01*
X003108Y016461D02*
X003266Y016461D01*
X002999Y016620D02*
X003542Y016620D01*
X003383Y016778D02*
X002539Y016778D01*
X002697Y016937D02*
X003224Y016937D01*
X003171Y017095D02*
X002856Y017095D01*
X003014Y017254D02*
X003171Y017254D01*
X004011Y017331D02*
X004311Y017031D01*
X004011Y017331D02*
X004011Y021431D01*
X004511Y021931D01*
X004311Y022731D02*
X015511Y022731D01*
X016211Y022031D01*
X019311Y022031D01*
X019411Y022031D01*
X019808Y022010D02*
X020134Y022010D01*
X020134Y022169D02*
X019808Y022169D01*
X019717Y022327D02*
X020144Y022327D01*
X020214Y022486D02*
X019559Y022486D01*
X019063Y022486D02*
X016237Y022486D01*
X016078Y022644D02*
X020417Y022644D01*
X020805Y022644D02*
X021417Y022644D01*
X021214Y022486D02*
X021008Y022486D01*
X021078Y022327D02*
X021144Y022327D01*
X021134Y022169D02*
X021088Y022169D01*
X021088Y022010D02*
X021134Y022010D01*
X021134Y021851D02*
X021088Y021851D01*
X021088Y021693D02*
X021134Y021693D01*
X021144Y021534D02*
X021078Y021534D01*
X021008Y021376D02*
X021214Y021376D01*
X022008Y021376D02*
X022214Y021376D01*
X022144Y021534D02*
X022078Y021534D01*
X022088Y021693D02*
X022134Y021693D01*
X022134Y021851D02*
X022088Y021851D01*
X022088Y022010D02*
X022134Y022010D01*
X022134Y022169D02*
X022088Y022169D01*
X022078Y022327D02*
X022144Y022327D01*
X022214Y022486D02*
X022008Y022486D01*
X021805Y022644D02*
X022417Y022644D01*
X022805Y022644D02*
X023417Y022644D01*
X023214Y022486D02*
X023008Y022486D01*
X023078Y022327D02*
X023144Y022327D01*
X023134Y022169D02*
X023088Y022169D01*
X023088Y022010D02*
X023134Y022010D01*
X023134Y021851D02*
X023088Y021851D01*
X023088Y021693D02*
X023134Y021693D01*
X023144Y021534D02*
X023078Y021534D01*
X023008Y021376D02*
X023214Y021376D01*
X023271Y021217D02*
X022951Y021217D01*
X022907Y021059D02*
X023158Y021059D01*
X022999Y020900D02*
X022761Y020900D01*
X022611Y021231D02*
X022411Y021031D01*
X019311Y021031D01*
X018811Y021531D01*
X014411Y021531D01*
X011526Y020107D02*
X010029Y020107D01*
X010245Y020425D02*
X009410Y020425D01*
X009372Y020425D02*
X006850Y020425D01*
X006849Y020583D02*
X006812Y020583D01*
X006812Y020742D02*
X006849Y020742D01*
X006849Y020900D02*
X006812Y020900D01*
X007265Y020900D02*
X008957Y020900D01*
X008720Y020742D02*
X007501Y020742D01*
X007585Y020583D02*
X008637Y020583D01*
X008650Y020266D02*
X007571Y020266D01*
X007469Y020107D02*
X008753Y020107D01*
X009372Y020583D02*
X009409Y020583D01*
X009409Y020742D02*
X009372Y020742D01*
X009372Y020900D02*
X009409Y020900D01*
X009825Y020900D02*
X010034Y020900D01*
X008761Y021851D02*
X007461Y021851D01*
X007578Y022010D02*
X008644Y022010D01*
X008597Y022169D02*
X007625Y022169D01*
X007622Y022327D02*
X008600Y022327D01*
X004311Y022731D02*
X003511Y021931D01*
X003011Y021431D01*
X003011Y017731D01*
X002011Y016731D01*
X002011Y014531D01*
X002411Y014131D01*
X002611Y014131D01*
X003108Y014083D02*
X003114Y014083D01*
X003108Y014241D02*
X003114Y014241D01*
X003177Y014400D02*
X003045Y014400D01*
X002886Y014558D02*
X003336Y014558D01*
X003322Y014717D02*
X002899Y014717D01*
X003058Y014876D02*
X003164Y014876D01*
X003114Y015034D02*
X003108Y015034D01*
X003108Y015193D02*
X003114Y015193D01*
X003128Y015351D02*
X003093Y015351D01*
X002935Y015510D02*
X003287Y015510D01*
X003399Y015668D02*
X003025Y015668D01*
X003108Y015827D02*
X003241Y015827D01*
X003134Y015985D02*
X003108Y015985D01*
X003592Y015985D02*
X003629Y015985D01*
X003629Y015827D02*
X003592Y015827D01*
X003592Y015668D02*
X003629Y015668D01*
X003822Y015668D02*
X005299Y015668D01*
X005141Y015827D02*
X003981Y015827D01*
X004088Y015985D02*
X005134Y015985D01*
X001671Y014876D02*
X001351Y014876D01*
X001351Y014717D02*
X001671Y014717D01*
X001671Y014558D02*
X001351Y014558D01*
X001351Y014400D02*
X001697Y014400D01*
X001820Y014241D02*
X001351Y014241D01*
X001351Y014083D02*
X001978Y014083D01*
X002115Y013924D02*
X001351Y013924D01*
X001351Y013766D02*
X002274Y013766D01*
X002405Y013628D02*
X002114Y013337D01*
X002114Y012925D01*
X002405Y012634D01*
X002817Y012634D01*
X003108Y012925D01*
X003108Y013337D01*
X002817Y013628D01*
X002405Y013628D01*
X002384Y013607D02*
X001351Y013607D01*
X001351Y013449D02*
X002226Y013449D01*
X002114Y013290D02*
X001351Y013290D01*
X001351Y013132D02*
X002114Y013132D01*
X002114Y012973D02*
X001351Y012973D01*
X001351Y012814D02*
X002225Y012814D01*
X002383Y012656D02*
X001351Y012656D01*
X001351Y012497D02*
X002275Y012497D01*
X002116Y012339D02*
X001351Y012339D01*
X001351Y012180D02*
X002114Y012180D01*
X002114Y012022D02*
X001351Y012022D01*
X001351Y011863D02*
X002062Y011863D01*
X001904Y011705D02*
X001351Y011705D01*
X001351Y011546D02*
X001745Y011546D01*
X001587Y011388D02*
X001351Y011388D01*
X001351Y011229D02*
X001428Y011229D01*
X002850Y010595D02*
X003372Y010595D01*
X003286Y010753D02*
X002936Y010753D01*
X003008Y010436D02*
X003214Y010436D01*
X003114Y010278D02*
X003108Y010278D01*
X003108Y010119D02*
X003114Y010119D01*
X003108Y009961D02*
X003114Y009961D01*
X003237Y009802D02*
X002985Y009802D01*
X002396Y009644D02*
X002351Y009644D01*
X004108Y009327D02*
X006054Y009327D01*
X005974Y009168D02*
X004108Y009168D01*
X004108Y009009D02*
X005957Y009009D01*
X005992Y008851D02*
X004033Y008851D01*
X003875Y008692D02*
X005791Y008692D01*
X005633Y008534D02*
X003911Y008534D01*
X003611Y008131D02*
X005711Y008131D01*
X006111Y008531D01*
X007311Y008531D01*
X007498Y008719D01*
X007498Y010844D01*
X007311Y011031D01*
X006711Y011031D01*
X007306Y011388D02*
X007736Y011388D01*
X008036Y011705D02*
X007308Y011705D01*
X007413Y011863D02*
X008137Y011863D01*
X006719Y011863D02*
X006702Y011863D01*
X006702Y011705D02*
X006719Y011705D01*
X006702Y012180D02*
X006719Y012180D01*
X006702Y012339D02*
X006719Y012339D01*
X006134Y012656D02*
X005938Y012656D01*
X004511Y012531D02*
X003911Y013131D01*
X003611Y013131D01*
X003226Y013449D02*
X002996Y013449D01*
X003108Y013290D02*
X003114Y013290D01*
X003108Y013132D02*
X003114Y013132D01*
X003108Y012973D02*
X003114Y012973D01*
X003225Y012814D02*
X002997Y012814D01*
X002838Y012656D02*
X003383Y012656D01*
X003275Y012497D02*
X002947Y012497D01*
X003106Y012339D02*
X003116Y012339D01*
X003108Y012180D02*
X003114Y012180D01*
X003108Y012022D02*
X003114Y012022D01*
X003947Y012497D02*
X004064Y012497D01*
X004106Y012339D02*
X004171Y012339D01*
X004171Y012180D02*
X004108Y012180D01*
X004108Y012022D02*
X004171Y012022D01*
X004171Y011863D02*
X004046Y011863D01*
X003905Y012656D02*
X003838Y012656D01*
X004511Y012531D02*
X004511Y010331D01*
X004811Y010031D01*
X006711Y010031D01*
X007139Y009485D02*
X007158Y009485D01*
X007961Y010031D02*
X007961Y010994D01*
X006115Y011388D02*
X005929Y011388D01*
X005629Y011388D02*
X005592Y011388D01*
X005592Y011229D02*
X005629Y011229D01*
X005629Y011071D02*
X005592Y011071D01*
X006008Y010753D02*
X006036Y010753D01*
X007415Y012814D02*
X009029Y012814D01*
X008977Y012973D02*
X007465Y012973D01*
X007463Y013132D02*
X008981Y013132D01*
X010211Y013531D02*
X007711Y013531D01*
X007211Y014031D01*
X006711Y014031D01*
X006210Y013607D02*
X005890Y013607D01*
X005896Y013449D02*
X006195Y013449D01*
X007227Y013449D02*
X007312Y013449D01*
X007397Y013290D02*
X007471Y013290D01*
X011291Y013591D02*
X011301Y013541D01*
X011311Y013531D01*
X014011Y013531D02*
X014021Y013541D01*
X014041Y013591D01*
X014518Y013607D02*
X015136Y013607D01*
X014924Y013766D02*
X014518Y013766D01*
X014382Y013924D02*
X014803Y013924D01*
X014757Y014083D02*
X014351Y014083D01*
X014351Y014241D02*
X014763Y014241D01*
X014639Y013449D02*
X014518Y013449D01*
X019341Y013290D02*
X021431Y013290D01*
X021431Y013132D02*
X019338Y013132D01*
X019335Y012973D02*
X020582Y012973D01*
X020472Y012814D02*
X019332Y012814D01*
X019329Y012656D02*
X020434Y012656D01*
X020434Y012497D02*
X019327Y012497D01*
X019324Y012339D02*
X020892Y012339D01*
X020892Y012497D02*
X020929Y012497D01*
X020929Y012656D02*
X020892Y012656D01*
X020892Y012814D02*
X020929Y012814D01*
X020929Y012973D02*
X020892Y012973D01*
X021240Y012973D02*
X021431Y012973D01*
X021431Y012814D02*
X021350Y012814D01*
X021388Y012656D02*
X021431Y012656D01*
X021811Y012331D02*
X021811Y011931D01*
X021411Y011531D01*
X021411Y006231D01*
X023011Y004631D01*
X023011Y002231D01*
X022311Y001531D01*
X015211Y001531D01*
X014911Y001231D01*
X014911Y001031D01*
X014611Y000794D01*
X013248Y000794D01*
X013011Y001031D01*
X012677Y001399D02*
X009345Y001399D01*
X009504Y001241D02*
X012518Y001241D01*
X012514Y001082D02*
X009508Y001082D01*
X009508Y000924D02*
X012514Y000924D01*
X012574Y000765D02*
X009448Y000765D01*
X008574Y000765D02*
X007948Y000765D01*
X008008Y000924D02*
X008514Y000924D01*
X008514Y001082D02*
X008008Y001082D01*
X008004Y001241D02*
X008518Y001241D01*
X008677Y001399D02*
X007845Y001399D01*
X007717Y001534D02*
X007305Y001534D01*
X007014Y001825D01*
X007014Y002237D01*
X007211Y002434D01*
X007115Y002434D01*
X006933Y002510D01*
X006793Y002650D01*
X006717Y002832D01*
X006717Y003030D01*
X006793Y003212D01*
X006933Y003352D01*
X007115Y003428D01*
X007907Y003428D01*
X008089Y003352D01*
X008229Y003212D01*
X008305Y003030D01*
X008305Y002832D01*
X008229Y002650D01*
X008089Y002510D01*
X007907Y002434D01*
X007810Y002434D01*
X008008Y002237D01*
X008008Y001825D01*
X007717Y001534D01*
X007740Y001558D02*
X013392Y001558D01*
X013211Y001631D02*
X013511Y001331D01*
X014111Y001331D01*
X014092Y001313D02*
X013432Y001313D01*
X013395Y001349D01*
X014092Y001349D01*
X014092Y001313D01*
X014092Y001399D02*
X014129Y001399D01*
X014129Y001558D02*
X014092Y001558D01*
X014092Y001716D02*
X014129Y001716D01*
X013617Y001875D02*
X010529Y001875D01*
X010588Y001934D02*
X010308Y001654D01*
X010129Y001654D01*
X010129Y002112D01*
X010092Y002112D01*
X010092Y001654D01*
X009913Y001654D01*
X009634Y001934D01*
X009634Y002113D01*
X010092Y002113D01*
X010092Y002149D01*
X009634Y002149D01*
X009634Y002329D01*
X009913Y002608D01*
X010092Y002608D01*
X010092Y002150D01*
X010129Y002150D01*
X010129Y002608D01*
X010308Y002608D01*
X010588Y002329D01*
X010588Y002149D01*
X010130Y002149D01*
X010130Y002113D01*
X010588Y002113D01*
X010588Y001934D01*
X010588Y002034D02*
X013409Y002034D01*
X013334Y002192D02*
X010588Y002192D01*
X010566Y002351D02*
X011545Y002351D01*
X011621Y002274D02*
X011354Y002542D01*
X011354Y002722D01*
X011802Y002722D01*
X011819Y002722D01*
X011819Y002274D01*
X012000Y002274D01*
X012268Y002542D01*
X012268Y002722D01*
X011820Y002722D01*
X011820Y002740D01*
X012268Y002740D01*
X012268Y002920D01*
X012000Y003188D01*
X011819Y003188D01*
X011819Y002740D01*
X011802Y002740D01*
X011802Y002722D01*
X011802Y002274D01*
X011621Y002274D01*
X011802Y002351D02*
X011819Y002351D01*
X011802Y002509D02*
X011819Y002509D01*
X011802Y002668D02*
X011819Y002668D01*
X011811Y002731D02*
X012711Y002731D01*
X014111Y004131D01*
X014111Y005631D01*
X014092Y005680D02*
X014129Y005680D01*
X014129Y005521D02*
X014092Y005521D01*
X014092Y005363D02*
X014129Y005363D01*
X014129Y005204D02*
X014092Y005204D01*
X013598Y005204D02*
X013328Y005204D01*
X012951Y005046D02*
X014621Y005046D01*
X014621Y004887D02*
X012951Y004887D01*
X012951Y004729D02*
X014621Y004729D01*
X014621Y004570D02*
X012951Y004570D01*
X012951Y004412D02*
X014611Y004412D01*
X014452Y004253D02*
X012951Y004253D01*
X012951Y004095D02*
X014294Y004095D01*
X014135Y003936D02*
X012897Y003936D01*
X012738Y003778D02*
X013977Y003778D01*
X013821Y003619D02*
X012580Y003619D01*
X012421Y003460D02*
X013771Y003460D01*
X013771Y003302D02*
X012056Y003302D01*
X012045Y003143D02*
X013771Y003143D01*
X013771Y002985D02*
X012204Y002985D01*
X012268Y002826D02*
X013711Y002826D01*
X013448Y002668D02*
X012268Y002668D01*
X012236Y002509D02*
X013350Y002509D01*
X013317Y002351D02*
X012077Y002351D01*
X011811Y002731D02*
X011811Y001631D01*
X013211Y001631D01*
X013525Y001716D02*
X010371Y001716D01*
X010129Y001716D02*
X010092Y001716D01*
X010111Y001631D02*
X010111Y002131D01*
X010092Y002192D02*
X010129Y002192D01*
X010129Y002034D02*
X010092Y002034D01*
X010092Y001875D02*
X010129Y001875D01*
X010111Y001631D02*
X011811Y001631D01*
X011386Y002509D02*
X010407Y002509D01*
X010129Y002509D02*
X010092Y002509D01*
X010092Y002351D02*
X010129Y002351D01*
X009815Y002509D02*
X009370Y002509D01*
X009494Y002351D02*
X009656Y002351D01*
X009634Y002192D02*
X009508Y002192D01*
X009508Y002034D02*
X009634Y002034D01*
X009693Y001875D02*
X009457Y001875D01*
X009299Y001716D02*
X009851Y001716D01*
X010111Y001631D02*
X008611Y001631D01*
X008311Y001931D01*
X008311Y003931D01*
X008111Y004131D01*
X007573Y004131D01*
X007515Y004095D02*
X002600Y004095D01*
X002600Y004253D02*
X006568Y004253D01*
X006567Y004249D02*
X006657Y004467D01*
X006824Y004634D01*
X007042Y004724D01*
X007516Y004724D01*
X007516Y004189D01*
X007631Y004189D01*
X007631Y004724D01*
X008105Y004724D01*
X008323Y004634D01*
X008490Y004467D01*
X008535Y004358D01*
X008805Y004628D01*
X009217Y004628D01*
X009508Y004337D01*
X009508Y003925D01*
X009217Y003634D01*
X008805Y003634D01*
X008535Y003904D01*
X008490Y003795D01*
X008323Y003628D01*
X008105Y003538D01*
X007631Y003538D01*
X007631Y004073D01*
X007516Y004073D01*
X007516Y003538D01*
X007042Y003538D01*
X006824Y003628D01*
X006657Y003795D01*
X006567Y004013D01*
X006567Y004073D01*
X007515Y004073D01*
X007515Y004189D01*
X006567Y004189D01*
X006567Y004249D01*
X006634Y004412D02*
X002534Y004412D01*
X002415Y004570D02*
X006760Y004570D01*
X007516Y004570D02*
X007631Y004570D01*
X007631Y004412D02*
X007516Y004412D01*
X007516Y004253D02*
X007631Y004253D01*
X007631Y004189D02*
X008514Y004189D01*
X008514Y004073D01*
X007631Y004073D01*
X007631Y004189D01*
X007631Y004095D02*
X008514Y004095D01*
X008513Y004412D02*
X008589Y004412D01*
X008748Y004570D02*
X008387Y004570D01*
X009274Y004570D02*
X009771Y004570D01*
X009771Y004729D02*
X002146Y004729D01*
X001000Y004729D02*
X000792Y004729D01*
X000792Y004887D02*
X009724Y004887D01*
X009565Y005046D02*
X000792Y005046D01*
X002386Y005431D02*
X008511Y005431D01*
X009111Y006031D01*
X009711Y006031D01*
X009711Y005381D01*
X010111Y004981D01*
X010111Y004131D01*
X009762Y003778D02*
X009360Y003778D01*
X009508Y003936D02*
X009614Y003936D01*
X009614Y004095D02*
X009508Y004095D01*
X009508Y004253D02*
X009614Y004253D01*
X009689Y004412D02*
X009433Y004412D01*
X008662Y003778D02*
X008472Y003778D01*
X008301Y003619D02*
X010774Y003619D01*
X011538Y003302D02*
X011565Y003302D01*
X011577Y003143D02*
X011538Y003143D01*
X011802Y003143D02*
X011819Y003143D01*
X011802Y002985D02*
X011819Y002985D01*
X011802Y002826D02*
X011819Y002826D01*
X011354Y002826D02*
X011331Y002826D01*
X011354Y002668D02*
X009528Y002668D01*
X009687Y002826D02*
X010791Y002826D01*
X011061Y003231D02*
X009611Y003231D01*
X009011Y002631D01*
X009011Y002131D01*
X008514Y002192D02*
X008008Y002192D01*
X008008Y002034D02*
X008514Y002034D01*
X008564Y001875D02*
X008008Y001875D01*
X007899Y001716D02*
X008723Y001716D01*
X008528Y002351D02*
X007894Y002351D01*
X008088Y002509D02*
X008671Y002509D01*
X008671Y002668D02*
X008236Y002668D01*
X008302Y002826D02*
X008725Y002826D01*
X008884Y002985D02*
X008305Y002985D01*
X008258Y003143D02*
X009042Y003143D01*
X009201Y003302D02*
X008139Y003302D01*
X007631Y003619D02*
X007516Y003619D01*
X007516Y003778D02*
X007631Y003778D01*
X007631Y003936D02*
X007516Y003936D01*
X006846Y003619D02*
X002342Y003619D01*
X002501Y003778D02*
X006674Y003778D01*
X006598Y003936D02*
X002570Y003936D01*
X002882Y003302D02*
X000792Y003302D01*
X000792Y003460D02*
X009359Y003460D01*
X006882Y003302D02*
X004139Y003302D01*
X004258Y003143D02*
X006764Y003143D01*
X006717Y002985D02*
X004305Y002985D01*
X004302Y002826D02*
X006720Y002826D01*
X006785Y002668D02*
X004236Y002668D01*
X004088Y002509D02*
X006934Y002509D01*
X007128Y002351D02*
X003866Y002351D01*
X003988Y002192D02*
X007014Y002192D01*
X007014Y002034D02*
X003530Y002034D01*
X003871Y001716D02*
X007123Y001716D01*
X007014Y001875D02*
X003988Y001875D01*
X003712Y001558D02*
X007281Y001558D01*
X007177Y001399D02*
X003817Y001399D01*
X003975Y001241D02*
X007018Y001241D01*
X007014Y001082D02*
X003988Y001082D01*
X003988Y000924D02*
X007014Y000924D01*
X007074Y000765D02*
X003919Y000765D01*
X003205Y001399D02*
X002773Y001399D01*
X002816Y001357D02*
X002727Y001445D01*
X002717Y001455D01*
X002629Y001544D01*
X002592Y001559D01*
X002588Y001560D01*
X002665Y001694D01*
X002742Y001982D01*
X002713Y001875D02*
X003034Y001875D01*
X003151Y001716D02*
X002671Y001716D01*
X002594Y001558D02*
X003310Y001558D01*
X002816Y001357D02*
X002836Y001308D01*
X002864Y001241D01*
X002864Y001241D01*
X002727Y001445D02*
X002727Y001445D01*
X002629Y001544D02*
X002629Y001544D01*
X002629Y001544D01*
X002742Y002192D02*
X003034Y002192D01*
X003156Y002351D02*
X002723Y002351D01*
X002681Y002509D02*
X002934Y002509D01*
X002785Y002668D02*
X002607Y002668D01*
X002515Y002826D02*
X002720Y002826D01*
X002717Y002985D02*
X002357Y002985D01*
X002120Y003143D02*
X002764Y003143D01*
X001102Y003143D02*
X000792Y003143D01*
X000792Y002985D02*
X000865Y002985D01*
X000805Y003619D02*
X000792Y003619D01*
X000792Y006156D02*
X001180Y006156D01*
X001022Y006314D02*
X000792Y006314D01*
X000792Y006473D02*
X000863Y006473D01*
X002351Y007583D02*
X002360Y007583D01*
X003862Y007583D02*
X006269Y007583D01*
X006152Y007424D02*
X004020Y007424D01*
X004108Y007265D02*
X005765Y007265D01*
X005606Y007107D02*
X004108Y007107D01*
X004108Y006948D02*
X005447Y006948D01*
X005289Y006790D02*
X003972Y006790D01*
X003924Y007741D02*
X006049Y007741D01*
X005972Y007900D02*
X005960Y007900D01*
X006711Y008031D02*
X008511Y008031D01*
X009011Y007531D01*
X010211Y007531D01*
X010511Y007231D01*
X010511Y005331D01*
X009416Y005204D02*
X008765Y005204D01*
X008924Y005363D02*
X009371Y005363D01*
X009371Y005521D02*
X009082Y005521D01*
X010168Y006473D02*
X010171Y006473D01*
X009017Y006790D02*
X007405Y006790D01*
X007465Y006948D02*
X008957Y006948D01*
X008957Y007107D02*
X007465Y007107D01*
X007407Y007265D02*
X008796Y007265D01*
X008637Y007424D02*
X007270Y007424D01*
X007152Y007583D02*
X008479Y007583D01*
X006253Y006473D02*
X005933Y006473D01*
X006092Y006631D02*
X006159Y006631D01*
X014092Y005997D02*
X014129Y005997D01*
X014129Y005839D02*
X014092Y005839D01*
X014558Y006156D02*
X014621Y006156D01*
X015311Y006331D02*
X015511Y006131D01*
X015492Y005521D02*
X015529Y005521D01*
X015529Y005363D02*
X015492Y005363D01*
X015492Y005204D02*
X015529Y005204D01*
X015529Y005046D02*
X015492Y005046D01*
X015492Y004887D02*
X015529Y004887D01*
X015529Y004729D02*
X015492Y004729D01*
X017451Y004729D02*
X019171Y004729D01*
X019171Y004570D02*
X017451Y004570D01*
X017451Y004412D02*
X018189Y004412D01*
X018030Y004253D02*
X017451Y004253D01*
X017451Y004095D02*
X018014Y004095D01*
X018014Y003936D02*
X017451Y003936D01*
X017451Y003778D02*
X018062Y003778D01*
X018220Y003619D02*
X017451Y003619D01*
X017111Y003431D02*
X016711Y003031D01*
X016659Y003460D02*
X015784Y003460D01*
X017111Y003431D02*
X017111Y006631D01*
X016571Y007171D01*
X016131Y007171D01*
X017451Y006473D02*
X019150Y006473D01*
X019014Y006314D02*
X017451Y006314D01*
X017451Y006156D02*
X019014Y006156D01*
X019014Y005997D02*
X017451Y005997D01*
X017451Y005839D02*
X019101Y005839D01*
X019171Y005680D02*
X017451Y005680D01*
X017451Y005521D02*
X019171Y005521D01*
X019040Y005363D02*
X017451Y005363D01*
X017451Y005204D02*
X019014Y005204D01*
X019014Y005046D02*
X017451Y005046D01*
X017451Y004887D02*
X019052Y004887D01*
X019511Y005131D02*
X019511Y004331D01*
X019211Y004031D01*
X018511Y004031D01*
X018833Y004412D02*
X019111Y004412D01*
X019511Y005131D02*
X019511Y006131D01*
X019749Y006790D02*
X021071Y006790D01*
X021071Y006948D02*
X019909Y006948D01*
X020068Y007107D02*
X021071Y007107D01*
X021071Y007265D02*
X020151Y007265D01*
X020151Y007424D02*
X021071Y007424D01*
X021071Y007583D02*
X020151Y007583D01*
X020151Y007741D02*
X021071Y007741D01*
X021071Y007900D02*
X020365Y007900D01*
X020532Y008058D02*
X021071Y008058D01*
X021071Y008217D02*
X020598Y008217D01*
X020605Y008375D02*
X021071Y008375D01*
X021071Y008534D02*
X020561Y008534D01*
X020449Y008692D02*
X021071Y008692D01*
X021071Y008851D02*
X018068Y008851D01*
X017910Y008692D02*
X019173Y008692D01*
X019060Y008534D02*
X017751Y008534D01*
X017593Y008375D02*
X019017Y008375D01*
X019024Y008217D02*
X017434Y008217D01*
X017275Y008058D02*
X019089Y008058D01*
X019811Y008331D02*
X019811Y007331D01*
X019651Y007171D01*
X019131Y007171D01*
X018227Y009009D02*
X021071Y009009D01*
X021071Y009168D02*
X018385Y009168D01*
X018544Y009327D02*
X021071Y009327D01*
X021071Y009485D02*
X018702Y009485D01*
X018861Y009644D02*
X021071Y009644D01*
X021071Y009802D02*
X019019Y009802D01*
X019178Y009961D02*
X021071Y009961D01*
X021071Y010119D02*
X019276Y010119D01*
X019291Y010278D02*
X021071Y010278D01*
X021071Y010436D02*
X019291Y010436D01*
X019292Y010595D02*
X021071Y010595D01*
X021071Y010753D02*
X019295Y010753D01*
X019298Y010912D02*
X021071Y010912D01*
X021071Y011071D02*
X019301Y011071D01*
X019304Y011229D02*
X021071Y011229D01*
X021071Y011388D02*
X019306Y011388D01*
X019309Y011546D02*
X021071Y011546D01*
X020929Y011705D02*
X020892Y011705D01*
X020892Y011863D02*
X020929Y011863D01*
X020929Y012022D02*
X020892Y012022D01*
X020892Y012180D02*
X020929Y012180D01*
X020434Y012180D02*
X019321Y012180D01*
X019318Y012022D02*
X020434Y012022D01*
X020466Y011863D02*
X019315Y011863D01*
X019312Y011705D02*
X020566Y011705D01*
X021751Y011229D02*
X023828Y011229D01*
X023811Y010731D02*
X023111Y010731D01*
X023541Y010278D02*
X023677Y010278D01*
X024480Y010119D02*
X026181Y010119D01*
X026181Y010278D02*
X024638Y010278D01*
X024797Y010436D02*
X026181Y010436D01*
X026181Y010595D02*
X024955Y010595D01*
X025114Y010753D02*
X026181Y010753D01*
X026181Y010912D02*
X025273Y010912D01*
X025412Y011071D02*
X026181Y011071D01*
X026181Y011229D02*
X025451Y011229D01*
X025451Y011388D02*
X026181Y011388D01*
X026181Y011546D02*
X025451Y011546D01*
X025451Y011705D02*
X026181Y011705D01*
X026181Y011863D02*
X025451Y011863D01*
X025451Y012022D02*
X026181Y012022D01*
X026181Y012180D02*
X025451Y012180D01*
X025451Y012339D02*
X026181Y012339D01*
X026181Y012497D02*
X025451Y012497D01*
X025451Y012656D02*
X026181Y012656D01*
X026181Y012814D02*
X025469Y012814D01*
X025562Y012973D02*
X026181Y012973D01*
X026181Y013132D02*
X025588Y013132D01*
X025561Y013290D02*
X026181Y013290D01*
X026181Y013449D02*
X025468Y013449D01*
X025208Y013607D02*
X026181Y013607D01*
X026181Y013766D02*
X024951Y013766D01*
X024951Y013924D02*
X026181Y013924D01*
X026181Y014083D02*
X024951Y014083D01*
X024951Y014241D02*
X026181Y014241D01*
X026181Y014400D02*
X024951Y014400D01*
X024951Y014558D02*
X026181Y014558D01*
X026181Y014717D02*
X024951Y014717D01*
X024951Y014876D02*
X026181Y014876D01*
X026181Y015034D02*
X024951Y015034D01*
X024951Y015193D02*
X026181Y015193D01*
X026181Y015351D02*
X024951Y015351D01*
X024951Y015510D02*
X026181Y015510D01*
X026181Y015668D02*
X024951Y015668D01*
X024951Y015827D02*
X026181Y015827D01*
X026181Y015985D02*
X024951Y015985D01*
X024951Y016144D02*
X026181Y016144D01*
X026181Y016302D02*
X025013Y016302D01*
X025344Y016461D02*
X026181Y016461D01*
X026181Y016620D02*
X025519Y016620D01*
X025585Y016778D02*
X026181Y016778D01*
X026181Y016937D02*
X025588Y016937D01*
X025539Y017095D02*
X026181Y017095D01*
X026181Y017254D02*
X025413Y017254D01*
X025111Y016881D02*
X024611Y016381D01*
X024611Y011531D01*
X023811Y010731D01*
X022317Y012022D02*
X022204Y012022D01*
X022308Y012180D02*
X022380Y012180D01*
X022308Y012339D02*
X022519Y012339D01*
X022562Y012497D02*
X022308Y012497D01*
X022390Y012656D02*
X022191Y012656D01*
X022191Y012814D02*
X022324Y012814D01*
X022317Y012973D02*
X022191Y012973D01*
X022191Y013132D02*
X022359Y013132D01*
X022470Y013290D02*
X022191Y013290D01*
X022191Y013449D02*
X022680Y013449D01*
X022715Y013434D02*
X023507Y013434D01*
X023689Y013510D01*
X023829Y013650D01*
X023905Y013832D01*
X023905Y014030D01*
X023829Y014212D01*
X023689Y014352D01*
X023507Y014428D01*
X022715Y014428D01*
X022533Y014352D01*
X022393Y014212D01*
X022317Y014030D01*
X022317Y013832D01*
X022393Y013650D01*
X022533Y013510D01*
X022715Y013434D01*
X022435Y013607D02*
X022191Y013607D01*
X022191Y013766D02*
X022345Y013766D01*
X022317Y013924D02*
X022191Y013924D01*
X022191Y014083D02*
X022339Y014083D01*
X022422Y014241D02*
X022191Y014241D01*
X022191Y014400D02*
X022648Y014400D01*
X022715Y014434D02*
X023507Y014434D01*
X023689Y014510D01*
X023829Y014650D01*
X023905Y014832D01*
X023905Y015030D01*
X023829Y015212D01*
X023689Y015352D01*
X023507Y015428D01*
X022715Y015428D01*
X022533Y015352D01*
X022393Y015212D01*
X022317Y015030D01*
X022317Y014832D01*
X022393Y014650D01*
X022533Y014510D01*
X022715Y014434D01*
X022484Y014558D02*
X022191Y014558D01*
X022191Y014717D02*
X022365Y014717D01*
X022317Y014876D02*
X022191Y014876D01*
X022191Y015034D02*
X022319Y015034D01*
X022385Y015193D02*
X022191Y015193D01*
X022191Y015351D02*
X022532Y015351D01*
X022533Y015510D02*
X022191Y015510D01*
X022191Y015668D02*
X022385Y015668D01*
X022393Y015650D02*
X022533Y015510D01*
X022715Y015434D01*
X023507Y015434D01*
X023689Y015510D01*
X023829Y015650D01*
X023905Y015832D01*
X023905Y016030D01*
X023829Y016212D01*
X023689Y016352D01*
X023507Y016428D01*
X022715Y016428D01*
X022533Y016352D01*
X022393Y016212D01*
X022317Y016030D01*
X022317Y015832D01*
X022393Y015650D01*
X022319Y015827D02*
X022191Y015827D01*
X022191Y015985D02*
X022317Y015985D01*
X022364Y016144D02*
X022261Y016144D01*
X022420Y016302D02*
X022483Y016302D01*
X022578Y016461D02*
X022650Y016461D01*
X021821Y016778D02*
X021386Y016778D01*
X021408Y016620D02*
X021662Y016620D01*
X021503Y016461D02*
X021408Y016461D01*
X021408Y016302D02*
X021431Y016302D01*
X021431Y016144D02*
X021408Y016144D01*
X021408Y015985D02*
X021431Y015985D01*
X021431Y015827D02*
X021363Y015827D01*
X021431Y015668D02*
X021248Y015668D01*
X021431Y015510D02*
X019482Y015510D01*
X019520Y015668D02*
X020574Y015668D01*
X020459Y015827D02*
X019520Y015827D01*
X019520Y015985D02*
X020414Y015985D01*
X020414Y016144D02*
X019520Y016144D01*
X019520Y016302D02*
X020414Y016302D01*
X020414Y016461D02*
X019520Y016461D01*
X019454Y016620D02*
X020414Y016620D01*
X020435Y016778D02*
X019391Y016778D01*
X019391Y016937D02*
X020517Y016937D01*
X020571Y017095D02*
X019391Y017095D01*
X019391Y017254D02*
X020653Y017254D01*
X020811Y017412D02*
X019391Y017412D01*
X019391Y017571D02*
X020970Y017571D01*
X021211Y017331D02*
X021811Y017331D01*
X021811Y017931D01*
X021611Y018131D01*
X021611Y018931D01*
X022088Y018998D02*
X022134Y018998D01*
X022134Y019156D02*
X022088Y019156D01*
X022134Y019303D02*
X022206Y019478D01*
X022341Y019613D01*
X022516Y019685D01*
X022706Y019685D01*
X022881Y019613D01*
X023015Y019478D01*
X023088Y019303D01*
X023088Y018559D01*
X023015Y018384D01*
X022881Y018249D01*
X022706Y018177D01*
X022516Y018177D01*
X022341Y018249D01*
X022206Y018384D01*
X022134Y018559D01*
X022134Y019303D01*
X022139Y019315D02*
X022083Y019315D01*
X022018Y019473D02*
X022204Y019473D01*
X022387Y019632D02*
X021835Y019632D01*
X021387Y019632D02*
X020835Y019632D01*
X020881Y019613D02*
X020706Y019685D01*
X020516Y019685D01*
X020341Y019613D01*
X020206Y019478D01*
X020134Y019303D01*
X020134Y018559D01*
X020206Y018384D01*
X020341Y018249D01*
X020516Y018177D01*
X020706Y018177D01*
X020881Y018249D01*
X021015Y018384D01*
X021088Y018559D01*
X021088Y019303D01*
X021015Y019478D01*
X020881Y019613D01*
X021018Y019473D02*
X021204Y019473D01*
X021139Y019315D02*
X021083Y019315D01*
X021088Y019156D02*
X021134Y019156D01*
X021134Y018998D02*
X021088Y018998D01*
X021088Y018839D02*
X021134Y018839D01*
X021134Y018681D02*
X021088Y018681D01*
X021073Y018522D02*
X021149Y018522D01*
X021226Y018364D02*
X020995Y018364D01*
X020774Y018205D02*
X021271Y018205D01*
X021278Y018046D02*
X019333Y018046D01*
X019391Y017888D02*
X021373Y017888D01*
X021471Y017729D02*
X019391Y017729D01*
X019174Y018205D02*
X020448Y018205D01*
X020226Y018364D02*
X019016Y018364D01*
X018857Y018522D02*
X020149Y018522D01*
X020134Y018681D02*
X019635Y018681D01*
X019788Y018839D02*
X020134Y018839D01*
X020134Y018998D02*
X019788Y018998D01*
X019788Y019156D02*
X020134Y019156D01*
X020139Y019315D02*
X019701Y019315D01*
X019543Y019473D02*
X020204Y019473D01*
X020387Y019632D02*
X019614Y019632D01*
X019773Y019790D02*
X024234Y019790D01*
X024234Y019949D02*
X019808Y019949D01*
X019808Y020107D02*
X024363Y020107D01*
X023439Y019632D02*
X022835Y019632D01*
X023018Y019473D02*
X023229Y019473D01*
X023160Y019315D02*
X023083Y019315D01*
X023088Y019156D02*
X023154Y019156D01*
X023154Y018998D02*
X023088Y018998D01*
X023088Y018839D02*
X023154Y018839D01*
X023154Y018681D02*
X023088Y018681D01*
X023073Y018522D02*
X023171Y018522D01*
X023255Y018364D02*
X022995Y018364D01*
X022774Y018205D02*
X023500Y018205D01*
X023602Y018205D02*
X023619Y018205D01*
X023722Y018205D02*
X026181Y018205D01*
X026181Y018364D02*
X024940Y018364D01*
X025098Y018522D02*
X026181Y018522D01*
X026181Y018681D02*
X025168Y018681D01*
X025168Y018839D02*
X026181Y018839D01*
X026181Y018998D02*
X025141Y018998D01*
X024982Y019156D02*
X026181Y019156D01*
X026181Y018046D02*
X022131Y018046D01*
X022151Y017888D02*
X026181Y017888D01*
X026181Y017729D02*
X022151Y017729D01*
X022274Y017571D02*
X026181Y017571D01*
X026181Y017412D02*
X023544Y017412D01*
X023788Y017254D02*
X023809Y017254D01*
X024413Y017254D02*
X024809Y017254D01*
X024683Y017095D02*
X024571Y017095D01*
X024588Y016937D02*
X024634Y016937D01*
X023856Y016461D02*
X023571Y016461D01*
X023739Y016302D02*
X024271Y016302D01*
X024271Y016144D02*
X023857Y016144D01*
X023905Y015985D02*
X024271Y015985D01*
X024271Y015827D02*
X023902Y015827D01*
X023837Y015668D02*
X024271Y015668D01*
X024271Y015510D02*
X023689Y015510D01*
X023690Y015351D02*
X024271Y015351D01*
X024271Y015193D02*
X023837Y015193D01*
X023903Y015034D02*
X024271Y015034D01*
X024271Y014876D02*
X023905Y014876D01*
X023857Y014717D02*
X024271Y014717D01*
X024271Y014558D02*
X023738Y014558D01*
X023574Y014400D02*
X024271Y014400D01*
X024271Y014241D02*
X023800Y014241D01*
X023883Y014083D02*
X024271Y014083D01*
X024271Y013924D02*
X023905Y013924D01*
X023877Y013766D02*
X024271Y013766D01*
X023912Y013607D02*
X023787Y013607D01*
X023754Y013449D02*
X023541Y013449D01*
X024951Y013607D02*
X025014Y013607D01*
X021431Y013607D02*
X019347Y013607D01*
X019344Y013449D02*
X021431Y013449D01*
X021431Y013766D02*
X019350Y013766D01*
X019353Y013924D02*
X021431Y013924D01*
X021431Y014083D02*
X019355Y014083D01*
X019358Y014241D02*
X021431Y014241D01*
X021431Y014400D02*
X019361Y014400D01*
X019364Y014558D02*
X021431Y014558D01*
X021431Y014717D02*
X019367Y014717D01*
X019370Y014876D02*
X021431Y014876D01*
X021431Y015034D02*
X019373Y015034D01*
X019376Y015193D02*
X021431Y015193D01*
X021431Y015351D02*
X019382Y015351D01*
X020911Y016331D02*
X020911Y017031D01*
X021211Y017331D01*
X021305Y016937D02*
X021503Y016937D01*
X022308Y017412D02*
X022678Y017412D01*
X022448Y018205D02*
X022018Y018205D01*
X021995Y018364D02*
X022226Y018364D01*
X022149Y018522D02*
X022073Y018522D01*
X022088Y018681D02*
X022134Y018681D01*
X022134Y018839D02*
X022088Y018839D01*
X023602Y018839D02*
X023619Y018839D01*
X023602Y018681D02*
X023619Y018681D01*
X023602Y018522D02*
X023619Y018522D01*
X023602Y018364D02*
X023619Y018364D01*
X025570Y020266D02*
X026181Y020266D01*
X026181Y020425D02*
X025967Y020425D01*
X026163Y020583D02*
X026181Y020583D01*
X022611Y021231D02*
X022611Y021931D01*
X019329Y019473D02*
X019292Y019473D01*
X019292Y019315D02*
X019329Y019315D01*
X019329Y019156D02*
X019292Y019156D01*
X019292Y018998D02*
X019329Y018998D01*
X019329Y018839D02*
X019292Y018839D01*
X019292Y018681D02*
X019329Y018681D01*
X018987Y018681D02*
X018699Y018681D01*
X018834Y018839D02*
X018489Y018839D01*
X003384Y013607D02*
X002837Y013607D01*
X002948Y013766D02*
X003274Y013766D01*
X003115Y013924D02*
X003107Y013924D01*
X001511Y015331D02*
X001511Y017331D01*
X014895Y010753D02*
X014936Y010753D01*
X014905Y010595D02*
X015107Y010595D01*
X016085Y010753D02*
X016320Y010753D01*
X016157Y010436D02*
X017421Y010436D01*
X017327Y010278D02*
X016244Y010278D01*
X016265Y010119D02*
X017168Y010119D01*
X025701Y009034D02*
X025701Y009034D01*
X025711Y009009D02*
X025711Y008931D01*
X025711Y008924D01*
X025701Y008899D01*
X022115Y005046D02*
X022068Y005046D01*
X021914Y004887D02*
X022274Y004887D01*
X022280Y004570D02*
X022591Y004570D01*
X022511Y004412D02*
X022671Y004412D01*
X022669Y004253D02*
X022671Y004253D01*
X022611Y003831D02*
X022211Y004231D01*
X021611Y004231D01*
X020924Y003460D02*
X019784Y003460D01*
X019943Y003302D02*
X020730Y003302D01*
X020664Y003143D02*
X020008Y003143D01*
X020008Y002985D02*
X020657Y002985D01*
X020702Y002826D02*
X020008Y002826D01*
X019850Y002668D02*
X020822Y002668D01*
X019014Y001875D02*
X016008Y001875D01*
X014916Y001716D02*
X014697Y001716D01*
X022094Y000765D02*
X025734Y000765D01*
X025734Y000924D02*
X022160Y000924D01*
X022165Y001082D02*
X024915Y001082D01*
X024651Y001241D02*
X022499Y001241D01*
X022503Y001243D02*
X023203Y001943D01*
X023299Y002038D01*
X023351Y002163D01*
X023294Y002034D02*
X024230Y002034D01*
X024258Y001875D02*
X023136Y001875D01*
X022977Y001716D02*
X024301Y001716D01*
X024386Y001558D02*
X022819Y001558D01*
X022660Y001399D02*
X024493Y001399D01*
X022503Y001243D02*
X022379Y001191D01*
X022243Y001191D01*
X022138Y001191D01*
D25*
X023761Y004631D03*
X018111Y006131D03*
X012211Y008181D03*
X008473Y009406D03*
X007961Y010031D03*
X007961Y010994D03*
X008473Y011581D03*
X011211Y011581D03*
X012611Y011131D03*
X012061Y010181D03*
X016561Y011131D03*
X019811Y009631D03*
X017111Y013681D03*
X019811Y013881D03*
X011111Y018031D03*
X005111Y018531D03*
X002411Y020231D03*
X001511Y017331D03*
X001511Y015331D03*
X007548Y014531D03*
X004661Y008581D03*
X008011Y006031D03*
D26*
X015811Y008331D02*
X017011Y008331D01*
X018911Y010231D01*
X018911Y010531D01*
X019011Y016031D01*
X018995Y016031D01*
X019011Y016031D02*
X019011Y017831D01*
X018361Y018481D01*
X014161Y018481D01*
X013811Y018831D01*
X013811Y019431D01*
X011911Y018031D02*
X016211Y018031D01*
X017011Y017231D01*
X017011Y016031D01*
X017027Y016031D01*
X021811Y016231D02*
X021811Y012331D01*
X021811Y016231D02*
X022511Y016931D01*
X023111Y016931D01*
X011911Y018031D02*
X010311Y019631D01*
X005961Y019631D01*
X005661Y019331D01*
X005321Y019331D01*
D27*
X008411Y018531D03*
X017111Y009631D03*
X015511Y009131D03*
X010511Y005331D03*
X012011Y004831D03*
M02*
