%
M48
M72
T01C0.0315
T02C0.0354
T03C0.0394
T04C0.0433
T05C0.0551
T06C0.1102
%
T01
X8011Y6031
X12211Y8181
X8473Y9406
X7961Y10031
X7961Y10994
X8473Y11581
X11211Y11581
X12611Y11131
X12061Y10181
X16561Y11131
X19811Y9631
X18111Y6131
X23761Y4631
X17111Y13681
X19811Y13881
X11111Y18031
X5111Y18531
X2411Y20231
X1511Y17331
X1511Y15331
X7548Y14531
X4661Y8581
T02
X6711Y9031
X6711Y8031
X6711Y7031
X6711Y6031
X9711Y6031
X10511Y5331
X12011Y4831
X12111Y5631
X13111Y5631
X9711Y7031
X9711Y8031
X9711Y9031
X9711Y10031
X9711Y11031
X9711Y12031
X9711Y13031
X9711Y14031
X11291Y13591
X12111Y13131
X13111Y13131
X14041Y13591
X15511Y13131
X14041Y12591
X15511Y12131
X15511Y11131
X15511Y10131
X17111Y9631
X15511Y9131
X13111Y9381
X12111Y9381
X6711Y10031
X6711Y11031
X6711Y12031
X6711Y13031
X6711Y14031
X6711Y15031
X6711Y16031
X6711Y17031
X6711Y18031
X8411Y18531
X9711Y18031
X9711Y17031
X9711Y16031
X9711Y15031
X12111Y16881
X13111Y16881
X9711Y19031
X6711Y19031
X10511Y20831
X10511Y21831
X20611Y21931
X21611Y21931
X22611Y21931
X23611Y21931
X24711Y19781
X24711Y18781
X23611Y18931
X22611Y18931
X21611Y18931
X20611Y18931
X24111Y16881
X25111Y16881
X25111Y13131
X24111Y13131
X23111Y10731
X23111Y9731
X24111Y9381
X25111Y9381
X23111Y8731
X23111Y7731
X23111Y6731
X24111Y5631
X25111Y5631
X21611Y5231
X20861Y4731
X21611Y4231
X21411Y3031
X21411Y2031
X21411Y1031
X11811Y2731
X11061Y3231
X11811Y3731
X18361Y11631
X18361Y12631
X15511Y14131
X11291Y12591
T03
X3511Y1031
X3511Y2031
X3511Y2931
X7511Y2931
X7511Y2031
X7511Y1031
X9011Y1031
X9011Y2131
X10111Y2131
X13011Y1031
X14111Y1331
X15511Y1031
X15511Y2031
X14111Y2331
X15511Y3031
X16511Y4031
X15511Y5131
X14111Y5631
X15511Y6131
X14111Y6631
X14111Y7631
X14111Y8631
X15811Y8331
X16131Y7171
X19131Y7171
X19511Y6131
X19511Y5131
X18511Y4031
X19511Y3031
X19511Y2031
X19511Y1031
X11011Y6041
X10111Y4131
X9011Y4131
X3611Y7131
X2611Y7131
X2611Y8131
X3611Y8131
X3611Y9131
X2611Y9131
X2611Y10131
X3611Y10131
X3611Y11131
X2611Y11131
X2611Y12131
X3611Y12131
X5611Y13031
X5611Y14031
X3611Y14131
X2611Y14131
X2611Y13131
X3611Y13131
X3611Y15131
X2611Y15131
X2611Y16131
X3611Y16131
X5611Y16031
X5321Y19331
X6831Y20441
X5511Y20931
X4511Y20931
X3511Y20931
X3511Y21931
X4511Y21931
X5511Y21931
X6831Y22221
X9391Y22221
X9391Y20441
X15311Y20031
X15311Y19031
X15311Y21031
X15311Y22031
X19311Y22031
X19311Y21031
X19311Y20031
X19311Y19031
X21811Y17331
X23111Y16931
X23111Y15931
X23111Y14931
X23111Y13931
X23111Y12931
X21811Y12331
X20911Y12331
X23111Y11931
X19811Y8331
X14111Y9631
X14111Y10631
X11011Y10041
X5611Y11031
X11731Y15021
X13731Y15021
X20911Y16331
X1321Y19331
T04
X11811Y19431
X13811Y19431
X17027Y16031
X18995Y16031
T05
X7573Y4131
X1573Y4131
T06
X1611Y2131
X25361Y2131
X25361Y21381
X1611Y21381
M30
