G75*
G70*
%OFA0B0*%
%FSLAX24Y24*%
%IPPOS*%
%LPD*%
%AMOC8*
5,1,8,0,0,1.08239X$1,22.5*
%
%ADD10C,0.0000*%
%ADD11C,0.0030*%
%ADD12R,0.0014X0.0002*%
%ADD13R,0.0032X0.0002*%
%ADD14R,0.0036X0.0002*%
%ADD15R,0.0042X0.0002*%
%ADD16R,0.0044X0.0002*%
%ADD17R,0.0046X0.0002*%
%ADD18R,0.0026X0.0002*%
%ADD19R,0.0026X0.0002*%
%ADD20R,0.0024X0.0002*%
%ADD21R,0.0024X0.0002*%
%ADD22R,0.0024X0.0002*%
%ADD23R,0.0020X0.0002*%
%ADD24R,0.0028X0.0002*%
%ADD25R,0.0026X0.0002*%
%ADD26R,0.0028X0.0002*%
%ADD27R,0.0024X0.0002*%
%ADD28R,0.0044X0.0002*%
%ADD29R,0.0034X0.0002*%
%ADD30R,0.0022X0.0002*%
%ADD31R,0.0022X0.0002*%
%ADD32R,0.0036X0.0002*%
%ADD33R,0.0048X0.0002*%
%ADD34R,0.0048X0.0002*%
%ADD35R,0.0034X0.0002*%
%ADD36R,0.0052X0.0002*%
%ADD37R,0.0042X0.0002*%
%ADD38R,0.0054X0.0002*%
%ADD39R,0.0060X0.0002*%
%ADD40R,0.0030X0.0002*%
%ADD41R,0.0058X0.0002*%
%ADD42R,0.0038X0.0002*%
%ADD43R,0.0076X0.0002*%
%ADD44R,0.0050X0.0002*%
%ADD45R,0.0062X0.0002*%
%ADD46R,0.0076X0.0002*%
%ADD47R,0.0038X0.0002*%
%ADD48R,0.0066X0.0002*%
%ADD49R,0.0032X0.0002*%
%ADD50R,0.0040X0.0002*%
%ADD51R,0.0066X0.0002*%
%ADD52R,0.0078X0.0002*%
%ADD53R,0.0068X0.0002*%
%ADD54R,0.0072X0.0002*%
%ADD55R,0.0070X0.0002*%
%ADD56R,0.0070X0.0002*%
%ADD57R,0.0032X0.0002*%
%ADD58R,0.0038X0.0002*%
%ADD59R,0.0078X0.0002*%
%ADD60R,0.0040X0.0002*%
%ADD61R,0.0074X0.0002*%
%ADD62R,0.0022X0.0002*%
%ADD63R,0.0030X0.0002*%
%ADD64R,0.0074X0.0002*%
%ADD65R,0.0076X0.0002*%
%ADD66R,0.0028X0.0002*%
%ADD67R,0.0028X0.0002*%
%ADD68R,0.0006X0.0002*%
%ADD69R,0.0004X0.0002*%
%ADD70R,0.0032X0.0002*%
%ADD71R,0.0004X0.0002*%
%ADD72R,0.0008X0.0002*%
%ADD73R,0.0022X0.0002*%
%ADD74R,0.0082X0.0002*%
%ADD75R,0.0082X0.0002*%
%ADD76R,0.0084X0.0002*%
%ADD77R,0.0064X0.0002*%
%ADD78R,0.0082X0.0002*%
%ADD79R,0.0082X0.0002*%
%ADD80R,0.0064X0.0002*%
%ADD81R,0.0064X0.0002*%
%ADD82R,0.0056X0.0002*%
%ADD83R,0.0056X0.0002*%
%ADD84R,0.0062X0.0002*%
%ADD85R,0.0054X0.0002*%
%ADD86R,0.0006X0.0002*%
%ADD87R,0.0026X0.0002*%
%ADD88R,0.0004X0.0002*%
%ADD89R,0.0014X0.0002*%
%ADD90R,0.0008X0.0002*%
%ADD91R,0.0072X0.0002*%
%ADD92R,0.0128X0.0002*%
%ADD93R,0.0080X0.0002*%
%ADD94R,0.0130X0.0002*%
%ADD95R,0.0054X0.0002*%
%ADD96R,0.0056X0.0002*%
%ADD97R,0.0060X0.0002*%
%ADD98R,0.0066X0.0002*%
%ADD99R,0.0052X0.0002*%
%ADD100R,0.0050X0.0002*%
%ADD101R,0.0068X0.0002*%
%ADD102R,0.0066X0.0002*%
%ADD103R,0.0046X0.0002*%
%ADD104R,0.0020X0.0002*%
%ADD105R,0.0002X0.0002*%
%ADD106R,0.0002X0.0002*%
%ADD107R,0.0044X0.0002*%
%ADD108R,0.0018X0.0002*%
%ADD109R,0.0016X0.0002*%
%ADD110R,0.0012X0.0002*%
%ADD111R,0.0012X0.0002*%
%ADD112R,0.0006X0.0002*%
%ADD113R,0.0052X0.0002*%
%ADD114R,0.0232X0.0002*%
%ADD115R,0.0206X0.0002*%
%ADD116R,0.0152X0.0002*%
%ADD117R,0.0162X0.0002*%
%ADD118R,0.0052X0.0002*%
%ADD119R,0.0232X0.0002*%
%ADD120R,0.0212X0.0002*%
%ADD121R,0.0160X0.0002*%
%ADD122R,0.0170X0.0002*%
%ADD123R,0.0218X0.0002*%
%ADD124R,0.0166X0.0002*%
%ADD125R,0.0176X0.0002*%
%ADD126R,0.0220X0.0002*%
%ADD127R,0.0172X0.0002*%
%ADD128R,0.0180X0.0002*%
%ADD129R,0.0224X0.0002*%
%ADD130R,0.0176X0.0002*%
%ADD131R,0.0184X0.0002*%
%ADD132R,0.0226X0.0002*%
%ADD133R,0.0180X0.0002*%
%ADD134R,0.0188X0.0002*%
%ADD135R,0.0228X0.0002*%
%ADD136R,0.0182X0.0002*%
%ADD137R,0.0192X0.0002*%
%ADD138R,0.0230X0.0002*%
%ADD139R,0.0186X0.0002*%
%ADD140R,0.0194X0.0002*%
%ADD141R,0.0188X0.0002*%
%ADD142R,0.0196X0.0002*%
%ADD143R,0.0192X0.0002*%
%ADD144R,0.0198X0.0002*%
%ADD145R,0.0062X0.0002*%
%ADD146R,0.0234X0.0002*%
%ADD147R,0.0194X0.0002*%
%ADD148R,0.0200X0.0002*%
%ADD149R,0.0234X0.0002*%
%ADD150R,0.0196X0.0002*%
%ADD151R,0.0202X0.0002*%
%ADD152R,0.0236X0.0002*%
%ADD153R,0.0204X0.0002*%
%ADD154R,0.0200X0.0002*%
%ADD155R,0.0206X0.0002*%
%ADD156R,0.0238X0.0002*%
%ADD157R,0.0202X0.0002*%
%ADD158R,0.0208X0.0002*%
%ADD159R,0.0238X0.0002*%
%ADD160R,0.0204X0.0002*%
%ADD161R,0.0208X0.0002*%
%ADD162R,0.0206X0.0002*%
%ADD163R,0.0210X0.0002*%
%ADD164R,0.0240X0.0002*%
%ADD165R,0.0240X0.0002*%
%ADD166R,0.0212X0.0002*%
%ADD167R,0.0214X0.0002*%
%ADD168R,0.0212X0.0002*%
%ADD169R,0.0214X0.0002*%
%ADD170R,0.0214X0.0002*%
%ADD171R,0.0216X0.0002*%
%ADD172R,0.0242X0.0002*%
%ADD173R,0.0216X0.0002*%
%ADD174R,0.0242X0.0002*%
%ADD175R,0.0216X0.0002*%
%ADD176R,0.0218X0.0002*%
%ADD177R,0.0230X0.0002*%
%ADD178R,0.0220X0.0002*%
%ADD179R,0.0086X0.0002*%
%ADD180R,0.0074X0.0002*%
%ADD181R,0.0054X0.0002*%
%ADD182R,0.0058X0.0002*%
%ADD183R,0.0056X0.0002*%
%ADD184R,0.0118X0.0002*%
%ADD185R,0.0124X0.0002*%
%ADD186R,0.0210X0.0002*%
%ADD187R,0.0130X0.0002*%
%ADD188R,0.0204X0.0002*%
%ADD189R,0.0166X0.0002*%
%ADD190R,0.0224X0.0002*%
%ADD191R,0.0136X0.0002*%
%ADD192R,0.0140X0.0002*%
%ADD193R,0.0164X0.0002*%
%ADD194R,0.0144X0.0002*%
%ADD195R,0.0146X0.0002*%
%ADD196R,0.0150X0.0002*%
%ADD197R,0.0162X0.0002*%
%ADD198R,0.0152X0.0002*%
%ADD199R,0.0162X0.0002*%
%ADD200R,0.0154X0.0002*%
%ADD201R,0.0156X0.0002*%
%ADD202R,0.0158X0.0002*%
%ADD203R,0.0158X0.0002*%
%ADD204R,0.0156X0.0002*%
%ADD205R,0.0160X0.0002*%
%ADD206R,0.0156X0.0002*%
%ADD207R,0.0150X0.0002*%
%ADD208R,0.0164X0.0002*%
%ADD209R,0.0148X0.0002*%
%ADD210R,0.0166X0.0002*%
%ADD211R,0.0166X0.0002*%
%ADD212R,0.0168X0.0002*%
%ADD213R,0.0154X0.0002*%
%ADD214R,0.0172X0.0002*%
%ADD215R,0.0208X0.0002*%
%ADD216R,0.0204X0.0002*%
%ADD217R,0.0174X0.0002*%
%ADD218R,0.0208X0.0002*%
%ADD219R,0.0174X0.0002*%
%ADD220R,0.0058X0.0002*%
%ADD221R,0.0064X0.0002*%
%ADD222R,0.0074X0.0002*%
%ADD223R,0.0216X0.0002*%
%ADD224R,0.0242X0.0002*%
%ADD225R,0.0222X0.0002*%
%ADD226R,0.0222X0.0002*%
%ADD227R,0.0242X0.0002*%
%ADD228R,0.0222X0.0002*%
%ADD229R,0.0198X0.0002*%
%ADD230R,0.0190X0.0002*%
%ADD231R,0.0186X0.0002*%
%ADD232R,0.0190X0.0002*%
%ADD233R,0.0178X0.0002*%
%ADD234R,0.0226X0.0002*%
%ADD235R,0.0176X0.0002*%
%ADD236R,0.0184X0.0002*%
%ADD237R,0.0186X0.0002*%
%ADD238R,0.0182X0.0002*%
%ADD239R,0.0172X0.0002*%
%ADD240R,0.0096X0.0002*%
%ADD241R,0.0098X0.0002*%
%ADD242R,0.0098X0.0002*%
%ADD243R,0.0108X0.0002*%
%ADD244R,0.0252X0.0002*%
%ADD245R,0.0276X0.0002*%
%ADD246R,0.0096X0.0002*%
%ADD247R,0.0302X0.0002*%
%ADD248R,0.0326X0.0002*%
%ADD249R,0.0354X0.0002*%
%ADD250R,0.0384X0.0002*%
%ADD251R,0.0408X0.0002*%
%ADD252R,0.0430X0.0002*%
%ADD253R,0.0452X0.0002*%
%ADD254R,0.0478X0.0002*%
%ADD255R,0.0096X0.0002*%
%ADD256R,0.0502X0.0002*%
%ADD257R,0.0528X0.0002*%
%ADD258R,0.0096X0.0002*%
%ADD259R,0.0552X0.0002*%
%ADD260R,0.0098X0.0002*%
%ADD261R,0.0578X0.0002*%
%ADD262R,0.0602X0.0002*%
%ADD263R,0.0724X0.0002*%
%ADD264R,0.0724X0.0002*%
%ADD265R,0.0722X0.0002*%
%ADD266R,0.0728X0.0002*%
%ADD267R,0.0754X0.0002*%
%ADD268R,0.0778X0.0002*%
%ADD269R,0.0802X0.0002*%
%ADD270R,0.0828X0.0002*%
%ADD271R,0.0852X0.0002*%
%ADD272R,0.0906X0.0002*%
%ADD273R,0.0906X0.0002*%
%ADD274R,0.0928X0.0002*%
%ADD275R,0.0952X0.0002*%
%ADD276R,0.0978X0.0002*%
%ADD277R,0.1002X0.0002*%
%ADD278R,0.1042X0.0002*%
%ADD279R,0.1052X0.0002*%
%ADD280R,0.1078X0.0002*%
%ADD281R,0.1092X0.0002*%
%ADD282R,0.1074X0.0002*%
%ADD283R,0.1076X0.0002*%
%ADD284R,0.1076X0.0002*%
%ADD285R,0.1122X0.0002*%
%ADD286R,0.1100X0.0002*%
%ADD287R,0.1076X0.0002*%
%ADD288R,0.1082X0.0002*%
%ADD289R,0.1084X0.0002*%
%ADD290R,0.1086X0.0002*%
%ADD291R,0.1086X0.0002*%
%ADD292R,0.0014X0.0002*%
%ADD293R,0.1088X0.0002*%
%ADD294R,0.1090X0.0002*%
%ADD295R,0.1094X0.0002*%
%ADD296R,0.1094X0.0002*%
%ADD297R,0.1096X0.0002*%
%ADD298R,0.1098X0.0002*%
%ADD299R,0.1100X0.0002*%
%ADD300R,0.1104X0.0002*%
%ADD301R,0.1080X0.0002*%
%ADD302R,0.1056X0.0002*%
%ADD303R,0.1068X0.0002*%
%ADD304R,0.1068X0.0002*%
%ADD305R,0.1116X0.0002*%
%ADD306R,0.0996X0.0002*%
%ADD307R,0.0974X0.0002*%
%ADD308R,0.0094X0.0002*%
%ADD309R,0.0950X0.0002*%
%ADD310R,0.0926X0.0002*%
%ADD311R,0.0916X0.0002*%
%ADD312R,0.0878X0.0002*%
%ADD313R,0.0856X0.0002*%
%ADD314R,0.0832X0.0002*%
%ADD315R,0.0808X0.0002*%
%ADD316R,0.0784X0.0002*%
%ADD317R,0.0760X0.0002*%
%ADD318R,0.0094X0.0002*%
%ADD319R,0.0738X0.0002*%
%ADD320R,0.0094X0.0002*%
%ADD321R,0.0714X0.0002*%
%ADD322R,0.0690X0.0002*%
%ADD323R,0.0668X0.0002*%
%ADD324R,0.0644X0.0002*%
%ADD325R,0.0540X0.0002*%
%ADD326R,0.0540X0.0002*%
%ADD327R,0.0018X0.0002*%
%ADD328R,0.0092X0.0002*%
%ADD329R,0.0472X0.0002*%
%ADD330R,0.0092X0.0002*%
%ADD331R,0.0470X0.0002*%
%ADD332R,0.0470X0.0002*%
%ADD333R,0.0454X0.0002*%
%ADD334R,0.0406X0.0002*%
%ADD335R,0.0382X0.0002*%
%ADD336R,0.0090X0.0002*%
%ADD337R,0.0360X0.0002*%
%ADD338R,0.0336X0.0002*%
%ADD339R,0.0312X0.0002*%
%ADD340R,0.0288X0.0002*%
%ADD341R,0.0090X0.0002*%
%ADD342R,0.0072X0.0002*%
%ADD343R,0.0264X0.0002*%
%ADD344R,0.0106X0.0002*%
%ADD345R,0.0194X0.0002*%
%ADD346R,0.0094X0.0002*%
%ADD347R,0.0146X0.0002*%
%ADD348R,0.0272X0.0002*%
%ADD349R,0.0124X0.0002*%
%ADD350R,0.0308X0.0002*%
%ADD351R,0.0100X0.0002*%
%ADD352R,0.0338X0.0002*%
%ADD353R,0.0374X0.0002*%
%ADD354R,0.0410X0.0002*%
%ADD355R,0.0440X0.0002*%
%ADD356R,0.0518X0.0002*%
%ADD357R,0.0572X0.0002*%
%ADD358R,0.0574X0.0002*%
%ADD359R,0.0576X0.0002*%
%ADD360R,0.0576X0.0002*%
%ADD361R,0.0092X0.0002*%
%ADD362R,0.0578X0.0002*%
%ADD363R,0.0580X0.0002*%
%ADD364R,0.0582X0.0002*%
%ADD365R,0.0582X0.0002*%
%ADD366R,0.0584X0.0002*%
%ADD367R,0.0586X0.0002*%
%ADD368R,0.0092X0.0002*%
%ADD369R,0.0304X0.0002*%
%ADD370R,0.0002X0.0002*%
%ADD371R,0.0304X0.0002*%
%ADD372R,0.0120X0.0002*%
%ADD373R,0.0306X0.0002*%
%ADD374R,0.0306X0.0002*%
%ADD375R,0.0120X0.0002*%
%ADD376R,0.0122X0.0002*%
%ADD377R,0.0308X0.0002*%
%ADD378R,0.0308X0.0002*%
%ADD379R,0.0122X0.0002*%
%ADD380R,0.0310X0.0002*%
%ADD381R,0.0308X0.0002*%
%ADD382R,0.0124X0.0002*%
%ADD383R,0.0126X0.0002*%
%ADD384R,0.0310X0.0002*%
%ADD385R,0.0128X0.0002*%
%ADD386R,0.0312X0.0002*%
%ADD387R,0.0314X0.0002*%
%ADD388R,0.0314X0.0002*%
%ADD389R,0.0316X0.0002*%
%ADD390R,0.0132X0.0002*%
%ADD391R,0.0316X0.0002*%
%ADD392R,0.0132X0.0002*%
%ADD393R,0.0318X0.0002*%
%ADD394R,0.0318X0.0002*%
%ADD395R,0.0134X0.0002*%
%ADD396R,0.0134X0.0002*%
%ADD397R,0.0320X0.0002*%
%ADD398R,0.0138X0.0002*%
%ADD399R,0.0320X0.0002*%
%ADD400R,0.0138X0.0002*%
%ADD401R,0.0322X0.0002*%
%ADD402R,0.0322X0.0002*%
%ADD403R,0.0140X0.0002*%
%ADD404R,0.0324X0.0002*%
%ADD405R,0.0324X0.0002*%
%ADD406R,0.0142X0.0002*%
%ADD407R,0.0326X0.0002*%
%ADD408R,0.0142X0.0002*%
%ADD409R,0.0144X0.0002*%
%ADD410R,0.0146X0.0002*%
%ADD411R,0.0148X0.0002*%
%ADD412R,0.0148X0.0002*%
%ADD413R,0.0088X0.0002*%
%ADD414R,0.0046X0.0002*%
%ADD415R,0.0088X0.0002*%
%ADD416R,0.0048X0.0002*%
%ADD417R,0.0088X0.0002*%
%ADD418R,0.0088X0.0002*%
%ADD419R,0.0154X0.0002*%
%ADD420R,0.0156X0.0002*%
%ADD421R,0.0058X0.0002*%
%ADD422R,0.0158X0.0002*%
%ADD423R,0.0164X0.0002*%
%ADD424R,0.0390X0.0002*%
%ADD425R,0.0392X0.0002*%
%ADD426R,0.0392X0.0002*%
%ADD427R,0.0072X0.0002*%
%ADD428R,0.0418X0.0002*%
%ADD429R,0.0488X0.0002*%
%ADD430R,0.0550X0.0002*%
%ADD431R,0.0684X0.0002*%
%ADD432R,0.0684X0.0002*%
%ADD433R,0.0686X0.0002*%
%ADD434R,0.0688X0.0002*%
%ADD435R,0.0688X0.0002*%
%ADD436R,0.0664X0.0002*%
%ADD437R,0.0530X0.0002*%
%ADD438R,0.0438X0.0002*%
%ADD439R,0.0006X0.0002*%
%ADD440R,0.0344X0.0002*%
%ADD441R,0.0260X0.0002*%
%ADD442R,0.0076X0.0002*%
%ADD443R,0.0102X0.0002*%
%ADD444R,0.0110X0.0002*%
%ADD445R,0.0112X0.0002*%
%ADD446R,0.0112X0.0002*%
%ADD447R,0.0112X0.0002*%
%ADD448R,0.0132X0.0002*%
%ADD449R,0.0174X0.0002*%
%ADD450R,0.0114X0.0002*%
%ADD451R,0.0292X0.0002*%
%ADD452R,0.0114X0.0002*%
%ADD453R,0.0438X0.0002*%
%ADD454R,0.0114X0.0002*%
%ADD455R,0.0584X0.0002*%
%ADD456R,0.0116X0.0002*%
%ADD457R,0.0730X0.0002*%
%ADD458R,0.0972X0.0002*%
%ADD459R,0.0116X0.0002*%
%ADD460R,0.0974X0.0002*%
%ADD461R,0.0116X0.0002*%
%ADD462R,0.1230X0.0002*%
%ADD463R,0.1228X0.0002*%
%ADD464R,0.1226X0.0002*%
%ADD465R,0.1224X0.0002*%
%ADD466R,0.1222X0.0002*%
%ADD467R,0.1220X0.0002*%
%ADD468R,0.1218X0.0002*%
%ADD469R,0.1216X0.0002*%
%ADD470R,0.1214X0.0002*%
%ADD471R,0.1212X0.0002*%
%ADD472R,0.1210X0.0002*%
%ADD473R,0.1206X0.0002*%
%ADD474R,0.1204X0.0002*%
%ADD475R,0.1202X0.0002*%
%ADD476R,0.1200X0.0002*%
%ADD477R,0.1196X0.0002*%
%ADD478R,0.1162X0.0002*%
%ADD479R,0.1156X0.0002*%
%ADD480R,0.1108X0.0002*%
%ADD481R,0.1080X0.0002*%
%ADD482R,0.1072X0.0002*%
%ADD483R,0.1064X0.0002*%
%ADD484R,0.1048X0.0002*%
%ADD485R,0.1042X0.0002*%
%ADD486R,0.1036X0.0002*%
%ADD487R,0.1030X0.0002*%
%ADD488R,0.1026X0.0002*%
%ADD489R,0.1020X0.0002*%
%ADD490R,0.1016X0.0002*%
%ADD491R,0.1012X0.0002*%
%ADD492R,0.0772X0.0002*%
%ADD493R,0.0616X0.0002*%
%ADD494R,0.0460X0.0002*%
%ADD495R,0.0142X0.0002*%
%ADD496R,0.0100X0.0002*%
%ADD497R,0.0102X0.0002*%
%ADD498R,0.0102X0.0002*%
%ADD499R,0.0104X0.0002*%
%ADD500R,0.0104X0.0002*%
%ADD501R,0.0258X0.0002*%
%ADD502R,0.0376X0.0002*%
%ADD503R,0.0494X0.0002*%
%ADD504R,0.0612X0.0002*%
%ADD505R,0.0106X0.0002*%
%ADD506R,0.0144X0.0002*%
%ADD507R,0.0756X0.0002*%
%ADD508R,0.0846X0.0002*%
%ADD509R,0.0864X0.0002*%
%ADD510R,0.0860X0.0002*%
%ADD511R,0.0850X0.0002*%
%ADD512R,0.0842X0.0002*%
%ADD513R,0.0838X0.0002*%
%ADD514R,0.0834X0.0002*%
%ADD515R,0.0826X0.0002*%
%ADD516R,0.0822X0.0002*%
%ADD517R,0.0818X0.0002*%
%ADD518R,0.0814X0.0002*%
%ADD519R,0.0810X0.0002*%
%ADD520R,0.0806X0.0002*%
%ADD521R,0.0800X0.0002*%
%ADD522R,0.0796X0.0002*%
%ADD523R,0.0792X0.0002*%
%ADD524R,0.0788X0.0002*%
%ADD525R,0.0138X0.0002*%
%ADD526R,0.0780X0.0002*%
%ADD527R,0.0428X0.0002*%
%ADD528R,0.0348X0.0002*%
%ADD529R,0.0414X0.0002*%
%ADD530R,0.0332X0.0002*%
%ADD531R,0.0406X0.0002*%
%ADD532R,0.0400X0.0002*%
%ADD533R,0.0394X0.0002*%
%ADD534R,0.0390X0.0002*%
%ADD535R,0.0384X0.0002*%
%ADD536R,0.0306X0.0002*%
%ADD537R,0.0380X0.0002*%
%ADD538R,0.0302X0.0002*%
%ADD539R,0.0376X0.0002*%
%ADD540R,0.0298X0.0002*%
%ADD541R,0.0372X0.0002*%
%ADD542R,0.0294X0.0002*%
%ADD543R,0.0368X0.0002*%
%ADD544R,0.0290X0.0002*%
%ADD545R,0.0366X0.0002*%
%ADD546R,0.0286X0.0002*%
%ADD547R,0.0362X0.0002*%
%ADD548R,0.0284X0.0002*%
%ADD549R,0.0358X0.0002*%
%ADD550R,0.0282X0.0002*%
%ADD551R,0.0356X0.0002*%
%ADD552R,0.0278X0.0002*%
%ADD553R,0.0352X0.0002*%
%ADD554R,0.0276X0.0002*%
%ADD555R,0.0350X0.0002*%
%ADD556R,0.0346X0.0002*%
%ADD557R,0.0270X0.0002*%
%ADD558R,0.0136X0.0002*%
%ADD559R,0.0342X0.0002*%
%ADD560R,0.0266X0.0002*%
%ADD561R,0.0264X0.0002*%
%ADD562R,0.0336X0.0002*%
%ADD563R,0.0262X0.0002*%
%ADD564R,0.0334X0.0002*%
%ADD565R,0.0136X0.0002*%
%ADD566R,0.0332X0.0002*%
%ADD567R,0.0256X0.0002*%
%ADD568R,0.0330X0.0002*%
%ADD569R,0.0256X0.0002*%
%ADD570R,0.0328X0.0002*%
%ADD571R,0.0254X0.0002*%
%ADD572R,0.0324X0.0002*%
%ADD573R,0.0322X0.0002*%
%ADD574R,0.0250X0.0002*%
%ADD575R,0.0248X0.0002*%
%ADD576R,0.0246X0.0002*%
%ADD577R,0.0244X0.0002*%
%ADD578R,0.0316X0.0002*%
%ADD579R,0.0314X0.0002*%
%ADD580R,0.0236X0.0002*%
%ADD581R,0.0302X0.0002*%
%ADD582R,0.0236X0.0002*%
%ADD583R,0.0134X0.0002*%
%ADD584R,0.0234X0.0002*%
%ADD585R,0.0300X0.0002*%
%ADD586R,0.0134X0.0002*%
%ADD587R,0.0298X0.0002*%
%ADD588R,0.0234X0.0002*%
%ADD589R,0.0298X0.0002*%
%ADD590R,0.0232X0.0002*%
%ADD591R,0.0236X0.0002*%
%ADD592R,0.0250X0.0002*%
%ADD593R,0.0574X0.0002*%
%ADD594R,0.0570X0.0002*%
%ADD595R,0.0566X0.0002*%
%ADD596R,0.0562X0.0002*%
%ADD597R,0.0558X0.0002*%
%ADD598R,0.0554X0.0002*%
%ADD599R,0.0132X0.0002*%
%ADD600R,0.0552X0.0002*%
%ADD601R,0.0548X0.0002*%
%ADD602R,0.0544X0.0002*%
%ADD603R,0.0536X0.0002*%
%ADD604R,0.0532X0.0002*%
%ADD605R,0.0528X0.0002*%
%ADD606R,0.0526X0.0002*%
%ADD607R,0.0522X0.0002*%
%ADD608R,0.0514X0.0002*%
%ADD609R,0.0510X0.0002*%
%ADD610R,0.0506X0.0002*%
%ADD611R,0.0504X0.0002*%
%ADD612R,0.0500X0.0002*%
%ADD613R,0.0496X0.0002*%
%ADD614R,0.0492X0.0002*%
%ADD615R,0.0484X0.0002*%
%ADD616R,0.0482X0.0002*%
%ADD617R,0.0474X0.0002*%
%ADD618R,0.0466X0.0002*%
%ADD619R,0.0462X0.0002*%
%ADD620R,0.0456X0.0002*%
%ADD621R,0.0448X0.0002*%
%ADD622R,0.0444X0.0002*%
%ADD623R,0.0438X0.0002*%
%ADD624R,0.0434X0.0002*%
%ADD625R,0.0430X0.0002*%
%ADD626R,0.0426X0.0002*%
%ADD627R,0.0422X0.0002*%
%ADD628R,0.0418X0.0002*%
%ADD629R,0.0414X0.0002*%
%ADD630R,0.0402X0.0002*%
%ADD631R,0.0398X0.0002*%
%ADD632R,0.0394X0.0002*%
%ADD633R,0.0388X0.0002*%
%ADD634R,0.0128X0.0002*%
%ADD635R,0.0366X0.0002*%
%ADD636R,0.0362X0.0002*%
%ADD637R,0.0358X0.0002*%
%ADD638R,0.0354X0.0002*%
%ADD639R,0.0346X0.0002*%
%ADD640R,0.0340X0.0002*%
%ADD641R,0.0336X0.0002*%
%ADD642R,0.0328X0.0002*%
%ADD643R,0.0126X0.0002*%
%ADD644R,0.0126X0.0002*%
%ADD645R,0.0296X0.0002*%
%ADD646R,0.0284X0.0002*%
%ADD647R,0.0280X0.0002*%
%ADD648R,0.0276X0.0002*%
%ADD649R,0.0274X0.0002*%
%ADD650R,0.0266X0.0002*%
%ADD651R,0.0262X0.0002*%
%ADD652R,0.0254X0.0002*%
%ADD653R,0.0244X0.0002*%
%ADD654R,0.0218X0.0002*%
%ADD655R,0.0168X0.0002*%
%ADD656R,0.0122X0.0002*%
%ADD657R,0.0256X0.0002*%
%ADD658R,0.0252X0.0002*%
%ADD659R,0.0238X0.0002*%
%ADD660R,0.0170X0.0002*%
%ADD661R,0.0018X0.0002*%
%ADD662R,0.0010X0.0002*%
%ADD663R,0.0118X0.0002*%
%ADD664R,0.0086X0.0002*%
%ADD665R,0.0068X0.0002*%
%ADD666R,0.0036X0.0002*%
%ADD667R,0.0012X0.0002*%
%ADD668C,0.0060*%
%ADD669R,0.0340X0.0240*%
%ADD670C,0.0050*%
%ADD671C,0.0120*%
%ADD672C,0.0020*%
%ADD673C,0.0100*%
%ADD674C,0.0070*%
%ADD675R,0.0240X0.0340*%
%ADD676R,0.0250X0.0900*%
%ADD677R,0.0800X0.0200*%
%ADD678R,0.0200X0.0750*%
%ADD679C,0.0240*%
%ADD680R,0.0200X0.1400*%
%ADD681R,0.0540X0.0420*%
%ADD682R,0.0150X0.0700*%
%ADD683R,0.0550X0.0200*%
%ADD684C,0.0080*%
%ADD685C,0.0040*%
%ADD686R,0.0200X0.0800*%
%ADD687R,0.0750X0.0200*%
D10*
X000212Y000192D02*
X026761Y000192D01*
X026761Y023337D01*
X000212Y023337D01*
X000212Y000192D01*
X001060Y002141D02*
X001097Y002340D01*
X001204Y002512D01*
X001365Y002634D01*
X001560Y002690D01*
X001762Y002671D01*
X001943Y002581D01*
X002079Y002431D01*
X002153Y002242D01*
X002153Y002040D01*
X002079Y001851D01*
X001943Y001701D01*
X001762Y001611D01*
X001560Y001592D01*
X001365Y001648D01*
X001204Y001770D01*
X001097Y001942D01*
X001060Y002141D01*
X024810Y002141D02*
X024847Y002340D01*
X024954Y002512D01*
X025115Y002634D01*
X025310Y002690D01*
X025512Y002671D01*
X025693Y002581D01*
X025829Y002431D01*
X025903Y002242D01*
X025903Y002040D01*
X025829Y001851D01*
X025693Y001701D01*
X025512Y001611D01*
X025310Y001592D01*
X025115Y001648D01*
X024954Y001770D01*
X024847Y001942D01*
X024810Y002141D01*
X024810Y021391D02*
X024847Y021590D01*
X024954Y021762D01*
X025115Y021884D01*
X025310Y021940D01*
X025512Y021921D01*
X025693Y021831D01*
X025829Y021681D01*
X025903Y021492D01*
X025903Y021290D01*
X025829Y021101D01*
X025693Y020951D01*
X025512Y020861D01*
X025310Y020842D01*
X025115Y020898D01*
X024954Y021020D01*
X024847Y021192D01*
X024810Y021391D01*
X001060Y021391D02*
X001097Y021590D01*
X001204Y021762D01*
X001365Y021884D01*
X001560Y021940D01*
X001762Y021921D01*
X001943Y021831D01*
X002079Y021681D01*
X002153Y021492D01*
X002153Y021290D01*
X002079Y021101D01*
X001943Y020951D01*
X001762Y020861D01*
X001560Y020842D01*
X001365Y020898D01*
X001204Y021020D01*
X001097Y021192D01*
X001060Y021391D01*
D11*
X010997Y022184D02*
X011046Y022136D01*
X011094Y022184D01*
X011142Y022136D01*
X011191Y022184D01*
X011191Y022330D01*
X011292Y022330D02*
X011292Y022184D01*
X011340Y022136D01*
X011389Y022184D01*
X011437Y022136D01*
X011485Y022184D01*
X011485Y022330D01*
X011586Y022330D02*
X011586Y022184D01*
X011635Y022136D01*
X011683Y022184D01*
X011732Y022136D01*
X011780Y022184D01*
X011780Y022330D01*
X011881Y022184D02*
X011929Y022184D01*
X011929Y022136D01*
X011881Y022136D01*
X011881Y022184D01*
X012028Y022281D02*
X012125Y022281D01*
X012077Y022378D02*
X012125Y022426D01*
X012077Y022378D02*
X012077Y022136D01*
X012225Y022136D02*
X012225Y022330D01*
X012225Y022233D02*
X012322Y022330D01*
X012370Y022330D01*
X012470Y022281D02*
X012519Y022330D01*
X012616Y022330D01*
X012664Y022281D01*
X012664Y022233D01*
X012470Y022233D01*
X012470Y022281D02*
X012470Y022184D01*
X012519Y022136D01*
X012616Y022136D01*
X012765Y022184D02*
X012765Y022281D01*
X012813Y022330D01*
X012910Y022330D01*
X012959Y022281D01*
X012959Y022233D01*
X012765Y022233D01*
X012765Y022184D02*
X012813Y022136D01*
X012910Y022136D01*
X013060Y022136D02*
X013205Y022136D01*
X013253Y022184D01*
X013253Y022281D01*
X013205Y022330D01*
X013060Y022330D01*
X013060Y022426D02*
X013060Y022136D01*
X013354Y022184D02*
X013354Y022330D01*
X013354Y022184D02*
X013403Y022136D01*
X013548Y022136D01*
X013548Y022330D01*
X013649Y022281D02*
X013697Y022233D01*
X013794Y022233D01*
X013842Y022184D01*
X013794Y022136D01*
X013649Y022136D01*
X013649Y022281D02*
X013697Y022330D01*
X013842Y022330D01*
X013944Y022184D02*
X013992Y022184D01*
X013992Y022136D01*
X013944Y022136D01*
X013944Y022184D01*
X014091Y022184D02*
X014091Y022281D01*
X014139Y022330D01*
X014236Y022330D01*
X014284Y022281D01*
X014284Y022184D01*
X014236Y022136D01*
X014139Y022136D01*
X014091Y022184D01*
X014386Y022136D02*
X014386Y022330D01*
X014482Y022330D02*
X014531Y022330D01*
X014482Y022330D02*
X014386Y022233D01*
X014631Y022281D02*
X014631Y022184D01*
X014679Y022136D01*
X014825Y022136D01*
X014825Y022088D02*
X014825Y022330D01*
X014679Y022330D01*
X014631Y022281D01*
X014825Y022088D02*
X014776Y022039D01*
X014728Y022039D01*
X010997Y022184D02*
X010997Y022330D01*
X025626Y009323D02*
X025687Y009384D01*
X025934Y009137D01*
X025996Y009199D01*
X025996Y009323D01*
X025934Y009384D01*
X025687Y009384D01*
X025626Y009323D02*
X025626Y009199D01*
X025687Y009137D01*
X025934Y009137D01*
X025934Y009016D02*
X025996Y008954D01*
X025996Y008831D01*
X025934Y008769D01*
X025687Y009016D01*
X025934Y009016D01*
X025687Y009016D02*
X025626Y008954D01*
X025626Y008831D01*
X025687Y008769D01*
X025934Y008769D01*
X025934Y008647D02*
X025996Y008647D01*
X025996Y008585D01*
X025934Y008585D01*
X025934Y008647D01*
X025934Y008464D02*
X025996Y008402D01*
X025996Y008278D01*
X025934Y008217D01*
X025811Y008340D02*
X025811Y008402D01*
X025872Y008464D01*
X025934Y008464D01*
X025811Y008402D02*
X025749Y008464D01*
X025687Y008464D01*
X025626Y008402D01*
X025626Y008278D01*
X025687Y008217D01*
X025934Y007726D02*
X025996Y007726D01*
X025996Y007664D01*
X025934Y007664D01*
X025934Y007726D01*
X025749Y007543D02*
X025996Y007419D01*
X025749Y007296D01*
X025811Y007175D02*
X025872Y007175D01*
X025872Y006928D01*
X025811Y006928D02*
X025749Y006989D01*
X025749Y007113D01*
X025811Y007175D01*
X025996Y007113D02*
X025996Y006989D01*
X025934Y006928D01*
X025811Y006928D01*
X025811Y006806D02*
X025872Y006745D01*
X025872Y006559D01*
X025872Y006683D02*
X025996Y006806D01*
X025811Y006806D02*
X025687Y006806D01*
X025626Y006745D01*
X025626Y006559D01*
X025996Y006559D01*
X025996Y006069D02*
X025996Y006007D01*
X025934Y006007D01*
X025934Y006069D01*
X025996Y006069D01*
X026119Y005946D01*
X025996Y005824D02*
X025872Y005701D01*
X025872Y005762D02*
X025872Y005577D01*
X025872Y005456D02*
X025626Y005456D01*
X025626Y005577D02*
X025626Y005762D01*
X025687Y005824D01*
X025811Y005824D01*
X025872Y005762D01*
X025996Y005577D02*
X025626Y005577D01*
X025872Y005456D02*
X025996Y005332D01*
X025872Y005209D01*
X025626Y005209D01*
X025749Y005087D02*
X025996Y005087D01*
X025811Y005087D02*
X025811Y004841D01*
X025749Y004841D02*
X025626Y004964D01*
X025749Y005087D01*
X025749Y004841D02*
X025996Y004841D01*
X025996Y004350D02*
X025996Y004227D01*
X025996Y004289D02*
X025626Y004289D01*
X025626Y004227D01*
X025749Y004105D02*
X025749Y004043D01*
X025872Y003920D01*
X025749Y003920D02*
X025996Y003920D01*
X025996Y003798D02*
X025934Y003736D01*
X025687Y003736D01*
X025749Y003674D02*
X025749Y003798D01*
X025687Y003553D02*
X025626Y003491D01*
X025626Y003368D01*
X025687Y003306D01*
X025934Y003306D01*
X025996Y003368D01*
X025996Y003491D01*
X025934Y003553D01*
D12*
X021783Y009451D03*
X021733Y009515D03*
D13*
X021786Y009453D03*
X021800Y009463D03*
X021988Y010013D03*
D14*
X021788Y009455D03*
X021338Y009477D03*
X020928Y009475D03*
X020926Y009477D03*
X020726Y009475D03*
X020586Y010567D03*
D15*
X020981Y010367D03*
X021429Y010055D03*
X021239Y009499D03*
X021001Y009475D03*
X020753Y009507D03*
X020721Y009499D03*
X020365Y009545D03*
X021695Y009509D03*
X021711Y009529D03*
X021789Y009457D03*
X021809Y009487D03*
X021923Y009495D03*
X022185Y009519D03*
D16*
X021790Y009459D03*
X021460Y009475D03*
X021242Y009477D03*
X021132Y009519D03*
X021112Y009525D03*
X020594Y009475D03*
X021494Y009879D03*
X021494Y009881D03*
X021494Y009885D03*
X021494Y009887D03*
X021494Y009889D03*
X021494Y009891D03*
X021494Y009895D03*
X021494Y009897D03*
X021494Y009899D03*
X021494Y009901D03*
X021494Y009905D03*
X021494Y009907D03*
X021494Y009909D03*
X021494Y009911D03*
X021494Y009915D03*
X021494Y009917D03*
X021494Y009919D03*
X021494Y009921D03*
X021494Y009925D03*
X021494Y009927D03*
X021494Y009929D03*
X021494Y009931D03*
X021494Y009935D03*
X021494Y009937D03*
X021494Y009939D03*
X021494Y009941D03*
X021494Y009945D03*
X021494Y009947D03*
X021494Y009949D03*
X021494Y009951D03*
X021494Y009955D03*
X021494Y009957D03*
X021494Y009959D03*
X021494Y009961D03*
X021494Y009965D03*
X020982Y010369D03*
X020982Y010371D03*
X020982Y010375D03*
X020982Y010377D03*
X020982Y010379D03*
D17*
X020981Y010381D03*
X020981Y010385D03*
X020981Y010387D03*
X020981Y010389D03*
X020981Y010391D03*
X021493Y009967D03*
X021791Y009461D03*
X020593Y009527D03*
X021223Y011265D03*
D18*
X021113Y009529D03*
X021181Y009517D03*
X021033Y009509D03*
X021031Y009491D03*
X020971Y009489D03*
X020973Y009515D03*
X020811Y009487D03*
X020761Y009487D03*
X020761Y009517D03*
X020711Y009517D03*
X020521Y009517D03*
X020523Y009487D03*
X020521Y009485D03*
X020473Y009517D03*
X020353Y009539D03*
X021431Y009489D03*
X021491Y009491D03*
X021493Y009495D03*
X021493Y009507D03*
X021491Y009511D03*
X021591Y009517D03*
X021593Y009515D03*
X021683Y009487D03*
X021781Y009519D03*
X021783Y009515D03*
X021803Y009465D03*
X022033Y009487D03*
X022033Y009517D03*
X022081Y009517D03*
X022183Y009511D03*
X022233Y009517D03*
D19*
X022235Y009515D03*
X022129Y009511D03*
X021979Y009485D03*
X021875Y009487D03*
X021809Y009475D03*
X021805Y009467D03*
X021777Y009525D03*
X021537Y009511D03*
X021489Y009489D03*
X021429Y009491D03*
X021427Y009495D03*
X021329Y009485D03*
X021327Y009517D03*
X021277Y009487D03*
X021227Y009495D03*
X021225Y009487D03*
X021029Y009489D03*
X021029Y009515D03*
X020969Y009511D03*
X020967Y009497D03*
X020969Y009491D03*
X020917Y009485D03*
X020865Y009489D03*
X020865Y009491D03*
X020809Y009491D03*
X020709Y009485D03*
X020619Y009487D03*
X020617Y009485D03*
X020569Y009517D03*
X020567Y009515D03*
X020407Y009511D03*
X020407Y009509D03*
X021225Y011275D03*
D20*
X021316Y011191D03*
X021278Y009517D03*
X021278Y009515D03*
X021278Y009491D03*
X021278Y009489D03*
X021328Y009487D03*
X021426Y009497D03*
X021426Y009499D03*
X021426Y009501D03*
X021426Y009505D03*
X021426Y009507D03*
X021428Y009509D03*
X021428Y009511D03*
X021536Y009509D03*
X021536Y009507D03*
X021536Y009505D03*
X021536Y009501D03*
X021536Y009499D03*
X021536Y009497D03*
X021536Y009495D03*
X021536Y009491D03*
X021536Y009489D03*
X021536Y009487D03*
X021536Y009485D03*
X021536Y009481D03*
X021536Y009479D03*
X021536Y009477D03*
X021536Y009475D03*
X021686Y009519D03*
X021736Y009517D03*
X021738Y009485D03*
X021786Y009509D03*
X021786Y009511D03*
X021788Y009507D03*
X021776Y009527D03*
X021776Y009529D03*
X021828Y009505D03*
X021826Y009501D03*
X021836Y009519D03*
X021838Y009521D03*
X021878Y009519D03*
X021928Y009517D03*
X021978Y009517D03*
X021978Y009515D03*
X021978Y009511D03*
X021978Y009509D03*
X021978Y009507D03*
X021978Y009505D03*
X021978Y009501D03*
X021978Y009499D03*
X021978Y009497D03*
X021978Y009495D03*
X021978Y009491D03*
X021978Y009489D03*
X021978Y009487D03*
X021978Y009531D03*
X021978Y009535D03*
X021978Y009537D03*
X021978Y009539D03*
X021978Y009541D03*
X022028Y009509D03*
X022028Y009507D03*
X022028Y009497D03*
X022028Y009495D03*
X022086Y009507D03*
X022086Y009509D03*
X022128Y009509D03*
X022128Y009507D03*
X022128Y009505D03*
X022128Y009501D03*
X022128Y009499D03*
X022128Y009497D03*
X022128Y009495D03*
X022128Y009491D03*
X022128Y009489D03*
X022128Y009487D03*
X022128Y009485D03*
X022128Y009481D03*
X022128Y009479D03*
X022128Y009477D03*
X022128Y009475D03*
X022236Y009477D03*
X022236Y009475D03*
X022236Y009479D03*
X022236Y009481D03*
X022236Y009485D03*
X022236Y009487D03*
X022236Y009489D03*
X022236Y009491D03*
X022236Y009495D03*
X022236Y009497D03*
X022236Y009499D03*
X022236Y009501D03*
X022236Y009505D03*
X022236Y009507D03*
X022236Y009509D03*
X022236Y009511D03*
X021808Y009471D03*
X021806Y009469D03*
X021228Y009517D03*
X021076Y009511D03*
X021076Y009509D03*
X021076Y009507D03*
X021076Y009505D03*
X020968Y009507D03*
X020968Y009509D03*
X020966Y009505D03*
X020966Y009501D03*
X020966Y009499D03*
X020968Y009495D03*
X020916Y009495D03*
X020916Y009497D03*
X020916Y009499D03*
X020916Y009501D03*
X020916Y009505D03*
X020916Y009507D03*
X020916Y009509D03*
X020916Y009511D03*
X020916Y009515D03*
X020916Y009517D03*
X020916Y009531D03*
X020916Y009535D03*
X020916Y009537D03*
X020916Y009539D03*
X020916Y009541D03*
X020916Y009491D03*
X020916Y009489D03*
X020916Y009487D03*
X020866Y009495D03*
X020866Y009497D03*
X020866Y009499D03*
X020866Y009501D03*
X020866Y009505D03*
X020866Y009507D03*
X020866Y009509D03*
X020866Y009511D03*
X020866Y009515D03*
X020866Y009517D03*
X020866Y009519D03*
X020866Y009521D03*
X020866Y009525D03*
X020866Y009527D03*
X020866Y009529D03*
X020808Y009527D03*
X020808Y009525D03*
X020808Y009521D03*
X020808Y009519D03*
X020808Y009517D03*
X020808Y009515D03*
X020808Y009511D03*
X020808Y009509D03*
X020808Y009507D03*
X020808Y009505D03*
X020808Y009501D03*
X020808Y009499D03*
X020808Y009497D03*
X020808Y009495D03*
X020766Y009475D03*
X020708Y009487D03*
X020708Y009489D03*
X020708Y009491D03*
X020618Y009515D03*
X020616Y009517D03*
X020568Y009487D03*
X020566Y009489D03*
X020526Y009507D03*
X020526Y009509D03*
X020468Y009511D03*
X020468Y009509D03*
X020468Y009507D03*
X020468Y009497D03*
X020468Y009495D03*
X020438Y009529D03*
X020406Y009507D03*
X020406Y009505D03*
X020406Y009501D03*
X020406Y009499D03*
X020406Y009497D03*
X020406Y009495D03*
X020406Y009491D03*
X020406Y009489D03*
X020406Y009487D03*
X020406Y009485D03*
X020406Y009481D03*
X020406Y009479D03*
X020406Y009477D03*
X020406Y009475D03*
D21*
X020406Y009483D03*
X020406Y009493D03*
X020406Y009503D03*
X020468Y009493D03*
X020498Y009473D03*
X020566Y009513D03*
X020708Y009493D03*
X020808Y009493D03*
X020808Y009503D03*
X020808Y009513D03*
X020808Y009523D03*
X020866Y009523D03*
X020866Y009513D03*
X020866Y009503D03*
X020866Y009493D03*
X020916Y009493D03*
X020916Y009503D03*
X020916Y009513D03*
X020916Y009533D03*
X020966Y009503D03*
X020968Y009493D03*
X021426Y009503D03*
X021428Y009493D03*
X021536Y009493D03*
X021536Y009483D03*
X021536Y009503D03*
X021778Y009523D03*
X021838Y009523D03*
X021876Y009513D03*
X021978Y009513D03*
X021978Y009503D03*
X021978Y009493D03*
X021978Y009533D03*
X022028Y009493D03*
X022058Y009473D03*
X022128Y009483D03*
X022128Y009493D03*
X022128Y009503D03*
X022236Y009503D03*
X022236Y009493D03*
X022236Y009483D03*
X022236Y009513D03*
X020586Y010563D03*
D22*
X020620Y009513D03*
X020594Y009473D03*
X020564Y009493D03*
X020524Y009513D03*
X020470Y009513D03*
X020352Y009513D03*
X020352Y009503D03*
X020352Y009493D03*
X020352Y009483D03*
X020352Y009533D03*
X020762Y009513D03*
X020762Y009493D03*
X021000Y009473D03*
X021032Y009493D03*
X021034Y009503D03*
X021182Y009513D03*
X021224Y009493D03*
X021384Y009493D03*
X021384Y009483D03*
X021384Y009503D03*
X021384Y009513D03*
X021384Y009523D03*
X021384Y009543D03*
X021430Y009513D03*
X021460Y009473D03*
X021492Y009493D03*
X021494Y009503D03*
X021490Y009513D03*
X021594Y009503D03*
X021594Y009493D03*
X021594Y009483D03*
X021684Y009513D03*
X021784Y009513D03*
X021790Y009503D03*
X022030Y009513D03*
X022182Y009503D03*
X022182Y009493D03*
X022182Y009483D03*
D23*
X021990Y009473D03*
X021340Y009473D03*
X021242Y009473D03*
X020928Y009473D03*
X020826Y009473D03*
X020724Y009473D03*
X021316Y011193D03*
D24*
X021712Y009473D03*
D25*
X021809Y009473D03*
X021537Y009513D03*
X022129Y009513D03*
X021077Y009513D03*
D26*
X021130Y009513D03*
X021738Y009493D03*
X021904Y009473D03*
X021930Y009493D03*
X021990Y010103D03*
X020408Y009513D03*
D27*
X020352Y009515D03*
X020352Y009517D03*
X020352Y009511D03*
X020352Y009509D03*
X020352Y009507D03*
X020352Y009505D03*
X020352Y009501D03*
X020352Y009499D03*
X020352Y009497D03*
X020352Y009495D03*
X020352Y009491D03*
X020352Y009489D03*
X020352Y009487D03*
X020352Y009485D03*
X020352Y009481D03*
X020352Y009479D03*
X020352Y009477D03*
X020352Y009475D03*
X020352Y009531D03*
X020352Y009535D03*
X020352Y009537D03*
X020472Y009515D03*
X020470Y009491D03*
X020470Y009489D03*
X020472Y009487D03*
X020524Y009489D03*
X020564Y009491D03*
X020564Y009495D03*
X020564Y009497D03*
X020564Y009507D03*
X020564Y009509D03*
X020564Y009511D03*
X020622Y009507D03*
X020620Y009489D03*
X020710Y009495D03*
X020710Y009515D03*
X020762Y009515D03*
X020762Y009511D03*
X020762Y009499D03*
X020762Y009497D03*
X020762Y009495D03*
X020762Y009491D03*
X020762Y009489D03*
X020810Y009489D03*
X021032Y009511D03*
X021034Y009507D03*
X021034Y009505D03*
X021034Y009501D03*
X021034Y009499D03*
X021034Y009497D03*
X021034Y009495D03*
X021130Y009505D03*
X021130Y009507D03*
X021130Y009509D03*
X021130Y009511D03*
X021182Y009511D03*
X021182Y009509D03*
X021182Y009515D03*
X021224Y009491D03*
X021224Y009489D03*
X021282Y009477D03*
X021384Y009479D03*
X021384Y009477D03*
X021384Y009475D03*
X021384Y009481D03*
X021384Y009485D03*
X021384Y009487D03*
X021384Y009489D03*
X021384Y009491D03*
X021384Y009495D03*
X021384Y009497D03*
X021384Y009499D03*
X021384Y009501D03*
X021384Y009505D03*
X021384Y009507D03*
X021384Y009509D03*
X021384Y009511D03*
X021384Y009515D03*
X021384Y009517D03*
X021384Y009519D03*
X021384Y009521D03*
X021384Y009525D03*
X021384Y009527D03*
X021384Y009539D03*
X021384Y009541D03*
X021384Y009545D03*
X021384Y009547D03*
X021384Y009549D03*
X021492Y009509D03*
X021494Y009505D03*
X021494Y009501D03*
X021494Y009499D03*
X021494Y009497D03*
X021594Y009499D03*
X021594Y009497D03*
X021594Y009495D03*
X021594Y009491D03*
X021594Y009489D03*
X021594Y009487D03*
X021594Y009485D03*
X021594Y009481D03*
X021594Y009479D03*
X021594Y009477D03*
X021594Y009475D03*
X021594Y009501D03*
X021594Y009505D03*
X021594Y009507D03*
X021594Y009509D03*
X021594Y009511D03*
X021682Y009489D03*
X021740Y009491D03*
X021740Y009489D03*
X021740Y009487D03*
X021782Y009517D03*
X021780Y009521D03*
X021792Y009499D03*
X021824Y009497D03*
X021830Y009509D03*
X021832Y009511D03*
X021834Y009515D03*
X021840Y009525D03*
X021840Y009527D03*
X021842Y009529D03*
X021874Y009489D03*
X021930Y009485D03*
X021932Y009487D03*
X021932Y009489D03*
X021932Y009491D03*
X022030Y009491D03*
X022030Y009489D03*
X022032Y009515D03*
X022084Y009489D03*
X022084Y009487D03*
X022182Y009489D03*
X022182Y009487D03*
X022182Y009485D03*
X022182Y009481D03*
X022182Y009479D03*
X022182Y009477D03*
X022182Y009475D03*
X022182Y009491D03*
X022182Y009495D03*
X022182Y009497D03*
X022182Y009499D03*
X022182Y009501D03*
X022182Y009505D03*
X022182Y009507D03*
X022182Y009509D03*
X021224Y011277D03*
D28*
X020586Y010571D03*
X020498Y009475D03*
X020726Y009477D03*
X021808Y009489D03*
X022058Y009475D03*
D29*
X022057Y009529D03*
X022185Y009517D03*
X021809Y009481D03*
X021437Y009485D03*
X021339Y009475D03*
X020827Y009475D03*
X020497Y009529D03*
D30*
X020867Y009479D03*
X020867Y009477D03*
X020867Y009475D03*
X021227Y009515D03*
X021327Y009515D03*
X021327Y009511D03*
X021327Y009509D03*
X021327Y009507D03*
X021327Y009505D03*
X021327Y009501D03*
X021327Y009499D03*
X021327Y009497D03*
X021327Y009495D03*
X021327Y009491D03*
X021327Y009489D03*
X021327Y009531D03*
X021327Y009535D03*
X021327Y009537D03*
X021327Y009539D03*
X021327Y009541D03*
X021797Y009491D03*
X022127Y009525D03*
X022127Y009527D03*
X022127Y009529D03*
D31*
X022085Y009511D03*
X022083Y009515D03*
X022029Y009511D03*
X021875Y009515D03*
X021875Y009517D03*
X021835Y009517D03*
X021829Y009507D03*
X021825Y009499D03*
X021823Y009495D03*
X021821Y009491D03*
X021795Y009495D03*
X021793Y009497D03*
X021791Y009501D03*
X021789Y009505D03*
X021685Y009517D03*
X021683Y009515D03*
X021535Y009525D03*
X021535Y009527D03*
X021535Y009529D03*
X021383Y009529D03*
X021383Y009551D03*
X021279Y009511D03*
X021279Y009499D03*
X021279Y009497D03*
X021279Y009495D03*
X021283Y009475D03*
X021183Y009477D03*
X021183Y009475D03*
X021183Y009479D03*
X021183Y009481D03*
X021183Y009485D03*
X021183Y009487D03*
X021183Y009489D03*
X021183Y009491D03*
X021183Y009495D03*
X021183Y009497D03*
X021183Y009499D03*
X021183Y009501D03*
X021183Y009505D03*
X021183Y009507D03*
X021129Y009501D03*
X021129Y009499D03*
X021129Y009497D03*
X021129Y009495D03*
X021129Y009491D03*
X021129Y009489D03*
X021129Y009487D03*
X021129Y009485D03*
X021129Y009481D03*
X021129Y009479D03*
X021129Y009477D03*
X021129Y009475D03*
X021075Y009475D03*
X021075Y009477D03*
X021075Y009479D03*
X021075Y009481D03*
X021075Y009485D03*
X021075Y009487D03*
X021075Y009489D03*
X021075Y009491D03*
X021075Y009495D03*
X021075Y009497D03*
X021075Y009499D03*
X021075Y009501D03*
X021075Y009525D03*
X021075Y009527D03*
X020809Y009529D03*
X020765Y009477D03*
X020621Y009509D03*
X020621Y009511D03*
X020525Y009511D03*
X020523Y009515D03*
X020405Y009525D03*
X020405Y009527D03*
X020405Y009529D03*
X021223Y011279D03*
D32*
X021000Y009529D03*
X021082Y009519D03*
X021242Y009475D03*
X021460Y009529D03*
X022134Y009519D03*
D33*
X021712Y009475D03*
D34*
X021576Y009525D03*
X021460Y009527D03*
X021904Y009475D03*
X021000Y009527D03*
X020980Y010395D03*
X020980Y010397D03*
X020980Y010399D03*
X020980Y010401D03*
X020980Y010405D03*
X021540Y010575D03*
X021540Y010577D03*
X021540Y010579D03*
X021540Y010581D03*
X021540Y010585D03*
X021540Y010587D03*
X021540Y010589D03*
X021540Y010591D03*
X021540Y010595D03*
X021540Y010597D03*
X021540Y010599D03*
X021540Y010601D03*
X021540Y010605D03*
X021540Y010607D03*
D35*
X021131Y009517D03*
X020861Y009485D03*
X020411Y009517D03*
X021991Y009475D03*
D36*
X022058Y009477D03*
X021916Y009497D03*
X021938Y009655D03*
X021938Y009657D03*
X021938Y009659D03*
X021938Y009661D03*
X021938Y009665D03*
X021938Y009667D03*
X021938Y009669D03*
X021938Y009671D03*
X021938Y009675D03*
X021938Y009677D03*
X021938Y009679D03*
X021938Y009681D03*
X021938Y009685D03*
X021938Y009687D03*
X021938Y009689D03*
X021938Y009691D03*
X021938Y009695D03*
X021938Y009697D03*
X021938Y009699D03*
X021938Y009701D03*
X021938Y009705D03*
X021938Y009707D03*
X021938Y009709D03*
X021938Y009711D03*
X021938Y009715D03*
X021938Y009717D03*
X021938Y009719D03*
X021938Y009721D03*
X021938Y009725D03*
X021938Y009727D03*
X021938Y009729D03*
X021938Y009731D03*
X021938Y009735D03*
X021938Y009737D03*
X021938Y009739D03*
X021938Y009741D03*
X021938Y009745D03*
X021938Y009747D03*
X021938Y009749D03*
X021938Y009751D03*
X021938Y009755D03*
X021938Y009757D03*
X021938Y009759D03*
X021938Y009761D03*
X021938Y009765D03*
X021938Y009767D03*
X021938Y009769D03*
X021938Y009771D03*
X021938Y009775D03*
X021938Y009777D03*
X021938Y009779D03*
X021938Y009781D03*
X021938Y009785D03*
X021938Y009787D03*
X021938Y009789D03*
X021938Y009791D03*
X021938Y009795D03*
X021938Y009797D03*
X021938Y009799D03*
X021938Y009801D03*
X021938Y009805D03*
X021938Y009807D03*
X021938Y009809D03*
X021938Y009811D03*
X021938Y009815D03*
X021938Y009817D03*
X021938Y009819D03*
X022044Y009751D03*
X022214Y009671D03*
X022214Y009669D03*
X021760Y009691D03*
X021760Y009695D03*
X021760Y009697D03*
X021760Y009699D03*
X021758Y009709D03*
X021758Y009711D03*
X021758Y009715D03*
X021758Y009717D03*
X021758Y009719D03*
X021758Y009721D03*
X021758Y009725D03*
X021758Y009727D03*
X021758Y009729D03*
X021758Y009731D03*
X021758Y009735D03*
X021758Y009737D03*
X021758Y009739D03*
X021758Y009741D03*
X021758Y009745D03*
X021758Y009747D03*
X021758Y009749D03*
X021758Y009751D03*
X021758Y009755D03*
X021758Y009757D03*
X021758Y009759D03*
X021758Y009761D03*
X021758Y009765D03*
X021758Y009767D03*
X021758Y009769D03*
X021758Y009771D03*
X021758Y009775D03*
X021758Y009777D03*
X021758Y009779D03*
X021758Y009781D03*
X021758Y009785D03*
X021758Y009787D03*
X021758Y009789D03*
X021758Y009791D03*
X021758Y009795D03*
X021758Y009797D03*
X021758Y009799D03*
X021758Y009801D03*
X021758Y009805D03*
X021758Y009807D03*
X021758Y009809D03*
X021758Y009811D03*
X021758Y009815D03*
X021758Y009817D03*
X021758Y009819D03*
X021650Y009747D03*
X021650Y009745D03*
X021650Y009671D03*
X021650Y009669D03*
X021254Y009527D03*
X021184Y009739D03*
X020906Y009741D03*
X020798Y009755D03*
X020798Y009757D03*
X020796Y009751D03*
X020608Y009751D03*
X020608Y009749D03*
X020608Y009747D03*
X020608Y009745D03*
X020608Y009741D03*
X020608Y009739D03*
X020608Y009737D03*
X020608Y009735D03*
X020608Y009731D03*
X020608Y009729D03*
X020608Y009727D03*
X020608Y009725D03*
X020608Y009721D03*
X020608Y009719D03*
X020608Y009717D03*
X020608Y009715D03*
X020608Y009711D03*
X020608Y009709D03*
X020608Y009707D03*
X020608Y009705D03*
X020608Y009701D03*
X020608Y009699D03*
X020608Y009697D03*
X020608Y009695D03*
X020608Y009691D03*
X020608Y009689D03*
X020608Y009687D03*
X020608Y009685D03*
X020608Y009681D03*
X020608Y009679D03*
X020608Y009677D03*
X020608Y009675D03*
X020608Y009671D03*
X020608Y009669D03*
X020608Y009667D03*
X020608Y009665D03*
X020608Y009661D03*
X020608Y009659D03*
X020608Y009657D03*
X020608Y009655D03*
X020608Y009651D03*
X020608Y009649D03*
X020608Y009647D03*
X020608Y009645D03*
X020608Y009641D03*
X020608Y009639D03*
X020608Y009637D03*
X020608Y009635D03*
X020608Y009631D03*
X020608Y009629D03*
X020608Y009627D03*
X020608Y009625D03*
X020608Y009621D03*
X020608Y009619D03*
X020608Y009617D03*
X020608Y009615D03*
X020608Y009611D03*
X020608Y009609D03*
X020608Y009607D03*
X020608Y009605D03*
X020608Y009601D03*
X020608Y009599D03*
X020608Y009597D03*
X020608Y009595D03*
X020594Y009477D03*
X020498Y009477D03*
X020420Y009519D03*
X020346Y009741D03*
X020608Y009755D03*
X020608Y009757D03*
X020608Y009759D03*
X020608Y009761D03*
X020918Y009527D03*
X020918Y009525D03*
X020918Y009521D03*
X020918Y009519D03*
X021000Y009477D03*
X021978Y010101D03*
X020978Y010419D03*
X020978Y010421D03*
X020978Y010425D03*
X020978Y010427D03*
X020978Y010429D03*
D37*
X020737Y009529D03*
X020827Y009477D03*
X021887Y009509D03*
D38*
X022057Y009525D03*
X022045Y009755D03*
X021649Y009741D03*
X021649Y009675D03*
X021459Y009477D03*
X021185Y009741D03*
X021187Y009747D03*
X020907Y009745D03*
X020905Y009739D03*
X020795Y009747D03*
X020795Y009749D03*
X020737Y009527D03*
X020497Y009525D03*
X020355Y009527D03*
X020355Y009525D03*
X020355Y009521D03*
X020355Y009519D03*
X020355Y009529D03*
X020345Y009739D03*
X020347Y009745D03*
X020979Y010431D03*
D39*
X020976Y010459D03*
X020976Y010461D03*
X020976Y010465D03*
X020976Y010467D03*
X020976Y010469D03*
X020976Y010471D03*
X020586Y010577D03*
X020744Y009661D03*
X020756Y009645D03*
X020764Y009635D03*
X020770Y009627D03*
X020772Y009625D03*
X020776Y009619D03*
X020778Y009617D03*
X020780Y009615D03*
X020782Y009611D03*
X020784Y009609D03*
X020786Y009607D03*
X020790Y009601D03*
X020792Y009599D03*
X020794Y009597D03*
X020794Y009595D03*
X020594Y009479D03*
X020498Y009479D03*
X021192Y009755D03*
X021254Y009525D03*
X021646Y009679D03*
X021768Y009669D03*
X021720Y009499D03*
X021712Y009477D03*
X021912Y009499D03*
X022058Y009479D03*
X022208Y009657D03*
X022048Y009759D03*
D40*
X022037Y009519D03*
X022131Y009517D03*
X022183Y009515D03*
X022231Y009519D03*
X021809Y009477D03*
X021485Y009517D03*
X021435Y009517D03*
X021433Y009487D03*
X021275Y009485D03*
X021275Y009519D03*
X021231Y009519D03*
X021231Y009497D03*
X021179Y009519D03*
X021131Y009515D03*
X021079Y009517D03*
X021025Y009517D03*
X020975Y009517D03*
X020863Y009487D03*
X020759Y009485D03*
X020757Y009519D03*
X020613Y009519D03*
X020573Y009519D03*
X020517Y009519D03*
X020477Y009519D03*
X020435Y009525D03*
X020409Y009515D03*
X020369Y009551D03*
X020357Y009541D03*
D41*
X020349Y009749D03*
X020351Y009751D03*
X020295Y009875D03*
X020791Y009741D03*
X020909Y009749D03*
X020911Y009751D03*
X021001Y009525D03*
X021189Y009751D03*
X021459Y009525D03*
X021649Y009761D03*
X021765Y009675D03*
X021903Y009477D03*
X022209Y009659D03*
X021223Y011257D03*
D42*
X021223Y011269D03*
X021223Y011271D03*
X020983Y010351D03*
X020983Y010349D03*
X020983Y010347D03*
X020983Y010345D03*
X021113Y009527D03*
X020925Y009479D03*
X020369Y009549D03*
X021543Y009519D03*
X021989Y009477D03*
X022165Y009527D03*
X022219Y009527D03*
D43*
X021966Y010099D03*
X020738Y009479D03*
X020736Y009481D03*
D44*
X020827Y009479D03*
X020919Y009529D03*
X020799Y009759D03*
X020799Y009761D03*
X021181Y009675D03*
X021181Y009671D03*
X021181Y009669D03*
X021181Y009667D03*
X021181Y009665D03*
X021181Y009661D03*
X021181Y009659D03*
X021181Y009657D03*
X021181Y009655D03*
X021329Y009529D03*
X021329Y009527D03*
X021329Y009525D03*
X021329Y009521D03*
X021329Y009519D03*
X021461Y009655D03*
X021461Y009759D03*
X021759Y009707D03*
X021759Y009705D03*
X021759Y009701D03*
X021725Y009497D03*
X021981Y009519D03*
X021981Y009521D03*
X021981Y009525D03*
X021981Y009527D03*
X021981Y009529D03*
X022041Y009739D03*
X022041Y009741D03*
X022041Y009745D03*
X022043Y009749D03*
X022215Y009677D03*
X022215Y009675D03*
X020979Y010407D03*
X020979Y010409D03*
X020979Y010411D03*
X020979Y010415D03*
X020979Y010417D03*
X021223Y011261D03*
D45*
X021223Y011255D03*
X020975Y010481D03*
X020975Y010479D03*
X020975Y010477D03*
X020975Y010475D03*
X020915Y009757D03*
X020913Y009755D03*
X020789Y009739D03*
X020731Y009677D03*
X020733Y009675D03*
X020739Y009667D03*
X020741Y009665D03*
X020745Y009659D03*
X020749Y009655D03*
X020751Y009651D03*
X020753Y009649D03*
X020755Y009647D03*
X020759Y009641D03*
X020761Y009639D03*
X020763Y009637D03*
X020769Y009629D03*
X020775Y009621D03*
X021001Y009479D03*
X021459Y009479D03*
X021711Y009525D03*
X021715Y009501D03*
X021771Y009665D03*
X021769Y009667D03*
X021903Y009525D03*
X021899Y009505D03*
X022051Y009761D03*
X022205Y009655D03*
X020353Y009755D03*
D46*
X021000Y009519D03*
X021254Y009479D03*
X021460Y009519D03*
X021262Y010509D03*
X021222Y011247D03*
D47*
X021337Y009479D03*
X021987Y009481D03*
D48*
X021903Y009479D03*
X021711Y009479D03*
X020593Y009481D03*
X020593Y009521D03*
X020973Y010499D03*
D49*
X020978Y009485D03*
X021024Y009485D03*
X020714Y009497D03*
X021540Y009517D03*
X021588Y009519D03*
X021688Y009511D03*
X021808Y009479D03*
X021880Y009511D03*
D50*
X021902Y009529D03*
X021988Y009479D03*
X021808Y009485D03*
X021732Y009495D03*
X021576Y009527D03*
X021336Y009481D03*
X021270Y009507D03*
X021254Y009529D03*
X021166Y009527D03*
X020924Y009481D03*
X020366Y009547D03*
X021024Y010081D03*
X020982Y010355D03*
X020982Y010357D03*
X020982Y010359D03*
X020982Y010361D03*
X020982Y010365D03*
X020586Y010569D03*
X021224Y011267D03*
D51*
X021679Y010577D03*
X021255Y010491D03*
X021255Y010489D03*
X021255Y010487D03*
X021255Y010485D03*
X021255Y010481D03*
X021255Y010479D03*
X021255Y010477D03*
X021255Y010475D03*
X021255Y010471D03*
X021255Y010469D03*
X021255Y010467D03*
X021255Y010465D03*
X021255Y010461D03*
X021255Y010459D03*
X021255Y010457D03*
X021255Y010455D03*
X021255Y010451D03*
X021255Y010449D03*
X021255Y010447D03*
X021255Y010445D03*
X021255Y010441D03*
X021255Y010439D03*
X020587Y010579D03*
X020357Y009759D03*
X020497Y009521D03*
X020497Y009481D03*
X020917Y009759D03*
X022057Y009521D03*
X022059Y009481D03*
D52*
X021781Y009657D03*
X021253Y009481D03*
X020839Y009481D03*
X021221Y011245D03*
D53*
X021678Y010579D03*
X021256Y010437D03*
X021256Y010435D03*
X021256Y010431D03*
X021256Y010429D03*
X021256Y010427D03*
X021256Y010425D03*
X020974Y010501D03*
X020974Y010505D03*
X020974Y010507D03*
X020974Y010509D03*
X020974Y010511D03*
X021196Y009759D03*
X021000Y009481D03*
X021460Y009481D03*
D54*
X021712Y009481D03*
X021902Y009521D03*
X020972Y010525D03*
X020972Y010527D03*
X020972Y010529D03*
X020972Y010531D03*
X020972Y010535D03*
X020972Y010537D03*
X021672Y010585D03*
X021222Y011249D03*
D55*
X021669Y010589D03*
X021671Y010587D03*
X021677Y010581D03*
X021255Y010421D03*
X021255Y010419D03*
X021255Y010417D03*
X021255Y010415D03*
X021255Y010411D03*
X021255Y010409D03*
X021255Y010407D03*
X021255Y010405D03*
X021255Y010401D03*
X021255Y010399D03*
X021255Y010397D03*
X021255Y010395D03*
X021255Y010391D03*
X021255Y010389D03*
X021255Y010387D03*
X021255Y010385D03*
X021255Y010381D03*
X021255Y010379D03*
X021255Y010377D03*
X021255Y010375D03*
X021255Y010371D03*
X021255Y010369D03*
X021255Y010367D03*
X021255Y010365D03*
X020973Y010515D03*
X020973Y010517D03*
X020973Y010519D03*
X020973Y010521D03*
X020587Y010581D03*
X021775Y009661D03*
X021711Y009521D03*
X021903Y009481D03*
X021255Y009501D03*
X021253Y009521D03*
X020739Y009501D03*
X020737Y009521D03*
D56*
X020593Y009483D03*
X020497Y009483D03*
X020973Y010513D03*
X020973Y010523D03*
X021255Y010423D03*
X021255Y010413D03*
X021255Y010403D03*
X021255Y010393D03*
X021255Y010383D03*
X021255Y010373D03*
X021255Y010363D03*
X021675Y010583D03*
X022059Y009483D03*
D57*
X020712Y009483D03*
D58*
X020755Y009483D03*
X021273Y009483D03*
X021809Y009483D03*
X020983Y010343D03*
X021773Y010603D03*
D59*
X020839Y009483D03*
D60*
X020924Y009483D03*
X021336Y009483D03*
X021986Y009483D03*
X020982Y010353D03*
X020982Y010363D03*
D61*
X021101Y009523D03*
X021001Y009483D03*
D62*
X021075Y009483D03*
X021075Y009493D03*
X021075Y009503D03*
X021129Y009503D03*
X021129Y009493D03*
X021129Y009483D03*
X021183Y009483D03*
X021183Y009493D03*
X021183Y009503D03*
X021279Y009493D03*
X021279Y009513D03*
X021535Y009523D03*
X021795Y009493D03*
X021821Y009493D03*
X021833Y009513D03*
X022085Y009513D03*
D63*
X021229Y009483D03*
X020283Y009873D03*
D64*
X021255Y010343D03*
X021255Y010353D03*
X020719Y010623D03*
X021459Y009483D03*
D65*
X021712Y009483D03*
X021904Y009483D03*
D66*
X021878Y009485D03*
X021926Y009519D03*
X022036Y009485D03*
X022078Y009519D03*
X022130Y009515D03*
X022166Y009529D03*
X022220Y009529D03*
X021734Y009519D03*
X021686Y009485D03*
X021576Y009529D03*
X021538Y009515D03*
X021488Y009515D03*
X021486Y009487D03*
X021276Y009509D03*
X021226Y009485D03*
X021166Y009529D03*
X021078Y009515D03*
X021028Y009487D03*
X020974Y009487D03*
X020760Y009509D03*
X020714Y009519D03*
X020570Y009485D03*
X020474Y009485D03*
X020436Y009527D03*
X020586Y010565D03*
D67*
X020812Y009485D03*
X021432Y009515D03*
X022082Y009485D03*
D68*
X022003Y009485D03*
X021903Y009531D03*
X021711Y009531D03*
X021253Y009531D03*
X020941Y009485D03*
D69*
X021000Y009531D03*
X021352Y009485D03*
X021460Y009531D03*
X020612Y009491D03*
X020592Y009531D03*
X020814Y010731D03*
X021222Y011285D03*
D70*
X021482Y009485D03*
X020592Y009529D03*
D71*
X020516Y009491D03*
X020496Y009531D03*
X021166Y009531D03*
X021576Y009531D03*
X022056Y009531D03*
X022076Y009491D03*
X022166Y009531D03*
D72*
X021880Y009491D03*
X021688Y009491D03*
X020924Y009547D03*
X020736Y009531D03*
X020380Y009541D03*
X020586Y010557D03*
D73*
X021327Y009533D03*
X021327Y009513D03*
X021327Y009503D03*
X021327Y009493D03*
X021827Y009503D03*
X022127Y009523D03*
D74*
X022057Y009505D03*
X022057Y009501D03*
X022057Y009499D03*
X020497Y009505D03*
X020497Y009501D03*
X020497Y009499D03*
X020307Y009877D03*
X020587Y010585D03*
D75*
X021005Y010341D03*
X020593Y009505D03*
X020593Y009499D03*
D76*
X020592Y009501D03*
X020970Y010581D03*
D77*
X021256Y010507D03*
X021256Y010505D03*
X021256Y010501D03*
X021256Y010499D03*
X021256Y010497D03*
X021256Y010495D03*
X021906Y009501D03*
D78*
X022057Y009503D03*
X020497Y009503D03*
D79*
X020593Y009503D03*
X021221Y011243D03*
D80*
X021222Y011253D03*
X020974Y010493D03*
X021000Y009523D03*
X020742Y009503D03*
X021460Y009523D03*
X021712Y009503D03*
X021902Y009503D03*
D81*
X021258Y009503D03*
X021256Y010493D03*
X021256Y010503D03*
D82*
X020978Y010445D03*
X020978Y010441D03*
X020978Y010439D03*
X020978Y010437D03*
X020978Y010435D03*
X020586Y010575D03*
X020348Y009747D03*
X020746Y009505D03*
X020908Y009747D03*
X021186Y009745D03*
X021188Y009749D03*
X021646Y009737D03*
X021648Y009739D03*
X021648Y009677D03*
X022046Y009757D03*
D83*
X022210Y009661D03*
X021764Y009677D03*
X021764Y009679D03*
X021650Y009657D03*
X021650Y009655D03*
X021650Y009757D03*
X021650Y009759D03*
X021702Y009507D03*
X021262Y009505D03*
X020794Y009745D03*
X021490Y010089D03*
X021490Y010105D03*
X021680Y010571D03*
D84*
X020737Y009671D03*
X020737Y009669D03*
X020747Y009657D03*
X020767Y009631D03*
X020787Y009605D03*
X020737Y009525D03*
X021707Y009505D03*
D85*
X021711Y009527D03*
X021651Y009659D03*
X021651Y009661D03*
X021651Y009665D03*
X021651Y009667D03*
X021651Y009749D03*
X021651Y009751D03*
X021651Y009755D03*
X021761Y009689D03*
X021761Y009687D03*
X021761Y009685D03*
X021763Y009681D03*
X021903Y009527D03*
X021893Y009507D03*
X021491Y010091D03*
X021491Y010095D03*
X021491Y010097D03*
X021491Y010099D03*
X021491Y010101D03*
X020593Y009525D03*
X020421Y009521D03*
X021223Y011259D03*
D86*
X020717Y009513D03*
D87*
X020971Y009513D03*
X021031Y009513D03*
X021593Y009513D03*
X022183Y009513D03*
D88*
X021234Y009513D03*
D89*
X021925Y009515D03*
X020585Y010559D03*
X021317Y011197D03*
D90*
X021942Y010009D03*
X020442Y009517D03*
D91*
X021000Y009521D03*
X021200Y009761D03*
X021460Y009521D03*
X021256Y010357D03*
X021256Y010359D03*
X021256Y010361D03*
X021668Y010591D03*
D92*
X021520Y010231D03*
X021520Y010229D03*
X021520Y010227D03*
X021520Y010225D03*
X021520Y010221D03*
X021520Y010219D03*
X021520Y010217D03*
X021520Y010215D03*
X021128Y009521D03*
X020996Y010995D03*
X020998Y010997D03*
X021000Y010999D03*
X021006Y011005D03*
X021008Y011007D03*
X021010Y011009D03*
X021016Y011015D03*
X021018Y011017D03*
X021020Y011019D03*
X021026Y011025D03*
X021028Y011027D03*
X021030Y011029D03*
X021218Y011217D03*
D93*
X021564Y009521D03*
D94*
X022181Y009521D03*
X021521Y010235D03*
X021521Y010237D03*
X021521Y010239D03*
X021521Y010241D03*
X021521Y010245D03*
X021521Y010247D03*
X021521Y010249D03*
X020333Y009881D03*
X020953Y010951D03*
X020957Y010955D03*
X020959Y010957D03*
X020961Y010959D03*
X020963Y010961D03*
X020967Y010965D03*
X020969Y010967D03*
X020971Y010969D03*
X020973Y010971D03*
X020977Y010975D03*
X020979Y010977D03*
X020981Y010979D03*
X020983Y010981D03*
X020987Y010985D03*
X020989Y010987D03*
X020991Y010989D03*
X020993Y010991D03*
D95*
X020907Y009743D03*
X021185Y009743D03*
X021575Y009523D03*
X021649Y009673D03*
X020355Y009523D03*
X020347Y009743D03*
D96*
X020422Y009523D03*
D97*
X020496Y009523D03*
X020592Y009523D03*
X020750Y009653D03*
X020758Y009643D03*
X020788Y009603D03*
X020796Y009593D03*
X020912Y009753D03*
X021190Y009753D03*
X021648Y009653D03*
X022058Y009523D03*
X020976Y010463D03*
X021680Y010573D03*
X020352Y009753D03*
D98*
X020737Y009523D03*
X021417Y010053D03*
X021255Y010443D03*
X021255Y010453D03*
X021255Y010463D03*
X021255Y010473D03*
X021255Y010483D03*
D99*
X020978Y010423D03*
X020608Y009753D03*
X020608Y009743D03*
X020608Y009733D03*
X020608Y009723D03*
X020608Y009713D03*
X020608Y009703D03*
X020608Y009693D03*
X020608Y009683D03*
X020608Y009673D03*
X020608Y009663D03*
X020608Y009653D03*
X020608Y009643D03*
X020608Y009633D03*
X020608Y009623D03*
X020608Y009613D03*
X020608Y009603D03*
X020608Y009593D03*
X020918Y009523D03*
X021650Y009743D03*
X021758Y009743D03*
X021758Y009733D03*
X021758Y009723D03*
X021758Y009713D03*
X021760Y009693D03*
X021758Y009753D03*
X021758Y009763D03*
X021758Y009773D03*
X021758Y009783D03*
X021758Y009793D03*
X021758Y009803D03*
X021758Y009813D03*
X021938Y009813D03*
X021938Y009803D03*
X021938Y009793D03*
X021938Y009783D03*
X021938Y009773D03*
X021938Y009763D03*
X021938Y009753D03*
X021938Y009743D03*
X021938Y009733D03*
X021938Y009723D03*
X021938Y009713D03*
X021938Y009703D03*
X021938Y009693D03*
X021938Y009683D03*
X021938Y009673D03*
X021938Y009663D03*
X022044Y009753D03*
X022214Y009673D03*
X022218Y009523D03*
D100*
X022165Y009523D03*
X021981Y009523D03*
X022041Y009743D03*
X021759Y009703D03*
X021329Y009523D03*
X021165Y009523D03*
X021181Y009663D03*
X021181Y009673D03*
X020797Y009753D03*
X020979Y010413D03*
X020587Y010573D03*
D101*
X020974Y010503D03*
X021256Y010433D03*
X021254Y009523D03*
D102*
X021711Y009523D03*
X021773Y009663D03*
X021903Y009523D03*
D103*
X022057Y009527D03*
X022165Y009525D03*
X022219Y009525D03*
X021165Y009525D03*
X020497Y009527D03*
D104*
X021074Y009529D03*
X021982Y010011D03*
X020586Y010561D03*
D105*
X021677Y009985D03*
X020437Y009531D03*
D106*
X020825Y009591D03*
X021113Y009531D03*
X022219Y009531D03*
X020819Y010739D03*
D107*
X020982Y010373D03*
X021494Y009963D03*
X021494Y009953D03*
X021494Y009943D03*
X021494Y009933D03*
X021494Y009923D03*
X021494Y009913D03*
X021494Y009903D03*
X021494Y009893D03*
X021494Y009883D03*
X020364Y009543D03*
D108*
X020919Y009543D03*
X021981Y009543D03*
D109*
X021330Y009543D03*
D110*
X021332Y009545D03*
X020922Y009545D03*
D111*
X021984Y009545D03*
X021226Y011281D03*
D112*
X021317Y011201D03*
X021999Y010105D03*
X021987Y009547D03*
X021335Y009547D03*
D113*
X021462Y009653D03*
X021462Y009663D03*
X021462Y009673D03*
X021462Y009683D03*
X021462Y009693D03*
X021462Y009703D03*
X021462Y009713D03*
X021462Y009723D03*
X021462Y009733D03*
X021462Y009743D03*
X021462Y009753D03*
X021492Y010063D03*
X021492Y010073D03*
X021492Y010083D03*
X020902Y009673D03*
X020902Y009663D03*
X020342Y009663D03*
X020342Y009653D03*
X020342Y009643D03*
X020342Y009633D03*
X020342Y009623D03*
X020342Y009613D03*
X020342Y009603D03*
X020342Y009593D03*
X020342Y009673D03*
D114*
X020992Y009653D03*
X020992Y009643D03*
X020992Y009633D03*
X020992Y009623D03*
X020992Y009613D03*
X020992Y009603D03*
X020992Y009593D03*
X021272Y009593D03*
X021272Y009603D03*
X021272Y009613D03*
X021272Y009623D03*
X021272Y009633D03*
X021272Y009643D03*
X021552Y009803D03*
D115*
X021539Y009593D03*
X020979Y009683D03*
X020979Y009693D03*
X020979Y009703D03*
X020979Y009713D03*
X021005Y009793D03*
X020437Y009783D03*
D116*
X020348Y009883D03*
X021528Y010403D03*
X021528Y010413D03*
X021584Y009713D03*
X021888Y009593D03*
X021216Y011203D03*
D117*
X022097Y009593D03*
D118*
X022212Y009665D03*
X022212Y009667D03*
X022042Y009747D03*
X021462Y009751D03*
X021462Y009749D03*
X021462Y009747D03*
X021462Y009745D03*
X021462Y009741D03*
X021462Y009739D03*
X021462Y009737D03*
X021462Y009735D03*
X021462Y009731D03*
X021462Y009729D03*
X021462Y009727D03*
X021462Y009725D03*
X021462Y009721D03*
X021462Y009719D03*
X021462Y009717D03*
X021462Y009715D03*
X021462Y009711D03*
X021462Y009709D03*
X021462Y009707D03*
X021462Y009705D03*
X021462Y009701D03*
X021462Y009699D03*
X021462Y009697D03*
X021462Y009695D03*
X021462Y009691D03*
X021462Y009689D03*
X021462Y009687D03*
X021462Y009685D03*
X021462Y009681D03*
X021462Y009679D03*
X021462Y009677D03*
X021462Y009675D03*
X021462Y009671D03*
X021462Y009669D03*
X021462Y009667D03*
X021462Y009665D03*
X021462Y009661D03*
X021462Y009659D03*
X021462Y009657D03*
X021462Y009755D03*
X021462Y009757D03*
X021462Y009761D03*
X021182Y009677D03*
X020902Y009677D03*
X020902Y009675D03*
X020902Y009671D03*
X020902Y009669D03*
X020902Y009667D03*
X020902Y009665D03*
X020902Y009661D03*
X020902Y009659D03*
X020902Y009657D03*
X020902Y009655D03*
X020342Y009661D03*
X020342Y009659D03*
X020342Y009657D03*
X020342Y009655D03*
X020342Y009651D03*
X020342Y009649D03*
X020342Y009647D03*
X020342Y009645D03*
X020342Y009641D03*
X020342Y009639D03*
X020342Y009637D03*
X020342Y009635D03*
X020342Y009631D03*
X020342Y009629D03*
X020342Y009627D03*
X020342Y009625D03*
X020342Y009621D03*
X020342Y009619D03*
X020342Y009617D03*
X020342Y009615D03*
X020342Y009611D03*
X020342Y009609D03*
X020342Y009607D03*
X020342Y009605D03*
X020342Y009601D03*
X020342Y009599D03*
X020342Y009597D03*
X020342Y009595D03*
X020342Y009665D03*
X020342Y009667D03*
X020342Y009669D03*
X020342Y009671D03*
X020342Y009675D03*
X020342Y009677D03*
X021492Y010061D03*
X021492Y010065D03*
X021492Y010067D03*
X021492Y010069D03*
X021492Y010071D03*
X021492Y010075D03*
X021492Y010077D03*
X021492Y010079D03*
X021492Y010081D03*
X021492Y010085D03*
X021492Y010087D03*
D119*
X021552Y009805D03*
X021552Y009611D03*
X021272Y009615D03*
X021272Y009617D03*
X021272Y009619D03*
X021272Y009621D03*
X021272Y009625D03*
X021272Y009627D03*
X021272Y009629D03*
X021272Y009631D03*
X021272Y009635D03*
X021272Y009637D03*
X021272Y009639D03*
X021272Y009641D03*
X021272Y009645D03*
X021272Y009647D03*
X021272Y009649D03*
X021272Y009651D03*
X021272Y009611D03*
X021272Y009609D03*
X021272Y009607D03*
X021272Y009605D03*
X021272Y009601D03*
X021272Y009599D03*
X021272Y009597D03*
X021272Y009595D03*
X020992Y009599D03*
X020992Y009597D03*
X020992Y009595D03*
X020992Y009601D03*
X020992Y009605D03*
X020992Y009607D03*
X020992Y009609D03*
X020992Y009611D03*
X020992Y009615D03*
X020992Y009617D03*
X020992Y009619D03*
X020992Y009621D03*
X020992Y009625D03*
X020992Y009627D03*
X020992Y009629D03*
X020992Y009631D03*
X020992Y009635D03*
X020992Y009637D03*
X020992Y009639D03*
X020992Y009641D03*
X020992Y009645D03*
X020992Y009647D03*
X020992Y009649D03*
X020992Y009651D03*
X021482Y010869D03*
X021472Y010881D03*
D120*
X021282Y009787D03*
X021002Y009785D03*
X021542Y009595D03*
X022122Y009629D03*
X022122Y009631D03*
D121*
X021884Y009595D03*
X021588Y009697D03*
X021588Y009721D03*
X021530Y010459D03*
X021530Y010461D03*
X021530Y010465D03*
X021530Y010467D03*
X021530Y010469D03*
X021530Y010471D03*
X021530Y010475D03*
X021708Y010595D03*
X021310Y011117D03*
X021216Y011199D03*
D122*
X021013Y010579D03*
X021707Y010601D03*
X021919Y010091D03*
X020729Y009721D03*
X020729Y009719D03*
X022101Y009595D03*
D123*
X022125Y009641D03*
X022125Y009645D03*
X022125Y009647D03*
X022131Y009769D03*
X022131Y009771D03*
X021855Y009647D03*
X021855Y009645D03*
X021545Y009597D03*
X021545Y009817D03*
X021279Y009779D03*
X021279Y009777D03*
X020999Y009775D03*
X021895Y010087D03*
D124*
X021531Y010511D03*
X021591Y009735D03*
X021591Y009685D03*
X021591Y009681D03*
X021881Y009597D03*
D125*
X022104Y009597D03*
X021300Y009817D03*
X020732Y009737D03*
X020732Y009735D03*
X020360Y009885D03*
X021704Y010607D03*
X021310Y011109D03*
D126*
X021228Y011181D03*
X021278Y009775D03*
X020998Y009771D03*
X020998Y009769D03*
X021546Y009599D03*
X021854Y009649D03*
X021854Y009651D03*
X022126Y009651D03*
X022126Y009649D03*
X022130Y009765D03*
X022130Y009767D03*
D127*
X021878Y009599D03*
X020730Y009725D03*
X020454Y009815D03*
X021088Y010089D03*
X021310Y011111D03*
D128*
X021310Y011107D03*
X022150Y009817D03*
X022106Y009599D03*
D129*
X022128Y009679D03*
X022128Y009681D03*
X022128Y009685D03*
X022128Y009687D03*
X022128Y009689D03*
X022128Y009691D03*
X022128Y009695D03*
X022128Y009697D03*
X022128Y009699D03*
X022128Y009701D03*
X022128Y009705D03*
X022128Y009707D03*
X022128Y009709D03*
X022128Y009711D03*
X022128Y009715D03*
X022128Y009717D03*
X022128Y009719D03*
X022128Y009721D03*
X022128Y009725D03*
X022128Y009727D03*
X022128Y009729D03*
X022128Y009731D03*
X022128Y009735D03*
X022128Y009737D03*
X021548Y009601D03*
X021276Y009765D03*
D130*
X021876Y009601D03*
D131*
X022108Y009601D03*
X022148Y009815D03*
X021016Y009817D03*
X021016Y009815D03*
X020448Y009807D03*
D132*
X021549Y009603D03*
X021307Y011083D03*
D133*
X021874Y009603D03*
D134*
X022110Y009603D03*
X021014Y009813D03*
D135*
X021550Y009809D03*
X021550Y009605D03*
X021306Y011081D03*
D136*
X021309Y011105D03*
X020449Y009809D03*
X021873Y009605D03*
D137*
X022112Y009605D03*
X021012Y009807D03*
D138*
X021551Y009807D03*
X021551Y009609D03*
X021551Y009607D03*
X021227Y011175D03*
D139*
X021871Y009607D03*
D140*
X022113Y009607D03*
X021291Y009807D03*
X021011Y009805D03*
X020443Y009799D03*
D141*
X021014Y009811D03*
X021294Y009811D03*
X021870Y009609D03*
X021318Y010511D03*
D142*
X021290Y009805D03*
X022114Y009609D03*
X022142Y009807D03*
X020442Y009797D03*
D143*
X020444Y009801D03*
X021868Y009611D03*
X022144Y009809D03*
D144*
X022141Y009805D03*
X022115Y009611D03*
X021865Y009617D03*
X020441Y009795D03*
X021309Y011097D03*
D145*
X020975Y010483D03*
X020975Y010473D03*
X020735Y009673D03*
X020743Y009663D03*
X020765Y009633D03*
X020773Y009623D03*
X020781Y009613D03*
D146*
X021553Y009613D03*
D147*
X021867Y009613D03*
D148*
X022116Y009613D03*
X022140Y009803D03*
D149*
X021553Y009801D03*
X021553Y009615D03*
X021483Y010867D03*
X021481Y010871D03*
D150*
X021866Y009615D03*
D151*
X022117Y009615D03*
X021287Y009799D03*
X021007Y009799D03*
D152*
X021554Y009799D03*
X021554Y009797D03*
X021554Y009795D03*
X021554Y009619D03*
X021554Y009617D03*
D153*
X021258Y009679D03*
X021258Y009681D03*
X021258Y009685D03*
X021258Y009687D03*
X021258Y009689D03*
X021258Y009691D03*
X021258Y009695D03*
X021258Y009697D03*
X021258Y009699D03*
X021258Y009701D03*
X021258Y009705D03*
X021258Y009707D03*
X021258Y009709D03*
X021258Y009711D03*
X021258Y009715D03*
X021258Y009717D03*
X021258Y009719D03*
X021258Y009721D03*
X021258Y009725D03*
X021258Y009727D03*
X021258Y009729D03*
X021258Y009731D03*
X021258Y009735D03*
X021286Y009797D03*
X021006Y009797D03*
X021006Y009795D03*
X020438Y009787D03*
X020438Y009785D03*
X022118Y009617D03*
X022138Y009799D03*
X021228Y011189D03*
D154*
X021288Y009801D03*
X021008Y009801D03*
X020440Y009791D03*
X021864Y009619D03*
D155*
X022119Y009619D03*
X022137Y009795D03*
X022137Y009797D03*
X021285Y009795D03*
X020979Y009721D03*
X020979Y009719D03*
X020979Y009717D03*
X020979Y009715D03*
X020979Y009711D03*
X020979Y009709D03*
X020979Y009707D03*
X020979Y009705D03*
X020979Y009701D03*
X020979Y009699D03*
X020979Y009697D03*
X020979Y009695D03*
X020979Y009691D03*
X020979Y009689D03*
X020979Y009687D03*
X020979Y009685D03*
X020979Y009681D03*
X020979Y009679D03*
X020437Y009781D03*
D156*
X021555Y009789D03*
X021555Y009791D03*
X021555Y009625D03*
X021555Y009621D03*
X021491Y010855D03*
X021491Y010857D03*
X021489Y010859D03*
X021465Y010887D03*
D157*
X021309Y011095D03*
X020373Y009887D03*
X020439Y009789D03*
X020979Y009737D03*
X021259Y009737D03*
X021863Y009621D03*
X022139Y009801D03*
D158*
X022120Y009621D03*
X021860Y009629D03*
X021004Y009791D03*
X020436Y009779D03*
X021106Y010091D03*
X021308Y011091D03*
X021228Y011187D03*
D159*
X021555Y009793D03*
X021555Y009623D03*
D160*
X021862Y009623D03*
X020980Y009723D03*
X020980Y009733D03*
D161*
X021284Y009793D03*
X022136Y009793D03*
X022120Y009623D03*
D162*
X021861Y009627D03*
X021861Y009625D03*
D163*
X021859Y009631D03*
X022121Y009627D03*
X022121Y009625D03*
X022135Y009789D03*
X022135Y009791D03*
X021283Y009791D03*
X021283Y009789D03*
X021003Y009789D03*
X021003Y009787D03*
X020435Y009777D03*
X020435Y009775D03*
X020421Y009721D03*
X020421Y009719D03*
X020421Y009717D03*
X020421Y009715D03*
X020421Y009711D03*
X020421Y009709D03*
X020421Y009707D03*
X020421Y009705D03*
X020421Y009701D03*
X020421Y009699D03*
X020421Y009697D03*
X020421Y009695D03*
X020421Y009691D03*
X020421Y009689D03*
X020421Y009687D03*
X020421Y009685D03*
X020421Y009681D03*
X020421Y009679D03*
D164*
X021556Y009637D03*
X021556Y009635D03*
X021556Y009631D03*
X021556Y009629D03*
X021556Y009627D03*
X021556Y009779D03*
X021556Y009781D03*
X021556Y009785D03*
X021556Y009787D03*
X021462Y010889D03*
X021306Y011075D03*
X021226Y011169D03*
D165*
X021492Y010853D03*
X021122Y010093D03*
X021556Y009783D03*
X021556Y009633D03*
D166*
X021858Y009633D03*
X020434Y009773D03*
D167*
X021001Y009783D03*
X021281Y009783D03*
X022133Y009783D03*
X022123Y009633D03*
D168*
X022134Y009785D03*
X022134Y009787D03*
X021858Y009635D03*
X020434Y009769D03*
X020434Y009771D03*
X021308Y011089D03*
X021228Y011185D03*
D169*
X021073Y010337D03*
X021001Y009781D03*
X021281Y009785D03*
X020433Y009767D03*
X020433Y009765D03*
X022123Y009635D03*
X022133Y009781D03*
D170*
X021857Y009639D03*
X021857Y009637D03*
D171*
X022124Y009639D03*
X022124Y009637D03*
X022132Y009775D03*
X022132Y009777D03*
X022132Y009779D03*
X021544Y009819D03*
X021280Y009781D03*
X021000Y009779D03*
X021000Y009777D03*
D172*
X021557Y009777D03*
X021557Y009775D03*
X021557Y009771D03*
X021557Y009769D03*
X021557Y009767D03*
X021557Y009765D03*
X021557Y009651D03*
X021557Y009649D03*
X021557Y009647D03*
X021557Y009645D03*
X021557Y009641D03*
X021557Y009639D03*
D173*
X021856Y009641D03*
D174*
X021557Y009643D03*
X021557Y009763D03*
X021557Y009773D03*
D175*
X021856Y009643D03*
X021228Y011183D03*
D176*
X020999Y009773D03*
X022129Y009763D03*
X022131Y009773D03*
X022125Y009643D03*
D177*
X021271Y009653D03*
D178*
X021278Y009773D03*
X021854Y009653D03*
X022126Y009653D03*
D179*
X021785Y009655D03*
X020587Y010587D03*
D180*
X021255Y010355D03*
X021255Y010351D03*
X021255Y010349D03*
X021255Y010347D03*
X021255Y010345D03*
X021255Y010341D03*
X021255Y010339D03*
X021255Y010337D03*
X021777Y009659D03*
D181*
X021763Y009683D03*
X021651Y009663D03*
X021651Y009753D03*
X022211Y009663D03*
X021491Y010093D03*
X021491Y010103D03*
D182*
X020977Y010447D03*
X020977Y010449D03*
X020977Y010451D03*
X020977Y010455D03*
X020977Y010457D03*
X021767Y009671D03*
D183*
X021766Y009673D03*
X020978Y010433D03*
X020978Y010443D03*
D184*
X020703Y009679D03*
D185*
X020706Y009681D03*
X021076Y011077D03*
X021078Y011079D03*
X021086Y011087D03*
X021088Y011089D03*
X021096Y011097D03*
X021098Y011099D03*
X021106Y011107D03*
X021108Y011109D03*
X021116Y011117D03*
X021218Y011219D03*
D186*
X020421Y009723D03*
X020421Y009713D03*
X020421Y009703D03*
X020421Y009693D03*
X020421Y009683D03*
D187*
X020709Y009683D03*
X021521Y010233D03*
X021521Y010243D03*
X020955Y010953D03*
X020965Y010963D03*
X020975Y010973D03*
X020985Y010983D03*
D188*
X021308Y011093D03*
X021258Y009733D03*
X021258Y009723D03*
X021258Y009713D03*
X021258Y009703D03*
X021258Y009693D03*
X021258Y009683D03*
D189*
X021591Y009683D03*
X021591Y009733D03*
D190*
X021548Y009813D03*
X022128Y009733D03*
X022128Y009723D03*
X022128Y009713D03*
X022128Y009703D03*
X022128Y009693D03*
X022128Y009683D03*
D191*
X021522Y010287D03*
X020712Y009685D03*
X020830Y010825D03*
X020832Y010827D03*
X020834Y010829D03*
X020840Y010835D03*
X020842Y010837D03*
X020844Y010839D03*
X020850Y010845D03*
X020852Y010847D03*
X020854Y010849D03*
X020860Y010855D03*
X020862Y010857D03*
X020864Y010859D03*
D192*
X020786Y010779D03*
X020784Y010777D03*
X020782Y010775D03*
X020778Y010771D03*
X020776Y010769D03*
X020774Y010767D03*
X020772Y010765D03*
X020768Y010761D03*
X020766Y010759D03*
X020764Y010757D03*
X020762Y010755D03*
X020758Y010751D03*
X020756Y010749D03*
X020754Y010747D03*
X020746Y010739D03*
X021524Y010325D03*
X021524Y010321D03*
X021524Y010319D03*
X021524Y010317D03*
X021524Y010315D03*
X021524Y010311D03*
X021524Y010309D03*
X021074Y010087D03*
X020714Y009687D03*
X021296Y011147D03*
X021294Y011149D03*
D193*
X021310Y011115D03*
X021532Y010509D03*
X021532Y010507D03*
X021532Y010505D03*
X021532Y010501D03*
X021532Y010499D03*
X021532Y010497D03*
X021590Y009731D03*
X021590Y009729D03*
X021590Y009727D03*
X021590Y009691D03*
X021590Y009689D03*
X021590Y009687D03*
D194*
X020716Y009689D03*
X021038Y010339D03*
X021526Y010345D03*
X021526Y010347D03*
X021526Y010349D03*
X021526Y010351D03*
X021526Y010355D03*
X021526Y010357D03*
X021526Y010359D03*
X021526Y010361D03*
X020746Y010737D03*
X020736Y010727D03*
X021216Y011209D03*
X021306Y011131D03*
D195*
X021307Y011129D03*
X021309Y011127D03*
X021217Y011207D03*
X020717Y009691D03*
D196*
X020719Y009693D03*
X021527Y010383D03*
X021527Y010393D03*
X021311Y011123D03*
D197*
X021531Y010493D03*
X021531Y010483D03*
X021589Y009723D03*
X021589Y009693D03*
D198*
X021584Y009705D03*
X020720Y009695D03*
X021528Y010405D03*
X021528Y010407D03*
X021528Y010409D03*
X021528Y010411D03*
X021528Y010415D03*
X021528Y010417D03*
X021528Y010419D03*
D199*
X021531Y010477D03*
X021531Y010479D03*
X021531Y010481D03*
X021531Y010485D03*
X021531Y010487D03*
X021531Y010489D03*
X021531Y010491D03*
X021531Y010495D03*
X021215Y011197D03*
X021589Y009725D03*
X021589Y009695D03*
X020725Y009705D03*
X020725Y009707D03*
X020459Y009819D03*
D200*
X020721Y009697D03*
X021311Y011121D03*
D201*
X021530Y010441D03*
X021530Y010439D03*
X020722Y009699D03*
D202*
X021587Y009699D03*
X021587Y009719D03*
D203*
X020723Y009701D03*
X021529Y010445D03*
X021529Y010447D03*
X021529Y010449D03*
X021529Y010451D03*
X021529Y010455D03*
X021529Y010457D03*
X021311Y011119D03*
D204*
X021216Y011201D03*
X021586Y009717D03*
X021586Y009701D03*
D205*
X020724Y009703D03*
X021530Y010463D03*
X021530Y010473D03*
D206*
X021708Y010593D03*
X021586Y009703D03*
D207*
X021583Y009707D03*
X021527Y010385D03*
X021527Y010387D03*
X021527Y010389D03*
X021527Y010391D03*
X021527Y010395D03*
X021527Y010397D03*
X021527Y010399D03*
X021527Y010401D03*
D208*
X021708Y010597D03*
X020726Y009709D03*
D209*
X021582Y009711D03*
X021582Y009709D03*
D210*
X020727Y009711D03*
X021215Y011195D03*
D211*
X020727Y009713D03*
D212*
X020728Y009715D03*
X020728Y009717D03*
X020456Y009817D03*
X021708Y010599D03*
D213*
X021529Y010437D03*
X021529Y010435D03*
X021529Y010431D03*
X021529Y010429D03*
X021529Y010427D03*
X021529Y010425D03*
X021529Y010421D03*
X021585Y009715D03*
D214*
X020730Y009723D03*
D215*
X020422Y009727D03*
X020422Y009725D03*
X020422Y009729D03*
X020422Y009731D03*
X020422Y009735D03*
X020422Y009737D03*
D216*
X020980Y009735D03*
X020980Y009731D03*
X020980Y009729D03*
X020980Y009727D03*
X020980Y009725D03*
D217*
X020731Y009729D03*
X020731Y009727D03*
X020731Y009731D03*
X022153Y009819D03*
D218*
X020422Y009733D03*
D219*
X020731Y009733D03*
D220*
X020793Y009743D03*
D221*
X021194Y009757D03*
X020354Y009757D03*
X020974Y010485D03*
X020974Y010487D03*
X020974Y010489D03*
X020974Y010491D03*
X020974Y010495D03*
X020974Y010497D03*
X021680Y010575D03*
D222*
X020971Y010539D03*
X020921Y009761D03*
X020361Y009761D03*
D223*
X020432Y009763D03*
D224*
X020703Y009763D03*
X020703Y009773D03*
X020703Y009783D03*
X020703Y009793D03*
X020703Y009803D03*
X020703Y009813D03*
D225*
X020997Y009763D03*
D226*
X021275Y009763D03*
D227*
X020703Y009769D03*
X020703Y009767D03*
X020703Y009765D03*
X020703Y009771D03*
X020703Y009775D03*
X020703Y009777D03*
X020703Y009779D03*
X020703Y009781D03*
X020703Y009785D03*
X020703Y009787D03*
X020703Y009789D03*
X020703Y009791D03*
X020703Y009795D03*
X020703Y009797D03*
X020703Y009799D03*
X020703Y009801D03*
X020703Y009805D03*
X020703Y009807D03*
X020703Y009809D03*
X020703Y009811D03*
X020703Y009815D03*
X020703Y009817D03*
X020703Y009819D03*
X021883Y010085D03*
X021495Y010849D03*
X021493Y010851D03*
D228*
X021307Y011085D03*
X021227Y011179D03*
X021547Y009815D03*
X021277Y009771D03*
X021277Y009769D03*
X021277Y009767D03*
X020997Y009767D03*
X020997Y009765D03*
D229*
X021009Y009803D03*
X021289Y009803D03*
X020441Y009793D03*
D230*
X020445Y009803D03*
D231*
X020447Y009805D03*
D232*
X021013Y009809D03*
X021293Y009809D03*
X022145Y009811D03*
X021309Y011101D03*
D233*
X021019Y009819D03*
X020451Y009811D03*
D234*
X020385Y009889D03*
X021549Y009811D03*
X021227Y011177D03*
D235*
X020452Y009813D03*
D236*
X021296Y009813D03*
D237*
X021485Y010163D03*
X022147Y009813D03*
X021309Y011103D03*
D238*
X021297Y009815D03*
D239*
X021302Y009819D03*
D240*
X020950Y009871D03*
X020934Y010031D03*
X020934Y010035D03*
X020934Y010037D03*
X020934Y010039D03*
X020934Y010041D03*
X020932Y010049D03*
X020914Y010217D03*
X020914Y010219D03*
X020914Y010221D03*
X021220Y011235D03*
D241*
X021575Y010693D03*
X020949Y009903D03*
X020951Y009883D03*
X020951Y009873D03*
D242*
X020951Y009875D03*
X020951Y009877D03*
X020951Y009879D03*
X020951Y009881D03*
X020951Y009885D03*
X020951Y009887D03*
X020951Y009889D03*
X020951Y009891D03*
X020949Y009895D03*
X020949Y009897D03*
X020949Y009899D03*
X020949Y009901D03*
X020949Y009905D03*
X020949Y009907D03*
X021579Y010689D03*
X021573Y010697D03*
X021571Y010699D03*
D243*
X020320Y009879D03*
D244*
X020398Y009891D03*
X021500Y010837D03*
X021306Y011069D03*
D245*
X020410Y009893D03*
D246*
X020950Y009893D03*
X020934Y010033D03*
X020914Y010223D03*
D247*
X020423Y009895D03*
X021125Y010865D03*
X021303Y011041D03*
D248*
X021129Y010335D03*
X021129Y010331D03*
X021129Y010329D03*
X021129Y010327D03*
X020435Y009897D03*
D249*
X020449Y009899D03*
D250*
X020464Y009901D03*
X021300Y010997D03*
D251*
X020476Y009903D03*
D252*
X020487Y009905D03*
X021789Y010069D03*
D253*
X020498Y009907D03*
X021296Y010961D03*
D254*
X021295Y010947D03*
X020511Y009909D03*
D255*
X020948Y009911D03*
X020948Y009909D03*
X020936Y010021D03*
X020928Y010089D03*
X020928Y010091D03*
X020926Y010107D03*
X020918Y010185D03*
X020918Y010187D03*
X020918Y010189D03*
D256*
X020523Y009911D03*
D257*
X020536Y009913D03*
D258*
X020948Y009913D03*
X020936Y010023D03*
D259*
X020548Y009915D03*
D260*
X020947Y009919D03*
X020947Y009917D03*
X020947Y009915D03*
X020587Y010591D03*
X021577Y010691D03*
D261*
X021285Y010137D03*
X021285Y010135D03*
X021285Y010131D03*
X021285Y010129D03*
X020561Y009917D03*
D262*
X020573Y009919D03*
D263*
X020634Y009921D03*
D264*
X020634Y009923D03*
D265*
X020633Y009925D03*
X020633Y009927D03*
X020633Y009929D03*
D266*
X020634Y009931D03*
D267*
X020647Y009933D03*
D268*
X020659Y009935D03*
D269*
X020671Y009937D03*
X021279Y010771D03*
D270*
X021278Y010757D03*
X020684Y009939D03*
D271*
X020696Y009941D03*
X021276Y010745D03*
D272*
X020723Y009943D03*
D273*
X020723Y009945D03*
D274*
X020734Y009947D03*
D275*
X020746Y009949D03*
D276*
X020759Y009951D03*
D277*
X020771Y009953D03*
D278*
X020791Y009955D03*
D279*
X020796Y009957D03*
D280*
X020811Y009959D03*
X021121Y009985D03*
D281*
X021198Y009991D03*
X020844Y009961D03*
D282*
X020859Y009963D03*
D283*
X020884Y009965D03*
D284*
X020908Y009967D03*
D285*
X020955Y009969D03*
D286*
X020966Y009971D03*
D287*
X020978Y009973D03*
D288*
X021005Y009975D03*
X021029Y009977D03*
D289*
X021054Y009979D03*
D290*
X021077Y009981D03*
D291*
X021101Y009983D03*
D292*
X021653Y009983D03*
D293*
X021268Y009997D03*
X021150Y009987D03*
D294*
X021175Y009989D03*
D295*
X021223Y009993D03*
D296*
X021247Y009995D03*
D297*
X021296Y009999D03*
D298*
X021319Y010001D03*
D299*
X021344Y010003D03*
D300*
X021370Y010005D03*
D301*
X021382Y010007D03*
D302*
X021394Y010009D03*
X021134Y010669D03*
D303*
X021422Y010011D03*
D304*
X021422Y010013D03*
D305*
X021446Y010015D03*
X021446Y010017D03*
X021446Y010019D03*
D306*
X021506Y010021D03*
D307*
X021517Y010023D03*
X021305Y010623D03*
D308*
X020869Y010591D03*
X020867Y010607D03*
X020915Y010215D03*
X020915Y010211D03*
X020915Y010209D03*
X020915Y010207D03*
X020915Y010205D03*
X020915Y010201D03*
X020915Y010199D03*
X020915Y010197D03*
X020919Y010181D03*
X020919Y010179D03*
X020919Y010177D03*
X020919Y010175D03*
X020919Y010171D03*
X020919Y010169D03*
X020919Y010167D03*
X020919Y010165D03*
X020925Y010121D03*
X020925Y010119D03*
X020925Y010117D03*
X020925Y010115D03*
X020925Y010111D03*
X020925Y010109D03*
X020927Y010105D03*
X020927Y010101D03*
X020927Y010099D03*
X020927Y010097D03*
X020927Y010095D03*
X020935Y010029D03*
X020935Y010027D03*
X020935Y010025D03*
D309*
X021529Y010025D03*
D310*
X021541Y010027D03*
D311*
X021546Y010029D03*
D312*
X021565Y010031D03*
X021353Y010617D03*
D313*
X021276Y010743D03*
X021576Y010033D03*
D314*
X021588Y010035D03*
D315*
X021600Y010037D03*
D316*
X021612Y010039D03*
X021280Y010781D03*
D317*
X021624Y010041D03*
D318*
X020933Y010043D03*
X020933Y010053D03*
X020923Y010133D03*
X020921Y010153D03*
D319*
X021635Y010043D03*
D320*
X020933Y010047D03*
X020933Y010045D03*
X020933Y010051D03*
X020933Y010055D03*
X020933Y010057D03*
X020923Y010127D03*
X020923Y010129D03*
X020923Y010131D03*
X020923Y010135D03*
X020923Y010137D03*
X020923Y010139D03*
X020923Y010141D03*
X020921Y010147D03*
X020921Y010149D03*
X020921Y010151D03*
X020921Y010155D03*
X020921Y010157D03*
X020913Y010225D03*
X020913Y010227D03*
X020913Y010229D03*
D321*
X021647Y010045D03*
D322*
X021659Y010047D03*
X021275Y010565D03*
X021275Y010567D03*
D323*
X021672Y010049D03*
D324*
X021684Y010051D03*
D325*
X021736Y010053D03*
X021292Y010913D03*
D326*
X021270Y010111D03*
X021736Y010059D03*
X021736Y010057D03*
X021736Y010055D03*
D327*
X021441Y010057D03*
D328*
X020932Y010061D03*
X020932Y010059D03*
X020932Y010065D03*
X020932Y010067D03*
X020932Y010069D03*
X020932Y010071D03*
X020922Y010145D03*
X020912Y010231D03*
X020912Y010235D03*
X020912Y010237D03*
X020912Y010239D03*
X020912Y010241D03*
X020902Y010321D03*
X020882Y010481D03*
X020882Y010485D03*
X020882Y010487D03*
X020882Y010489D03*
X020882Y010491D03*
X020872Y010569D03*
X020872Y010571D03*
D329*
X021770Y010061D03*
D330*
X020932Y010063D03*
X020932Y010073D03*
X020922Y010143D03*
X020912Y010233D03*
X020902Y010323D03*
X020882Y010483D03*
X020872Y010573D03*
D331*
X021769Y010063D03*
D332*
X021769Y010065D03*
X021295Y010951D03*
D333*
X021777Y010067D03*
D334*
X021801Y010071D03*
D335*
X021813Y010073D03*
D336*
X020931Y010081D03*
X020931Y010079D03*
X020931Y010077D03*
X020931Y010075D03*
X020931Y010085D03*
X020931Y010087D03*
X020909Y010259D03*
X020909Y010261D03*
X020907Y010275D03*
X020907Y010277D03*
X020907Y010279D03*
X020905Y010295D03*
X020905Y010297D03*
X020905Y010299D03*
X020903Y010309D03*
X020903Y010311D03*
X020903Y010315D03*
X020903Y010317D03*
X020903Y010319D03*
X020901Y010325D03*
X020901Y010327D03*
X020901Y010329D03*
X020901Y010331D03*
X020901Y010335D03*
X020901Y010337D03*
X020899Y010345D03*
X020899Y010347D03*
X020899Y010349D03*
X020899Y010351D03*
X020899Y010355D03*
X020899Y010357D03*
X020897Y010359D03*
X020897Y010361D03*
X020897Y010365D03*
X020897Y010367D03*
X020897Y010369D03*
X020897Y010371D03*
X020895Y010379D03*
X020895Y010381D03*
X020895Y010385D03*
X020895Y010387D03*
X020895Y010389D03*
X020895Y010391D03*
X020893Y010397D03*
X020893Y010399D03*
X020893Y010401D03*
X020893Y010405D03*
X020893Y010407D03*
X020891Y010415D03*
X020889Y010425D03*
X020889Y010427D03*
X020889Y010429D03*
X020889Y010431D03*
X020887Y010445D03*
X020887Y010447D03*
X020885Y010459D03*
X020885Y010461D03*
X020883Y010475D03*
X020883Y010477D03*
X020883Y010479D03*
X020881Y010495D03*
X020879Y010509D03*
X020879Y010511D03*
X020875Y010545D03*
X020875Y010547D03*
X020875Y010549D03*
X020875Y010551D03*
X020875Y010555D03*
X020875Y010557D03*
X020587Y010589D03*
X021221Y011239D03*
D337*
X021824Y010075D03*
D338*
X021836Y010077D03*
D339*
X021848Y010079D03*
X021138Y010221D03*
X021138Y010225D03*
X021138Y010227D03*
X021138Y010229D03*
X021138Y010231D03*
X021114Y010851D03*
D340*
X021304Y011049D03*
X021860Y010081D03*
D341*
X020931Y010083D03*
X020905Y010293D03*
X020903Y010313D03*
X020901Y010333D03*
X020899Y010343D03*
X020899Y010353D03*
X020897Y010363D03*
X020897Y010373D03*
X020895Y010383D03*
X020893Y010403D03*
X020887Y010443D03*
X020885Y010463D03*
X020881Y010493D03*
X020875Y010543D03*
X020875Y010553D03*
D342*
X021040Y010083D03*
D343*
X021872Y010083D03*
D344*
X021057Y010085D03*
X020587Y010595D03*
X021219Y011229D03*
X021545Y010731D03*
X021547Y010729D03*
X021549Y010727D03*
D345*
X021309Y011099D03*
X021907Y010089D03*
D346*
X020927Y010093D03*
X020927Y010103D03*
X020925Y010113D03*
X020925Y010123D03*
X020919Y010173D03*
X020919Y010183D03*
X020915Y010203D03*
X020915Y010213D03*
D347*
X021931Y010093D03*
D348*
X021138Y010095D03*
X021506Y010817D03*
D349*
X021114Y011115D03*
X021110Y011111D03*
X021104Y011105D03*
X021100Y011101D03*
X021094Y011095D03*
X021090Y011091D03*
X021084Y011085D03*
X021080Y011081D03*
X021520Y010201D03*
X021520Y010199D03*
X021520Y010197D03*
X021520Y010195D03*
X021942Y010095D03*
D350*
X021156Y010097D03*
X021140Y010205D03*
X021140Y010207D03*
X021118Y010857D03*
X021506Y010795D03*
D351*
X021562Y010711D03*
X021566Y010705D03*
X021570Y010701D03*
X021574Y010695D03*
X021580Y010687D03*
X021954Y010097D03*
D352*
X021171Y010099D03*
X021101Y010825D03*
D353*
X021189Y010101D03*
D354*
X021205Y010103D03*
X021299Y010983D03*
D355*
X021296Y010967D03*
X021220Y010105D03*
D356*
X021259Y010107D03*
X021259Y010109D03*
X021293Y010925D03*
D357*
X021286Y010113D03*
D358*
X021285Y010115D03*
X021285Y010117D03*
D359*
X021286Y010119D03*
X021286Y010121D03*
X021286Y010125D03*
X021286Y010127D03*
D360*
X021286Y010123D03*
D361*
X020924Y010125D03*
X020920Y010159D03*
X020920Y010161D03*
X020916Y010191D03*
X020916Y010195D03*
X020910Y010245D03*
X020910Y010247D03*
X020910Y010249D03*
X020910Y010251D03*
X020910Y010255D03*
X020910Y010257D03*
X020908Y010265D03*
X020908Y010267D03*
X020908Y010269D03*
X020908Y010271D03*
X020906Y010281D03*
X020906Y010285D03*
X020906Y010287D03*
X020906Y010289D03*
X020906Y010291D03*
X020904Y010301D03*
X020904Y010305D03*
X020904Y010307D03*
X020900Y010339D03*
X020900Y010341D03*
X020890Y010417D03*
X020890Y010419D03*
X020890Y010421D03*
X020888Y010435D03*
X020888Y010437D03*
X020888Y010439D03*
X020888Y010441D03*
X020886Y010449D03*
X020886Y010451D03*
X020886Y010455D03*
X020886Y010457D03*
X020884Y010465D03*
X020884Y010467D03*
X020884Y010469D03*
X020884Y010471D03*
X020880Y010497D03*
X020880Y010499D03*
X020880Y010501D03*
X020880Y010505D03*
X020880Y010507D03*
X020878Y010515D03*
X020878Y010517D03*
X020878Y010519D03*
X020878Y010521D03*
X020876Y010525D03*
X020876Y010527D03*
X020876Y010529D03*
X020876Y010531D03*
X020876Y010535D03*
X020876Y010537D03*
X020876Y010539D03*
X020876Y010541D03*
X020870Y010575D03*
X020870Y010577D03*
X020870Y010579D03*
X020870Y010581D03*
X020870Y010585D03*
X020870Y010587D03*
X020870Y010589D03*
X020868Y010595D03*
X020868Y010597D03*
X020868Y010599D03*
X020868Y010601D03*
X020868Y010605D03*
X020866Y010609D03*
X020866Y010611D03*
X020866Y010615D03*
X020866Y010617D03*
X021220Y011237D03*
D362*
X021285Y010133D03*
D363*
X021286Y010139D03*
X021286Y010141D03*
D364*
X021285Y010143D03*
X021285Y010153D03*
D365*
X021285Y010151D03*
X021285Y010149D03*
X021285Y010147D03*
X021285Y010145D03*
D366*
X021284Y010155D03*
D367*
X021285Y010157D03*
X021285Y010159D03*
X021285Y010161D03*
D368*
X020920Y010163D03*
X020916Y010193D03*
X020910Y010243D03*
X020910Y010253D03*
X020908Y010263D03*
X020908Y010273D03*
X020906Y010283D03*
X020904Y010303D03*
X020890Y010423D03*
X020888Y010433D03*
X020886Y010453D03*
X020884Y010473D03*
X020880Y010503D03*
X020878Y010513D03*
X020878Y010523D03*
X020876Y010533D03*
X020870Y010583D03*
X020868Y010593D03*
X020868Y010603D03*
X020866Y010613D03*
D369*
X020782Y010693D03*
X021144Y010163D03*
D370*
X021385Y010163D03*
X020815Y010733D03*
D371*
X021150Y010889D03*
X021144Y010167D03*
X021144Y010165D03*
D372*
X021518Y010169D03*
X021518Y010167D03*
X021518Y010165D03*
X021518Y010171D03*
X021518Y010175D03*
X021218Y011221D03*
D373*
X021303Y011039D03*
X021153Y010891D03*
X021121Y010861D03*
X021143Y010179D03*
X021143Y010177D03*
X021143Y010175D03*
X021143Y010171D03*
X021143Y010169D03*
D374*
X021143Y010173D03*
D375*
X021518Y010173D03*
D376*
X021519Y010177D03*
X021519Y010179D03*
X021519Y010181D03*
X021519Y010185D03*
X021519Y010187D03*
X021519Y010189D03*
X021519Y010191D03*
X021119Y011121D03*
X021123Y011125D03*
X021125Y011127D03*
X021129Y011131D03*
X021133Y011135D03*
X021135Y011137D03*
X021139Y011141D03*
X021143Y011145D03*
X021145Y011147D03*
X021149Y011151D03*
X021153Y011155D03*
X021155Y011157D03*
D377*
X021142Y010191D03*
X021142Y010189D03*
X021142Y010187D03*
X021142Y010185D03*
X021142Y010181D03*
D378*
X021142Y010183D03*
X021142Y010193D03*
D379*
X021519Y010193D03*
X021519Y010183D03*
X021121Y011123D03*
X021131Y011133D03*
X021141Y011143D03*
X021151Y011153D03*
D380*
X021303Y011037D03*
X021117Y010855D03*
X021139Y010219D03*
X021139Y010217D03*
X021139Y010215D03*
X021139Y010211D03*
X021139Y010209D03*
X021141Y010201D03*
X021141Y010199D03*
X021141Y010197D03*
X021141Y010195D03*
D381*
X021140Y010203D03*
D382*
X021520Y010203D03*
X021082Y011083D03*
X021092Y011093D03*
X021102Y011103D03*
X021112Y011113D03*
D383*
X021075Y011075D03*
X021069Y011069D03*
X021067Y011067D03*
X021065Y011065D03*
X021059Y011059D03*
X021057Y011057D03*
X021055Y011055D03*
X021049Y011049D03*
X021047Y011047D03*
X021045Y011045D03*
X021039Y011039D03*
X021037Y011037D03*
X021035Y011035D03*
X021519Y010211D03*
X021519Y010209D03*
X021519Y010207D03*
X021519Y010205D03*
D384*
X021139Y010213D03*
X021115Y010853D03*
D385*
X020994Y010993D03*
X021004Y011003D03*
X021014Y011013D03*
X021024Y011023D03*
X021034Y011033D03*
X021520Y010223D03*
X021520Y010213D03*
D386*
X021138Y010223D03*
X021138Y010233D03*
D387*
X021137Y010235D03*
X021137Y010237D03*
X021137Y010239D03*
X021137Y010241D03*
X021137Y010245D03*
D388*
X021137Y010243D03*
X021159Y010893D03*
X021505Y010793D03*
D389*
X021136Y010259D03*
X021136Y010257D03*
X021136Y010255D03*
X021136Y010251D03*
X021136Y010249D03*
X021136Y010247D03*
D390*
X021522Y010251D03*
X021522Y010255D03*
X021522Y010257D03*
X021522Y010259D03*
X021522Y010261D03*
X021522Y010265D03*
X021522Y010267D03*
X021522Y010269D03*
X020912Y010909D03*
X020922Y010919D03*
X020932Y010929D03*
X020942Y010939D03*
X020952Y010949D03*
D391*
X021136Y010253D03*
D392*
X021522Y010253D03*
X021522Y010263D03*
D393*
X021135Y010267D03*
X021135Y010265D03*
X021135Y010261D03*
X021135Y010269D03*
X021135Y010271D03*
X021133Y010279D03*
X021133Y010281D03*
X021133Y010285D03*
X021111Y010845D03*
X021505Y010791D03*
D394*
X021303Y011033D03*
X021133Y010283D03*
X021135Y010273D03*
X021135Y010263D03*
D395*
X021523Y010271D03*
X021523Y010275D03*
X021523Y010277D03*
X021523Y010279D03*
X021523Y010281D03*
X021523Y010285D03*
X020903Y010899D03*
X020901Y010897D03*
X020893Y010889D03*
X020891Y010887D03*
X020883Y010879D03*
X020881Y010877D03*
X020873Y010869D03*
X020871Y010867D03*
D396*
X021523Y010283D03*
X021523Y010273D03*
D397*
X021134Y010277D03*
X021134Y010275D03*
X021132Y010287D03*
X021132Y010289D03*
X021132Y010291D03*
X021132Y010295D03*
X021132Y010297D03*
X021132Y010299D03*
X021108Y010841D03*
X021302Y011031D03*
D398*
X021293Y011151D03*
X021289Y011155D03*
X021289Y011157D03*
X020825Y010819D03*
X020823Y010817D03*
X020821Y010815D03*
X020815Y010809D03*
X020813Y010807D03*
X020811Y010805D03*
X020805Y010799D03*
X020803Y010797D03*
X020801Y010795D03*
X020795Y010789D03*
X020793Y010787D03*
X020791Y010785D03*
X020901Y010725D03*
X021523Y010307D03*
X021523Y010305D03*
X021523Y010301D03*
X021523Y010299D03*
X021523Y010297D03*
X021523Y010295D03*
X021523Y010291D03*
X021523Y010289D03*
D399*
X021132Y010293D03*
X021110Y010843D03*
D400*
X020819Y010813D03*
X020809Y010803D03*
X020799Y010793D03*
X020789Y010783D03*
X021291Y011153D03*
X021523Y010303D03*
X021523Y010293D03*
D401*
X021131Y010301D03*
X021131Y010305D03*
X021131Y010307D03*
X021131Y010309D03*
X021131Y010311D03*
D402*
X021131Y010313D03*
X021131Y010303D03*
D403*
X021524Y010313D03*
X021524Y010323D03*
X020780Y010773D03*
X020770Y010763D03*
X020760Y010753D03*
X021298Y011143D03*
D404*
X021302Y011029D03*
X021504Y010789D03*
X021130Y010325D03*
X021130Y010321D03*
X021130Y010319D03*
X021130Y010317D03*
X021130Y010315D03*
D405*
X021130Y010323D03*
D406*
X021525Y010327D03*
X021525Y010329D03*
X021525Y010331D03*
X021525Y010335D03*
X021525Y010337D03*
X021525Y010339D03*
X021525Y010341D03*
X020753Y010745D03*
X020749Y010741D03*
X020739Y010731D03*
X020733Y010725D03*
X020729Y010721D03*
X020725Y010717D03*
X020723Y010715D03*
X020719Y010711D03*
X020715Y010707D03*
X020713Y010705D03*
X020709Y010701D03*
X020705Y010697D03*
X021299Y011141D03*
X021301Y011139D03*
D407*
X021129Y010333D03*
D408*
X021525Y010333D03*
X021525Y010343D03*
X020751Y010743D03*
X020741Y010733D03*
X020731Y010723D03*
X020721Y010713D03*
X020711Y010703D03*
D409*
X021526Y010353D03*
D410*
X021525Y010363D03*
X021305Y011133D03*
D411*
X021310Y011125D03*
X021216Y011205D03*
X020740Y010729D03*
X020706Y010695D03*
X021526Y010381D03*
X021526Y010379D03*
X021526Y010377D03*
X021526Y010375D03*
X021526Y010371D03*
X021526Y010369D03*
X021526Y010367D03*
X021526Y010365D03*
D412*
X021526Y010373D03*
D413*
X021520Y010571D03*
X020874Y010567D03*
X020874Y010565D03*
X020874Y010561D03*
X020874Y010559D03*
X020894Y010395D03*
X020896Y010377D03*
X020896Y010375D03*
D414*
X020981Y010383D03*
X021223Y011263D03*
D415*
X020874Y010563D03*
X020894Y010393D03*
D416*
X020980Y010393D03*
X020980Y010403D03*
X021540Y010573D03*
X021540Y010583D03*
X021540Y010593D03*
X021540Y010603D03*
D417*
X020892Y010411D03*
X020892Y010409D03*
D418*
X020892Y010413D03*
D419*
X021529Y010423D03*
X021529Y010433D03*
D420*
X021530Y010443D03*
D421*
X020977Y010453D03*
D422*
X021529Y010453D03*
D423*
X021532Y010503D03*
D424*
X021419Y010513D03*
X021299Y010993D03*
D425*
X021420Y010531D03*
X021420Y010529D03*
X021420Y010527D03*
X021420Y010525D03*
X021420Y010521D03*
X021420Y010519D03*
X021420Y010517D03*
X021420Y010515D03*
D426*
X021420Y010523D03*
X021420Y010533D03*
D427*
X020972Y010533D03*
D428*
X021409Y010535D03*
D429*
X021374Y010537D03*
X021294Y010941D03*
D430*
X021343Y010539D03*
D431*
X021276Y010541D03*
X021276Y010545D03*
X021276Y010547D03*
X021276Y010549D03*
D432*
X021276Y010543D03*
D433*
X021275Y010551D03*
D434*
X021276Y010553D03*
X021276Y010563D03*
D435*
X021276Y010561D03*
X021276Y010559D03*
X021276Y010557D03*
X021276Y010555D03*
D436*
X021262Y010569D03*
D437*
X021195Y010571D03*
D438*
X021149Y010573D03*
D439*
X021481Y010573D03*
D440*
X021102Y010575D03*
X021100Y010821D03*
X021302Y011019D03*
D441*
X021226Y011159D03*
X021060Y010577D03*
D442*
X020586Y010583D03*
D443*
X020587Y010593D03*
D444*
X020589Y010597D03*
X021219Y011227D03*
D445*
X020600Y010607D03*
X020598Y010605D03*
X020590Y010599D03*
D446*
X020592Y010601D03*
D447*
X020596Y010603D03*
D448*
X020916Y010913D03*
X020926Y010923D03*
X020936Y010933D03*
X020946Y010943D03*
X021686Y010603D03*
D449*
X021705Y010605D03*
X021215Y011191D03*
D450*
X020603Y010609D03*
D451*
X021304Y011047D03*
X021646Y010609D03*
D452*
X021219Y011225D03*
X020605Y010611D03*
D453*
X021573Y010611D03*
D454*
X020607Y010613D03*
D455*
X021500Y010613D03*
D456*
X020614Y010619D03*
X020612Y010617D03*
X020610Y010615D03*
D457*
X021427Y010615D03*
D458*
X021306Y010619D03*
D459*
X020616Y010621D03*
D460*
X021305Y010621D03*
D461*
X020618Y010623D03*
D462*
X021177Y010625D03*
D463*
X021178Y010627D03*
D464*
X021179Y010629D03*
D465*
X021180Y010631D03*
D466*
X021181Y010633D03*
D467*
X021182Y010635D03*
D468*
X021183Y010637D03*
D469*
X021184Y010639D03*
D470*
X021185Y010641D03*
D471*
X021186Y010643D03*
D472*
X021187Y010645D03*
D473*
X021187Y010647D03*
D474*
X021188Y010649D03*
D475*
X021189Y010651D03*
D476*
X021190Y010653D03*
D477*
X021190Y010655D03*
D478*
X021175Y010657D03*
D479*
X021174Y010659D03*
D480*
X021152Y010661D03*
D481*
X021140Y010663D03*
D482*
X021138Y010665D03*
D483*
X021136Y010667D03*
D484*
X021132Y010671D03*
D485*
X021131Y010673D03*
D486*
X021130Y010675D03*
D487*
X021129Y010677D03*
D488*
X021129Y010679D03*
D489*
X021128Y010681D03*
D490*
X021128Y010683D03*
D491*
X021128Y010685D03*
D492*
X021010Y010687D03*
D493*
X020934Y010689D03*
D494*
X020858Y010691D03*
X021296Y010957D03*
D495*
X021297Y011145D03*
X020727Y010719D03*
X020717Y010709D03*
X020707Y010699D03*
D496*
X021220Y011233D03*
X021560Y010713D03*
X021568Y010703D03*
D497*
X021565Y010707D03*
X021563Y010709D03*
X021559Y010715D03*
X021555Y010719D03*
D498*
X021557Y010717D03*
D499*
X021554Y010721D03*
X021550Y010725D03*
X021220Y011231D03*
D500*
X021552Y010723D03*
D501*
X021503Y010829D03*
X021305Y011065D03*
X020961Y010727D03*
D502*
X021022Y010729D03*
X021300Y011001D03*
D503*
X021083Y010731D03*
D504*
X021144Y010733D03*
D505*
X021543Y010733D03*
D506*
X021304Y011135D03*
X021302Y011137D03*
X020744Y010735D03*
D507*
X021218Y010735D03*
D508*
X021265Y010737D03*
X021277Y010749D03*
D509*
X021276Y010739D03*
D510*
X021276Y010741D03*
D511*
X021277Y010747D03*
D512*
X021277Y010751D03*
D513*
X021277Y010753D03*
D514*
X021277Y010755D03*
D515*
X021279Y010759D03*
D516*
X021279Y010761D03*
D517*
X021279Y010763D03*
D518*
X021279Y010765D03*
D519*
X021279Y010767D03*
D520*
X021279Y010769D03*
D521*
X021280Y010773D03*
D522*
X021280Y010775D03*
D523*
X021280Y010777D03*
D524*
X021280Y010779D03*
D525*
X020827Y010821D03*
X020817Y010811D03*
X020807Y010801D03*
X020797Y010791D03*
X020787Y010781D03*
X021217Y011211D03*
D526*
X021280Y010783D03*
D527*
X021106Y010785D03*
D528*
X021496Y010785D03*
D529*
X021101Y010787D03*
D530*
X021502Y010787D03*
X021302Y011025D03*
D531*
X021299Y010985D03*
X021099Y010789D03*
D532*
X021098Y010791D03*
D533*
X021097Y010793D03*
D534*
X021097Y010795D03*
D535*
X021096Y010797D03*
D536*
X021119Y010859D03*
X021507Y010797D03*
D537*
X021300Y010999D03*
X021096Y010799D03*
D538*
X021507Y010799D03*
D539*
X021096Y010801D03*
D540*
X021137Y010879D03*
X021507Y010801D03*
D541*
X021300Y011003D03*
X021096Y010803D03*
D542*
X021507Y010803D03*
D543*
X021300Y011005D03*
X021096Y010805D03*
D544*
X021507Y010805D03*
D545*
X021097Y010807D03*
D546*
X021507Y010807D03*
D547*
X021097Y010809D03*
D548*
X021508Y010809D03*
D549*
X021097Y010811D03*
D550*
X021507Y010811D03*
D551*
X021098Y010813D03*
D552*
X021507Y010813D03*
D553*
X021098Y010815D03*
D554*
X021506Y010815D03*
D555*
X021301Y011015D03*
X021099Y010817D03*
D556*
X021099Y010819D03*
D557*
X021305Y011059D03*
X021505Y010821D03*
X021505Y010819D03*
D558*
X020868Y010863D03*
X020858Y010853D03*
X020848Y010843D03*
X020838Y010833D03*
X020828Y010823D03*
D559*
X021101Y010823D03*
D560*
X021505Y010823D03*
D561*
X021504Y010825D03*
D562*
X021102Y010827D03*
D563*
X021503Y010827D03*
D564*
X021103Y010829D03*
D565*
X020866Y010861D03*
X020856Y010851D03*
X020846Y010841D03*
X020836Y010831D03*
D566*
X021104Y010831D03*
D567*
X021502Y010831D03*
D568*
X021105Y010833D03*
D569*
X021502Y010833D03*
D570*
X021106Y010835D03*
D571*
X021501Y010835D03*
D572*
X021106Y010837D03*
D573*
X021107Y010839D03*
D574*
X021499Y010839D03*
D575*
X021498Y010841D03*
X021306Y011071D03*
X021226Y011165D03*
D576*
X021497Y010843D03*
D577*
X021496Y010845D03*
X021496Y010847D03*
X021458Y010891D03*
X021226Y011167D03*
D578*
X021112Y010847D03*
D579*
X021113Y010849D03*
X021303Y011035D03*
D580*
X021306Y011077D03*
X021468Y010885D03*
X021488Y010861D03*
D581*
X021123Y010863D03*
D582*
X021486Y010863D03*
D583*
X020909Y010905D03*
X020905Y010901D03*
X020899Y010895D03*
X020895Y010891D03*
X020889Y010885D03*
X020885Y010881D03*
X020879Y010875D03*
X020875Y010871D03*
X020869Y010865D03*
D584*
X021485Y010865D03*
D585*
X021146Y010887D03*
X021144Y010885D03*
X021130Y010871D03*
X021128Y010869D03*
X021126Y010867D03*
D586*
X020907Y010903D03*
X020897Y010893D03*
X020887Y010883D03*
X020877Y010873D03*
X021217Y011213D03*
D587*
X021303Y011043D03*
X021141Y010883D03*
X021131Y010873D03*
D588*
X021227Y011173D03*
X021479Y010873D03*
D589*
X021139Y010881D03*
X021135Y010877D03*
X021133Y010875D03*
D590*
X021306Y011079D03*
X021474Y010879D03*
X021476Y010877D03*
X021478Y010875D03*
D591*
X021470Y010883D03*
D592*
X021453Y010893D03*
D593*
X021291Y010895D03*
D594*
X021291Y010897D03*
D595*
X021291Y010899D03*
D596*
X021291Y010901D03*
D597*
X021291Y010903D03*
D598*
X021291Y010905D03*
D599*
X021218Y011215D03*
X020950Y010947D03*
X020948Y010945D03*
X020944Y010941D03*
X020940Y010937D03*
X020938Y010935D03*
X020934Y010931D03*
X020930Y010927D03*
X020928Y010925D03*
X020924Y010921D03*
X020920Y010917D03*
X020918Y010915D03*
X020914Y010911D03*
X020910Y010907D03*
D600*
X021292Y010907D03*
D601*
X021292Y010909D03*
D602*
X021292Y010911D03*
D603*
X021292Y010915D03*
D604*
X021292Y010917D03*
D605*
X021292Y010919D03*
D606*
X021293Y010921D03*
D607*
X021293Y010923D03*
D608*
X021293Y010927D03*
D609*
X021293Y010929D03*
D610*
X021293Y010931D03*
D611*
X021294Y010933D03*
D612*
X021294Y010935D03*
D613*
X021294Y010937D03*
D614*
X021294Y010939D03*
D615*
X021294Y010943D03*
D616*
X021295Y010945D03*
D617*
X021295Y010949D03*
D618*
X021295Y010953D03*
D619*
X021295Y010955D03*
D620*
X021296Y010959D03*
D621*
X021296Y010963D03*
D622*
X021296Y010965D03*
D623*
X021297Y010969D03*
D624*
X021297Y010971D03*
D625*
X021297Y010973D03*
D626*
X021297Y010975D03*
D627*
X021297Y010977D03*
D628*
X021297Y010979D03*
D629*
X021297Y010981D03*
D630*
X021299Y010987D03*
D631*
X021299Y010989D03*
D632*
X021299Y010991D03*
D633*
X021300Y010995D03*
D634*
X021032Y011031D03*
X021022Y011021D03*
X021012Y011011D03*
X021002Y011001D03*
D635*
X021301Y011007D03*
D636*
X021301Y011009D03*
D637*
X021301Y011011D03*
D638*
X021301Y011013D03*
D639*
X021301Y011017D03*
D640*
X021302Y011021D03*
D641*
X021302Y011023D03*
D642*
X021302Y011027D03*
D643*
X021071Y011071D03*
X021061Y011061D03*
X021051Y011051D03*
X021041Y011041D03*
D644*
X021043Y011043D03*
X021053Y011053D03*
X021063Y011063D03*
X021073Y011073D03*
D645*
X021304Y011045D03*
D646*
X021304Y011051D03*
D647*
X021304Y011053D03*
D648*
X021304Y011055D03*
D649*
X021305Y011057D03*
D650*
X021305Y011061D03*
D651*
X021305Y011063D03*
D652*
X021305Y011067D03*
D653*
X021306Y011073D03*
D654*
X021307Y011087D03*
D655*
X021310Y011113D03*
D656*
X021147Y011149D03*
X021137Y011139D03*
X021127Y011129D03*
X021117Y011119D03*
D657*
X021226Y011161D03*
D658*
X021226Y011163D03*
D659*
X021227Y011171D03*
D660*
X021215Y011193D03*
D661*
X021317Y011195D03*
D662*
X021317Y011199D03*
D663*
X021219Y011223D03*
D664*
X021221Y011241D03*
D665*
X021222Y011251D03*
D666*
X021224Y011273D03*
D667*
X021226Y011283D03*
D668*
X022611Y011691D02*
X022611Y012191D01*
X022861Y012441D01*
X022611Y012691D01*
X022611Y013191D01*
X022861Y013441D01*
X022611Y013691D01*
X022611Y014191D01*
X022861Y014441D01*
X022611Y014691D01*
X022611Y015191D01*
X022861Y015441D01*
X022611Y015691D01*
X022611Y016191D01*
X022861Y016441D01*
X022611Y016691D01*
X022611Y017191D01*
X022861Y017441D01*
X023361Y017441D01*
X023611Y017191D01*
X023611Y016691D01*
X023361Y016441D01*
X023611Y016191D01*
X023611Y015691D01*
X023361Y015441D01*
X022861Y015441D01*
X023361Y015441D02*
X023611Y015191D01*
X023611Y014691D01*
X023361Y014441D01*
X023611Y014191D01*
X023611Y013691D01*
X023361Y013441D01*
X023611Y013191D01*
X023611Y012691D01*
X023361Y012441D01*
X023611Y012191D01*
X023611Y011691D01*
X023361Y011441D01*
X022861Y011441D01*
X022611Y011691D01*
X022911Y011241D02*
X023311Y011241D01*
X023411Y011214D01*
X023484Y011141D01*
X023511Y011041D01*
X023511Y006441D01*
X023461Y006391D02*
X022761Y006391D01*
X022761Y007091D01*
X023461Y007091D01*
X023461Y006391D01*
X023511Y006441D02*
X023484Y006341D01*
X023411Y006268D01*
X023311Y006241D01*
X022911Y006241D01*
X022811Y006268D01*
X022738Y006341D01*
X022711Y006441D01*
X022711Y011041D01*
X022738Y011141D01*
X022811Y011214D01*
X022911Y011241D01*
X022861Y012441D02*
X023361Y012441D01*
X023361Y013441D02*
X022861Y013441D01*
X022261Y013691D02*
X022261Y013841D01*
X022211Y013891D01*
X022211Y015791D01*
X022261Y015841D01*
X022261Y015991D01*
X022248Y016041D01*
X022211Y016078D01*
X022161Y016091D01*
X021461Y016091D01*
X021411Y016078D01*
X021374Y016041D01*
X021361Y015991D01*
X021361Y015841D01*
X021411Y015791D01*
X021411Y013891D01*
X021361Y013841D01*
X021361Y013691D01*
X021374Y013641D01*
X021411Y013604D01*
X021461Y013591D01*
X022161Y013591D01*
X022211Y013604D01*
X022248Y013641D01*
X022261Y013691D01*
X021311Y013541D02*
X021311Y015141D01*
X021298Y015191D01*
X021261Y015228D01*
X021211Y015241D01*
X020611Y015241D01*
X020561Y015228D01*
X020524Y015191D01*
X020511Y015141D01*
X020511Y013541D01*
X020524Y013491D01*
X020561Y013454D01*
X020611Y013441D01*
X021211Y013441D01*
X021261Y013454D01*
X021298Y013491D01*
X021311Y013541D01*
X020911Y013741D02*
X020911Y014341D01*
X021161Y014341D01*
X021161Y014241D01*
X020911Y014341D02*
X020661Y013941D01*
X021161Y013941D01*
X020911Y014341D01*
X020661Y014341D01*
X020911Y014341D02*
X020911Y014591D01*
X022861Y014441D02*
X023361Y014441D01*
X023361Y016441D02*
X022861Y016441D01*
X024461Y018441D02*
X024961Y018441D01*
X025061Y018468D01*
X025134Y018541D01*
X025161Y018641D01*
X025161Y019941D01*
X025134Y020041D01*
X025061Y020114D01*
X024961Y020141D01*
X024461Y020141D01*
X024361Y020114D01*
X024288Y020041D01*
X024261Y019941D01*
X024261Y018641D01*
X024288Y018541D01*
X024361Y018468D01*
X024461Y018441D01*
X024111Y019291D02*
X024111Y021591D01*
X020111Y021591D01*
X020111Y020841D01*
X020264Y020811D01*
X020394Y020724D01*
X020481Y020594D01*
X020511Y020441D01*
X020481Y020288D01*
X020394Y020158D01*
X020264Y020071D01*
X020111Y020041D01*
X020111Y019291D01*
X024111Y019291D01*
X018561Y019391D02*
X018561Y018691D01*
X018548Y018641D01*
X018511Y018604D01*
X018461Y018591D01*
X018311Y018591D01*
X018261Y018641D01*
X016361Y018641D01*
X016311Y018591D01*
X016161Y018591D01*
X016111Y018604D01*
X016074Y018641D01*
X016061Y018691D01*
X016061Y019391D01*
X016074Y019441D01*
X016111Y019478D01*
X016161Y019491D01*
X016311Y019491D01*
X016361Y019441D01*
X018261Y019441D01*
X018311Y019491D01*
X018461Y019491D01*
X018511Y019478D01*
X018548Y019441D01*
X018561Y019391D01*
X018461Y019591D02*
X018311Y019591D01*
X018261Y019641D01*
X016361Y019641D01*
X016311Y019591D01*
X016161Y019591D01*
X016111Y019604D01*
X016074Y019641D01*
X016061Y019691D01*
X016061Y020391D01*
X016074Y020441D01*
X016111Y020478D01*
X016161Y020491D01*
X016311Y020491D01*
X016361Y020441D01*
X018261Y020441D01*
X018311Y020491D01*
X018461Y020491D01*
X018511Y020478D01*
X018548Y020441D01*
X018561Y020391D01*
X018561Y019691D01*
X018548Y019641D01*
X018511Y019604D01*
X018461Y019591D01*
X018461Y020591D02*
X018311Y020591D01*
X018261Y020641D01*
X016361Y020641D01*
X016311Y020591D01*
X016161Y020591D01*
X016111Y020604D01*
X016074Y020641D01*
X016061Y020691D01*
X016061Y021391D01*
X016074Y021441D01*
X016111Y021478D01*
X016161Y021491D01*
X016311Y021491D01*
X016361Y021441D01*
X018261Y021441D01*
X018311Y021491D01*
X018461Y021491D01*
X018511Y021478D01*
X018548Y021441D01*
X018561Y021391D01*
X018561Y020691D01*
X018548Y020641D01*
X018511Y020604D01*
X018461Y020591D01*
X018461Y021591D02*
X018311Y021591D01*
X018261Y021641D01*
X016361Y021641D01*
X016311Y021591D01*
X016161Y021591D01*
X016111Y021604D01*
X016074Y021641D01*
X016061Y021691D01*
X016061Y022391D01*
X016074Y022441D01*
X016111Y022478D01*
X016161Y022491D01*
X016311Y022491D01*
X016361Y022441D01*
X018261Y022441D01*
X018311Y022491D01*
X018461Y022491D01*
X018511Y022478D01*
X018548Y022441D01*
X018561Y022391D01*
X018561Y021691D01*
X018548Y021641D01*
X018511Y021604D01*
X018461Y021591D01*
X014311Y019091D02*
X014311Y018791D01*
X014161Y018941D02*
X014461Y018941D01*
X013261Y019441D02*
X013161Y019441D01*
X013161Y018991D01*
X012911Y018991D01*
X012911Y019891D01*
X013161Y019891D01*
X013161Y019441D01*
X010811Y019441D02*
X010849Y019831D01*
X010963Y020206D01*
X011148Y020552D01*
X011397Y020855D01*
X011700Y021104D01*
X012046Y021289D01*
X012421Y021403D01*
X012811Y021441D01*
X013201Y021403D01*
X013576Y021289D01*
X013922Y021104D01*
X014225Y020855D01*
X014474Y020552D01*
X014659Y020206D01*
X014773Y019831D01*
X014811Y019441D01*
X014773Y019051D01*
X014659Y018676D01*
X014474Y018330D01*
X014225Y018027D01*
X013922Y017778D01*
X013576Y017593D01*
X013201Y017479D01*
X012811Y017441D01*
X012421Y017479D01*
X012046Y017593D01*
X011700Y017778D01*
X011397Y018027D01*
X011148Y018330D01*
X010963Y018676D01*
X010849Y019051D01*
X010811Y019441D01*
X009311Y019841D02*
X007111Y019841D01*
X007111Y005241D01*
X007961Y005241D01*
X007986Y005349D01*
X008055Y005436D01*
X008155Y005485D01*
X008267Y005485D01*
X008367Y005436D01*
X008436Y005349D01*
X008461Y005241D01*
X009311Y005241D01*
X009311Y019841D01*
X012361Y019441D02*
X012561Y019441D01*
X011381Y015931D02*
X014081Y015931D01*
X014335Y015895D01*
X014568Y015788D01*
X014761Y015620D01*
X014900Y015405D01*
X014972Y015159D01*
X014972Y014903D01*
X014900Y014657D01*
X014761Y014442D01*
X014568Y014274D01*
X014335Y014167D01*
X014081Y014131D01*
X011381Y014131D01*
X011691Y014051D02*
X010891Y014051D01*
X010841Y014038D01*
X010804Y014001D01*
X010791Y013951D01*
X010791Y012251D01*
X010804Y012201D01*
X010841Y012164D01*
X010891Y012151D01*
X011691Y012151D01*
X011741Y012164D01*
X011778Y012201D01*
X011791Y012251D01*
X011791Y013951D01*
X011778Y014001D01*
X011741Y014038D01*
X011691Y014051D01*
X011291Y013251D02*
X011291Y013201D01*
X011291Y013001D02*
X011291Y012951D01*
X013541Y012251D02*
X013541Y013951D01*
X013554Y014001D01*
X013591Y014038D01*
X013641Y014051D01*
X014441Y014051D01*
X014491Y014038D01*
X014528Y014001D01*
X014541Y013951D01*
X014541Y012251D01*
X014528Y012201D01*
X014491Y012164D01*
X014441Y012151D01*
X013641Y012151D01*
X013591Y012164D01*
X013554Y012201D01*
X013541Y012251D01*
X014041Y012951D02*
X014041Y013001D01*
X014041Y013201D02*
X014041Y013251D01*
X015111Y014441D02*
X015111Y009841D01*
X015161Y009791D02*
X015861Y009791D01*
X015861Y010491D01*
X015161Y010491D01*
X015161Y009791D01*
X015111Y009841D02*
X015138Y009741D01*
X015211Y009668D01*
X015311Y009641D01*
X015711Y009641D01*
X015811Y009668D01*
X015884Y009741D01*
X015911Y009841D01*
X015911Y014441D01*
X015884Y014541D01*
X015811Y014614D01*
X015711Y014641D01*
X015311Y014641D01*
X015211Y014614D01*
X015138Y014541D01*
X015111Y014441D01*
X011381Y014131D02*
X011127Y014167D01*
X010894Y014274D01*
X010701Y014442D01*
X010562Y014657D01*
X010490Y014903D01*
X010490Y015159D01*
X010562Y015405D01*
X010701Y015620D01*
X010894Y015788D01*
X011127Y015895D01*
X011381Y015931D01*
X006111Y016391D02*
X006111Y013691D01*
X006098Y013641D01*
X006061Y013604D01*
X006011Y013591D01*
X005211Y013591D01*
X005211Y013491D02*
X006011Y013491D01*
X006061Y013478D01*
X006098Y013441D01*
X006111Y013391D01*
X006111Y010691D01*
X006098Y010641D01*
X006061Y010604D01*
X006011Y010591D01*
X005211Y010591D01*
X005161Y010604D01*
X005124Y010641D01*
X005111Y010691D01*
X005111Y013391D01*
X005124Y013441D01*
X005161Y013478D01*
X005211Y013491D01*
X005211Y013591D02*
X005161Y013604D01*
X005124Y013641D01*
X005111Y013691D01*
X005111Y016391D01*
X005124Y016441D01*
X005161Y016478D01*
X005211Y016491D01*
X006011Y016491D01*
X006061Y016478D01*
X006098Y016441D01*
X006111Y016391D01*
X005611Y015641D02*
X005611Y015161D01*
X005611Y014911D02*
X005611Y014441D01*
X005611Y012641D02*
X005611Y012161D01*
X005611Y011911D02*
X005611Y011441D01*
X004961Y011391D02*
X004861Y011391D01*
X004861Y006141D01*
X004961Y006141D01*
X004961Y005641D01*
X004861Y005641D01*
X004861Y005141D01*
X001361Y005141D01*
X001361Y006991D01*
X001561Y007141D01*
X001561Y007341D01*
X001561Y007941D01*
X001561Y008141D01*
X001361Y008291D01*
X001361Y010841D01*
X001761Y010841D01*
X001861Y010841D01*
X001861Y007941D01*
X001861Y007341D01*
X001761Y007341D01*
X001561Y007341D01*
X001861Y007341D02*
X001861Y005641D01*
X004361Y005641D01*
X004361Y017641D01*
X001861Y017641D01*
X001861Y014941D01*
X001861Y014341D01*
X001761Y014341D01*
X001561Y014341D01*
X001561Y014141D01*
X001361Y013991D01*
X001361Y012441D01*
X001761Y012441D01*
X001861Y012441D01*
X001861Y014341D01*
X001561Y014341D02*
X001561Y014941D01*
X001561Y015141D01*
X001361Y015291D01*
X001361Y015841D01*
X001411Y015841D01*
X001411Y016441D01*
X001361Y016441D01*
X001361Y018141D01*
X004861Y018141D01*
X004861Y017641D01*
X004961Y017641D01*
X004961Y017141D01*
X004861Y017141D01*
X004861Y011891D01*
X004961Y011891D01*
X004961Y011391D01*
X002161Y010841D02*
X001861Y010841D01*
X002161Y010841D02*
X002161Y012441D01*
X001861Y012441D01*
X001361Y012441D02*
X001361Y010841D01*
X001561Y007941D02*
X001761Y007941D01*
X001861Y007941D01*
X002773Y004841D02*
X006373Y004841D01*
X006373Y003441D01*
X002773Y003441D01*
X002773Y004841D01*
X004711Y003341D02*
X006311Y003341D01*
X006361Y003328D01*
X006398Y003291D01*
X006411Y003241D01*
X006411Y002641D01*
X006398Y002591D01*
X006361Y002554D01*
X006311Y002541D01*
X004711Y002541D01*
X004661Y002554D01*
X004624Y002591D01*
X004611Y002641D01*
X004611Y003241D01*
X004624Y003291D01*
X004661Y003328D01*
X004711Y003341D01*
X005111Y003191D02*
X005511Y002941D01*
X005511Y002691D01*
X005411Y002691D01*
X005511Y002941D02*
X004911Y002941D01*
X005111Y002691D02*
X005511Y002941D01*
X005511Y003191D01*
X005511Y002941D02*
X005761Y002941D01*
X005111Y002691D02*
X005111Y003191D01*
X004511Y002491D02*
X004361Y002491D01*
X004311Y002478D01*
X004274Y002441D01*
X004261Y002391D01*
X004261Y001691D01*
X004274Y001641D01*
X004311Y001604D01*
X004361Y001591D01*
X004511Y001591D01*
X004561Y001641D01*
X006461Y001641D01*
X006511Y001591D01*
X006661Y001591D01*
X006661Y001491D02*
X006511Y001491D01*
X006461Y001441D01*
X004561Y001441D01*
X004511Y001491D01*
X004361Y001491D01*
X004311Y001478D01*
X004274Y001441D01*
X004261Y001391D01*
X004261Y000691D01*
X004274Y000641D01*
X004311Y000604D01*
X004361Y000591D01*
X004511Y000591D01*
X004561Y000641D01*
X006461Y000641D01*
X006511Y000591D01*
X006661Y000591D01*
X006711Y000604D01*
X006748Y000641D01*
X006761Y000691D01*
X006761Y001391D01*
X006748Y001441D01*
X006711Y001478D01*
X006661Y001491D01*
X006661Y001591D02*
X006711Y001604D01*
X006748Y001641D01*
X006761Y001691D01*
X006761Y002391D01*
X006748Y002441D01*
X006711Y002478D01*
X006661Y002491D01*
X006511Y002491D01*
X006461Y002441D01*
X004561Y002441D01*
X004511Y002491D01*
X008511Y001791D02*
X008511Y004491D01*
X008524Y004541D01*
X008561Y004578D01*
X008611Y004591D01*
X009411Y004591D01*
X009461Y004578D01*
X009498Y004541D01*
X009511Y004491D01*
X009511Y001791D01*
X009498Y001741D01*
X009461Y001704D01*
X009411Y001691D01*
X008611Y001691D01*
X008561Y001704D01*
X008524Y001741D01*
X008511Y001791D01*
X009011Y002541D02*
X009011Y003011D01*
X009011Y003261D02*
X009011Y003741D01*
X009661Y003791D02*
X009661Y002491D01*
X009688Y002391D01*
X009761Y002318D01*
X009861Y002291D01*
X010361Y002291D02*
X010461Y002318D01*
X010534Y002391D01*
X010561Y002491D01*
X010561Y003791D01*
X010534Y003891D01*
X010461Y003964D01*
X010361Y003991D01*
X009861Y003991D02*
X009761Y003964D01*
X009688Y003891D01*
X009661Y003791D01*
X010111Y003641D02*
X010111Y003271D01*
X010111Y003021D02*
X010111Y002641D01*
X010808Y002931D02*
X010911Y002700D01*
X011068Y002500D01*
X011267Y002343D01*
X011499Y002239D01*
X011748Y002193D01*
X012002Y002208D01*
X012244Y002284D01*
X012461Y002416D01*
X012461Y004066D01*
X011911Y004129D02*
X011911Y004286D01*
X011911Y003354D02*
X011911Y003129D01*
X012461Y004066D02*
X012244Y004198D01*
X012002Y004274D01*
X011748Y004289D01*
X011499Y004243D01*
X011267Y004139D01*
X011068Y003982D01*
X010911Y003782D01*
X010808Y003551D01*
X011911Y002354D02*
X011911Y002196D01*
X012011Y001491D02*
X011961Y001441D01*
X010061Y001441D01*
X010011Y001491D01*
X009861Y001491D01*
X009811Y001478D01*
X009774Y001441D01*
X009761Y001391D01*
X009761Y000691D01*
X009774Y000641D01*
X009811Y000604D01*
X009861Y000591D01*
X010011Y000591D01*
X010061Y000641D01*
X011961Y000641D01*
X012011Y000591D01*
X012161Y000591D01*
X012211Y000604D01*
X012248Y000641D01*
X012261Y000691D01*
X012261Y001391D01*
X012248Y001441D01*
X012211Y001478D01*
X012161Y001491D01*
X012011Y001491D01*
X013611Y001741D02*
X013611Y000941D01*
X013711Y000841D01*
X014511Y000841D01*
X014611Y000941D01*
X014611Y001741D01*
X014511Y001841D01*
X014611Y001941D01*
X014611Y002741D01*
X014511Y002841D01*
X013711Y002841D01*
X013611Y002741D01*
X013611Y001941D01*
X013711Y001841D01*
X013611Y001741D01*
X016261Y001691D02*
X016261Y002391D01*
X016274Y002441D01*
X016311Y002478D01*
X016361Y002491D01*
X016511Y002491D01*
X016561Y002441D01*
X018461Y002441D01*
X018511Y002491D01*
X018661Y002491D01*
X018711Y002478D01*
X018748Y002441D01*
X018761Y002391D01*
X018761Y001691D01*
X018748Y001641D01*
X018711Y001604D01*
X018661Y001591D01*
X018511Y001591D01*
X018461Y001641D01*
X016561Y001641D01*
X016511Y001591D01*
X016361Y001591D01*
X016361Y001491D02*
X016511Y001491D01*
X016561Y001441D01*
X018461Y001441D01*
X018511Y001491D01*
X018661Y001491D01*
X018711Y001478D01*
X018748Y001441D01*
X018761Y001391D01*
X018761Y000691D01*
X018748Y000641D01*
X018711Y000604D01*
X018661Y000591D01*
X018511Y000591D01*
X018461Y000641D01*
X016561Y000641D01*
X016511Y000591D01*
X016361Y000591D01*
X016311Y000604D01*
X016274Y000641D01*
X016261Y000691D01*
X016261Y001391D01*
X016274Y001441D01*
X016311Y001478D01*
X016361Y001491D01*
X016361Y001591D02*
X016311Y001604D01*
X016274Y001641D01*
X016261Y001691D01*
X016361Y002591D02*
X016511Y002591D01*
X016561Y002641D01*
X018461Y002641D01*
X018511Y002591D01*
X018661Y002591D01*
X018711Y002604D01*
X018748Y002641D01*
X018761Y002691D01*
X018761Y003391D01*
X018748Y003441D01*
X018711Y003478D01*
X018661Y003491D01*
X018511Y003491D01*
X018461Y003441D01*
X016561Y003441D01*
X016511Y003491D01*
X016361Y003491D01*
X016311Y003478D01*
X016274Y003441D01*
X016261Y003391D01*
X016261Y002691D01*
X016274Y002641D01*
X016311Y002604D01*
X016361Y002591D01*
X016161Y003541D02*
X018861Y003541D01*
X018911Y003554D01*
X018948Y003591D01*
X018961Y003641D01*
X018961Y004441D01*
X018948Y004491D01*
X018911Y004528D01*
X018861Y004541D01*
X016161Y004541D01*
X016111Y004528D01*
X016074Y004491D01*
X016061Y004441D01*
X016061Y003641D01*
X016074Y003591D01*
X016111Y003554D01*
X016161Y003541D01*
X016911Y004041D02*
X017381Y004041D01*
X017631Y004041D02*
X018111Y004041D01*
X018511Y004691D02*
X018461Y004741D01*
X016561Y004741D01*
X016511Y004691D01*
X016361Y004691D01*
X016311Y004704D01*
X016274Y004741D01*
X016261Y004791D01*
X016261Y005491D01*
X016274Y005541D01*
X016311Y005578D01*
X016361Y005591D01*
X016511Y005591D01*
X016561Y005541D01*
X018461Y005541D01*
X018511Y005591D01*
X018661Y005591D01*
X018711Y005578D01*
X018748Y005541D01*
X018761Y005491D01*
X018761Y004791D01*
X018748Y004741D01*
X018711Y004704D01*
X018661Y004691D01*
X018511Y004691D01*
X018511Y005691D02*
X018661Y005691D01*
X018711Y005704D01*
X018748Y005741D01*
X018761Y005791D01*
X018761Y006491D01*
X018748Y006541D01*
X018711Y006578D01*
X018661Y006591D01*
X018511Y006591D01*
X018461Y006541D01*
X016561Y006541D01*
X016511Y006591D01*
X016361Y006591D01*
X016311Y006578D01*
X016274Y006541D01*
X016261Y006491D01*
X016261Y005791D01*
X016274Y005741D01*
X016311Y005704D01*
X016361Y005691D01*
X016511Y005691D01*
X016561Y005741D01*
X018461Y005741D01*
X018511Y005691D01*
X018231Y006831D02*
X017031Y006831D01*
X017031Y007531D01*
X018231Y007531D01*
X018231Y006831D01*
X017831Y007181D02*
X017681Y007181D01*
X017681Y006981D01*
X017581Y006981D01*
X017681Y007181D02*
X017681Y007381D01*
X017681Y007181D02*
X017281Y006981D01*
X017281Y007381D01*
X017681Y007181D01*
X017131Y007181D01*
X017011Y007941D02*
X018611Y007941D01*
X018661Y007954D01*
X018698Y007991D01*
X018711Y008041D01*
X018711Y008641D01*
X018698Y008691D01*
X018661Y008728D01*
X018611Y008741D01*
X017011Y008741D01*
X016961Y008728D01*
X016924Y008691D01*
X016911Y008641D01*
X016911Y008041D01*
X016924Y007991D01*
X016961Y007954D01*
X017011Y007941D01*
X017411Y008091D02*
X017811Y008341D01*
X017811Y008091D01*
X017711Y008091D01*
X017811Y008341D02*
X017211Y008341D01*
X017411Y008091D02*
X017411Y008591D01*
X017811Y008341D01*
X017811Y008591D01*
X017811Y008341D02*
X018061Y008341D01*
X014611Y008391D02*
X014361Y008141D01*
X014611Y007891D01*
X014611Y007391D01*
X014361Y007141D01*
X014611Y006891D01*
X014611Y006391D01*
X014361Y006141D01*
X014611Y005891D01*
X014611Y005391D01*
X014361Y005141D01*
X013861Y005141D01*
X013611Y005391D01*
X013611Y005891D01*
X013861Y006141D01*
X013611Y006391D01*
X013611Y006891D01*
X013861Y007141D01*
X013611Y007391D01*
X013611Y007891D01*
X013861Y008141D01*
X013611Y008391D01*
X013611Y008891D01*
X013861Y009141D01*
X013611Y009391D01*
X013611Y009891D01*
X013861Y010141D01*
X013611Y010391D01*
X013611Y010891D01*
X013861Y011141D01*
X014361Y011141D01*
X014611Y010891D01*
X014611Y010391D01*
X014361Y010141D01*
X014611Y009891D01*
X014611Y009391D01*
X014361Y009141D01*
X013861Y009141D01*
X014361Y009141D02*
X014611Y008891D01*
X014611Y008391D01*
X014361Y008141D02*
X013861Y008141D01*
X013861Y007141D02*
X014361Y007141D01*
X014361Y006141D02*
X013861Y006141D01*
X011461Y006901D02*
X011461Y007051D01*
X011411Y007101D01*
X011411Y009001D01*
X011461Y009051D01*
X011461Y009201D01*
X011448Y009251D01*
X011411Y009288D01*
X011361Y009301D01*
X010661Y009301D01*
X010611Y009288D01*
X010574Y009251D01*
X010561Y009201D01*
X010561Y009051D01*
X010611Y009001D01*
X010611Y007101D01*
X010561Y007051D01*
X010561Y006901D01*
X010574Y006851D01*
X010611Y006814D01*
X010661Y006801D01*
X011361Y006801D01*
X011411Y006814D01*
X011448Y006851D01*
X011461Y006901D01*
X013861Y010141D02*
X014361Y010141D01*
X018211Y011091D02*
X018511Y011091D01*
X018361Y010941D02*
X018361Y011241D01*
X017011Y012141D02*
X017050Y012464D01*
X017166Y012768D01*
X017351Y013036D01*
X017594Y013252D01*
X017882Y013403D01*
X018198Y013481D01*
X018524Y013481D01*
X018840Y013403D01*
X019128Y013252D01*
X019371Y013036D01*
X019556Y012768D01*
X019672Y012464D01*
X019711Y012141D01*
X019672Y011818D01*
X019556Y011514D01*
X019371Y011246D01*
X019128Y011030D01*
X018840Y010879D01*
X018524Y010801D01*
X018198Y010801D01*
X017882Y010879D01*
X017594Y011030D01*
X017351Y011246D01*
X017166Y011514D01*
X017050Y011818D01*
X017011Y012141D01*
X022311Y005383D02*
X022311Y004099D01*
X022311Y005383D02*
X022103Y005554D01*
X021856Y005659D01*
X021589Y005691D01*
X021324Y005647D01*
X021082Y005530D01*
X020883Y005351D01*
X020741Y005123D01*
X020741Y004359D02*
X020883Y004131D01*
X021082Y003952D01*
X021324Y003835D01*
X021589Y003791D01*
X021856Y003823D01*
X022103Y003928D01*
X022311Y004099D01*
X001861Y014941D02*
X001761Y014941D01*
X001561Y014941D01*
X002521Y018941D02*
X004121Y018941D01*
X004171Y018954D01*
X004208Y018991D01*
X004221Y019041D01*
X004221Y019641D01*
X004208Y019691D01*
X004171Y019728D01*
X004121Y019741D01*
X002521Y019741D01*
X002471Y019728D01*
X002434Y019691D01*
X002421Y019641D01*
X002421Y019041D01*
X002434Y018991D01*
X002471Y018954D01*
X002521Y018941D01*
X002921Y019091D02*
X003321Y019341D01*
X003321Y019091D01*
X003221Y019091D01*
X003321Y019341D02*
X002721Y019341D01*
X002921Y019091D02*
X002921Y019591D01*
X003321Y019341D01*
X003321Y019591D01*
X003321Y019341D02*
X003571Y019341D01*
X003861Y020441D02*
X003161Y020441D01*
X003011Y020591D01*
X003011Y022291D01*
X003161Y022441D01*
X003861Y022441D01*
X004011Y022291D01*
X004161Y022441D01*
X004861Y022441D01*
X005011Y022291D01*
X005161Y022441D01*
X005861Y022441D01*
X006011Y022291D01*
X006011Y020591D01*
X005861Y020441D01*
X005161Y020441D01*
X005011Y020591D01*
X004861Y020441D01*
X004161Y020441D01*
X004011Y020591D01*
X003861Y020441D01*
D669*
X015891Y020041D03*
X015891Y019041D03*
X018731Y019041D03*
X018731Y020041D03*
X018731Y021041D03*
X018731Y022041D03*
X015891Y022041D03*
X015891Y021041D03*
X016091Y006141D03*
X016091Y005141D03*
X018931Y005141D03*
X018931Y006141D03*
X018931Y003041D03*
X018931Y002041D03*
X018931Y001041D03*
X016091Y001041D03*
X016091Y002041D03*
X016091Y003041D03*
X012431Y001041D03*
X009591Y001041D03*
X006931Y001041D03*
X006931Y002041D03*
X004091Y002041D03*
X004091Y001041D03*
D670*
X005136Y000966D02*
X005361Y000966D01*
X005436Y001041D01*
X005436Y001191D01*
X005361Y001266D01*
X005136Y001266D01*
X005136Y000816D01*
X005286Y000966D02*
X005436Y000816D01*
X005596Y000891D02*
X005596Y000966D01*
X005671Y001041D01*
X005821Y001041D01*
X005896Y000966D01*
X005896Y000891D01*
X005821Y000816D01*
X005671Y000816D01*
X005596Y000891D01*
X005671Y001041D02*
X005596Y001116D01*
X005596Y001191D01*
X005671Y001266D01*
X005821Y001266D01*
X005896Y001191D01*
X005896Y001116D01*
X005821Y001041D01*
X005821Y001866D02*
X005671Y001866D01*
X005596Y001941D01*
X005436Y001866D02*
X005286Y002016D01*
X005361Y002016D02*
X005136Y002016D01*
X005136Y001866D02*
X005136Y002316D01*
X005361Y002316D01*
X005436Y002241D01*
X005436Y002091D01*
X005361Y002016D01*
X005596Y002241D02*
X005671Y002316D01*
X005821Y002316D01*
X005896Y002241D01*
X005896Y002166D01*
X005821Y002091D01*
X005896Y002016D01*
X005896Y001941D01*
X005821Y001866D01*
X005821Y002091D02*
X005746Y002091D01*
X002826Y002891D02*
X002751Y002816D01*
X002601Y002816D01*
X002525Y002891D01*
X002365Y002891D02*
X002365Y003191D01*
X002290Y003266D01*
X002065Y003266D01*
X002065Y002816D01*
X002290Y002816D01*
X002365Y002891D01*
X002525Y003191D02*
X002601Y003266D01*
X002751Y003266D01*
X002826Y003191D01*
X002826Y003116D01*
X002751Y003041D01*
X002826Y002966D01*
X002826Y002891D01*
X002751Y003041D02*
X002676Y003041D01*
X004348Y003916D02*
X004574Y003916D01*
X004649Y003991D01*
X004649Y004291D01*
X004574Y004366D01*
X004348Y004366D01*
X004348Y003916D01*
X004809Y003916D02*
X005109Y004216D01*
X005109Y004291D01*
X005034Y004366D01*
X004884Y004366D01*
X004809Y004291D01*
X004809Y003916D02*
X005109Y003916D01*
X008686Y004791D02*
X008761Y004716D01*
X008911Y004716D01*
X008986Y004791D01*
X009146Y004716D02*
X009446Y005016D01*
X009446Y005091D01*
X009371Y005166D01*
X009221Y005166D01*
X009146Y005091D01*
X008986Y005091D02*
X008911Y005166D01*
X008761Y005166D01*
X008686Y005091D01*
X008686Y004791D01*
X009146Y004716D02*
X009446Y004716D01*
X012586Y003606D02*
X012736Y003456D01*
X012661Y003296D02*
X012961Y003296D01*
X013036Y003221D01*
X013036Y003070D01*
X012961Y002995D01*
X012661Y002995D01*
X012586Y003070D01*
X012586Y003221D01*
X012661Y003296D01*
X012886Y003145D02*
X013036Y003296D01*
X013036Y003456D02*
X013036Y003756D01*
X013036Y003606D02*
X012586Y003606D01*
X013536Y003141D02*
X013611Y003066D01*
X013686Y003066D01*
X013761Y003141D01*
X013761Y003516D01*
X013686Y003516D02*
X013836Y003516D01*
X013996Y003516D02*
X014221Y003516D01*
X014296Y003441D01*
X014296Y003291D01*
X014221Y003216D01*
X013996Y003216D01*
X013996Y003066D02*
X013996Y003516D01*
X014457Y003366D02*
X014607Y003516D01*
X014607Y003066D01*
X014457Y003066D02*
X014757Y003066D01*
X014780Y003866D02*
X014855Y003941D01*
X014780Y003866D02*
X014630Y003866D01*
X014555Y003941D01*
X014555Y004241D01*
X014630Y004316D01*
X014780Y004316D01*
X014855Y004241D01*
X015015Y004166D02*
X015165Y004316D01*
X015165Y003866D01*
X015015Y003866D02*
X015315Y003866D01*
X015475Y003941D02*
X015776Y004241D01*
X015776Y003941D01*
X015701Y003866D01*
X015550Y003866D01*
X015475Y003941D01*
X015475Y004241D01*
X015550Y004316D01*
X015701Y004316D01*
X015776Y004241D01*
X016955Y004866D02*
X016955Y005316D01*
X017180Y005316D01*
X017255Y005241D01*
X017255Y005091D01*
X017180Y005016D01*
X016955Y005016D01*
X017105Y005016D02*
X017255Y004866D01*
X017415Y004866D02*
X017715Y004866D01*
X017565Y004866D02*
X017565Y005316D01*
X017415Y005166D01*
X017875Y005241D02*
X017950Y005316D01*
X018101Y005316D01*
X018176Y005241D01*
X018176Y005166D01*
X017875Y004866D01*
X018176Y004866D01*
X018132Y005916D02*
X017982Y005916D01*
X017907Y005991D01*
X017746Y005916D02*
X017446Y005916D01*
X017596Y005916D02*
X017596Y006366D01*
X017446Y006216D01*
X017286Y006141D02*
X017211Y006066D01*
X016986Y006066D01*
X016986Y005916D02*
X016986Y006366D01*
X017211Y006366D01*
X017286Y006291D01*
X017286Y006141D01*
X017136Y006066D02*
X017286Y005916D01*
X017907Y006291D02*
X017982Y006366D01*
X018132Y006366D01*
X018207Y006291D01*
X018207Y006216D01*
X018132Y006141D01*
X018207Y006066D01*
X018207Y005991D01*
X018132Y005916D01*
X018132Y006141D02*
X018057Y006141D01*
X019935Y007056D02*
X020160Y007056D01*
X020235Y007131D01*
X020235Y007431D01*
X020160Y007506D01*
X019935Y007506D01*
X019935Y007056D01*
X020395Y007131D02*
X020471Y007056D01*
X020621Y007056D01*
X020696Y007131D01*
X020696Y007281D01*
X020621Y007356D01*
X020546Y007356D01*
X020395Y007281D01*
X020395Y007506D01*
X020696Y007506D01*
X018476Y008991D02*
X018401Y008916D01*
X018251Y008916D01*
X018175Y008991D01*
X018175Y009141D01*
X018401Y009141D01*
X018476Y009066D01*
X018476Y008991D01*
X018326Y009291D02*
X018175Y009141D01*
X018326Y009291D02*
X018476Y009366D01*
X018015Y009291D02*
X018015Y008991D01*
X017940Y008916D01*
X017715Y008916D01*
X017715Y009366D01*
X017940Y009366D01*
X018015Y009291D01*
X015686Y009266D02*
X015686Y009493D01*
X015686Y009380D02*
X015346Y009380D01*
X015459Y009266D01*
X013356Y008211D02*
X012906Y008211D01*
X013131Y007986D01*
X013131Y008286D01*
X013131Y007826D02*
X013206Y007750D01*
X013206Y007525D01*
X013356Y007525D02*
X012906Y007525D01*
X012906Y007750D01*
X012981Y007826D01*
X013131Y007826D01*
X012906Y007365D02*
X012906Y007215D01*
X012906Y007290D02*
X013281Y007290D01*
X013356Y007215D01*
X013356Y007140D01*
X013281Y007065D01*
X011236Y007676D02*
X010786Y007676D01*
X010786Y007901D01*
X010861Y007976D01*
X011011Y007976D01*
X011086Y007901D01*
X011086Y007676D01*
X011086Y007826D02*
X011236Y007976D01*
X011161Y008136D02*
X011236Y008211D01*
X011236Y008362D01*
X011161Y008437D01*
X010861Y008437D01*
X010786Y008362D01*
X010786Y008211D01*
X010861Y008136D01*
X010936Y008136D01*
X011011Y008211D01*
X011011Y008437D01*
X006046Y010091D02*
X005971Y010016D01*
X005821Y010016D01*
X005746Y010091D01*
X005746Y010241D02*
X005896Y010316D01*
X005971Y010316D01*
X006046Y010241D01*
X006046Y010091D01*
X005746Y010241D02*
X005746Y010466D01*
X006046Y010466D01*
X005586Y010391D02*
X005511Y010466D01*
X005361Y010466D01*
X005286Y010391D01*
X005286Y010091D01*
X005361Y010016D01*
X005511Y010016D01*
X005586Y010091D01*
X001986Y011145D02*
X001686Y011446D01*
X001611Y011446D01*
X001536Y011371D01*
X001536Y011220D01*
X001611Y011145D01*
X001986Y011145D02*
X001986Y011446D01*
X001911Y011606D02*
X001611Y011606D01*
X001536Y011681D01*
X001536Y011831D01*
X001611Y011906D01*
X001911Y011606D01*
X001986Y011681D01*
X001986Y011831D01*
X001911Y011906D01*
X001611Y011906D01*
X002536Y016456D02*
X002386Y016606D01*
X002836Y016606D01*
X002836Y016456D02*
X002836Y016756D01*
X003386Y016681D02*
X003386Y016531D01*
X003461Y016456D01*
X003386Y016681D02*
X003461Y016756D01*
X003536Y016756D01*
X003836Y016456D01*
X003836Y016756D01*
X005165Y016791D02*
X005240Y016716D01*
X005390Y016716D01*
X005465Y016791D01*
X005625Y016791D02*
X005625Y016716D01*
X005625Y016791D02*
X005926Y017091D01*
X005926Y017166D01*
X005625Y017166D01*
X005465Y017091D02*
X005390Y017166D01*
X005240Y017166D01*
X005165Y017091D01*
X005165Y016791D01*
X004086Y018366D02*
X003785Y018366D01*
X003936Y018366D02*
X003936Y018816D01*
X003785Y018666D01*
X003625Y018741D02*
X003550Y018816D01*
X003325Y018816D01*
X003325Y018366D01*
X003550Y018366D01*
X003625Y018441D01*
X003625Y018741D01*
X003636Y019816D02*
X003336Y019816D01*
X003486Y019816D02*
X003486Y020266D01*
X003336Y020116D01*
X004336Y020191D02*
X004411Y020266D01*
X004561Y020266D01*
X004636Y020191D01*
X004636Y020116D01*
X004336Y019816D01*
X004636Y019816D01*
X005336Y019891D02*
X005411Y019816D01*
X005561Y019816D01*
X005636Y019891D01*
X005636Y019966D01*
X005561Y020041D01*
X005486Y020041D01*
X005561Y020041D02*
X005636Y020116D01*
X005636Y020191D01*
X005561Y020266D01*
X005411Y020266D01*
X005336Y020191D01*
X002836Y020810D02*
X002836Y020885D01*
X002761Y020960D01*
X002386Y020960D01*
X002386Y020885D02*
X002386Y021035D01*
X002386Y021195D02*
X002386Y021420D01*
X002461Y021496D01*
X002611Y021496D01*
X002686Y021420D01*
X002686Y021195D01*
X002836Y021195D02*
X002386Y021195D01*
X002461Y021656D02*
X002386Y021731D01*
X002386Y021881D01*
X002461Y021956D01*
X002536Y021956D01*
X002611Y021881D01*
X002686Y021956D01*
X002761Y021956D01*
X002836Y021881D01*
X002836Y021731D01*
X002761Y021656D01*
X002611Y021806D02*
X002611Y021881D01*
X002836Y020810D02*
X002761Y020735D01*
X012285Y015181D02*
X012360Y015256D01*
X012510Y015256D01*
X012585Y015181D01*
X012585Y014881D01*
X012510Y014806D01*
X012360Y014806D01*
X012285Y014881D01*
X012285Y015181D01*
X012435Y014956D02*
X012585Y014806D01*
X012745Y014881D02*
X012821Y014806D01*
X012971Y014806D01*
X013046Y014881D01*
X013046Y014956D01*
X012971Y015031D01*
X012896Y015031D01*
X012971Y015031D02*
X013046Y015106D01*
X013046Y015181D01*
X012971Y015256D01*
X012821Y015256D01*
X012745Y015181D01*
X016236Y013212D02*
X016236Y013062D01*
X016311Y012987D01*
X016236Y012827D02*
X016686Y012827D01*
X016236Y012526D01*
X016686Y012526D01*
X016686Y012366D02*
X016536Y012216D01*
X016536Y012291D02*
X016536Y012066D01*
X016686Y012066D02*
X016236Y012066D01*
X016236Y012291D01*
X016311Y012366D01*
X016461Y012366D01*
X016536Y012291D01*
X016686Y012987D02*
X016386Y013287D01*
X016311Y013287D01*
X016236Y013212D01*
X016686Y013287D02*
X016686Y012987D01*
X013466Y012662D02*
X013466Y012511D01*
X013391Y012436D01*
X013316Y012436D01*
X013241Y012511D01*
X013241Y012662D01*
X013316Y012737D01*
X013391Y012737D01*
X013466Y012662D01*
X013241Y012662D02*
X013166Y012737D01*
X013091Y012737D01*
X013016Y012662D01*
X013016Y012511D01*
X013091Y012436D01*
X013166Y012436D01*
X013241Y012511D01*
X013391Y012276D02*
X013466Y012201D01*
X013466Y012051D01*
X013391Y011976D01*
X013091Y011976D01*
X013016Y012051D01*
X013016Y012201D01*
X013091Y012276D01*
X012366Y012151D02*
X012291Y012226D01*
X012366Y012151D02*
X012366Y012001D01*
X012291Y011926D01*
X011991Y011926D01*
X011916Y012001D01*
X011916Y012151D01*
X011991Y012226D01*
X011991Y012386D02*
X012066Y012386D01*
X012141Y012461D01*
X012141Y012687D01*
X012291Y012687D02*
X011991Y012687D01*
X011916Y012612D01*
X011916Y012461D01*
X011991Y012386D01*
X012291Y012386D02*
X012366Y012461D01*
X012366Y012612D01*
X012291Y012687D01*
X019886Y012427D02*
X019961Y012277D01*
X020111Y012126D01*
X020111Y012352D01*
X020186Y012427D01*
X020261Y012427D01*
X020336Y012352D01*
X020336Y012201D01*
X020261Y012126D01*
X020111Y012126D01*
X020261Y011966D02*
X020336Y011891D01*
X020336Y011741D01*
X020261Y011666D01*
X019961Y011666D01*
X019886Y011741D01*
X019886Y011891D01*
X019961Y011966D01*
X019936Y013195D02*
X019936Y013421D01*
X020011Y013496D01*
X020311Y013496D01*
X020386Y013421D01*
X020386Y013195D01*
X019936Y013195D01*
X020161Y013656D02*
X020161Y013956D01*
X020386Y013881D02*
X019936Y013881D01*
X020161Y013656D01*
X021536Y014545D02*
X021986Y014545D01*
X021986Y014846D01*
X021986Y015006D02*
X021986Y015306D01*
X021986Y015156D02*
X021536Y015156D01*
X021686Y015006D01*
X023956Y015100D02*
X023956Y014875D01*
X024406Y014875D01*
X024256Y014875D02*
X024256Y015100D01*
X024181Y015176D01*
X024031Y015176D01*
X023956Y015100D01*
X024031Y015336D02*
X023956Y015411D01*
X023956Y015561D01*
X024031Y015636D01*
X024106Y015636D01*
X024406Y015336D01*
X024406Y015636D01*
X024331Y014640D02*
X023956Y014640D01*
X023956Y014565D02*
X023956Y014715D01*
X024331Y014640D02*
X024406Y014565D01*
X024406Y014490D01*
X024331Y014415D01*
X025461Y018795D02*
X025761Y018795D01*
X025836Y018870D01*
X025836Y019021D01*
X025761Y019096D01*
X025761Y019256D02*
X025836Y019331D01*
X025836Y019481D01*
X025761Y019556D01*
X025686Y019556D01*
X025611Y019481D01*
X025611Y019406D01*
X025611Y019481D02*
X025536Y019556D01*
X025461Y019556D01*
X025386Y019481D01*
X025386Y019331D01*
X025461Y019256D01*
X025461Y019096D02*
X025386Y019021D01*
X025386Y018870D01*
X025461Y018795D01*
X022526Y020241D02*
X022451Y020166D01*
X022300Y020166D01*
X022225Y020241D01*
X022065Y020241D02*
X021990Y020166D01*
X021840Y020166D01*
X021765Y020241D01*
X021765Y020541D01*
X021840Y020616D01*
X021990Y020616D01*
X022065Y020541D01*
X022225Y020541D02*
X022300Y020616D01*
X022451Y020616D01*
X022526Y020541D01*
X022526Y020466D01*
X022451Y020391D01*
X022526Y020316D01*
X022526Y020241D01*
X022451Y020391D02*
X022376Y020391D01*
X021608Y020166D02*
X021458Y020166D01*
X021533Y020166D02*
X021533Y020616D01*
X021458Y020616D02*
X021608Y020616D01*
X018107Y020191D02*
X018107Y019891D01*
X018032Y019816D01*
X017882Y019816D01*
X017807Y019891D01*
X018107Y020191D01*
X018032Y020266D01*
X017882Y020266D01*
X017807Y020191D01*
X017807Y019891D01*
X017646Y019816D02*
X017346Y019816D01*
X017496Y019816D02*
X017496Y020266D01*
X017346Y020116D01*
X017186Y020041D02*
X017111Y019966D01*
X016886Y019966D01*
X016886Y019816D02*
X016886Y020266D01*
X017111Y020266D01*
X017186Y020191D01*
X017186Y020041D01*
X017036Y019966D02*
X017186Y019816D01*
X017211Y019266D02*
X016986Y019266D01*
X016986Y018816D01*
X016986Y018966D02*
X017211Y018966D01*
X017286Y019041D01*
X017286Y019191D01*
X017211Y019266D01*
X017446Y019191D02*
X017521Y019266D01*
X017671Y019266D01*
X017746Y019191D01*
X017746Y019116D01*
X017446Y018816D01*
X017746Y018816D01*
X017286Y018816D02*
X017136Y018966D01*
X014826Y017866D02*
X014675Y017716D01*
X014515Y017791D02*
X014440Y017866D01*
X014290Y017866D01*
X014215Y017791D01*
X014215Y017491D01*
X014290Y017416D01*
X014440Y017416D01*
X014515Y017491D01*
X014675Y017416D02*
X014976Y017416D01*
X014826Y017416D02*
X014826Y017866D01*
X016905Y020806D02*
X016905Y021256D01*
X017130Y021256D01*
X017205Y021181D01*
X017205Y021031D01*
X017130Y020956D01*
X016905Y020956D01*
X017055Y020956D02*
X017205Y020806D01*
X017365Y020806D02*
X017666Y020806D01*
X017516Y020806D02*
X017516Y021256D01*
X017365Y021106D01*
X017471Y021766D02*
X017396Y021841D01*
X017471Y021766D02*
X017621Y021766D01*
X017696Y021841D01*
X017696Y021991D01*
X017621Y022066D01*
X017546Y022066D01*
X017396Y021991D01*
X017396Y022216D01*
X017696Y022216D01*
X017236Y022141D02*
X017236Y021991D01*
X017161Y021916D01*
X016936Y021916D01*
X016936Y021766D02*
X016936Y022216D01*
X017161Y022216D01*
X017236Y022141D01*
X017086Y021916D02*
X017236Y021766D01*
X024336Y008587D02*
X024336Y008287D01*
X024336Y008437D02*
X023886Y008437D01*
X024036Y008287D01*
X023886Y008127D02*
X024336Y008127D01*
X023886Y007826D01*
X024336Y007826D01*
X024336Y007666D02*
X024186Y007516D01*
X024186Y007591D02*
X024186Y007366D01*
X024336Y007366D02*
X023886Y007366D01*
X023886Y007591D01*
X023961Y007666D01*
X024111Y007666D01*
X024186Y007591D01*
X023286Y006093D02*
X023286Y005866D01*
X023286Y005980D02*
X022946Y005980D01*
X023059Y005866D01*
X022861Y005127D02*
X022786Y005127D01*
X022711Y005052D01*
X022711Y004826D01*
X022861Y004826D01*
X022936Y004901D01*
X022936Y005052D01*
X022861Y005127D01*
X022561Y004977D02*
X022711Y004826D01*
X022561Y004977D02*
X022486Y005127D01*
X022561Y004666D02*
X022861Y004666D01*
X022936Y004591D01*
X022936Y004441D01*
X022861Y004366D01*
X022561Y004366D01*
X022486Y004441D01*
X022486Y004591D01*
X022561Y004666D01*
X022786Y004516D02*
X022936Y004666D01*
X022061Y002866D02*
X022061Y001216D01*
X022361Y001666D02*
X022286Y001741D01*
X022286Y001891D01*
X022361Y001966D01*
X022661Y001966D01*
X022736Y001891D01*
X022736Y001741D01*
X022661Y001666D01*
X022361Y001666D01*
X022586Y001816D02*
X022736Y001966D01*
X022736Y002126D02*
X022436Y002427D01*
X022361Y002427D01*
X022286Y002352D01*
X022286Y002201D01*
X022361Y002126D01*
X022736Y002126D02*
X022736Y002427D01*
X021461Y002488D02*
X021461Y002594D01*
X021849Y002995D02*
X022061Y002866D01*
X020964Y002991D02*
X020742Y002850D01*
X020561Y002658D01*
X020435Y002427D01*
X020369Y002173D01*
X020369Y001909D01*
X020435Y001655D01*
X020561Y001424D01*
X020742Y001232D01*
X020964Y001091D01*
X021461Y001488D02*
X021461Y001594D01*
X021858Y001091D02*
X022061Y001216D01*
X018326Y001816D02*
X018025Y001816D01*
X018176Y001816D02*
X018176Y002266D01*
X018025Y002116D01*
X017715Y002266D02*
X017715Y001816D01*
X017565Y001816D02*
X017865Y001816D01*
X017405Y001816D02*
X017255Y001966D01*
X017330Y001966D02*
X017105Y001966D01*
X017105Y001816D02*
X017105Y002266D01*
X017330Y002266D01*
X017405Y002191D01*
X017405Y002041D01*
X017330Y001966D01*
X017565Y002116D02*
X017715Y002266D01*
X017651Y002816D02*
X017575Y002891D01*
X017575Y003041D01*
X017801Y003041D01*
X017876Y002966D01*
X017876Y002891D01*
X017801Y002816D01*
X017651Y002816D01*
X017415Y002816D02*
X017265Y002966D01*
X017340Y002966D02*
X017115Y002966D01*
X017115Y002816D02*
X017115Y003266D01*
X017340Y003266D01*
X017415Y003191D01*
X017415Y003041D01*
X017340Y002966D01*
X017575Y003041D02*
X017726Y003191D01*
X017876Y003266D01*
X017821Y001266D02*
X017596Y001041D01*
X017896Y001041D01*
X017821Y000816D02*
X017821Y001266D01*
X017436Y001191D02*
X017436Y001041D01*
X017361Y000966D01*
X017136Y000966D01*
X017136Y000816D02*
X017136Y001266D01*
X017361Y001266D01*
X017436Y001191D01*
X017286Y000966D02*
X017436Y000816D01*
X011376Y001241D02*
X011075Y000941D01*
X011075Y000866D01*
X010915Y000866D02*
X010765Y001016D01*
X010840Y001016D02*
X010615Y001016D01*
X010615Y000866D02*
X010615Y001316D01*
X010840Y001316D01*
X010915Y001241D01*
X010915Y001091D01*
X010840Y001016D01*
X011075Y001316D02*
X011376Y001316D01*
X011376Y001241D01*
X011201Y001666D02*
X011201Y002116D01*
X010975Y001891D01*
X011276Y001891D01*
X010815Y001741D02*
X010740Y001666D01*
X010590Y001666D01*
X010515Y001741D01*
X010515Y002041D01*
X010590Y002116D01*
X010740Y002116D01*
X010815Y002041D01*
D671*
X010411Y003021D02*
X010111Y003021D01*
X009811Y003021D01*
X009811Y003271D02*
X010111Y003271D01*
X010411Y003271D01*
X009261Y003261D02*
X009011Y003261D01*
X008761Y003261D01*
X008761Y003011D02*
X009011Y003011D01*
X009261Y003011D01*
X017381Y003791D02*
X017381Y004041D01*
X017381Y004291D01*
X017631Y004291D02*
X017631Y004041D01*
X017631Y003791D01*
X005861Y011911D02*
X005611Y011911D01*
X005361Y011911D01*
X005361Y012161D02*
X005611Y012161D01*
X005861Y012161D01*
X005861Y014911D02*
X005611Y014911D01*
X005361Y014911D01*
X005361Y015161D02*
X005611Y015161D01*
X005861Y015161D01*
X024411Y019161D02*
X025011Y019161D01*
X025011Y019411D02*
X024411Y019411D01*
D672*
X014081Y015731D02*
X011381Y015731D01*
X011165Y015697D01*
X010970Y015597D01*
X010815Y015442D01*
X010715Y015247D01*
X010681Y015031D01*
X010715Y014815D01*
X010815Y014620D01*
X010970Y014465D01*
X011165Y014365D01*
X011381Y014331D01*
X014081Y014331D01*
X014297Y014365D01*
X014492Y014465D01*
X014647Y014620D01*
X014747Y014815D01*
X014781Y015031D01*
X014747Y015247D01*
X014647Y015442D01*
X014492Y015597D01*
X014297Y015697D01*
X014081Y015731D01*
X004461Y017741D02*
X001761Y017741D01*
X001761Y014941D01*
X001761Y014341D02*
X001761Y012441D01*
X001761Y010841D02*
X001761Y007941D01*
X001761Y007341D02*
X001761Y005541D01*
X004461Y005541D01*
X004461Y017741D01*
D673*
X010991Y013201D02*
X011291Y013201D01*
X011591Y013201D01*
X011591Y013001D02*
X011291Y013001D01*
X010991Y013001D01*
X013741Y013001D02*
X014041Y013001D01*
X014341Y013001D01*
X014341Y013201D02*
X014041Y013201D01*
X013741Y013201D01*
D674*
X008556Y017747D02*
X008556Y017957D01*
X008556Y017852D02*
X007925Y017852D01*
X007925Y017747D02*
X007925Y017957D01*
X008030Y018177D02*
X008451Y018177D01*
X008556Y018282D01*
X008556Y018492D01*
X008451Y018597D01*
X008556Y018822D02*
X008136Y019242D01*
X008030Y019242D01*
X007925Y019137D01*
X007925Y018927D01*
X008030Y018822D01*
X008030Y018597D02*
X007925Y018492D01*
X007925Y018282D01*
X008030Y018177D01*
X008556Y018822D02*
X008556Y019242D01*
X005676Y008402D02*
X005676Y007982D01*
X005676Y008192D02*
X005045Y008192D01*
X005256Y007982D01*
X005045Y007757D02*
X005676Y007337D01*
X005676Y007757D02*
X005045Y007337D01*
D675*
X011011Y006631D03*
X011011Y009471D03*
X021811Y012921D03*
X021811Y013421D03*
X021811Y016261D03*
X021811Y016761D03*
D676*
X012586Y019441D03*
D677*
X020911Y014991D03*
D678*
X020911Y015616D03*
X020911Y013066D03*
D679*
X021811Y013091D02*
X021811Y013241D01*
X021811Y016441D02*
X021811Y016591D01*
D680*
X003173Y004141D03*
D681*
X002503Y004141D03*
X006643Y004141D03*
D682*
X018006Y007181D03*
D683*
X018506Y007181D03*
X016756Y007181D03*
D684*
X015865Y016041D02*
X015904Y016447D01*
X016019Y016839D01*
X016206Y017201D01*
X016458Y017522D01*
X016766Y017789D01*
X017120Y017993D01*
X017505Y018127D01*
X017909Y018185D01*
X018316Y018165D01*
X018713Y018069D01*
X019084Y017899D01*
X019416Y017663D01*
X019698Y017368D01*
X019918Y017024D01*
X020070Y016646D01*
X020147Y016245D01*
X020147Y015837D01*
X020070Y015436D01*
X019918Y015058D01*
X019698Y014714D01*
X019416Y014419D01*
X019084Y014183D01*
X018713Y014013D01*
X018316Y013917D01*
X017909Y013897D01*
X017505Y013955D01*
X017120Y014089D01*
X016766Y014293D01*
X016458Y014560D01*
X016206Y014881D01*
X016019Y015243D01*
X015904Y015635D01*
X015865Y016041D01*
X015590Y016041D02*
X015629Y016473D01*
X015744Y016892D01*
X015933Y017283D01*
X016188Y017634D01*
X016502Y017934D01*
X016864Y018173D01*
X017263Y018344D01*
X017686Y018440D01*
X018120Y018460D01*
X018550Y018401D01*
X018963Y018267D01*
X019345Y018062D01*
X019684Y017791D01*
X019970Y017464D01*
X020192Y017091D01*
X020345Y016685D01*
X020422Y016258D01*
X020422Y015824D01*
X020345Y015397D01*
X020192Y014991D01*
X019970Y014618D01*
X019684Y014291D01*
X019345Y014020D01*
X018963Y013815D01*
X018550Y013681D01*
X018120Y013622D01*
X017686Y013642D01*
X017263Y013738D01*
X016864Y013909D01*
X016502Y014148D01*
X016188Y014448D01*
X015933Y014799D01*
X015744Y015190D01*
X015629Y015609D01*
X015590Y016041D01*
D685*
X017643Y015034D02*
X017643Y014574D01*
X017950Y014574D01*
X018103Y014574D02*
X018410Y014881D01*
X018410Y014957D01*
X018333Y015034D01*
X018180Y015034D01*
X018103Y014957D01*
X018103Y014574D02*
X018410Y014574D01*
D686*
X018461Y008341D03*
X006161Y002941D03*
X003971Y019341D03*
D687*
X004596Y019341D03*
X002046Y019341D03*
X016536Y008341D03*
X019086Y008341D03*
X006786Y002941D03*
X004236Y002941D03*
M02*
