G75*
G70*
%OFA0B0*%
%FSLAX24Y24*%
%IPPOS*%
%LPD*%
%AMOC8*
5,1,8,0,0,1.08239X$1,22.5*
%
%ADD10C,0.1182*%
%ADD11OC8,0.0674*%
%ADD12C,0.0674*%
%ADD13OC8,0.0634*%
%ADD14C,0.0634*%
%ADD15R,0.0674X0.0674*%
%ADD16C,0.0634*%
%ADD17C,0.1080*%
%ADD18OC8,0.1080*%
%ADD19OC8,0.0710*%
%ADD20C,0.0710*%
%ADD21C,0.0907*%
%ADD22C,0.0730*%
%ADD23OC8,0.0555*%
%ADD24OC8,0.1025*%
%ADD25OC8,0.0611*%
D10*
X018582Y002141D03*
X042332Y002141D03*
X042332Y021391D03*
X018582Y021391D03*
D11*
X024632Y021041D03*
X024632Y020041D03*
X024632Y019041D03*
X022132Y017341D03*
X028632Y019041D03*
X028632Y020041D03*
X028632Y021041D03*
X028632Y022041D03*
X024632Y022041D03*
X038432Y021941D03*
X039432Y021941D03*
X040432Y021941D03*
X040432Y020941D03*
X039432Y020941D03*
X038432Y020941D03*
X038332Y016041D03*
X040332Y016141D03*
X040332Y015141D03*
X041332Y015141D03*
X041332Y014141D03*
X040332Y014141D03*
X038332Y014041D03*
X038332Y013041D03*
X040332Y013141D03*
X041332Y013141D03*
X041332Y012141D03*
X040332Y012141D03*
X040332Y011141D03*
X041332Y011141D03*
X041332Y010141D03*
X040332Y010141D03*
X038332Y011041D03*
X040332Y009141D03*
X041332Y009141D03*
X041332Y008141D03*
X040332Y008141D03*
X040332Y007141D03*
X041332Y007141D03*
X034932Y004141D03*
X033832Y004141D03*
X033832Y002141D03*
X034932Y002141D03*
X036432Y002041D03*
X036432Y001041D03*
X034932Y001041D03*
X030932Y001041D03*
X028432Y001041D03*
X028432Y002041D03*
X028432Y003041D03*
X027432Y004041D03*
X028432Y005141D03*
X028432Y006141D03*
X025432Y004041D03*
X024432Y005141D03*
X024432Y006141D03*
X024432Y003041D03*
X024432Y002041D03*
X024432Y001041D03*
X032932Y006051D03*
X032932Y010051D03*
X022132Y012341D03*
X040432Y002041D03*
X040432Y001041D03*
D12*
X040136Y002941D02*
X040729Y002941D01*
X036729Y002941D02*
X036136Y002941D01*
X030129Y002341D02*
X029536Y002341D01*
X029536Y001341D02*
X030129Y001341D01*
X030129Y005641D02*
X029536Y005641D01*
X029536Y006641D02*
X030129Y006641D01*
X030129Y007641D02*
X029536Y007641D01*
X028429Y008341D02*
X027836Y008341D01*
X029536Y008641D02*
X030129Y008641D01*
X030129Y009641D02*
X029536Y009641D01*
X029536Y010641D02*
X030129Y010641D01*
X024429Y008341D02*
X023836Y008341D01*
X024516Y007181D02*
X025109Y007181D01*
X027516Y007181D02*
X028109Y007181D01*
X021129Y011941D02*
X020536Y011941D01*
X020536Y012941D02*
X021129Y012941D01*
X021129Y013941D02*
X020536Y013941D01*
X020536Y014941D02*
X021129Y014941D01*
X021129Y015941D02*
X020536Y015941D01*
X020536Y016941D02*
X021129Y016941D01*
X023032Y016638D02*
X023032Y016044D01*
X023032Y012638D02*
X023032Y012044D01*
X030212Y014734D02*
X030212Y015328D01*
X032212Y015328D02*
X032212Y014734D01*
X038326Y019341D02*
X038919Y019341D01*
X037409Y020451D02*
X036816Y020451D01*
X034849Y020451D02*
X034256Y020451D01*
X034256Y022231D02*
X034849Y022231D01*
X036816Y022231D02*
X037409Y022231D01*
X042326Y019341D02*
X042919Y019341D01*
D13*
X033432Y021841D03*
X031832Y016891D03*
X032652Y013601D03*
X031832Y013141D03*
X032652Y012601D03*
X029902Y012601D03*
X029902Y013601D03*
X031832Y009391D03*
X031832Y005641D03*
X032132Y003741D03*
X032882Y003241D03*
X032132Y002741D03*
X023082Y004741D03*
X022332Y004241D03*
X022332Y005241D03*
X019832Y005641D03*
X019832Y009391D03*
X019832Y013141D03*
X019832Y016891D03*
X019232Y018791D03*
X019232Y019791D03*
D14*
X020332Y019218D02*
X020332Y018664D01*
X021332Y018664D02*
X021332Y019218D01*
X022332Y019218D02*
X022332Y018664D01*
X023332Y018664D02*
X023332Y019218D01*
X023332Y021664D02*
X023332Y022218D01*
X022332Y022218D02*
X022332Y021664D01*
X021332Y021664D02*
X021332Y022218D01*
X020332Y022218D02*
X020332Y021664D01*
X033955Y019041D02*
X034510Y019041D01*
X034510Y018041D02*
X033955Y018041D01*
X033955Y017041D02*
X034510Y017041D01*
X034510Y016041D02*
X033955Y016041D01*
X033955Y015041D02*
X034510Y015041D01*
X034510Y014041D02*
X033955Y014041D01*
X033955Y013041D02*
X034510Y013041D01*
X034510Y012041D02*
X033955Y012041D01*
X033955Y011041D02*
X034510Y011041D01*
X034510Y010041D02*
X033955Y010041D01*
X033955Y009041D02*
X034510Y009041D01*
X034510Y008041D02*
X033955Y008041D01*
X033955Y007041D02*
X034510Y007041D01*
X034510Y006041D02*
X033955Y006041D01*
X036955Y006041D02*
X037510Y006041D01*
X037510Y007041D02*
X036955Y007041D01*
X036955Y008041D02*
X037510Y008041D01*
X037510Y009041D02*
X036955Y009041D01*
X036955Y010041D02*
X037510Y010041D01*
X037510Y011041D02*
X036955Y011041D01*
X036955Y012041D02*
X037510Y012041D01*
X037510Y013041D02*
X036955Y013041D01*
X036955Y014041D02*
X037510Y014041D01*
X037510Y015041D02*
X036955Y015041D01*
X036955Y016041D02*
X037510Y016041D01*
X037510Y017041D02*
X036955Y017041D01*
X036955Y018041D02*
X037510Y018041D01*
X037510Y019041D02*
X036955Y019041D01*
X028710Y014141D02*
X028155Y014141D01*
X028155Y013141D02*
X028710Y013141D01*
X028710Y012141D02*
X028155Y012141D01*
X028155Y011141D02*
X028710Y011141D01*
X028710Y010141D02*
X028155Y010141D01*
X021110Y009741D02*
X020555Y009741D01*
X020555Y008741D02*
X021110Y008741D01*
X021110Y007741D02*
X020555Y007741D01*
X020555Y006741D02*
X021110Y006741D01*
X022255Y003041D02*
X022810Y003041D01*
X022810Y002041D02*
X022255Y002041D01*
X022255Y001041D02*
X022810Y001041D01*
X021110Y010741D02*
X020555Y010741D01*
D15*
X041332Y016141D03*
D16*
X033432Y020841D03*
X030832Y016891D03*
X030832Y013141D03*
X030832Y009391D03*
X030832Y005641D03*
X018832Y005641D03*
X018832Y009391D03*
X018832Y013141D03*
X018832Y016891D03*
D17*
X030132Y019441D03*
D18*
X032132Y019441D03*
D19*
X025582Y012641D03*
D20*
X025582Y011641D03*
D21*
X035957Y004141D02*
X036783Y004141D01*
X041957Y004141D02*
X042783Y004141D01*
D22*
X026917Y015716D02*
X026917Y016366D01*
X024948Y016366D02*
X024948Y015716D01*
D23*
X024132Y013891D03*
X026832Y013691D03*
X027382Y011141D03*
X026832Y009641D03*
X028432Y009141D03*
X031732Y008191D03*
X035470Y009416D03*
X035982Y010041D03*
X035982Y011004D03*
X035470Y011591D03*
X032732Y011591D03*
X031332Y011141D03*
X031882Y010191D03*
X025832Y006141D03*
X020057Y004516D03*
X031932Y004841D03*
X033432Y005341D03*
X035932Y006041D03*
X039282Y008591D03*
X036395Y014541D03*
X042432Y015341D03*
X042432Y017341D03*
X038832Y018541D03*
X041532Y020241D03*
X032832Y018041D03*
D24*
X024507Y009516D03*
D25*
X035532Y018541D03*
M02*
