G75*
G70*
%OFA0B0*%
%FSLAX24Y24*%
%IPPOS*%
%LPD*%
%AMOC8*
5,1,8,0,0,1.08239X$1,22.5*
%
%ADD10C,0.1182*%
%ADD11C,0.0848*%
%ADD12C,0.0848*%
%ADD13C,0.0634*%
%ADD14C,0.0674*%
%ADD15OC8,0.0634*%
%ADD16C,0.0634*%
%ADD17C,0.1080*%
%ADD18OC8,0.1080*%
%ADD19OC8,0.0674*%
%ADD20C,0.0789*%
%ADD21OC8,0.0437*%
%ADD22OC8,0.0611*%
%ADD23OC8,0.1025*%
D10*
X037968Y001643D03*
X043668Y001643D03*
X037968Y025143D03*
D11*
X023202Y002409D02*
X022434Y002409D01*
X023082Y003126D02*
X023850Y003126D01*
X024078Y002822D02*
X024846Y002822D01*
X023202Y004377D02*
X022434Y004377D01*
X024078Y004791D02*
X024846Y004791D01*
X023850Y005390D02*
X023082Y005390D01*
X023202Y010409D02*
X022434Y010409D01*
X024083Y010394D02*
X024851Y010394D01*
X024851Y012363D02*
X024083Y012363D01*
X023202Y012377D02*
X022434Y012377D01*
X022434Y014409D02*
X023202Y014409D01*
X024082Y014350D02*
X024850Y014350D01*
X024850Y016318D02*
X024082Y016318D01*
X023202Y016377D02*
X022434Y016377D01*
X022434Y018409D02*
X023202Y018409D01*
X024083Y018268D02*
X024851Y018268D01*
X024851Y020237D02*
X024083Y020237D01*
X023202Y020377D02*
X022434Y020377D01*
X022434Y022409D02*
X023202Y022409D01*
X024083Y022205D02*
X024851Y022205D01*
X024851Y024174D02*
X024083Y024174D01*
X023202Y024377D02*
X022434Y024377D01*
X050921Y025295D02*
X051688Y025295D01*
X052484Y025377D02*
X053252Y025377D01*
X053252Y023409D02*
X052484Y023409D01*
X051688Y023326D02*
X050921Y023326D01*
X050921Y021358D02*
X051688Y021358D01*
X052484Y021377D02*
X053252Y021377D01*
X053252Y019409D02*
X052484Y019409D01*
X051688Y019389D02*
X050921Y019389D01*
X050921Y017381D02*
X051688Y017381D01*
X052484Y017377D02*
X053252Y017377D01*
X053252Y015409D02*
X052484Y015409D01*
X051688Y015413D02*
X050921Y015413D01*
X050921Y013444D02*
X051688Y013444D01*
X052484Y013377D02*
X053252Y013377D01*
X053252Y011409D02*
X052484Y011409D01*
X051688Y011476D02*
X050921Y011476D01*
X050964Y003358D02*
X051732Y003358D01*
X052484Y003377D02*
X053252Y003377D01*
X053252Y001409D02*
X052484Y001409D01*
X051732Y001389D02*
X050964Y001389D01*
D12*
X032568Y010393D03*
X028568Y010393D03*
X025568Y010393D03*
X026568Y013393D03*
X025568Y014393D03*
X028568Y014393D03*
X032568Y014393D03*
X032568Y013393D03*
X032568Y017393D03*
X032568Y018393D03*
X028568Y018393D03*
X025568Y018393D03*
X026568Y021393D03*
X025568Y022393D03*
X028568Y022393D03*
X032568Y022393D03*
X032568Y021393D03*
X032568Y025393D03*
X043068Y025643D03*
X047068Y025643D03*
X050068Y025643D03*
X049068Y022643D03*
X050068Y021643D03*
X047068Y021643D03*
X043068Y021643D03*
X043068Y022643D03*
X043068Y018643D03*
X043068Y017643D03*
X047068Y017643D03*
X050068Y017643D03*
X049068Y014643D03*
X050068Y013643D03*
X047068Y013643D03*
X043068Y013643D03*
X043068Y014643D03*
X043068Y010643D03*
D13*
X041818Y010616D02*
X041818Y011170D01*
X040818Y011170D02*
X040818Y010616D01*
X039818Y010616D02*
X039818Y011170D01*
X038818Y011170D02*
X038818Y010616D01*
X037818Y010616D02*
X037818Y011170D01*
X036818Y011170D02*
X036818Y010616D01*
X035818Y010616D02*
X035818Y011170D01*
X034818Y011170D02*
X034818Y010616D01*
X033818Y010616D02*
X033818Y011170D01*
X033818Y009795D02*
X033818Y009241D01*
X034818Y009241D02*
X034818Y009795D01*
X035818Y009795D02*
X035818Y009241D01*
X036818Y009241D02*
X036818Y009795D01*
X037818Y009795D02*
X037818Y009241D01*
X038818Y009241D02*
X038818Y009795D01*
X039818Y009795D02*
X039818Y009241D01*
X040818Y009241D02*
X040818Y009795D01*
X041818Y009795D02*
X041818Y009241D01*
X042818Y009241D02*
X042818Y009795D01*
X042818Y006795D02*
X042818Y006241D01*
X041818Y006241D02*
X041818Y006795D01*
X040818Y006795D02*
X040818Y006241D01*
X039818Y006241D02*
X039818Y006795D01*
X038818Y006795D02*
X038818Y006241D01*
X037818Y006241D02*
X037818Y006795D01*
X036818Y006795D02*
X036818Y006241D01*
X035818Y006241D02*
X035818Y006795D01*
X034818Y006795D02*
X034818Y006241D01*
X033818Y006241D02*
X033818Y006795D01*
X033818Y013616D02*
X033818Y014170D01*
X034818Y014170D02*
X034818Y013616D01*
X035818Y013616D02*
X035818Y014170D01*
X036818Y014170D02*
X036818Y013616D01*
X037818Y013616D02*
X037818Y014170D01*
X038818Y014170D02*
X038818Y013616D01*
X039818Y013616D02*
X039818Y014170D01*
X040818Y014170D02*
X040818Y013616D01*
X041818Y013616D02*
X041818Y014170D01*
D14*
X051291Y008283D02*
X051885Y008283D01*
X053851Y008283D02*
X054445Y008283D01*
X054445Y006503D02*
X053851Y006503D01*
X051885Y006503D02*
X051291Y006503D01*
X048043Y006846D02*
X048043Y007440D01*
X047043Y007440D02*
X047043Y006846D01*
X046043Y006846D02*
X046043Y007440D01*
D15*
X045018Y005968D03*
X049018Y005968D03*
X052868Y004893D03*
D16*
X052868Y005893D03*
D17*
X045881Y003456D03*
D18*
X047881Y003456D03*
D19*
X042568Y003643D03*
X041568Y003643D03*
X040568Y003643D03*
X039568Y003643D03*
X038568Y003643D03*
X037568Y003643D03*
X036568Y003643D03*
X035568Y003643D03*
X034568Y003643D03*
X033568Y003643D03*
X033568Y004643D03*
X034568Y004643D03*
X035568Y004643D03*
X036568Y004643D03*
X037568Y004643D03*
X038568Y004643D03*
X039568Y004643D03*
X040568Y004643D03*
X041568Y004643D03*
X042568Y004643D03*
X043956Y006506D03*
X043956Y008506D03*
D20*
X049906Y007643D03*
X049906Y003643D03*
D21*
X050256Y011456D03*
X047318Y012831D03*
X050256Y015706D03*
X047631Y017081D03*
X050193Y019393D03*
X047318Y020893D03*
X050193Y023706D03*
X047631Y025081D03*
X028318Y023143D03*
X025568Y024206D03*
X025568Y020081D03*
X028006Y018956D03*
X025568Y016331D03*
X028318Y015143D03*
X025568Y012143D03*
X028006Y010956D03*
D22*
X030443Y005581D03*
X028068Y004768D03*
X026818Y004768D03*
X026693Y002893D03*
X049006Y005081D03*
D23*
X030443Y002893D03*
M02*
