G75*
G70*
%OFA0B0*%
%FSLAX24Y24*%
%IPPOS*%
%LPD*%
%AMOC8*
5,1,8,0,0,1.08239X$1,22.5*
%
%ADD10C,0.0110*%
%ADD11R,0.0021X0.0003*%
%ADD12R,0.0048X0.0003*%
%ADD13R,0.0054X0.0003*%
%ADD14R,0.0063X0.0003*%
%ADD15R,0.0066X0.0003*%
%ADD16R,0.0069X0.0003*%
%ADD17R,0.0048X0.0003*%
%ADD18R,0.0039X0.0003*%
%ADD19R,0.0039X0.0003*%
%ADD20R,0.0036X0.0003*%
%ADD21R,0.0030X0.0003*%
%ADD22R,0.0036X0.0003*%
%ADD23R,0.0042X0.0003*%
%ADD24R,0.0066X0.0003*%
%ADD25R,0.0051X0.0003*%
%ADD26R,0.0033X0.0003*%
%ADD27R,0.0063X0.0003*%
%ADD28R,0.0054X0.0003*%
%ADD29R,0.0051X0.0003*%
%ADD30R,0.0072X0.0003*%
%ADD31R,0.0036X0.0003*%
%ADD32R,0.0036X0.0003*%
%ADD33R,0.0078X0.0003*%
%ADD34R,0.0066X0.0003*%
%ADD35R,0.0033X0.0003*%
%ADD36R,0.0054X0.0003*%
%ADD37R,0.0066X0.0003*%
%ADD38R,0.0081X0.0003*%
%ADD39R,0.0090X0.0003*%
%ADD40R,0.0045X0.0003*%
%ADD41R,0.0087X0.0003*%
%ADD42R,0.0057X0.0003*%
%ADD43R,0.0090X0.0003*%
%ADD44R,0.0114X0.0003*%
%ADD45R,0.0075X0.0003*%
%ADD46R,0.0057X0.0003*%
%ADD47R,0.0093X0.0003*%
%ADD48R,0.0093X0.0003*%
%ADD49R,0.0099X0.0003*%
%ADD50R,0.0060X0.0003*%
%ADD51R,0.0099X0.0003*%
%ADD52R,0.0117X0.0003*%
%ADD53R,0.0102X0.0003*%
%ADD54R,0.0108X0.0003*%
%ADD55R,0.0105X0.0003*%
%ADD56R,0.0111X0.0003*%
%ADD57R,0.0045X0.0003*%
%ADD58R,0.0114X0.0003*%
%ADD59R,0.0039X0.0003*%
%ADD60R,0.0009X0.0003*%
%ADD61R,0.0042X0.0003*%
%ADD62R,0.0006X0.0003*%
%ADD63R,0.0039X0.0003*%
%ADD64R,0.0042X0.0003*%
%ADD65R,0.0042X0.0003*%
%ADD66R,0.0006X0.0003*%
%ADD67R,0.0012X0.0003*%
%ADD68R,0.0033X0.0003*%
%ADD69R,0.0063X0.0003*%
%ADD70R,0.0048X0.0003*%
%ADD71R,0.0075X0.0003*%
%ADD72R,0.0078X0.0003*%
%ADD73R,0.0123X0.0003*%
%ADD74R,0.0126X0.0003*%
%ADD75R,0.0096X0.0003*%
%ADD76R,0.0096X0.0003*%
%ADD77R,0.0084X0.0003*%
%ADD78R,0.0084X0.0003*%
%ADD79R,0.0060X0.0003*%
%ADD80R,0.0084X0.0003*%
%ADD81R,0.0009X0.0003*%
%ADD82R,0.0021X0.0003*%
%ADD83R,0.0051X0.0003*%
%ADD84R,0.0012X0.0003*%
%ADD85R,0.0051X0.0003*%
%ADD86R,0.0081X0.0003*%
%ADD87R,0.0078X0.0003*%
%ADD88R,0.0081X0.0003*%
%ADD89R,0.0192X0.0003*%
%ADD90R,0.0120X0.0003*%
%ADD91R,0.0195X0.0003*%
%ADD92R,0.0087X0.0003*%
%ADD93R,0.0069X0.0003*%
%ADD94R,0.0087X0.0003*%
%ADD95R,0.0072X0.0003*%
%ADD96R,0.0081X0.0003*%
%ADD97R,0.0069X0.0003*%
%ADD98R,0.0069X0.0003*%
%ADD99R,0.0072X0.0003*%
%ADD100R,0.0003X0.0003*%
%ADD101R,0.0012X0.0003*%
%ADD102R,0.0027X0.0003*%
%ADD103R,0.0024X0.0003*%
%ADD104R,0.0027X0.0003*%
%ADD105R,0.0018X0.0003*%
%ADD106R,0.0009X0.0003*%
%ADD107R,0.0348X0.0003*%
%ADD108R,0.0309X0.0003*%
%ADD109R,0.0228X0.0003*%
%ADD110R,0.0243X0.0003*%
%ADD111R,0.0318X0.0003*%
%ADD112R,0.0240X0.0003*%
%ADD113R,0.0255X0.0003*%
%ADD114R,0.0348X0.0003*%
%ADD115R,0.0327X0.0003*%
%ADD116R,0.0249X0.0003*%
%ADD117R,0.0264X0.0003*%
%ADD118R,0.0330X0.0003*%
%ADD119R,0.0258X0.0003*%
%ADD120R,0.0270X0.0003*%
%ADD121R,0.0336X0.0003*%
%ADD122R,0.0264X0.0003*%
%ADD123R,0.0276X0.0003*%
%ADD124R,0.0339X0.0003*%
%ADD125R,0.0282X0.0003*%
%ADD126R,0.0342X0.0003*%
%ADD127R,0.0273X0.0003*%
%ADD128R,0.0288X0.0003*%
%ADD129R,0.0345X0.0003*%
%ADD130R,0.0279X0.0003*%
%ADD131R,0.0291X0.0003*%
%ADD132R,0.0345X0.0003*%
%ADD133R,0.0294X0.0003*%
%ADD134R,0.0297X0.0003*%
%ADD135R,0.0351X0.0003*%
%ADD136R,0.0291X0.0003*%
%ADD137R,0.0300X0.0003*%
%ADD138R,0.0303X0.0003*%
%ADD139R,0.0354X0.0003*%
%ADD140R,0.0297X0.0003*%
%ADD141R,0.0306X0.0003*%
%ADD142R,0.0354X0.0003*%
%ADD143R,0.0357X0.0003*%
%ADD144R,0.0312X0.0003*%
%ADD145R,0.0306X0.0003*%
%ADD146R,0.0315X0.0003*%
%ADD147R,0.0360X0.0003*%
%ADD148R,0.0309X0.0003*%
%ADD149R,0.0315X0.0003*%
%ADD150R,0.0360X0.0003*%
%ADD151R,0.0321X0.0003*%
%ADD152R,0.0093X0.0003*%
%ADD153R,0.0321X0.0003*%
%ADD154R,0.0324X0.0003*%
%ADD155R,0.0363X0.0003*%
%ADD156R,0.0321X0.0003*%
%ADD157R,0.0324X0.0003*%
%ADD158R,0.0327X0.0003*%
%ADD159R,0.0363X0.0003*%
%ADD160R,0.0129X0.0003*%
%ADD161R,0.0117X0.0003*%
%ADD162R,0.0111X0.0003*%
%ADD163R,0.0093X0.0003*%
%ADD164R,0.0084X0.0003*%
%ADD165R,0.0177X0.0003*%
%ADD166R,0.0306X0.0003*%
%ADD167R,0.0186X0.0003*%
%ADD168R,0.0249X0.0003*%
%ADD169R,0.0204X0.0003*%
%ADD170R,0.0210X0.0003*%
%ADD171R,0.0246X0.0003*%
%ADD172R,0.0336X0.0003*%
%ADD173R,0.0216X0.0003*%
%ADD174R,0.0246X0.0003*%
%ADD175R,0.0219X0.0003*%
%ADD176R,0.0225X0.0003*%
%ADD177R,0.0231X0.0003*%
%ADD178R,0.0240X0.0003*%
%ADD179R,0.0234X0.0003*%
%ADD180R,0.0237X0.0003*%
%ADD181R,0.0234X0.0003*%
%ADD182R,0.0243X0.0003*%
%ADD183R,0.0225X0.0003*%
%ADD184R,0.0246X0.0003*%
%ADD185R,0.0222X0.0003*%
%ADD186R,0.0249X0.0003*%
%ADD187R,0.0252X0.0003*%
%ADD188R,0.0231X0.0003*%
%ADD189R,0.0252X0.0003*%
%ADD190R,0.0234X0.0003*%
%ADD191R,0.0312X0.0003*%
%ADD192R,0.0261X0.0003*%
%ADD193R,0.0306X0.0003*%
%ADD194R,0.0261X0.0003*%
%ADD195R,0.0264X0.0003*%
%ADD196R,0.0264X0.0003*%
%ADD197R,0.0303X0.0003*%
%ADD198R,0.0078X0.0003*%
%ADD199R,0.0096X0.0003*%
%ADD200R,0.0102X0.0003*%
%ADD201R,0.0324X0.0003*%
%ADD202R,0.0333X0.0003*%
%ADD203R,0.0321X0.0003*%
%ADD204R,0.0333X0.0003*%
%ADD205R,0.0330X0.0003*%
%ADD206R,0.0327X0.0003*%
%ADD207R,0.0324X0.0003*%
%ADD208R,0.0312X0.0003*%
%ADD209R,0.0309X0.0003*%
%ADD210R,0.0318X0.0003*%
%ADD211R,0.0297X0.0003*%
%ADD212R,0.0294X0.0003*%
%ADD213R,0.0309X0.0003*%
%ADD214R,0.0291X0.0003*%
%ADD215R,0.0285X0.0003*%
%ADD216R,0.0279X0.0003*%
%ADD217R,0.0294X0.0003*%
%ADD218R,0.0276X0.0003*%
%ADD219R,0.0288X0.0003*%
%ADD220R,0.0267X0.0003*%
%ADD221R,0.0252X0.0003*%
%ADD222R,0.0270X0.0003*%
%ADD223R,0.0267X0.0003*%
%ADD224R,0.0144X0.0003*%
%ADD225R,0.0147X0.0003*%
%ADD226R,0.0123X0.0003*%
%ADD227R,0.0147X0.0003*%
%ADD228R,0.0162X0.0003*%
%ADD229R,0.0339X0.0003*%
%ADD230R,0.0378X0.0003*%
%ADD231R,0.0414X0.0003*%
%ADD232R,0.0453X0.0003*%
%ADD233R,0.0147X0.0003*%
%ADD234R,0.0489X0.0003*%
%ADD235R,0.0147X0.0003*%
%ADD236R,0.0531X0.0003*%
%ADD237R,0.0576X0.0003*%
%ADD238R,0.0612X0.0003*%
%ADD239R,0.0645X0.0003*%
%ADD240R,0.0678X0.0003*%
%ADD241R,0.0717X0.0003*%
%ADD242R,0.0144X0.0003*%
%ADD243R,0.0753X0.0003*%
%ADD244R,0.0792X0.0003*%
%ADD245R,0.0828X0.0003*%
%ADD246R,0.0867X0.0003*%
%ADD247R,0.0903X0.0003*%
%ADD248R,0.1086X0.0003*%
%ADD249R,0.1083X0.0003*%
%ADD250R,0.1083X0.0003*%
%ADD251R,0.1092X0.0003*%
%ADD252R,0.1131X0.0003*%
%ADD253R,0.1167X0.0003*%
%ADD254R,0.1203X0.0003*%
%ADD255R,0.1242X0.0003*%
%ADD256R,0.1278X0.0003*%
%ADD257R,0.1359X0.0003*%
%ADD258R,0.1392X0.0003*%
%ADD259R,0.1428X0.0003*%
%ADD260R,0.1467X0.0003*%
%ADD261R,0.1503X0.0003*%
%ADD262R,0.1563X0.0003*%
%ADD263R,0.1578X0.0003*%
%ADD264R,0.1617X0.0003*%
%ADD265R,0.1638X0.0003*%
%ADD266R,0.1611X0.0003*%
%ADD267R,0.1614X0.0003*%
%ADD268R,0.1614X0.0003*%
%ADD269R,0.1683X0.0003*%
%ADD270R,0.1650X0.0003*%
%ADD271R,0.1623X0.0003*%
%ADD272R,0.1623X0.0003*%
%ADD273R,0.1626X0.0003*%
%ADD274R,0.1629X0.0003*%
%ADD275R,0.1629X0.0003*%
%ADD276R,0.1632X0.0003*%
%ADD277R,0.1635X0.0003*%
%ADD278R,0.1641X0.0003*%
%ADD279R,0.1641X0.0003*%
%ADD280R,0.1644X0.0003*%
%ADD281R,0.1647X0.0003*%
%ADD282R,0.1656X0.0003*%
%ADD283R,0.1620X0.0003*%
%ADD284R,0.1584X0.0003*%
%ADD285R,0.1602X0.0003*%
%ADD286R,0.1674X0.0003*%
%ADD287R,0.1674X0.0003*%
%ADD288R,0.1494X0.0003*%
%ADD289R,0.1461X0.0003*%
%ADD290R,0.0141X0.0003*%
%ADD291R,0.1425X0.0003*%
%ADD292R,0.0141X0.0003*%
%ADD293R,0.1389X0.0003*%
%ADD294R,0.1374X0.0003*%
%ADD295R,0.1317X0.0003*%
%ADD296R,0.1284X0.0003*%
%ADD297R,0.1248X0.0003*%
%ADD298R,0.0144X0.0003*%
%ADD299R,0.1212X0.0003*%
%ADD300R,0.1176X0.0003*%
%ADD301R,0.1140X0.0003*%
%ADD302R,0.0141X0.0003*%
%ADD303R,0.1107X0.0003*%
%ADD304R,0.1071X0.0003*%
%ADD305R,0.0141X0.0003*%
%ADD306R,0.1035X0.0003*%
%ADD307R,0.1002X0.0003*%
%ADD308R,0.0966X0.0003*%
%ADD309R,0.0810X0.0003*%
%ADD310R,0.0027X0.0003*%
%ADD311R,0.0810X0.0003*%
%ADD312R,0.0138X0.0003*%
%ADD313R,0.0708X0.0003*%
%ADD314R,0.0705X0.0003*%
%ADD315R,0.0138X0.0003*%
%ADD316R,0.0681X0.0003*%
%ADD317R,0.0609X0.0003*%
%ADD318R,0.0573X0.0003*%
%ADD319R,0.0135X0.0003*%
%ADD320R,0.0540X0.0003*%
%ADD321R,0.0135X0.0003*%
%ADD322R,0.0504X0.0003*%
%ADD323R,0.0468X0.0003*%
%ADD324R,0.0432X0.0003*%
%ADD325R,0.0396X0.0003*%
%ADD326R,0.0159X0.0003*%
%ADD327R,0.0219X0.0003*%
%ADD328R,0.0408X0.0003*%
%ADD329R,0.0186X0.0003*%
%ADD330R,0.0462X0.0003*%
%ADD331R,0.0150X0.0003*%
%ADD332R,0.0507X0.0003*%
%ADD333R,0.0561X0.0003*%
%ADD334R,0.0615X0.0003*%
%ADD335R,0.0660X0.0003*%
%ADD336R,0.0777X0.0003*%
%ADD337R,0.0777X0.0003*%
%ADD338R,0.0858X0.0003*%
%ADD339R,0.0861X0.0003*%
%ADD340R,0.0861X0.0003*%
%ADD341R,0.0864X0.0003*%
%ADD342R,0.0864X0.0003*%
%ADD343R,0.0867X0.0003*%
%ADD344R,0.0867X0.0003*%
%ADD345R,0.0870X0.0003*%
%ADD346R,0.0873X0.0003*%
%ADD347R,0.0873X0.0003*%
%ADD348R,0.0876X0.0003*%
%ADD349R,0.0879X0.0003*%
%ADD350R,0.0879X0.0003*%
%ADD351R,0.0456X0.0003*%
%ADD352R,0.0180X0.0003*%
%ADD353R,0.0456X0.0003*%
%ADD354R,0.0180X0.0003*%
%ADD355R,0.0459X0.0003*%
%ADD356R,0.0459X0.0003*%
%ADD357R,0.0183X0.0003*%
%ADD358R,0.0183X0.0003*%
%ADD359R,0.0462X0.0003*%
%ADD360R,0.0462X0.0003*%
%ADD361R,0.0138X0.0003*%
%ADD362R,0.0465X0.0003*%
%ADD363R,0.0465X0.0003*%
%ADD364R,0.0186X0.0003*%
%ADD365R,0.0189X0.0003*%
%ADD366R,0.0189X0.0003*%
%ADD367R,0.0192X0.0003*%
%ADD368R,0.0468X0.0003*%
%ADD369R,0.0471X0.0003*%
%ADD370R,0.0471X0.0003*%
%ADD371R,0.0195X0.0003*%
%ADD372R,0.0474X0.0003*%
%ADD373R,0.0474X0.0003*%
%ADD374R,0.0198X0.0003*%
%ADD375R,0.0198X0.0003*%
%ADD376R,0.0477X0.0003*%
%ADD377R,0.0477X0.0003*%
%ADD378R,0.0201X0.0003*%
%ADD379R,0.0480X0.0003*%
%ADD380R,0.0480X0.0003*%
%ADD381R,0.0201X0.0003*%
%ADD382R,0.0138X0.0003*%
%ADD383R,0.0204X0.0003*%
%ADD384R,0.0207X0.0003*%
%ADD385R,0.0207X0.0003*%
%ADD386R,0.0483X0.0003*%
%ADD387R,0.0483X0.0003*%
%ADD388R,0.0210X0.0003*%
%ADD389R,0.0486X0.0003*%
%ADD390R,0.0486X0.0003*%
%ADD391R,0.0489X0.0003*%
%ADD392R,0.0213X0.0003*%
%ADD393R,0.0489X0.0003*%
%ADD394R,0.0213X0.0003*%
%ADD395R,0.0111X0.0003*%
%ADD396R,0.0216X0.0003*%
%ADD397R,0.0108X0.0003*%
%ADD398R,0.0108X0.0003*%
%ADD399R,0.0222X0.0003*%
%ADD400R,0.0063X0.0003*%
%ADD401R,0.0105X0.0003*%
%ADD402R,0.0222X0.0003*%
%ADD403R,0.0132X0.0003*%
%ADD404R,0.0132X0.0003*%
%ADD405R,0.0132X0.0003*%
%ADD406R,0.0228X0.0003*%
%ADD407R,0.0231X0.0003*%
%ADD408R,0.0102X0.0003*%
%ADD409R,0.0099X0.0003*%
%ADD410R,0.0237X0.0003*%
%ADD411R,0.0243X0.0003*%
%ADD412R,0.0243X0.0003*%
%ADD413R,0.0102X0.0003*%
%ADD414R,0.0585X0.0003*%
%ADD415R,0.0588X0.0003*%
%ADD416R,0.0588X0.0003*%
%ADD417R,0.0108X0.0003*%
%ADD418R,0.0627X0.0003*%
%ADD419R,0.0732X0.0003*%
%ADD420R,0.0825X0.0003*%
%ADD421R,0.1026X0.0003*%
%ADD422R,0.1026X0.0003*%
%ADD423R,0.1029X0.0003*%
%ADD424R,0.1032X0.0003*%
%ADD425R,0.0012X0.0003*%
%ADD426R,0.1032X0.0003*%
%ADD427R,0.1035X0.0003*%
%ADD428R,0.0132X0.0003*%
%ADD429R,0.0996X0.0003*%
%ADD430R,0.0795X0.0003*%
%ADD431R,0.0657X0.0003*%
%ADD432R,0.0516X0.0003*%
%ADD433R,0.0390X0.0003*%
%ADD434R,0.0099X0.0003*%
%ADD435R,0.0129X0.0003*%
%ADD436R,0.0153X0.0003*%
%ADD437R,0.0165X0.0003*%
%ADD438R,0.0246X0.0003*%
%ADD439R,0.0168X0.0003*%
%ADD440R,0.0168X0.0003*%
%ADD441R,0.0198X0.0003*%
%ADD442R,0.0261X0.0003*%
%ADD443R,0.0168X0.0003*%
%ADD444R,0.0171X0.0003*%
%ADD445R,0.0438X0.0003*%
%ADD446R,0.0171X0.0003*%
%ADD447R,0.0876X0.0003*%
%ADD448R,0.0174X0.0003*%
%ADD449R,0.1095X0.0003*%
%ADD450R,0.0174X0.0003*%
%ADD451R,0.1317X0.0003*%
%ADD452R,0.0174X0.0003*%
%ADD453R,0.1458X0.0003*%
%ADD454R,0.1845X0.0003*%
%ADD455R,0.1842X0.0003*%
%ADD456R,0.1839X0.0003*%
%ADD457R,0.1836X0.0003*%
%ADD458R,0.1833X0.0003*%
%ADD459R,0.1830X0.0003*%
%ADD460R,0.1827X0.0003*%
%ADD461R,0.1824X0.0003*%
%ADD462R,0.1821X0.0003*%
%ADD463R,0.1818X0.0003*%
%ADD464R,0.1815X0.0003*%
%ADD465R,0.1809X0.0003*%
%ADD466R,0.1806X0.0003*%
%ADD467R,0.1803X0.0003*%
%ADD468R,0.1800X0.0003*%
%ADD469R,0.1794X0.0003*%
%ADD470R,0.1743X0.0003*%
%ADD471R,0.1734X0.0003*%
%ADD472R,0.1662X0.0003*%
%ADD473R,0.1620X0.0003*%
%ADD474R,0.1608X0.0003*%
%ADD475R,0.1596X0.0003*%
%ADD476R,0.1572X0.0003*%
%ADD477R,0.1554X0.0003*%
%ADD478R,0.1545X0.0003*%
%ADD479R,0.1539X0.0003*%
%ADD480R,0.1530X0.0003*%
%ADD481R,0.1524X0.0003*%
%ADD482R,0.1518X0.0003*%
%ADD483R,0.1158X0.0003*%
%ADD484R,0.0924X0.0003*%
%ADD485R,0.0690X0.0003*%
%ADD486R,0.0456X0.0003*%
%ADD487R,0.0150X0.0003*%
%ADD488R,0.0213X0.0003*%
%ADD489R,0.0153X0.0003*%
%ADD490R,0.0156X0.0003*%
%ADD491R,0.0156X0.0003*%
%ADD492R,0.0207X0.0003*%
%ADD493R,0.0387X0.0003*%
%ADD494R,0.0159X0.0003*%
%ADD495R,0.0564X0.0003*%
%ADD496R,0.0741X0.0003*%
%ADD497R,0.0918X0.0003*%
%ADD498R,0.0159X0.0003*%
%ADD499R,0.1134X0.0003*%
%ADD500R,0.1269X0.0003*%
%ADD501R,0.1296X0.0003*%
%ADD502R,0.1290X0.0003*%
%ADD503R,0.1275X0.0003*%
%ADD504R,0.1269X0.0003*%
%ADD505R,0.1263X0.0003*%
%ADD506R,0.1257X0.0003*%
%ADD507R,0.1251X0.0003*%
%ADD508R,0.1242X0.0003*%
%ADD509R,0.1239X0.0003*%
%ADD510R,0.1233X0.0003*%
%ADD511R,0.1227X0.0003*%
%ADD512R,0.1221X0.0003*%
%ADD513R,0.1215X0.0003*%
%ADD514R,0.1209X0.0003*%
%ADD515R,0.1203X0.0003*%
%ADD516R,0.1200X0.0003*%
%ADD517R,0.1194X0.0003*%
%ADD518R,0.1188X0.0003*%
%ADD519R,0.1182X0.0003*%
%ADD520R,0.1170X0.0003*%
%ADD521R,0.0642X0.0003*%
%ADD522R,0.0522X0.0003*%
%ADD523R,0.0621X0.0003*%
%ADD524R,0.0498X0.0003*%
%ADD525R,0.0486X0.0003*%
%ADD526R,0.0600X0.0003*%
%ADD527R,0.0591X0.0003*%
%ADD528R,0.0462X0.0003*%
%ADD529R,0.0576X0.0003*%
%ADD530R,0.0459X0.0003*%
%ADD531R,0.0570X0.0003*%
%ADD532R,0.0564X0.0003*%
%ADD533R,0.0447X0.0003*%
%ADD534R,0.0558X0.0003*%
%ADD535R,0.0441X0.0003*%
%ADD536R,0.0552X0.0003*%
%ADD537R,0.0435X0.0003*%
%ADD538R,0.0549X0.0003*%
%ADD539R,0.0429X0.0003*%
%ADD540R,0.0543X0.0003*%
%ADD541R,0.0426X0.0003*%
%ADD542R,0.0537X0.0003*%
%ADD543R,0.0423X0.0003*%
%ADD544R,0.0534X0.0003*%
%ADD545R,0.0417X0.0003*%
%ADD546R,0.0528X0.0003*%
%ADD547R,0.0414X0.0003*%
%ADD548R,0.0525X0.0003*%
%ADD549R,0.0408X0.0003*%
%ADD550R,0.0519X0.0003*%
%ADD551R,0.0405X0.0003*%
%ADD552R,0.0204X0.0003*%
%ADD553R,0.0513X0.0003*%
%ADD554R,0.0399X0.0003*%
%ADD555R,0.0396X0.0003*%
%ADD556R,0.0504X0.0003*%
%ADD557R,0.0393X0.0003*%
%ADD558R,0.0501X0.0003*%
%ADD559R,0.0387X0.0003*%
%ADD560R,0.0498X0.0003*%
%ADD561R,0.0384X0.0003*%
%ADD562R,0.0495X0.0003*%
%ADD563R,0.0492X0.0003*%
%ADD564R,0.0381X0.0003*%
%ADD565R,0.0486X0.0003*%
%ADD566R,0.0378X0.0003*%
%ADD567R,0.0483X0.0003*%
%ADD568R,0.0375X0.0003*%
%ADD569R,0.0372X0.0003*%
%ADD570R,0.0369X0.0003*%
%ADD571R,0.0477X0.0003*%
%ADD572R,0.0366X0.0003*%
%ADD573R,0.0474X0.0003*%
%ADD574R,0.0366X0.0003*%
%ADD575R,0.0471X0.0003*%
%ADD576R,0.0357X0.0003*%
%ADD577R,0.0357X0.0003*%
%ADD578R,0.0351X0.0003*%
%ADD579R,0.0450X0.0003*%
%ADD580R,0.0351X0.0003*%
%ADD581R,0.0450X0.0003*%
%ADD582R,0.0201X0.0003*%
%ADD583R,0.0447X0.0003*%
%ADD584R,0.0447X0.0003*%
%ADD585R,0.0348X0.0003*%
%ADD586R,0.0354X0.0003*%
%ADD587R,0.0357X0.0003*%
%ADD588R,0.0861X0.0003*%
%ADD589R,0.0855X0.0003*%
%ADD590R,0.0849X0.0003*%
%ADD591R,0.0843X0.0003*%
%ADD592R,0.0837X0.0003*%
%ADD593R,0.0831X0.0003*%
%ADD594R,0.0828X0.0003*%
%ADD595R,0.0822X0.0003*%
%ADD596R,0.0816X0.0003*%
%ADD597R,0.0804X0.0003*%
%ADD598R,0.0798X0.0003*%
%ADD599R,0.0792X0.0003*%
%ADD600R,0.0789X0.0003*%
%ADD601R,0.0783X0.0003*%
%ADD602R,0.0771X0.0003*%
%ADD603R,0.0765X0.0003*%
%ADD604R,0.0759X0.0003*%
%ADD605R,0.0756X0.0003*%
%ADD606R,0.0750X0.0003*%
%ADD607R,0.0744X0.0003*%
%ADD608R,0.0738X0.0003*%
%ADD609R,0.0732X0.0003*%
%ADD610R,0.0726X0.0003*%
%ADD611R,0.0723X0.0003*%
%ADD612R,0.0717X0.0003*%
%ADD613R,0.0711X0.0003*%
%ADD614R,0.0699X0.0003*%
%ADD615R,0.0693X0.0003*%
%ADD616R,0.0690X0.0003*%
%ADD617R,0.0684X0.0003*%
%ADD618R,0.0678X0.0003*%
%ADD619R,0.0672X0.0003*%
%ADD620R,0.0666X0.0003*%
%ADD621R,0.0660X0.0003*%
%ADD622R,0.0651X0.0003*%
%ADD623R,0.0639X0.0003*%
%ADD624R,0.0633X0.0003*%
%ADD625R,0.0621X0.0003*%
%ADD626R,0.0603X0.0003*%
%ADD627R,0.0597X0.0003*%
%ADD628R,0.0591X0.0003*%
%ADD629R,0.0192X0.0003*%
%ADD630R,0.0582X0.0003*%
%ADD631R,0.0576X0.0003*%
%ADD632R,0.0558X0.0003*%
%ADD633R,0.0552X0.0003*%
%ADD634R,0.0549X0.0003*%
%ADD635R,0.0543X0.0003*%
%ADD636R,0.0537X0.0003*%
%ADD637R,0.0525X0.0003*%
%ADD638R,0.0519X0.0003*%
%ADD639R,0.0510X0.0003*%
%ADD640R,0.0504X0.0003*%
%ADD641R,0.0492X0.0003*%
%ADD642R,0.0189X0.0003*%
%ADD643R,0.0189X0.0003*%
%ADD644R,0.0444X0.0003*%
%ADD645R,0.0438X0.0003*%
%ADD646R,0.0420X0.0003*%
%ADD647R,0.0411X0.0003*%
%ADD648R,0.0393X0.0003*%
%ADD649R,0.0381X0.0003*%
%ADD650R,0.0378X0.0003*%
%ADD651R,0.0372X0.0003*%
%ADD652R,0.0186X0.0003*%
%ADD653R,0.0348X0.0003*%
%ADD654R,0.0342X0.0003*%
%ADD655R,0.0279X0.0003*%
%ADD656R,0.0237X0.0003*%
%ADD657R,0.0183X0.0003*%
%ADD658R,0.0219X0.0003*%
%ADD659R,0.0216X0.0003*%
%ADD660R,0.0390X0.0003*%
%ADD661R,0.0384X0.0003*%
%ADD662R,0.0339X0.0003*%
%ADD663R,0.0021X0.0003*%
%ADD664R,0.0015X0.0003*%
%ADD665R,0.0228X0.0003*%
%ADD666R,0.0219X0.0003*%
%ADD667R,0.0129X0.0003*%
%ADD668R,0.0123X0.0003*%
%ADD669R,0.0117X0.0003*%
%ADD670R,0.0114X0.0003*%
%ADD671R,0.0018X0.0003*%
%ADD672C,0.0768*%
%ADD673C,0.0768*%
%ADD674C,0.0554*%
%ADD675C,0.0594*%
%ADD676OC8,0.0554*%
%ADD677C,0.0554*%
%ADD678C,0.1000*%
%ADD679OC8,0.1000*%
%ADD680R,0.0681X0.0657*%
%ADD681OC8,0.0594*%
%ADD682C,0.0709*%
%ADD683C,0.0760*%
%ADD684OC8,0.0357*%
%ADD685C,0.0860*%
%ADD686C,0.0240*%
%ADD687C,0.0320*%
%ADD688C,0.0160*%
%ADD689OC8,0.0531*%
%ADD690OC8,0.0945*%
D10*
X022285Y024832D02*
X022285Y025423D01*
X022088Y025423D02*
X022482Y025423D01*
X022733Y025324D02*
X022733Y024930D01*
X022831Y024832D01*
X023028Y024832D01*
X023126Y024930D01*
X023126Y025324D01*
X023028Y025423D01*
X022831Y025423D01*
X022733Y025324D01*
X023377Y025423D02*
X023672Y025423D01*
X023771Y025324D01*
X023771Y025127D01*
X023672Y025029D01*
X023377Y025029D01*
X023377Y024832D02*
X023377Y025423D01*
D11*
X021014Y021987D03*
X021134Y021285D03*
X021209Y021189D03*
D12*
X021214Y021192D03*
D13*
X021217Y021195D03*
X021736Y021291D03*
X019927Y021225D03*
X019624Y021225D03*
X020371Y023922D03*
D14*
X019664Y021273D03*
X019775Y021228D03*
X021218Y021198D03*
X021248Y021243D03*
D15*
X021220Y021201D03*
X020725Y021225D03*
X020233Y021291D03*
X020203Y021300D03*
X020008Y022566D03*
X020008Y022569D03*
X020008Y022572D03*
X020008Y022575D03*
X020008Y022581D03*
D16*
X020006Y022584D03*
X020006Y022587D03*
X020006Y022590D03*
X020006Y022596D03*
X020006Y022599D03*
X020369Y023907D03*
X020369Y023910D03*
X021221Y021204D03*
X021863Y021300D03*
D17*
X021355Y021279D03*
X021247Y021231D03*
X021235Y021207D03*
X021067Y021279D03*
X020917Y021291D03*
X020758Y021240D03*
X020071Y021240D03*
X020002Y021240D03*
X019603Y021237D03*
X019423Y021306D03*
X021517Y022032D03*
D18*
X021728Y021282D03*
X021728Y021279D03*
X021809Y021279D03*
X021809Y021282D03*
X021503Y021240D03*
X021248Y021225D03*
X021248Y021222D03*
X021239Y021210D03*
X021209Y021285D03*
X021206Y021291D03*
X020924Y021285D03*
X020924Y021282D03*
X020774Y021255D03*
X020771Y021249D03*
X020768Y021246D03*
X020771Y021279D03*
X020681Y021246D03*
X020678Y021249D03*
X020528Y021240D03*
X020204Y021306D03*
X020084Y021276D03*
X020081Y021282D03*
X020078Y021285D03*
X020081Y021249D03*
X020078Y021246D03*
X019991Y021246D03*
X019988Y021249D03*
X019988Y021279D03*
X019991Y021282D03*
X019994Y021285D03*
X019748Y021249D03*
X019598Y021240D03*
X019316Y021240D03*
X019064Y021321D03*
D19*
X019985Y021258D03*
X020372Y021243D03*
X020450Y021243D03*
X020525Y021288D03*
X021242Y021213D03*
X021347Y021243D03*
D20*
X021346Y021246D03*
X021349Y021282D03*
X021352Y021291D03*
X021292Y021294D03*
X021292Y021297D03*
X021289Y021291D03*
X021286Y021285D03*
X021277Y021270D03*
X021274Y021264D03*
X021247Y021219D03*
X021244Y021216D03*
X021214Y021276D03*
X021214Y021279D03*
X021211Y021282D03*
X021202Y021297D03*
X021199Y021306D03*
X021142Y021240D03*
X021061Y021282D03*
X021064Y021291D03*
X020926Y021279D03*
X020926Y021276D03*
X020926Y021270D03*
X020926Y021267D03*
X020926Y021264D03*
X020926Y021261D03*
X020926Y021255D03*
X020926Y021252D03*
X020926Y021249D03*
X020926Y021246D03*
X020926Y021240D03*
X020926Y021237D03*
X020926Y021234D03*
X020926Y021231D03*
X020926Y021225D03*
X020839Y021225D03*
X020839Y021231D03*
X020839Y021234D03*
X020839Y021237D03*
X020839Y021240D03*
X020839Y021246D03*
X020839Y021249D03*
X020839Y021252D03*
X020839Y021255D03*
X020839Y021261D03*
X020839Y021264D03*
X020839Y021267D03*
X020839Y021270D03*
X020839Y021276D03*
X020776Y021270D03*
X020776Y021267D03*
X020776Y021264D03*
X020776Y021261D03*
X020677Y021252D03*
X020674Y021261D03*
X020674Y021264D03*
X020674Y021267D03*
X020674Y021270D03*
X020677Y021276D03*
X020677Y021279D03*
X020611Y021279D03*
X020611Y021276D03*
X020611Y021270D03*
X020611Y021267D03*
X020611Y021264D03*
X020611Y021261D03*
X020611Y021255D03*
X020611Y021252D03*
X020611Y021249D03*
X020611Y021246D03*
X020611Y021240D03*
X020611Y021237D03*
X020611Y021234D03*
X020611Y021231D03*
X020611Y021225D03*
X020611Y021282D03*
X020611Y021285D03*
X020611Y021291D03*
X020611Y021294D03*
X020611Y021297D03*
X020611Y021300D03*
X020611Y021321D03*
X020611Y021324D03*
X020611Y021327D03*
X020611Y021330D03*
X020611Y021336D03*
X020452Y021285D03*
X020452Y021249D03*
X020452Y021246D03*
X020371Y021246D03*
X020371Y021249D03*
X020371Y021252D03*
X020149Y021270D03*
X020149Y021276D03*
X020149Y021279D03*
X020086Y021270D03*
X020086Y021267D03*
X020086Y021264D03*
X020086Y021261D03*
X020086Y021255D03*
X019987Y021255D03*
X019987Y021252D03*
X019984Y021261D03*
X019984Y021264D03*
X019984Y021267D03*
X019984Y021270D03*
X019987Y021276D03*
X019909Y021276D03*
X019909Y021279D03*
X019909Y021282D03*
X019909Y021285D03*
X019909Y021270D03*
X019909Y021267D03*
X019909Y021264D03*
X019909Y021261D03*
X019909Y021255D03*
X019909Y021252D03*
X019909Y021249D03*
X019909Y021246D03*
X019909Y021309D03*
X019909Y021312D03*
X019909Y021315D03*
X019909Y021321D03*
X019909Y021324D03*
X019834Y021306D03*
X019834Y021300D03*
X019834Y021297D03*
X019834Y021294D03*
X019834Y021291D03*
X019834Y021285D03*
X019834Y021282D03*
X019834Y021279D03*
X019834Y021276D03*
X019834Y021270D03*
X019834Y021267D03*
X019834Y021264D03*
X019834Y021261D03*
X019834Y021255D03*
X019834Y021252D03*
X019747Y021252D03*
X019747Y021255D03*
X019747Y021261D03*
X019747Y021264D03*
X019747Y021267D03*
X019747Y021270D03*
X019747Y021276D03*
X019747Y021279D03*
X019747Y021282D03*
X019747Y021285D03*
X019747Y021291D03*
X019747Y021294D03*
X019747Y021297D03*
X019747Y021300D03*
X019684Y021225D03*
X019597Y021246D03*
X019597Y021249D03*
X019597Y021252D03*
X019462Y021285D03*
X019426Y021222D03*
X019384Y021246D03*
X019381Y021249D03*
X019381Y021252D03*
X019381Y021255D03*
X019381Y021276D03*
X019381Y021279D03*
X019384Y021282D03*
X019324Y021276D03*
X019321Y021282D03*
X019321Y021246D03*
X019282Y021222D03*
X019237Y021252D03*
X019237Y021255D03*
X019237Y021276D03*
X019237Y021279D03*
X019192Y021306D03*
X019144Y021270D03*
X019144Y021267D03*
X019144Y021264D03*
X019144Y021261D03*
X019144Y021255D03*
X019144Y021252D03*
X019144Y021249D03*
X019144Y021246D03*
X019144Y021240D03*
X019144Y021237D03*
X019144Y021234D03*
X019144Y021231D03*
X019144Y021225D03*
X021502Y021246D03*
X021502Y021249D03*
X021502Y021252D03*
X021502Y021255D03*
X021502Y021261D03*
X021502Y021264D03*
X021502Y021267D03*
X021502Y021270D03*
X021502Y021276D03*
X021502Y021279D03*
X021502Y021282D03*
X021502Y021285D03*
X021502Y021309D03*
X021502Y021312D03*
X021502Y021315D03*
X021502Y021321D03*
X021502Y021324D03*
X021577Y021276D03*
X021577Y021255D03*
X021577Y021252D03*
X021622Y021222D03*
X021661Y021246D03*
X021664Y021276D03*
X021727Y021276D03*
X021727Y021270D03*
X021727Y021267D03*
X021727Y021264D03*
X021727Y021261D03*
X021727Y021255D03*
X021727Y021252D03*
X021727Y021249D03*
X021727Y021246D03*
X021727Y021240D03*
X021727Y021237D03*
X021727Y021234D03*
X021727Y021231D03*
X021727Y021225D03*
X021889Y021225D03*
X021889Y021231D03*
X021889Y021234D03*
X021889Y021237D03*
X021889Y021240D03*
X021889Y021246D03*
X021889Y021249D03*
X021889Y021252D03*
X021889Y021255D03*
X021889Y021261D03*
X021889Y021264D03*
X021889Y021267D03*
X021889Y021270D03*
X021889Y021276D03*
X021889Y021279D03*
X021889Y021282D03*
X019414Y022857D03*
X020509Y023799D03*
D21*
X020509Y023802D03*
X019414Y022854D03*
X021508Y022029D03*
X021520Y021222D03*
X020545Y021222D03*
X020398Y021222D03*
X020146Y021306D03*
X019927Y021222D03*
X019774Y021222D03*
X019621Y021222D03*
D22*
X019600Y021255D03*
X019600Y021285D03*
X019678Y021285D03*
X019678Y021282D03*
X019678Y021279D03*
X019678Y021261D03*
X019678Y021255D03*
X019678Y021252D03*
X019678Y021249D03*
X019678Y021246D03*
X019750Y021246D03*
X019465Y021246D03*
X019465Y021282D03*
X019243Y021285D03*
X019240Y021282D03*
X019240Y021249D03*
X019240Y021246D03*
X019063Y021249D03*
X019063Y021246D03*
X019063Y021240D03*
X019063Y021237D03*
X019063Y021234D03*
X019063Y021231D03*
X019063Y021225D03*
X019063Y021252D03*
X019063Y021255D03*
X019063Y021261D03*
X019063Y021264D03*
X019063Y021267D03*
X019063Y021270D03*
X019063Y021276D03*
X019063Y021279D03*
X019063Y021282D03*
X019063Y021285D03*
X019063Y021309D03*
X019063Y021312D03*
X019063Y021315D03*
X020035Y021222D03*
X020083Y021252D03*
X020083Y021279D03*
X020230Y021279D03*
X020230Y021276D03*
X020230Y021270D03*
X020308Y021276D03*
X020308Y021279D03*
X020308Y021282D03*
X020308Y021285D03*
X020680Y021282D03*
X020725Y021222D03*
X020773Y021252D03*
X020773Y021276D03*
X020770Y021282D03*
X021058Y021246D03*
X021145Y021246D03*
X021145Y021249D03*
X021205Y021294D03*
X021220Y021267D03*
X021223Y021261D03*
X021280Y021276D03*
X021283Y021279D03*
X021295Y021300D03*
X021298Y021306D03*
X021433Y021249D03*
X021433Y021246D03*
X021430Y021240D03*
X021580Y021246D03*
X021580Y021249D03*
X021580Y021282D03*
X021583Y021285D03*
X021808Y021276D03*
X021808Y021270D03*
X021808Y021267D03*
X021808Y021264D03*
X021808Y021261D03*
X021808Y021255D03*
X021808Y021252D03*
X021808Y021249D03*
X021808Y021246D03*
X021808Y021240D03*
X021808Y021237D03*
X021808Y021234D03*
X021808Y021231D03*
X021808Y021225D03*
D23*
X021730Y021285D03*
X021652Y021291D03*
X021658Y021240D03*
X021865Y021306D03*
X021430Y021252D03*
X021391Y021222D03*
X021352Y021240D03*
X021142Y021252D03*
X021136Y021291D03*
X021103Y021222D03*
X020842Y021285D03*
X020767Y021285D03*
X020683Y021285D03*
X020230Y021282D03*
X020152Y021285D03*
X019753Y021240D03*
X019675Y021276D03*
X019606Y021291D03*
X019390Y021240D03*
X019246Y021240D03*
X019147Y021282D03*
X021520Y022167D03*
D24*
X020776Y021960D03*
X020776Y021957D03*
X020776Y021954D03*
X020776Y021951D03*
X020776Y021945D03*
X020776Y021942D03*
X020776Y021939D03*
X020776Y021936D03*
X020776Y021930D03*
X020776Y021927D03*
X020776Y021924D03*
X020776Y021921D03*
X020776Y021915D03*
X020776Y021912D03*
X020776Y021909D03*
X020776Y021906D03*
X020776Y021900D03*
X020776Y021897D03*
X020776Y021894D03*
X020776Y021891D03*
X020776Y021885D03*
X020776Y021882D03*
X020776Y021879D03*
X020776Y021876D03*
X020776Y021870D03*
X020776Y021867D03*
X020776Y021864D03*
X020776Y021861D03*
X020776Y021855D03*
X020776Y021852D03*
X020776Y021849D03*
X020776Y021846D03*
X020776Y021840D03*
X020776Y021837D03*
X020776Y021834D03*
X020776Y021831D03*
X021247Y021246D03*
X021622Y021225D03*
X019426Y021225D03*
X019282Y021225D03*
X019081Y021327D03*
X019414Y022869D03*
D25*
X019280Y021306D03*
X019775Y021225D03*
X020690Y021240D03*
X021620Y021306D03*
D26*
X021659Y021285D03*
X021662Y021282D03*
X021662Y021279D03*
X021725Y021297D03*
X021725Y021300D03*
X021725Y021306D03*
X021578Y021279D03*
X021347Y021285D03*
X021284Y021282D03*
X021275Y021267D03*
X021272Y021261D03*
X021269Y021255D03*
X021230Y021249D03*
X021227Y021252D03*
X021227Y021255D03*
X021218Y021270D03*
X021059Y021285D03*
X020837Y021297D03*
X020837Y021300D03*
X020837Y021306D03*
X020609Y021306D03*
X020609Y021339D03*
X020525Y021324D03*
X020525Y021321D03*
X020525Y021315D03*
X020525Y021312D03*
X020525Y021309D03*
X020525Y021285D03*
X020525Y021282D03*
X020525Y021279D03*
X020525Y021276D03*
X020525Y021270D03*
X020525Y021267D03*
X020525Y021264D03*
X020525Y021261D03*
X020525Y021255D03*
X020525Y021252D03*
X020525Y021249D03*
X020525Y021246D03*
X020459Y021225D03*
X020453Y021252D03*
X020453Y021255D03*
X020453Y021261D03*
X020453Y021279D03*
X020453Y021282D03*
X020375Y021285D03*
X020309Y021270D03*
X020309Y021267D03*
X020309Y021264D03*
X020309Y021261D03*
X020309Y021255D03*
X020309Y021252D03*
X020309Y021249D03*
X020309Y021246D03*
X020309Y021240D03*
X020309Y021237D03*
X020309Y021234D03*
X020309Y021231D03*
X020309Y021225D03*
X020228Y021225D03*
X020228Y021231D03*
X020228Y021234D03*
X020228Y021237D03*
X020228Y021240D03*
X020228Y021246D03*
X020228Y021249D03*
X020228Y021252D03*
X020228Y021255D03*
X020228Y021261D03*
X020228Y021264D03*
X020228Y021267D03*
X020147Y021267D03*
X020147Y021264D03*
X020147Y021261D03*
X020147Y021255D03*
X020147Y021252D03*
X020147Y021249D03*
X020147Y021246D03*
X020147Y021240D03*
X020147Y021237D03*
X020147Y021234D03*
X020147Y021231D03*
X020147Y021225D03*
X020147Y021300D03*
X019835Y021231D03*
X019835Y021225D03*
X019748Y021306D03*
X019322Y021279D03*
X019319Y021285D03*
X019142Y021300D03*
X019142Y021306D03*
X020369Y023931D03*
D27*
X021101Y021306D03*
X020036Y021225D03*
X019616Y021261D03*
D28*
X020035Y021306D03*
X020158Y021291D03*
X020398Y021225D03*
X020725Y021306D03*
D29*
X020543Y021225D03*
X021248Y021234D03*
X021521Y021225D03*
X019826Y021240D03*
D30*
X021103Y021225D03*
X021391Y021225D03*
X020005Y022602D03*
X020005Y022605D03*
X020005Y022611D03*
X020005Y022614D03*
X020005Y022617D03*
X020005Y022620D03*
X020845Y022872D03*
X020845Y022875D03*
X020845Y022881D03*
X020845Y022884D03*
X020845Y022887D03*
X020845Y022890D03*
X020845Y022896D03*
X020845Y022899D03*
X020845Y022902D03*
X020845Y022905D03*
X020845Y022911D03*
X020845Y022914D03*
X020845Y022917D03*
X020845Y022920D03*
D31*
X021208Y021288D03*
X021145Y021243D03*
X021295Y021303D03*
X021433Y021243D03*
X021808Y021243D03*
X021808Y021228D03*
X021808Y021258D03*
X021808Y021273D03*
X020458Y021228D03*
X020230Y021273D03*
X019678Y021258D03*
X019468Y021273D03*
X019243Y021243D03*
X019063Y021243D03*
X019063Y021228D03*
X019063Y021258D03*
X019063Y021273D03*
X019063Y021288D03*
X019063Y021318D03*
D32*
X019144Y021273D03*
X019144Y021258D03*
X019144Y021243D03*
X019144Y021228D03*
X019237Y021258D03*
X019237Y021273D03*
X019324Y021273D03*
X019381Y021273D03*
X019381Y021258D03*
X019387Y021243D03*
X019459Y021288D03*
X019597Y021243D03*
X019747Y021258D03*
X019747Y021273D03*
X019747Y021288D03*
X019747Y021303D03*
X019834Y021303D03*
X019834Y021288D03*
X019834Y021273D03*
X019834Y021258D03*
X019909Y021258D03*
X019909Y021243D03*
X019909Y021273D03*
X019909Y021288D03*
X019909Y021318D03*
X019987Y021273D03*
X020086Y021273D03*
X020086Y021258D03*
X020149Y021273D03*
X020377Y021288D03*
X020452Y021288D03*
X020527Y021243D03*
X020611Y021243D03*
X020611Y021228D03*
X020611Y021258D03*
X020611Y021273D03*
X020611Y021288D03*
X020611Y021303D03*
X020611Y021333D03*
X020674Y021273D03*
X020674Y021258D03*
X020776Y021258D03*
X020839Y021258D03*
X020839Y021243D03*
X020839Y021228D03*
X020839Y021273D03*
X020926Y021273D03*
X020926Y021258D03*
X020926Y021243D03*
X020926Y021228D03*
X021139Y021288D03*
X021199Y021303D03*
X021217Y021273D03*
X021271Y021258D03*
X021427Y021288D03*
X021502Y021288D03*
X021502Y021273D03*
X021502Y021258D03*
X021502Y021243D03*
X021502Y021318D03*
X021577Y021273D03*
X021577Y021258D03*
X021661Y021243D03*
X021664Y021273D03*
X021727Y021273D03*
X021727Y021258D03*
X021727Y021243D03*
X021727Y021228D03*
X021889Y021228D03*
X021889Y021243D03*
X021889Y021258D03*
X021889Y021273D03*
X020371Y023928D03*
D33*
X020002Y022653D03*
X020773Y022143D03*
X020773Y022128D03*
X020773Y022113D03*
X021172Y021738D03*
X021172Y021723D03*
X021172Y021708D03*
X021172Y021693D03*
X021172Y021678D03*
X021172Y021663D03*
X021172Y021648D03*
X021172Y021633D03*
X021172Y021618D03*
X021172Y021603D03*
X021172Y021588D03*
X021175Y021558D03*
X021010Y021633D03*
X020728Y021633D03*
X020728Y021618D03*
X020728Y021603D03*
X020728Y021588D03*
X020728Y021573D03*
X020728Y021558D03*
X020728Y021543D03*
X020728Y021528D03*
X020728Y021513D03*
X020728Y021498D03*
X020728Y021648D03*
X020308Y021528D03*
X020416Y021303D03*
X020035Y021228D03*
X019912Y021303D03*
X019888Y021498D03*
X019888Y021513D03*
X019888Y021528D03*
X019732Y021648D03*
X019447Y021648D03*
X019447Y021633D03*
X019447Y021618D03*
X019447Y021603D03*
X019447Y021588D03*
X019447Y021573D03*
X019447Y021558D03*
X019447Y021543D03*
X019447Y021528D03*
X019447Y021513D03*
X019447Y021498D03*
X019447Y021483D03*
X019447Y021468D03*
X019447Y021453D03*
X019447Y021438D03*
X019447Y021423D03*
X019447Y021408D03*
X019426Y021228D03*
X019282Y021228D03*
X019048Y021408D03*
X019048Y021423D03*
X019048Y021438D03*
X019048Y021453D03*
X019048Y021468D03*
X019048Y021483D03*
X019048Y021498D03*
X019048Y021513D03*
X019048Y021528D03*
X021442Y021528D03*
X021442Y021513D03*
X021442Y021498D03*
X021442Y021543D03*
X021442Y021558D03*
X021442Y021573D03*
X021442Y021588D03*
X021442Y021603D03*
X021442Y021618D03*
X021442Y021633D03*
X021442Y021648D03*
X021442Y021663D03*
X021442Y021678D03*
X021442Y021693D03*
X021442Y021708D03*
X021442Y021723D03*
X021442Y021738D03*
X021598Y021633D03*
X021853Y021513D03*
X021622Y021228D03*
D34*
X020776Y021843D03*
X020776Y021858D03*
X020776Y021873D03*
X020776Y021888D03*
X020776Y021903D03*
X020776Y021918D03*
X020776Y021933D03*
X020776Y021948D03*
X019624Y021228D03*
D35*
X019682Y021228D03*
X019835Y021228D03*
X020147Y021228D03*
X020147Y021243D03*
X020147Y021258D03*
X020147Y021303D03*
X020228Y021258D03*
X020228Y021243D03*
X020228Y021228D03*
X020309Y021228D03*
X020309Y021243D03*
X020309Y021258D03*
X020309Y021273D03*
X020453Y021258D03*
X020525Y021258D03*
X020525Y021273D03*
X020525Y021318D03*
X020837Y021303D03*
X021062Y021288D03*
X021224Y021258D03*
X021278Y021273D03*
X021287Y021288D03*
X021347Y021288D03*
X021725Y021303D03*
X019142Y021303D03*
D36*
X019924Y021228D03*
X020542Y021228D03*
X019414Y022863D03*
D37*
X020008Y022578D03*
X020398Y021228D03*
D38*
X020723Y021228D03*
X021101Y021303D03*
X021011Y021513D03*
X021176Y021543D03*
X021389Y021303D03*
X021374Y021273D03*
X020771Y022158D03*
D39*
X019999Y022713D03*
X019414Y022878D03*
X019690Y021453D03*
X019702Y021438D03*
X019714Y021423D03*
X019726Y021408D03*
X021103Y021228D03*
X021847Y021498D03*
D40*
X021731Y021288D03*
X021248Y021228D03*
X020762Y021288D03*
X020687Y021288D03*
X020684Y021243D03*
X020381Y021258D03*
X020153Y021288D03*
X020072Y021288D03*
X019997Y021288D03*
X019829Y021243D03*
D41*
X021389Y021228D03*
X020000Y022683D03*
X020000Y022698D03*
X020369Y023898D03*
D42*
X020009Y022533D03*
X020204Y021303D03*
X021518Y021228D03*
X021782Y021303D03*
X021863Y021303D03*
D43*
X021622Y021297D03*
X021622Y021231D03*
X021403Y021261D03*
X021115Y021261D03*
X021007Y021492D03*
X021004Y021531D03*
X021187Y021516D03*
X021607Y021651D03*
X020416Y021300D03*
X020320Y021642D03*
X020323Y021645D03*
X019903Y021642D03*
X019672Y021477D03*
X019669Y021480D03*
X019660Y021492D03*
X019651Y021504D03*
X019681Y021465D03*
X019693Y021450D03*
X019699Y021441D03*
X019705Y021435D03*
X019708Y021429D03*
X019711Y021426D03*
X019717Y021417D03*
X019720Y021414D03*
X019723Y021411D03*
X019726Y021405D03*
X019729Y021402D03*
X019423Y021297D03*
X019426Y021231D03*
X019282Y021231D03*
X019279Y021297D03*
X019063Y021642D03*
X019999Y022701D03*
X019999Y022704D03*
X019999Y022707D03*
X019999Y022710D03*
X019999Y022716D03*
X019999Y022719D03*
X021055Y022872D03*
D44*
X021484Y022161D03*
X021391Y021237D03*
X020416Y021231D03*
X019642Y021231D03*
X019639Y021234D03*
X019414Y022887D03*
D45*
X019415Y022872D03*
X020003Y022635D03*
X020003Y022632D03*
X020003Y022629D03*
X020003Y022626D03*
X019733Y021654D03*
X019733Y021651D03*
X019730Y021642D03*
X019913Y021306D03*
X019775Y021231D03*
X020282Y021297D03*
X020306Y021495D03*
X020306Y021501D03*
X020306Y021504D03*
X020306Y021507D03*
X020306Y021510D03*
X020306Y021516D03*
X020306Y021519D03*
X020306Y021522D03*
X020306Y021525D03*
X020528Y021306D03*
X020528Y021300D03*
X020528Y021297D03*
X020528Y021294D03*
X020528Y021291D03*
X020726Y021495D03*
X020726Y021651D03*
X021173Y021570D03*
X021173Y021567D03*
X021173Y021564D03*
X021506Y021306D03*
X021506Y021300D03*
X021506Y021297D03*
X021506Y021294D03*
X021506Y021291D03*
X021782Y021297D03*
X021857Y021525D03*
X021596Y021621D03*
X021596Y021624D03*
X021596Y021627D03*
X021596Y021630D03*
X021599Y021636D03*
X020369Y023904D03*
D46*
X020369Y023916D03*
X020369Y023919D03*
X021194Y022917D03*
X020009Y022539D03*
X020009Y022536D03*
X020009Y022530D03*
X020009Y022527D03*
X019922Y021231D03*
X019667Y021237D03*
X019088Y021336D03*
X020444Y021237D03*
X020540Y021231D03*
X020849Y021291D03*
X021248Y021237D03*
X021515Y021234D03*
D47*
X021101Y021300D03*
X021191Y021510D03*
X021611Y021654D03*
X020036Y021231D03*
X019706Y021432D03*
X019676Y021471D03*
X019661Y021489D03*
X019646Y021510D03*
D48*
X019649Y021507D03*
X019652Y021501D03*
X019658Y021495D03*
X019664Y021486D03*
X019673Y021474D03*
X019682Y021462D03*
X019685Y021459D03*
X019688Y021456D03*
X019694Y021447D03*
X019697Y021444D03*
X019715Y021420D03*
X019640Y021516D03*
X019640Y021519D03*
X019637Y021522D03*
X019634Y021525D03*
X019718Y021621D03*
X019904Y021645D03*
X019640Y021300D03*
X019064Y021645D03*
X020723Y021231D03*
X021095Y021270D03*
X021107Y021264D03*
X021383Y021270D03*
X021389Y021300D03*
X021842Y021495D03*
X019997Y022722D03*
X019997Y022725D03*
X019997Y022731D03*
X019997Y022734D03*
X019997Y022737D03*
X020369Y023895D03*
D49*
X019994Y022761D03*
X021194Y021507D03*
X021101Y021297D03*
X021101Y021231D03*
X021389Y021231D03*
X021389Y021297D03*
X021623Y021234D03*
X019424Y021234D03*
X019424Y021294D03*
D50*
X019921Y021237D03*
X019921Y021234D03*
X020416Y021306D03*
X020539Y021237D03*
X020539Y021234D03*
X021133Y021255D03*
X021247Y021240D03*
X021388Y021306D03*
X021514Y021237D03*
X021517Y021231D03*
X020071Y022134D03*
X020008Y022542D03*
X020008Y022545D03*
X020008Y022551D03*
X020008Y022554D03*
X020008Y022557D03*
X020008Y022560D03*
X019414Y022866D03*
D51*
X019415Y022881D03*
X020417Y022749D03*
X020417Y022746D03*
X020417Y022740D03*
X020417Y022737D03*
X020417Y022734D03*
X020417Y022731D03*
X020417Y022725D03*
X020417Y022722D03*
X020417Y022719D03*
X020417Y022716D03*
X020417Y022710D03*
X020417Y022707D03*
X020417Y022704D03*
X020417Y022701D03*
X020417Y022695D03*
X020417Y022692D03*
X020417Y022689D03*
X020417Y022686D03*
X020417Y022680D03*
X020417Y022677D03*
X020417Y022674D03*
X020417Y022671D03*
X020660Y022092D03*
X019910Y021651D03*
X019640Y021297D03*
X019280Y021294D03*
X019280Y021234D03*
X019070Y021651D03*
X021620Y021294D03*
D52*
X020414Y021234D03*
X019793Y021237D03*
X019793Y021234D03*
D53*
X020035Y021234D03*
X020416Y021297D03*
X020725Y021234D03*
X021052Y022881D03*
X019996Y022779D03*
X019996Y022776D03*
X019996Y022770D03*
X019996Y022767D03*
X019996Y022764D03*
X020368Y023889D03*
D54*
X020368Y023886D03*
X019993Y022815D03*
X019993Y022812D03*
X019993Y022809D03*
X019993Y022806D03*
X019993Y022800D03*
X021037Y022899D03*
X021043Y022890D03*
X020095Y022137D03*
X020335Y021654D03*
X020035Y021294D03*
X020725Y021294D03*
X021103Y021234D03*
X021388Y021294D03*
D55*
X021389Y021234D03*
X021623Y021237D03*
X021197Y021504D03*
X021101Y021294D03*
X020417Y021264D03*
X020414Y021294D03*
X019643Y021264D03*
X019640Y021294D03*
X019424Y021237D03*
X019280Y021237D03*
X020417Y022557D03*
X020417Y022560D03*
X020417Y022566D03*
X020417Y022569D03*
X020417Y022572D03*
X020417Y022575D03*
X020417Y022581D03*
X020417Y022584D03*
X020417Y022587D03*
X020417Y022590D03*
X020417Y022596D03*
X020417Y022599D03*
X020417Y022602D03*
X020417Y022605D03*
X020417Y022611D03*
X020417Y022614D03*
X020417Y022617D03*
X020417Y022620D03*
X020417Y022626D03*
X020417Y022629D03*
X020417Y022632D03*
X020417Y022635D03*
X020417Y022641D03*
X020417Y022644D03*
X020417Y022647D03*
X019994Y022782D03*
X019994Y022785D03*
X019994Y022791D03*
X019994Y022794D03*
X019994Y022797D03*
X019415Y022884D03*
X021038Y022896D03*
X021047Y022887D03*
X021050Y022884D03*
D56*
X019991Y022821D03*
X019613Y022947D03*
X019916Y021654D03*
X020036Y021237D03*
X020186Y021297D03*
X020723Y021237D03*
X019076Y021654D03*
D57*
X018959Y021822D03*
X019088Y021339D03*
X019070Y021324D03*
X019148Y021285D03*
X019187Y021300D03*
X019250Y021291D03*
X019310Y021291D03*
X019394Y021291D03*
X019454Y021291D03*
X019670Y021291D03*
X019673Y021240D03*
X020231Y021285D03*
X020303Y021291D03*
X020381Y021291D03*
X020378Y021237D03*
X020447Y021240D03*
X020447Y021291D03*
X021590Y021291D03*
X021809Y021285D03*
X021881Y021291D03*
D58*
X021103Y021237D03*
X020725Y021291D03*
X020035Y021291D03*
X020428Y022776D03*
D59*
X020372Y023925D03*
X020150Y021282D03*
X020375Y021255D03*
X020675Y021255D03*
X020840Y021279D03*
X020840Y021282D03*
X021200Y021300D03*
X021887Y021285D03*
X019910Y021240D03*
X019832Y021246D03*
X019832Y021249D03*
X019460Y021240D03*
X019385Y021285D03*
X019145Y021279D03*
X019145Y021276D03*
D60*
X019946Y021240D03*
X020414Y021309D03*
X021101Y021309D03*
X021389Y021309D03*
X021539Y021240D03*
X021533Y022170D03*
X020756Y022872D03*
D61*
X019414Y022860D03*
X020284Y021306D03*
X020374Y021240D03*
X020449Y021276D03*
X020899Y021306D03*
X021064Y021240D03*
X021424Y021291D03*
X021589Y021240D03*
X021784Y021306D03*
D62*
X020725Y021309D03*
X020563Y021240D03*
X020035Y021309D03*
X019453Y021249D03*
X019423Y021309D03*
X020368Y023940D03*
D63*
X020306Y021288D03*
X020774Y021273D03*
X020921Y021288D03*
X021059Y021243D03*
X021584Y021243D03*
X021584Y021288D03*
X021656Y021288D03*
X021884Y021288D03*
X019751Y021243D03*
X019676Y021243D03*
X019676Y021288D03*
X019601Y021288D03*
X019463Y021243D03*
X019388Y021288D03*
X019316Y021288D03*
X019319Y021243D03*
X019244Y021288D03*
D64*
X019996Y021243D03*
X020077Y021243D03*
D65*
X020764Y021243D03*
X019189Y021303D03*
D66*
X019279Y021309D03*
X019309Y021249D03*
X020284Y021309D03*
X020386Y021282D03*
X020899Y021309D03*
X021619Y021309D03*
X021649Y021249D03*
X021784Y021309D03*
X019756Y023109D03*
D67*
X021448Y022026D03*
X021355Y021249D03*
X021067Y021249D03*
X019105Y021324D03*
D68*
X019466Y021279D03*
X019466Y021276D03*
X021221Y021264D03*
X021266Y021252D03*
X021266Y021249D03*
D69*
X021365Y021276D03*
X021419Y021255D03*
X021077Y021276D03*
X021812Y021291D03*
X020678Y022095D03*
X020393Y021261D03*
X019640Y021306D03*
X019082Y021330D03*
D70*
X019606Y021258D03*
X020845Y021288D03*
D71*
X021122Y021258D03*
X021173Y021573D03*
X021506Y021303D03*
X021857Y021528D03*
X020528Y021303D03*
X020306Y021498D03*
X020306Y021513D03*
X020003Y022623D03*
X020003Y022638D03*
D72*
X021409Y021258D03*
D73*
X021620Y021261D03*
X021620Y021264D03*
X021620Y021267D03*
X021620Y021270D03*
X019424Y021270D03*
X019424Y021267D03*
X019424Y021261D03*
X019280Y021264D03*
X019280Y021261D03*
X019280Y021267D03*
X019280Y021270D03*
X020042Y022524D03*
X019415Y022890D03*
D74*
X019990Y022884D03*
X019423Y021264D03*
D75*
X020422Y021267D03*
X021394Y021264D03*
X020419Y022752D03*
X020419Y022755D03*
X020419Y022761D03*
X020419Y022764D03*
X020419Y022767D03*
X020419Y022770D03*
X019996Y022755D03*
X019996Y022752D03*
X019996Y022749D03*
X019996Y022746D03*
X019996Y022740D03*
D76*
X021055Y022875D03*
X020368Y023892D03*
X020035Y021297D03*
X019648Y021267D03*
X020725Y021297D03*
X021103Y021267D03*
X021388Y021267D03*
D77*
X021184Y021522D03*
X021181Y021531D03*
X021007Y021621D03*
X020317Y021636D03*
X020314Y021630D03*
X019726Y021630D03*
X019654Y021270D03*
X020002Y022662D03*
X020002Y022665D03*
X020002Y022671D03*
X020002Y022674D03*
X020002Y022677D03*
X020002Y022680D03*
X019414Y022875D03*
D78*
X020770Y022170D03*
X020770Y022146D03*
X021010Y021651D03*
X021010Y021495D03*
X020428Y021270D03*
X021850Y021504D03*
X021055Y022869D03*
X019168Y021297D03*
D79*
X019084Y021333D03*
X020284Y021303D03*
X020440Y021273D03*
X020899Y021303D03*
X020008Y022548D03*
X020371Y023913D03*
D80*
X021010Y021648D03*
X021010Y021498D03*
X021088Y021273D03*
D81*
X019610Y021282D03*
X020510Y023814D03*
D82*
X019412Y022851D03*
X021422Y021285D03*
D83*
X020231Y021288D03*
X019151Y021288D03*
D84*
X019198Y021288D03*
X019921Y021333D03*
D85*
X021812Y021288D03*
D86*
X021620Y021300D03*
X021602Y021645D03*
X020897Y021297D03*
X020312Y021624D03*
X020312Y021627D03*
X019895Y021630D03*
X019895Y021627D03*
X019892Y021621D03*
X019727Y021636D03*
X019280Y021300D03*
X019067Y021300D03*
X019067Y021297D03*
X019067Y021294D03*
X019067Y021291D03*
X019067Y021306D03*
X019052Y021621D03*
X019055Y021627D03*
X019055Y021630D03*
D87*
X019048Y021525D03*
X019048Y021522D03*
X019048Y021519D03*
X019048Y021516D03*
X019048Y021510D03*
X019048Y021507D03*
X019048Y021504D03*
X019048Y021501D03*
X019048Y021495D03*
X019048Y021492D03*
X019048Y021489D03*
X019048Y021486D03*
X019048Y021480D03*
X019048Y021477D03*
X019048Y021474D03*
X019048Y021471D03*
X019048Y021465D03*
X019048Y021462D03*
X019048Y021459D03*
X019048Y021456D03*
X019048Y021450D03*
X019048Y021447D03*
X019048Y021444D03*
X019048Y021441D03*
X019048Y021435D03*
X019048Y021432D03*
X019048Y021429D03*
X019048Y021426D03*
X019048Y021420D03*
X019048Y021417D03*
X019048Y021414D03*
X019048Y021411D03*
X019048Y021405D03*
X019048Y021402D03*
X019165Y021291D03*
X019447Y021402D03*
X019447Y021405D03*
X019447Y021411D03*
X019447Y021414D03*
X019447Y021417D03*
X019447Y021420D03*
X019447Y021426D03*
X019447Y021429D03*
X019447Y021432D03*
X019447Y021435D03*
X019447Y021441D03*
X019447Y021444D03*
X019447Y021447D03*
X019447Y021450D03*
X019447Y021456D03*
X019447Y021459D03*
X019447Y021462D03*
X019447Y021465D03*
X019447Y021471D03*
X019447Y021474D03*
X019447Y021477D03*
X019447Y021480D03*
X019447Y021486D03*
X019447Y021489D03*
X019447Y021492D03*
X019447Y021495D03*
X019447Y021501D03*
X019447Y021504D03*
X019447Y021507D03*
X019447Y021510D03*
X019447Y021516D03*
X019447Y021519D03*
X019447Y021522D03*
X019447Y021525D03*
X019447Y021531D03*
X019447Y021534D03*
X019447Y021537D03*
X019447Y021540D03*
X019447Y021546D03*
X019447Y021549D03*
X019447Y021552D03*
X019447Y021555D03*
X019447Y021561D03*
X019447Y021564D03*
X019447Y021567D03*
X019447Y021570D03*
X019447Y021576D03*
X019447Y021579D03*
X019447Y021582D03*
X019447Y021585D03*
X019447Y021591D03*
X019447Y021594D03*
X019447Y021597D03*
X019447Y021600D03*
X019447Y021606D03*
X019447Y021609D03*
X019447Y021612D03*
X019447Y021615D03*
X019447Y021621D03*
X019447Y021624D03*
X019447Y021627D03*
X019447Y021630D03*
X019447Y021636D03*
X019447Y021639D03*
X019447Y021642D03*
X019447Y021645D03*
X019447Y021651D03*
X019447Y021654D03*
X019732Y021645D03*
X019888Y021525D03*
X019888Y021522D03*
X019888Y021519D03*
X019888Y021516D03*
X019888Y021510D03*
X019888Y021507D03*
X019888Y021504D03*
X019888Y021501D03*
X019888Y021495D03*
X019912Y021300D03*
X019912Y021297D03*
X019912Y021294D03*
X019912Y021291D03*
X020311Y021621D03*
X020728Y021624D03*
X020728Y021621D03*
X020728Y021615D03*
X020728Y021612D03*
X020728Y021609D03*
X020728Y021606D03*
X020728Y021600D03*
X020728Y021597D03*
X020728Y021594D03*
X020728Y021591D03*
X020728Y021585D03*
X020728Y021582D03*
X020728Y021579D03*
X020728Y021576D03*
X020728Y021570D03*
X020728Y021567D03*
X020728Y021564D03*
X020728Y021561D03*
X020728Y021555D03*
X020728Y021552D03*
X020728Y021549D03*
X020728Y021546D03*
X020728Y021540D03*
X020728Y021537D03*
X020728Y021534D03*
X020728Y021531D03*
X020728Y021525D03*
X020728Y021522D03*
X020728Y021519D03*
X020728Y021516D03*
X020728Y021510D03*
X020728Y021507D03*
X020728Y021504D03*
X020728Y021501D03*
X020728Y021492D03*
X020728Y021627D03*
X020728Y021630D03*
X020728Y021636D03*
X020728Y021639D03*
X020728Y021642D03*
X020728Y021645D03*
X020728Y021654D03*
X021010Y021630D03*
X021010Y021627D03*
X021010Y021519D03*
X021010Y021516D03*
X021175Y021549D03*
X021175Y021552D03*
X021175Y021555D03*
X021175Y021561D03*
X021172Y021576D03*
X021172Y021579D03*
X021172Y021582D03*
X021172Y021585D03*
X021172Y021591D03*
X021172Y021594D03*
X021172Y021597D03*
X021172Y021600D03*
X021172Y021606D03*
X021172Y021609D03*
X021172Y021612D03*
X021172Y021615D03*
X021172Y021621D03*
X021172Y021624D03*
X021172Y021627D03*
X021172Y021630D03*
X021172Y021636D03*
X021172Y021639D03*
X021172Y021642D03*
X021172Y021645D03*
X021172Y021651D03*
X021172Y021654D03*
X021172Y021657D03*
X021172Y021660D03*
X021172Y021666D03*
X021172Y021669D03*
X021172Y021672D03*
X021172Y021675D03*
X021172Y021681D03*
X021172Y021684D03*
X021172Y021687D03*
X021172Y021690D03*
X021172Y021696D03*
X021172Y021699D03*
X021172Y021702D03*
X021172Y021705D03*
X021172Y021711D03*
X021172Y021714D03*
X021172Y021717D03*
X021172Y021720D03*
X021172Y021726D03*
X021172Y021729D03*
X021172Y021732D03*
X021172Y021735D03*
X021172Y021741D03*
X021442Y021741D03*
X021442Y021735D03*
X021442Y021732D03*
X021442Y021729D03*
X021442Y021726D03*
X021442Y021720D03*
X021442Y021717D03*
X021442Y021714D03*
X021442Y021711D03*
X021442Y021705D03*
X021442Y021702D03*
X021442Y021699D03*
X021442Y021696D03*
X021442Y021690D03*
X021442Y021687D03*
X021442Y021684D03*
X021442Y021681D03*
X021442Y021675D03*
X021442Y021672D03*
X021442Y021669D03*
X021442Y021666D03*
X021442Y021660D03*
X021442Y021657D03*
X021442Y021654D03*
X021442Y021651D03*
X021442Y021645D03*
X021442Y021642D03*
X021442Y021639D03*
X021442Y021636D03*
X021442Y021630D03*
X021442Y021627D03*
X021442Y021624D03*
X021442Y021621D03*
X021442Y021615D03*
X021442Y021612D03*
X021442Y021609D03*
X021442Y021606D03*
X021442Y021600D03*
X021442Y021597D03*
X021442Y021594D03*
X021442Y021591D03*
X021442Y021585D03*
X021442Y021582D03*
X021442Y021579D03*
X021442Y021576D03*
X021442Y021570D03*
X021442Y021567D03*
X021442Y021564D03*
X021442Y021561D03*
X021442Y021555D03*
X021442Y021552D03*
X021442Y021549D03*
X021442Y021546D03*
X021442Y021540D03*
X021442Y021537D03*
X021442Y021534D03*
X021442Y021531D03*
X021442Y021525D03*
X021442Y021522D03*
X021442Y021519D03*
X021442Y021516D03*
X021442Y021510D03*
X021442Y021507D03*
X021442Y021504D03*
X021442Y021501D03*
X021442Y021495D03*
X021601Y021639D03*
X021601Y021642D03*
X021856Y021522D03*
X021856Y021519D03*
X021856Y021516D03*
X021853Y021510D03*
X021862Y021297D03*
X021502Y022164D03*
X020773Y022140D03*
X020773Y022137D03*
X020773Y022134D03*
X020773Y022131D03*
X020773Y022125D03*
X020773Y022122D03*
X020773Y022119D03*
X020773Y022116D03*
X020773Y022110D03*
X020773Y022107D03*
X020773Y022104D03*
X020002Y022641D03*
X020002Y022644D03*
X020002Y022647D03*
X020002Y022650D03*
X020002Y022656D03*
D88*
X020003Y022659D03*
X020771Y022167D03*
X020771Y022164D03*
X020771Y022161D03*
X020771Y022155D03*
X020771Y022152D03*
X020771Y022149D03*
X021011Y021645D03*
X021011Y021642D03*
X021011Y021639D03*
X021011Y021636D03*
X021008Y021624D03*
X021008Y021525D03*
X021008Y021522D03*
X021011Y021510D03*
X021011Y021507D03*
X021011Y021504D03*
X021011Y021501D03*
X021176Y021540D03*
X021179Y021537D03*
X021179Y021534D03*
X021176Y021546D03*
X021851Y021507D03*
X019424Y021300D03*
X019166Y021294D03*
X020369Y023901D03*
D89*
X020086Y023562D03*
X020083Y023559D03*
X020080Y023556D03*
X020071Y023547D03*
X020068Y023544D03*
X020065Y023541D03*
X020056Y023532D03*
X020053Y023529D03*
X020050Y023526D03*
X020041Y023517D03*
X020038Y023514D03*
X020035Y023511D03*
X020026Y023502D03*
X020815Y022359D03*
X020815Y022356D03*
X020815Y022350D03*
X020815Y022347D03*
X020815Y022344D03*
X020815Y022341D03*
X020815Y022335D03*
X020815Y022332D03*
X020227Y021294D03*
D90*
X020881Y021294D03*
D91*
X021806Y021294D03*
X020816Y022362D03*
X020816Y022365D03*
X020816Y022371D03*
X020816Y022374D03*
X020816Y022377D03*
X020816Y022380D03*
X020816Y022386D03*
X019598Y021537D03*
X019034Y021834D03*
X019964Y023439D03*
X019967Y023442D03*
X019970Y023445D03*
X019976Y023451D03*
X019979Y023454D03*
X019982Y023457D03*
X019985Y023460D03*
X019991Y023466D03*
X019994Y023469D03*
X019997Y023472D03*
X020000Y023475D03*
X020006Y023481D03*
X020009Y023484D03*
X020012Y023487D03*
X020015Y023490D03*
X020021Y023496D03*
X020024Y023499D03*
D92*
X019901Y021639D03*
X019721Y021624D03*
X020036Y021300D03*
X019061Y021639D03*
D93*
X020282Y021300D03*
X021782Y021300D03*
D94*
X021848Y021501D03*
X021185Y021519D03*
X021182Y021525D03*
X021008Y021654D03*
X020723Y021300D03*
X020318Y021639D03*
X019898Y021636D03*
X019724Y021627D03*
X019058Y021636D03*
X018977Y021825D03*
X020000Y022686D03*
X020000Y022689D03*
X020000Y022692D03*
X020000Y022695D03*
D95*
X020899Y021300D03*
D96*
X020315Y021633D03*
X019727Y021633D03*
X019640Y021303D03*
X019067Y021303D03*
D97*
X019280Y021303D03*
X021620Y021303D03*
D98*
X020774Y021963D03*
X020006Y022593D03*
X019424Y021303D03*
D99*
X020035Y021303D03*
X020725Y021303D03*
X020005Y022608D03*
X020845Y022878D03*
X020845Y022893D03*
X020845Y022908D03*
X020845Y022923D03*
D100*
X020612Y022257D03*
X021050Y021990D03*
X021863Y021309D03*
X020204Y021309D03*
X019772Y021399D03*
X019190Y021309D03*
X019757Y023112D03*
X019763Y023121D03*
D101*
X019639Y021309D03*
D102*
X019913Y021327D03*
X020510Y023805D03*
D103*
X020530Y021327D03*
D104*
X021506Y021327D03*
D105*
X021511Y021330D03*
X020533Y021330D03*
X019918Y021330D03*
D106*
X020537Y021333D03*
X021515Y021333D03*
D107*
X020863Y021429D03*
X020863Y021717D03*
X020863Y021720D03*
X020443Y021489D03*
X020443Y021486D03*
X020443Y021480D03*
X020443Y021477D03*
X020443Y021474D03*
X020443Y021471D03*
X020443Y021465D03*
X020443Y021462D03*
X020443Y021459D03*
X020443Y021456D03*
X020443Y021450D03*
X020443Y021447D03*
X020443Y021444D03*
X020443Y021441D03*
X020443Y021435D03*
X020443Y021432D03*
X020443Y021429D03*
X020443Y021426D03*
X020443Y021420D03*
X020443Y021417D03*
X020443Y021414D03*
X020443Y021411D03*
X020443Y021405D03*
X020443Y021402D03*
X020023Y021405D03*
X020023Y021402D03*
X020023Y021411D03*
X020023Y021414D03*
X020023Y021417D03*
X020023Y021420D03*
X020023Y021426D03*
X020023Y021429D03*
X020023Y021432D03*
X020023Y021435D03*
X020023Y021441D03*
X020023Y021444D03*
X020023Y021447D03*
X020023Y021450D03*
X020023Y021456D03*
X020023Y021459D03*
X020023Y021462D03*
X020023Y021465D03*
X020023Y021471D03*
X020023Y021474D03*
X020023Y021477D03*
X020023Y021480D03*
X020023Y021486D03*
X020023Y021489D03*
X020023Y021492D03*
X020758Y023316D03*
X020752Y023325D03*
X020746Y023331D03*
X020743Y023334D03*
D108*
X020003Y021594D03*
X020003Y021591D03*
X020003Y021585D03*
X020003Y021582D03*
X020003Y021579D03*
X020003Y021576D03*
X020003Y021570D03*
X020003Y021567D03*
X020003Y021564D03*
X020003Y021561D03*
X020003Y021555D03*
X020003Y021552D03*
X020003Y021549D03*
X020003Y021546D03*
X020003Y021540D03*
X020003Y021537D03*
X020003Y021534D03*
X020003Y021531D03*
X020843Y021402D03*
X021326Y021450D03*
X021713Y021441D03*
D109*
X021367Y021402D03*
X020911Y021570D03*
X020911Y021582D03*
X019615Y021555D03*
X019057Y021837D03*
X020827Y022617D03*
X020827Y022620D03*
X020827Y022626D03*
X020827Y022629D03*
X020827Y022632D03*
X020827Y022635D03*
X020827Y022641D03*
D110*
X019223Y021741D03*
X019622Y021570D03*
X020918Y021555D03*
X020918Y021552D03*
X020918Y021597D03*
X020918Y021600D03*
X021680Y021402D03*
D111*
X021718Y021456D03*
X021718Y021459D03*
X021736Y021690D03*
X021322Y021465D03*
X021322Y021462D03*
X020848Y021405D03*
X020038Y021690D03*
X019186Y021672D03*
X019186Y021669D03*
X019186Y021666D03*
X020497Y023646D03*
X020377Y023790D03*
D112*
X020359Y023811D03*
X021097Y022905D03*
X020830Y022725D03*
X020830Y022722D03*
X020830Y022719D03*
X020830Y022716D03*
X020830Y022710D03*
X020830Y022707D03*
X020830Y022704D03*
X020830Y022701D03*
X020917Y021594D03*
X021361Y021405D03*
X019621Y021567D03*
D113*
X019628Y021591D03*
X019628Y021594D03*
X021413Y022149D03*
X021686Y021405D03*
X021095Y022914D03*
X020054Y022881D03*
X020357Y023802D03*
D114*
X020443Y021483D03*
X020443Y021468D03*
X020443Y021453D03*
X020443Y021438D03*
X020443Y021423D03*
X020443Y021408D03*
X020023Y021408D03*
X020023Y021423D03*
X020023Y021438D03*
X020023Y021453D03*
X020023Y021468D03*
X020023Y021483D03*
D115*
X020453Y021678D03*
X020852Y021738D03*
X020852Y021408D03*
X021317Y021483D03*
X021722Y021483D03*
X021377Y022143D03*
X020495Y023643D03*
D116*
X021356Y021408D03*
D117*
X021691Y021408D03*
X021091Y022923D03*
D118*
X020377Y023784D03*
X020452Y021675D03*
X020452Y021672D03*
X020032Y021669D03*
X020032Y021666D03*
X020854Y021411D03*
X021316Y021486D03*
X021316Y021489D03*
X021316Y021492D03*
X021724Y021492D03*
X021724Y021489D03*
X021730Y021660D03*
D119*
X021352Y021411D03*
X020488Y021741D03*
X020167Y022146D03*
X019630Y021600D03*
X019630Y021597D03*
X019216Y021735D03*
X020500Y023679D03*
D120*
X021346Y021417D03*
X021694Y021411D03*
D121*
X021727Y021531D03*
X021727Y021534D03*
X021727Y021537D03*
X021727Y021540D03*
X021727Y021546D03*
X021727Y021549D03*
X021727Y021552D03*
X021727Y021555D03*
X021727Y021561D03*
X021727Y021564D03*
X021727Y021567D03*
X021727Y021570D03*
X021727Y021576D03*
X021727Y021579D03*
X021727Y021582D03*
X021727Y021585D03*
X021727Y021591D03*
X021727Y021594D03*
X021727Y021597D03*
X021727Y021600D03*
X021727Y021606D03*
X021727Y021609D03*
X021727Y021612D03*
X021727Y021615D03*
X020857Y021732D03*
X020857Y021414D03*
X020449Y021660D03*
D122*
X021349Y021414D03*
D123*
X021697Y021414D03*
X021757Y021735D03*
X020479Y021732D03*
X020059Y021735D03*
D124*
X020858Y021729D03*
X020858Y021417D03*
D125*
X021340Y021426D03*
X021700Y021417D03*
X020476Y021729D03*
X020056Y021732D03*
X020056Y021729D03*
X020512Y022779D03*
D126*
X020860Y021726D03*
X020860Y021420D03*
D127*
X021344Y021420D03*
X020480Y021735D03*
X019208Y021726D03*
X020498Y023670D03*
D128*
X021751Y021726D03*
X021703Y021420D03*
X021337Y021429D03*
X019201Y021714D03*
D129*
X020861Y021723D03*
X020861Y021423D03*
D130*
X021341Y021423D03*
D131*
X021704Y021423D03*
X020471Y021723D03*
D132*
X020441Y021492D03*
X020861Y021426D03*
X020375Y023775D03*
D133*
X021334Y021435D03*
X021706Y021426D03*
D134*
X021707Y021429D03*
X020468Y021717D03*
X020048Y021717D03*
D135*
X020864Y021714D03*
X020864Y021435D03*
X020864Y021432D03*
X020756Y023319D03*
X020753Y023322D03*
D136*
X021395Y022146D03*
X021335Y021432D03*
D137*
X021331Y021441D03*
X021709Y021432D03*
X021745Y021717D03*
X020467Y021714D03*
X020047Y021714D03*
X019195Y021699D03*
D138*
X019193Y021696D03*
X020045Y021711D03*
X020465Y021711D03*
X021329Y021444D03*
X021710Y021435D03*
X021743Y021714D03*
X020498Y023655D03*
D139*
X020494Y023628D03*
X020866Y021708D03*
X020866Y021438D03*
D140*
X021332Y021438D03*
X020498Y023658D03*
D141*
X020464Y021708D03*
X020422Y021603D03*
X020422Y021588D03*
X020422Y021573D03*
X020422Y021558D03*
X020422Y021543D03*
X020044Y021708D03*
X019192Y021693D03*
X021712Y021438D03*
D142*
X020866Y021441D03*
X020866Y021705D03*
X020866Y021711D03*
X020767Y023304D03*
X020764Y023307D03*
X020737Y023340D03*
D143*
X020768Y023301D03*
X020375Y023769D03*
X020867Y021702D03*
X020867Y021699D03*
X020867Y021696D03*
X020867Y021450D03*
X020867Y021447D03*
X020867Y021444D03*
D144*
X021325Y021456D03*
X021715Y021447D03*
X021715Y021444D03*
X020461Y021702D03*
X020041Y021699D03*
X019168Y021615D03*
X019168Y021612D03*
X019168Y021609D03*
X019168Y021606D03*
X019168Y021600D03*
X020497Y023649D03*
D145*
X020005Y021615D03*
X020005Y021612D03*
X020005Y021609D03*
X020005Y021606D03*
X020005Y021600D03*
X020005Y021597D03*
X021328Y021447D03*
D146*
X021323Y021459D03*
X021716Y021450D03*
X021737Y021696D03*
X021737Y021699D03*
X020459Y021699D03*
X020459Y021696D03*
X020039Y021696D03*
X019187Y021675D03*
X019166Y021597D03*
X019166Y021594D03*
X019166Y021591D03*
X019166Y021585D03*
X019166Y021582D03*
X019166Y021579D03*
X019166Y021576D03*
X019166Y021570D03*
X019166Y021567D03*
X019166Y021564D03*
X019166Y021561D03*
X019166Y021555D03*
X019166Y021552D03*
X019166Y021549D03*
X019166Y021546D03*
X019166Y021540D03*
X019166Y021537D03*
X019166Y021534D03*
X019166Y021531D03*
D147*
X020869Y021468D03*
X020869Y021453D03*
X020869Y021693D03*
D148*
X021326Y021453D03*
X020003Y021543D03*
X020003Y021558D03*
X020003Y021573D03*
X020003Y021588D03*
D149*
X020039Y021693D03*
X019187Y021678D03*
X019166Y021588D03*
X019166Y021573D03*
X019166Y021558D03*
X019166Y021543D03*
X021716Y021453D03*
D150*
X020869Y021459D03*
X020869Y021456D03*
X020869Y021462D03*
X020869Y021465D03*
X020869Y021681D03*
X020869Y021684D03*
X020869Y021687D03*
X020869Y021690D03*
X020218Y022152D03*
X020773Y023292D03*
X020728Y023346D03*
X020494Y023625D03*
X020374Y023766D03*
D151*
X020456Y021690D03*
X020456Y021687D03*
X020036Y021687D03*
X020036Y021684D03*
X019184Y021660D03*
X021719Y021465D03*
X021719Y021462D03*
X021734Y021684D03*
X021734Y021687D03*
D152*
X021188Y021513D03*
X019907Y021648D03*
X019679Y021468D03*
X019667Y021483D03*
X019655Y021498D03*
X019643Y021513D03*
X019997Y022728D03*
D153*
X021320Y021468D03*
D154*
X021721Y021468D03*
D155*
X021359Y022140D03*
X020870Y021675D03*
X020870Y021672D03*
X020870Y021669D03*
X020870Y021666D03*
X020870Y021660D03*
X020870Y021657D03*
X020870Y021489D03*
X020870Y021486D03*
X020870Y021480D03*
X020870Y021477D03*
X020870Y021474D03*
X020870Y021471D03*
X019589Y021657D03*
X019589Y021660D03*
X019589Y021666D03*
X019589Y021669D03*
X019589Y021672D03*
X019589Y021675D03*
X019589Y021681D03*
X019589Y021684D03*
X019589Y021687D03*
X019589Y021690D03*
X019589Y021696D03*
X019589Y021699D03*
X019589Y021702D03*
X019589Y021705D03*
X019589Y021711D03*
X019589Y021714D03*
X019589Y021717D03*
X019589Y021720D03*
X019589Y021726D03*
X019589Y021729D03*
X019589Y021732D03*
X019589Y021735D03*
X019589Y021741D03*
X020777Y023286D03*
X020774Y023289D03*
D156*
X021320Y021471D03*
D157*
X021319Y021474D03*
X021319Y021477D03*
X021721Y021471D03*
X020851Y021741D03*
X020377Y023787D03*
D158*
X020453Y021681D03*
X020033Y021675D03*
X020033Y021672D03*
X021317Y021480D03*
X021722Y021480D03*
X021722Y021477D03*
X021722Y021474D03*
X021728Y021657D03*
D159*
X020870Y021663D03*
X020870Y021678D03*
X020870Y021483D03*
X019589Y021663D03*
X019589Y021678D03*
X019589Y021693D03*
X019589Y021708D03*
X019589Y021723D03*
X019589Y021738D03*
D160*
X021212Y021495D03*
D161*
X021206Y021498D03*
D162*
X021200Y021501D03*
X020417Y022521D03*
X020417Y022524D03*
X020417Y022527D03*
X020417Y022530D03*
X020417Y022536D03*
X020417Y022539D03*
X020417Y022542D03*
X020417Y022545D03*
D163*
X019631Y021528D03*
D164*
X019897Y021633D03*
X019057Y021633D03*
X020002Y022668D03*
X021004Y021618D03*
X021007Y021528D03*
X021181Y021528D03*
X021604Y021648D03*
D165*
X019589Y021531D03*
X020363Y023847D03*
D166*
X020377Y023796D03*
X020497Y023652D03*
X020044Y021705D03*
X020422Y021615D03*
X020422Y021612D03*
X020422Y021609D03*
X020422Y021606D03*
X020422Y021600D03*
X020422Y021597D03*
X020422Y021594D03*
X020422Y021591D03*
X020422Y021585D03*
X020422Y021582D03*
X020422Y021579D03*
X020422Y021576D03*
X020422Y021570D03*
X020422Y021567D03*
X020422Y021564D03*
X020422Y021561D03*
X020422Y021555D03*
X020422Y021552D03*
X020422Y021549D03*
X020422Y021546D03*
X020422Y021540D03*
X020422Y021537D03*
X020422Y021534D03*
X020422Y021531D03*
X021742Y021711D03*
X019192Y021690D03*
D167*
X019594Y021534D03*
X020152Y023631D03*
X020161Y023640D03*
X020167Y023646D03*
X020176Y023655D03*
X020182Y023661D03*
X020191Y023670D03*
X020197Y023676D03*
X020206Y023685D03*
X020362Y023841D03*
D168*
X020831Y022779D03*
X020921Y021615D03*
X020921Y021612D03*
X020921Y021540D03*
X020921Y021537D03*
X020921Y021534D03*
D169*
X019603Y021540D03*
X019780Y023250D03*
X019795Y023265D03*
X019810Y023280D03*
X019825Y023295D03*
D170*
X019711Y023178D03*
X019696Y023163D03*
X019681Y023148D03*
X019666Y023133D03*
X020479Y023733D03*
X020821Y022488D03*
X020146Y022143D03*
X019606Y021543D03*
D171*
X020920Y021543D03*
X020920Y021603D03*
X020833Y022758D03*
X020833Y022773D03*
D172*
X021727Y021618D03*
X021727Y021603D03*
X021727Y021588D03*
X021727Y021573D03*
X021727Y021558D03*
X021727Y021543D03*
D173*
X020824Y022530D03*
X020824Y022536D03*
X020824Y022539D03*
X020824Y022542D03*
X020824Y022545D03*
X020824Y022551D03*
X020824Y022554D03*
X020092Y022521D03*
X019651Y023115D03*
X020494Y023709D03*
X020491Y023715D03*
X020359Y023826D03*
X019609Y021546D03*
D174*
X020920Y021549D03*
X020920Y021546D03*
X020920Y021606D03*
X020920Y021609D03*
X020833Y022761D03*
X020833Y022764D03*
X020833Y022767D03*
X020833Y022770D03*
X020833Y022776D03*
X020500Y023685D03*
D175*
X020495Y023706D03*
X020492Y023712D03*
X020822Y022557D03*
X019610Y021549D03*
D176*
X019613Y021552D03*
X020825Y022587D03*
X020825Y022590D03*
X020825Y022596D03*
X020825Y022599D03*
X020825Y022602D03*
X020825Y022605D03*
X020825Y022611D03*
X020825Y022614D03*
X020501Y023697D03*
D177*
X020828Y022668D03*
X020828Y022653D03*
X019616Y021558D03*
D178*
X020917Y021558D03*
X020830Y022713D03*
X020500Y023688D03*
D179*
X020830Y022677D03*
X020830Y022674D03*
X020830Y022671D03*
X019618Y021561D03*
D180*
X019619Y021564D03*
X020915Y021561D03*
X020915Y021591D03*
X020828Y022680D03*
X020828Y022686D03*
X020828Y022689D03*
X020828Y022692D03*
X020828Y022695D03*
D181*
X021097Y022902D03*
X020359Y023814D03*
X020914Y021567D03*
X020914Y021564D03*
D182*
X019622Y021573D03*
X020357Y023808D03*
D183*
X020825Y022608D03*
X020825Y022593D03*
X020909Y021573D03*
D184*
X019624Y021576D03*
D185*
X020908Y021579D03*
X020908Y021576D03*
X019645Y023106D03*
X020500Y023700D03*
D186*
X020357Y023805D03*
X019625Y021582D03*
X019625Y021579D03*
D187*
X019627Y021585D03*
X021097Y022911D03*
X020500Y023682D03*
D188*
X020912Y021585D03*
D189*
X019627Y021588D03*
D190*
X020914Y021588D03*
D191*
X019168Y021603D03*
X019168Y021618D03*
X020377Y023793D03*
D192*
X019631Y021603D03*
D193*
X020005Y021603D03*
D194*
X019631Y021606D03*
X019631Y021609D03*
X019631Y021612D03*
X021764Y021741D03*
D195*
X019633Y021615D03*
X019213Y021732D03*
X019075Y021840D03*
X020500Y023676D03*
D196*
X020485Y021738D03*
X019633Y021618D03*
D197*
X020003Y021618D03*
X020423Y021618D03*
X019094Y021843D03*
D198*
X019054Y021624D03*
X019729Y021639D03*
X019894Y021624D03*
D199*
X020326Y021648D03*
X019066Y021648D03*
X019996Y022743D03*
X019996Y022758D03*
X020419Y022758D03*
X020419Y022773D03*
D200*
X020419Y022665D03*
X020419Y022662D03*
X020419Y022659D03*
X020419Y022656D03*
X020419Y022650D03*
X020329Y021651D03*
D201*
X020455Y021684D03*
X020035Y021681D03*
X019183Y021657D03*
X021733Y021675D03*
X021733Y021681D03*
D202*
X020855Y021735D03*
X020450Y021669D03*
X020450Y021666D03*
X020447Y021657D03*
X020030Y021660D03*
X020030Y021657D03*
X020495Y023640D03*
X020375Y023781D03*
D203*
X020144Y022518D03*
X019184Y021663D03*
D204*
X020030Y021663D03*
X020450Y021663D03*
D205*
X021730Y021663D03*
D206*
X021731Y021666D03*
X021731Y021669D03*
X021731Y021672D03*
D207*
X021733Y021678D03*
X020035Y021678D03*
D208*
X020194Y022149D03*
X019189Y021681D03*
X021739Y021702D03*
D209*
X021740Y021705D03*
X020462Y021705D03*
X020042Y021702D03*
X019190Y021687D03*
X019190Y021684D03*
D210*
X020458Y021693D03*
X021736Y021693D03*
D211*
X021746Y021720D03*
X019196Y021705D03*
X019196Y021702D03*
D212*
X019198Y021708D03*
X021748Y021723D03*
D213*
X021740Y021708D03*
D214*
X020051Y021720D03*
X019199Y021711D03*
X020498Y023661D03*
D215*
X020498Y023664D03*
X020474Y021726D03*
X020054Y021726D03*
X019202Y021717D03*
X021752Y021729D03*
D216*
X021755Y021732D03*
X020762Y022257D03*
X019205Y021720D03*
D217*
X020470Y021720D03*
D218*
X020059Y021738D03*
X019207Y021723D03*
D219*
X020053Y021723D03*
D220*
X019211Y021729D03*
D221*
X019219Y021738D03*
D222*
X021760Y021738D03*
X020500Y023673D03*
D223*
X020063Y021741D03*
D224*
X019960Y021819D03*
X019960Y021852D03*
X019933Y022086D03*
X020365Y023865D03*
D225*
X020891Y023061D03*
X019961Y021849D03*
X019961Y021846D03*
X019961Y021840D03*
X019961Y021837D03*
X019961Y021834D03*
X019961Y021831D03*
X019961Y021825D03*
X019961Y021822D03*
D226*
X018995Y021828D03*
D227*
X019961Y021828D03*
X019961Y021843D03*
D228*
X019015Y021831D03*
D229*
X019112Y021846D03*
X020495Y023637D03*
D230*
X019132Y021849D03*
D231*
X019150Y021852D03*
D232*
X019169Y021855D03*
X020795Y023211D03*
X020222Y023310D03*
X020219Y023307D03*
X020489Y023574D03*
D233*
X020897Y023052D03*
X020900Y023049D03*
X020903Y023046D03*
X019415Y022899D03*
X019955Y021891D03*
X019955Y021885D03*
X019958Y021870D03*
X019958Y021867D03*
X019958Y021864D03*
X019958Y021861D03*
X019958Y021855D03*
D234*
X019187Y021858D03*
D235*
X019955Y021888D03*
X019958Y021873D03*
X019958Y021858D03*
X020894Y023058D03*
D236*
X020486Y023532D03*
X019208Y021861D03*
D237*
X019231Y021864D03*
D238*
X019249Y021867D03*
D239*
X019265Y021870D03*
X021218Y022116D03*
X020480Y023472D03*
D240*
X019282Y021873D03*
D241*
X019301Y021876D03*
D242*
X019957Y021882D03*
X019957Y021879D03*
X019957Y021876D03*
X019939Y022044D03*
X019939Y022047D03*
X019936Y022059D03*
X019936Y022062D03*
X019936Y022065D03*
X019936Y022071D03*
X019936Y022074D03*
X019927Y022146D03*
X019927Y022149D03*
X019912Y022290D03*
X019912Y022296D03*
X019906Y022341D03*
X019906Y022344D03*
X019906Y022347D03*
D243*
X019319Y021879D03*
D244*
X019339Y021882D03*
D245*
X019357Y021885D03*
D246*
X019376Y021888D03*
D247*
X019394Y021891D03*
D248*
X019486Y021894D03*
X019486Y021897D03*
D249*
X019484Y021900D03*
X019484Y021906D03*
D250*
X019484Y021903D03*
D251*
X019486Y021909D03*
D252*
X019505Y021912D03*
D253*
X019523Y021915D03*
D254*
X019541Y021918D03*
D255*
X019561Y021921D03*
D256*
X019579Y021924D03*
X020449Y023130D03*
D257*
X019619Y021930D03*
X019619Y021927D03*
D258*
X019636Y021933D03*
D259*
X019654Y021936D03*
D260*
X019673Y021939D03*
D261*
X019691Y021942D03*
D262*
X019721Y021945D03*
X020231Y023022D03*
D263*
X019729Y021948D03*
D264*
X019751Y021951D03*
X020216Y021990D03*
D265*
X020332Y021999D03*
X019801Y021954D03*
D266*
X019823Y021957D03*
D267*
X019861Y021960D03*
X020002Y021972D03*
D268*
X019897Y021963D03*
D269*
X019967Y021966D03*
D270*
X019984Y021969D03*
X020551Y022017D03*
D271*
X020042Y021975D03*
D272*
X020078Y021978D03*
D273*
X020116Y021981D03*
D274*
X020150Y021984D03*
D275*
X020186Y021987D03*
D276*
X020260Y021993D03*
X020437Y022008D03*
D277*
X020297Y021996D03*
D278*
X020369Y022002D03*
D279*
X020405Y022005D03*
D280*
X020479Y022011D03*
D281*
X020513Y022014D03*
D282*
X020590Y022020D03*
D283*
X020608Y022023D03*
D284*
X020626Y022026D03*
X020236Y023016D03*
D285*
X020668Y022032D03*
X020668Y022029D03*
D286*
X020704Y022035D03*
X020704Y022041D03*
D287*
X020704Y022038D03*
D288*
X020794Y022044D03*
D289*
X020810Y022047D03*
X020492Y022944D03*
X020492Y022947D03*
D290*
X019907Y022335D03*
X019907Y022332D03*
X019907Y022329D03*
X019907Y022326D03*
X019907Y022320D03*
X019907Y022317D03*
X019907Y022314D03*
X019907Y022311D03*
X019922Y022197D03*
X019922Y022194D03*
X019922Y022191D03*
X019922Y022185D03*
X019922Y022182D03*
X019922Y022179D03*
X019922Y022176D03*
X019925Y022170D03*
X019925Y022167D03*
X019925Y022164D03*
X019925Y022161D03*
X019925Y022155D03*
X019925Y022152D03*
X019937Y022056D03*
X019937Y022050D03*
D291*
X020828Y022050D03*
D292*
X019937Y022053D03*
X019925Y022158D03*
X019922Y022188D03*
X019907Y022308D03*
X019907Y022323D03*
X019835Y022923D03*
D293*
X020846Y022053D03*
D294*
X020854Y022056D03*
D295*
X020882Y022059D03*
D296*
X020899Y022062D03*
X020449Y023127D03*
D297*
X020917Y022065D03*
D298*
X019936Y022068D03*
X019924Y022173D03*
X019912Y022293D03*
X019906Y022338D03*
D299*
X020935Y022068D03*
D300*
X020953Y022071D03*
X020455Y023184D03*
D301*
X020971Y022074D03*
D302*
X019934Y022080D03*
X019934Y022077D03*
X019934Y022089D03*
X019934Y022092D03*
X019934Y022095D03*
X019919Y022206D03*
X019919Y022209D03*
X019919Y022212D03*
X019919Y022215D03*
X019919Y022221D03*
X019919Y022224D03*
X019916Y022236D03*
X019916Y022239D03*
X019916Y022242D03*
X019916Y022245D03*
X019913Y022260D03*
X019913Y022266D03*
X019913Y022269D03*
X019913Y022272D03*
X019913Y022275D03*
X019913Y022281D03*
X019913Y022284D03*
X019913Y022287D03*
X019904Y022350D03*
X019904Y022356D03*
X019838Y022899D03*
D303*
X020987Y022077D03*
D304*
X021005Y022080D03*
D305*
X019934Y022083D03*
X019934Y022098D03*
X019919Y022203D03*
X019919Y022218D03*
X019916Y022233D03*
X019916Y022248D03*
X019913Y022263D03*
X019913Y022278D03*
X019904Y022353D03*
D306*
X020447Y022863D03*
X021023Y022083D03*
D307*
X021043Y022086D03*
D308*
X021061Y022089D03*
D309*
X021139Y022092D03*
X021139Y022095D03*
X021139Y022101D03*
X020440Y022179D03*
X020473Y023382D03*
D310*
X020696Y022098D03*
D311*
X021139Y022098D03*
D312*
X019933Y022107D03*
X019933Y022104D03*
X019933Y022101D03*
X019933Y022110D03*
X019933Y022116D03*
X019933Y022119D03*
X019933Y022122D03*
X019921Y022200D03*
X019918Y022227D03*
X019918Y022230D03*
X019915Y022251D03*
X019915Y022254D03*
X019915Y022257D03*
X019903Y022359D03*
X019903Y022362D03*
X019903Y022365D03*
X019903Y022371D03*
X019903Y022374D03*
X019900Y022377D03*
X019900Y022380D03*
X019900Y022386D03*
X019900Y022389D03*
X019900Y022392D03*
X019900Y022395D03*
X019897Y022407D03*
X019897Y022410D03*
X019897Y022416D03*
X019897Y022419D03*
X019897Y022422D03*
X019891Y022464D03*
X019891Y022467D03*
X019891Y022470D03*
X019888Y022494D03*
X019888Y022497D03*
X019885Y022521D03*
X019885Y022524D03*
X019870Y022641D03*
X019870Y022644D03*
X019870Y022647D03*
X019867Y022662D03*
X019867Y022665D03*
X019867Y022671D03*
X019867Y022674D03*
X019861Y022710D03*
X019861Y022716D03*
X019861Y022719D03*
X019861Y022722D03*
X019858Y022734D03*
X019858Y022737D03*
X019858Y022740D03*
X019858Y022746D03*
X019858Y022749D03*
X019855Y022761D03*
X019855Y022764D03*
X019855Y022767D03*
X019855Y022770D03*
X019852Y022782D03*
X019852Y022785D03*
X019852Y022791D03*
X019852Y022794D03*
X019852Y022797D03*
X019843Y022866D03*
X019843Y022869D03*
X019843Y022872D03*
X019840Y022875D03*
X019840Y022881D03*
X019840Y022884D03*
X019840Y022887D03*
X019840Y022890D03*
X019840Y022896D03*
X019837Y022902D03*
X019837Y022905D03*
X019837Y022911D03*
X019837Y022914D03*
X019837Y022917D03*
X019837Y022920D03*
D313*
X021190Y022104D03*
D314*
X021188Y022107D03*
X021188Y022110D03*
X020477Y023439D03*
D315*
X020365Y023868D03*
X019837Y022908D03*
X019840Y022893D03*
X019840Y022878D03*
X019852Y022788D03*
X019855Y022773D03*
X019855Y022758D03*
X019858Y022743D03*
X019861Y022713D03*
X019867Y022668D03*
X019870Y022638D03*
X019891Y022473D03*
X019897Y022413D03*
X019900Y022398D03*
X019900Y022383D03*
X019903Y022368D03*
X019933Y022113D03*
D316*
X021200Y022113D03*
D317*
X021236Y022119D03*
X020183Y023196D03*
X020483Y023490D03*
D318*
X021254Y022122D03*
D319*
X019931Y022131D03*
X019931Y022134D03*
X019931Y022137D03*
X019931Y022140D03*
X019931Y022125D03*
X019898Y022401D03*
X019898Y022404D03*
X019895Y022425D03*
X019895Y022431D03*
X019892Y022452D03*
X019892Y022455D03*
X019892Y022461D03*
X019889Y022476D03*
X019889Y022479D03*
X019889Y022482D03*
X019889Y022485D03*
X019889Y022491D03*
X019886Y022500D03*
X019886Y022506D03*
X019886Y022509D03*
X019886Y022512D03*
X019886Y022515D03*
X019883Y022527D03*
X019883Y022530D03*
X019883Y022536D03*
X019883Y022539D03*
X019883Y022542D03*
X019883Y022545D03*
X019880Y022551D03*
X019880Y022554D03*
X019880Y022557D03*
X019880Y022560D03*
X019880Y022566D03*
X019880Y022569D03*
X019880Y022572D03*
X019877Y022581D03*
X019877Y022584D03*
X019877Y022587D03*
X019877Y022590D03*
X019877Y022596D03*
X019877Y022599D03*
X019874Y022611D03*
X019874Y022614D03*
X019874Y022617D03*
X019874Y022620D03*
X019871Y022635D03*
X019868Y022650D03*
X019868Y022656D03*
X019868Y022659D03*
X019865Y022677D03*
X019865Y022680D03*
X019862Y022701D03*
X019862Y022704D03*
X019862Y022707D03*
X019859Y022725D03*
X019859Y022731D03*
X019856Y022752D03*
X019856Y022755D03*
X019853Y022776D03*
X019853Y022779D03*
X019847Y022827D03*
X019847Y022830D03*
X019847Y022836D03*
X019847Y022839D03*
X019847Y022842D03*
X019847Y022845D03*
X019415Y022896D03*
X020366Y023871D03*
D320*
X021271Y022125D03*
D321*
X019931Y022128D03*
X019931Y022143D03*
X019895Y022428D03*
X019892Y022458D03*
X019889Y022488D03*
X019886Y022503D03*
X019886Y022518D03*
X019883Y022533D03*
X019883Y022548D03*
X019880Y022563D03*
X019877Y022593D03*
X019874Y022608D03*
X019874Y022623D03*
X019868Y022653D03*
X019865Y022683D03*
X019859Y022728D03*
X019847Y022833D03*
X019847Y022848D03*
D322*
X021289Y022128D03*
D323*
X021307Y022131D03*
X020242Y022344D03*
X020242Y022347D03*
X020242Y022350D03*
X020242Y022356D03*
X020242Y022359D03*
X020242Y022362D03*
X020206Y023289D03*
D324*
X020491Y023586D03*
X021325Y022134D03*
D325*
X021343Y022137D03*
D326*
X020120Y022140D03*
X019415Y022905D03*
X020852Y023109D03*
X020855Y023106D03*
D327*
X021431Y022152D03*
D328*
X020242Y022155D03*
D329*
X020815Y022305D03*
X020815Y022311D03*
X020815Y022314D03*
X020815Y022317D03*
X021448Y022155D03*
X020155Y023634D03*
X020158Y023637D03*
X020170Y023649D03*
X020173Y023652D03*
X020185Y023664D03*
X020188Y023667D03*
X020200Y023679D03*
X020203Y023682D03*
D330*
X020269Y022158D03*
D331*
X021466Y022158D03*
X020905Y023043D03*
D332*
X020186Y023250D03*
X020291Y022161D03*
D333*
X020318Y022164D03*
D334*
X020342Y022167D03*
X020483Y023487D03*
D335*
X020365Y022170D03*
D336*
X020423Y022173D03*
D337*
X020423Y022176D03*
X020474Y023400D03*
D338*
X020464Y022182D03*
D339*
X020462Y022185D03*
D340*
X020462Y022188D03*
D341*
X020464Y022191D03*
X020464Y022194D03*
X020464Y022197D03*
X020464Y022200D03*
D342*
X020464Y022203D03*
D343*
X020462Y022206D03*
X020462Y022209D03*
X020462Y022212D03*
X020462Y022215D03*
D344*
X020462Y022218D03*
D345*
X020464Y022221D03*
X020464Y022224D03*
D346*
X020462Y022227D03*
X020462Y022230D03*
X020462Y022236D03*
X020462Y022239D03*
X020462Y022242D03*
D347*
X020462Y022233D03*
D348*
X020461Y022245D03*
D349*
X020462Y022248D03*
D350*
X020462Y022251D03*
X020462Y022254D03*
D351*
X020251Y022257D03*
X020251Y022260D03*
D352*
X020812Y022266D03*
X020812Y022269D03*
X020812Y022272D03*
X020812Y022275D03*
X020812Y022260D03*
X020362Y023844D03*
D353*
X020251Y022263D03*
D354*
X020812Y022263D03*
D355*
X020249Y022269D03*
X020249Y022266D03*
X020249Y022272D03*
X020249Y022275D03*
X020249Y022281D03*
X020213Y023301D03*
X020216Y023304D03*
X020264Y023349D03*
X020489Y023571D03*
D356*
X020249Y022278D03*
D357*
X020813Y022278D03*
X020813Y022293D03*
X020222Y023703D03*
X020237Y023718D03*
X020252Y023733D03*
X020267Y023748D03*
D358*
X020264Y023745D03*
X020258Y023739D03*
X020255Y023736D03*
X020249Y023730D03*
X020243Y023724D03*
X020240Y023721D03*
X020234Y023715D03*
X020228Y023709D03*
X020225Y023706D03*
X020219Y023700D03*
X020213Y023694D03*
X020210Y023691D03*
X020813Y022302D03*
X020813Y022299D03*
X020813Y022296D03*
X020813Y022290D03*
X020813Y022287D03*
X020813Y022284D03*
X020813Y022281D03*
D359*
X020248Y022287D03*
X020248Y022284D03*
X020248Y022290D03*
X020248Y022296D03*
X020248Y022299D03*
X020248Y022302D03*
X020245Y022317D03*
X020245Y022320D03*
D360*
X020245Y022323D03*
X020248Y022293D03*
X020212Y023298D03*
D361*
X019834Y022935D03*
X019834Y022932D03*
X019834Y022929D03*
X019834Y022926D03*
X019849Y022824D03*
X019849Y022821D03*
X019849Y022815D03*
X019849Y022812D03*
X019849Y022809D03*
X019849Y022806D03*
X019849Y022800D03*
X019864Y022695D03*
X019864Y022692D03*
X019864Y022689D03*
X019864Y022686D03*
X019894Y022449D03*
X019894Y022446D03*
X019894Y022440D03*
X019894Y022437D03*
X019894Y022434D03*
X019909Y022305D03*
X019909Y022302D03*
X019909Y022299D03*
D362*
X020243Y022326D03*
X020243Y022329D03*
X020243Y022332D03*
X020243Y022335D03*
X020243Y022341D03*
X020246Y022314D03*
X020246Y022311D03*
X020246Y022305D03*
X020207Y023292D03*
X020210Y023295D03*
D363*
X020489Y023568D03*
X020243Y022338D03*
X020246Y022308D03*
D364*
X020815Y022308D03*
D365*
X020813Y022320D03*
X020813Y022326D03*
X020813Y022329D03*
X020093Y023571D03*
X020096Y023574D03*
X020099Y023577D03*
X020108Y023586D03*
X020111Y023589D03*
X020114Y023592D03*
X020123Y023601D03*
X020126Y023604D03*
X020129Y023607D03*
X020138Y023616D03*
X020141Y023619D03*
X020144Y023622D03*
D366*
X020813Y022323D03*
D367*
X020815Y022338D03*
X020815Y022353D03*
X020032Y023508D03*
X020047Y023523D03*
X020062Y023538D03*
X020077Y023553D03*
X020362Y023838D03*
D368*
X020242Y022353D03*
D369*
X020240Y022365D03*
X020240Y022371D03*
X020240Y022374D03*
X020240Y022377D03*
X020240Y022380D03*
X020792Y023202D03*
D370*
X020240Y022368D03*
D371*
X020816Y022368D03*
X020816Y022383D03*
X019973Y023448D03*
X019988Y023463D03*
X020003Y023478D03*
X020018Y023493D03*
D372*
X020239Y022398D03*
X020239Y022383D03*
D373*
X020239Y022386D03*
X020239Y022389D03*
X020239Y022392D03*
X020239Y022395D03*
X020239Y022401D03*
D374*
X020818Y022407D03*
X020818Y022404D03*
X020818Y022401D03*
X020818Y022395D03*
X020818Y022392D03*
X020818Y022389D03*
X020818Y022410D03*
X020818Y022416D03*
X019903Y023376D03*
X019906Y023379D03*
X019912Y023385D03*
X019918Y023391D03*
X019921Y023394D03*
X019927Y023400D03*
X019933Y023406D03*
X019936Y023409D03*
X019942Y023415D03*
X019948Y023421D03*
X019951Y023424D03*
X019957Y023430D03*
X019963Y023436D03*
X020362Y023835D03*
D375*
X019960Y023433D03*
X019945Y023418D03*
X019930Y023403D03*
X019915Y023388D03*
X019900Y023373D03*
X020818Y022413D03*
X020818Y022398D03*
D376*
X020237Y022404D03*
X020237Y022407D03*
X020237Y022410D03*
X020237Y022416D03*
X020237Y022419D03*
X020237Y022422D03*
X020234Y022431D03*
X020234Y022434D03*
X020234Y022437D03*
X020234Y022440D03*
X020792Y023199D03*
X020489Y023562D03*
D377*
X020237Y022413D03*
D378*
X020819Y022419D03*
X020819Y022422D03*
X020819Y022425D03*
X020819Y022431D03*
X020819Y022434D03*
X020819Y022437D03*
X020819Y022440D03*
X019898Y023370D03*
X019889Y023361D03*
X019883Y023355D03*
X019874Y023346D03*
X019868Y023340D03*
X019859Y023331D03*
X019853Y023325D03*
X019844Y023316D03*
X019838Y023310D03*
D379*
X020197Y023274D03*
X020200Y023277D03*
X020488Y023559D03*
X020233Y022461D03*
X020233Y022455D03*
X020233Y022452D03*
X020233Y022449D03*
X020233Y022446D03*
X020236Y022425D03*
D380*
X020236Y022428D03*
X020233Y022443D03*
X020233Y022458D03*
D381*
X020819Y022428D03*
X019886Y023358D03*
X019871Y023343D03*
X019856Y023328D03*
X019841Y023313D03*
D382*
X019834Y022938D03*
X019849Y022818D03*
X019849Y022803D03*
X019864Y022698D03*
X019894Y022443D03*
D383*
X020818Y022443D03*
X019798Y023268D03*
X019813Y023283D03*
X019828Y023298D03*
X019783Y023253D03*
D384*
X019775Y023244D03*
X019772Y023241D03*
X019763Y023232D03*
X019760Y023229D03*
X019757Y023226D03*
X019748Y023217D03*
X019745Y023214D03*
X019742Y023211D03*
X019733Y023202D03*
X019730Y023199D03*
X019727Y023196D03*
X019718Y023187D03*
X019715Y023184D03*
X020468Y023745D03*
X020474Y023739D03*
X020360Y023829D03*
X020819Y022470D03*
X020819Y022467D03*
X020819Y022464D03*
X020819Y022461D03*
X020819Y022455D03*
X020819Y022452D03*
X020819Y022449D03*
X020819Y022446D03*
D385*
X020819Y022458D03*
X020819Y022473D03*
X019769Y023238D03*
X019754Y023223D03*
X019739Y023208D03*
X019724Y023193D03*
X020468Y023748D03*
D386*
X020231Y022482D03*
X020231Y022479D03*
X020231Y022476D03*
X020231Y022470D03*
X020231Y022467D03*
X020231Y022464D03*
D387*
X020231Y022473D03*
D388*
X020821Y022479D03*
X020821Y022476D03*
X020821Y022482D03*
X020821Y022485D03*
X020821Y022491D03*
X020821Y022494D03*
X020821Y022497D03*
X020821Y022500D03*
X019714Y023181D03*
X019708Y023175D03*
X019705Y023172D03*
X019702Y023169D03*
X019699Y023166D03*
X019693Y023160D03*
X019690Y023157D03*
X019687Y023154D03*
X019684Y023151D03*
X019678Y023145D03*
X019675Y023142D03*
X019672Y023139D03*
X019669Y023136D03*
X019654Y023121D03*
X020482Y023727D03*
X020476Y023736D03*
D389*
X020488Y023556D03*
X020230Y022500D03*
X020230Y022497D03*
X020230Y022494D03*
X020230Y022491D03*
X020230Y022485D03*
D390*
X020230Y022488D03*
D391*
X020228Y022503D03*
D392*
X020822Y022503D03*
X020822Y022518D03*
X019622Y023088D03*
X019607Y023073D03*
X019592Y023058D03*
D393*
X020228Y022515D03*
X020228Y022512D03*
X020228Y022509D03*
X020228Y022506D03*
D394*
X020822Y022512D03*
X020822Y022509D03*
X020822Y022506D03*
X020822Y022515D03*
X020822Y022521D03*
X020822Y022524D03*
X020822Y022527D03*
X019664Y023130D03*
X019658Y023124D03*
X019643Y023109D03*
X019634Y023100D03*
X019628Y023094D03*
X019625Y023091D03*
X019619Y023085D03*
X019613Y023079D03*
X019610Y023076D03*
X019604Y023070D03*
X019598Y023064D03*
X019595Y023061D03*
X020483Y023724D03*
X020480Y023730D03*
D395*
X020417Y022533D03*
X020417Y022518D03*
D396*
X020824Y022533D03*
X020824Y022548D03*
X019654Y023118D03*
X019639Y023103D03*
D397*
X020419Y022548D03*
D398*
X020419Y022551D03*
X020419Y022554D03*
D399*
X020824Y022560D03*
X020824Y022566D03*
X020824Y022569D03*
X020824Y022572D03*
X020824Y022575D03*
X020824Y022581D03*
X020824Y022584D03*
X019594Y023055D03*
X020359Y023820D03*
D400*
X020006Y022563D03*
D401*
X019994Y022788D03*
X020417Y022638D03*
X020417Y022623D03*
X020417Y022608D03*
X020417Y022593D03*
X020417Y022578D03*
X020417Y022563D03*
X021041Y022893D03*
D402*
X020824Y022578D03*
X020824Y022563D03*
D403*
X019879Y022575D03*
D404*
X019879Y022578D03*
D405*
X019876Y022602D03*
X019876Y022605D03*
X019873Y022626D03*
X019873Y022629D03*
X019873Y022632D03*
X019846Y022851D03*
X019846Y022854D03*
X019846Y022857D03*
X019846Y022860D03*
X020815Y022869D03*
D406*
X020827Y022638D03*
X020827Y022623D03*
D407*
X020828Y022644D03*
X020828Y022647D03*
X020828Y022650D03*
X020828Y022656D03*
X020828Y022659D03*
X020828Y022662D03*
X020828Y022665D03*
X020501Y023694D03*
D408*
X020419Y022668D03*
X020419Y022653D03*
D409*
X020417Y022683D03*
X020417Y022698D03*
X020417Y022713D03*
X020417Y022728D03*
X020417Y022743D03*
D410*
X020828Y022698D03*
X020828Y022683D03*
D411*
X020831Y022728D03*
X020831Y022743D03*
D412*
X020831Y022740D03*
X020831Y022737D03*
X020831Y022734D03*
X020831Y022731D03*
X020831Y022746D03*
X020831Y022749D03*
X020831Y022752D03*
X020831Y022755D03*
D413*
X019996Y022773D03*
D414*
X020180Y023205D03*
X020483Y023502D03*
X020663Y022782D03*
D415*
X020665Y022785D03*
X020665Y022791D03*
X020665Y022794D03*
X020665Y022797D03*
X020665Y022800D03*
X020665Y022806D03*
X020665Y022809D03*
X020665Y022812D03*
D416*
X020665Y022803D03*
X020665Y022788D03*
D417*
X019993Y022803D03*
X019993Y022818D03*
D418*
X020648Y022815D03*
X020480Y023481D03*
D419*
X020596Y022818D03*
D420*
X020549Y022821D03*
D421*
X020449Y022824D03*
X020449Y022827D03*
X020449Y022830D03*
X020449Y022836D03*
D422*
X020449Y022833D03*
D423*
X020447Y022839D03*
D424*
X020449Y022842D03*
X020449Y022845D03*
X020449Y022851D03*
X020449Y022854D03*
X020449Y022857D03*
D425*
X019414Y022848D03*
D426*
X020449Y022848D03*
D427*
X020447Y022860D03*
D428*
X019846Y022863D03*
D429*
X020428Y022866D03*
D430*
X020327Y022869D03*
D431*
X020258Y022872D03*
X020894Y022929D03*
X020480Y023466D03*
D432*
X020488Y023541D03*
X020185Y023244D03*
X020188Y022875D03*
D433*
X020125Y022878D03*
D434*
X021053Y022878D03*
D435*
X019415Y022893D03*
D436*
X019415Y022902D03*
X020867Y023091D03*
X020873Y023085D03*
X020879Y023076D03*
D437*
X019418Y022908D03*
X020363Y023853D03*
D438*
X021097Y022908D03*
D439*
X019432Y022920D03*
X019423Y022914D03*
X019420Y022911D03*
D440*
X019429Y022917D03*
D441*
X019909Y023382D03*
X019924Y023397D03*
X019939Y023412D03*
X019954Y023427D03*
X021064Y022917D03*
D442*
X021092Y022920D03*
X020357Y023799D03*
D443*
X019435Y022923D03*
D444*
X019439Y022926D03*
X020363Y023850D03*
D445*
X021004Y022926D03*
D446*
X019445Y022932D03*
X019442Y022929D03*
D447*
X020785Y022932D03*
D448*
X019450Y022935D03*
D449*
X020675Y022935D03*
D450*
X019453Y022938D03*
D451*
X020564Y022938D03*
D452*
X019462Y022947D03*
X019459Y022944D03*
X019456Y022941D03*
D453*
X020494Y022941D03*
D454*
X020300Y022950D03*
D455*
X020302Y022953D03*
D456*
X020303Y022956D03*
D457*
X020305Y022959D03*
D458*
X020306Y022962D03*
D459*
X020308Y022965D03*
D460*
X020309Y022968D03*
D461*
X020311Y022971D03*
D462*
X020312Y022974D03*
D463*
X020314Y022977D03*
D464*
X020315Y022980D03*
D465*
X020315Y022983D03*
D466*
X020317Y022986D03*
D467*
X020318Y022989D03*
D468*
X020320Y022992D03*
D469*
X020320Y022995D03*
D470*
X020297Y022998D03*
D471*
X020296Y023001D03*
D472*
X020263Y023004D03*
D473*
X020245Y023007D03*
D474*
X020242Y023010D03*
D475*
X020239Y023013D03*
D476*
X020233Y023019D03*
D477*
X020230Y023025D03*
D478*
X020228Y023028D03*
D479*
X020228Y023031D03*
D480*
X020227Y023034D03*
D481*
X020227Y023037D03*
D482*
X020227Y023040D03*
D483*
X020050Y023043D03*
D484*
X019936Y023046D03*
D485*
X019822Y023049D03*
D486*
X019708Y023052D03*
X020260Y023346D03*
D487*
X020875Y023082D03*
X020878Y023079D03*
X020884Y023070D03*
X020887Y023067D03*
X020890Y023064D03*
X020896Y023055D03*
X020365Y023862D03*
D488*
X020486Y023721D03*
X019661Y023127D03*
X019646Y023112D03*
X019631Y023097D03*
X019616Y023082D03*
X019601Y023067D03*
D489*
X020870Y023088D03*
X020882Y023073D03*
D490*
X020866Y023094D03*
D491*
X020863Y023097D03*
X020860Y023100D03*
X020365Y023859D03*
D492*
X020471Y023742D03*
X019766Y023235D03*
X019751Y023220D03*
X019736Y023205D03*
X019721Y023190D03*
X019886Y023100D03*
D493*
X019976Y023103D03*
D494*
X020858Y023103D03*
D495*
X020485Y023514D03*
X020068Y023106D03*
D496*
X020159Y023109D03*
D497*
X020251Y023112D03*
D498*
X020849Y023112D03*
X020363Y023856D03*
D499*
X020362Y023115D03*
D500*
X020432Y023118D03*
D501*
X020449Y023121D03*
D502*
X020449Y023124D03*
D503*
X020450Y023133D03*
D504*
X020450Y023136D03*
D505*
X020450Y023139D03*
D506*
X020450Y023142D03*
D507*
X020450Y023145D03*
D508*
X020452Y023148D03*
D509*
X020453Y023151D03*
D510*
X020453Y023154D03*
D511*
X020453Y023157D03*
D512*
X020453Y023160D03*
D513*
X020453Y023163D03*
D514*
X020453Y023166D03*
D515*
X020453Y023169D03*
D516*
X020455Y023172D03*
D517*
X020455Y023175D03*
D518*
X020455Y023178D03*
D519*
X020455Y023181D03*
D520*
X020455Y023187D03*
D521*
X020194Y023190D03*
D522*
X020779Y023190D03*
D523*
X020186Y023193D03*
D524*
X020788Y023193D03*
D525*
X020791Y023196D03*
D526*
X020182Y023199D03*
D527*
X020180Y023202D03*
D528*
X020794Y023205D03*
D529*
X020179Y023208D03*
D530*
X020795Y023208D03*
D531*
X020485Y023511D03*
X020179Y023211D03*
D532*
X020179Y023214D03*
D533*
X020234Y023325D03*
X020240Y023331D03*
X020243Y023334D03*
X020489Y023577D03*
X020795Y023214D03*
D534*
X020179Y023217D03*
D535*
X020795Y023217D03*
D536*
X020179Y023220D03*
D537*
X020795Y023220D03*
D538*
X020180Y023223D03*
D539*
X020795Y023223D03*
D540*
X020180Y023226D03*
D541*
X020797Y023226D03*
X020491Y023589D03*
D542*
X020180Y023229D03*
D543*
X020795Y023229D03*
D544*
X020182Y023232D03*
D545*
X020795Y023232D03*
D546*
X020182Y023235D03*
D547*
X020794Y023235D03*
X020491Y023595D03*
D548*
X020183Y023238D03*
D549*
X020794Y023238D03*
D550*
X020183Y023241D03*
D551*
X020792Y023244D03*
X020792Y023241D03*
X020492Y023601D03*
D552*
X019837Y023307D03*
X019834Y023304D03*
X019831Y023301D03*
X019822Y023292D03*
X019819Y023289D03*
X019816Y023286D03*
X019807Y023277D03*
X019804Y023274D03*
X019801Y023271D03*
X019792Y023262D03*
X019789Y023259D03*
X019786Y023256D03*
X019777Y023247D03*
D553*
X020186Y023247D03*
D554*
X020792Y023247D03*
X020492Y023604D03*
D555*
X020791Y023250D03*
D556*
X020188Y023253D03*
D557*
X020789Y023253D03*
D558*
X020189Y023256D03*
D559*
X020789Y023256D03*
X020492Y023610D03*
D560*
X020488Y023550D03*
X020191Y023259D03*
D561*
X020788Y023262D03*
X020788Y023259D03*
D562*
X020192Y023262D03*
D563*
X020194Y023265D03*
D564*
X020786Y023265D03*
D565*
X020194Y023268D03*
D566*
X020785Y023268D03*
D567*
X020195Y023271D03*
D568*
X020714Y023352D03*
X020783Y023271D03*
D569*
X020782Y023274D03*
D570*
X020780Y023277D03*
D571*
X020201Y023280D03*
D572*
X020494Y023622D03*
X020722Y023349D03*
X020779Y023280D03*
D573*
X020203Y023283D03*
D574*
X020374Y023763D03*
X020779Y023283D03*
D575*
X020489Y023565D03*
X020273Y023352D03*
X020204Y023286D03*
D576*
X020771Y023295D03*
D577*
X020771Y023298D03*
D578*
X020762Y023310D03*
X020375Y023772D03*
D579*
X020254Y023343D03*
X020224Y023313D03*
D580*
X020759Y023313D03*
D581*
X020251Y023340D03*
X020230Y023319D03*
X020227Y023316D03*
D582*
X019895Y023367D03*
X019892Y023364D03*
X019880Y023352D03*
X019877Y023349D03*
X019865Y023337D03*
X019862Y023334D03*
X019850Y023322D03*
X019847Y023319D03*
X020360Y023832D03*
D583*
X020246Y023337D03*
X020231Y023322D03*
D584*
X020237Y023328D03*
D585*
X020749Y023328D03*
D586*
X020740Y023337D03*
D587*
X020732Y023343D03*
D588*
X020471Y023355D03*
D589*
X020471Y023358D03*
D590*
X020471Y023361D03*
D591*
X020471Y023364D03*
D592*
X020471Y023367D03*
D593*
X020471Y023370D03*
D594*
X020473Y023373D03*
D595*
X020473Y023376D03*
D596*
X020473Y023379D03*
D597*
X020473Y023385D03*
D598*
X020473Y023388D03*
D599*
X020473Y023391D03*
D600*
X020474Y023394D03*
D601*
X020474Y023397D03*
D602*
X020474Y023403D03*
D603*
X020474Y023406D03*
D604*
X020474Y023409D03*
D605*
X020476Y023412D03*
D606*
X020476Y023415D03*
D607*
X020476Y023418D03*
D608*
X020476Y023421D03*
D609*
X020476Y023424D03*
D610*
X020476Y023427D03*
D611*
X020477Y023430D03*
D612*
X020477Y023433D03*
D613*
X020477Y023436D03*
D614*
X020477Y023442D03*
D615*
X020477Y023445D03*
D616*
X020479Y023448D03*
D617*
X020479Y023451D03*
D618*
X020479Y023454D03*
D619*
X020479Y023457D03*
D620*
X020479Y023460D03*
D621*
X020479Y023463D03*
D622*
X020480Y023469D03*
D623*
X020480Y023475D03*
D624*
X020480Y023478D03*
D625*
X020480Y023484D03*
D626*
X020483Y023493D03*
D627*
X020483Y023496D03*
D628*
X020483Y023499D03*
D629*
X020074Y023550D03*
X020059Y023535D03*
X020044Y023520D03*
X020029Y023505D03*
D630*
X020485Y023505D03*
D631*
X020485Y023508D03*
D632*
X020485Y023517D03*
D633*
X020485Y023520D03*
D634*
X020486Y023523D03*
D635*
X020486Y023526D03*
D636*
X020486Y023529D03*
D637*
X020486Y023535D03*
D638*
X020486Y023538D03*
D639*
X020488Y023544D03*
D640*
X020488Y023547D03*
D641*
X020488Y023553D03*
D642*
X020147Y023625D03*
X020132Y023610D03*
X020117Y023595D03*
X020102Y023580D03*
X020087Y023565D03*
D643*
X020090Y023568D03*
X020105Y023583D03*
X020120Y023598D03*
X020135Y023613D03*
D644*
X020491Y023580D03*
D645*
X020491Y023583D03*
D646*
X020491Y023592D03*
D647*
X020492Y023598D03*
D648*
X020492Y023607D03*
D649*
X020492Y023613D03*
D650*
X020494Y023616D03*
X020374Y023757D03*
D651*
X020374Y023760D03*
X020494Y023619D03*
D652*
X020209Y023688D03*
X020194Y023673D03*
X020179Y023658D03*
X020164Y023643D03*
X020149Y023628D03*
D653*
X020494Y023631D03*
D654*
X020494Y023634D03*
D655*
X020498Y023667D03*
D656*
X020501Y023691D03*
D657*
X020261Y023742D03*
X020246Y023727D03*
X020231Y023712D03*
X020216Y023697D03*
D658*
X020498Y023703D03*
D659*
X020488Y023718D03*
D660*
X020374Y023751D03*
D661*
X020374Y023754D03*
D662*
X020375Y023778D03*
D663*
X020510Y023808D03*
D664*
X020510Y023811D03*
D665*
X020359Y023817D03*
D666*
X020360Y023823D03*
D667*
X020366Y023874D03*
D668*
X020366Y023877D03*
D669*
X020366Y023880D03*
D670*
X020368Y023883D03*
D671*
X020374Y023934D03*
X020374Y023937D03*
D672*
X007365Y023326D02*
X006597Y023326D01*
X005801Y023409D02*
X005033Y023409D01*
X005033Y025377D02*
X005801Y025377D01*
X006597Y025295D02*
X007365Y025295D01*
X007365Y021358D02*
X006597Y021358D01*
X005801Y021377D02*
X005033Y021377D01*
X005033Y019409D02*
X005801Y019409D01*
X006597Y019389D02*
X007365Y019389D01*
X007365Y017381D02*
X006597Y017381D01*
X005801Y017377D02*
X005033Y017377D01*
X005033Y015409D02*
X005801Y015409D01*
X006597Y015413D02*
X007365Y015413D01*
X007365Y013444D02*
X006597Y013444D01*
X005801Y013377D02*
X005033Y013377D01*
X005033Y011409D02*
X005801Y011409D01*
X006597Y011476D02*
X007365Y011476D01*
X007321Y003358D02*
X006554Y003358D01*
X005801Y003377D02*
X005033Y003377D01*
X005033Y001409D02*
X005801Y001409D01*
X006554Y001389D02*
X007321Y001389D01*
X033440Y002822D02*
X034207Y002822D01*
X034436Y003126D02*
X035203Y003126D01*
X035083Y002409D02*
X035851Y002409D01*
X035851Y004377D02*
X035083Y004377D01*
X034207Y004791D02*
X033440Y004791D01*
X034436Y005390D02*
X035203Y005390D01*
X035083Y010409D02*
X035851Y010409D01*
X034202Y010394D02*
X033435Y010394D01*
X033435Y012363D02*
X034202Y012363D01*
X035083Y012377D02*
X035851Y012377D01*
X035851Y014409D02*
X035083Y014409D01*
X034203Y014350D02*
X033435Y014350D01*
X033435Y016318D02*
X034203Y016318D01*
X035083Y016377D02*
X035851Y016377D01*
X035851Y018409D02*
X035083Y018409D01*
X034202Y018268D02*
X033435Y018268D01*
X033435Y020237D02*
X034202Y020237D01*
X035083Y020377D02*
X035851Y020377D01*
X035851Y022409D02*
X035083Y022409D01*
X034202Y022205D02*
X033435Y022205D01*
X033435Y024174D02*
X034202Y024174D01*
X035083Y024377D02*
X035851Y024377D01*
D673*
X032717Y022393D03*
X031717Y021393D03*
X029717Y022393D03*
X025717Y022393D03*
X025717Y021393D03*
X025717Y018393D03*
X025717Y017393D03*
X029717Y018393D03*
X032717Y018393D03*
X032717Y014393D03*
X031717Y013393D03*
X029717Y014393D03*
X025717Y014393D03*
X025717Y013393D03*
X025717Y010393D03*
X029717Y010393D03*
X032717Y010393D03*
X015217Y010643D03*
X015217Y013643D03*
X015217Y014643D03*
X011217Y013643D03*
X009217Y014643D03*
X008217Y013643D03*
X008217Y017643D03*
X011217Y017643D03*
X015217Y017643D03*
X015217Y018643D03*
X015217Y021643D03*
X015217Y022643D03*
X011217Y021643D03*
X009217Y022643D03*
X008217Y021643D03*
X008217Y025643D03*
X011217Y025643D03*
X015217Y025643D03*
X025717Y025393D03*
D674*
X024467Y014170D02*
X024467Y013616D01*
X023467Y013616D02*
X023467Y014170D01*
X022467Y014170D02*
X022467Y013616D01*
X021467Y013616D02*
X021467Y014170D01*
X020467Y014170D02*
X020467Y013616D01*
X019467Y013616D02*
X019467Y014170D01*
X018467Y014170D02*
X018467Y013616D01*
X017467Y013616D02*
X017467Y014170D01*
X016467Y014170D02*
X016467Y013616D01*
X016467Y011170D02*
X016467Y010616D01*
X017467Y010616D02*
X017467Y011170D01*
X018467Y011170D02*
X018467Y010616D01*
X019467Y010616D02*
X019467Y011170D01*
X020467Y011170D02*
X020467Y010616D01*
X021467Y010616D02*
X021467Y011170D01*
X022467Y011170D02*
X022467Y010616D01*
X023467Y010616D02*
X023467Y011170D01*
X024467Y011170D02*
X024467Y010616D01*
X024467Y009795D02*
X024467Y009241D01*
X023467Y009241D02*
X023467Y009795D01*
X022467Y009795D02*
X022467Y009241D01*
X021467Y009241D02*
X021467Y009795D01*
X020467Y009795D02*
X020467Y009241D01*
X019467Y009241D02*
X019467Y009795D01*
X018467Y009795D02*
X018467Y009241D01*
X017467Y009241D02*
X017467Y009795D01*
X016467Y009795D02*
X016467Y009241D01*
X015467Y009241D02*
X015467Y009795D01*
X015467Y006795D02*
X015467Y006241D01*
X016467Y006241D02*
X016467Y006795D01*
X017467Y006795D02*
X017467Y006241D01*
X018467Y006241D02*
X018467Y006795D01*
X019467Y006795D02*
X019467Y006241D01*
X020467Y006241D02*
X020467Y006795D01*
X021467Y006795D02*
X021467Y006241D01*
X022467Y006241D02*
X022467Y006795D01*
X023467Y006795D02*
X023467Y006241D01*
X024467Y006241D02*
X024467Y006795D01*
D675*
X012242Y006846D02*
X012242Y007440D01*
X011242Y007440D02*
X011242Y006846D01*
X010242Y006846D02*
X010242Y007440D01*
X006994Y008283D02*
X006400Y008283D01*
X004434Y008283D02*
X003840Y008283D01*
X003840Y006503D02*
X004434Y006503D01*
X006400Y006503D02*
X006994Y006503D01*
D676*
X009267Y005968D03*
X005417Y004893D03*
X013267Y005968D03*
D677*
X005417Y005893D03*
D678*
X012405Y003456D03*
D679*
X010405Y003456D03*
D680*
X030842Y004139D03*
X030848Y002896D03*
D681*
X024717Y003643D03*
X023717Y003643D03*
X022717Y003643D03*
X021717Y003643D03*
X020717Y003643D03*
X019717Y003643D03*
X018717Y003643D03*
X017717Y003643D03*
X016717Y003643D03*
X015717Y003643D03*
X015717Y004643D03*
X016717Y004643D03*
X017717Y004643D03*
X018717Y004643D03*
X019717Y004643D03*
X020717Y004643D03*
X021717Y004643D03*
X022717Y004643D03*
X023717Y004643D03*
X024717Y004643D03*
X014330Y006506D03*
X014330Y008506D03*
D682*
X008380Y007643D03*
X008380Y003643D03*
D683*
X005405Y011393D02*
X005417Y011406D01*
X005417Y011409D01*
X005417Y013377D02*
X005405Y013390D01*
X005405Y013393D01*
X008030Y013456D02*
X009217Y014643D01*
X008780Y016206D02*
X007530Y015393D01*
X006981Y015413D02*
X006967Y015399D01*
X006967Y015393D01*
X005405Y015396D02*
X005405Y015393D01*
X008780Y016206D02*
X009780Y016206D01*
X010655Y017081D01*
X011217Y017643D01*
X008217Y017643D02*
X007655Y017643D01*
X006981Y017381D02*
X006969Y017393D01*
X006967Y017393D01*
X005417Y017377D02*
X005405Y017390D01*
X005405Y017393D01*
X005405Y019393D02*
X005405Y019396D01*
X006967Y019393D02*
X006977Y019393D01*
X006981Y019389D01*
X006967Y021331D02*
X006967Y021344D01*
X006981Y021358D01*
X006954Y021331D01*
X007967Y021393D02*
X008217Y021643D01*
X009217Y022643D01*
X008780Y024206D02*
X007592Y023331D01*
X008780Y024206D02*
X009780Y024206D01*
X010655Y025081D01*
X011217Y025643D01*
X008217Y025643D02*
X007717Y025643D01*
X005417Y025381D02*
X005417Y025377D01*
X005417Y025381D02*
X005405Y025393D01*
X005417Y023409D02*
X005405Y023396D01*
X005405Y023393D01*
X005405Y021393D02*
X005405Y021390D01*
X005417Y021377D01*
X029717Y018393D02*
X030280Y018956D01*
X031155Y019831D01*
X032092Y019831D01*
X033155Y020206D01*
X031717Y021393D02*
X032717Y022393D01*
X032905Y022206D01*
X033818Y022205D02*
X033819Y022206D01*
X033842Y022206D01*
X035467Y022393D02*
X035467Y022409D01*
X035467Y020393D02*
X035467Y020377D01*
X035467Y018409D02*
X035467Y018393D01*
X033842Y018268D02*
X033818Y018268D01*
X032842Y018268D02*
X032717Y018393D01*
X035467Y016393D02*
X035467Y016377D01*
X035467Y014409D02*
X035467Y014393D01*
X034280Y014393D02*
X034217Y014393D01*
X033838Y014393D02*
X033819Y014350D01*
X032717Y014393D02*
X031717Y013393D01*
X032717Y012143D02*
X033092Y012331D01*
X032717Y012143D02*
X032092Y011831D01*
X032030Y011831D02*
X031155Y011831D01*
X030280Y010956D01*
X029717Y010393D01*
X033818Y010394D02*
X033819Y010393D01*
X033842Y010393D01*
X035467Y010393D02*
X035467Y010409D01*
X035467Y012377D02*
X035467Y012393D01*
X033842Y012331D02*
X033842Y012331D01*
X033818Y012354D01*
X033818Y012363D01*
X035467Y024377D02*
X035467Y024393D01*
D684*
X032717Y024206D03*
X029967Y023143D03*
X032717Y020081D03*
X030280Y018956D03*
X032717Y016331D03*
X029967Y015143D03*
X032717Y012143D03*
X030280Y010956D03*
X010967Y012831D03*
X008030Y011456D03*
X008030Y015706D03*
X010655Y017081D03*
X008092Y019393D03*
X010967Y020893D03*
X008092Y023706D03*
X010655Y025081D03*
D685*
X007717Y025643D02*
X007342Y025268D01*
X006592Y025268D01*
X006467Y025393D01*
X005405Y025393D01*
X005405Y023393D02*
X006092Y023393D01*
X006155Y023331D01*
X007592Y023331D01*
X008217Y021643D02*
X007905Y021331D01*
X006967Y021331D01*
X006954Y021331D02*
X006155Y021331D01*
X006092Y021393D01*
X005405Y021393D01*
X005417Y019409D02*
X005405Y019396D01*
X005405Y019393D02*
X006977Y019393D01*
X008092Y019393D01*
X009467Y019393D01*
X010967Y020893D01*
X011217Y021143D01*
X011217Y021643D01*
X007655Y017643D02*
X007405Y017393D01*
X007342Y017393D01*
X007381Y017393D01*
X007393Y017381D01*
X007342Y017393D02*
X006969Y017393D01*
X005405Y017393D01*
X005417Y015409D02*
X005405Y015396D01*
X005405Y015393D02*
X006967Y015393D01*
X007530Y015393D01*
X008030Y013456D02*
X006592Y013456D01*
X006530Y013393D01*
X005405Y013393D01*
X005405Y011393D02*
X006530Y011393D01*
X006592Y011456D01*
X008030Y011456D01*
X009592Y011456D01*
X010967Y012831D01*
X011217Y013081D01*
X011217Y013643D01*
X029717Y014393D02*
X029717Y014893D01*
X029967Y015143D01*
X031155Y016331D01*
X032717Y016331D01*
X034217Y016331D01*
X034280Y016393D01*
X035467Y016393D01*
X035467Y018393D02*
X034342Y018393D01*
X034217Y018268D01*
X033818Y018268D01*
X032842Y018268D01*
X033155Y020206D02*
X034217Y020206D01*
X034405Y020393D01*
X035467Y020393D01*
X035467Y022393D02*
X034405Y022393D01*
X034217Y022206D01*
X033819Y022206D01*
X032905Y022206D01*
X031030Y024206D02*
X029717Y022893D01*
X029717Y022393D01*
X031030Y024206D02*
X032717Y024206D01*
X034217Y024206D01*
X034405Y024393D01*
X035467Y024393D01*
X035467Y014393D02*
X034280Y014393D01*
X034217Y014393D02*
X033838Y014393D01*
X033842Y014393D01*
X033838Y014393D02*
X032717Y014393D01*
X033092Y012331D02*
X033842Y012331D01*
X033818Y012363D02*
X033849Y012393D01*
X035467Y012393D01*
X035467Y010393D02*
X033819Y010393D01*
X032717Y010393D01*
D686*
X024717Y003643D02*
X024717Y003268D01*
X025092Y002893D01*
X027842Y002893D01*
X030842Y002893D01*
X030845Y002896D01*
X030848Y002896D01*
X006717Y006503D02*
X006697Y006503D01*
X004137Y006503D01*
X004077Y006503D01*
X006697Y006503D02*
X006702Y006503D01*
X006717Y006518D01*
X006717Y006503D01*
D687*
X004077Y006503D02*
X003967Y006393D01*
X030217Y004768D02*
X030592Y004768D01*
X030842Y004518D01*
X031092Y004768D01*
X031467Y004768D01*
X030842Y004518D02*
X030842Y004139D01*
X030848Y002896D02*
X031589Y002896D01*
X031592Y002893D01*
D688*
X003562Y000448D02*
X003562Y006107D01*
X003570Y006099D01*
X003745Y006026D01*
X004119Y006026D01*
X004119Y006484D01*
X004156Y006484D01*
X004156Y006026D01*
X004529Y006026D01*
X004704Y006099D01*
X004838Y006233D01*
X004911Y006408D01*
X004911Y006485D01*
X004156Y006485D01*
X004156Y006521D01*
X004911Y006521D01*
X004911Y006598D01*
X004838Y006773D01*
X004704Y006907D01*
X004529Y006980D01*
X004156Y006980D01*
X004156Y006522D01*
X004119Y006522D01*
X004119Y006980D01*
X003745Y006980D01*
X003570Y006907D01*
X003566Y006904D01*
X003581Y007852D01*
X003741Y007786D01*
X004533Y007786D01*
X004715Y007862D01*
X004855Y008002D01*
X004931Y008184D01*
X004931Y008382D01*
X004874Y008518D01*
X005960Y008518D01*
X005903Y008382D01*
X005903Y008184D01*
X005979Y008002D01*
X006119Y007862D01*
X006301Y007786D01*
X007093Y007786D01*
X007275Y007862D01*
X007415Y008002D01*
X007491Y008184D01*
X007491Y008382D01*
X007434Y008518D01*
X012967Y008518D01*
X014155Y009706D01*
X014155Y011081D01*
X014967Y011893D01*
X024592Y011893D01*
X024592Y011613D01*
X024558Y011627D01*
X024476Y011627D01*
X024476Y010902D01*
X024458Y010902D01*
X024458Y010884D01*
X024010Y010884D01*
X024010Y010525D01*
X024080Y010357D01*
X024208Y010228D01*
X024237Y010216D01*
X024197Y010200D01*
X024063Y010066D01*
X023990Y009890D01*
X023990Y009146D01*
X024063Y008971D01*
X024197Y008836D01*
X024372Y008764D01*
X024562Y008764D01*
X024737Y008836D01*
X024872Y008971D01*
X024944Y009146D01*
X024944Y009518D01*
X026217Y009518D01*
X026217Y006018D01*
X036967Y006018D01*
X036967Y001675D01*
X035761Y001675D01*
X035684Y001643D01*
X035467Y001643D01*
X035467Y000423D01*
X003597Y000425D01*
X003578Y000435D01*
X003562Y000448D01*
X003562Y000552D02*
X035467Y000552D01*
X035467Y000710D02*
X003562Y000710D01*
X003562Y000869D02*
X004864Y000869D01*
X004921Y000845D02*
X005369Y000845D01*
X005369Y001361D01*
X004469Y001361D01*
X004469Y001297D01*
X004555Y001089D01*
X004714Y000931D01*
X004921Y000845D01*
X004617Y001027D02*
X003562Y001027D01*
X003562Y001186D02*
X004515Y001186D01*
X004469Y001344D02*
X003562Y001344D01*
X003562Y001503D02*
X004469Y001503D01*
X004469Y001521D02*
X004469Y001457D01*
X005369Y001457D01*
X005369Y001973D01*
X004921Y001973D01*
X004714Y001887D01*
X004555Y001728D01*
X004469Y001521D01*
X004528Y001661D02*
X003562Y001661D01*
X003562Y001820D02*
X004647Y001820D01*
X003562Y001979D02*
X013856Y001979D01*
X013912Y002114D02*
X013786Y001808D01*
X013786Y001478D01*
X013912Y001172D01*
X014146Y000938D01*
X014452Y000812D01*
X014782Y000812D01*
X015088Y000938D01*
X015322Y001172D01*
X015448Y001478D01*
X015448Y001808D01*
X015322Y002114D01*
X015088Y002348D01*
X014782Y002474D01*
X014452Y002474D01*
X014146Y002348D01*
X013912Y002114D01*
X013936Y002137D02*
X003562Y002137D01*
X003562Y002296D02*
X014094Y002296D01*
X014403Y002454D02*
X003562Y002454D01*
X003562Y002613D02*
X030327Y002613D01*
X030327Y002493D02*
X030432Y002387D01*
X030768Y002387D01*
X030768Y002816D01*
X030927Y002816D01*
X030927Y002387D01*
X031263Y002387D01*
X031368Y002493D01*
X031368Y002816D01*
X030928Y002816D01*
X030928Y002976D01*
X031368Y002976D01*
X031368Y003299D01*
X031263Y003405D01*
X030927Y003405D01*
X030927Y002976D01*
X030768Y002976D01*
X030768Y003405D01*
X030432Y003405D01*
X030327Y003299D01*
X030327Y002976D01*
X030767Y002976D01*
X030767Y002816D01*
X030327Y002816D01*
X030327Y002493D01*
X030366Y002454D02*
X020531Y002454D01*
X020482Y002474D02*
X020152Y002474D01*
X019846Y002348D01*
X019612Y002114D01*
X019486Y001808D01*
X019486Y001478D01*
X019612Y001172D01*
X019846Y000938D01*
X020152Y000812D01*
X020482Y000812D01*
X020788Y000938D01*
X021022Y001172D01*
X021148Y001478D01*
X021148Y001808D01*
X021022Y002114D01*
X020788Y002348D01*
X020482Y002474D01*
X020103Y002454D02*
X014831Y002454D01*
X015140Y002296D02*
X019794Y002296D01*
X019636Y002137D02*
X015299Y002137D01*
X015378Y001979D02*
X019556Y001979D01*
X019491Y001820D02*
X015443Y001820D01*
X015448Y001661D02*
X019486Y001661D01*
X019486Y001503D02*
X015448Y001503D01*
X015393Y001344D02*
X019541Y001344D01*
X019607Y001186D02*
X015327Y001186D01*
X015177Y001027D02*
X019757Y001027D01*
X020015Y000869D02*
X014920Y000869D01*
X014315Y000869D02*
X007538Y000869D01*
X007641Y000911D02*
X007434Y000825D01*
X006986Y000825D01*
X006986Y001341D01*
X006986Y001437D01*
X007885Y001437D01*
X007885Y001501D01*
X007799Y001709D01*
X007641Y001867D01*
X007434Y001953D01*
X006986Y001953D01*
X006986Y001437D01*
X006890Y001437D01*
X006890Y001953D01*
X006441Y001953D01*
X006234Y001867D01*
X006187Y001820D01*
X006120Y001887D01*
X005913Y001973D01*
X005465Y001973D01*
X005465Y001457D01*
X005369Y001457D01*
X005369Y001361D01*
X005465Y001361D01*
X005465Y001457D01*
X005990Y001457D01*
X005990Y001437D01*
X006889Y001437D01*
X006889Y001341D01*
X006365Y001341D01*
X006365Y001361D01*
X005465Y001361D01*
X005465Y000845D01*
X005913Y000845D01*
X006120Y000931D01*
X006167Y000978D01*
X006234Y000911D01*
X006441Y000825D01*
X006890Y000825D01*
X006890Y001341D01*
X006986Y001341D01*
X007885Y001341D01*
X007885Y001277D01*
X007799Y001070D01*
X007641Y000911D01*
X007757Y001027D02*
X014057Y001027D01*
X013907Y001186D02*
X007847Y001186D01*
X007885Y001503D02*
X013786Y001503D01*
X013786Y001661D02*
X007819Y001661D01*
X007688Y001820D02*
X013791Y001820D01*
X013841Y001344D02*
X006986Y001344D01*
X006938Y001389D02*
X009713Y001389D01*
X010405Y002081D01*
X010405Y003456D01*
X010405Y003456D01*
X010405Y003956D01*
X007857Y006503D01*
X006697Y006503D01*
X006679Y006484D02*
X006716Y006484D01*
X006716Y006485D02*
X006716Y006521D01*
X007471Y006521D01*
X007471Y006598D01*
X007398Y006773D01*
X007264Y006907D01*
X007089Y006980D01*
X006716Y006980D01*
X006716Y006522D01*
X006679Y006522D01*
X006679Y006980D01*
X006305Y006980D01*
X006130Y006907D01*
X005996Y006773D01*
X005923Y006598D01*
X005923Y006521D01*
X006678Y006521D01*
X006678Y006485D01*
X005923Y006485D01*
X005923Y006408D01*
X005996Y006233D01*
X006130Y006099D01*
X006305Y006026D01*
X006679Y006026D01*
X006679Y006484D01*
X006716Y006484D02*
X006716Y006026D01*
X007089Y006026D01*
X007264Y006099D01*
X007398Y006233D01*
X007471Y006408D01*
X007471Y006485D01*
X006716Y006485D01*
X006716Y006418D02*
X006679Y006418D01*
X006679Y006576D02*
X006716Y006576D01*
X006716Y006735D02*
X006679Y006735D01*
X006679Y006893D02*
X006716Y006893D01*
X007278Y006893D02*
X009745Y006893D01*
X009745Y006747D02*
X009821Y006565D01*
X009961Y006425D01*
X010143Y006349D01*
X010341Y006349D01*
X010523Y006425D01*
X010663Y006565D01*
X010739Y006747D01*
X010739Y007539D01*
X010663Y007721D01*
X010523Y007861D01*
X010341Y007937D01*
X010143Y007937D01*
X009961Y007861D01*
X009821Y007721D01*
X009745Y007539D01*
X009745Y006747D01*
X009750Y006735D02*
X007414Y006735D01*
X007471Y006576D02*
X009816Y006576D01*
X009978Y006418D02*
X009492Y006418D01*
X009465Y006445D02*
X009744Y006166D01*
X009744Y005770D01*
X009465Y005491D01*
X009069Y005491D01*
X008790Y005770D01*
X008790Y006166D01*
X009069Y006445D01*
X009465Y006445D01*
X009651Y006259D02*
X012883Y006259D01*
X012790Y006166D02*
X013069Y006445D01*
X013465Y006445D01*
X013744Y006166D01*
X013744Y005770D01*
X013465Y005491D01*
X013069Y005491D01*
X012790Y005770D01*
X012790Y006166D01*
X012790Y006101D02*
X009744Y006101D01*
X009744Y005942D02*
X012790Y005942D01*
X012790Y005784D02*
X009744Y005784D01*
X009599Y005625D02*
X012935Y005625D01*
X013599Y005625D02*
X033901Y005625D01*
X033941Y005721D02*
X033852Y005506D01*
X033852Y005375D01*
X033323Y005375D01*
X033109Y005286D01*
X032945Y005121D01*
X032856Y004907D01*
X032856Y004675D01*
X032945Y004460D01*
X033109Y004296D01*
X033323Y004207D01*
X034323Y004207D01*
X034499Y004280D01*
X034499Y004261D01*
X034588Y004047D01*
X034752Y003882D01*
X034967Y003793D01*
X035967Y003793D01*
X036182Y003882D01*
X036346Y004047D01*
X036435Y004261D01*
X036435Y004493D01*
X036346Y004708D01*
X036182Y004872D01*
X035967Y004961D01*
X035600Y004961D01*
X035698Y005059D01*
X035787Y005274D01*
X035787Y005506D01*
X035698Y005721D01*
X035534Y005885D01*
X035320Y005974D01*
X034320Y005974D01*
X034105Y005885D01*
X033941Y005721D01*
X034004Y005784D02*
X023610Y005784D01*
X023562Y005764D02*
X023737Y005836D01*
X023872Y005971D01*
X023944Y006146D01*
X023944Y006890D01*
X023872Y007066D01*
X023737Y007200D01*
X023562Y007272D01*
X023372Y007272D01*
X023197Y007200D01*
X023063Y007066D01*
X022990Y006890D01*
X022990Y006146D01*
X023063Y005971D01*
X023197Y005836D01*
X023372Y005764D01*
X023562Y005764D01*
X023324Y005784D02*
X022610Y005784D01*
X022562Y005764D02*
X022737Y005836D01*
X022872Y005971D01*
X022944Y006146D01*
X022944Y006890D01*
X022872Y007066D01*
X022737Y007200D01*
X022562Y007272D01*
X022372Y007272D01*
X022197Y007200D01*
X022063Y007066D01*
X021990Y006890D01*
X021990Y006146D01*
X022063Y005971D01*
X022197Y005836D01*
X022372Y005764D01*
X022562Y005764D01*
X022324Y005784D02*
X021610Y005784D01*
X021562Y005764D02*
X021737Y005836D01*
X021872Y005971D01*
X021944Y006146D01*
X021944Y006890D01*
X021872Y007066D01*
X021737Y007200D01*
X021562Y007272D01*
X021372Y007272D01*
X021197Y007200D01*
X021063Y007066D01*
X020990Y006890D01*
X020990Y006146D01*
X021063Y005971D01*
X021197Y005836D01*
X021372Y005764D01*
X021562Y005764D01*
X021324Y005784D02*
X020610Y005784D01*
X020562Y005764D02*
X020737Y005836D01*
X020872Y005971D01*
X020944Y006146D01*
X020944Y006890D01*
X020872Y007066D01*
X020737Y007200D01*
X020562Y007272D01*
X020372Y007272D01*
X020197Y007200D01*
X020063Y007066D01*
X019990Y006890D01*
X019990Y006146D01*
X020063Y005971D01*
X020197Y005836D01*
X020372Y005764D01*
X020562Y005764D01*
X020324Y005784D02*
X019610Y005784D01*
X019562Y005764D02*
X019737Y005836D01*
X019872Y005971D01*
X019944Y006146D01*
X019944Y006890D01*
X019872Y007066D01*
X019737Y007200D01*
X019562Y007272D01*
X019372Y007272D01*
X019197Y007200D01*
X019063Y007066D01*
X018990Y006890D01*
X018990Y006146D01*
X019063Y005971D01*
X019197Y005836D01*
X019372Y005764D01*
X019562Y005764D01*
X019324Y005784D02*
X018610Y005784D01*
X018562Y005764D02*
X018737Y005836D01*
X018872Y005971D01*
X018944Y006146D01*
X018944Y006890D01*
X018872Y007066D01*
X018737Y007200D01*
X018562Y007272D01*
X018372Y007272D01*
X018197Y007200D01*
X018063Y007066D01*
X017990Y006890D01*
X017990Y006146D01*
X018063Y005971D01*
X018197Y005836D01*
X018372Y005764D01*
X018562Y005764D01*
X018324Y005784D02*
X017610Y005784D01*
X017562Y005764D02*
X017737Y005836D01*
X017872Y005971D01*
X017944Y006146D01*
X017944Y006890D01*
X017872Y007066D01*
X017737Y007200D01*
X017562Y007272D01*
X017372Y007272D01*
X017197Y007200D01*
X017063Y007066D01*
X016990Y006890D01*
X016990Y006146D01*
X017063Y005971D01*
X017197Y005836D01*
X017372Y005764D01*
X017562Y005764D01*
X017324Y005784D02*
X016610Y005784D01*
X016562Y005764D02*
X016737Y005836D01*
X016872Y005971D01*
X016944Y006146D01*
X016944Y006890D01*
X016872Y007066D01*
X016737Y007200D01*
X016562Y007272D01*
X016372Y007272D01*
X016197Y007200D01*
X016063Y007066D01*
X015990Y006890D01*
X015990Y006146D01*
X016063Y005971D01*
X016197Y005836D01*
X016372Y005764D01*
X016562Y005764D01*
X016324Y005784D02*
X015610Y005784D01*
X015562Y005764D02*
X015737Y005836D01*
X015872Y005971D01*
X015944Y006146D01*
X015944Y006890D01*
X015872Y007066D01*
X015737Y007200D01*
X015562Y007272D01*
X015372Y007272D01*
X015197Y007200D01*
X015063Y007066D01*
X014990Y006890D01*
X014990Y006146D01*
X015063Y005971D01*
X015197Y005836D01*
X015372Y005764D01*
X015562Y005764D01*
X015324Y005784D02*
X013744Y005784D01*
X013744Y005942D02*
X015091Y005942D01*
X015009Y006101D02*
X014599Y006101D01*
X014527Y006029D02*
X014806Y006308D01*
X014806Y006487D01*
X014348Y006487D01*
X014348Y006029D01*
X014527Y006029D01*
X014348Y006101D02*
X014311Y006101D01*
X014311Y006029D02*
X014311Y006487D01*
X013853Y006487D01*
X013853Y006308D01*
X014132Y006029D01*
X014311Y006029D01*
X014311Y006259D02*
X014348Y006259D01*
X014348Y006418D02*
X014311Y006418D01*
X014311Y006487D02*
X014348Y006487D01*
X014348Y006524D01*
X014311Y006524D01*
X014311Y006487D01*
X014311Y006524D02*
X013853Y006524D01*
X013853Y006703D01*
X014132Y006982D01*
X014311Y006982D01*
X014311Y006524D01*
X014348Y006524D02*
X014348Y006982D01*
X014527Y006982D01*
X014806Y006703D01*
X014806Y006524D01*
X014348Y006524D01*
X014348Y006576D02*
X014311Y006576D01*
X014311Y006735D02*
X014348Y006735D01*
X014348Y006893D02*
X014311Y006893D01*
X014043Y006893D02*
X012739Y006893D01*
X012739Y006747D02*
X012663Y006565D01*
X012523Y006425D01*
X012341Y006349D01*
X012143Y006349D01*
X011961Y006425D01*
X011821Y006565D01*
X011745Y006747D01*
X011745Y007539D01*
X011821Y007721D01*
X011961Y007861D01*
X012143Y007937D01*
X012341Y007937D01*
X012523Y007861D01*
X012663Y007721D01*
X012739Y007539D01*
X012739Y006747D01*
X012734Y006735D02*
X013884Y006735D01*
X013853Y006576D02*
X012668Y006576D01*
X012506Y006418D02*
X013042Y006418D01*
X013492Y006418D02*
X013853Y006418D01*
X013902Y006259D02*
X013651Y006259D01*
X013744Y006101D02*
X014060Y006101D01*
X014757Y006259D02*
X014990Y006259D01*
X014990Y006418D02*
X014806Y006418D01*
X014806Y006576D02*
X014990Y006576D01*
X014990Y006735D02*
X014775Y006735D01*
X014616Y006893D02*
X014991Y006893D01*
X015057Y007052D02*
X012739Y007052D01*
X012739Y007210D02*
X015223Y007210D01*
X015712Y007210D02*
X016223Y007210D01*
X016057Y007052D02*
X015877Y007052D01*
X015943Y006893D02*
X015991Y006893D01*
X015990Y006735D02*
X015944Y006735D01*
X015944Y006576D02*
X015990Y006576D01*
X015990Y006418D02*
X015944Y006418D01*
X015944Y006259D02*
X015990Y006259D01*
X016009Y006101D02*
X015925Y006101D01*
X015843Y005942D02*
X016091Y005942D01*
X016843Y005942D02*
X017091Y005942D01*
X017009Y006101D02*
X016925Y006101D01*
X016944Y006259D02*
X016990Y006259D01*
X016990Y006418D02*
X016944Y006418D01*
X016944Y006576D02*
X016990Y006576D01*
X016990Y006735D02*
X016944Y006735D01*
X016943Y006893D02*
X016991Y006893D01*
X017057Y007052D02*
X016877Y007052D01*
X016712Y007210D02*
X017223Y007210D01*
X017712Y007210D02*
X018223Y007210D01*
X018057Y007052D02*
X017877Y007052D01*
X017943Y006893D02*
X017991Y006893D01*
X017990Y006735D02*
X017944Y006735D01*
X017944Y006576D02*
X017990Y006576D01*
X017990Y006418D02*
X017944Y006418D01*
X017944Y006259D02*
X017990Y006259D01*
X018009Y006101D02*
X017925Y006101D01*
X017843Y005942D02*
X018091Y005942D01*
X018843Y005942D02*
X019091Y005942D01*
X019009Y006101D02*
X018925Y006101D01*
X018944Y006259D02*
X018990Y006259D01*
X018990Y006418D02*
X018944Y006418D01*
X018944Y006576D02*
X018990Y006576D01*
X018990Y006735D02*
X018944Y006735D01*
X018943Y006893D02*
X018991Y006893D01*
X019057Y007052D02*
X018877Y007052D01*
X018712Y007210D02*
X019223Y007210D01*
X019712Y007210D02*
X020223Y007210D01*
X020057Y007052D02*
X019877Y007052D01*
X019943Y006893D02*
X019991Y006893D01*
X019990Y006735D02*
X019944Y006735D01*
X019944Y006576D02*
X019990Y006576D01*
X019990Y006418D02*
X019944Y006418D01*
X019944Y006259D02*
X019990Y006259D01*
X020009Y006101D02*
X019925Y006101D01*
X019843Y005942D02*
X020091Y005942D01*
X020843Y005942D02*
X021091Y005942D01*
X021009Y006101D02*
X020925Y006101D01*
X020944Y006259D02*
X020990Y006259D01*
X020990Y006418D02*
X020944Y006418D01*
X020944Y006576D02*
X020990Y006576D01*
X020990Y006735D02*
X020944Y006735D01*
X020943Y006893D02*
X020991Y006893D01*
X021057Y007052D02*
X020877Y007052D01*
X020712Y007210D02*
X021223Y007210D01*
X021712Y007210D02*
X022223Y007210D01*
X022057Y007052D02*
X021877Y007052D01*
X021943Y006893D02*
X021991Y006893D01*
X021990Y006735D02*
X021944Y006735D01*
X021944Y006576D02*
X021990Y006576D01*
X021990Y006418D02*
X021944Y006418D01*
X021944Y006259D02*
X021990Y006259D01*
X022009Y006101D02*
X021925Y006101D01*
X021843Y005942D02*
X022091Y005942D01*
X022843Y005942D02*
X023091Y005942D01*
X023009Y006101D02*
X022925Y006101D01*
X022944Y006259D02*
X022990Y006259D01*
X022990Y006418D02*
X022944Y006418D01*
X022944Y006576D02*
X022990Y006576D01*
X022990Y006735D02*
X022944Y006735D01*
X022943Y006893D02*
X022991Y006893D01*
X023057Y007052D02*
X022877Y007052D01*
X022712Y007210D02*
X023223Y007210D01*
X023712Y007210D02*
X024275Y007210D01*
X024208Y007183D02*
X024080Y007054D01*
X024010Y006886D01*
X024010Y006527D01*
X024458Y006527D01*
X024458Y006509D01*
X024010Y006509D01*
X024010Y006150D01*
X024080Y005982D01*
X024208Y005853D01*
X024376Y005784D01*
X024458Y005784D01*
X024458Y006509D01*
X024476Y006509D01*
X024476Y005784D01*
X024558Y005784D01*
X024726Y005853D01*
X024855Y005982D01*
X024924Y006150D01*
X024924Y006509D01*
X024476Y006509D01*
X024476Y006527D01*
X024458Y006527D01*
X024458Y007252D01*
X024376Y007252D01*
X024208Y007183D01*
X024079Y007052D02*
X023877Y007052D01*
X023943Y006893D02*
X024013Y006893D01*
X024010Y006735D02*
X023944Y006735D01*
X023944Y006576D02*
X024010Y006576D01*
X024010Y006418D02*
X023944Y006418D01*
X023944Y006259D02*
X024010Y006259D01*
X024030Y006101D02*
X023925Y006101D01*
X023843Y005942D02*
X024119Y005942D01*
X024217Y005643D02*
X024467Y005893D01*
X024467Y006518D01*
X024476Y006527D02*
X024924Y006527D01*
X024924Y006886D01*
X024855Y007054D01*
X024726Y007183D01*
X024558Y007252D01*
X024476Y007252D01*
X024476Y006527D01*
X024476Y006576D02*
X024458Y006576D01*
X024458Y006418D02*
X024476Y006418D01*
X024476Y006259D02*
X024458Y006259D01*
X024458Y006101D02*
X024476Y006101D01*
X024476Y005942D02*
X024458Y005942D01*
X024815Y005942D02*
X034243Y005942D01*
X033852Y005466D02*
X005634Y005466D01*
X005687Y005489D02*
X005822Y005623D01*
X005894Y005798D01*
X005894Y005988D01*
X005822Y006163D01*
X005687Y006298D01*
X005512Y006370D01*
X005322Y006370D01*
X005147Y006298D01*
X005013Y006163D01*
X004940Y005988D01*
X004940Y005798D01*
X005013Y005623D01*
X005147Y005489D01*
X005322Y005416D01*
X005512Y005416D01*
X005687Y005489D01*
X005615Y005370D02*
X005219Y005370D01*
X004940Y005091D01*
X004940Y004695D01*
X005219Y004416D01*
X005615Y004416D01*
X005894Y004695D01*
X005894Y005091D01*
X005615Y005370D01*
X005677Y005308D02*
X033163Y005308D01*
X032973Y005149D02*
X031801Y005149D01*
X031677Y005274D02*
X031258Y005274D01*
X031152Y005168D01*
X031012Y005168D01*
X030865Y005107D01*
X030842Y005084D01*
X030819Y005107D01*
X030672Y005168D01*
X030532Y005168D01*
X030427Y005274D01*
X030008Y005274D01*
X029711Y004978D01*
X029711Y004559D01*
X030008Y004262D01*
X030302Y004262D01*
X030302Y003727D01*
X030419Y003610D01*
X031265Y003610D01*
X031383Y003727D01*
X031383Y004262D01*
X031677Y004262D01*
X031973Y004559D01*
X031973Y004978D01*
X031677Y005274D01*
X031959Y004991D02*
X032890Y004991D01*
X032856Y004832D02*
X031973Y004832D01*
X031973Y004674D02*
X032856Y004674D01*
X032922Y004515D02*
X031929Y004515D01*
X031771Y004357D02*
X033048Y004357D01*
X033958Y003446D02*
X034116Y003604D01*
X034324Y003690D01*
X034772Y003690D01*
X034772Y003174D01*
X034868Y003174D01*
X035767Y003174D01*
X035767Y003238D01*
X035681Y003446D01*
X035523Y003604D01*
X035316Y003690D01*
X034868Y003690D01*
X034868Y003174D01*
X034868Y003078D01*
X035767Y003078D01*
X035767Y003014D01*
X035750Y002973D01*
X035963Y002973D01*
X036170Y002887D01*
X036329Y002728D01*
X036415Y002521D01*
X036415Y002457D01*
X035515Y002457D01*
X035515Y002361D01*
X036415Y002361D01*
X036415Y002297D01*
X036329Y002089D01*
X036170Y001931D01*
X035963Y001845D01*
X035515Y001845D01*
X035515Y002361D01*
X035419Y002361D01*
X035419Y001845D01*
X034971Y001845D01*
X034764Y001931D01*
X034605Y002089D01*
X034519Y002297D01*
X034519Y002341D01*
X034319Y002258D01*
X033871Y002258D01*
X033871Y002774D01*
X033775Y002774D01*
X032876Y002774D01*
X032876Y002710D01*
X032961Y002503D01*
X033120Y002344D01*
X033327Y002258D01*
X033775Y002258D01*
X033775Y002774D01*
X033775Y002870D01*
X032876Y002870D01*
X032876Y002934D01*
X032961Y003142D01*
X033120Y003300D01*
X033327Y003386D01*
X033775Y003386D01*
X033775Y002870D01*
X033871Y002870D01*
X033871Y003386D01*
X033933Y003386D01*
X033958Y003446D01*
X033941Y003405D02*
X025154Y003405D01*
X025194Y003446D02*
X025194Y003625D01*
X024736Y003625D01*
X024736Y003661D01*
X025194Y003661D01*
X025194Y003841D01*
X024915Y004120D01*
X024736Y004120D01*
X024736Y003662D01*
X024699Y003662D01*
X024699Y004120D01*
X024520Y004120D01*
X024240Y003841D01*
X024240Y003661D01*
X024698Y003661D01*
X024698Y003625D01*
X024240Y003625D01*
X024240Y003446D01*
X024520Y003166D01*
X024699Y003166D01*
X024699Y003624D01*
X024736Y003624D01*
X024736Y003166D01*
X024915Y003166D01*
X025194Y003446D01*
X025194Y003564D02*
X034076Y003564D01*
X033871Y003247D02*
X033775Y003247D01*
X033775Y003088D02*
X033871Y003088D01*
X033871Y002930D02*
X033775Y002930D01*
X033775Y002771D02*
X033871Y002771D01*
X033871Y002613D02*
X033775Y002613D01*
X033775Y002454D02*
X033871Y002454D01*
X033871Y002296D02*
X033775Y002296D01*
X033237Y002296D02*
X020840Y002296D01*
X020999Y002137D02*
X034585Y002137D01*
X034520Y002296D02*
X034409Y002296D01*
X034716Y001979D02*
X021078Y001979D01*
X021143Y001820D02*
X036967Y001820D01*
X036967Y001979D02*
X036218Y001979D01*
X036349Y002137D02*
X036967Y002137D01*
X036967Y002296D02*
X036414Y002296D01*
X036377Y002613D02*
X036967Y002613D01*
X036967Y002771D02*
X036286Y002771D01*
X036067Y002930D02*
X036967Y002930D01*
X036967Y003088D02*
X034868Y003088D01*
X034868Y003247D02*
X034772Y003247D01*
X034772Y003405D02*
X034868Y003405D01*
X034868Y003564D02*
X034772Y003564D01*
X034756Y003881D02*
X031383Y003881D01*
X031378Y003722D02*
X036967Y003722D01*
X036967Y003564D02*
X035563Y003564D01*
X035698Y003405D02*
X036967Y003405D01*
X036967Y003247D02*
X035764Y003247D01*
X036178Y003881D02*
X036967Y003881D01*
X036967Y004040D02*
X036339Y004040D01*
X036409Y004198D02*
X036967Y004198D01*
X036967Y004357D02*
X036435Y004357D01*
X036426Y004515D02*
X036967Y004515D01*
X036967Y004674D02*
X036360Y004674D01*
X036222Y004832D02*
X036967Y004832D01*
X036967Y004991D02*
X035630Y004991D01*
X035736Y005149D02*
X036967Y005149D01*
X036967Y005308D02*
X035787Y005308D01*
X035787Y005466D02*
X036967Y005466D01*
X036967Y005625D02*
X035738Y005625D01*
X035635Y005784D02*
X036967Y005784D01*
X036967Y005942D02*
X035396Y005942D01*
X034525Y004198D02*
X031383Y004198D01*
X031383Y004040D02*
X034595Y004040D01*
X033067Y003247D02*
X031368Y003247D01*
X031368Y003088D02*
X032939Y003088D01*
X032876Y002930D02*
X030928Y002930D01*
X030927Y003088D02*
X030768Y003088D01*
X030767Y002930D02*
X012869Y002930D01*
X012801Y002862D02*
X012998Y003059D01*
X013105Y003316D01*
X013105Y003595D01*
X012998Y003852D01*
X012801Y004049D01*
X012544Y004156D01*
X012265Y004156D01*
X012008Y004049D01*
X011811Y003852D01*
X011705Y003595D01*
X011705Y003316D01*
X011811Y003059D01*
X012008Y002862D01*
X012265Y002756D01*
X012544Y002756D01*
X012801Y002862D01*
X012581Y002771D02*
X030327Y002771D01*
X030327Y003088D02*
X013010Y003088D01*
X013076Y003247D02*
X015411Y003247D01*
X015511Y003146D02*
X015220Y003437D01*
X015220Y003849D01*
X015511Y004140D01*
X015923Y004140D01*
X016214Y003849D01*
X016214Y003437D01*
X015923Y003146D01*
X015511Y003146D01*
X015252Y003405D02*
X013105Y003405D01*
X013105Y003564D02*
X015220Y003564D01*
X015220Y003722D02*
X013052Y003722D01*
X012969Y003881D02*
X015252Y003881D01*
X015411Y004040D02*
X012810Y004040D01*
X011999Y004040D02*
X010782Y004040D01*
X010686Y004136D02*
X010433Y004136D01*
X010433Y003484D01*
X011085Y003484D01*
X011085Y003737D01*
X010686Y004136D01*
X010433Y004040D02*
X010376Y004040D01*
X010376Y004136D02*
X010123Y004136D01*
X009725Y003737D01*
X009725Y003484D01*
X010376Y003484D01*
X010376Y003427D01*
X010433Y003427D01*
X010433Y002776D01*
X010686Y002776D01*
X011085Y003174D01*
X011085Y003427D01*
X010433Y003427D01*
X010433Y003484D01*
X010376Y003484D01*
X010376Y004136D01*
X010376Y003881D02*
X010433Y003881D01*
X010433Y003722D02*
X010376Y003722D01*
X010376Y003564D02*
X010433Y003564D01*
X010376Y003427D02*
X009725Y003427D01*
X009725Y003174D01*
X010123Y002776D01*
X010376Y002776D01*
X010376Y003427D01*
X010376Y003405D02*
X010433Y003405D01*
X010433Y003247D02*
X010376Y003247D01*
X010376Y003088D02*
X010433Y003088D01*
X010433Y002930D02*
X010376Y002930D01*
X009969Y002930D02*
X007719Y002930D01*
X007652Y002863D02*
X007816Y003027D01*
X007905Y003241D01*
X007905Y003340D01*
X007910Y003329D01*
X008066Y003173D01*
X008269Y003089D01*
X008490Y003089D01*
X008694Y003173D01*
X008849Y003329D01*
X008934Y003533D01*
X008934Y003753D01*
X008849Y003957D01*
X008694Y004113D01*
X008490Y004197D01*
X008269Y004197D01*
X008066Y004113D01*
X007910Y003957D01*
X007825Y003753D01*
X007825Y003667D01*
X007816Y003688D01*
X007652Y003853D01*
X007438Y003941D01*
X006438Y003941D01*
X006223Y003853D01*
X006187Y003817D01*
X006132Y003872D01*
X005917Y003961D01*
X004917Y003961D01*
X004702Y003872D01*
X004538Y003708D01*
X004449Y003493D01*
X004449Y003261D01*
X004538Y003047D01*
X004702Y002882D01*
X004917Y002793D01*
X005917Y002793D01*
X006132Y002882D01*
X006167Y002918D01*
X006223Y002863D01*
X006438Y002774D01*
X007438Y002774D01*
X007652Y002863D01*
X007842Y003088D02*
X009810Y003088D01*
X009725Y003247D02*
X008767Y003247D01*
X008881Y003405D02*
X009725Y003405D01*
X009725Y003564D02*
X008934Y003564D01*
X008934Y003722D02*
X009725Y003722D01*
X009868Y003881D02*
X008881Y003881D01*
X008767Y004040D02*
X010027Y004040D01*
X010941Y003881D02*
X011840Y003881D01*
X011757Y003722D02*
X011085Y003722D01*
X011085Y003564D02*
X011705Y003564D01*
X011705Y003405D02*
X011085Y003405D01*
X011085Y003247D02*
X011733Y003247D01*
X011799Y003088D02*
X010999Y003088D01*
X010840Y002930D02*
X011940Y002930D01*
X012228Y002771D02*
X003562Y002771D01*
X003562Y002930D02*
X004655Y002930D01*
X004521Y003088D02*
X003562Y003088D01*
X003562Y003247D02*
X004455Y003247D01*
X004449Y003405D02*
X003562Y003405D01*
X003562Y003564D02*
X004479Y003564D01*
X004553Y003722D02*
X003562Y003722D01*
X003562Y003881D02*
X004724Y003881D01*
X005120Y004515D02*
X003562Y004515D01*
X003562Y004357D02*
X015301Y004357D01*
X015220Y004437D02*
X015511Y004146D01*
X015923Y004146D01*
X016214Y004437D01*
X016214Y004849D01*
X015923Y005140D01*
X015511Y005140D01*
X015220Y004849D01*
X015220Y004437D01*
X015220Y004515D02*
X005714Y004515D01*
X005873Y004674D02*
X015220Y004674D01*
X015220Y004832D02*
X005894Y004832D01*
X005894Y004991D02*
X015362Y004991D01*
X016072Y004991D02*
X016362Y004991D01*
X016220Y004849D02*
X016511Y005140D01*
X016923Y005140D01*
X017214Y004849D01*
X017214Y004437D01*
X016923Y004146D01*
X016511Y004146D01*
X016220Y004437D01*
X016220Y004849D01*
X016220Y004832D02*
X016214Y004832D01*
X016214Y004674D02*
X016220Y004674D01*
X016214Y004515D02*
X016220Y004515D01*
X016301Y004357D02*
X016133Y004357D01*
X015975Y004198D02*
X016459Y004198D01*
X016511Y004140D02*
X016220Y003849D01*
X016220Y003437D01*
X016511Y003146D01*
X016923Y003146D01*
X017214Y003437D01*
X017214Y003849D01*
X016923Y004140D01*
X016511Y004140D01*
X016411Y004040D02*
X016023Y004040D01*
X016182Y003881D02*
X016252Y003881D01*
X016220Y003722D02*
X016214Y003722D01*
X016214Y003564D02*
X016220Y003564D01*
X016252Y003405D02*
X016182Y003405D01*
X016023Y003247D02*
X016411Y003247D01*
X017023Y003247D02*
X017411Y003247D01*
X017511Y003146D02*
X017220Y003437D01*
X017220Y003849D01*
X017511Y004140D01*
X017923Y004140D01*
X018214Y003849D01*
X018214Y003437D01*
X017923Y003146D01*
X017511Y003146D01*
X017252Y003405D02*
X017182Y003405D01*
X017214Y003564D02*
X017220Y003564D01*
X017214Y003722D02*
X017220Y003722D01*
X017252Y003881D02*
X017182Y003881D01*
X017023Y004040D02*
X017411Y004040D01*
X017511Y004146D02*
X017220Y004437D01*
X017220Y004849D01*
X017511Y005140D01*
X017923Y005140D01*
X018214Y004849D01*
X018214Y004437D01*
X017923Y004146D01*
X017511Y004146D01*
X017459Y004198D02*
X016975Y004198D01*
X017133Y004357D02*
X017301Y004357D01*
X017220Y004515D02*
X017214Y004515D01*
X017214Y004674D02*
X017220Y004674D01*
X017214Y004832D02*
X017220Y004832D01*
X017362Y004991D02*
X017072Y004991D01*
X018072Y004991D02*
X018362Y004991D01*
X018220Y004849D02*
X018220Y004437D01*
X018511Y004146D01*
X018923Y004146D01*
X019214Y004437D01*
X019214Y004849D01*
X018923Y005140D01*
X018511Y005140D01*
X018220Y004849D01*
X018220Y004832D02*
X018214Y004832D01*
X018214Y004674D02*
X018220Y004674D01*
X018214Y004515D02*
X018220Y004515D01*
X018301Y004357D02*
X018133Y004357D01*
X017975Y004198D02*
X018459Y004198D01*
X018511Y004140D02*
X018220Y003849D01*
X018220Y003437D01*
X018511Y003146D01*
X018923Y003146D01*
X019214Y003437D01*
X019214Y003849D01*
X018923Y004140D01*
X018511Y004140D01*
X018411Y004040D02*
X018023Y004040D01*
X018182Y003881D02*
X018252Y003881D01*
X018220Y003722D02*
X018214Y003722D01*
X018214Y003564D02*
X018220Y003564D01*
X018252Y003405D02*
X018182Y003405D01*
X018023Y003247D02*
X018411Y003247D01*
X019023Y003247D02*
X019411Y003247D01*
X019511Y003146D02*
X019923Y003146D01*
X020214Y003437D01*
X020214Y003849D01*
X019923Y004140D01*
X019511Y004140D01*
X019220Y003849D01*
X019220Y003437D01*
X019511Y003146D01*
X019252Y003405D02*
X019182Y003405D01*
X019214Y003564D02*
X019220Y003564D01*
X019214Y003722D02*
X019220Y003722D01*
X019252Y003881D02*
X019182Y003881D01*
X019023Y004040D02*
X019411Y004040D01*
X019511Y004146D02*
X019923Y004146D01*
X020214Y004437D01*
X020214Y004849D01*
X019923Y005140D01*
X019511Y005140D01*
X019220Y004849D01*
X019220Y004437D01*
X019511Y004146D01*
X019459Y004198D02*
X018975Y004198D01*
X019133Y004357D02*
X019301Y004357D01*
X019220Y004515D02*
X019214Y004515D01*
X019214Y004674D02*
X019220Y004674D01*
X019214Y004832D02*
X019220Y004832D01*
X019362Y004991D02*
X019072Y004991D01*
X020072Y004991D02*
X020362Y004991D01*
X020220Y004849D02*
X020220Y004437D01*
X020511Y004146D01*
X020923Y004146D01*
X021214Y004437D01*
X021214Y004849D01*
X020923Y005140D01*
X020511Y005140D01*
X020220Y004849D01*
X020220Y004832D02*
X020214Y004832D01*
X020214Y004674D02*
X020220Y004674D01*
X020214Y004515D02*
X020220Y004515D01*
X020301Y004357D02*
X020133Y004357D01*
X019975Y004198D02*
X020459Y004198D01*
X020511Y004140D02*
X020220Y003849D01*
X020220Y003437D01*
X020511Y003146D01*
X020923Y003146D01*
X021214Y003437D01*
X021214Y003849D01*
X020923Y004140D01*
X020511Y004140D01*
X020411Y004040D02*
X020023Y004040D01*
X020182Y003881D02*
X020252Y003881D01*
X020220Y003722D02*
X020214Y003722D01*
X020214Y003564D02*
X020220Y003564D01*
X020252Y003405D02*
X020182Y003405D01*
X020023Y003247D02*
X020411Y003247D01*
X021023Y003247D02*
X021411Y003247D01*
X021511Y003146D02*
X021220Y003437D01*
X021220Y003849D01*
X021511Y004140D01*
X021923Y004140D01*
X022214Y003849D01*
X022214Y003437D01*
X021923Y003146D01*
X021511Y003146D01*
X021252Y003405D02*
X021182Y003405D01*
X021214Y003564D02*
X021220Y003564D01*
X021214Y003722D02*
X021220Y003722D01*
X021252Y003881D02*
X021182Y003881D01*
X021023Y004040D02*
X021411Y004040D01*
X021511Y004146D02*
X021923Y004146D01*
X022214Y004437D01*
X022214Y004849D01*
X021923Y005140D01*
X021511Y005140D01*
X021220Y004849D01*
X021220Y004437D01*
X021511Y004146D01*
X021459Y004198D02*
X020975Y004198D01*
X021133Y004357D02*
X021301Y004357D01*
X021220Y004515D02*
X021214Y004515D01*
X021214Y004674D02*
X021220Y004674D01*
X021214Y004832D02*
X021220Y004832D01*
X021362Y004991D02*
X021072Y004991D01*
X022072Y004991D02*
X022362Y004991D01*
X022220Y004849D02*
X022220Y004437D01*
X022511Y004146D01*
X022923Y004146D01*
X023214Y004437D01*
X023214Y004849D01*
X022923Y005140D01*
X022511Y005140D01*
X022220Y004849D01*
X022220Y004832D02*
X022214Y004832D01*
X022214Y004674D02*
X022220Y004674D01*
X022214Y004515D02*
X022220Y004515D01*
X022301Y004357D02*
X022133Y004357D01*
X021975Y004198D02*
X022459Y004198D01*
X022511Y004140D02*
X022220Y003849D01*
X022220Y003437D01*
X022511Y003146D01*
X022923Y003146D01*
X023214Y003437D01*
X023214Y003849D01*
X022923Y004140D01*
X022511Y004140D01*
X022411Y004040D02*
X022023Y004040D01*
X022182Y003881D02*
X022252Y003881D01*
X022220Y003722D02*
X022214Y003722D01*
X022214Y003564D02*
X022220Y003564D01*
X022252Y003405D02*
X022182Y003405D01*
X022023Y003247D02*
X022411Y003247D01*
X023023Y003247D02*
X023411Y003247D01*
X023511Y003146D02*
X023923Y003146D01*
X024214Y003437D01*
X024214Y003849D01*
X023923Y004140D01*
X023511Y004140D01*
X023220Y003849D01*
X023220Y003437D01*
X023511Y003146D01*
X023252Y003405D02*
X023182Y003405D01*
X023214Y003564D02*
X023220Y003564D01*
X023214Y003722D02*
X023220Y003722D01*
X023252Y003881D02*
X023182Y003881D01*
X023023Y004040D02*
X023411Y004040D01*
X023511Y004146D02*
X023923Y004146D01*
X024214Y004437D01*
X024214Y004849D01*
X023923Y005140D01*
X023511Y005140D01*
X023220Y004849D01*
X023220Y004437D01*
X023511Y004146D01*
X023459Y004198D02*
X022975Y004198D01*
X023133Y004357D02*
X023301Y004357D01*
X023220Y004515D02*
X023214Y004515D01*
X023214Y004674D02*
X023220Y004674D01*
X023214Y004832D02*
X023220Y004832D01*
X023362Y004991D02*
X023072Y004991D01*
X024072Y004991D02*
X024362Y004991D01*
X024220Y004849D02*
X024220Y004437D01*
X024511Y004146D01*
X024923Y004146D01*
X025214Y004437D01*
X025214Y004849D01*
X024923Y005140D01*
X024511Y005140D01*
X024220Y004849D01*
X024220Y004832D02*
X024214Y004832D01*
X024214Y004674D02*
X024220Y004674D01*
X024214Y004515D02*
X024220Y004515D01*
X024217Y004393D02*
X024217Y005643D01*
X024904Y006101D02*
X026217Y006101D01*
X026217Y006259D02*
X024924Y006259D01*
X024924Y006418D02*
X026217Y006418D01*
X026217Y006576D02*
X024924Y006576D01*
X024924Y006735D02*
X026217Y006735D01*
X026217Y006893D02*
X024921Y006893D01*
X024856Y007052D02*
X026217Y007052D01*
X026217Y007210D02*
X024659Y007210D01*
X024476Y007210D02*
X024458Y007210D01*
X024458Y007052D02*
X024476Y007052D01*
X024476Y006893D02*
X024458Y006893D01*
X024458Y006735D02*
X024476Y006735D01*
X026217Y007369D02*
X012739Y007369D01*
X012739Y007528D02*
X026217Y007528D01*
X026217Y007686D02*
X012678Y007686D01*
X012540Y007845D02*
X026217Y007845D01*
X026217Y008003D02*
X008803Y008003D01*
X008849Y007957D02*
X008694Y008113D01*
X008490Y008197D01*
X008269Y008197D01*
X008066Y008113D01*
X007910Y007957D01*
X007825Y007753D01*
X007825Y007533D01*
X007910Y007329D01*
X008066Y007173D01*
X008269Y007089D01*
X008490Y007089D01*
X008694Y007173D01*
X008849Y007329D01*
X008934Y007533D01*
X008934Y007753D01*
X008849Y007957D01*
X008896Y007845D02*
X009944Y007845D01*
X009806Y007686D02*
X008934Y007686D01*
X008932Y007528D02*
X009745Y007528D01*
X009745Y007369D02*
X008866Y007369D01*
X008731Y007210D02*
X009745Y007210D01*
X009745Y007052D02*
X003569Y007052D01*
X003571Y007210D02*
X008028Y007210D01*
X007893Y007369D02*
X003574Y007369D01*
X003576Y007528D02*
X007827Y007528D01*
X007825Y007686D02*
X003579Y007686D01*
X003581Y007845D02*
X003600Y007845D01*
X004674Y007845D02*
X006160Y007845D01*
X005978Y008003D02*
X004856Y008003D01*
X004921Y008162D02*
X005913Y008162D01*
X005903Y008320D02*
X004931Y008320D01*
X004891Y008479D02*
X005944Y008479D01*
X007234Y007845D02*
X007863Y007845D01*
X007956Y008003D02*
X007416Y008003D01*
X007481Y008162D02*
X008183Y008162D01*
X008576Y008162D02*
X013971Y008162D01*
X013833Y008300D02*
X014124Y008009D01*
X014535Y008009D01*
X014826Y008300D01*
X014826Y008711D01*
X014535Y009002D01*
X014124Y009002D01*
X013833Y008711D01*
X013833Y008300D01*
X013833Y008320D02*
X007491Y008320D01*
X007451Y008479D02*
X013833Y008479D01*
X013833Y008637D02*
X013086Y008637D01*
X013245Y008796D02*
X013917Y008796D01*
X014076Y008954D02*
X013403Y008954D01*
X013562Y009113D02*
X015004Y009113D01*
X014990Y009146D02*
X015063Y008971D01*
X015197Y008836D01*
X015372Y008764D01*
X015562Y008764D01*
X015737Y008836D01*
X015872Y008971D01*
X015944Y009146D01*
X015944Y009890D01*
X015872Y010066D01*
X015737Y010200D01*
X015640Y010240D01*
X015712Y010312D01*
X015801Y010527D01*
X015801Y010759D01*
X015712Y010974D01*
X015548Y011138D01*
X015333Y011227D01*
X015101Y011227D01*
X014886Y011138D01*
X014722Y010974D01*
X014633Y010759D01*
X014633Y010527D01*
X014722Y010312D01*
X014886Y010148D01*
X015069Y010072D01*
X015063Y010066D01*
X014990Y009890D01*
X014990Y009146D01*
X014990Y009271D02*
X013721Y009271D01*
X013879Y009430D02*
X014990Y009430D01*
X014990Y009589D02*
X014038Y009589D01*
X014155Y009747D02*
X014990Y009747D01*
X014996Y009906D02*
X014155Y009906D01*
X014155Y010064D02*
X015062Y010064D01*
X014812Y010223D02*
X014155Y010223D01*
X014155Y010381D02*
X014694Y010381D01*
X014633Y010540D02*
X014155Y010540D01*
X014155Y010698D02*
X014633Y010698D01*
X014674Y010857D02*
X014155Y010857D01*
X014155Y011015D02*
X014764Y011015D01*
X014973Y011174D02*
X014248Y011174D01*
X014407Y011333D02*
X016018Y011333D01*
X015990Y011265D02*
X016063Y011441D01*
X016197Y011575D01*
X016372Y011647D01*
X016562Y011647D01*
X016737Y011575D01*
X016872Y011441D01*
X016944Y011265D01*
X016944Y010521D01*
X016872Y010346D01*
X016737Y010211D01*
X016723Y010206D01*
X016737Y010200D01*
X016872Y010066D01*
X016944Y009890D01*
X016944Y009146D01*
X016872Y008971D01*
X016737Y008836D01*
X016562Y008764D01*
X016372Y008764D01*
X016197Y008836D01*
X016063Y008971D01*
X015990Y009146D01*
X015990Y009890D01*
X016063Y010066D01*
X016197Y010200D01*
X016211Y010206D01*
X016197Y010211D01*
X016063Y010346D01*
X015990Y010521D01*
X015990Y011265D01*
X015990Y011174D02*
X015461Y011174D01*
X015670Y011015D02*
X015990Y011015D01*
X015990Y010857D02*
X015760Y010857D01*
X015801Y010698D02*
X015990Y010698D01*
X015990Y010540D02*
X015801Y010540D01*
X015741Y010381D02*
X016048Y010381D01*
X016185Y010223D02*
X015682Y010223D01*
X015872Y010064D02*
X016062Y010064D01*
X015996Y009906D02*
X015938Y009906D01*
X015944Y009747D02*
X015990Y009747D01*
X015990Y009589D02*
X015944Y009589D01*
X015944Y009430D02*
X015990Y009430D01*
X015990Y009271D02*
X015944Y009271D01*
X015931Y009113D02*
X016004Y009113D01*
X016079Y008954D02*
X015855Y008954D01*
X015640Y008796D02*
X016295Y008796D01*
X016640Y008796D02*
X017295Y008796D01*
X017372Y008764D02*
X017562Y008764D01*
X017737Y008836D01*
X017872Y008971D01*
X017944Y009146D01*
X017944Y009890D01*
X017872Y010066D01*
X017737Y010200D01*
X017723Y010206D01*
X017737Y010211D01*
X017872Y010346D01*
X017944Y010521D01*
X017944Y011265D01*
X017872Y011441D01*
X017737Y011575D01*
X017562Y011647D01*
X017372Y011647D01*
X017197Y011575D01*
X017063Y011441D01*
X016990Y011265D01*
X016990Y010521D01*
X017063Y010346D01*
X017197Y010211D01*
X017211Y010206D01*
X017197Y010200D01*
X017063Y010066D01*
X016990Y009890D01*
X016990Y009146D01*
X017063Y008971D01*
X017197Y008836D01*
X017372Y008764D01*
X017640Y008796D02*
X018295Y008796D01*
X018372Y008764D02*
X018562Y008764D01*
X018737Y008836D01*
X018872Y008971D01*
X018944Y009146D01*
X018944Y009890D01*
X018872Y010066D01*
X018737Y010200D01*
X018723Y010206D01*
X018737Y010211D01*
X018872Y010346D01*
X018944Y010521D01*
X018944Y011265D01*
X018872Y011441D01*
X018737Y011575D01*
X018562Y011647D01*
X018372Y011647D01*
X018197Y011575D01*
X018063Y011441D01*
X017990Y011265D01*
X017990Y010521D01*
X018063Y010346D01*
X018197Y010211D01*
X018211Y010206D01*
X018197Y010200D01*
X018063Y010066D01*
X017990Y009890D01*
X017990Y009146D01*
X018063Y008971D01*
X018197Y008836D01*
X018372Y008764D01*
X018640Y008796D02*
X019295Y008796D01*
X019372Y008764D02*
X019562Y008764D01*
X019737Y008836D01*
X019872Y008971D01*
X019944Y009146D01*
X019944Y009890D01*
X019872Y010066D01*
X019737Y010200D01*
X019723Y010206D01*
X019737Y010211D01*
X019872Y010346D01*
X019944Y010521D01*
X019944Y011265D01*
X019872Y011441D01*
X019737Y011575D01*
X019562Y011647D01*
X019372Y011647D01*
X019197Y011575D01*
X019063Y011441D01*
X018990Y011265D01*
X018990Y010521D01*
X019063Y010346D01*
X019197Y010211D01*
X019211Y010206D01*
X019197Y010200D01*
X019063Y010066D01*
X018990Y009890D01*
X018990Y009146D01*
X019063Y008971D01*
X019197Y008836D01*
X019372Y008764D01*
X019640Y008796D02*
X020295Y008796D01*
X020372Y008764D02*
X020562Y008764D01*
X020737Y008836D01*
X020872Y008971D01*
X020944Y009146D01*
X020944Y009890D01*
X020872Y010066D01*
X020737Y010200D01*
X020723Y010206D01*
X020737Y010211D01*
X020872Y010346D01*
X020944Y010521D01*
X020944Y011265D01*
X020872Y011441D01*
X020737Y011575D01*
X020562Y011647D01*
X020372Y011647D01*
X020197Y011575D01*
X020063Y011441D01*
X019990Y011265D01*
X019990Y010521D01*
X020063Y010346D01*
X020197Y010211D01*
X020211Y010206D01*
X020197Y010200D01*
X020063Y010066D01*
X019990Y009890D01*
X019990Y009146D01*
X020063Y008971D01*
X020197Y008836D01*
X020372Y008764D01*
X020640Y008796D02*
X021295Y008796D01*
X021372Y008764D02*
X021562Y008764D01*
X021737Y008836D01*
X021872Y008971D01*
X021944Y009146D01*
X021944Y009890D01*
X021872Y010066D01*
X021737Y010200D01*
X021723Y010206D01*
X021737Y010211D01*
X021872Y010346D01*
X021944Y010521D01*
X021944Y011265D01*
X021872Y011441D01*
X021737Y011575D01*
X021562Y011647D01*
X021372Y011647D01*
X021197Y011575D01*
X021063Y011441D01*
X020990Y011265D01*
X020990Y010521D01*
X021063Y010346D01*
X021197Y010211D01*
X021211Y010206D01*
X021197Y010200D01*
X021063Y010066D01*
X020990Y009890D01*
X020990Y009146D01*
X021063Y008971D01*
X021197Y008836D01*
X021372Y008764D01*
X021640Y008796D02*
X022295Y008796D01*
X022372Y008764D02*
X022562Y008764D01*
X022737Y008836D01*
X022872Y008971D01*
X022944Y009146D01*
X022944Y009890D01*
X022872Y010066D01*
X022737Y010200D01*
X022723Y010206D01*
X022737Y010211D01*
X022872Y010346D01*
X022944Y010521D01*
X022944Y011265D01*
X022872Y011441D01*
X022737Y011575D01*
X022562Y011647D01*
X022372Y011647D01*
X022197Y011575D01*
X022063Y011441D01*
X021990Y011265D01*
X021990Y010521D01*
X022063Y010346D01*
X022197Y010211D01*
X022211Y010206D01*
X022197Y010200D01*
X022063Y010066D01*
X021990Y009890D01*
X021990Y009146D01*
X022063Y008971D01*
X022197Y008836D01*
X022372Y008764D01*
X022640Y008796D02*
X023295Y008796D01*
X023372Y008764D02*
X023197Y008836D01*
X023063Y008971D01*
X022990Y009146D01*
X022990Y009890D01*
X023063Y010066D01*
X023197Y010200D01*
X023211Y010206D01*
X023197Y010211D01*
X023063Y010346D01*
X022990Y010521D01*
X022990Y011265D01*
X023063Y011441D01*
X023197Y011575D01*
X023372Y011647D01*
X023562Y011647D01*
X023737Y011575D01*
X023872Y011441D01*
X023944Y011265D01*
X023944Y010521D01*
X023872Y010346D01*
X023737Y010211D01*
X023723Y010206D01*
X023737Y010200D01*
X023872Y010066D01*
X023944Y009890D01*
X023944Y009146D01*
X023872Y008971D01*
X023737Y008836D01*
X023562Y008764D01*
X023372Y008764D01*
X023640Y008796D02*
X024295Y008796D01*
X024079Y008954D02*
X023855Y008954D01*
X023931Y009113D02*
X024004Y009113D01*
X023990Y009271D02*
X023944Y009271D01*
X023944Y009430D02*
X023990Y009430D01*
X023990Y009589D02*
X023944Y009589D01*
X023944Y009747D02*
X023990Y009747D01*
X023996Y009906D02*
X023938Y009906D01*
X023872Y010064D02*
X024062Y010064D01*
X024222Y010223D02*
X023749Y010223D01*
X023886Y010381D02*
X024069Y010381D01*
X024010Y010540D02*
X023944Y010540D01*
X023944Y010698D02*
X024010Y010698D01*
X024010Y010857D02*
X023944Y010857D01*
X024010Y010902D02*
X024458Y010902D01*
X024458Y011627D01*
X024376Y011627D01*
X024208Y011558D01*
X024080Y011429D01*
X024010Y011261D01*
X024010Y010902D01*
X024010Y011015D02*
X023944Y011015D01*
X023944Y011174D02*
X024010Y011174D01*
X024040Y011333D02*
X023916Y011333D01*
X023821Y011491D02*
X024141Y011491D01*
X024458Y011491D02*
X024476Y011491D01*
X024476Y011333D02*
X024458Y011333D01*
X024458Y011174D02*
X024476Y011174D01*
X024476Y011015D02*
X024458Y011015D01*
X024592Y011650D02*
X014724Y011650D01*
X014882Y011808D02*
X024592Y011808D01*
X025135Y011808D02*
X026204Y011808D01*
X026205Y011650D02*
X025131Y011650D01*
X025127Y011491D02*
X026207Y011491D01*
X026208Y011333D02*
X025123Y011333D01*
X025119Y011174D02*
X026209Y011174D01*
X026210Y011015D02*
X025114Y011015D01*
X025110Y010857D02*
X025384Y010857D01*
X025398Y010871D02*
X025239Y010712D01*
X025153Y010505D01*
X025153Y010441D01*
X025669Y010441D01*
X025669Y010345D01*
X025153Y010345D01*
X025153Y010281D01*
X025210Y010143D01*
X025092Y010143D01*
X025155Y012581D01*
X014842Y012581D01*
X014842Y013221D01*
X014898Y013165D01*
X015105Y013079D01*
X015169Y013079D01*
X015169Y013595D01*
X015265Y013595D01*
X015265Y013079D01*
X015329Y013079D01*
X015536Y013165D01*
X015695Y013324D01*
X015781Y013531D01*
X015781Y013595D01*
X015265Y013595D01*
X015265Y013691D01*
X015781Y013691D01*
X015781Y013755D01*
X015695Y013962D01*
X015536Y014121D01*
X015509Y014132D01*
X015548Y014148D01*
X015712Y014312D01*
X015801Y014527D01*
X015801Y014759D01*
X015712Y014974D01*
X015548Y015138D01*
X015333Y015227D01*
X015101Y015227D01*
X014886Y015138D01*
X014842Y015094D01*
X014842Y017221D01*
X014898Y017165D01*
X015105Y017079D01*
X015169Y017079D01*
X015169Y017595D01*
X015265Y017595D01*
X015265Y017079D01*
X015329Y017079D01*
X015536Y017165D01*
X015695Y017324D01*
X015781Y017531D01*
X015781Y017595D01*
X015265Y017595D01*
X015265Y017691D01*
X015781Y017691D01*
X015781Y017755D01*
X015695Y017962D01*
X015536Y018121D01*
X015509Y018132D01*
X015548Y018148D01*
X015712Y018312D01*
X015801Y018527D01*
X015801Y018759D01*
X015712Y018974D01*
X015548Y019138D01*
X015333Y019227D01*
X015101Y019227D01*
X014886Y019138D01*
X014842Y019094D01*
X014842Y021221D01*
X014898Y021165D01*
X015105Y021079D01*
X015169Y021079D01*
X015169Y021595D01*
X015265Y021595D01*
X015265Y021079D01*
X015329Y021079D01*
X015536Y021165D01*
X015695Y021324D01*
X015781Y021531D01*
X015781Y021595D01*
X015265Y021595D01*
X015265Y021691D01*
X015781Y021691D01*
X015781Y021755D01*
X015695Y021962D01*
X015536Y022121D01*
X015509Y022132D01*
X015548Y022148D01*
X015712Y022312D01*
X015801Y022527D01*
X015801Y022759D01*
X015712Y022974D01*
X015548Y023138D01*
X015333Y023227D01*
X015101Y023227D01*
X014886Y023138D01*
X014842Y023094D01*
X014842Y025221D01*
X014898Y025165D01*
X015105Y025079D01*
X015169Y025079D01*
X015169Y025595D01*
X015265Y025595D01*
X015265Y025079D01*
X015329Y025079D01*
X015536Y025165D01*
X015695Y025324D01*
X015781Y025531D01*
X015781Y025595D01*
X015265Y025595D01*
X015265Y025691D01*
X015781Y025691D01*
X015781Y025755D01*
X015695Y025962D01*
X015536Y026121D01*
X015329Y026207D01*
X015265Y026207D01*
X015265Y025691D01*
X015169Y025691D01*
X015169Y026207D01*
X015105Y026207D01*
X014898Y026121D01*
X014842Y026065D01*
X014842Y026362D01*
X026092Y026362D01*
X026097Y025811D01*
X026036Y025871D01*
X025829Y025957D01*
X025765Y025957D01*
X025765Y025441D01*
X025669Y025441D01*
X025669Y025345D01*
X025765Y025345D01*
X025765Y024829D01*
X025829Y024829D01*
X026036Y024915D01*
X026103Y024982D01*
X026120Y022816D01*
X026048Y022888D01*
X025833Y022977D01*
X025601Y022977D01*
X025386Y022888D01*
X025222Y022724D01*
X025133Y022509D01*
X025133Y022277D01*
X025222Y022062D01*
X025386Y021898D01*
X025399Y021893D01*
X025386Y021888D01*
X025222Y021724D01*
X025133Y021509D01*
X025133Y021277D01*
X025222Y021062D01*
X025386Y020898D01*
X025601Y020809D01*
X025833Y020809D01*
X026048Y020898D01*
X026134Y020984D01*
X026151Y018757D01*
X026036Y018871D01*
X025829Y018957D01*
X025765Y018957D01*
X025765Y018441D01*
X025669Y018441D01*
X025669Y018345D01*
X025153Y018345D01*
X025153Y018281D01*
X025239Y018074D01*
X025398Y017915D01*
X025425Y017904D01*
X025386Y017888D01*
X025222Y017724D01*
X025133Y017509D01*
X025133Y017277D01*
X025222Y017062D01*
X025386Y016898D01*
X025601Y016809D01*
X025833Y016809D01*
X026048Y016898D01*
X026164Y017015D01*
X026182Y014726D01*
X026036Y014871D01*
X025829Y014957D01*
X025765Y014957D01*
X025765Y014441D01*
X025669Y014441D01*
X025669Y014345D01*
X025153Y014345D01*
X024890Y014345D01*
X024924Y014261D02*
X024855Y014429D01*
X024726Y014558D01*
X024558Y014627D01*
X024476Y014627D01*
X024476Y013902D01*
X024458Y013902D01*
X024458Y013884D01*
X024010Y013884D01*
X024010Y013525D01*
X024080Y013357D01*
X024208Y013228D01*
X024376Y013159D01*
X024458Y013159D01*
X024458Y013884D01*
X024476Y013884D01*
X024476Y013159D01*
X024558Y013159D01*
X024726Y013228D01*
X024855Y013357D01*
X024924Y013525D01*
X024924Y013884D01*
X024476Y013884D01*
X024476Y013902D01*
X024924Y013902D01*
X024924Y014261D01*
X024924Y014186D02*
X025192Y014186D01*
X025153Y014281D02*
X025239Y014074D01*
X025398Y013915D01*
X025425Y013904D01*
X025386Y013888D01*
X025222Y013724D01*
X025133Y013509D01*
X025133Y013277D01*
X025222Y013062D01*
X025386Y012898D01*
X025601Y012809D01*
X025833Y012809D01*
X026048Y012898D01*
X026195Y013045D01*
X026213Y010669D01*
X026195Y010712D01*
X026036Y010871D01*
X025829Y010957D01*
X025765Y010957D01*
X025765Y010441D01*
X025669Y010441D01*
X025669Y010957D01*
X025605Y010957D01*
X025398Y010871D01*
X025233Y010698D02*
X025106Y010698D01*
X025102Y010540D02*
X025168Y010540D01*
X025098Y010381D02*
X025669Y010381D01*
X025717Y010393D02*
X025717Y012018D01*
X024467Y013268D01*
X024467Y013893D01*
X024467Y014768D01*
X024842Y014768D01*
X025217Y014393D01*
X025717Y014393D01*
X025669Y014441D02*
X025153Y014441D01*
X025153Y014505D01*
X025239Y014712D01*
X025398Y014871D01*
X025605Y014957D01*
X025669Y014957D01*
X025669Y014441D01*
X025669Y014503D02*
X025765Y014503D01*
X025765Y014662D02*
X025669Y014662D01*
X025669Y014821D02*
X025765Y014821D01*
X026087Y014821D02*
X026181Y014821D01*
X026180Y014979D02*
X015707Y014979D01*
X015776Y014821D02*
X025347Y014821D01*
X025218Y014662D02*
X015801Y014662D01*
X015791Y014503D02*
X016125Y014503D01*
X016063Y014441D02*
X016197Y014575D01*
X016372Y014647D01*
X016562Y014647D01*
X016737Y014575D01*
X016872Y014441D01*
X016944Y014265D01*
X016944Y013521D01*
X016872Y013346D01*
X016737Y013211D01*
X016562Y013139D01*
X016372Y013139D01*
X016197Y013211D01*
X016063Y013346D01*
X015990Y013521D01*
X015990Y014265D01*
X016063Y014441D01*
X016023Y014345D02*
X015725Y014345D01*
X015586Y014186D02*
X015990Y014186D01*
X015990Y014028D02*
X015630Y014028D01*
X015734Y013869D02*
X015990Y013869D01*
X015990Y013711D02*
X015781Y013711D01*
X015781Y013552D02*
X015990Y013552D01*
X016043Y013394D02*
X015724Y013394D01*
X015606Y013235D02*
X016173Y013235D01*
X015842Y013018D02*
X024217Y013018D01*
X024467Y013268D01*
X024458Y013235D02*
X024476Y013235D01*
X024476Y013394D02*
X024458Y013394D01*
X024458Y013552D02*
X024476Y013552D01*
X024476Y013711D02*
X024458Y013711D01*
X024458Y013869D02*
X024476Y013869D01*
X024458Y013902D02*
X024010Y013902D01*
X024010Y014261D01*
X024080Y014429D01*
X024208Y014558D01*
X024376Y014627D01*
X024458Y014627D01*
X024458Y013902D01*
X024458Y014028D02*
X024476Y014028D01*
X024476Y014186D02*
X024458Y014186D01*
X024458Y014345D02*
X024476Y014345D01*
X024476Y014503D02*
X024458Y014503D01*
X024467Y014768D02*
X024467Y015143D01*
X017342Y015143D01*
X016342Y016143D01*
X016342Y017643D01*
X015217Y017643D01*
X015265Y017674D02*
X025202Y017674D01*
X025136Y017516D02*
X015775Y017516D01*
X015709Y017357D02*
X025133Y017357D01*
X025166Y017199D02*
X015570Y017199D01*
X015265Y017199D02*
X015169Y017199D01*
X015169Y017357D02*
X015265Y017357D01*
X015265Y017516D02*
X015169Y017516D01*
X014864Y017199D02*
X014842Y017199D01*
X014842Y017040D02*
X025244Y017040D01*
X025426Y016882D02*
X014842Y016882D01*
X014842Y016723D02*
X026166Y016723D01*
X026168Y016564D02*
X014842Y016564D01*
X014842Y016406D02*
X026169Y016406D01*
X026170Y016247D02*
X014842Y016247D01*
X014842Y016089D02*
X026171Y016089D01*
X026173Y015930D02*
X014842Y015930D01*
X014842Y015772D02*
X026174Y015772D01*
X026175Y015613D02*
X014842Y015613D01*
X014842Y015455D02*
X026176Y015455D01*
X026177Y015296D02*
X014842Y015296D01*
X014842Y015138D02*
X014886Y015138D01*
X015548Y015138D02*
X026179Y015138D01*
X025153Y014503D02*
X024780Y014503D01*
X025153Y014345D02*
X025153Y014281D01*
X025285Y014028D02*
X024924Y014028D01*
X024924Y013869D02*
X025368Y013869D01*
X025217Y013711D02*
X024924Y013711D01*
X024924Y013552D02*
X025151Y013552D01*
X025133Y013394D02*
X024870Y013394D01*
X024733Y013235D02*
X025151Y013235D01*
X025216Y013077D02*
X014842Y013077D01*
X014842Y012918D02*
X025366Y012918D01*
X026068Y012918D02*
X026196Y012918D01*
X026197Y012759D02*
X014842Y012759D01*
X014842Y012601D02*
X026198Y012601D01*
X026199Y012442D02*
X025151Y012442D01*
X025147Y012284D02*
X026201Y012284D01*
X026202Y012125D02*
X025143Y012125D01*
X025139Y011967D02*
X026203Y011967D01*
X026212Y010857D02*
X026051Y010857D01*
X026201Y010698D02*
X026213Y010698D01*
X025765Y010698D02*
X025669Y010698D01*
X025669Y010540D02*
X025765Y010540D01*
X025765Y010857D02*
X025669Y010857D01*
X025177Y010223D02*
X025094Y010223D01*
X024944Y009430D02*
X026217Y009430D01*
X026217Y009271D02*
X024944Y009271D01*
X024931Y009113D02*
X026217Y009113D01*
X026217Y008954D02*
X024855Y008954D01*
X024640Y008796D02*
X026217Y008796D01*
X026217Y008637D02*
X014826Y008637D01*
X014826Y008479D02*
X026217Y008479D01*
X026217Y008320D02*
X014826Y008320D01*
X014688Y008162D02*
X026217Y008162D01*
X023079Y008954D02*
X022855Y008954D01*
X022931Y009113D02*
X023004Y009113D01*
X022990Y009271D02*
X022944Y009271D01*
X022944Y009430D02*
X022990Y009430D01*
X022990Y009589D02*
X022944Y009589D01*
X022944Y009747D02*
X022990Y009747D01*
X022996Y009906D02*
X022938Y009906D01*
X022872Y010064D02*
X023062Y010064D01*
X023185Y010223D02*
X022749Y010223D01*
X022886Y010381D02*
X023048Y010381D01*
X022990Y010540D02*
X022944Y010540D01*
X022944Y010698D02*
X022990Y010698D01*
X022990Y010857D02*
X022944Y010857D01*
X022944Y011015D02*
X022990Y011015D01*
X022990Y011174D02*
X022944Y011174D01*
X022916Y011333D02*
X023018Y011333D01*
X023113Y011491D02*
X022821Y011491D01*
X022113Y011491D02*
X021821Y011491D01*
X021916Y011333D02*
X022018Y011333D01*
X021990Y011174D02*
X021944Y011174D01*
X021944Y011015D02*
X021990Y011015D01*
X021990Y010857D02*
X021944Y010857D01*
X021944Y010698D02*
X021990Y010698D01*
X021990Y010540D02*
X021944Y010540D01*
X021886Y010381D02*
X022048Y010381D01*
X022185Y010223D02*
X021749Y010223D01*
X021872Y010064D02*
X022062Y010064D01*
X021996Y009906D02*
X021938Y009906D01*
X021944Y009747D02*
X021990Y009747D01*
X021990Y009589D02*
X021944Y009589D01*
X021944Y009430D02*
X021990Y009430D01*
X021990Y009271D02*
X021944Y009271D01*
X021931Y009113D02*
X022004Y009113D01*
X022079Y008954D02*
X021855Y008954D01*
X021079Y008954D02*
X020855Y008954D01*
X020931Y009113D02*
X021004Y009113D01*
X020990Y009271D02*
X020944Y009271D01*
X020944Y009430D02*
X020990Y009430D01*
X020990Y009589D02*
X020944Y009589D01*
X020944Y009747D02*
X020990Y009747D01*
X020996Y009906D02*
X020938Y009906D01*
X020872Y010064D02*
X021062Y010064D01*
X021185Y010223D02*
X020749Y010223D01*
X020886Y010381D02*
X021048Y010381D01*
X020990Y010540D02*
X020944Y010540D01*
X020944Y010698D02*
X020990Y010698D01*
X020990Y010857D02*
X020944Y010857D01*
X020944Y011015D02*
X020990Y011015D01*
X020990Y011174D02*
X020944Y011174D01*
X020916Y011333D02*
X021018Y011333D01*
X021113Y011491D02*
X020821Y011491D01*
X020113Y011491D02*
X019821Y011491D01*
X019916Y011333D02*
X020018Y011333D01*
X019990Y011174D02*
X019944Y011174D01*
X019944Y011015D02*
X019990Y011015D01*
X019990Y010857D02*
X019944Y010857D01*
X019944Y010698D02*
X019990Y010698D01*
X019990Y010540D02*
X019944Y010540D01*
X019886Y010381D02*
X020048Y010381D01*
X020185Y010223D02*
X019749Y010223D01*
X019872Y010064D02*
X020062Y010064D01*
X019996Y009906D02*
X019938Y009906D01*
X019944Y009747D02*
X019990Y009747D01*
X019990Y009589D02*
X019944Y009589D01*
X019944Y009430D02*
X019990Y009430D01*
X019990Y009271D02*
X019944Y009271D01*
X019931Y009113D02*
X020004Y009113D01*
X020079Y008954D02*
X019855Y008954D01*
X019079Y008954D02*
X018855Y008954D01*
X018931Y009113D02*
X019004Y009113D01*
X018990Y009271D02*
X018944Y009271D01*
X018944Y009430D02*
X018990Y009430D01*
X018990Y009589D02*
X018944Y009589D01*
X018944Y009747D02*
X018990Y009747D01*
X018996Y009906D02*
X018938Y009906D01*
X018872Y010064D02*
X019062Y010064D01*
X019185Y010223D02*
X018749Y010223D01*
X018886Y010381D02*
X019048Y010381D01*
X018990Y010540D02*
X018944Y010540D01*
X018944Y010698D02*
X018990Y010698D01*
X018990Y010857D02*
X018944Y010857D01*
X018944Y011015D02*
X018990Y011015D01*
X018990Y011174D02*
X018944Y011174D01*
X018916Y011333D02*
X019018Y011333D01*
X019113Y011491D02*
X018821Y011491D01*
X018113Y011491D02*
X017821Y011491D01*
X017916Y011333D02*
X018018Y011333D01*
X017990Y011174D02*
X017944Y011174D01*
X017944Y011015D02*
X017990Y011015D01*
X017990Y010857D02*
X017944Y010857D01*
X017944Y010698D02*
X017990Y010698D01*
X017990Y010540D02*
X017944Y010540D01*
X017886Y010381D02*
X018048Y010381D01*
X018185Y010223D02*
X017749Y010223D01*
X017872Y010064D02*
X018062Y010064D01*
X017996Y009906D02*
X017938Y009906D01*
X017944Y009747D02*
X017990Y009747D01*
X017990Y009589D02*
X017944Y009589D01*
X017944Y009430D02*
X017990Y009430D01*
X017990Y009271D02*
X017944Y009271D01*
X017931Y009113D02*
X018004Y009113D01*
X018079Y008954D02*
X017855Y008954D01*
X017079Y008954D02*
X016855Y008954D01*
X016931Y009113D02*
X017004Y009113D01*
X016990Y009271D02*
X016944Y009271D01*
X016944Y009430D02*
X016990Y009430D01*
X016990Y009589D02*
X016944Y009589D01*
X016944Y009747D02*
X016990Y009747D01*
X016996Y009906D02*
X016938Y009906D01*
X016872Y010064D02*
X017062Y010064D01*
X017185Y010223D02*
X016749Y010223D01*
X016886Y010381D02*
X017048Y010381D01*
X016990Y010540D02*
X016944Y010540D01*
X016944Y010698D02*
X016990Y010698D01*
X016990Y010857D02*
X016944Y010857D01*
X016944Y011015D02*
X016990Y011015D01*
X016990Y011174D02*
X016944Y011174D01*
X016916Y011333D02*
X017018Y011333D01*
X017113Y011491D02*
X016821Y011491D01*
X016113Y011491D02*
X014565Y011491D01*
X015842Y013018D02*
X015217Y013643D01*
X015169Y013552D02*
X015265Y013552D01*
X015265Y013394D02*
X015169Y013394D01*
X015169Y013235D02*
X015265Y013235D01*
X016761Y013235D02*
X017173Y013235D01*
X017197Y013211D02*
X017372Y013139D01*
X017562Y013139D01*
X017737Y013211D01*
X017872Y013346D01*
X017944Y013521D01*
X017944Y014265D01*
X017872Y014441D01*
X017737Y014575D01*
X017562Y014647D01*
X017372Y014647D01*
X017197Y014575D01*
X017063Y014441D01*
X016990Y014265D01*
X016990Y013521D01*
X017063Y013346D01*
X017197Y013211D01*
X017043Y013394D02*
X016891Y013394D01*
X016944Y013552D02*
X016990Y013552D01*
X016990Y013711D02*
X016944Y013711D01*
X016944Y013869D02*
X016990Y013869D01*
X016990Y014028D02*
X016944Y014028D01*
X016944Y014186D02*
X016990Y014186D01*
X017023Y014345D02*
X016911Y014345D01*
X016809Y014503D02*
X017125Y014503D01*
X017809Y014503D02*
X018125Y014503D01*
X018063Y014441D02*
X018197Y014575D01*
X018372Y014647D01*
X018562Y014647D01*
X018737Y014575D01*
X018872Y014441D01*
X018944Y014265D01*
X018944Y013521D01*
X018872Y013346D01*
X018737Y013211D01*
X018562Y013139D01*
X018372Y013139D01*
X018197Y013211D01*
X018063Y013346D01*
X017990Y013521D01*
X017990Y014265D01*
X018063Y014441D01*
X018023Y014345D02*
X017911Y014345D01*
X017944Y014186D02*
X017990Y014186D01*
X017990Y014028D02*
X017944Y014028D01*
X017944Y013869D02*
X017990Y013869D01*
X017990Y013711D02*
X017944Y013711D01*
X017944Y013552D02*
X017990Y013552D01*
X018043Y013394D02*
X017891Y013394D01*
X017761Y013235D02*
X018173Y013235D01*
X018761Y013235D02*
X019173Y013235D01*
X019197Y013211D02*
X019372Y013139D01*
X019562Y013139D01*
X019737Y013211D01*
X019872Y013346D01*
X019944Y013521D01*
X019944Y014265D01*
X019872Y014441D01*
X019737Y014575D01*
X019562Y014647D01*
X019372Y014647D01*
X019197Y014575D01*
X019063Y014441D01*
X018990Y014265D01*
X018990Y013521D01*
X019063Y013346D01*
X019197Y013211D01*
X019043Y013394D02*
X018891Y013394D01*
X018944Y013552D02*
X018990Y013552D01*
X018990Y013711D02*
X018944Y013711D01*
X018944Y013869D02*
X018990Y013869D01*
X018990Y014028D02*
X018944Y014028D01*
X018944Y014186D02*
X018990Y014186D01*
X019023Y014345D02*
X018911Y014345D01*
X018809Y014503D02*
X019125Y014503D01*
X019809Y014503D02*
X020125Y014503D01*
X020063Y014441D02*
X020197Y014575D01*
X020372Y014647D01*
X020562Y014647D01*
X020737Y014575D01*
X020872Y014441D01*
X020944Y014265D01*
X020944Y013521D01*
X020872Y013346D01*
X020737Y013211D01*
X020562Y013139D01*
X020372Y013139D01*
X020197Y013211D01*
X020063Y013346D01*
X019990Y013521D01*
X019990Y014265D01*
X020063Y014441D01*
X020023Y014345D02*
X019911Y014345D01*
X019944Y014186D02*
X019990Y014186D01*
X019990Y014028D02*
X019944Y014028D01*
X019944Y013869D02*
X019990Y013869D01*
X019990Y013711D02*
X019944Y013711D01*
X019944Y013552D02*
X019990Y013552D01*
X020043Y013394D02*
X019891Y013394D01*
X019761Y013235D02*
X020173Y013235D01*
X020761Y013235D02*
X021173Y013235D01*
X021197Y013211D02*
X021372Y013139D01*
X021562Y013139D01*
X021737Y013211D01*
X021872Y013346D01*
X021944Y013521D01*
X021944Y014265D01*
X021872Y014441D01*
X021737Y014575D01*
X021562Y014647D01*
X021372Y014647D01*
X021197Y014575D01*
X021063Y014441D01*
X020990Y014265D01*
X020990Y013521D01*
X021063Y013346D01*
X021197Y013211D01*
X021043Y013394D02*
X020891Y013394D01*
X020944Y013552D02*
X020990Y013552D01*
X020990Y013711D02*
X020944Y013711D01*
X020944Y013869D02*
X020990Y013869D01*
X020990Y014028D02*
X020944Y014028D01*
X020944Y014186D02*
X020990Y014186D01*
X021023Y014345D02*
X020911Y014345D01*
X020809Y014503D02*
X021125Y014503D01*
X021809Y014503D02*
X022125Y014503D01*
X022063Y014441D02*
X021990Y014265D01*
X021990Y013521D01*
X022063Y013346D01*
X022197Y013211D01*
X022372Y013139D01*
X022562Y013139D01*
X022737Y013211D01*
X022872Y013346D01*
X022944Y013521D01*
X022944Y014265D01*
X022872Y014441D01*
X022737Y014575D01*
X022562Y014647D01*
X022372Y014647D01*
X022197Y014575D01*
X022063Y014441D01*
X022023Y014345D02*
X021911Y014345D01*
X021944Y014186D02*
X021990Y014186D01*
X021990Y014028D02*
X021944Y014028D01*
X021944Y013869D02*
X021990Y013869D01*
X021990Y013711D02*
X021944Y013711D01*
X021944Y013552D02*
X021990Y013552D01*
X022043Y013394D02*
X021891Y013394D01*
X021761Y013235D02*
X022173Y013235D01*
X022761Y013235D02*
X023173Y013235D01*
X023197Y013211D02*
X023372Y013139D01*
X023562Y013139D01*
X023737Y013211D01*
X023872Y013346D01*
X023944Y013521D01*
X023944Y014265D01*
X023872Y014441D01*
X023737Y014575D01*
X023562Y014647D01*
X023372Y014647D01*
X023197Y014575D01*
X023063Y014441D01*
X022990Y014265D01*
X022990Y013521D01*
X023063Y013346D01*
X023197Y013211D01*
X023043Y013394D02*
X022891Y013394D01*
X022944Y013552D02*
X022990Y013552D01*
X022990Y013711D02*
X022944Y013711D01*
X022944Y013869D02*
X022990Y013869D01*
X022990Y014028D02*
X022944Y014028D01*
X022944Y014186D02*
X022990Y014186D01*
X023023Y014345D02*
X022911Y014345D01*
X022809Y014503D02*
X023125Y014503D01*
X023809Y014503D02*
X024154Y014503D01*
X024045Y014345D02*
X023911Y014345D01*
X023944Y014186D02*
X024010Y014186D01*
X024010Y014028D02*
X023944Y014028D01*
X023944Y013869D02*
X024010Y013869D01*
X024010Y013711D02*
X023944Y013711D01*
X023944Y013552D02*
X024010Y013552D01*
X024064Y013394D02*
X023891Y013394D01*
X023761Y013235D02*
X024201Y013235D01*
X024467Y015143D02*
X024467Y018393D01*
X025717Y018393D01*
X025669Y018441D02*
X025153Y018441D01*
X025153Y018505D01*
X025239Y018712D01*
X025398Y018871D01*
X025605Y018957D01*
X025669Y018957D01*
X025669Y018441D01*
X025669Y018467D02*
X025765Y018467D01*
X025765Y018626D02*
X025669Y018626D01*
X025669Y018784D02*
X025765Y018784D01*
X025765Y018943D02*
X025669Y018943D01*
X025571Y018943D02*
X015725Y018943D01*
X015791Y018784D02*
X025311Y018784D01*
X025203Y018626D02*
X015801Y018626D01*
X015776Y018467D02*
X025153Y018467D01*
X025153Y018308D02*
X015708Y018308D01*
X015550Y018150D02*
X025207Y018150D01*
X025321Y017991D02*
X015666Y017991D01*
X015749Y017833D02*
X025331Y017833D01*
X024467Y018393D02*
X024467Y024768D01*
X025092Y025393D01*
X025717Y025393D01*
X025669Y025345D02*
X025669Y024829D01*
X025605Y024829D01*
X025398Y024915D01*
X025239Y025074D01*
X025153Y025281D01*
X025153Y025345D01*
X025669Y025345D01*
X025669Y025284D02*
X025765Y025284D01*
X025765Y025126D02*
X025669Y025126D01*
X025669Y024967D02*
X025765Y024967D01*
X026089Y024967D02*
X026103Y024967D01*
X026104Y024809D02*
X023869Y024809D01*
X023839Y024779D02*
X023922Y024862D01*
X024021Y024960D01*
X024066Y025069D01*
X024066Y025186D01*
X024066Y025383D01*
X024021Y025491D01*
X023839Y025673D01*
X023775Y025699D01*
X023731Y025718D01*
X023614Y025718D01*
X023318Y025718D01*
X023210Y025673D01*
X023202Y025665D01*
X023195Y025673D01*
X023122Y025703D01*
X023086Y025718D01*
X022969Y025718D01*
X022890Y025718D01*
X022772Y025718D01*
X022664Y025673D01*
X022656Y025665D01*
X022649Y025673D01*
X022540Y025718D01*
X022029Y025718D01*
X021921Y025673D01*
X021838Y025590D01*
X021793Y025481D01*
X021793Y025364D01*
X021838Y025255D01*
X021921Y025172D01*
X021990Y025144D01*
X021990Y024773D01*
X022035Y024665D01*
X022118Y024582D01*
X022226Y024537D01*
X022344Y024537D01*
X022452Y024582D01*
X022535Y024665D01*
X022548Y024698D01*
X022581Y024665D01*
X022664Y024582D01*
X022772Y024537D01*
X022969Y024537D01*
X023086Y024537D01*
X023086Y024537D01*
X023130Y024555D01*
X023195Y024582D01*
X023202Y024590D01*
X023210Y024582D01*
X023318Y024537D01*
X023436Y024537D01*
X023544Y024582D01*
X023627Y024665D01*
X023656Y024734D01*
X023731Y024734D01*
X023839Y024779D01*
X023612Y024650D02*
X026105Y024650D01*
X026107Y024492D02*
X020841Y024492D01*
X020788Y024438D02*
X021022Y024672D01*
X021148Y024978D01*
X021148Y025308D01*
X021022Y025614D01*
X020788Y025848D01*
X020482Y025974D01*
X020152Y025974D01*
X019846Y025848D01*
X019612Y025614D01*
X019486Y025308D01*
X019486Y024978D01*
X019612Y024672D01*
X019846Y024438D01*
X019857Y024434D01*
X018543Y024434D01*
X018426Y024317D01*
X018426Y020791D01*
X018543Y020674D01*
X022249Y020674D01*
X022366Y020791D01*
X022366Y024317D01*
X022249Y024434D01*
X020777Y024434D01*
X020788Y024438D01*
X021000Y024650D02*
X022050Y024650D01*
X021990Y024809D02*
X021078Y024809D01*
X021144Y024967D02*
X021990Y024967D01*
X021990Y025126D02*
X021148Y025126D01*
X021148Y025284D02*
X021826Y025284D01*
X021793Y025443D02*
X021093Y025443D01*
X021027Y025601D02*
X021850Y025601D01*
X020876Y025760D02*
X025287Y025760D01*
X025239Y025712D02*
X025153Y025505D01*
X025153Y025441D01*
X025669Y025441D01*
X025669Y025957D01*
X025605Y025957D01*
X025398Y025871D01*
X025239Y025712D01*
X025193Y025601D02*
X023911Y025601D01*
X024041Y025443D02*
X025153Y025443D01*
X025153Y025284D02*
X024066Y025284D01*
X024066Y025383D02*
X024066Y025383D01*
X024066Y025126D02*
X025217Y025126D01*
X025345Y024967D02*
X024024Y024967D01*
X023731Y025718D02*
X023731Y025718D01*
X023086Y025718D02*
X023086Y025718D01*
X022596Y024650D02*
X022520Y024650D01*
X022350Y024333D02*
X026108Y024333D01*
X026109Y024175D02*
X022366Y024175D01*
X022366Y024016D02*
X026110Y024016D01*
X026112Y023857D02*
X022366Y023857D01*
X022366Y023699D02*
X026113Y023699D01*
X026114Y023540D02*
X022366Y023540D01*
X022366Y023382D02*
X026115Y023382D01*
X026116Y023223D02*
X022366Y023223D01*
X022366Y023065D02*
X026118Y023065D01*
X026119Y022906D02*
X026004Y022906D01*
X025430Y022906D02*
X022366Y022906D01*
X022366Y022748D02*
X025246Y022748D01*
X025166Y022589D02*
X022366Y022589D01*
X022366Y022431D02*
X025133Y022431D01*
X025135Y022272D02*
X022366Y022272D01*
X022366Y022114D02*
X025201Y022114D01*
X025329Y021955D02*
X022366Y021955D01*
X022366Y021796D02*
X025295Y021796D01*
X025187Y021638D02*
X022366Y021638D01*
X022366Y021479D02*
X025133Y021479D01*
X025133Y021321D02*
X022366Y021321D01*
X022366Y021162D02*
X025181Y021162D01*
X025281Y021004D02*
X022366Y021004D01*
X022366Y020845D02*
X025514Y020845D01*
X025920Y020845D02*
X026135Y020845D01*
X026136Y020687D02*
X022262Y020687D01*
X026137Y020528D02*
X014842Y020528D01*
X014842Y020370D02*
X026138Y020370D01*
X026140Y020211D02*
X014842Y020211D01*
X014842Y020052D02*
X026141Y020052D01*
X026142Y019894D02*
X014842Y019894D01*
X014842Y019735D02*
X026143Y019735D01*
X026144Y019577D02*
X014842Y019577D01*
X014842Y019418D02*
X026146Y019418D01*
X026147Y019260D02*
X014842Y019260D01*
X014842Y019101D02*
X014850Y019101D01*
X015585Y019101D02*
X026148Y019101D01*
X026149Y018943D02*
X025864Y018943D01*
X026123Y018784D02*
X026151Y018784D01*
X026165Y016882D02*
X026008Y016882D01*
X018531Y020687D02*
X014842Y020687D01*
X014842Y020845D02*
X018426Y020845D01*
X018426Y021004D02*
X014842Y021004D01*
X014842Y021162D02*
X014904Y021162D01*
X015169Y021162D02*
X015265Y021162D01*
X015265Y021321D02*
X015169Y021321D01*
X015169Y021479D02*
X015265Y021479D01*
X015265Y021638D02*
X018426Y021638D01*
X018426Y021796D02*
X015764Y021796D01*
X015698Y021955D02*
X018426Y021955D01*
X018426Y022114D02*
X015544Y022114D01*
X015672Y022272D02*
X018426Y022272D01*
X018426Y022431D02*
X015761Y022431D01*
X015801Y022589D02*
X018426Y022589D01*
X018426Y022748D02*
X015801Y022748D01*
X015740Y022906D02*
X018426Y022906D01*
X018426Y023065D02*
X015621Y023065D01*
X015342Y023223D02*
X018426Y023223D01*
X018426Y023382D02*
X014842Y023382D01*
X014842Y023540D02*
X018426Y023540D01*
X018426Y023699D02*
X014842Y023699D01*
X014842Y023857D02*
X018426Y023857D01*
X018426Y024016D02*
X014842Y024016D01*
X014842Y024175D02*
X018426Y024175D01*
X018442Y024333D02*
X014842Y024333D01*
X014842Y024492D02*
X019793Y024492D01*
X019634Y024650D02*
X014842Y024650D01*
X014842Y024809D02*
X019556Y024809D01*
X019490Y024967D02*
X014842Y024967D01*
X014842Y025126D02*
X014992Y025126D01*
X015169Y025126D02*
X015265Y025126D01*
X015265Y025284D02*
X015169Y025284D01*
X015169Y025443D02*
X015265Y025443D01*
X015265Y025601D02*
X019607Y025601D01*
X019542Y025443D02*
X015744Y025443D01*
X015656Y025284D02*
X019486Y025284D01*
X019486Y025126D02*
X015442Y025126D01*
X015217Y025643D02*
X015842Y025643D01*
X016342Y025143D01*
X016342Y021643D01*
X016342Y017643D01*
X015530Y021162D02*
X018426Y021162D01*
X018426Y021321D02*
X015692Y021321D01*
X015760Y021479D02*
X018426Y021479D01*
X016342Y021643D02*
X015217Y021643D01*
X015092Y023223D02*
X014842Y023223D01*
X015169Y025760D02*
X015265Y025760D01*
X015265Y025919D02*
X015169Y025919D01*
X015169Y026077D02*
X015265Y026077D01*
X015580Y026077D02*
X026094Y026077D01*
X026096Y025919D02*
X025922Y025919D01*
X025765Y025919D02*
X025669Y025919D01*
X025512Y025919D02*
X020617Y025919D01*
X020017Y025919D02*
X015713Y025919D01*
X015779Y025760D02*
X019759Y025760D01*
X014854Y026077D02*
X014842Y026077D01*
X014842Y026236D02*
X026093Y026236D01*
X025765Y025760D02*
X025669Y025760D01*
X025669Y025601D02*
X025765Y025601D01*
X025765Y025443D02*
X025669Y025443D01*
X015079Y008954D02*
X014583Y008954D01*
X014742Y008796D02*
X015295Y008796D01*
X011944Y007845D02*
X011540Y007845D01*
X011523Y007861D02*
X011341Y007937D01*
X011143Y007937D01*
X010961Y007861D01*
X010821Y007721D01*
X010745Y007539D01*
X010745Y006747D01*
X010821Y006565D01*
X010961Y006425D01*
X011143Y006349D01*
X011341Y006349D01*
X011523Y006425D01*
X011663Y006565D01*
X011739Y006747D01*
X011739Y007539D01*
X011663Y007721D01*
X011523Y007861D01*
X011678Y007686D02*
X011806Y007686D01*
X011745Y007528D02*
X011739Y007528D01*
X011739Y007369D02*
X011745Y007369D01*
X011739Y007210D02*
X011745Y007210D01*
X011739Y007052D02*
X011745Y007052D01*
X011739Y006893D02*
X011745Y006893D01*
X011734Y006735D02*
X011750Y006735D01*
X011816Y006576D02*
X011668Y006576D01*
X011506Y006418D02*
X011978Y006418D01*
X010978Y006418D02*
X010506Y006418D01*
X010668Y006576D02*
X010816Y006576D01*
X010750Y006735D02*
X010734Y006735D01*
X010739Y006893D02*
X010745Y006893D01*
X010739Y007052D02*
X010745Y007052D01*
X010739Y007210D02*
X010745Y007210D01*
X010739Y007369D02*
X010745Y007369D01*
X010739Y007528D02*
X010745Y007528D01*
X010806Y007686D02*
X010678Y007686D01*
X010540Y007845D02*
X010944Y007845D01*
X009042Y006418D02*
X007471Y006418D01*
X007409Y006259D02*
X008883Y006259D01*
X008790Y006101D02*
X007266Y006101D01*
X006716Y006101D02*
X006679Y006101D01*
X006679Y006259D02*
X006716Y006259D01*
X006128Y006101D02*
X005848Y006101D01*
X005894Y005942D02*
X008790Y005942D01*
X008790Y005784D02*
X005888Y005784D01*
X005822Y005625D02*
X008935Y005625D01*
X005985Y006259D02*
X005726Y006259D01*
X005923Y006418D02*
X004911Y006418D01*
X004911Y006576D02*
X005923Y006576D01*
X005980Y006735D02*
X004854Y006735D01*
X004718Y006893D02*
X006116Y006893D01*
X005108Y006259D02*
X004849Y006259D01*
X004987Y006101D02*
X004706Y006101D01*
X004940Y005942D02*
X003562Y005942D01*
X003562Y005784D02*
X004946Y005784D01*
X005012Y005625D02*
X003562Y005625D01*
X003562Y005466D02*
X005200Y005466D01*
X005157Y005308D02*
X003562Y005308D01*
X003562Y005149D02*
X004999Y005149D01*
X004940Y004991D02*
X003562Y004991D01*
X003562Y004832D02*
X004940Y004832D01*
X004962Y004674D02*
X003562Y004674D01*
X003562Y004198D02*
X015459Y004198D01*
X021148Y001661D02*
X035729Y001661D01*
X035467Y001503D02*
X021148Y001503D01*
X021093Y001344D02*
X035467Y001344D01*
X035467Y001186D02*
X021027Y001186D01*
X020877Y001027D02*
X035467Y001027D01*
X035467Y000869D02*
X020620Y000869D01*
X024023Y003247D02*
X024439Y003247D01*
X024280Y003405D02*
X024182Y003405D01*
X024214Y003564D02*
X024240Y003564D01*
X024240Y003722D02*
X024214Y003722D01*
X024182Y003881D02*
X024281Y003881D01*
X024439Y004040D02*
X024023Y004040D01*
X023975Y004198D02*
X024459Y004198D01*
X024467Y004143D02*
X024217Y004393D01*
X024133Y004357D02*
X024301Y004357D01*
X024467Y004143D02*
X024592Y004143D01*
X024717Y004018D01*
X024717Y003643D01*
X024699Y003564D02*
X024736Y003564D01*
X024736Y003722D02*
X024699Y003722D01*
X024699Y003881D02*
X024736Y003881D01*
X024736Y004040D02*
X024699Y004040D01*
X024995Y004040D02*
X030302Y004040D01*
X030302Y004198D02*
X024975Y004198D01*
X025133Y004357D02*
X029913Y004357D01*
X029755Y004515D02*
X025214Y004515D01*
X025214Y004674D02*
X029711Y004674D01*
X029711Y004832D02*
X025214Y004832D01*
X025072Y004991D02*
X029725Y004991D01*
X029883Y005149D02*
X005836Y005149D01*
X004156Y006101D02*
X004119Y006101D01*
X004119Y006259D02*
X004156Y006259D01*
X004156Y006418D02*
X004119Y006418D01*
X004118Y006485D02*
X003562Y006485D01*
X003562Y006521D01*
X004118Y006521D01*
X004118Y006485D01*
X004119Y006576D02*
X004156Y006576D01*
X004156Y006735D02*
X004119Y006735D01*
X004119Y006893D02*
X004156Y006893D01*
X003568Y006101D02*
X003562Y006101D01*
X003562Y004040D02*
X007992Y004040D01*
X007878Y003881D02*
X007583Y003881D01*
X007782Y003722D02*
X007825Y003722D01*
X007905Y003247D02*
X007992Y003247D01*
X006292Y003881D02*
X006110Y003881D01*
X005465Y001820D02*
X005369Y001820D01*
X005369Y001661D02*
X005465Y001661D01*
X005465Y001503D02*
X005369Y001503D01*
X005369Y001344D02*
X005465Y001344D01*
X005465Y001186D02*
X005369Y001186D01*
X005369Y001027D02*
X005465Y001027D01*
X005465Y000869D02*
X005369Y000869D01*
X005970Y000869D02*
X006337Y000869D01*
X006890Y000869D02*
X006986Y000869D01*
X006986Y001027D02*
X006890Y001027D01*
X006890Y001186D02*
X006986Y001186D01*
X006889Y001344D02*
X006365Y001344D01*
X006890Y001503D02*
X006986Y001503D01*
X006986Y001661D02*
X006890Y001661D01*
X006890Y001820D02*
X006986Y001820D01*
X024699Y003247D02*
X024736Y003247D01*
X024736Y003405D02*
X024699Y003405D01*
X024995Y003247D02*
X030327Y003247D01*
X030768Y003247D02*
X030927Y003247D01*
X030927Y002771D02*
X030768Y002771D01*
X030768Y002613D02*
X030927Y002613D01*
X030927Y002454D02*
X030768Y002454D01*
X031330Y002454D02*
X033010Y002454D01*
X032916Y002613D02*
X031368Y002613D01*
X031368Y002771D02*
X032876Y002771D01*
X035419Y002296D02*
X035515Y002296D01*
X035515Y002454D02*
X036967Y002454D01*
X035515Y002137D02*
X035419Y002137D01*
X035419Y001979D02*
X035515Y001979D01*
X030306Y003722D02*
X025194Y003722D01*
X025153Y003881D02*
X030302Y003881D01*
X030717Y005149D02*
X030967Y005149D01*
D689*
X031467Y004768D03*
X030217Y004768D03*
X027842Y005581D03*
X031592Y002893D03*
X009280Y005081D03*
D690*
X027842Y002893D03*
M02*
