G75*
G70*
%OFA0B0*%
%FSLAX24Y24*%
%IPPOS*%
%LPD*%
%AMOC8*
5,1,8,0,0,1.08239X$1,22.5*
%
%ADD10C,0.1182*%
%ADD11C,0.0848*%
%ADD12C,0.0674*%
%ADD13OC8,0.0634*%
%ADD14C,0.0634*%
%ADD15R,0.0674X0.0674*%
%ADD16OC8,0.0674*%
%ADD17C,0.0634*%
%ADD18OC8,0.0740*%
%ADD19OC8,0.0671*%
%ADD20OC8,0.0907*%
D10*
X021056Y001603D03*
X021056Y025103D03*
D11*
X006290Y002369D02*
X005522Y002369D01*
X006170Y003086D02*
X006938Y003086D01*
X007166Y002532D02*
X007934Y002532D01*
X007934Y004500D02*
X007166Y004500D01*
X006290Y004337D02*
X005522Y004337D01*
X006170Y005350D02*
X006938Y005350D01*
X007171Y010354D02*
X007939Y010354D01*
X006290Y010369D02*
X005522Y010369D01*
X005522Y012337D02*
X006290Y012337D01*
X007171Y012322D02*
X007939Y012322D01*
X007938Y014309D02*
X007170Y014309D01*
X006290Y014369D02*
X005522Y014369D01*
X007170Y016278D02*
X007938Y016278D01*
X006290Y016337D02*
X005522Y016337D01*
X005522Y018369D02*
X006290Y018369D01*
X007171Y018228D02*
X007939Y018228D01*
X007939Y020196D02*
X007171Y020196D01*
X006290Y020337D02*
X005522Y020337D01*
X007171Y022165D02*
X007939Y022165D01*
X006290Y022369D02*
X005522Y022369D01*
X005522Y024337D02*
X006290Y024337D01*
X007171Y024133D02*
X007939Y024133D01*
X034009Y023286D02*
X034776Y023286D01*
X035522Y023369D02*
X036290Y023369D01*
X036290Y025337D02*
X035522Y025337D01*
X034776Y025254D02*
X034009Y025254D01*
X034009Y021317D02*
X034776Y021317D01*
X035522Y021337D02*
X036290Y021337D01*
X036290Y019369D02*
X035522Y019369D01*
X034776Y019349D02*
X034009Y019349D01*
X034009Y017341D02*
X034776Y017341D01*
X035522Y017337D02*
X036290Y017337D01*
X036290Y015369D02*
X035522Y015369D01*
X034776Y015372D02*
X034009Y015372D01*
X034009Y013404D02*
X034776Y013404D01*
X035522Y013337D02*
X036290Y013337D01*
X036290Y011369D02*
X035522Y011369D01*
X034776Y011435D02*
X034009Y011435D01*
D12*
X034329Y008243D02*
X034923Y008243D01*
X036889Y008243D02*
X037483Y008243D01*
X037483Y006463D02*
X036889Y006463D01*
X034923Y006463D02*
X034329Y006463D01*
D13*
X033094Y007353D03*
X035906Y004853D03*
X033094Y004353D03*
X026156Y005415D03*
X026156Y007415D03*
X026531Y010853D03*
X027531Y010853D03*
X027656Y011453D03*
X029031Y010853D03*
X031281Y010853D03*
X032281Y010853D03*
X027531Y013103D03*
X027531Y014978D03*
X026531Y014978D03*
X027656Y015578D03*
X029031Y014978D03*
X031281Y014978D03*
X032281Y014978D03*
X027531Y017228D03*
X027531Y019103D03*
X027656Y019703D03*
X026531Y019103D03*
X029031Y019103D03*
X031281Y019103D03*
X032281Y019103D03*
X027531Y021353D03*
X027531Y023228D03*
X026531Y023228D03*
X027656Y023828D03*
X029031Y023228D03*
X031281Y023228D03*
X032281Y023228D03*
X027531Y025478D03*
X015406Y025415D03*
X014406Y025415D03*
X014281Y024815D03*
X012906Y025415D03*
X010656Y025415D03*
X009656Y025415D03*
X014406Y023165D03*
X014406Y021290D03*
X014281Y020690D03*
X015406Y021290D03*
X012906Y021290D03*
X010656Y021290D03*
X009656Y021290D03*
X014406Y019040D03*
X014406Y017165D03*
X015406Y017165D03*
X014281Y016565D03*
X012906Y017165D03*
X010656Y017165D03*
X009656Y017165D03*
X014406Y014915D03*
X014406Y013040D03*
X014281Y012440D03*
X015406Y013040D03*
X012906Y013040D03*
X010656Y013040D03*
X009656Y013040D03*
X014406Y010790D03*
X010219Y006790D03*
X008219Y006790D03*
X017306Y006165D03*
D14*
X016506Y006165D03*
X015406Y010790D03*
X014281Y011640D03*
X011906Y013040D03*
X015406Y014915D03*
X014281Y015765D03*
X011906Y017165D03*
X015406Y019040D03*
X014281Y019890D03*
X011906Y021290D03*
X015406Y023165D03*
X014281Y024015D03*
X011906Y025415D03*
X026531Y025478D03*
X027656Y024628D03*
X030031Y023228D03*
X026531Y021353D03*
X027656Y020503D03*
X030031Y019103D03*
X026531Y017228D03*
X027656Y016378D03*
X030031Y014978D03*
X026531Y013103D03*
X027656Y012253D03*
X030031Y010853D03*
X035906Y005853D03*
D15*
X016406Y003853D03*
D16*
X017406Y003853D03*
X018406Y003853D03*
X019406Y003853D03*
X020406Y003853D03*
X021406Y003853D03*
X022406Y003853D03*
X023406Y003853D03*
X024406Y003853D03*
X025406Y003853D03*
X025406Y002853D03*
X024406Y002853D03*
X023406Y002853D03*
X022406Y002853D03*
X021406Y002853D03*
X020406Y002853D03*
X019406Y002853D03*
X018406Y002853D03*
X017406Y002853D03*
X016406Y002853D03*
X012781Y011040D03*
X009781Y011040D03*
X009781Y015165D03*
X012781Y015165D03*
X012781Y019290D03*
X009781Y019290D03*
X009781Y023415D03*
X012781Y023415D03*
X029156Y025228D03*
X032156Y025228D03*
X032156Y021103D03*
X029156Y021103D03*
X029156Y016978D03*
X032156Y016978D03*
X032156Y012853D03*
X029156Y012853D03*
D17*
X025808Y012853D02*
X025254Y012853D01*
X025254Y011853D02*
X025808Y011853D01*
X025808Y010853D02*
X025254Y010853D01*
X022808Y010853D02*
X022254Y010853D01*
X022254Y011853D02*
X022808Y011853D01*
X022808Y012853D02*
X022254Y012853D01*
X019683Y013040D02*
X019129Y013040D01*
X019129Y012040D02*
X019683Y012040D01*
X019683Y011040D02*
X019129Y011040D01*
X016683Y011040D02*
X016129Y011040D01*
X016129Y012040D02*
X016683Y012040D01*
X016683Y013040D02*
X016129Y013040D01*
X016129Y015165D02*
X016683Y015165D01*
X016683Y016165D02*
X016129Y016165D01*
X016129Y017165D02*
X016683Y017165D01*
X019129Y017165D02*
X019683Y017165D01*
X019683Y016165D02*
X019129Y016165D01*
X019129Y015165D02*
X019683Y015165D01*
X022254Y014978D02*
X022808Y014978D01*
X022808Y015978D02*
X022254Y015978D01*
X022254Y016978D02*
X022808Y016978D01*
X025254Y016978D02*
X025808Y016978D01*
X025808Y015978D02*
X025254Y015978D01*
X025254Y014978D02*
X025808Y014978D01*
X025808Y019103D02*
X025254Y019103D01*
X025254Y020103D02*
X025808Y020103D01*
X025808Y021103D02*
X025254Y021103D01*
X022808Y021103D02*
X022254Y021103D01*
X022254Y020103D02*
X022808Y020103D01*
X022808Y019103D02*
X022254Y019103D01*
X019683Y019290D02*
X019129Y019290D01*
X019129Y020290D02*
X019683Y020290D01*
X019683Y021290D02*
X019129Y021290D01*
X016683Y021290D02*
X016129Y021290D01*
X016129Y020290D02*
X016683Y020290D01*
X016683Y019290D02*
X016129Y019290D01*
X016129Y023415D02*
X016683Y023415D01*
X016683Y024415D02*
X016129Y024415D01*
X016129Y025415D02*
X016683Y025415D01*
X019129Y025415D02*
X019683Y025415D01*
X019683Y024415D02*
X019129Y024415D01*
X019129Y023415D02*
X019683Y023415D01*
X022254Y023228D02*
X022808Y023228D01*
X022808Y024228D02*
X022254Y024228D01*
X022254Y025228D02*
X022808Y025228D01*
X025254Y025228D02*
X025808Y025228D01*
X025808Y024228D02*
X025254Y024228D01*
X025254Y023228D02*
X025808Y023228D01*
X022996Y009165D02*
X022441Y009165D01*
X022441Y008165D02*
X022996Y008165D01*
X022996Y007165D02*
X022441Y007165D01*
X022441Y006165D02*
X022996Y006165D01*
X022996Y005165D02*
X022441Y005165D01*
X019246Y005165D02*
X018691Y005165D01*
X018691Y006165D02*
X019246Y006165D01*
X019246Y007165D02*
X018691Y007165D01*
X018691Y008165D02*
X019246Y008165D01*
X019246Y009165D02*
X018691Y009165D01*
X014433Y006790D02*
X013879Y006790D01*
X013879Y005790D02*
X014433Y005790D01*
X014433Y004790D02*
X013879Y004790D01*
X013879Y003790D02*
X014433Y003790D01*
X014433Y002790D02*
X013879Y002790D01*
X013879Y001790D02*
X014433Y001790D01*
X014433Y000790D02*
X013879Y000790D01*
X011433Y000790D02*
X010879Y000790D01*
X010879Y001790D02*
X011433Y001790D01*
X011433Y002790D02*
X010879Y002790D01*
X010879Y003790D02*
X011433Y003790D01*
X011433Y004790D02*
X010879Y004790D01*
X010879Y005790D02*
X011433Y005790D01*
X011433Y006790D02*
X010879Y006790D01*
X027441Y006790D02*
X027996Y006790D01*
X027996Y005790D02*
X027441Y005790D01*
X027441Y004790D02*
X027996Y004790D01*
X027996Y003790D02*
X027441Y003790D01*
X027441Y002790D02*
X027996Y002790D01*
X027996Y001790D02*
X027441Y001790D01*
X027441Y000790D02*
X027996Y000790D01*
X030441Y000790D02*
X030996Y000790D01*
X030996Y001790D02*
X030441Y001790D01*
X030441Y002790D02*
X030996Y002790D01*
X030996Y003790D02*
X030441Y003790D01*
X030441Y004790D02*
X030996Y004790D01*
X030996Y005790D02*
X030441Y005790D01*
X030441Y006790D02*
X030996Y006790D01*
D18*
X017406Y001603D03*
X016406Y001978D03*
D19*
X010219Y004290D03*
X009094Y004103D03*
X009406Y001040D03*
X027344Y007978D03*
D20*
X032344Y002728D03*
M02*
