G75*
G70*
%OFA0B0*%
%FSLAX24Y24*%
%IPPOS*%
%LPD*%
%AMOC8*
5,1,8,0,0,1.08239X$1,22.5*
%
%ADD10C,0.0110*%
%ADD11R,0.0028X0.0004*%
%ADD12R,0.0063X0.0004*%
%ADD13R,0.0071X0.0004*%
%ADD14R,0.0083X0.0004*%
%ADD15R,0.0087X0.0004*%
%ADD16R,0.0091X0.0004*%
%ADD17R,0.0051X0.0004*%
%ADD18R,0.0047X0.0004*%
%ADD19R,0.0039X0.0004*%
%ADD20R,0.0055X0.0004*%
%ADD21R,0.0067X0.0004*%
%ADD22R,0.0043X0.0004*%
%ADD23R,0.0094X0.0004*%
%ADD24R,0.0102X0.0004*%
%ADD25R,0.0106X0.0004*%
%ADD26R,0.0118X0.0004*%
%ADD27R,0.0059X0.0004*%
%ADD28R,0.0114X0.0004*%
%ADD29R,0.0075X0.0004*%
%ADD30R,0.0150X0.0004*%
%ADD31R,0.0098X0.0004*%
%ADD32R,0.0122X0.0004*%
%ADD33R,0.0130X0.0004*%
%ADD34R,0.0079X0.0004*%
%ADD35R,0.0154X0.0004*%
%ADD36R,0.0134X0.0004*%
%ADD37R,0.0142X0.0004*%
%ADD38R,0.0138X0.0004*%
%ADD39R,0.0146X0.0004*%
%ADD40R,0.0012X0.0004*%
%ADD41R,0.0008X0.0004*%
%ADD42R,0.0016X0.0004*%
%ADD43R,0.0161X0.0004*%
%ADD44R,0.0165X0.0004*%
%ADD45R,0.0126X0.0004*%
%ADD46R,0.0110X0.0004*%
%ADD47R,0.0252X0.0004*%
%ADD48R,0.0157X0.0004*%
%ADD49R,0.0256X0.0004*%
%ADD50R,0.0004X0.0004*%
%ADD51R,0.0035X0.0004*%
%ADD52R,0.0031X0.0004*%
%ADD53R,0.0024X0.0004*%
%ADD54R,0.0457X0.0004*%
%ADD55R,0.0406X0.0004*%
%ADD56R,0.0299X0.0004*%
%ADD57R,0.0319X0.0004*%
%ADD58R,0.0417X0.0004*%
%ADD59R,0.0315X0.0004*%
%ADD60R,0.0335X0.0004*%
%ADD61R,0.0429X0.0004*%
%ADD62R,0.0327X0.0004*%
%ADD63R,0.0346X0.0004*%
%ADD64R,0.0433X0.0004*%
%ADD65R,0.0339X0.0004*%
%ADD66R,0.0354X0.0004*%
%ADD67R,0.0441X0.0004*%
%ADD68R,0.0362X0.0004*%
%ADD69R,0.0445X0.0004*%
%ADD70R,0.0370X0.0004*%
%ADD71R,0.0449X0.0004*%
%ADD72R,0.0358X0.0004*%
%ADD73R,0.0378X0.0004*%
%ADD74R,0.0453X0.0004*%
%ADD75R,0.0366X0.0004*%
%ADD76R,0.0382X0.0004*%
%ADD77R,0.0386X0.0004*%
%ADD78R,0.0390X0.0004*%
%ADD79R,0.0461X0.0004*%
%ADD80R,0.0394X0.0004*%
%ADD81R,0.0398X0.0004*%
%ADD82R,0.0465X0.0004*%
%ADD83R,0.0402X0.0004*%
%ADD84R,0.0469X0.0004*%
%ADD85R,0.0409X0.0004*%
%ADD86R,0.0413X0.0004*%
%ADD87R,0.0472X0.0004*%
%ADD88R,0.0421X0.0004*%
%ADD89R,0.0425X0.0004*%
%ADD90R,0.0476X0.0004*%
%ADD91R,0.0169X0.0004*%
%ADD92R,0.0232X0.0004*%
%ADD93R,0.0244X0.0004*%
%ADD94R,0.0268X0.0004*%
%ADD95R,0.0276X0.0004*%
%ADD96R,0.0323X0.0004*%
%ADD97R,0.0283X0.0004*%
%ADD98R,0.0287X0.0004*%
%ADD99R,0.0295X0.0004*%
%ADD100R,0.0303X0.0004*%
%ADD101R,0.0307X0.0004*%
%ADD102R,0.0311X0.0004*%
%ADD103R,0.0291X0.0004*%
%ADD104R,0.0331X0.0004*%
%ADD105R,0.0343X0.0004*%
%ADD106R,0.0437X0.0004*%
%ADD107R,0.0374X0.0004*%
%ADD108R,0.0350X0.0004*%
%ADD109R,0.0189X0.0004*%
%ADD110R,0.0193X0.0004*%
%ADD111R,0.0213X0.0004*%
%ADD112R,0.0496X0.0004*%
%ADD113R,0.0543X0.0004*%
%ADD114R,0.0594X0.0004*%
%ADD115R,0.0642X0.0004*%
%ADD116R,0.0697X0.0004*%
%ADD117R,0.0756X0.0004*%
%ADD118R,0.0803X0.0004*%
%ADD119R,0.0846X0.0004*%
%ADD120R,0.0890X0.0004*%
%ADD121R,0.0941X0.0004*%
%ADD122R,0.0988X0.0004*%
%ADD123R,0.1039X0.0004*%
%ADD124R,0.1087X0.0004*%
%ADD125R,0.1138X0.0004*%
%ADD126R,0.1185X0.0004*%
%ADD127R,0.1425X0.0004*%
%ADD128R,0.1421X0.0004*%
%ADD129R,0.1433X0.0004*%
%ADD130R,0.1484X0.0004*%
%ADD131R,0.1531X0.0004*%
%ADD132R,0.1579X0.0004*%
%ADD133R,0.1630X0.0004*%
%ADD134R,0.1677X0.0004*%
%ADD135R,0.1783X0.0004*%
%ADD136R,0.1827X0.0004*%
%ADD137R,0.1874X0.0004*%
%ADD138R,0.1925X0.0004*%
%ADD139R,0.1972X0.0004*%
%ADD140R,0.2051X0.0004*%
%ADD141R,0.2071X0.0004*%
%ADD142R,0.2122X0.0004*%
%ADD143R,0.2150X0.0004*%
%ADD144R,0.2114X0.0004*%
%ADD145R,0.2118X0.0004*%
%ADD146R,0.2209X0.0004*%
%ADD147R,0.2165X0.0004*%
%ADD148R,0.2130X0.0004*%
%ADD149R,0.2134X0.0004*%
%ADD150R,0.2138X0.0004*%
%ADD151R,0.2142X0.0004*%
%ADD152R,0.2146X0.0004*%
%ADD153R,0.2154X0.0004*%
%ADD154R,0.2157X0.0004*%
%ADD155R,0.2161X0.0004*%
%ADD156R,0.2173X0.0004*%
%ADD157R,0.2126X0.0004*%
%ADD158R,0.2079X0.0004*%
%ADD159R,0.2102X0.0004*%
%ADD160R,0.2197X0.0004*%
%ADD161R,0.1961X0.0004*%
%ADD162R,0.1917X0.0004*%
%ADD163R,0.0185X0.0004*%
%ADD164R,0.1870X0.0004*%
%ADD165R,0.1823X0.0004*%
%ADD166R,0.1803X0.0004*%
%ADD167R,0.1728X0.0004*%
%ADD168R,0.1685X0.0004*%
%ADD169R,0.1638X0.0004*%
%ADD170R,0.1591X0.0004*%
%ADD171R,0.1543X0.0004*%
%ADD172R,0.1496X0.0004*%
%ADD173R,0.1453X0.0004*%
%ADD174R,0.1406X0.0004*%
%ADD175R,0.1358X0.0004*%
%ADD176R,0.1315X0.0004*%
%ADD177R,0.1268X0.0004*%
%ADD178R,0.1063X0.0004*%
%ADD179R,0.0181X0.0004*%
%ADD180R,0.0929X0.0004*%
%ADD181R,0.0925X0.0004*%
%ADD182R,0.0894X0.0004*%
%ADD183R,0.0799X0.0004*%
%ADD184R,0.0752X0.0004*%
%ADD185R,0.0177X0.0004*%
%ADD186R,0.0709X0.0004*%
%ADD187R,0.0661X0.0004*%
%ADD188R,0.0614X0.0004*%
%ADD189R,0.0567X0.0004*%
%ADD190R,0.0520X0.0004*%
%ADD191R,0.0209X0.0004*%
%ADD192R,0.0535X0.0004*%
%ADD193R,0.0606X0.0004*%
%ADD194R,0.0197X0.0004*%
%ADD195R,0.0665X0.0004*%
%ADD196R,0.0736X0.0004*%
%ADD197R,0.0807X0.0004*%
%ADD198R,0.0866X0.0004*%
%ADD199R,0.1020X0.0004*%
%ADD200R,0.1126X0.0004*%
%ADD201R,0.1130X0.0004*%
%ADD202R,0.1134X0.0004*%
%ADD203R,0.1142X0.0004*%
%ADD204R,0.1146X0.0004*%
%ADD205R,0.1150X0.0004*%
%ADD206R,0.1154X0.0004*%
%ADD207R,0.0598X0.0004*%
%ADD208R,0.0236X0.0004*%
%ADD209R,0.0602X0.0004*%
%ADD210R,0.0240X0.0004*%
%ADD211R,0.0610X0.0004*%
%ADD212R,0.0248X0.0004*%
%ADD213R,0.0618X0.0004*%
%ADD214R,0.0622X0.0004*%
%ADD215R,0.0260X0.0004*%
%ADD216R,0.0626X0.0004*%
%ADD217R,0.0264X0.0004*%
%ADD218R,0.0630X0.0004*%
%ADD219R,0.0272X0.0004*%
%ADD220R,0.0634X0.0004*%
%ADD221R,0.0638X0.0004*%
%ADD222R,0.0280X0.0004*%
%ADD223R,0.0173X0.0004*%
%ADD224R,0.0768X0.0004*%
%ADD225R,0.0772X0.0004*%
%ADD226R,0.0823X0.0004*%
%ADD227R,0.0961X0.0004*%
%ADD228R,0.1083X0.0004*%
%ADD229R,0.1346X0.0004*%
%ADD230R,0.1350X0.0004*%
%ADD231R,0.1354X0.0004*%
%ADD232R,0.1307X0.0004*%
%ADD233R,0.1043X0.0004*%
%ADD234R,0.0862X0.0004*%
%ADD235R,0.0677X0.0004*%
%ADD236R,0.0512X0.0004*%
%ADD237R,0.0201X0.0004*%
%ADD238R,0.0217X0.0004*%
%ADD239R,0.0220X0.0004*%
%ADD240R,0.0224X0.0004*%
%ADD241R,0.0575X0.0004*%
%ADD242R,0.0228X0.0004*%
%ADD243R,0.1437X0.0004*%
%ADD244R,0.1913X0.0004*%
%ADD245R,0.2421X0.0004*%
%ADD246R,0.2417X0.0004*%
%ADD247R,0.2413X0.0004*%
%ADD248R,0.2409X0.0004*%
%ADD249R,0.2406X0.0004*%
%ADD250R,0.2402X0.0004*%
%ADD251R,0.2398X0.0004*%
%ADD252R,0.2394X0.0004*%
%ADD253R,0.2390X0.0004*%
%ADD254R,0.2386X0.0004*%
%ADD255R,0.2382X0.0004*%
%ADD256R,0.2374X0.0004*%
%ADD257R,0.2370X0.0004*%
%ADD258R,0.2366X0.0004*%
%ADD259R,0.2362X0.0004*%
%ADD260R,0.2354X0.0004*%
%ADD261R,0.2287X0.0004*%
%ADD262R,0.2276X0.0004*%
%ADD263R,0.2181X0.0004*%
%ADD264R,0.2110X0.0004*%
%ADD265R,0.2094X0.0004*%
%ADD266R,0.2063X0.0004*%
%ADD267R,0.2039X0.0004*%
%ADD268R,0.2028X0.0004*%
%ADD269R,0.2020X0.0004*%
%ADD270R,0.2008X0.0004*%
%ADD271R,0.2000X0.0004*%
%ADD272R,0.1992X0.0004*%
%ADD273R,0.1520X0.0004*%
%ADD274R,0.1213X0.0004*%
%ADD275R,0.0906X0.0004*%
%ADD276R,0.0205X0.0004*%
%ADD277R,0.0508X0.0004*%
%ADD278R,0.0740X0.0004*%
%ADD279R,0.0972X0.0004*%
%ADD280R,0.1205X0.0004*%
%ADD281R,0.1488X0.0004*%
%ADD282R,0.1665X0.0004*%
%ADD283R,0.1701X0.0004*%
%ADD284R,0.1693X0.0004*%
%ADD285R,0.1673X0.0004*%
%ADD286R,0.1657X0.0004*%
%ADD287R,0.1650X0.0004*%
%ADD288R,0.1642X0.0004*%
%ADD289R,0.1626X0.0004*%
%ADD290R,0.1618X0.0004*%
%ADD291R,0.1610X0.0004*%
%ADD292R,0.1602X0.0004*%
%ADD293R,0.1594X0.0004*%
%ADD294R,0.1587X0.0004*%
%ADD295R,0.1575X0.0004*%
%ADD296R,0.1567X0.0004*%
%ADD297R,0.1559X0.0004*%
%ADD298R,0.1551X0.0004*%
%ADD299R,0.1535X0.0004*%
%ADD300R,0.0843X0.0004*%
%ADD301R,0.0685X0.0004*%
%ADD302R,0.0815X0.0004*%
%ADD303R,0.0654X0.0004*%
%ADD304R,0.0787X0.0004*%
%ADD305R,0.0776X0.0004*%
%ADD306R,0.0748X0.0004*%
%ADD307R,0.0587X0.0004*%
%ADD308R,0.0732X0.0004*%
%ADD309R,0.0579X0.0004*%
%ADD310R,0.0724X0.0004*%
%ADD311R,0.0571X0.0004*%
%ADD312R,0.0720X0.0004*%
%ADD313R,0.0563X0.0004*%
%ADD314R,0.0713X0.0004*%
%ADD315R,0.0559X0.0004*%
%ADD316R,0.0705X0.0004*%
%ADD317R,0.0555X0.0004*%
%ADD318R,0.0701X0.0004*%
%ADD319R,0.0547X0.0004*%
%ADD320R,0.0693X0.0004*%
%ADD321R,0.0689X0.0004*%
%ADD322R,0.0681X0.0004*%
%ADD323R,0.0531X0.0004*%
%ADD324R,0.0673X0.0004*%
%ADD325R,0.0524X0.0004*%
%ADD326R,0.0516X0.0004*%
%ADD327R,0.0657X0.0004*%
%ADD328R,0.0504X0.0004*%
%ADD329R,0.0650X0.0004*%
%ADD330R,0.0646X0.0004*%
%ADD331R,0.0500X0.0004*%
%ADD332R,0.0492X0.0004*%
%ADD333R,0.0488X0.0004*%
%ADD334R,0.0484X0.0004*%
%ADD335R,0.0480X0.0004*%
%ADD336R,0.0591X0.0004*%
%ADD337R,0.1122X0.0004*%
%ADD338R,0.1114X0.0004*%
%ADD339R,0.1106X0.0004*%
%ADD340R,0.1098X0.0004*%
%ADD341R,0.1091X0.0004*%
%ADD342R,0.1079X0.0004*%
%ADD343R,0.1071X0.0004*%
%ADD344R,0.1055X0.0004*%
%ADD345R,0.1047X0.0004*%
%ADD346R,0.1035X0.0004*%
%ADD347R,0.1028X0.0004*%
%ADD348R,0.1012X0.0004*%
%ADD349R,0.1004X0.0004*%
%ADD350R,0.0996X0.0004*%
%ADD351R,0.0992X0.0004*%
%ADD352R,0.0984X0.0004*%
%ADD353R,0.0976X0.0004*%
%ADD354R,0.0969X0.0004*%
%ADD355R,0.0953X0.0004*%
%ADD356R,0.0949X0.0004*%
%ADD357R,0.0933X0.0004*%
%ADD358R,0.0917X0.0004*%
%ADD359R,0.0909X0.0004*%
%ADD360R,0.0898X0.0004*%
%ADD361R,0.0882X0.0004*%
%ADD362R,0.0874X0.0004*%
%ADD363R,0.0854X0.0004*%
%ADD364R,0.0839X0.0004*%
%ADD365R,0.0831X0.0004*%
%ADD366R,0.0791X0.0004*%
%ADD367R,0.0783X0.0004*%
%ADD368R,0.0764X0.0004*%
%ADD369R,0.0669X0.0004*%
%ADD370R,0.0583X0.0004*%
%ADD371R,0.0551X0.0004*%
%ADD372R,0.0539X0.0004*%
%ADD373R,0.0020X0.0004*%
%ADD374C,0.0000*%
%ADD375C,0.0768*%
%ADD376C,0.0594*%
%ADD377OC8,0.0554*%
%ADD378C,0.0554*%
%ADD379R,0.0594X0.0594*%
%ADD380OC8,0.0594*%
%ADD381R,0.0681X0.0657*%
%ADD382C,0.0554*%
%ADD383C,0.0160*%
%ADD384OC8,0.0660*%
%ADD385C,0.0400*%
%ADD386OC8,0.0591*%
%ADD387C,0.0240*%
%ADD388OC8,0.0827*%
%ADD389C,0.0320*%
%ADD390C,0.0100*%
D10*
X034035Y006611D02*
X034035Y007201D01*
X034231Y007201D02*
X033838Y007201D01*
X034482Y007103D02*
X034482Y006709D01*
X034581Y006611D01*
X034778Y006611D01*
X034876Y006709D01*
X034876Y007103D01*
X034778Y007201D01*
X034581Y007201D01*
X034482Y007103D01*
X035127Y007201D02*
X035127Y006611D01*
X035127Y006807D02*
X035422Y006807D01*
X035521Y006906D01*
X035521Y007103D01*
X035422Y007201D01*
X035127Y007201D01*
D11*
X006188Y000564D03*
X005908Y000438D03*
X005810Y000564D03*
X005652Y001485D03*
X003550Y002619D03*
X004991Y003875D03*
D12*
X006312Y001544D03*
X006099Y000556D03*
X005957Y000493D03*
X005941Y000461D03*
X005914Y000442D03*
X005721Y000556D03*
X005524Y000572D03*
X005430Y000568D03*
X005316Y000505D03*
X004414Y000505D03*
X004323Y000505D03*
X003804Y000528D03*
X003800Y000501D03*
X003564Y000591D03*
D13*
X003827Y000485D03*
X004221Y000489D03*
X004225Y000485D03*
X004367Y000591D03*
X004528Y000572D03*
X004843Y000485D03*
X005032Y000489D03*
X005272Y000591D03*
X005918Y000446D03*
X006599Y000572D03*
X003552Y002635D03*
X004808Y004024D03*
D14*
X004329Y002241D03*
X005211Y001627D03*
X005766Y000591D03*
X005735Y000552D03*
X005920Y000450D03*
X005959Y000509D03*
X006113Y000552D03*
X006184Y000524D03*
X006699Y000572D03*
X004837Y000532D03*
X004369Y000485D03*
X004026Y000489D03*
X003880Y000548D03*
X003849Y000591D03*
X003817Y000532D03*
X003117Y000623D03*
D15*
X003115Y000619D03*
X003379Y000485D03*
X003567Y000485D03*
X003827Y000489D03*
X004587Y000584D03*
X004627Y000572D03*
X004843Y000489D03*
X005272Y000485D03*
X005922Y000454D03*
X005957Y000513D03*
X006449Y000485D03*
X005339Y001280D03*
X005339Y001284D03*
X005339Y001288D03*
X005339Y001292D03*
X005339Y001296D03*
X005339Y001300D03*
X005339Y001304D03*
X005339Y001308D03*
X005339Y001312D03*
X005339Y001316D03*
X005339Y001320D03*
X005339Y001324D03*
X005339Y001328D03*
X005339Y001332D03*
X005339Y001336D03*
X005339Y001339D03*
X005339Y001343D03*
X005339Y001347D03*
X005339Y001351D03*
X005339Y001355D03*
X005339Y001359D03*
X005339Y001363D03*
X005339Y001367D03*
X005339Y001371D03*
X005339Y001375D03*
X005339Y001379D03*
X005339Y001383D03*
X005339Y001387D03*
X005339Y001391D03*
X005339Y001395D03*
X005339Y001399D03*
X005339Y001402D03*
X005339Y001406D03*
X005339Y001410D03*
X005339Y001414D03*
X005339Y001418D03*
X005339Y001422D03*
X005339Y001426D03*
X005339Y001430D03*
X005339Y001434D03*
X005339Y001438D03*
X005339Y001442D03*
X005339Y001446D03*
X005339Y001450D03*
X004331Y002245D03*
X004331Y002249D03*
X004331Y002253D03*
X004331Y002257D03*
X004331Y002261D03*
X004331Y002265D03*
X003552Y002643D03*
D16*
X004329Y002288D03*
X004329Y002284D03*
X004329Y002280D03*
X004329Y002276D03*
X004329Y002273D03*
X004329Y002269D03*
X005337Y001454D03*
X004691Y000584D03*
X003566Y000587D03*
X003377Y000587D03*
X005924Y000458D03*
X006447Y000587D03*
X006660Y000584D03*
X006766Y000584D03*
X004806Y004005D03*
X004806Y004009D03*
D17*
X004810Y004028D03*
X004589Y000591D03*
X004518Y000560D03*
X004432Y000552D03*
X004428Y000560D03*
X004424Y000564D03*
X004428Y000517D03*
X004424Y000513D03*
X004310Y000513D03*
X004306Y000517D03*
X004302Y000528D03*
X004306Y000556D03*
X004310Y000560D03*
X004314Y000564D03*
X004203Y000505D03*
X004101Y000513D03*
X004101Y000517D03*
X003995Y000509D03*
X003991Y000517D03*
X003896Y000509D03*
X003896Y000568D03*
X003798Y000568D03*
X003794Y000505D03*
X003617Y000509D03*
X003613Y000505D03*
X003518Y000568D03*
X003514Y000564D03*
X003424Y000568D03*
X003428Y000509D03*
X003424Y000505D03*
X003329Y000568D03*
X003199Y000556D03*
X003199Y000552D03*
X003093Y000611D03*
X004723Y000568D03*
X004814Y000524D03*
X004810Y000509D03*
X004912Y000509D03*
X005014Y000505D03*
X005010Y000568D03*
X005207Y000524D03*
X005211Y000517D03*
X005215Y000513D03*
X005329Y000513D03*
X005333Y000517D03*
X005337Y000524D03*
X005337Y000548D03*
X005333Y000556D03*
X005424Y000556D03*
X005424Y000560D03*
X005530Y000568D03*
X005534Y000564D03*
X005534Y000560D03*
X005711Y000509D03*
X005896Y000584D03*
X005904Y000572D03*
X005908Y000564D03*
X005959Y000485D03*
X005959Y000481D03*
X005951Y000469D03*
X005947Y000465D03*
X006089Y000509D03*
X006294Y000505D03*
X006400Y000509D03*
X006400Y000568D03*
X006495Y000568D03*
X006589Y000560D03*
X006589Y000556D03*
X006695Y000556D03*
X006695Y000560D03*
X006794Y000568D03*
X006798Y000564D03*
D18*
X006800Y000560D03*
X006800Y000556D03*
X006800Y000552D03*
X006800Y000548D03*
X006800Y000544D03*
X006800Y000540D03*
X006800Y000536D03*
X006800Y000532D03*
X006800Y000528D03*
X006800Y000524D03*
X006800Y000521D03*
X006800Y000517D03*
X006800Y000513D03*
X006800Y000509D03*
X006800Y000505D03*
X006800Y000501D03*
X006800Y000497D03*
X006800Y000493D03*
X006800Y000489D03*
X006800Y000485D03*
X006693Y000485D03*
X006693Y000489D03*
X006693Y000493D03*
X006693Y000497D03*
X006693Y000501D03*
X006693Y000505D03*
X006693Y000509D03*
X006693Y000513D03*
X006693Y000517D03*
X006693Y000521D03*
X006693Y000524D03*
X006693Y000528D03*
X006693Y000532D03*
X006693Y000536D03*
X006693Y000540D03*
X006693Y000544D03*
X006693Y000548D03*
X006693Y000552D03*
X006587Y000552D03*
X006587Y000548D03*
X006587Y000544D03*
X006587Y000540D03*
X006587Y000536D03*
X006587Y000532D03*
X006587Y000528D03*
X006587Y000524D03*
X006587Y000521D03*
X006587Y000517D03*
X006587Y000513D03*
X006587Y000509D03*
X006587Y000505D03*
X006587Y000501D03*
X006587Y000497D03*
X006587Y000493D03*
X006587Y000489D03*
X006587Y000485D03*
X006501Y000509D03*
X006501Y000513D03*
X006504Y000548D03*
X006504Y000552D03*
X006449Y000481D03*
X006394Y000513D03*
X006394Y000517D03*
X006390Y000521D03*
X006390Y000524D03*
X006390Y000528D03*
X006390Y000548D03*
X006390Y000552D03*
X006394Y000560D03*
X006398Y000564D03*
X006292Y000564D03*
X006292Y000568D03*
X006292Y000560D03*
X006292Y000556D03*
X006292Y000552D03*
X006292Y000548D03*
X006292Y000544D03*
X006292Y000540D03*
X006292Y000536D03*
X006292Y000532D03*
X006292Y000528D03*
X006292Y000524D03*
X006292Y000521D03*
X006292Y000517D03*
X006292Y000513D03*
X006292Y000509D03*
X006292Y000595D03*
X006292Y000599D03*
X006292Y000603D03*
X006292Y000607D03*
X006292Y000611D03*
X006292Y000615D03*
X006193Y000568D03*
X006201Y000517D03*
X006201Y000513D03*
X006201Y000509D03*
X006197Y000505D03*
X006087Y000513D03*
X006091Y000560D03*
X006095Y000572D03*
X006024Y000591D03*
X006020Y000587D03*
X006020Y000584D03*
X006016Y000580D03*
X006016Y000576D03*
X006012Y000572D03*
X006008Y000564D03*
X006004Y000556D03*
X006001Y000552D03*
X005997Y000544D03*
X005993Y000536D03*
X005989Y000528D03*
X005957Y000477D03*
X005953Y000473D03*
X005926Y000532D03*
X005922Y000540D03*
X005918Y000548D03*
X005914Y000552D03*
X005914Y000556D03*
X005910Y000560D03*
X005906Y000568D03*
X005902Y000576D03*
X005898Y000580D03*
X005894Y000587D03*
X005894Y000591D03*
X005816Y000568D03*
X005823Y000517D03*
X005823Y000513D03*
X005823Y000509D03*
X005819Y000505D03*
X005709Y000513D03*
X005713Y000560D03*
X005717Y000572D03*
X005536Y000556D03*
X005536Y000552D03*
X005536Y000548D03*
X005536Y000544D03*
X005536Y000540D03*
X005536Y000536D03*
X005536Y000532D03*
X005536Y000528D03*
X005536Y000524D03*
X005536Y000521D03*
X005536Y000517D03*
X005536Y000513D03*
X005536Y000509D03*
X005536Y000505D03*
X005536Y000501D03*
X005536Y000497D03*
X005536Y000493D03*
X005536Y000489D03*
X005536Y000485D03*
X005422Y000485D03*
X005422Y000489D03*
X005422Y000493D03*
X005422Y000497D03*
X005422Y000501D03*
X005422Y000505D03*
X005422Y000509D03*
X005422Y000513D03*
X005422Y000517D03*
X005422Y000521D03*
X005422Y000524D03*
X005422Y000528D03*
X005422Y000532D03*
X005422Y000536D03*
X005422Y000540D03*
X005422Y000544D03*
X005422Y000548D03*
X005422Y000552D03*
X005339Y000544D03*
X005339Y000540D03*
X005339Y000536D03*
X005339Y000532D03*
X005339Y000528D03*
X005335Y000521D03*
X005335Y000552D03*
X005331Y000560D03*
X005272Y000481D03*
X005209Y000521D03*
X005205Y000528D03*
X005205Y000532D03*
X005205Y000536D03*
X005205Y000540D03*
X005205Y000544D03*
X005205Y000548D03*
X005209Y000552D03*
X005209Y000556D03*
X005213Y000560D03*
X005123Y000560D03*
X005123Y000564D03*
X005123Y000568D03*
X005123Y000572D03*
X005123Y000576D03*
X005123Y000580D03*
X005123Y000584D03*
X005123Y000587D03*
X005123Y000611D03*
X005123Y000615D03*
X005123Y000619D03*
X005123Y000623D03*
X005123Y000627D03*
X005123Y000631D03*
X005123Y000556D03*
X005123Y000552D03*
X005123Y000548D03*
X005123Y000544D03*
X005123Y000540D03*
X005123Y000536D03*
X005123Y000532D03*
X005123Y000528D03*
X005123Y000524D03*
X005123Y000521D03*
X005123Y000517D03*
X005123Y000513D03*
X005123Y000509D03*
X005123Y000505D03*
X005123Y000501D03*
X005123Y000497D03*
X005123Y000493D03*
X005123Y000489D03*
X005123Y000485D03*
X005012Y000509D03*
X004922Y000489D03*
X004914Y000513D03*
X004914Y000517D03*
X004914Y000564D03*
X004914Y000568D03*
X004816Y000568D03*
X004808Y000521D03*
X004808Y000517D03*
X004808Y000513D03*
X004725Y000552D03*
X004725Y000556D03*
X004725Y000560D03*
X004725Y000564D03*
X004623Y000556D03*
X004623Y000552D03*
X004623Y000548D03*
X004623Y000544D03*
X004516Y000544D03*
X004516Y000548D03*
X004516Y000552D03*
X004516Y000556D03*
X004434Y000548D03*
X004434Y000544D03*
X004434Y000540D03*
X004434Y000536D03*
X004434Y000532D03*
X004434Y000528D03*
X004434Y000524D03*
X004430Y000521D03*
X004430Y000556D03*
X004367Y000481D03*
X004304Y000521D03*
X004304Y000524D03*
X004300Y000532D03*
X004300Y000536D03*
X004300Y000540D03*
X004300Y000544D03*
X004304Y000548D03*
X004304Y000552D03*
X004201Y000552D03*
X004201Y000548D03*
X004201Y000544D03*
X004201Y000540D03*
X004201Y000536D03*
X004201Y000532D03*
X004201Y000528D03*
X004201Y000524D03*
X004201Y000521D03*
X004201Y000517D03*
X004201Y000513D03*
X004201Y000509D03*
X004201Y000556D03*
X004201Y000560D03*
X004201Y000564D03*
X004201Y000568D03*
X004201Y000595D03*
X004201Y000599D03*
X004201Y000603D03*
X004201Y000607D03*
X004201Y000611D03*
X004201Y000615D03*
X004103Y000591D03*
X004103Y000587D03*
X004103Y000584D03*
X004103Y000580D03*
X004103Y000576D03*
X004103Y000572D03*
X004103Y000568D03*
X004103Y000564D03*
X004103Y000560D03*
X004103Y000556D03*
X004103Y000552D03*
X004103Y000548D03*
X004103Y000544D03*
X004103Y000540D03*
X004103Y000536D03*
X004103Y000532D03*
X004103Y000528D03*
X004103Y000524D03*
X004103Y000521D03*
X003993Y000513D03*
X003989Y000521D03*
X003989Y000524D03*
X003989Y000528D03*
X003989Y000532D03*
X003989Y000536D03*
X003989Y000540D03*
X003989Y000544D03*
X003989Y000548D03*
X003989Y000552D03*
X003989Y000556D03*
X003989Y000560D03*
X003989Y000564D03*
X003989Y000568D03*
X003989Y000572D03*
X003989Y000576D03*
X003989Y000580D03*
X003989Y000584D03*
X003989Y000587D03*
X003898Y000564D03*
X003898Y000560D03*
X003898Y000556D03*
X003898Y000532D03*
X003898Y000528D03*
X003898Y000524D03*
X003898Y000521D03*
X003898Y000517D03*
X003898Y000513D03*
X003906Y000485D03*
X003792Y000509D03*
X003792Y000513D03*
X003792Y000517D03*
X003792Y000521D03*
X003796Y000524D03*
X003796Y000564D03*
X003623Y000548D03*
X003619Y000560D03*
X003615Y000564D03*
X003611Y000568D03*
X003619Y000513D03*
X003567Y000481D03*
X003516Y000509D03*
X003512Y000513D03*
X003508Y000517D03*
X003508Y000521D03*
X003508Y000524D03*
X003508Y000528D03*
X003508Y000548D03*
X003508Y000552D03*
X003508Y000556D03*
X003512Y000560D03*
X003434Y000552D03*
X003434Y000548D03*
X003430Y000560D03*
X003430Y000513D03*
X003379Y000481D03*
X003327Y000509D03*
X003323Y000513D03*
X003323Y000517D03*
X003319Y000521D03*
X003319Y000524D03*
X003319Y000528D03*
X003319Y000548D03*
X003319Y000552D03*
X003319Y000556D03*
X003323Y000560D03*
X003327Y000564D03*
X003260Y000591D03*
X003197Y000548D03*
X003197Y000544D03*
X003197Y000540D03*
X003197Y000536D03*
X003197Y000532D03*
X003197Y000528D03*
X003197Y000524D03*
X003197Y000521D03*
X003197Y000517D03*
X003197Y000513D03*
X003197Y000509D03*
X003197Y000505D03*
X003197Y000501D03*
X003197Y000497D03*
X003197Y000493D03*
X003197Y000489D03*
X003197Y000485D03*
X003091Y000485D03*
X003091Y000489D03*
X003091Y000493D03*
X003091Y000497D03*
X003091Y000501D03*
X003091Y000505D03*
X003091Y000509D03*
X003091Y000513D03*
X003091Y000517D03*
X003091Y000521D03*
X003091Y000524D03*
X003091Y000528D03*
X003091Y000532D03*
X003091Y000536D03*
X003091Y000540D03*
X003091Y000544D03*
X003091Y000548D03*
X003091Y000552D03*
X003091Y000556D03*
X003091Y000560D03*
X003091Y000564D03*
X003091Y000568D03*
X003091Y000595D03*
X003091Y000599D03*
X003091Y000603D03*
X003091Y000607D03*
X003552Y002627D03*
X004989Y003863D03*
X004808Y004032D03*
D19*
X004989Y003867D03*
X003552Y002623D03*
X004512Y000591D03*
X004225Y000481D03*
X004024Y000481D03*
X003823Y000481D03*
X004843Y000481D03*
X005036Y000481D03*
X006316Y000481D03*
X006300Y001540D03*
D20*
X006316Y001721D03*
X006190Y000572D03*
X006197Y000521D03*
X006146Y000481D03*
X006095Y000505D03*
X005819Y000521D03*
X005812Y000572D03*
X005768Y000481D03*
X005717Y000505D03*
X005501Y000591D03*
X005426Y000564D03*
X005327Y000564D03*
X005323Y000509D03*
X005217Y000564D03*
X004910Y000552D03*
X004812Y000505D03*
X004693Y000591D03*
X004623Y000560D03*
X004520Y000564D03*
X004422Y000509D03*
X004316Y000509D03*
X003997Y000505D03*
X003894Y000552D03*
X003804Y000572D03*
X003520Y000505D03*
X003331Y000505D03*
X003256Y000587D03*
X003201Y000560D03*
X003552Y002631D03*
X006489Y000572D03*
X006497Y000505D03*
X006406Y000505D03*
X006591Y000564D03*
X006662Y000591D03*
X006768Y000591D03*
D21*
X006699Y000568D03*
X006447Y000591D03*
X006317Y000485D03*
X005959Y000497D03*
X005227Y000505D03*
X005034Y000485D03*
X004625Y000568D03*
X004093Y000505D03*
X004026Y000485D03*
X003377Y000591D03*
X003207Y000568D03*
D22*
X003195Y000584D03*
X003195Y000587D03*
X003195Y000591D03*
X003428Y000564D03*
X003432Y000556D03*
X003621Y000556D03*
X003621Y000552D03*
X003904Y000489D03*
X003991Y000591D03*
X004105Y000493D03*
X004105Y000489D03*
X004105Y000485D03*
X004514Y000489D03*
X004514Y000485D03*
X004514Y000493D03*
X004514Y000497D03*
X004514Y000501D03*
X004514Y000505D03*
X004514Y000509D03*
X004514Y000513D03*
X004514Y000517D03*
X004514Y000521D03*
X004514Y000524D03*
X004514Y000528D03*
X004514Y000532D03*
X004514Y000536D03*
X004514Y000540D03*
X004514Y000584D03*
X004514Y000587D03*
X004621Y000540D03*
X004621Y000536D03*
X004621Y000532D03*
X004621Y000528D03*
X004621Y000524D03*
X004621Y000521D03*
X004621Y000517D03*
X004621Y000513D03*
X004621Y000509D03*
X004621Y000505D03*
X004621Y000501D03*
X004621Y000497D03*
X004621Y000493D03*
X004621Y000489D03*
X004621Y000485D03*
X004727Y000485D03*
X004727Y000489D03*
X004727Y000493D03*
X004727Y000497D03*
X004727Y000501D03*
X004727Y000505D03*
X004727Y000509D03*
X004727Y000513D03*
X004727Y000517D03*
X004727Y000521D03*
X004727Y000524D03*
X004727Y000528D03*
X004727Y000532D03*
X004727Y000536D03*
X004727Y000540D03*
X004727Y000544D03*
X004727Y000548D03*
X004814Y000564D03*
X004916Y000560D03*
X004916Y000556D03*
X004916Y000532D03*
X004916Y000528D03*
X004916Y000524D03*
X004916Y000521D03*
X004924Y000485D03*
X005010Y000513D03*
X005010Y000517D03*
X005010Y000521D03*
X005010Y000524D03*
X005010Y000528D03*
X005010Y000532D03*
X005010Y000536D03*
X005010Y000540D03*
X005010Y000544D03*
X005010Y000548D03*
X005010Y000552D03*
X005010Y000556D03*
X005010Y000560D03*
X005010Y000564D03*
X005010Y000595D03*
X005010Y000599D03*
X005010Y000603D03*
X005010Y000607D03*
X005010Y000611D03*
X005010Y000615D03*
X005121Y000635D03*
X005121Y000591D03*
X005420Y000591D03*
X005420Y000587D03*
X005420Y000584D03*
X005420Y000580D03*
X005711Y000564D03*
X005715Y000568D03*
X005920Y000544D03*
X005924Y000536D03*
X005928Y000528D03*
X005932Y000524D03*
X005932Y000521D03*
X005936Y000517D03*
X005983Y000517D03*
X005983Y000521D03*
X005987Y000524D03*
X005991Y000532D03*
X005995Y000540D03*
X005999Y000548D03*
X006006Y000560D03*
X006010Y000568D03*
X006089Y000568D03*
X006089Y000564D03*
X006392Y000556D03*
X006499Y000564D03*
X006503Y000560D03*
X006503Y000556D03*
X006585Y000580D03*
X006585Y000584D03*
X006585Y000587D03*
X006585Y000591D03*
X004806Y004036D03*
D23*
X005430Y002713D03*
X005430Y002710D03*
X005430Y002706D03*
X005430Y002702D03*
X005430Y002698D03*
X005430Y002694D03*
X005430Y002690D03*
X005430Y002686D03*
X005430Y002682D03*
X005430Y002678D03*
X005430Y002674D03*
X005430Y002670D03*
X005430Y002666D03*
X005430Y002662D03*
X005430Y002658D03*
X005430Y002654D03*
X005430Y002650D03*
X005430Y002647D03*
X004327Y002316D03*
X004327Y002312D03*
X004327Y002308D03*
X004327Y002304D03*
X004327Y002300D03*
X004327Y002296D03*
X004327Y002292D03*
X004367Y000587D03*
X005272Y000587D03*
X005501Y000584D03*
X005768Y000485D03*
X006146Y000485D03*
D24*
X006170Y000528D03*
X006449Y000489D03*
X006764Y000580D03*
X006753Y000859D03*
X006753Y000863D03*
X006756Y000867D03*
X006756Y000871D03*
X006756Y000875D03*
X006422Y001028D03*
X006422Y001032D03*
X006418Y001021D03*
X006213Y001024D03*
X006213Y001021D03*
X006213Y001017D03*
X006213Y001013D03*
X006213Y001009D03*
X006213Y001005D03*
X006213Y001001D03*
X006213Y000997D03*
X006213Y000993D03*
X006213Y000989D03*
X006213Y000985D03*
X006213Y000981D03*
X006213Y000977D03*
X006213Y000973D03*
X006213Y000969D03*
X006213Y000965D03*
X006213Y000961D03*
X006213Y000958D03*
X006213Y000954D03*
X006213Y000950D03*
X006213Y000946D03*
X006213Y000942D03*
X006213Y000938D03*
X006213Y000934D03*
X006213Y000930D03*
X006213Y000926D03*
X006213Y000922D03*
X006213Y000918D03*
X006213Y000914D03*
X006213Y000910D03*
X006213Y000906D03*
X006213Y000902D03*
X006213Y000899D03*
X006213Y000895D03*
X006213Y000891D03*
X006213Y000887D03*
X006213Y000883D03*
X006213Y000879D03*
X006213Y000875D03*
X006213Y000871D03*
X006213Y000867D03*
X006213Y000863D03*
X006213Y000859D03*
X006213Y000855D03*
X006213Y000851D03*
X006213Y000847D03*
X006213Y000843D03*
X006213Y000839D03*
X006213Y001028D03*
X006213Y001032D03*
X006213Y001036D03*
X006213Y001040D03*
X006213Y001044D03*
X006213Y001048D03*
X006213Y001052D03*
X006213Y001056D03*
X006213Y001060D03*
X006213Y001064D03*
X006213Y001068D03*
X006213Y001072D03*
X006213Y001076D03*
X006213Y001080D03*
X006213Y001084D03*
X006213Y001087D03*
X006213Y001091D03*
X006213Y001095D03*
X006213Y001099D03*
X006213Y001103D03*
X006213Y001107D03*
X006213Y001111D03*
X006213Y001115D03*
X006213Y001119D03*
X006213Y001123D03*
X006213Y001127D03*
X006213Y001131D03*
X006213Y001135D03*
X006213Y001139D03*
X006213Y001143D03*
X006213Y001147D03*
X006213Y001150D03*
X006213Y001154D03*
X006213Y001158D03*
X006213Y001162D03*
X005859Y001162D03*
X005859Y001158D03*
X005859Y001154D03*
X005859Y001150D03*
X005859Y001147D03*
X005859Y001143D03*
X005859Y001139D03*
X005859Y001135D03*
X005859Y001131D03*
X005859Y001127D03*
X005859Y001123D03*
X005859Y001119D03*
X005859Y001115D03*
X005859Y001111D03*
X005859Y001107D03*
X005859Y001103D03*
X005859Y001099D03*
X005859Y001095D03*
X005859Y001091D03*
X005859Y001087D03*
X005859Y001084D03*
X005859Y001080D03*
X005859Y001076D03*
X005859Y001072D03*
X005859Y001068D03*
X005859Y001064D03*
X005859Y001060D03*
X005859Y001056D03*
X005859Y001052D03*
X005859Y001048D03*
X005859Y001044D03*
X005859Y001040D03*
X005859Y001036D03*
X005859Y001032D03*
X005859Y001028D03*
X005859Y001024D03*
X005859Y001021D03*
X005859Y001017D03*
X005859Y001013D03*
X005859Y001009D03*
X005859Y001005D03*
X005859Y001001D03*
X005859Y000997D03*
X005859Y000993D03*
X005859Y000989D03*
X005859Y000985D03*
X005859Y000981D03*
X005859Y000977D03*
X005859Y000973D03*
X005859Y000969D03*
X005859Y000965D03*
X005859Y000961D03*
X005859Y000958D03*
X005859Y000954D03*
X005859Y000950D03*
X005859Y000946D03*
X005863Y000926D03*
X005863Y000922D03*
X005863Y000918D03*
X005863Y000914D03*
X005863Y000910D03*
X005646Y000871D03*
X005646Y000867D03*
X005646Y001013D03*
X005646Y001017D03*
X005646Y001021D03*
X005276Y001024D03*
X005276Y001021D03*
X005276Y001017D03*
X005276Y001013D03*
X005276Y001009D03*
X005276Y001005D03*
X005276Y001001D03*
X005276Y000997D03*
X005276Y000993D03*
X005276Y000989D03*
X005276Y000985D03*
X005276Y000981D03*
X005276Y000977D03*
X005276Y000973D03*
X005276Y000969D03*
X005276Y000965D03*
X005276Y000961D03*
X005276Y000958D03*
X005276Y000954D03*
X005276Y000950D03*
X005276Y000946D03*
X005276Y000942D03*
X005276Y000938D03*
X005276Y000934D03*
X005276Y000930D03*
X005276Y000926D03*
X005276Y000922D03*
X005276Y000918D03*
X005276Y000914D03*
X005276Y000910D03*
X005276Y000906D03*
X005276Y000902D03*
X005276Y000899D03*
X005276Y000895D03*
X005276Y000891D03*
X005276Y000887D03*
X005276Y000883D03*
X005276Y000879D03*
X005276Y000875D03*
X005276Y000871D03*
X005276Y000867D03*
X005276Y000863D03*
X005276Y000859D03*
X005276Y000855D03*
X005276Y000851D03*
X005276Y000847D03*
X005276Y000843D03*
X005276Y000836D03*
X005276Y001028D03*
X005276Y001032D03*
X005276Y001036D03*
X005276Y001040D03*
X005276Y001048D03*
X004729Y001005D03*
X004725Y000883D03*
X004867Y000587D03*
X004367Y000489D03*
X004205Y000572D03*
X004205Y000576D03*
X004205Y000580D03*
X004205Y000584D03*
X004205Y000587D03*
X004174Y000839D03*
X004174Y000843D03*
X004174Y000847D03*
X004174Y000851D03*
X004174Y000855D03*
X004174Y000859D03*
X004174Y000863D03*
X004174Y000867D03*
X004174Y000871D03*
X004174Y000875D03*
X004174Y000879D03*
X004174Y000883D03*
X004182Y001009D03*
X003969Y001036D03*
X003969Y001040D03*
X003965Y001028D03*
X003595Y001032D03*
X003595Y001028D03*
X003595Y001024D03*
X003595Y001021D03*
X003595Y001017D03*
X003595Y001013D03*
X003595Y001009D03*
X003595Y001005D03*
X003595Y001001D03*
X003595Y000997D03*
X003595Y000993D03*
X003595Y000989D03*
X003595Y000985D03*
X003595Y000981D03*
X003595Y000977D03*
X003595Y000973D03*
X003595Y000969D03*
X003595Y000965D03*
X003595Y000961D03*
X003595Y000958D03*
X003595Y000954D03*
X003595Y000950D03*
X003595Y000946D03*
X003595Y000942D03*
X003595Y000938D03*
X003595Y000934D03*
X003595Y000930D03*
X003595Y000926D03*
X003595Y000922D03*
X003595Y000918D03*
X003595Y000914D03*
X003595Y000910D03*
X003595Y000906D03*
X003595Y000902D03*
X003595Y000899D03*
X003595Y000895D03*
X003595Y000891D03*
X003595Y000887D03*
X003595Y000883D03*
X003595Y000879D03*
X003595Y000875D03*
X003595Y000871D03*
X003595Y000867D03*
X003595Y000863D03*
X003595Y000859D03*
X003595Y000855D03*
X003595Y000851D03*
X003595Y000847D03*
X003595Y000843D03*
X003595Y000839D03*
X003595Y000836D03*
X003595Y000832D03*
X003595Y000828D03*
X003595Y000824D03*
X003595Y000820D03*
X003595Y000816D03*
X003595Y000812D03*
X003595Y000808D03*
X003595Y000804D03*
X003595Y000800D03*
X003595Y000796D03*
X003595Y000792D03*
X003595Y000788D03*
X003595Y000784D03*
X003595Y000780D03*
X003595Y000776D03*
X003595Y000773D03*
X003595Y000769D03*
X003595Y000765D03*
X003595Y000761D03*
X003595Y000757D03*
X003595Y000753D03*
X003595Y000749D03*
X003595Y000745D03*
X003595Y000741D03*
X003595Y000737D03*
X003595Y000733D03*
X003595Y000729D03*
X003595Y000725D03*
X003595Y000721D03*
X003595Y000717D03*
X003567Y000489D03*
X003379Y000489D03*
X003225Y000572D03*
X003071Y000717D03*
X003071Y000721D03*
X003071Y000725D03*
X003071Y000729D03*
X003071Y000733D03*
X003071Y000737D03*
X003071Y000741D03*
X003071Y000745D03*
X003071Y000749D03*
X003071Y000753D03*
X003071Y000757D03*
X003071Y000761D03*
X003071Y000765D03*
X003071Y000769D03*
X003071Y000773D03*
X003071Y000776D03*
X003071Y000780D03*
X003071Y000784D03*
X003071Y000788D03*
X003071Y000792D03*
X003071Y000796D03*
X003071Y000800D03*
X003071Y000804D03*
X003071Y000808D03*
X003071Y000812D03*
X003071Y000816D03*
X003071Y000820D03*
X003071Y000824D03*
X003071Y000828D03*
X003071Y000832D03*
X003071Y000836D03*
X003071Y000839D03*
X003071Y000843D03*
X003071Y000847D03*
X003071Y000851D03*
X003071Y000855D03*
X003071Y000859D03*
X003071Y000863D03*
X003071Y000867D03*
X003071Y000871D03*
X003071Y000875D03*
X003071Y000879D03*
X003071Y000883D03*
X003079Y001009D03*
X003595Y001036D03*
X003595Y001040D03*
X003595Y001044D03*
X003595Y001048D03*
X004323Y002343D03*
X004323Y002347D03*
X004323Y002351D03*
X004323Y002355D03*
X004323Y002359D03*
X004323Y002363D03*
X005335Y001690D03*
X005335Y001686D03*
X005335Y001682D03*
X005335Y001678D03*
X005335Y001674D03*
X005335Y001670D03*
X005335Y001666D03*
X005335Y001662D03*
X005335Y001658D03*
X005335Y001654D03*
X005335Y001650D03*
X005335Y001647D03*
X005335Y001643D03*
X005335Y001639D03*
X006292Y001717D03*
D25*
X005333Y001721D03*
X005333Y001717D03*
X005333Y001713D03*
X005333Y001710D03*
X005333Y001706D03*
X005333Y001702D03*
X005333Y001698D03*
X005648Y001036D03*
X005648Y001032D03*
X005648Y001028D03*
X005648Y001024D03*
X005644Y001009D03*
X005644Y000879D03*
X005644Y000875D03*
X005648Y000863D03*
X005648Y000859D03*
X005648Y000855D03*
X005648Y000851D03*
X005648Y000847D03*
X005865Y000899D03*
X005865Y000902D03*
X005865Y000906D03*
X005869Y000895D03*
X005869Y000891D03*
X005766Y000587D03*
X005499Y000580D03*
X005270Y000489D03*
X004731Y001009D03*
X004731Y001013D03*
X004735Y001021D03*
X004184Y001017D03*
X004184Y001013D03*
X004180Y001005D03*
X003963Y001021D03*
X003963Y001024D03*
X003849Y000587D03*
X003566Y000584D03*
X003377Y000584D03*
X003227Y000576D03*
X003097Y000576D03*
X003097Y000580D03*
X003097Y000584D03*
X003097Y000587D03*
X003097Y000591D03*
X003097Y000572D03*
X003077Y001005D03*
X003081Y001013D03*
X003081Y001017D03*
X004325Y002367D03*
X006424Y001036D03*
X006751Y000855D03*
X006447Y000584D03*
X006144Y000587D03*
X006125Y000548D03*
X004806Y003997D03*
D26*
X005705Y002647D03*
X004319Y002446D03*
X004319Y002442D03*
X004319Y002438D03*
X004319Y002434D03*
X004319Y002430D03*
X004319Y002426D03*
X004319Y002422D03*
X003552Y002654D03*
X003091Y001032D03*
X003375Y000580D03*
X003379Y000493D03*
X003567Y000493D03*
X003564Y000580D03*
X003886Y000820D03*
X003890Y000816D03*
X003902Y000800D03*
X003914Y000784D03*
X003918Y000780D03*
X003926Y000769D03*
X003930Y000765D03*
X003934Y000761D03*
X003938Y000753D03*
X003941Y000749D03*
X003945Y000745D03*
X003949Y000737D03*
X003953Y000733D03*
X003957Y000729D03*
X003961Y000725D03*
X003961Y000721D03*
X003965Y000717D03*
X003875Y000836D03*
X003863Y000851D03*
X004193Y001032D03*
X004741Y001032D03*
X004745Y001036D03*
X004867Y000584D03*
X005642Y000836D03*
X005638Y000887D03*
X005879Y000867D03*
X006430Y001044D03*
X006745Y000843D03*
X006449Y000580D03*
X006449Y000493D03*
X006162Y000532D03*
X005784Y000532D03*
X005768Y000489D03*
D27*
X005959Y000489D03*
X006408Y000572D03*
X006593Y000568D03*
X006695Y000564D03*
X006790Y000572D03*
X005321Y000568D03*
X005223Y000568D03*
X005219Y000509D03*
X004908Y000505D03*
X004908Y000572D03*
X004821Y000572D03*
X004821Y000528D03*
X004817Y000501D03*
X004719Y000572D03*
X004625Y000564D03*
X004522Y000568D03*
X004416Y000568D03*
X004317Y000568D03*
X004097Y000509D03*
X003892Y000505D03*
X003888Y000572D03*
X003605Y000572D03*
X003526Y000572D03*
X003416Y000572D03*
X003337Y000572D03*
X003254Y000584D03*
X003203Y000564D03*
X003125Y000635D03*
X003101Y000615D03*
X002955Y001269D03*
D28*
X002979Y001273D03*
X003089Y001028D03*
X003085Y001024D03*
X003955Y001009D03*
X003959Y001013D03*
X004188Y001024D03*
X004191Y001028D03*
X004369Y000584D03*
X004739Y001028D03*
X005270Y000584D03*
X005644Y001048D03*
X005873Y000879D03*
X005877Y000871D03*
X006144Y000489D03*
X006747Y000847D03*
X004321Y002399D03*
X004321Y002402D03*
X004321Y002406D03*
X004321Y002410D03*
X004321Y002414D03*
X004321Y002418D03*
X004806Y003993D03*
D29*
X004806Y004017D03*
X004806Y004021D03*
X005888Y002706D03*
X004333Y002210D03*
X004333Y002206D03*
X004333Y002202D03*
X004333Y002198D03*
X004333Y002194D03*
X004589Y000587D03*
X004904Y000501D03*
X005030Y000493D03*
X005436Y000572D03*
X005959Y000501D03*
X006310Y000497D03*
X006314Y000489D03*
X006660Y000587D03*
X006766Y000587D03*
X004219Y000493D03*
X003884Y000501D03*
X003125Y000631D03*
D30*
X003847Y000497D03*
X003851Y000493D03*
X004367Y000572D03*
X004867Y000493D03*
X005272Y000572D03*
X005768Y000501D03*
X006146Y000501D03*
X006268Y001713D03*
X004882Y002521D03*
X003552Y002666D03*
X004804Y003973D03*
D31*
X004806Y004001D03*
X003554Y002647D03*
X004325Y002339D03*
X004325Y002336D03*
X004325Y002332D03*
X004325Y002328D03*
X004325Y002324D03*
X004325Y002320D03*
X003971Y001048D03*
X003971Y001044D03*
X003967Y001032D03*
X004207Y000591D03*
X004026Y000493D03*
X004691Y000580D03*
X004723Y000839D03*
X004723Y000843D03*
X004723Y000847D03*
X004723Y000851D03*
X004723Y000855D03*
X004723Y000859D03*
X004723Y000863D03*
X004723Y000867D03*
X004723Y000871D03*
X004723Y000875D03*
X004723Y000879D03*
X005014Y000591D03*
X005014Y000587D03*
X005014Y000584D03*
X005014Y000580D03*
X005014Y000576D03*
X005014Y000572D03*
X005274Y000839D03*
X005274Y001044D03*
X005861Y000942D03*
X005861Y000938D03*
X005861Y000934D03*
X005861Y000930D03*
X006298Y000591D03*
X006298Y000587D03*
X006298Y000584D03*
X006298Y000580D03*
X006298Y000576D03*
X006298Y000572D03*
X006660Y000580D03*
X006758Y000879D03*
X006758Y000883D03*
X006416Y001005D03*
X006416Y001009D03*
X006416Y001013D03*
X006416Y001017D03*
X006420Y001024D03*
X005794Y000528D03*
D32*
X005774Y000536D03*
X005758Y000544D03*
X005766Y000584D03*
X005884Y000859D03*
X005880Y000863D03*
X006144Y000584D03*
X006136Y000544D03*
X006436Y001048D03*
X006739Y000839D03*
X005270Y000493D03*
X004369Y000493D03*
X003947Y000741D03*
X003936Y000757D03*
X003924Y000773D03*
X003920Y000776D03*
X003912Y000788D03*
X003908Y000792D03*
X003904Y000796D03*
X003900Y000804D03*
X003896Y000808D03*
X003892Y000812D03*
X003884Y000824D03*
X003880Y000828D03*
X003877Y000832D03*
X003873Y000839D03*
X003869Y000843D03*
X003865Y000847D03*
X003861Y000855D03*
X003857Y000859D03*
X003853Y000863D03*
X003849Y000867D03*
X003849Y000871D03*
X003845Y000875D03*
X003841Y000879D03*
X003837Y000883D03*
X003951Y001005D03*
X004195Y001036D03*
X004199Y001040D03*
X003849Y000584D03*
X003093Y001036D03*
X004317Y002450D03*
X004317Y002454D03*
X004317Y002458D03*
X004317Y002461D03*
X004317Y002465D03*
X004317Y002469D03*
X004806Y003989D03*
D33*
X004869Y002485D03*
X004869Y002481D03*
X004869Y002477D03*
X004869Y002473D03*
X004869Y002469D03*
X004869Y002465D03*
X004869Y002461D03*
X004869Y002458D03*
X004869Y002454D03*
X004869Y002450D03*
X004869Y002446D03*
X004869Y002442D03*
X004869Y002438D03*
X004869Y002434D03*
X004869Y002430D03*
X004869Y002426D03*
X004869Y002422D03*
X004869Y002418D03*
X004869Y002414D03*
X004869Y002410D03*
X004869Y002406D03*
X004869Y002402D03*
X004869Y002399D03*
X004869Y002395D03*
X004869Y002391D03*
X004869Y002387D03*
X004869Y002383D03*
X004314Y002501D03*
X003554Y002658D03*
X005188Y001623D03*
X005888Y000855D03*
X005766Y000580D03*
X005766Y000493D03*
X006144Y000493D03*
X006144Y000580D03*
X006447Y000576D03*
X006451Y000497D03*
X004203Y001044D03*
X003849Y000580D03*
X003566Y000576D03*
X003566Y000497D03*
X003377Y000497D03*
X003377Y000576D03*
X003101Y001044D03*
X005703Y002654D03*
D34*
X004331Y002237D03*
X004331Y002233D03*
X004331Y002229D03*
X004331Y002225D03*
X004331Y002221D03*
X004331Y002217D03*
X004331Y002213D03*
X004414Y001678D03*
X003552Y002639D03*
X004808Y004013D03*
X004867Y000591D03*
X004898Y000548D03*
X005028Y000501D03*
X005028Y000497D03*
X004693Y000587D03*
X004217Y000501D03*
X004217Y000497D03*
X003119Y000627D03*
X005501Y000587D03*
X005808Y000524D03*
X005957Y000505D03*
X006142Y000591D03*
X006308Y000501D03*
X006312Y000493D03*
D35*
X005904Y000843D03*
X004865Y000497D03*
X004050Y000501D03*
X004050Y000497D03*
X004802Y003969D03*
D36*
X004804Y003981D03*
X004316Y002524D03*
X004316Y002521D03*
X004316Y002517D03*
X004316Y002513D03*
X004316Y002509D03*
X004316Y002505D03*
X004871Y002379D03*
X004871Y002375D03*
X004871Y002371D03*
X004871Y002367D03*
X004871Y002363D03*
X004871Y002359D03*
X004871Y002355D03*
X005701Y002658D03*
X004753Y001044D03*
X004867Y000580D03*
X005272Y000497D03*
X004367Y000497D03*
D37*
X004367Y000576D03*
X004760Y001048D03*
X005272Y000576D03*
X005768Y000497D03*
X006142Y000576D03*
X004445Y001682D03*
X004871Y002221D03*
X004871Y002225D03*
X004871Y002229D03*
X004312Y002552D03*
X004312Y002556D03*
X004312Y002560D03*
X004312Y002564D03*
X004312Y002568D03*
X004312Y002572D03*
X004312Y002576D03*
X005682Y002682D03*
X005690Y002670D03*
X004804Y003977D03*
D38*
X005684Y002678D03*
X005688Y002674D03*
X005695Y002666D03*
X005699Y002662D03*
X004869Y002351D03*
X004869Y002347D03*
X004869Y002343D03*
X004869Y002339D03*
X004869Y002336D03*
X004869Y002332D03*
X004869Y002328D03*
X004869Y002324D03*
X004869Y002320D03*
X004869Y002316D03*
X004869Y002312D03*
X004869Y002308D03*
X004869Y002304D03*
X004869Y002300D03*
X004869Y002296D03*
X004869Y002292D03*
X004869Y002288D03*
X004869Y002284D03*
X004869Y002280D03*
X004869Y002276D03*
X004869Y002273D03*
X004869Y002269D03*
X004869Y002265D03*
X004869Y002261D03*
X004869Y002257D03*
X004869Y002253D03*
X004869Y002249D03*
X004869Y002245D03*
X004869Y002241D03*
X004869Y002237D03*
X004869Y002233D03*
X004314Y002528D03*
X004314Y002532D03*
X004314Y002536D03*
X004314Y002540D03*
X004314Y002544D03*
X004314Y002548D03*
X003554Y002662D03*
X005892Y000851D03*
X005766Y000576D03*
X006144Y000497D03*
X006451Y000501D03*
X004869Y000536D03*
X004865Y000576D03*
X003853Y000536D03*
X003849Y000576D03*
X003566Y000501D03*
X003377Y000501D03*
D39*
X003109Y001048D03*
X004211Y001048D03*
X004566Y000580D03*
X004369Y000501D03*
X005270Y000501D03*
X005896Y000847D03*
X004869Y002182D03*
X004869Y002186D03*
X004869Y002190D03*
X004869Y002194D03*
X004869Y002198D03*
X004869Y002202D03*
X004869Y002206D03*
X004869Y002210D03*
X004869Y002213D03*
X004869Y002217D03*
X004310Y002580D03*
X003814Y002745D03*
D40*
X005314Y002647D03*
X006333Y001725D03*
X006310Y000627D03*
X006341Y000505D03*
X006144Y000595D03*
X005766Y000595D03*
X005026Y000627D03*
X004865Y000595D03*
X004251Y000505D03*
X003810Y000560D03*
X004991Y003883D03*
D41*
X004804Y004048D03*
X004001Y002958D03*
X004367Y000595D03*
X004693Y000595D03*
X004827Y000560D03*
X005060Y000505D03*
X005272Y000595D03*
X005501Y000595D03*
X006445Y000595D03*
X006485Y000517D03*
X006662Y000595D03*
X003603Y000517D03*
X003564Y000595D03*
X003414Y000517D03*
X003375Y000595D03*
D42*
X003268Y000568D03*
X003146Y000615D03*
X003847Y000595D03*
X004217Y000627D03*
X005721Y000517D03*
X006099Y000517D03*
X006221Y001536D03*
X003552Y002615D03*
D43*
X003554Y002670D03*
X004377Y002190D03*
X003003Y001276D03*
X003377Y000544D03*
X003377Y000540D03*
X003377Y000536D03*
X003377Y000532D03*
X003566Y000532D03*
X003566Y000540D03*
X003566Y000544D03*
X006447Y000532D03*
X006447Y000536D03*
X006447Y000540D03*
X006447Y000544D03*
X004802Y003965D03*
D44*
X004308Y002662D03*
X003564Y000536D03*
D45*
X003859Y000540D03*
X004367Y000580D03*
X004749Y001040D03*
X004875Y000540D03*
X005272Y000580D03*
X005768Y000540D03*
X006142Y000540D03*
X006150Y000536D03*
X005705Y002650D03*
X004871Y002517D03*
X004871Y002513D03*
X004871Y002509D03*
X004871Y002505D03*
X004871Y002501D03*
X004871Y002497D03*
X004871Y002493D03*
X004871Y002489D03*
X004316Y002493D03*
X004316Y002497D03*
X004316Y002489D03*
X004316Y002485D03*
X004316Y002481D03*
X004316Y002477D03*
X004316Y002473D03*
X004804Y003985D03*
X003095Y001040D03*
D46*
X003083Y001021D03*
X003229Y000580D03*
X003867Y000544D03*
X003961Y001017D03*
X004186Y001021D03*
X004733Y001017D03*
X004737Y001024D03*
X004882Y000544D03*
X005646Y000839D03*
X005646Y000843D03*
X005642Y000883D03*
X005638Y001001D03*
X005642Y001005D03*
X005646Y001040D03*
X005646Y001044D03*
X005871Y000887D03*
X005871Y000883D03*
X005875Y000875D03*
X005749Y000548D03*
X006426Y001040D03*
X006749Y000851D03*
X005331Y001694D03*
X005331Y001725D03*
X005705Y002643D03*
X004323Y002395D03*
X004323Y002391D03*
X004323Y002387D03*
X004323Y002383D03*
X004323Y002379D03*
X004323Y002375D03*
X004323Y002371D03*
X003552Y002650D03*
D47*
X004355Y003473D03*
X004359Y003477D03*
X004363Y003481D03*
X004367Y003485D03*
X004371Y003489D03*
X004375Y003493D03*
X004379Y003497D03*
X004382Y003501D03*
X004386Y003505D03*
X004390Y003509D03*
X004394Y003513D03*
X004398Y003517D03*
X004402Y003521D03*
X004406Y003524D03*
X004410Y003528D03*
X004414Y003532D03*
X004418Y003536D03*
X004422Y003540D03*
X004426Y003544D03*
X004430Y003548D03*
X004434Y003552D03*
X004796Y003914D03*
X005390Y001973D03*
X005390Y001969D03*
X005390Y001965D03*
X005390Y001961D03*
X005390Y001958D03*
X005390Y001954D03*
X005390Y001950D03*
X005390Y001946D03*
X005390Y001942D03*
X005390Y001938D03*
X004619Y000576D03*
D48*
X005477Y000576D03*
D49*
X006691Y000576D03*
X005392Y001977D03*
X005392Y001981D03*
X005392Y001985D03*
X005392Y001989D03*
X005392Y001993D03*
X005392Y001997D03*
X005392Y002001D03*
X005392Y002005D03*
X005392Y002009D03*
X003794Y000895D03*
X003054Y001284D03*
X004274Y003391D03*
X004278Y003395D03*
X004282Y003399D03*
X004286Y003402D03*
X004290Y003406D03*
X004294Y003410D03*
X004298Y003414D03*
X004302Y003418D03*
X004306Y003422D03*
X004310Y003426D03*
X004314Y003430D03*
X004317Y003434D03*
X004321Y003438D03*
X004325Y003442D03*
X004329Y003446D03*
X004333Y003450D03*
X004337Y003454D03*
X004341Y003458D03*
X004345Y003461D03*
X004349Y003465D03*
X004353Y003469D03*
D50*
X004010Y002973D03*
X004003Y002961D03*
X005125Y001839D03*
X005699Y001489D03*
X006766Y000595D03*
X004589Y000595D03*
X004022Y000713D03*
X003258Y000595D03*
D51*
X004207Y000619D03*
X005235Y001631D03*
X006298Y000619D03*
X004991Y003871D03*
D52*
X005016Y000619D03*
D53*
X005020Y000623D03*
X004213Y000623D03*
X006304Y000623D03*
X004812Y004040D03*
X004812Y004044D03*
D54*
X004969Y003643D03*
X005296Y003253D03*
X005300Y003249D03*
X005304Y003245D03*
X005308Y003241D03*
X005316Y003229D03*
X005453Y001135D03*
X005453Y001131D03*
X004902Y000832D03*
X004902Y000828D03*
X004902Y000824D03*
X004902Y000820D03*
X004902Y000816D03*
X004902Y000812D03*
X004902Y000808D03*
X004902Y000804D03*
X004902Y000800D03*
X004902Y000796D03*
X004902Y000792D03*
X004902Y000788D03*
X004902Y000784D03*
X004902Y000780D03*
X004902Y000776D03*
X004902Y000773D03*
X004902Y000769D03*
X004902Y000765D03*
X004902Y000761D03*
X004902Y000757D03*
X004902Y000753D03*
X004902Y000749D03*
X004902Y000745D03*
X004902Y000741D03*
X004902Y000737D03*
X004902Y000733D03*
X004902Y000729D03*
X004902Y000725D03*
X004902Y000721D03*
X004902Y000717D03*
X005453Y000753D03*
X004351Y000761D03*
X004351Y000765D03*
X004351Y000769D03*
X004351Y000773D03*
X004351Y000776D03*
X004351Y000780D03*
X004351Y000784D03*
X004351Y000788D03*
X004351Y000792D03*
X004351Y000796D03*
X004351Y000800D03*
X004351Y000804D03*
X004351Y000808D03*
X004351Y000812D03*
X004351Y000816D03*
X004351Y000820D03*
X004351Y000824D03*
X004351Y000828D03*
X004351Y000832D03*
X004351Y000836D03*
X004351Y000757D03*
X004351Y000753D03*
X004351Y000749D03*
X004351Y000745D03*
X004351Y000741D03*
X004351Y000737D03*
X004351Y000733D03*
X004351Y000729D03*
X004351Y000725D03*
X004351Y000721D03*
X004351Y000717D03*
D55*
X004325Y000887D03*
X004325Y000891D03*
X004325Y000895D03*
X004325Y000899D03*
X004325Y000902D03*
X004325Y000906D03*
X004325Y000910D03*
X004325Y000914D03*
X004325Y000918D03*
X004325Y000922D03*
X004325Y000926D03*
X004325Y000930D03*
X004325Y000934D03*
X004325Y000938D03*
X004325Y000942D03*
X004325Y000946D03*
X004325Y000950D03*
X004325Y000954D03*
X004325Y000958D03*
X004325Y000961D03*
X004325Y000965D03*
X004325Y000969D03*
X004377Y001111D03*
X004928Y001115D03*
X005428Y000717D03*
X006062Y000780D03*
X006062Y000784D03*
X006569Y000769D03*
X006605Y001115D03*
X006605Y001119D03*
X003258Y001091D03*
X003258Y001087D03*
D56*
X003083Y001288D03*
X003816Y000918D03*
X005516Y000938D03*
X005516Y000954D03*
X006115Y000717D03*
X005406Y002312D03*
X005406Y002316D03*
X005406Y002320D03*
X005406Y002324D03*
X005406Y002328D03*
X005406Y002332D03*
X005406Y002336D03*
X005406Y002339D03*
X005406Y002343D03*
X004792Y003887D03*
D57*
X004790Y003875D03*
X005412Y002493D03*
X005412Y002489D03*
X005412Y002485D03*
X005412Y002481D03*
X005412Y002477D03*
X005412Y002473D03*
X005412Y002469D03*
X005412Y002465D03*
X005412Y002461D03*
X005412Y002458D03*
X003302Y001162D03*
X003825Y000942D03*
X003825Y000938D03*
X005526Y000918D03*
X005526Y000914D03*
X005526Y000973D03*
X005526Y000977D03*
X006526Y000717D03*
D58*
X006575Y000788D03*
X006575Y000792D03*
X006599Y001095D03*
X006599Y001099D03*
X006056Y000800D03*
X006056Y000796D03*
X005434Y000721D03*
X004922Y001099D03*
X004371Y001095D03*
X003253Y001072D03*
X003253Y001068D03*
X003253Y001064D03*
X004973Y003662D03*
X004816Y003851D03*
D59*
X004792Y003879D03*
X004977Y003717D03*
X005760Y002690D03*
X005410Y002454D03*
X005410Y002450D03*
X005410Y002446D03*
X005410Y002442D03*
X005410Y002438D03*
X005410Y002434D03*
X005410Y002430D03*
X005410Y002426D03*
X005410Y002422D03*
X005524Y000969D03*
X005524Y000922D03*
X006107Y000721D03*
X003823Y000934D03*
D60*
X003833Y000965D03*
X003833Y000969D03*
X004392Y002658D03*
X005758Y002702D03*
X006176Y001698D03*
X006534Y000721D03*
X004790Y003867D03*
D61*
X004971Y003658D03*
X006129Y001690D03*
X006593Y001072D03*
X006593Y001068D03*
X006593Y001064D03*
X006589Y001052D03*
X006581Y000824D03*
X006581Y000820D03*
X006581Y000816D03*
X006581Y000812D03*
X006050Y000820D03*
X006050Y000824D03*
X005440Y000725D03*
X005440Y001158D03*
X004916Y001084D03*
X004916Y001080D03*
X004365Y001076D03*
X004365Y001072D03*
D62*
X003829Y000954D03*
X003829Y000950D03*
X005530Y000993D03*
X005530Y000997D03*
X005530Y000899D03*
X005530Y000895D03*
X005530Y000891D03*
X006101Y000725D03*
X005412Y002524D03*
X004790Y003871D03*
D63*
X004977Y003702D03*
X005753Y002713D03*
X004957Y001158D03*
X006091Y000733D03*
X006540Y000725D03*
X003839Y000997D03*
X003839Y001001D03*
X003288Y001150D03*
X003107Y001292D03*
D64*
X004363Y001068D03*
X004363Y001064D03*
X004914Y001072D03*
X004914Y001076D03*
X005441Y000729D03*
X006048Y000828D03*
X006048Y000832D03*
X006048Y000836D03*
X006583Y000836D03*
X006583Y000832D03*
X006583Y000828D03*
X006591Y001056D03*
X006591Y001060D03*
X004816Y003843D03*
D65*
X004977Y003706D03*
X004540Y001694D03*
X004961Y001162D03*
X003835Y000977D03*
X003835Y000973D03*
X003292Y001154D03*
X006095Y000729D03*
D66*
X006087Y000737D03*
X006544Y000729D03*
X006630Y001158D03*
X004977Y003698D03*
D67*
X005445Y001150D03*
X004910Y001056D03*
X005445Y000733D03*
X006587Y000887D03*
X006587Y000891D03*
X006587Y000895D03*
X006587Y000899D03*
X006587Y000902D03*
X006587Y000906D03*
X006587Y000910D03*
X006587Y000914D03*
X006587Y000918D03*
X006587Y000922D03*
X006587Y000926D03*
X006587Y000930D03*
X006587Y000934D03*
X006587Y000938D03*
X006587Y000942D03*
X006587Y000946D03*
X006587Y000950D03*
X006587Y000954D03*
X006587Y000958D03*
X006587Y000961D03*
X006587Y000965D03*
X006587Y000969D03*
X006587Y000973D03*
X006587Y000977D03*
X006587Y000981D03*
X006587Y000985D03*
X006587Y000989D03*
X006587Y000993D03*
X006587Y000997D03*
X006587Y001001D03*
D68*
X006627Y001154D03*
X006548Y000733D03*
X004949Y001150D03*
X004398Y001154D03*
X004398Y001158D03*
X003280Y001139D03*
D69*
X003156Y001300D03*
X005447Y001147D03*
X005447Y000737D03*
X004971Y003650D03*
X004814Y003836D03*
D70*
X004993Y002524D03*
X004945Y001147D03*
X004394Y001150D03*
X004394Y001147D03*
X006079Y000749D03*
X006552Y000737D03*
D71*
X005449Y000741D03*
X005449Y001143D03*
X004969Y003647D03*
D72*
X004975Y003694D03*
X004951Y001154D03*
X006085Y000741D03*
X003282Y001143D03*
D73*
X003272Y001127D03*
X004390Y001139D03*
X006075Y000753D03*
X006556Y000741D03*
X006619Y001143D03*
D74*
X005451Y001139D03*
X004900Y000836D03*
X005451Y000749D03*
X005451Y000745D03*
X004814Y003832D03*
D75*
X004975Y003690D03*
X005321Y001839D03*
X006625Y001150D03*
X006081Y000745D03*
X003278Y001135D03*
D76*
X003270Y001123D03*
X004388Y001135D03*
X004940Y001139D03*
X006073Y000757D03*
X006558Y000745D03*
X006152Y001694D03*
X004975Y003682D03*
D77*
X004938Y001135D03*
X006071Y000761D03*
X006560Y000749D03*
X006615Y001139D03*
X003268Y001119D03*
D78*
X003266Y001115D03*
X003266Y001111D03*
X004384Y001131D03*
X004936Y001131D03*
X006069Y000765D03*
X006562Y000753D03*
X006613Y001135D03*
X004975Y003678D03*
D79*
X004814Y003828D03*
X005310Y003237D03*
X005314Y003233D03*
X005317Y003225D03*
X005321Y003221D03*
X005455Y001127D03*
X005455Y000761D03*
X005455Y000757D03*
D80*
X006067Y000769D03*
X006564Y000757D03*
X006611Y001131D03*
X004934Y001127D03*
X004382Y001127D03*
X003264Y001107D03*
D81*
X003262Y001103D03*
X003132Y001296D03*
X004325Y001001D03*
X004380Y001123D03*
X004877Y001001D03*
X004932Y001123D03*
X006066Y000773D03*
X006566Y000761D03*
X006609Y001127D03*
X004975Y003674D03*
D82*
X004969Y003639D03*
X005288Y003261D03*
X005292Y003257D03*
X005323Y003217D03*
X005327Y003213D03*
X005457Y001123D03*
X005457Y001119D03*
X005457Y001115D03*
X005457Y000769D03*
X005457Y000765D03*
D83*
X004875Y000887D03*
X004875Y000891D03*
X004875Y000895D03*
X004875Y000899D03*
X004875Y000902D03*
X004875Y000906D03*
X004875Y000910D03*
X004875Y000914D03*
X004875Y000918D03*
X004875Y000922D03*
X004875Y000926D03*
X004875Y000930D03*
X004875Y000934D03*
X004875Y000938D03*
X004875Y000942D03*
X004875Y000946D03*
X004875Y000950D03*
X004875Y000954D03*
X004875Y000958D03*
X004875Y000961D03*
X004875Y000965D03*
X004875Y000969D03*
X004875Y000973D03*
X004875Y000977D03*
X004875Y000981D03*
X004875Y000985D03*
X004875Y000989D03*
X004875Y000993D03*
X004875Y000997D03*
X004930Y001119D03*
X004379Y001119D03*
X004379Y001115D03*
X004327Y000997D03*
X004327Y000993D03*
X004327Y000989D03*
X004327Y000985D03*
X004327Y000981D03*
X004327Y000977D03*
X004327Y000973D03*
X003260Y001095D03*
X003260Y001099D03*
X006064Y000776D03*
X006567Y000765D03*
X006607Y001123D03*
X004973Y003670D03*
X004816Y003859D03*
D84*
X004814Y003824D03*
X005282Y003265D03*
X005329Y003210D03*
X005333Y003206D03*
X005333Y003202D03*
X005459Y001111D03*
X005459Y001107D03*
X005459Y001103D03*
X005459Y000780D03*
X005459Y000776D03*
X005459Y000773D03*
D85*
X006060Y000788D03*
X006571Y000776D03*
X006571Y000773D03*
X006603Y001111D03*
X004926Y001111D03*
X004375Y001107D03*
X004575Y001698D03*
X003256Y001084D03*
X003229Y001001D03*
X003229Y000997D03*
X003229Y000993D03*
X003229Y000989D03*
X003229Y000985D03*
X003229Y000981D03*
X003229Y000977D03*
X004973Y003666D03*
X004816Y003855D03*
D86*
X004924Y001107D03*
X004924Y001103D03*
X004373Y001103D03*
X004373Y001099D03*
X003254Y001080D03*
X003254Y001076D03*
X003227Y000973D03*
X003227Y000969D03*
X003227Y000965D03*
X003227Y000961D03*
X003227Y000958D03*
X003227Y000954D03*
X003227Y000950D03*
X003227Y000946D03*
X003227Y000942D03*
X003227Y000938D03*
X003227Y000934D03*
X003227Y000930D03*
X003227Y000926D03*
X003227Y000922D03*
X003227Y000918D03*
X003227Y000914D03*
X003227Y000910D03*
X003227Y000906D03*
X003227Y000902D03*
X003227Y000899D03*
X003227Y000895D03*
X003227Y000891D03*
X003227Y000887D03*
X006058Y000792D03*
X006573Y000784D03*
X006573Y000780D03*
X006601Y001103D03*
X006601Y001107D03*
D87*
X005461Y001099D03*
X005461Y001095D03*
X005461Y001091D03*
X005461Y001087D03*
X005461Y001084D03*
X005461Y000804D03*
X005461Y000800D03*
X005461Y000796D03*
X005461Y000792D03*
X005461Y000788D03*
X005461Y000784D03*
X004607Y001702D03*
X005335Y003198D03*
X005276Y003269D03*
X004969Y003635D03*
X004812Y003820D03*
D88*
X004510Y002182D03*
X004369Y001091D03*
X004369Y001087D03*
X004920Y001091D03*
X004920Y001095D03*
X006054Y000808D03*
X006054Y000804D03*
X006577Y000800D03*
X006577Y000796D03*
X006597Y001087D03*
X006597Y001091D03*
X003251Y001060D03*
X003251Y001056D03*
D89*
X003249Y001052D03*
X004367Y001080D03*
X004367Y001084D03*
X004918Y001087D03*
X005438Y001162D03*
X006052Y000816D03*
X006052Y000812D03*
X006579Y000808D03*
X006579Y000804D03*
X006595Y001076D03*
X006595Y001080D03*
X006595Y001084D03*
X004816Y003847D03*
D90*
X005337Y003194D03*
X005341Y003190D03*
X006105Y001686D03*
X005463Y001080D03*
X005463Y001076D03*
X005463Y001072D03*
X005463Y001068D03*
X005463Y001064D03*
X005463Y001060D03*
X005463Y001056D03*
X005463Y001052D03*
X005463Y000832D03*
X005463Y000828D03*
X005463Y000824D03*
X005463Y000820D03*
X005463Y000816D03*
X005463Y000812D03*
X005463Y000808D03*
X003782Y001052D03*
X003782Y001056D03*
X003782Y001060D03*
X003782Y001064D03*
X003782Y001068D03*
X003782Y001072D03*
X003782Y001076D03*
X003782Y001080D03*
X003782Y001084D03*
X003782Y001087D03*
X003782Y001091D03*
X003782Y001095D03*
X003782Y001099D03*
X003782Y001103D03*
X003782Y001107D03*
X003782Y001111D03*
X003782Y001115D03*
X003782Y001119D03*
X003782Y001123D03*
X003782Y001127D03*
X003782Y001131D03*
X003782Y001135D03*
X003782Y001139D03*
X003782Y001143D03*
X003782Y001147D03*
X003782Y001150D03*
X003782Y001154D03*
X003782Y001158D03*
X003782Y001162D03*
D91*
X003554Y002674D03*
X004802Y003961D03*
X005912Y000839D03*
D92*
X003782Y000887D03*
X004798Y003926D03*
D93*
X004796Y003918D03*
X004595Y003717D03*
X004591Y003713D03*
X004587Y003710D03*
X004583Y003706D03*
X004579Y003702D03*
X004575Y003698D03*
X004571Y003694D03*
X004567Y003690D03*
X004564Y003686D03*
X004560Y003682D03*
X004556Y003678D03*
X004552Y003674D03*
X004548Y003670D03*
X004544Y003666D03*
X004540Y003662D03*
X004536Y003658D03*
X004532Y003654D03*
X004528Y003650D03*
X004524Y003647D03*
X004520Y003643D03*
X004516Y003639D03*
X005390Y001918D03*
X005390Y001914D03*
X005390Y001910D03*
X005390Y001906D03*
X005390Y001902D03*
X006221Y001706D03*
X003788Y000891D03*
D94*
X003800Y000899D03*
X005394Y002084D03*
X004099Y003210D03*
X004103Y003213D03*
X004107Y003217D03*
X004095Y003206D03*
X004091Y003202D03*
X004087Y003198D03*
X004083Y003194D03*
X004079Y003190D03*
X004075Y003186D03*
X004071Y003182D03*
X004067Y003178D03*
X004064Y003174D03*
X004060Y003170D03*
X004056Y003166D03*
X004052Y003162D03*
X004048Y003158D03*
X004044Y003154D03*
X004040Y003150D03*
X004036Y003147D03*
X004032Y003143D03*
X004028Y003139D03*
D95*
X003945Y003052D03*
X003941Y003048D03*
X003938Y003044D03*
X003934Y003040D03*
X003930Y003036D03*
X003926Y003032D03*
X003922Y003028D03*
X003918Y003024D03*
X003914Y003021D03*
X003910Y003017D03*
X003906Y003013D03*
X003902Y003009D03*
X003898Y003005D03*
X003894Y003001D03*
X003890Y002997D03*
X003886Y002993D03*
X003882Y002989D03*
X003867Y002973D03*
X004953Y003769D03*
X004949Y003776D03*
X004945Y003780D03*
X005398Y002158D03*
X005398Y002154D03*
X005398Y002150D03*
X005398Y002147D03*
X005398Y002143D03*
X005398Y002139D03*
X005398Y002135D03*
X005398Y002131D03*
X005398Y002127D03*
X004512Y001690D03*
X003804Y000902D03*
D96*
X003827Y000946D03*
X005528Y000981D03*
X005528Y000985D03*
X005528Y000989D03*
X005528Y000910D03*
X005528Y000906D03*
X005528Y000902D03*
X005414Y002497D03*
X005414Y002501D03*
X005414Y002505D03*
X005414Y002509D03*
X005414Y002513D03*
X005414Y002517D03*
X005414Y002521D03*
X005760Y002694D03*
X004977Y003713D03*
D97*
X004969Y003745D03*
X004965Y003753D03*
X004961Y003757D03*
X004792Y003899D03*
X003867Y002969D03*
X003863Y002965D03*
X003847Y002950D03*
X004441Y002186D03*
X005402Y002198D03*
X005402Y002202D03*
X005402Y002206D03*
X005402Y002210D03*
X005402Y002213D03*
X005402Y002217D03*
X005402Y002221D03*
X005402Y002225D03*
X005402Y002229D03*
X003808Y000906D03*
D98*
X003810Y000910D03*
X005400Y002233D03*
X006199Y001702D03*
X004975Y003737D03*
X004971Y003741D03*
X004967Y003749D03*
X004794Y003895D03*
D99*
X004979Y003729D03*
X005404Y002308D03*
X005404Y002304D03*
X005404Y002300D03*
X005404Y002296D03*
X005404Y002292D03*
X005404Y002288D03*
X005404Y002284D03*
X005404Y002280D03*
X005404Y002276D03*
X005404Y002273D03*
X005514Y000942D03*
X003814Y000914D03*
D100*
X003817Y000922D03*
X005518Y000958D03*
X005408Y002347D03*
X005408Y002351D03*
X005408Y002355D03*
X005408Y002359D03*
X005408Y002363D03*
X005408Y002367D03*
X005408Y002371D03*
X005408Y002375D03*
X005408Y002379D03*
X004979Y003725D03*
D101*
X004792Y003883D03*
X005760Y002686D03*
X005410Y002391D03*
X005410Y002387D03*
X005410Y002383D03*
X005520Y000961D03*
X005520Y000934D03*
X005520Y000930D03*
X003819Y000926D03*
D102*
X003821Y000930D03*
X005522Y000926D03*
X005522Y000965D03*
X005408Y002395D03*
X005408Y002399D03*
X005408Y002402D03*
X005408Y002406D03*
X005408Y002410D03*
X005408Y002414D03*
X005408Y002418D03*
X004979Y003721D03*
D103*
X004977Y003733D03*
X004792Y003891D03*
X003855Y002954D03*
X003788Y002887D03*
X005402Y002269D03*
X005402Y002265D03*
X005402Y002261D03*
X005402Y002257D03*
X005402Y002253D03*
X005402Y002249D03*
X005402Y002245D03*
X005402Y002241D03*
X005402Y002237D03*
X005512Y000950D03*
X005512Y000946D03*
D104*
X003831Y000961D03*
X003831Y000958D03*
X003296Y001158D03*
X005760Y002698D03*
X004977Y003710D03*
D105*
X004790Y003863D03*
X005754Y002710D03*
X006636Y001162D03*
X003837Y000993D03*
X003837Y000989D03*
X003837Y000985D03*
X003837Y000981D03*
D106*
X004361Y001052D03*
X004361Y001056D03*
X004361Y001060D03*
X004908Y001052D03*
X004912Y001060D03*
X004912Y001064D03*
X004912Y001068D03*
X005443Y001154D03*
X004971Y003654D03*
X004814Y003839D03*
D107*
X004975Y003686D03*
X004943Y001143D03*
X004392Y001143D03*
X003274Y001131D03*
X006621Y001147D03*
D108*
X004404Y001162D03*
X003286Y001147D03*
D109*
X004268Y001265D03*
X004268Y001308D03*
X004264Y001339D03*
X004264Y001343D03*
X004264Y001347D03*
X004241Y001560D03*
X004241Y001564D03*
X004237Y001580D03*
X004237Y001584D03*
X004237Y001587D03*
X004237Y001591D03*
X004237Y001595D03*
X004237Y001599D03*
X004233Y001615D03*
X004225Y001694D03*
X004225Y001698D03*
X004221Y001729D03*
X004205Y001883D03*
X004205Y001887D03*
X004205Y001891D03*
X004197Y001946D03*
X004197Y001950D03*
X004197Y001954D03*
X004197Y001958D03*
X004800Y003950D03*
D110*
X005491Y002895D03*
X005495Y002891D03*
X005499Y002883D03*
X005503Y002879D03*
X005506Y002875D03*
X004262Y001359D03*
X004262Y001355D03*
X004262Y001351D03*
X004266Y001336D03*
X004266Y001332D03*
X004266Y001328D03*
X004266Y001324D03*
X004266Y001320D03*
X004266Y001316D03*
X004266Y001312D03*
X004270Y001304D03*
X004270Y001300D03*
X004270Y001296D03*
X004270Y001292D03*
X004270Y001288D03*
X004270Y001284D03*
X004270Y001280D03*
X004270Y001276D03*
X004270Y001273D03*
X004270Y001269D03*
X003554Y002682D03*
D111*
X003028Y001280D03*
D112*
X003182Y001304D03*
X005351Y003166D03*
X004969Y003623D03*
X004812Y003808D03*
D113*
X004965Y003595D03*
X005363Y003123D03*
X003205Y001308D03*
D114*
X003231Y001312D03*
X005365Y003091D03*
X004963Y003568D03*
X004613Y003221D03*
X004609Y003217D03*
D115*
X004621Y002178D03*
X004621Y002174D03*
X004621Y002170D03*
X004621Y002166D03*
X004621Y002162D03*
X003254Y001316D03*
D116*
X003282Y001320D03*
X004959Y003513D03*
D117*
X004957Y003481D03*
X004556Y003087D03*
X003312Y001324D03*
D118*
X003335Y001328D03*
D119*
X003357Y001332D03*
X005920Y001654D03*
X004951Y003434D03*
D120*
X004949Y003410D03*
X003379Y001336D03*
D121*
X003404Y001339D03*
X004947Y003383D03*
D122*
X003428Y001343D03*
D123*
X003453Y001347D03*
X004941Y003328D03*
D124*
X004941Y003304D03*
X003477Y001351D03*
D125*
X003503Y001355D03*
X004928Y001773D03*
X004928Y001776D03*
X004928Y001780D03*
X004928Y001784D03*
X004928Y001788D03*
D126*
X003526Y001359D03*
D127*
X003646Y001363D03*
X003646Y001367D03*
D128*
X003644Y001371D03*
X003644Y001375D03*
X003644Y001379D03*
D129*
X003646Y001383D03*
D130*
X003672Y001387D03*
D131*
X003695Y001391D03*
D132*
X003719Y001395D03*
X004916Y003036D03*
D133*
X004914Y003009D03*
X003745Y001399D03*
D134*
X003768Y001402D03*
X004910Y002985D03*
D135*
X003821Y001410D03*
X003821Y001406D03*
D136*
X003843Y001414D03*
D137*
X003867Y001418D03*
D138*
X003892Y001422D03*
D139*
X003916Y001426D03*
D140*
X003955Y001430D03*
X004625Y002843D03*
D141*
X003965Y001434D03*
D142*
X003995Y001438D03*
X004605Y001489D03*
D143*
X004756Y001501D03*
X004060Y001442D03*
D144*
X004089Y001446D03*
D145*
X004138Y001450D03*
X004186Y001454D03*
X004323Y001465D03*
D146*
X004278Y001458D03*
D147*
X004300Y001461D03*
X005044Y001524D03*
D148*
X004424Y001473D03*
X004377Y001469D03*
D149*
X004473Y001477D03*
D150*
X004518Y001481D03*
X004566Y001485D03*
D151*
X004662Y001493D03*
X004894Y001513D03*
D152*
X004711Y001497D03*
D153*
X004806Y001505D03*
X004853Y001509D03*
D154*
X004949Y001517D03*
D155*
X004995Y001521D03*
D156*
X005095Y001528D03*
D157*
X005119Y001532D03*
X004642Y002824D03*
D158*
X004630Y002836D03*
X005142Y001536D03*
D159*
X005197Y001540D03*
X005197Y001544D03*
D160*
X005245Y001548D03*
X005245Y001552D03*
X005245Y001556D03*
D161*
X005363Y001560D03*
D162*
X005384Y001564D03*
X004967Y002741D03*
X004967Y002745D03*
D163*
X004109Y002682D03*
X004105Y002713D03*
X004195Y001969D03*
X004195Y001965D03*
X004195Y001961D03*
X004199Y001942D03*
X004199Y001938D03*
X004199Y001934D03*
X004199Y001930D03*
X004199Y001926D03*
X004199Y001922D03*
X004199Y001918D03*
X004199Y001914D03*
X004199Y001910D03*
X004199Y001906D03*
X004207Y001879D03*
X004207Y001875D03*
X004207Y001871D03*
X004207Y001867D03*
X004207Y001863D03*
X004207Y001859D03*
X004207Y001855D03*
X004207Y001851D03*
X004207Y001847D03*
X004207Y001843D03*
X004211Y001828D03*
X004211Y001824D03*
X004211Y001820D03*
X004211Y001816D03*
X004211Y001812D03*
X004211Y001808D03*
X004215Y001796D03*
X004215Y001792D03*
X004215Y001788D03*
X004215Y001784D03*
X004215Y001780D03*
X004215Y001776D03*
X004215Y001773D03*
X004215Y001769D03*
X004219Y001761D03*
X004219Y001757D03*
X004219Y001753D03*
X004219Y001749D03*
X004219Y001745D03*
X004219Y001741D03*
X004219Y001737D03*
X004219Y001733D03*
X004223Y001725D03*
X004223Y001721D03*
X004223Y001717D03*
X004223Y001713D03*
X004223Y001710D03*
X004223Y001706D03*
X004223Y001702D03*
X004235Y001631D03*
X004235Y001627D03*
X004235Y001623D03*
X004235Y001619D03*
X004235Y001611D03*
X004235Y001607D03*
X004235Y001603D03*
X004239Y001576D03*
X004239Y001572D03*
X004239Y001568D03*
D164*
X005408Y001568D03*
D165*
X005432Y001572D03*
D166*
X005441Y001576D03*
D167*
X005479Y001580D03*
X005062Y002733D03*
D168*
X004910Y002981D03*
X005501Y001584D03*
D169*
X005524Y001587D03*
D170*
X005548Y001591D03*
D171*
X005571Y001595D03*
X004918Y003056D03*
D172*
X005595Y001599D03*
D173*
X005617Y001603D03*
D174*
X005640Y001607D03*
D175*
X005664Y001611D03*
X004908Y002631D03*
X004908Y002635D03*
D176*
X005690Y001615D03*
D177*
X005713Y001619D03*
D178*
X005816Y001623D03*
X005816Y001627D03*
X005816Y001631D03*
X005816Y001635D03*
X004898Y001737D03*
X004941Y003316D03*
D179*
X004800Y003954D03*
X004103Y002733D03*
X004103Y002729D03*
X004103Y002725D03*
X004103Y002721D03*
X004103Y002717D03*
X004107Y002710D03*
X004107Y002706D03*
X004107Y002702D03*
X004107Y002698D03*
X004107Y002694D03*
X004107Y002690D03*
X004107Y002686D03*
X004111Y002678D03*
X004111Y002674D03*
X004111Y002670D03*
X004111Y002666D03*
X004111Y002662D03*
X004111Y002658D03*
X004111Y002654D03*
X004111Y002650D03*
X004115Y002647D03*
X004115Y002643D03*
X004115Y002639D03*
X004123Y002584D03*
X004123Y002580D03*
X004123Y002576D03*
X004123Y002572D03*
X004123Y002568D03*
X004123Y002564D03*
X004123Y002560D03*
X004123Y002556D03*
X004123Y002552D03*
X004127Y002548D03*
X004127Y002544D03*
X004127Y002540D03*
X004127Y002536D03*
X004127Y002532D03*
X004127Y002528D03*
X004130Y002517D03*
X004130Y002513D03*
X004130Y002509D03*
X004130Y002505D03*
X004130Y002501D03*
X004130Y002497D03*
X004134Y002485D03*
X004134Y002481D03*
X004134Y002477D03*
X004134Y002473D03*
X004134Y002469D03*
X004134Y002465D03*
X004138Y002450D03*
X004138Y002446D03*
X004138Y002442D03*
X004138Y002438D03*
X004138Y002434D03*
X004142Y002418D03*
X004142Y002414D03*
X004142Y002410D03*
X004142Y002406D03*
X004142Y002402D03*
X004146Y002387D03*
X004146Y002383D03*
X004146Y002379D03*
X004146Y002375D03*
X004146Y002371D03*
X004150Y002351D03*
X004150Y002347D03*
X004150Y002343D03*
X004150Y002339D03*
X004170Y002190D03*
X004170Y002186D03*
X004174Y002154D03*
X004174Y002150D03*
X004178Y002123D03*
X004178Y002119D03*
X004178Y002115D03*
X004178Y002111D03*
X004182Y002091D03*
X004182Y002087D03*
X004182Y002084D03*
X004182Y002080D03*
X004182Y002076D03*
X004182Y002072D03*
X004186Y002056D03*
X004186Y002052D03*
X004186Y002048D03*
X004186Y002044D03*
X004186Y002040D03*
X004186Y002036D03*
X004190Y002024D03*
X004190Y002021D03*
X004190Y002017D03*
X004190Y002013D03*
X004190Y002009D03*
X004190Y002005D03*
X004190Y002001D03*
X004190Y001997D03*
X004193Y001993D03*
X004193Y001989D03*
X004193Y001985D03*
X004193Y001981D03*
X004193Y001977D03*
X004193Y001973D03*
X004201Y001902D03*
X004201Y001899D03*
X004201Y001895D03*
X004209Y001839D03*
X004209Y001836D03*
X004209Y001832D03*
X004213Y001804D03*
X004213Y001800D03*
X004217Y001765D03*
X004233Y001662D03*
X004233Y001658D03*
X004233Y001654D03*
X004233Y001650D03*
X004233Y001647D03*
X004233Y001643D03*
X004233Y001639D03*
X004233Y001635D03*
D180*
X005882Y001639D03*
D181*
X005880Y001643D03*
X005880Y001647D03*
X004947Y003391D03*
D182*
X005896Y001650D03*
D183*
X005943Y001658D03*
X004562Y003072D03*
X004955Y003458D03*
D184*
X005967Y001662D03*
D185*
X004231Y001670D03*
X004231Y001666D03*
X004231Y001674D03*
X004231Y001678D03*
X004231Y001682D03*
X004231Y001686D03*
X004231Y001690D03*
X004188Y002028D03*
X004188Y002032D03*
X004184Y002060D03*
X004184Y002064D03*
X004184Y002068D03*
X004180Y002095D03*
X004180Y002099D03*
X004180Y002103D03*
X004180Y002107D03*
X004176Y002127D03*
X004176Y002131D03*
X004176Y002135D03*
X004176Y002139D03*
X004176Y002143D03*
X004176Y002147D03*
X004172Y002158D03*
X004172Y002162D03*
X004172Y002166D03*
X004172Y002170D03*
X004172Y002174D03*
X004172Y002178D03*
X004172Y002182D03*
X004168Y002194D03*
X004168Y002198D03*
X004168Y002202D03*
X004168Y002206D03*
X004168Y002210D03*
X004168Y002213D03*
X004168Y002217D03*
X004168Y002221D03*
X004164Y002225D03*
X004164Y002229D03*
X004164Y002233D03*
X004164Y002237D03*
X004164Y002241D03*
X004164Y002245D03*
X004164Y002249D03*
X004164Y002253D03*
X004160Y002265D03*
X004160Y002269D03*
X004160Y002273D03*
X004160Y002276D03*
X004160Y002280D03*
X004160Y002284D03*
X004160Y002288D03*
X004156Y002300D03*
X004156Y002304D03*
X004156Y002308D03*
X004156Y002312D03*
X004156Y002316D03*
X004156Y002320D03*
X004152Y002336D03*
X004148Y002355D03*
X004148Y002359D03*
X004148Y002363D03*
X004148Y002367D03*
X004144Y002391D03*
X004144Y002395D03*
X004144Y002399D03*
X004140Y002422D03*
X004140Y002426D03*
X004140Y002430D03*
X004136Y002454D03*
X004136Y002458D03*
X004136Y002461D03*
X004132Y002489D03*
X004132Y002493D03*
X004129Y002521D03*
X004129Y002524D03*
X004121Y002587D03*
X004121Y002591D03*
X004121Y002595D03*
X004121Y002599D03*
X004121Y002603D03*
X004121Y002607D03*
X004121Y002611D03*
X004121Y002615D03*
X003554Y002678D03*
X004802Y003958D03*
D186*
X005989Y001666D03*
D187*
X006012Y001670D03*
X004567Y003147D03*
X004961Y003532D03*
D188*
X004591Y003194D03*
X004638Y001977D03*
X004638Y001973D03*
X004638Y001969D03*
X004638Y001965D03*
X004638Y001961D03*
X004638Y001958D03*
X004638Y001954D03*
X006036Y001674D03*
D189*
X006060Y001678D03*
X004965Y003584D03*
D190*
X005359Y003143D03*
X006083Y001682D03*
D191*
X004479Y001686D03*
X003554Y002690D03*
X004798Y003938D03*
X005436Y002961D03*
X005440Y002958D03*
X005443Y002954D03*
X005447Y002950D03*
D192*
X005363Y003127D03*
X004638Y001706D03*
D193*
X004674Y001710D03*
X004646Y001875D03*
X004646Y001879D03*
X004646Y001883D03*
X004646Y001887D03*
X004646Y001891D03*
X004646Y001895D03*
X004646Y001899D03*
X004642Y001918D03*
X004642Y001922D03*
X004642Y001926D03*
X004599Y003206D03*
X005363Y003084D03*
D194*
X005469Y002922D03*
X005473Y002918D03*
X005481Y002906D03*
X005485Y002902D03*
X005489Y002899D03*
X005497Y002887D03*
X005508Y002871D03*
X004800Y003946D03*
X006245Y001710D03*
D195*
X004703Y001713D03*
X004566Y003143D03*
D196*
X005077Y001347D03*
D197*
X004770Y001721D03*
X004955Y003454D03*
D198*
X004949Y003422D03*
X004800Y001725D03*
D199*
X004877Y001729D03*
X004877Y001733D03*
X004943Y003339D03*
D200*
X004930Y001741D03*
D201*
X004928Y001745D03*
X004928Y001749D03*
X004940Y003280D03*
D202*
X004930Y001769D03*
X004930Y001765D03*
X004930Y001761D03*
X004930Y001757D03*
X004930Y001753D03*
D203*
X004930Y001792D03*
X004930Y001796D03*
D204*
X004928Y001800D03*
X004928Y001804D03*
X004928Y001808D03*
X004928Y001812D03*
X004928Y001816D03*
X004928Y001820D03*
D205*
X004926Y001824D03*
X005351Y002725D03*
D206*
X004928Y001836D03*
X004928Y001832D03*
X004928Y001828D03*
D207*
X004650Y001839D03*
X004650Y001843D03*
X004650Y001847D03*
X003938Y002883D03*
X004662Y003269D03*
D208*
X004796Y003922D03*
X005386Y001863D03*
X005386Y001859D03*
X005386Y001855D03*
X005386Y001851D03*
X005386Y001847D03*
X005386Y001843D03*
D209*
X004648Y001851D03*
X004648Y001855D03*
X004648Y001859D03*
X004648Y001863D03*
X004648Y001867D03*
X004648Y001871D03*
X004601Y003210D03*
X004605Y003213D03*
X004668Y003273D03*
X004963Y003564D03*
X005365Y003087D03*
D210*
X004621Y003745D03*
X004625Y003749D03*
X004629Y003753D03*
X004632Y003757D03*
X004636Y003761D03*
X004640Y003765D03*
X004644Y003769D03*
X004648Y003773D03*
X004652Y003776D03*
X004656Y003780D03*
X004660Y003784D03*
X004664Y003788D03*
X004668Y003792D03*
X004672Y003796D03*
X004617Y003741D03*
X004613Y003737D03*
X004609Y003733D03*
X004605Y003729D03*
X004601Y003725D03*
X004597Y003721D03*
X005388Y001899D03*
X005388Y001895D03*
X005388Y001891D03*
X005388Y001887D03*
X005388Y001883D03*
X005388Y001879D03*
X005388Y001875D03*
X005388Y001871D03*
X005388Y001867D03*
D211*
X004644Y001902D03*
X004644Y001906D03*
X004644Y001910D03*
X004644Y001914D03*
X004640Y001930D03*
X004640Y001934D03*
X004640Y001938D03*
X004640Y001942D03*
X004640Y001946D03*
X004640Y001950D03*
X004593Y003198D03*
X004597Y003202D03*
X004963Y003560D03*
D212*
X004514Y003635D03*
X004510Y003631D03*
X004506Y003627D03*
X004503Y003623D03*
X004499Y003619D03*
X004495Y003615D03*
X004491Y003611D03*
X004487Y003607D03*
X004483Y003603D03*
X004479Y003599D03*
X004475Y003595D03*
X004471Y003591D03*
X004467Y003587D03*
X004463Y003584D03*
X004459Y003580D03*
X004455Y003576D03*
X004451Y003572D03*
X004447Y003568D03*
X004443Y003564D03*
X004440Y003560D03*
X004436Y003556D03*
X005388Y001934D03*
X005388Y001930D03*
X005388Y001926D03*
X005388Y001922D03*
D213*
X004636Y001981D03*
X004636Y001985D03*
X004636Y001989D03*
X004636Y001993D03*
X004636Y001997D03*
X004636Y002001D03*
X004589Y003190D03*
X004680Y003276D03*
X004963Y003556D03*
X005361Y003080D03*
D214*
X004587Y003186D03*
X004634Y002028D03*
X004634Y002024D03*
X004634Y002021D03*
X004634Y002017D03*
X004634Y002013D03*
X004634Y002009D03*
X004634Y002005D03*
D215*
X005394Y002013D03*
X005394Y002017D03*
X005394Y002021D03*
X005394Y002024D03*
X005394Y002028D03*
X005394Y002032D03*
X005394Y002036D03*
X005394Y002040D03*
X005394Y002044D03*
X005394Y002048D03*
X005717Y002706D03*
X004796Y003910D03*
X004272Y003387D03*
X004268Y003383D03*
X004264Y003379D03*
X004260Y003375D03*
X004256Y003371D03*
X004253Y003367D03*
X004249Y003363D03*
X004245Y003359D03*
X004241Y003355D03*
X004237Y003351D03*
X004233Y003347D03*
X004229Y003343D03*
X004225Y003339D03*
X004221Y003336D03*
X004217Y003332D03*
X004213Y003328D03*
X004209Y003324D03*
X004205Y003320D03*
X004201Y003316D03*
X004197Y003312D03*
X004193Y003308D03*
X004190Y003304D03*
D216*
X004585Y003182D03*
X004963Y003552D03*
X005361Y003076D03*
X004629Y002080D03*
X004629Y002076D03*
X004629Y002072D03*
X004629Y002068D03*
X004632Y002056D03*
X004632Y002052D03*
X004632Y002048D03*
X004632Y002044D03*
X004632Y002040D03*
X004632Y002036D03*
X004632Y002032D03*
D217*
X005396Y002052D03*
X005396Y002056D03*
X005396Y002060D03*
X005396Y002064D03*
X005396Y002068D03*
X005396Y002072D03*
X005396Y002076D03*
X005396Y002080D03*
X004188Y003300D03*
X004184Y003296D03*
X004180Y003292D03*
X004176Y003288D03*
X004172Y003284D03*
X004168Y003280D03*
X004164Y003276D03*
X004160Y003273D03*
X004156Y003269D03*
X004152Y003265D03*
X004148Y003261D03*
X004144Y003257D03*
X004140Y003253D03*
X004136Y003249D03*
X004132Y003245D03*
X004129Y003241D03*
X004125Y003237D03*
X004121Y003233D03*
X004117Y003229D03*
X004113Y003225D03*
X004109Y003221D03*
X004794Y003906D03*
D218*
X004961Y003548D03*
X004583Y003178D03*
X004579Y003174D03*
X004627Y002107D03*
X004627Y002103D03*
X004627Y002099D03*
X004627Y002095D03*
X004627Y002091D03*
X004627Y002087D03*
X004627Y002084D03*
X004630Y002064D03*
X004630Y002060D03*
D219*
X005396Y002087D03*
X005396Y002091D03*
X005396Y002095D03*
X005396Y002099D03*
X005396Y002103D03*
X005396Y002107D03*
X005396Y002111D03*
X005396Y002115D03*
X005396Y002119D03*
X005396Y002123D03*
X004172Y002946D03*
X004006Y003115D03*
X004003Y003111D03*
X003999Y003107D03*
X003995Y003103D03*
X003991Y003099D03*
X003987Y003095D03*
X003983Y003091D03*
X003979Y003087D03*
X003975Y003084D03*
X003971Y003080D03*
X003967Y003076D03*
X003963Y003072D03*
X003959Y003068D03*
X003955Y003064D03*
X003951Y003060D03*
X003947Y003056D03*
X004010Y003119D03*
X004014Y003123D03*
X004018Y003127D03*
X004022Y003131D03*
X004026Y003135D03*
X004794Y003902D03*
X004936Y003796D03*
X004936Y003792D03*
X004940Y003788D03*
X004943Y003784D03*
D220*
X004577Y003170D03*
X004625Y002135D03*
X004625Y002131D03*
X004625Y002127D03*
X004625Y002123D03*
X004625Y002119D03*
X004625Y002115D03*
X004625Y002111D03*
D221*
X004623Y002139D03*
X004623Y002143D03*
X004623Y002147D03*
X004623Y002150D03*
X004623Y002154D03*
X004623Y002158D03*
X004575Y003166D03*
X004961Y003544D03*
X005359Y003072D03*
D222*
X004959Y003761D03*
X004955Y003765D03*
X004951Y003773D03*
X003880Y002985D03*
X003877Y002981D03*
X003873Y002977D03*
X003857Y002961D03*
X003853Y002958D03*
X003841Y002946D03*
X003837Y002942D03*
X003833Y002938D03*
X003829Y002934D03*
X003825Y002930D03*
X003821Y002926D03*
X003817Y002922D03*
X003814Y002918D03*
X003810Y002914D03*
X003806Y002910D03*
X003802Y002906D03*
X003798Y002902D03*
X003794Y002899D03*
X003790Y002895D03*
X003786Y002891D03*
X005400Y002194D03*
X005400Y002190D03*
X005400Y002186D03*
X005400Y002182D03*
X005400Y002178D03*
X005400Y002174D03*
X005400Y002170D03*
X005400Y002166D03*
X005400Y002162D03*
D223*
X005390Y002643D03*
X004119Y002635D03*
X004119Y002631D03*
X004119Y002627D03*
X004119Y002623D03*
X004119Y002619D03*
X004154Y002332D03*
X004154Y002328D03*
X004154Y002324D03*
X004158Y002296D03*
X004158Y002292D03*
X004162Y002261D03*
X004162Y002257D03*
D224*
X005191Y002528D03*
X004558Y003084D03*
X004955Y003473D03*
D225*
X005193Y002568D03*
X005193Y002564D03*
X005193Y002560D03*
X005193Y002556D03*
X005193Y002552D03*
X005193Y002548D03*
X005193Y002544D03*
X005193Y002540D03*
X005193Y002536D03*
X005193Y002532D03*
D226*
X005172Y002572D03*
X004951Y003446D03*
D227*
X004945Y003371D03*
X005103Y002576D03*
D228*
X005042Y002580D03*
D229*
X004910Y002584D03*
X004910Y002587D03*
X004910Y002591D03*
X004910Y002595D03*
X004910Y002599D03*
D230*
X004908Y002603D03*
D231*
X004910Y002607D03*
X004910Y002611D03*
X004910Y002615D03*
X004910Y002619D03*
X004910Y002623D03*
X004910Y002627D03*
D232*
X004882Y002639D03*
D233*
X004751Y002643D03*
D234*
X004660Y002647D03*
X005495Y002721D03*
X004951Y003426D03*
D235*
X004961Y003524D03*
X004564Y003135D03*
X004567Y002650D03*
D236*
X004485Y002654D03*
X004812Y003800D03*
D237*
X005459Y002934D03*
X005463Y002930D03*
X005467Y002926D03*
X005475Y002914D03*
X005479Y002910D03*
X003554Y002686D03*
D238*
X003558Y002694D03*
X004798Y003934D03*
D239*
X003579Y002713D03*
X003575Y002710D03*
X003571Y002706D03*
X003564Y002702D03*
X003560Y002698D03*
D240*
X003585Y002717D03*
X003589Y002721D03*
X003593Y002725D03*
X004798Y003930D03*
D241*
X004965Y003580D03*
X005638Y002717D03*
D242*
X003615Y002745D03*
X003611Y002741D03*
X003607Y002737D03*
X003603Y002733D03*
X003599Y002729D03*
D243*
X005207Y002729D03*
D244*
X004969Y002737D03*
D245*
X004715Y002749D03*
D246*
X004717Y002753D03*
D247*
X004719Y002757D03*
D248*
X004721Y002761D03*
D249*
X004723Y002765D03*
D250*
X004725Y002769D03*
D251*
X004727Y002773D03*
D252*
X004729Y002776D03*
D253*
X004731Y002780D03*
D254*
X004733Y002784D03*
D255*
X004735Y002788D03*
D256*
X004735Y002792D03*
D257*
X004737Y002796D03*
D258*
X004739Y002800D03*
D259*
X004741Y002804D03*
D260*
X004741Y002808D03*
D261*
X004711Y002812D03*
D262*
X004709Y002816D03*
D263*
X004666Y002820D03*
D264*
X004638Y002828D03*
D265*
X004634Y002832D03*
D266*
X004627Y002839D03*
D267*
X004623Y002847D03*
D268*
X004621Y002851D03*
D269*
X004621Y002855D03*
D270*
X004619Y002859D03*
D271*
X004619Y002863D03*
D272*
X004619Y002867D03*
D273*
X004386Y002871D03*
D274*
X004237Y002875D03*
D275*
X004087Y002879D03*
X004949Y003402D03*
D276*
X005449Y002946D03*
X005453Y002942D03*
X005457Y002938D03*
X004800Y003942D03*
D277*
X004967Y003615D03*
X005357Y003150D03*
X004290Y002950D03*
D278*
X004410Y002954D03*
X004556Y003095D03*
X004957Y003489D03*
D279*
X004530Y002958D03*
D280*
X004650Y002961D03*
D281*
X004796Y002965D03*
D282*
X004888Y002969D03*
X004912Y002993D03*
D283*
X004910Y002973D03*
D284*
X004910Y002977D03*
D285*
X004912Y002989D03*
D286*
X004912Y002997D03*
D287*
X004912Y003001D03*
D288*
X004912Y003005D03*
D289*
X004916Y003013D03*
D290*
X004916Y003017D03*
D291*
X004916Y003021D03*
D292*
X004916Y003024D03*
D293*
X004916Y003028D03*
D294*
X004916Y003032D03*
D295*
X004918Y003040D03*
D296*
X004918Y003044D03*
D297*
X004918Y003048D03*
D298*
X004918Y003052D03*
D299*
X004918Y003060D03*
D300*
X004575Y003064D03*
D301*
X005343Y003064D03*
D302*
X004951Y003450D03*
X004566Y003068D03*
D303*
X004571Y003154D03*
X004961Y003536D03*
X005355Y003068D03*
D304*
X004560Y003076D03*
D305*
X004558Y003080D03*
X004955Y003469D03*
D306*
X004957Y003485D03*
X004556Y003091D03*
D307*
X004625Y003237D03*
X004629Y003241D03*
X004632Y003245D03*
X004636Y003249D03*
X004640Y003253D03*
X004644Y003257D03*
X004963Y003572D03*
X005365Y003095D03*
D308*
X004957Y003493D03*
X004556Y003099D03*
D309*
X005365Y003099D03*
D310*
X004957Y003497D03*
X004556Y003103D03*
D311*
X005365Y003103D03*
D312*
X004959Y003501D03*
X004558Y003107D03*
D313*
X005365Y003107D03*
D314*
X004959Y003505D03*
X004558Y003111D03*
D315*
X004965Y003587D03*
X005367Y003111D03*
D316*
X004959Y003509D03*
X004558Y003115D03*
D317*
X005365Y003115D03*
D318*
X004560Y003119D03*
D319*
X005365Y003119D03*
D320*
X004560Y003123D03*
D321*
X004562Y003127D03*
X004959Y003517D03*
D322*
X004959Y003521D03*
X004562Y003131D03*
D323*
X004967Y003603D03*
X005361Y003135D03*
X005361Y003131D03*
D324*
X004566Y003139D03*
D325*
X004967Y003607D03*
X005361Y003139D03*
D326*
X005357Y003147D03*
X004967Y003611D03*
D327*
X004569Y003150D03*
D328*
X005355Y003154D03*
X005355Y003158D03*
X004812Y003804D03*
D329*
X004573Y003158D03*
D330*
X004575Y003162D03*
X004961Y003540D03*
D331*
X004967Y003619D03*
X005353Y003162D03*
D332*
X005349Y003170D03*
X005258Y003276D03*
D333*
X005347Y003174D03*
X004969Y003627D03*
X004812Y003812D03*
D334*
X005345Y003178D03*
D335*
X005343Y003182D03*
X005343Y003186D03*
X005268Y003273D03*
X004969Y003631D03*
X004812Y003816D03*
D336*
X004654Y003265D03*
X004650Y003261D03*
X004623Y003233D03*
X004619Y003229D03*
X004615Y003225D03*
D337*
X004940Y003284D03*
D338*
X004940Y003288D03*
D339*
X004940Y003292D03*
D340*
X004940Y003296D03*
D341*
X004940Y003300D03*
D342*
X004941Y003308D03*
D343*
X004941Y003312D03*
D344*
X004941Y003320D03*
D345*
X004941Y003324D03*
D346*
X004943Y003332D03*
D347*
X004943Y003336D03*
D348*
X004943Y003343D03*
D349*
X004943Y003347D03*
D350*
X004943Y003351D03*
D351*
X004945Y003355D03*
D352*
X004945Y003359D03*
D353*
X004945Y003363D03*
D354*
X004945Y003367D03*
D355*
X004945Y003375D03*
D356*
X004947Y003379D03*
D357*
X004947Y003387D03*
D358*
X004947Y003395D03*
D359*
X004947Y003399D03*
D360*
X004949Y003406D03*
D361*
X004949Y003414D03*
D362*
X004949Y003418D03*
D363*
X004951Y003430D03*
D364*
X004951Y003438D03*
D365*
X004951Y003442D03*
D366*
X004955Y003461D03*
D367*
X004955Y003465D03*
D368*
X004957Y003477D03*
D369*
X004961Y003528D03*
D370*
X004965Y003576D03*
D371*
X004965Y003591D03*
D372*
X004967Y003599D03*
D373*
X004991Y003879D03*
D374*
X002715Y000333D02*
X002711Y000333D01*
X002711Y000341D01*
X002715Y000341D01*
X002716Y000340D01*
X002716Y000334D01*
X002715Y000333D01*
X002718Y000333D02*
X002718Y000334D01*
X002720Y000334D01*
X002720Y000333D01*
X002718Y000333D01*
X002718Y000337D02*
X002718Y000338D01*
X002720Y000338D01*
X002720Y000337D01*
X002718Y000337D01*
X002722Y000333D02*
X002727Y000341D01*
X002729Y000341D02*
X002735Y000341D01*
X002737Y000338D02*
X002737Y000333D01*
X002737Y000336D02*
X002739Y000338D01*
X002740Y000338D01*
X002743Y000337D02*
X002744Y000338D01*
X002746Y000338D01*
X002748Y000337D01*
X002748Y000336D01*
X002743Y000336D01*
X002743Y000337D02*
X002743Y000334D01*
X002744Y000333D01*
X002746Y000333D01*
X002750Y000334D02*
X002750Y000337D01*
X002751Y000338D01*
X002754Y000338D01*
X002755Y000337D01*
X002755Y000336D01*
X002750Y000336D01*
X002750Y000334D02*
X002751Y000333D01*
X002754Y000333D01*
X002757Y000333D02*
X002761Y000333D01*
X002762Y000334D01*
X002762Y000337D01*
X002761Y000338D01*
X002757Y000338D01*
X002757Y000341D02*
X002757Y000333D01*
X002764Y000334D02*
X002766Y000333D01*
X002770Y000333D01*
X002770Y000338D01*
X002772Y000337D02*
X002773Y000338D01*
X002777Y000338D01*
X002775Y000336D02*
X002773Y000336D01*
X002772Y000337D01*
X002775Y000336D02*
X002777Y000334D01*
X002775Y000333D01*
X002772Y000333D01*
X002779Y000333D02*
X002784Y000341D01*
X002786Y000341D02*
X002790Y000341D01*
X002791Y000340D01*
X002791Y000337D01*
X002790Y000336D01*
X002786Y000336D01*
X002786Y000333D02*
X002786Y000341D01*
X002793Y000338D02*
X002793Y000333D01*
X002793Y000336D02*
X002796Y000338D01*
X002797Y000338D01*
X002799Y000337D02*
X002799Y000334D01*
X002801Y000333D01*
X002803Y000333D01*
X002805Y000334D01*
X002805Y000337D01*
X002803Y000338D01*
X002801Y000338D01*
X002799Y000337D01*
X002807Y000330D02*
X002808Y000330D01*
X002809Y000332D01*
X002809Y000338D01*
X002811Y000337D02*
X002813Y000338D01*
X002815Y000338D01*
X002817Y000337D01*
X002817Y000336D01*
X002811Y000336D01*
X002811Y000337D02*
X002811Y000334D01*
X002813Y000333D01*
X002815Y000333D01*
X002819Y000333D02*
X002819Y000341D01*
X002819Y000336D02*
X002823Y000338D01*
X002825Y000338D02*
X002827Y000338D01*
X002826Y000340D02*
X002826Y000334D01*
X002827Y000333D01*
X002829Y000334D02*
X002829Y000337D01*
X002831Y000338D01*
X002833Y000338D01*
X002835Y000337D01*
X002835Y000336D01*
X002829Y000336D01*
X002829Y000334D02*
X002831Y000333D01*
X002833Y000333D01*
X002837Y000333D02*
X002842Y000341D01*
X002844Y000340D02*
X002844Y000334D01*
X002845Y000333D01*
X002848Y000333D01*
X002849Y000334D01*
X002849Y000337D01*
X002846Y000337D01*
X002844Y000340D02*
X002845Y000341D01*
X002848Y000341D01*
X002849Y000340D01*
X002851Y000338D02*
X002851Y000333D01*
X002851Y000336D02*
X002854Y000338D01*
X002855Y000338D01*
X002858Y000338D02*
X002861Y000338D01*
X002862Y000337D01*
X002862Y000333D01*
X002858Y000333D01*
X002857Y000334D01*
X002858Y000336D01*
X002862Y000336D01*
X002864Y000337D02*
X002867Y000337D01*
X002869Y000338D02*
X002871Y000338D01*
X002871Y000333D01*
X002872Y000333D02*
X002869Y000333D01*
X002866Y000333D02*
X002866Y000340D01*
X002867Y000341D01*
X002871Y000342D02*
X002871Y000341D01*
X002874Y000341D02*
X002874Y000333D01*
X002874Y000336D02*
X002878Y000338D01*
X002874Y000336D02*
X002878Y000333D01*
X002880Y000333D02*
X002885Y000341D01*
X002889Y000340D02*
X002890Y000341D01*
X002889Y000340D02*
X002889Y000333D01*
X002892Y000333D02*
X002892Y000338D01*
X002892Y000336D02*
X002895Y000338D01*
X002896Y000338D01*
X002898Y000337D02*
X002899Y000338D01*
X002902Y000338D01*
X002903Y000337D01*
X002903Y000336D01*
X002898Y000336D01*
X002898Y000337D02*
X002898Y000334D01*
X002899Y000333D01*
X002902Y000333D01*
X002905Y000334D02*
X002905Y000337D01*
X002907Y000338D01*
X002909Y000338D01*
X002911Y000337D01*
X002911Y000336D01*
X002905Y000336D01*
X002905Y000334D02*
X002907Y000333D01*
X002909Y000333D01*
X002913Y000333D02*
X002917Y000333D01*
X002918Y000334D01*
X002918Y000337D01*
X002917Y000338D01*
X002913Y000338D01*
X002913Y000341D02*
X002913Y000333D01*
X002920Y000334D02*
X002921Y000333D01*
X002925Y000333D01*
X002925Y000338D01*
X002927Y000337D02*
X002928Y000338D01*
X002932Y000338D01*
X002934Y000338D02*
X002938Y000338D01*
X002940Y000337D01*
X002940Y000334D01*
X002938Y000333D01*
X002934Y000333D01*
X002934Y000341D01*
X002931Y000336D02*
X002928Y000336D01*
X002927Y000337D01*
X002927Y000333D02*
X002931Y000333D01*
X002932Y000334D01*
X002931Y000336D01*
X002942Y000333D02*
X002944Y000333D01*
X002943Y000333D02*
X002943Y000341D01*
X002942Y000341D01*
X002948Y000338D02*
X002950Y000338D01*
X002952Y000337D01*
X002952Y000333D01*
X002948Y000333D01*
X002946Y000334D01*
X002948Y000336D01*
X002952Y000336D01*
X002954Y000337D02*
X002954Y000334D01*
X002955Y000333D01*
X002959Y000333D01*
X002961Y000333D02*
X002961Y000341D01*
X002959Y000338D02*
X002955Y000338D01*
X002954Y000337D01*
X002961Y000336D02*
X002965Y000338D01*
X002967Y000337D02*
X002967Y000334D01*
X002968Y000333D01*
X002972Y000333D01*
X002974Y000333D02*
X002977Y000333D01*
X002975Y000333D02*
X002975Y000341D01*
X002974Y000341D01*
X002972Y000338D02*
X002968Y000338D01*
X002967Y000337D01*
X002965Y000333D02*
X002961Y000336D01*
X002979Y000336D02*
X002984Y000336D01*
X002984Y000337D01*
X002983Y000338D01*
X002980Y000338D01*
X002979Y000337D01*
X002979Y000334D01*
X002980Y000333D01*
X002983Y000333D01*
X002986Y000334D02*
X002987Y000336D01*
X002991Y000336D01*
X002991Y000337D02*
X002991Y000333D01*
X002987Y000333D01*
X002986Y000334D01*
X002987Y000338D02*
X002990Y000338D01*
X002991Y000337D01*
X002993Y000338D02*
X002997Y000338D01*
X002999Y000337D01*
X002999Y000333D01*
X003001Y000333D02*
X003002Y000333D01*
X003002Y000334D01*
X003001Y000334D01*
X003001Y000333D01*
X003004Y000333D02*
X003008Y000333D01*
X003010Y000334D01*
X003010Y000337D01*
X003008Y000338D01*
X003004Y000338D01*
X003004Y000341D02*
X003004Y000333D01*
X003012Y000333D02*
X003012Y000338D01*
X003013Y000338D01*
X003014Y000337D01*
X003015Y000338D01*
X003017Y000337D01*
X003017Y000333D01*
X003019Y000333D02*
X003023Y000333D01*
X003024Y000334D01*
X003024Y000337D01*
X003023Y000338D01*
X003019Y000338D01*
X003019Y000330D01*
X003014Y000333D02*
X003014Y000337D01*
X002993Y000333D02*
X002993Y000338D01*
X002920Y000338D02*
X002920Y000334D01*
X002890Y000337D02*
X002887Y000337D01*
X002823Y000333D02*
X002819Y000336D01*
X002809Y000342D02*
X002809Y000341D01*
X002764Y000338D02*
X002764Y000334D01*
X002732Y000337D02*
X002729Y000337D01*
X002729Y000333D02*
X002729Y000341D01*
D375*
X004327Y011369D02*
X005095Y011369D01*
X005841Y011435D02*
X006609Y011435D01*
X005095Y013337D02*
X004327Y013337D01*
X005841Y013404D02*
X006609Y013404D01*
X006609Y015372D02*
X005841Y015372D01*
X005095Y015369D02*
X004327Y015369D01*
X004327Y017337D02*
X005095Y017337D01*
X005841Y017341D02*
X006609Y017341D01*
X006609Y019349D02*
X005841Y019349D01*
X005095Y019369D02*
X004327Y019369D01*
X004327Y021337D02*
X005095Y021337D01*
X005841Y021317D02*
X006609Y021317D01*
X006609Y023286D02*
X005841Y023286D01*
X005095Y023369D02*
X004327Y023369D01*
X004327Y025337D02*
X005095Y025337D01*
X005841Y025254D02*
X006609Y025254D01*
X032679Y024133D02*
X033446Y024133D01*
X034327Y024337D02*
X035095Y024337D01*
X035095Y022369D02*
X034327Y022369D01*
X033446Y022165D02*
X032679Y022165D01*
X034327Y020337D02*
X035095Y020337D01*
X033446Y020196D02*
X032679Y020196D01*
X032679Y018228D02*
X033446Y018228D01*
X034327Y018369D02*
X035095Y018369D01*
X035095Y016337D02*
X034327Y016337D01*
X033447Y016278D02*
X032679Y016278D01*
X032679Y014309D02*
X033447Y014309D01*
X034327Y014369D02*
X035095Y014369D01*
X035095Y012337D02*
X034327Y012337D01*
X033446Y012322D02*
X032679Y012322D01*
X032679Y010354D02*
X033446Y010354D01*
X034327Y010369D02*
X035095Y010369D01*
X034448Y005350D02*
X033680Y005350D01*
X033451Y004500D02*
X032684Y004500D01*
X034327Y004337D02*
X035095Y004337D01*
X034448Y003086D02*
X033680Y003086D01*
X033451Y002532D02*
X032684Y002532D01*
X034327Y002369D02*
X035095Y002369D01*
D376*
X006288Y006463D02*
X005694Y006463D01*
X003728Y006463D02*
X003134Y006463D01*
X003134Y008243D02*
X003728Y008243D01*
X005694Y008243D02*
X006288Y008243D01*
D377*
X007524Y007353D03*
X004711Y004853D03*
X007524Y004353D03*
X014461Y005415D03*
X014461Y007415D03*
X014086Y010853D03*
X013086Y010853D03*
X012961Y011453D03*
X011586Y010853D03*
X009336Y010853D03*
X008336Y010853D03*
X013086Y013103D03*
X013086Y014978D03*
X014086Y014978D03*
X012961Y015578D03*
X011586Y014978D03*
X009336Y014978D03*
X008336Y014978D03*
X013086Y017228D03*
X013086Y019103D03*
X012961Y019703D03*
X014086Y019103D03*
X011586Y019103D03*
X009336Y019103D03*
X008336Y019103D03*
X013086Y021353D03*
X013086Y023228D03*
X014086Y023228D03*
X012961Y023828D03*
X011586Y023228D03*
X009336Y023228D03*
X008336Y023228D03*
X013086Y025478D03*
X025211Y025415D03*
X026211Y025415D03*
X026336Y024815D03*
X027711Y025415D03*
X029961Y025415D03*
X030961Y025415D03*
X026211Y023165D03*
X026211Y021290D03*
X026336Y020690D03*
X025211Y021290D03*
X027711Y021290D03*
X029961Y021290D03*
X030961Y021290D03*
X026211Y019040D03*
X026211Y017165D03*
X025211Y017165D03*
X026336Y016565D03*
X027711Y017165D03*
X029961Y017165D03*
X030961Y017165D03*
X026211Y014915D03*
X026211Y013040D03*
X026336Y012440D03*
X025211Y013040D03*
X027711Y013040D03*
X029961Y013040D03*
X030961Y013040D03*
X026211Y010790D03*
X030399Y006790D03*
X032399Y006790D03*
X023311Y006165D03*
D378*
X024111Y006165D03*
X025211Y010790D03*
X026336Y011640D03*
X028711Y013040D03*
X025211Y014915D03*
X026336Y015765D03*
X028711Y017165D03*
X025211Y019040D03*
X026336Y019890D03*
X028711Y021290D03*
X025211Y023165D03*
X026336Y024015D03*
X028711Y025415D03*
X014086Y025478D03*
X012961Y024628D03*
X010586Y023228D03*
X014086Y021353D03*
X012961Y020503D03*
X010586Y019103D03*
X014086Y017228D03*
X012961Y016378D03*
X010586Y014978D03*
X014086Y013103D03*
X012961Y012253D03*
X010586Y010853D03*
X004711Y005853D03*
D379*
X024211Y003853D03*
D380*
X023211Y003853D03*
X022211Y003853D03*
X021211Y003853D03*
X020211Y003853D03*
X019211Y003853D03*
X018211Y003853D03*
X017211Y003853D03*
X016211Y003853D03*
X015211Y003853D03*
X015211Y002853D03*
X016211Y002853D03*
X017211Y002853D03*
X018211Y002853D03*
X019211Y002853D03*
X020211Y002853D03*
X021211Y002853D03*
X022211Y002853D03*
X023211Y002853D03*
X024211Y002853D03*
X027836Y011040D03*
X030836Y011040D03*
X030836Y015165D03*
X027836Y015165D03*
X027836Y019290D03*
X030836Y019290D03*
X030836Y023415D03*
X027836Y023415D03*
X011461Y025228D03*
X008461Y025228D03*
X008461Y021103D03*
X011461Y021103D03*
X011461Y016978D03*
X008461Y016978D03*
X008461Y012853D03*
X011461Y012853D03*
D381*
X031149Y003286D03*
X031154Y002043D03*
D382*
X029738Y001790D02*
X029184Y001790D01*
X029184Y000790D02*
X029738Y000790D01*
X029738Y002790D02*
X029184Y002790D01*
X029184Y003790D02*
X029738Y003790D01*
X029738Y004790D02*
X029184Y004790D01*
X029184Y005790D02*
X029738Y005790D01*
X029738Y006790D02*
X029184Y006790D01*
X026738Y006790D02*
X026184Y006790D01*
X026184Y005790D02*
X026738Y005790D01*
X026738Y004790D02*
X026184Y004790D01*
X026184Y003790D02*
X026738Y003790D01*
X026738Y002790D02*
X026184Y002790D01*
X026184Y001790D02*
X026738Y001790D01*
X026738Y000790D02*
X026184Y000790D01*
X021926Y005165D02*
X021372Y005165D01*
X021372Y006165D02*
X021926Y006165D01*
X021926Y007165D02*
X021372Y007165D01*
X021372Y008165D02*
X021926Y008165D01*
X021926Y009165D02*
X021372Y009165D01*
X021488Y011040D02*
X020934Y011040D01*
X020934Y012040D02*
X021488Y012040D01*
X021488Y013040D02*
X020934Y013040D01*
X018363Y012853D02*
X017809Y012853D01*
X017809Y011853D02*
X018363Y011853D01*
X018363Y010853D02*
X017809Y010853D01*
X017622Y009165D02*
X018176Y009165D01*
X018176Y008165D02*
X017622Y008165D01*
X017622Y007165D02*
X018176Y007165D01*
X018176Y006165D02*
X017622Y006165D01*
X017622Y005165D02*
X018176Y005165D01*
X013176Y004790D02*
X012621Y004790D01*
X012621Y003790D02*
X013176Y003790D01*
X013176Y002790D02*
X012621Y002790D01*
X012621Y001790D02*
X013176Y001790D01*
X013176Y000790D02*
X012621Y000790D01*
X010176Y000790D02*
X009621Y000790D01*
X009621Y001790D02*
X010176Y001790D01*
X010176Y002790D02*
X009621Y002790D01*
X009621Y003790D02*
X010176Y003790D01*
X010176Y004790D02*
X009621Y004790D01*
X009621Y005790D02*
X010176Y005790D01*
X010176Y006790D02*
X009621Y006790D01*
X012621Y006790D02*
X013176Y006790D01*
X013176Y005790D02*
X012621Y005790D01*
X014809Y010853D02*
X015363Y010853D01*
X015363Y011853D02*
X014809Y011853D01*
X014809Y012853D02*
X015363Y012853D01*
X015363Y014978D02*
X014809Y014978D01*
X014809Y015978D02*
X015363Y015978D01*
X015363Y016978D02*
X014809Y016978D01*
X017809Y016978D02*
X018363Y016978D01*
X018363Y015978D02*
X017809Y015978D01*
X017809Y014978D02*
X018363Y014978D01*
X020934Y015165D02*
X021488Y015165D01*
X021488Y016165D02*
X020934Y016165D01*
X020934Y017165D02*
X021488Y017165D01*
X023934Y017165D02*
X024488Y017165D01*
X024488Y016165D02*
X023934Y016165D01*
X023934Y015165D02*
X024488Y015165D01*
X024488Y013040D02*
X023934Y013040D01*
X023934Y012040D02*
X024488Y012040D01*
X024488Y011040D02*
X023934Y011040D01*
X018363Y019103D02*
X017809Y019103D01*
X017809Y020103D02*
X018363Y020103D01*
X018363Y021103D02*
X017809Y021103D01*
X015363Y021103D02*
X014809Y021103D01*
X014809Y020103D02*
X015363Y020103D01*
X015363Y019103D02*
X014809Y019103D01*
X014809Y023228D02*
X015363Y023228D01*
X015363Y024228D02*
X014809Y024228D01*
X014809Y025228D02*
X015363Y025228D01*
X017809Y025228D02*
X018363Y025228D01*
X018363Y024228D02*
X017809Y024228D01*
X017809Y023228D02*
X018363Y023228D01*
X020934Y023415D02*
X021488Y023415D01*
X021488Y024415D02*
X020934Y024415D01*
X020934Y025415D02*
X021488Y025415D01*
X023934Y025415D02*
X024488Y025415D01*
X024488Y024415D02*
X023934Y024415D01*
X023934Y023415D02*
X024488Y023415D01*
X024488Y021290D02*
X023934Y021290D01*
X023934Y020290D02*
X024488Y020290D01*
X024488Y019290D02*
X023934Y019290D01*
X021488Y019290D02*
X020934Y019290D01*
X020934Y020290D02*
X021488Y020290D01*
X021488Y021290D02*
X020934Y021290D01*
D383*
X021211Y021290D02*
X019649Y021290D01*
X019649Y023228D01*
X019649Y023853D01*
X020524Y024728D01*
X020524Y025103D01*
X020836Y025415D01*
X021211Y025415D01*
X020461Y023915D02*
X020461Y023521D01*
X020457Y023510D01*
X020457Y023320D01*
X020461Y023310D01*
X020461Y020396D01*
X020457Y020385D01*
X020457Y020195D01*
X020461Y020185D01*
X020461Y019396D01*
X020457Y019385D01*
X020457Y019195D01*
X020461Y019185D01*
X020461Y016271D01*
X020457Y016260D01*
X020457Y016070D01*
X020461Y016060D01*
X020461Y015271D01*
X020457Y015260D01*
X020457Y015070D01*
X020461Y015060D01*
X020461Y012290D01*
X020149Y012290D01*
X020149Y009228D01*
X018899Y009228D01*
X018899Y023915D01*
X020461Y023915D01*
X020461Y023817D02*
X018899Y023817D01*
X018899Y023659D02*
X020461Y023659D01*
X020457Y023500D02*
X018899Y023500D01*
X018899Y023342D02*
X020457Y023342D01*
X020461Y023183D02*
X018899Y023183D01*
X018899Y023024D02*
X020461Y023024D01*
X020461Y022866D02*
X018899Y022866D01*
X018899Y022707D02*
X020461Y022707D01*
X020461Y022549D02*
X018899Y022549D01*
X018899Y022390D02*
X020461Y022390D01*
X020461Y022232D02*
X018899Y022232D01*
X018899Y022073D02*
X020461Y022073D01*
X020461Y021915D02*
X018899Y021915D01*
X018899Y021756D02*
X020461Y021756D01*
X020461Y021598D02*
X018899Y021598D01*
X018899Y021439D02*
X020461Y021439D01*
X020461Y021280D02*
X018899Y021280D01*
X018899Y021122D02*
X020461Y021122D01*
X020461Y020963D02*
X018899Y020963D01*
X018899Y020805D02*
X020461Y020805D01*
X020461Y020646D02*
X018899Y020646D01*
X018899Y020488D02*
X020461Y020488D01*
X020457Y020329D02*
X018899Y020329D01*
X018899Y020171D02*
X020461Y020171D01*
X020461Y020012D02*
X018899Y020012D01*
X018899Y019854D02*
X020461Y019854D01*
X020461Y019695D02*
X018899Y019695D01*
X018899Y019536D02*
X020461Y019536D01*
X020457Y019378D02*
X018899Y019378D01*
X018899Y019219D02*
X020457Y019219D01*
X020461Y019061D02*
X018899Y019061D01*
X018899Y018902D02*
X020461Y018902D01*
X020461Y018744D02*
X018899Y018744D01*
X018899Y018585D02*
X020461Y018585D01*
X020461Y018427D02*
X018899Y018427D01*
X018899Y018268D02*
X020461Y018268D01*
X020461Y018110D02*
X018899Y018110D01*
X018899Y017951D02*
X020461Y017951D01*
X020461Y017793D02*
X018899Y017793D01*
X018899Y017634D02*
X020461Y017634D01*
X020461Y017475D02*
X018899Y017475D01*
X018899Y017317D02*
X020461Y017317D01*
X020461Y017158D02*
X018899Y017158D01*
X018899Y017000D02*
X020461Y017000D01*
X020461Y016841D02*
X018899Y016841D01*
X018899Y016683D02*
X020461Y016683D01*
X020461Y016524D02*
X018899Y016524D01*
X018899Y016366D02*
X020461Y016366D01*
X020457Y016207D02*
X018899Y016207D01*
X018899Y016049D02*
X020461Y016049D01*
X020461Y015890D02*
X018899Y015890D01*
X018899Y015731D02*
X020461Y015731D01*
X020461Y015573D02*
X018899Y015573D01*
X018899Y015414D02*
X020461Y015414D01*
X020457Y015256D02*
X018899Y015256D01*
X018899Y015097D02*
X020457Y015097D01*
X020461Y014939D02*
X018899Y014939D01*
X018899Y014780D02*
X020461Y014780D01*
X020461Y014622D02*
X018899Y014622D01*
X018899Y014463D02*
X020461Y014463D01*
X020461Y014305D02*
X018899Y014305D01*
X018899Y014146D02*
X020461Y014146D01*
X020461Y013987D02*
X018899Y013987D01*
X018899Y013829D02*
X020461Y013829D01*
X020461Y013670D02*
X018899Y013670D01*
X018899Y013512D02*
X020461Y013512D01*
X020461Y013353D02*
X018899Y013353D01*
X018899Y013195D02*
X020461Y013195D01*
X020461Y013036D02*
X018899Y013036D01*
X018899Y012878D02*
X020461Y012878D01*
X020461Y012719D02*
X018899Y012719D01*
X018899Y012561D02*
X020461Y012561D01*
X020461Y012402D02*
X018899Y012402D01*
X018899Y012244D02*
X020149Y012244D01*
X020149Y012085D02*
X018899Y012085D01*
X018899Y011926D02*
X020149Y011926D01*
X020149Y011768D02*
X018899Y011768D01*
X018899Y011609D02*
X020149Y011609D01*
X020149Y011451D02*
X018899Y011451D01*
X018899Y011292D02*
X020149Y011292D01*
X020149Y011134D02*
X018899Y011134D01*
X018899Y010975D02*
X020149Y010975D01*
X020149Y010817D02*
X018899Y010817D01*
X018899Y010658D02*
X020149Y010658D01*
X020149Y010500D02*
X018899Y010500D01*
X018899Y010341D02*
X020149Y010341D01*
X020149Y010182D02*
X018899Y010182D01*
X018899Y010024D02*
X020149Y010024D01*
X020149Y009865D02*
X018899Y009865D01*
X018899Y009707D02*
X020149Y009707D01*
X020149Y009548D02*
X018899Y009548D01*
X018899Y009390D02*
X020149Y009390D01*
X020215Y009501D02*
X020715Y009001D01*
X020797Y008919D01*
X020903Y008875D01*
X020987Y008875D01*
X021101Y008761D01*
X021277Y008688D01*
X022021Y008688D01*
X022196Y008761D01*
X022330Y008895D01*
X022393Y009046D01*
X023586Y007853D01*
X024651Y007853D01*
X023738Y006940D01*
X023671Y006778D01*
X023671Y006603D01*
X023671Y006452D01*
X023501Y006622D01*
X023320Y006622D01*
X023320Y006174D01*
X023303Y006174D01*
X023303Y006622D01*
X023122Y006622D01*
X022854Y006355D01*
X022854Y006174D01*
X023302Y006174D01*
X023302Y006157D01*
X022854Y006157D01*
X022854Y005976D01*
X023122Y005708D01*
X023303Y005708D01*
X023303Y006156D01*
X023320Y006156D01*
X023320Y005708D01*
X023501Y005708D01*
X023701Y005909D01*
X023707Y005895D01*
X023841Y005761D01*
X024016Y005688D01*
X024206Y005688D01*
X024381Y005761D01*
X024516Y005895D01*
X024588Y006070D01*
X024588Y006260D01*
X024551Y006350D01*
X024551Y006508D01*
X025143Y007100D01*
X025819Y007100D01*
X025780Y007061D01*
X025707Y006885D01*
X025707Y006695D01*
X025780Y006520D01*
X025914Y006386D01*
X026089Y006313D01*
X026833Y006313D01*
X027009Y006386D01*
X027143Y006520D01*
X027216Y006695D01*
X027216Y006885D01*
X027143Y007061D01*
X027103Y007100D01*
X028819Y007100D01*
X028780Y007061D01*
X028707Y006885D01*
X028707Y006695D01*
X028780Y006520D01*
X028914Y006386D01*
X029089Y006313D01*
X029833Y006313D01*
X029923Y006350D01*
X029924Y006350D01*
X030164Y006350D01*
X030201Y006313D01*
X030596Y006313D01*
X030876Y006593D01*
X030876Y006988D01*
X030596Y007267D01*
X030214Y007267D01*
X030214Y007315D01*
X030147Y007477D01*
X030023Y007601D01*
X029771Y007853D01*
X036216Y007853D01*
X036216Y001635D01*
X035005Y001635D01*
X034903Y001592D01*
X034824Y001513D01*
X034781Y001410D01*
X034781Y001299D01*
X034781Y000383D01*
X030002Y000383D01*
X030009Y000386D01*
X030143Y000520D01*
X030216Y000695D01*
X030216Y000885D01*
X030143Y001061D01*
X030009Y001195D01*
X029833Y001267D01*
X029089Y001267D01*
X028914Y001195D01*
X028780Y001061D01*
X028707Y000885D01*
X028707Y000695D01*
X028780Y000520D01*
X028914Y000386D01*
X028920Y000383D01*
X026950Y000383D01*
X026997Y000403D01*
X027126Y000531D01*
X027196Y000699D01*
X027196Y000782D01*
X026470Y000782D01*
X026470Y000799D01*
X026453Y000799D01*
X026453Y001247D01*
X026093Y001247D01*
X025925Y001178D01*
X025797Y001049D01*
X025727Y000881D01*
X025727Y000799D01*
X026452Y000799D01*
X026452Y000782D01*
X025727Y000782D01*
X025727Y000699D01*
X025797Y000531D01*
X025925Y000403D01*
X025972Y000383D01*
X022444Y000383D01*
X023094Y001033D01*
X023447Y001033D01*
X023781Y001367D01*
X023781Y001839D01*
X023447Y002173D01*
X022975Y002173D01*
X022641Y001839D01*
X022641Y001485D01*
X021891Y000735D01*
X015281Y000735D01*
X014545Y001471D01*
X014545Y001472D01*
X014455Y001562D01*
X014337Y001610D01*
X013618Y001610D01*
X013653Y001695D01*
X013653Y001885D01*
X013580Y002061D01*
X013446Y002195D01*
X013271Y002267D01*
X012527Y002267D01*
X012351Y002195D01*
X012217Y002061D01*
X012144Y001885D01*
X012144Y001695D01*
X012180Y001610D01*
X010618Y001610D01*
X010653Y001695D01*
X010653Y001885D01*
X010580Y002061D01*
X010446Y002195D01*
X010271Y002267D01*
X009527Y002267D01*
X009351Y002195D01*
X009217Y002061D01*
X009144Y001885D01*
X009144Y001695D01*
X009180Y001610D01*
X008906Y001610D01*
X007281Y003235D01*
X007281Y003921D01*
X007326Y003876D01*
X007721Y003876D01*
X008001Y004155D01*
X008001Y004550D01*
X007721Y004830D01*
X007326Y004830D01*
X007194Y004698D01*
X007142Y004749D01*
X005906Y005986D01*
X005973Y005986D01*
X005973Y006444D01*
X006010Y006444D01*
X006010Y006481D01*
X006765Y006481D01*
X006765Y006558D01*
X006692Y006733D01*
X006558Y006867D01*
X006383Y006940D01*
X006010Y006940D01*
X006010Y006481D01*
X005973Y006481D01*
X005972Y006481D02*
X005972Y006444D01*
X005217Y006444D01*
X005217Y006368D01*
X005290Y006193D01*
X005310Y006173D01*
X005066Y006173D01*
X004981Y006257D01*
X004806Y006330D01*
X004616Y006330D01*
X004441Y006257D01*
X004307Y006123D01*
X004234Y005948D01*
X004234Y005758D01*
X004307Y005582D01*
X004441Y005448D01*
X004616Y005376D01*
X004806Y005376D01*
X004981Y005448D01*
X005066Y005533D01*
X005454Y005533D01*
X006641Y004345D01*
X006641Y004290D01*
X002806Y004290D01*
X002806Y006117D01*
X002864Y006059D01*
X003039Y005986D01*
X003413Y005986D01*
X003413Y006444D01*
X003450Y006444D01*
X003450Y006481D01*
X004205Y006481D01*
X004205Y006558D01*
X004132Y006733D01*
X003998Y006867D01*
X003823Y006940D01*
X003450Y006940D01*
X003450Y006481D01*
X003413Y006481D01*
X003413Y006940D01*
X003039Y006940D01*
X002864Y006867D01*
X002806Y006809D01*
X002806Y007868D01*
X002853Y007822D01*
X003035Y007746D01*
X003827Y007746D01*
X004009Y007822D01*
X004149Y007961D01*
X004225Y008144D01*
X004225Y008228D01*
X005197Y008228D01*
X005197Y008144D01*
X005273Y007961D01*
X005413Y007822D01*
X005595Y007746D01*
X006387Y007746D01*
X006569Y007822D01*
X006709Y007961D01*
X006785Y008144D01*
X006785Y008228D01*
X012767Y008228D01*
X012738Y008199D01*
X012738Y007756D01*
X013052Y007442D01*
X013495Y007442D01*
X013711Y007658D01*
X014057Y007658D01*
X014004Y007605D01*
X014004Y007424D01*
X014452Y007424D01*
X014452Y007407D01*
X014004Y007407D01*
X014004Y007226D01*
X014272Y006958D01*
X014453Y006958D01*
X014453Y007406D01*
X014470Y007406D01*
X014470Y006958D01*
X014651Y006958D01*
X014918Y007226D01*
X014918Y007407D01*
X014470Y007407D01*
X014470Y007424D01*
X014918Y007424D01*
X014918Y007605D01*
X014865Y007658D01*
X016525Y007658D01*
X016642Y007706D01*
X016732Y007796D01*
X016732Y007797D01*
X016955Y008019D01*
X017045Y008109D01*
X017094Y008227D01*
X017094Y008354D01*
X017094Y008720D01*
X017219Y008845D01*
X017267Y008845D01*
X017351Y008761D01*
X017527Y008688D01*
X018271Y008688D01*
X018446Y008761D01*
X018580Y008895D01*
X018653Y009070D01*
X018653Y009260D01*
X018580Y009436D01*
X018476Y009540D01*
X020199Y009540D01*
X020215Y009501D01*
X020327Y009390D02*
X018599Y009390D01*
X018653Y009231D02*
X020485Y009231D01*
X020644Y009073D02*
X018653Y009073D01*
X018588Y008914D02*
X020810Y008914D01*
X021114Y008756D02*
X018434Y008756D01*
X018380Y008597D02*
X021167Y008597D01*
X021101Y008570D02*
X021277Y008642D01*
X022021Y008642D01*
X022196Y008570D01*
X022330Y008436D01*
X022403Y008260D01*
X022403Y008070D01*
X022330Y007895D01*
X022196Y007761D01*
X022021Y007688D01*
X021277Y007688D01*
X021101Y007761D01*
X020967Y007895D01*
X020894Y008070D01*
X020894Y008260D01*
X020967Y008436D01*
X021101Y008570D01*
X020970Y008438D02*
X018577Y008438D01*
X018580Y008436D02*
X018446Y008570D01*
X018271Y008642D01*
X017527Y008642D01*
X017351Y008570D01*
X017217Y008436D01*
X017144Y008260D01*
X017144Y008070D01*
X017217Y007895D01*
X017351Y007761D01*
X017527Y007688D01*
X018271Y007688D01*
X018446Y007761D01*
X018580Y007895D01*
X018653Y008070D01*
X018653Y008260D01*
X018580Y008436D01*
X018645Y008280D02*
X020903Y008280D01*
X020894Y008121D02*
X018653Y008121D01*
X018608Y007963D02*
X020939Y007963D01*
X021058Y007804D02*
X018490Y007804D01*
X018446Y007570D02*
X018271Y007642D01*
X017527Y007642D01*
X017351Y007570D01*
X017217Y007436D01*
X017144Y007260D01*
X017144Y007070D01*
X017217Y006895D01*
X017351Y006761D01*
X017527Y006688D01*
X018271Y006688D01*
X018446Y006761D01*
X018580Y006895D01*
X018653Y007070D01*
X018653Y007260D01*
X018580Y007436D01*
X018446Y007570D01*
X018529Y007487D02*
X021019Y007487D01*
X020967Y007436D02*
X020894Y007260D01*
X020894Y007070D01*
X020967Y006895D01*
X021101Y006761D01*
X021277Y006688D01*
X022021Y006688D01*
X022196Y006761D01*
X022330Y006895D01*
X022403Y007070D01*
X022403Y007260D01*
X022330Y007436D01*
X022196Y007570D01*
X022021Y007642D01*
X021277Y007642D01*
X021101Y007570D01*
X020967Y007436D01*
X020923Y007329D02*
X018625Y007329D01*
X018653Y007170D02*
X020894Y007170D01*
X020919Y007012D02*
X018629Y007012D01*
X018538Y006853D02*
X021009Y006853D01*
X021261Y006694D02*
X018286Y006694D01*
X018271Y006642D02*
X017527Y006642D01*
X017351Y006570D01*
X017217Y006436D01*
X017144Y006260D01*
X017144Y006070D01*
X017217Y005895D01*
X017351Y005761D01*
X017527Y005688D01*
X018271Y005688D01*
X018446Y005761D01*
X018580Y005895D01*
X018653Y006070D01*
X018653Y006260D01*
X018580Y006436D01*
X018446Y006570D01*
X018271Y006642D01*
X018480Y006536D02*
X021067Y006536D01*
X021101Y006570D02*
X020967Y006436D01*
X020894Y006260D01*
X020894Y006070D01*
X020967Y005895D01*
X021101Y005761D01*
X021277Y005688D01*
X022021Y005688D01*
X022129Y005733D01*
X022329Y005533D01*
X022329Y005437D01*
X022196Y005570D01*
X022021Y005642D01*
X021277Y005642D01*
X021187Y005605D01*
X018360Y005605D01*
X018271Y005642D01*
X017527Y005642D01*
X017351Y005570D01*
X017307Y005525D01*
X015610Y005525D01*
X015415Y005720D01*
X015283Y005775D01*
X015139Y005775D01*
X014821Y005775D01*
X014821Y005906D01*
X014821Y006049D01*
X014766Y006182D01*
X013954Y006994D01*
X013853Y007095D01*
X013720Y007150D01*
X013491Y007150D01*
X013446Y007195D01*
X013271Y007267D01*
X012527Y007267D01*
X012351Y007195D01*
X012267Y007110D01*
X012156Y007110D01*
X011732Y007534D01*
X011642Y007624D01*
X011525Y007673D01*
X007878Y007673D01*
X007721Y007830D01*
X007326Y007830D01*
X007047Y007550D01*
X007047Y007155D01*
X007326Y006876D01*
X007721Y006876D01*
X007879Y007033D01*
X009227Y007033D01*
X009164Y006881D01*
X009164Y006799D01*
X009890Y006799D01*
X009890Y006782D01*
X009164Y006782D01*
X009164Y006699D01*
X009234Y006531D01*
X009363Y006403D01*
X009531Y006333D01*
X009890Y006333D01*
X009890Y006781D01*
X009907Y006781D01*
X009907Y006333D01*
X010267Y006333D01*
X010435Y006403D01*
X010563Y006531D01*
X010633Y006699D01*
X010633Y006782D01*
X009907Y006782D01*
X009907Y006799D01*
X010633Y006799D01*
X010633Y006881D01*
X010570Y007033D01*
X011329Y007033D01*
X011752Y006609D01*
X011842Y006519D01*
X011960Y006470D01*
X012267Y006470D01*
X012351Y006386D01*
X012527Y006313D01*
X013271Y006313D01*
X013446Y006386D01*
X013491Y006430D01*
X013500Y006430D01*
X014101Y005829D01*
X014101Y005730D01*
X013984Y005613D01*
X013984Y005218D01*
X014264Y004938D01*
X014659Y004938D01*
X014776Y005055D01*
X015062Y005055D01*
X015156Y004961D01*
X015257Y004860D01*
X015390Y004805D01*
X017307Y004805D01*
X017351Y004761D01*
X017527Y004688D01*
X018271Y004688D01*
X018360Y004725D01*
X021187Y004725D01*
X021277Y004688D01*
X022021Y004688D01*
X022196Y004761D01*
X022330Y004895D01*
X022346Y004934D01*
X022377Y004859D01*
X022752Y004484D01*
X022842Y004394D01*
X022960Y004345D01*
X023001Y004345D01*
X022714Y004059D01*
X022714Y003647D01*
X023005Y003356D01*
X023417Y003356D01*
X023708Y003647D01*
X023708Y004059D01*
X023421Y004345D01*
X023827Y004345D01*
X023714Y004232D01*
X023714Y003473D01*
X023831Y003356D01*
X024591Y003356D01*
X024708Y003473D01*
X024708Y004232D01*
X024593Y004348D01*
X024705Y004394D01*
X025281Y004970D01*
X025764Y004970D01*
X025727Y004881D01*
X025727Y004799D01*
X026452Y004799D01*
X026452Y004782D01*
X025727Y004782D01*
X025727Y004699D01*
X025797Y004531D01*
X025925Y004403D01*
X026093Y004333D01*
X026453Y004333D01*
X026453Y004781D01*
X026470Y004781D01*
X026470Y004333D01*
X026829Y004333D01*
X026997Y004403D01*
X027126Y004531D01*
X027196Y004699D01*
X027196Y004782D01*
X026470Y004782D01*
X026470Y004799D01*
X027196Y004799D01*
X027196Y004881D01*
X027171Y004940D01*
X027454Y004658D01*
X027454Y001977D01*
X027502Y001859D01*
X027592Y001769D01*
X027592Y001769D01*
X027752Y001609D01*
X027842Y001519D01*
X027960Y001470D01*
X028829Y001470D01*
X028914Y001386D01*
X029089Y001313D01*
X029833Y001313D01*
X030009Y001386D01*
X030143Y001520D01*
X030216Y001695D01*
X030216Y001885D01*
X030143Y002061D01*
X030009Y002195D01*
X029833Y002267D01*
X029089Y002267D01*
X028914Y002195D01*
X028829Y002110D01*
X028156Y002110D01*
X028094Y002173D01*
X028094Y004854D01*
X028045Y004972D01*
X027955Y005062D01*
X027455Y005562D01*
X027337Y005610D01*
X027210Y005610D01*
X027180Y005610D01*
X027216Y005695D01*
X027216Y005885D01*
X027143Y006061D01*
X027009Y006195D01*
X026833Y006267D01*
X026089Y006267D01*
X025914Y006195D01*
X025780Y006061D01*
X025707Y005885D01*
X025707Y005695D01*
X025742Y005610D01*
X025085Y005610D01*
X024967Y005562D01*
X024877Y005472D01*
X024391Y004985D01*
X023156Y004985D01*
X022969Y005173D01*
X022969Y005729D01*
X022920Y005847D01*
X022830Y005937D01*
X022330Y006437D01*
X022329Y006437D01*
X022196Y006570D01*
X022021Y006642D01*
X021277Y006642D01*
X021101Y006570D01*
X020943Y006377D02*
X018604Y006377D01*
X018653Y006219D02*
X020894Y006219D01*
X020899Y006060D02*
X018649Y006060D01*
X018583Y005902D02*
X020964Y005902D01*
X021144Y005743D02*
X018404Y005743D01*
X018524Y006665D02*
X019649Y007790D01*
X020774Y006665D01*
X023311Y006665D01*
X023336Y006665D01*
X023336Y005728D01*
X023524Y005540D01*
X024524Y005540D01*
X025274Y006290D01*
X030024Y006290D01*
X030649Y005665D01*
X032086Y005665D01*
X032086Y006540D01*
X032336Y006790D01*
X032399Y006790D01*
X032407Y006782D02*
X032407Y006799D01*
X032390Y006799D01*
X032390Y007247D01*
X032209Y007247D01*
X031941Y006980D01*
X031941Y006799D01*
X032390Y006799D01*
X032390Y006782D01*
X031941Y006782D01*
X031941Y006601D01*
X032209Y006333D01*
X032390Y006333D01*
X032390Y006781D01*
X032407Y006781D01*
X032407Y006333D01*
X032588Y006333D01*
X032856Y006601D01*
X032856Y006782D01*
X032407Y006782D01*
X032407Y006799D02*
X032856Y006799D01*
X032856Y006980D01*
X032588Y007247D01*
X032407Y007247D01*
X032407Y006799D01*
X032407Y006853D02*
X032390Y006853D01*
X032390Y006694D02*
X032407Y006694D01*
X032390Y006536D02*
X032407Y006536D01*
X032390Y006377D02*
X032407Y006377D01*
X032632Y006377D02*
X033851Y006377D01*
X033867Y006360D02*
X033976Y006316D01*
X034093Y006316D01*
X034202Y006360D01*
X034285Y006443D01*
X034298Y006476D01*
X034331Y006443D01*
X034414Y006360D01*
X034522Y006316D01*
X034719Y006316D01*
X034836Y006316D01*
X034880Y006334D01*
X034945Y006360D01*
X034952Y006368D01*
X034960Y006360D01*
X035068Y006316D01*
X035186Y006316D01*
X035294Y006360D01*
X035377Y006443D01*
X035405Y006512D01*
X035481Y006512D01*
X035589Y006557D01*
X035672Y006640D01*
X035771Y006739D01*
X035815Y006847D01*
X035815Y006964D01*
X035815Y007161D01*
X035815Y007161D01*
X035771Y007270D01*
X035589Y007451D01*
X035524Y007478D01*
X035481Y007496D01*
X035481Y007496D01*
X035363Y007496D01*
X035068Y007496D01*
X034960Y007451D01*
X034952Y007443D01*
X034945Y007451D01*
X034872Y007481D01*
X034836Y007496D01*
X034719Y007496D01*
X034639Y007496D01*
X034522Y007496D01*
X034414Y007451D01*
X034406Y007443D01*
X034399Y007451D01*
X034290Y007496D01*
X033779Y007496D01*
X033671Y007451D01*
X033588Y007368D01*
X033543Y007260D01*
X033543Y007142D01*
X033588Y007034D01*
X033671Y006951D01*
X033740Y006922D01*
X033740Y006552D01*
X033785Y006443D01*
X033867Y006360D01*
X033746Y006536D02*
X032791Y006536D01*
X032856Y006694D02*
X033740Y006694D01*
X033740Y006853D02*
X032856Y006853D01*
X032824Y007012D02*
X033610Y007012D01*
X033543Y007170D02*
X032665Y007170D01*
X032407Y007170D02*
X032390Y007170D01*
X032390Y007012D02*
X032407Y007012D01*
X032132Y007170D02*
X030694Y007170D01*
X030852Y007012D02*
X031973Y007012D01*
X031941Y006853D02*
X030876Y006853D01*
X030876Y006694D02*
X031941Y006694D01*
X032006Y006536D02*
X030819Y006536D01*
X030661Y006377D02*
X032165Y006377D01*
X032086Y005665D02*
X032086Y001915D01*
X031836Y001665D01*
X031675Y001640D02*
X031569Y001534D01*
X031234Y001534D01*
X031234Y001963D01*
X031074Y001963D01*
X031074Y001534D01*
X030739Y001534D01*
X030634Y001640D01*
X030634Y001963D01*
X031074Y001963D01*
X031074Y002123D01*
X030634Y002123D01*
X030634Y002446D01*
X030739Y002552D01*
X031074Y002552D01*
X031074Y002123D01*
X031234Y002123D01*
X031675Y002123D01*
X031675Y002446D01*
X031569Y002552D01*
X031234Y002552D01*
X031234Y002123D01*
X031234Y001963D01*
X031675Y001963D01*
X031675Y001640D01*
X031656Y001621D02*
X034973Y001621D01*
X034803Y001463D02*
X030086Y001463D01*
X030185Y001621D02*
X030652Y001621D01*
X030634Y001780D02*
X030216Y001780D01*
X030194Y001938D02*
X030634Y001938D01*
X030634Y002255D02*
X029863Y002255D01*
X029833Y002313D02*
X030009Y002386D01*
X030143Y002520D01*
X030216Y002695D01*
X030216Y002885D01*
X030143Y003061D01*
X030009Y003195D01*
X029833Y003267D01*
X029089Y003267D01*
X028914Y003195D01*
X028780Y003061D01*
X028707Y002885D01*
X028707Y002695D01*
X028780Y002520D01*
X028914Y002386D01*
X029089Y002313D01*
X029833Y002313D01*
X030037Y002414D02*
X030634Y002414D01*
X030725Y002757D02*
X031572Y002757D01*
X031689Y002874D01*
X031689Y003567D01*
X031745Y003567D01*
X032059Y003881D01*
X032059Y004324D01*
X031745Y004638D01*
X031302Y004638D01*
X030988Y004324D01*
X030988Y004278D01*
X030934Y004333D01*
X030934Y004512D01*
X030620Y004826D01*
X030216Y004826D01*
X030216Y004885D01*
X030143Y005061D01*
X030009Y005195D01*
X029833Y005267D01*
X029089Y005267D01*
X028914Y005195D01*
X028780Y005061D01*
X028707Y004885D01*
X028707Y004695D01*
X028780Y004520D01*
X028914Y004386D01*
X029089Y004313D01*
X029833Y004313D01*
X029863Y004326D01*
X029863Y004255D01*
X029833Y004267D01*
X029089Y004267D01*
X028914Y004195D01*
X028780Y004061D01*
X028707Y003885D01*
X028707Y003695D01*
X028780Y003520D01*
X028914Y003386D01*
X029089Y003313D01*
X029833Y003313D01*
X030009Y003386D01*
X030143Y003520D01*
X030216Y003695D01*
X030216Y003755D01*
X030606Y003755D01*
X030636Y003725D01*
X030608Y003697D01*
X030608Y002874D01*
X030725Y002757D01*
X030608Y002889D02*
X030214Y002889D01*
X030216Y002731D02*
X032156Y002731D01*
X032120Y002644D02*
X032206Y002851D01*
X032364Y003010D01*
X032571Y003096D01*
X033019Y003096D01*
X033019Y002580D01*
X033019Y002484D01*
X032120Y002484D01*
X032120Y002420D01*
X032206Y002212D01*
X032364Y002054D01*
X032571Y001968D01*
X033019Y001968D01*
X033019Y002484D01*
X033115Y002484D01*
X033115Y001968D01*
X033564Y001968D01*
X033771Y002054D01*
X033825Y002108D01*
X033849Y002049D01*
X034008Y001890D01*
X034215Y001805D01*
X034663Y001805D01*
X034663Y002320D01*
X034759Y002320D01*
X034759Y001805D01*
X035207Y001805D01*
X035414Y001890D01*
X035573Y002049D01*
X035659Y002256D01*
X035659Y002320D01*
X034759Y002320D01*
X034759Y002416D01*
X035659Y002416D01*
X035659Y002481D01*
X035573Y002688D01*
X035414Y002846D01*
X035207Y002932D01*
X034994Y002932D01*
X035011Y002974D01*
X035011Y003038D01*
X034112Y003038D01*
X034112Y003134D01*
X035011Y003134D01*
X035011Y003198D01*
X034926Y003405D01*
X034767Y003564D01*
X034560Y003650D01*
X034112Y003650D01*
X034112Y003134D01*
X034016Y003134D01*
X034016Y003650D01*
X033568Y003650D01*
X033360Y003564D01*
X033202Y003405D01*
X033116Y003198D01*
X033116Y003134D01*
X034015Y003134D01*
X034015Y003038D01*
X033703Y003038D01*
X033564Y003096D01*
X033115Y003096D01*
X033115Y002580D01*
X033019Y002580D01*
X032120Y002580D01*
X032120Y002644D01*
X032122Y002414D02*
X031675Y002414D01*
X031675Y002255D02*
X032188Y002255D01*
X032321Y002097D02*
X031234Y002097D01*
X031154Y002043D02*
X031154Y001097D01*
X031211Y001040D01*
X030586Y001040D01*
X030336Y001290D01*
X028399Y001290D01*
X027899Y000790D01*
X026461Y000790D01*
X026470Y000799D02*
X026470Y001247D01*
X026829Y001247D01*
X026997Y001178D01*
X027126Y001049D01*
X027196Y000881D01*
X027196Y000799D01*
X026470Y000799D01*
X026470Y000828D02*
X026453Y000828D01*
X026453Y000987D02*
X026470Y000987D01*
X026453Y001145D02*
X026470Y001145D01*
X026833Y001313D02*
X027009Y001386D01*
X027143Y001520D01*
X027216Y001695D01*
X027216Y001885D01*
X027143Y002061D01*
X027009Y002195D01*
X026833Y002267D01*
X026089Y002267D01*
X025914Y002195D01*
X025780Y002061D01*
X025707Y001885D01*
X025707Y001695D01*
X025780Y001520D01*
X025914Y001386D01*
X026089Y001313D01*
X026833Y001313D01*
X027030Y001145D02*
X028864Y001145D01*
X028749Y000987D02*
X027152Y000987D01*
X027196Y000828D02*
X028707Y000828D01*
X028717Y000670D02*
X027183Y000670D01*
X027106Y000511D02*
X028788Y000511D01*
X028837Y001463D02*
X027086Y001463D01*
X027185Y001621D02*
X027740Y001621D01*
X027752Y001609D02*
X027752Y001609D01*
X027582Y001780D02*
X027216Y001780D01*
X027194Y001938D02*
X027470Y001938D01*
X027454Y002097D02*
X027107Y002097D01*
X026863Y002255D02*
X027454Y002255D01*
X027454Y002414D02*
X027008Y002414D01*
X026997Y002403D02*
X027126Y002531D01*
X027196Y002699D01*
X027196Y002782D01*
X026470Y002782D01*
X026470Y002799D01*
X026453Y002799D01*
X026453Y003247D01*
X026093Y003247D01*
X025925Y003178D01*
X025797Y003049D01*
X025727Y002881D01*
X025727Y002799D01*
X026452Y002799D01*
X026452Y002782D01*
X025727Y002782D01*
X025727Y002699D01*
X025797Y002531D01*
X025925Y002403D01*
X026093Y002333D01*
X026453Y002333D01*
X026453Y002781D01*
X026470Y002781D01*
X026470Y002333D01*
X026829Y002333D01*
X026997Y002403D01*
X027143Y002572D02*
X027454Y002572D01*
X027454Y002731D02*
X027196Y002731D01*
X027196Y002799D02*
X027196Y002881D01*
X027126Y003049D01*
X026997Y003178D01*
X026829Y003247D01*
X026470Y003247D01*
X026470Y002799D01*
X027196Y002799D01*
X027192Y002889D02*
X027454Y002889D01*
X027454Y003048D02*
X027126Y003048D01*
X026928Y003207D02*
X027454Y003207D01*
X027454Y003365D02*
X026959Y003365D01*
X027009Y003386D02*
X027143Y003520D01*
X027216Y003695D01*
X027216Y003885D01*
X027143Y004061D01*
X027009Y004195D01*
X026833Y004267D01*
X026089Y004267D01*
X025914Y004195D01*
X025780Y004061D01*
X025707Y003885D01*
X025707Y003695D01*
X025780Y003520D01*
X025914Y003386D01*
X026089Y003313D01*
X026833Y003313D01*
X027009Y003386D01*
X027144Y003524D02*
X027454Y003524D01*
X027454Y003682D02*
X027210Y003682D01*
X027216Y003841D02*
X027454Y003841D01*
X027454Y003999D02*
X027168Y003999D01*
X027046Y004158D02*
X027454Y004158D01*
X027454Y004316D02*
X024624Y004316D01*
X024708Y004158D02*
X025877Y004158D01*
X025754Y003999D02*
X024708Y003999D01*
X024708Y003841D02*
X025707Y003841D01*
X025712Y003682D02*
X024708Y003682D01*
X024708Y003524D02*
X025778Y003524D01*
X025964Y003365D02*
X024600Y003365D01*
X024532Y003207D02*
X025994Y003207D01*
X025796Y003048D02*
X024688Y003048D01*
X024688Y003050D02*
X024409Y003330D01*
X024230Y003330D01*
X024230Y002871D01*
X024688Y002871D01*
X024688Y003050D01*
X024688Y002889D02*
X025730Y002889D01*
X025727Y002731D02*
X024688Y002731D01*
X024688Y002655D02*
X024688Y002834D01*
X024230Y002834D01*
X024230Y002871D01*
X024193Y002871D01*
X024192Y002871D02*
X024192Y002834D01*
X023734Y002834D01*
X023734Y002655D01*
X024014Y002376D01*
X024193Y002376D01*
X024193Y002834D01*
X024230Y002834D01*
X024230Y002376D01*
X024409Y002376D01*
X024688Y002655D01*
X024605Y002572D02*
X025779Y002572D01*
X025914Y002414D02*
X024447Y002414D01*
X024230Y002414D02*
X024193Y002414D01*
X024193Y002572D02*
X024230Y002572D01*
X024230Y002731D02*
X024193Y002731D01*
X024192Y002871D02*
X023734Y002871D01*
X023734Y003050D01*
X024014Y003330D01*
X024193Y003330D01*
X024193Y002871D01*
X024193Y002889D02*
X024230Y002889D01*
X024230Y003048D02*
X024193Y003048D01*
X024193Y003207D02*
X024230Y003207D01*
X023891Y003207D02*
X023560Y003207D01*
X023417Y003350D02*
X023708Y003059D01*
X023708Y002647D01*
X023417Y002356D01*
X023005Y002356D01*
X022714Y002647D01*
X022714Y003059D01*
X023005Y003350D01*
X023417Y003350D01*
X023426Y003365D02*
X023822Y003365D01*
X023714Y003524D02*
X023585Y003524D01*
X023708Y003682D02*
X023714Y003682D01*
X023708Y003841D02*
X023714Y003841D01*
X023708Y003999D02*
X023714Y003999D01*
X023714Y004158D02*
X023609Y004158D01*
X023450Y004316D02*
X023798Y004316D01*
X024524Y004665D02*
X023024Y004665D01*
X022649Y005040D01*
X022649Y005665D01*
X022149Y006165D01*
X021649Y006165D01*
X022230Y006536D02*
X023035Y006536D01*
X022877Y006377D02*
X022389Y006377D01*
X022548Y006219D02*
X022854Y006219D01*
X022854Y006060D02*
X022706Y006060D01*
X022865Y005902D02*
X022928Y005902D01*
X022963Y005743D02*
X023087Y005743D01*
X022969Y005585D02*
X025023Y005585D01*
X024832Y005426D02*
X022969Y005426D01*
X022969Y005268D02*
X024673Y005268D01*
X024515Y005109D02*
X023032Y005109D01*
X022603Y004633D02*
X013627Y004633D01*
X013653Y004695D02*
X013653Y004885D01*
X013580Y005061D01*
X013446Y005195D01*
X013271Y005267D01*
X012527Y005267D01*
X012351Y005195D01*
X012217Y005061D01*
X012144Y004885D01*
X012144Y004695D01*
X012217Y004520D01*
X012351Y004386D01*
X012527Y004313D01*
X013271Y004313D01*
X013446Y004386D01*
X013580Y004520D01*
X013653Y004695D01*
X013653Y004792D02*
X017320Y004792D01*
X017417Y004350D02*
X017005Y004350D01*
X016714Y004059D01*
X016714Y003647D01*
X017005Y003356D01*
X017417Y003356D01*
X017708Y003647D01*
X017708Y004059D01*
X017417Y004350D01*
X017450Y004316D02*
X017972Y004316D01*
X018005Y004350D02*
X017714Y004059D01*
X017714Y003647D01*
X018005Y003356D01*
X018417Y003356D01*
X018708Y003647D01*
X018708Y004059D01*
X018417Y004350D01*
X018005Y004350D01*
X017814Y004158D02*
X017609Y004158D01*
X017708Y003999D02*
X017714Y003999D01*
X017708Y003841D02*
X017714Y003841D01*
X017708Y003682D02*
X017714Y003682D01*
X017838Y003524D02*
X017585Y003524D01*
X017426Y003365D02*
X017996Y003365D01*
X018005Y003350D02*
X017714Y003059D01*
X017714Y002647D01*
X018005Y002356D01*
X018417Y002356D01*
X018708Y002647D01*
X018708Y003059D01*
X018417Y003350D01*
X018005Y003350D01*
X017862Y003207D02*
X017560Y003207D01*
X017417Y003350D02*
X017708Y003059D01*
X017708Y002647D01*
X017417Y002356D01*
X017005Y002356D01*
X016714Y002647D01*
X016714Y003059D01*
X017005Y003350D01*
X017417Y003350D01*
X017708Y003048D02*
X017714Y003048D01*
X017708Y002889D02*
X017714Y002889D01*
X017708Y002731D02*
X017714Y002731D01*
X017789Y002572D02*
X017633Y002572D01*
X017475Y002414D02*
X017947Y002414D01*
X018475Y002414D02*
X018947Y002414D01*
X019005Y002356D02*
X018714Y002647D01*
X018714Y003059D01*
X019005Y003350D01*
X019417Y003350D01*
X019708Y003059D01*
X019708Y002647D01*
X019495Y002434D01*
X019726Y002434D01*
X020032Y002307D01*
X020266Y002074D01*
X020392Y001768D01*
X020392Y001437D01*
X020266Y001132D01*
X020032Y000898D01*
X019726Y000772D01*
X019396Y000772D01*
X019090Y000898D01*
X018857Y001132D01*
X018730Y001437D01*
X018730Y001768D01*
X018857Y002074D01*
X019090Y002307D01*
X019208Y002356D01*
X019005Y002356D01*
X019038Y002255D02*
X013300Y002255D01*
X013271Y002313D02*
X013446Y002386D01*
X013580Y002520D01*
X013653Y002695D01*
X013653Y002885D01*
X013580Y003061D01*
X013446Y003195D01*
X013271Y003267D01*
X012527Y003267D01*
X012351Y003195D01*
X012217Y003061D01*
X012144Y002885D01*
X012144Y002695D01*
X012217Y002520D01*
X012351Y002386D01*
X012527Y002313D01*
X013271Y002313D01*
X013474Y002414D02*
X014947Y002414D01*
X015005Y002356D02*
X014714Y002647D01*
X014714Y003059D01*
X015005Y003350D01*
X015417Y003350D01*
X015708Y003059D01*
X015708Y002647D01*
X015417Y002356D01*
X015005Y002356D01*
X014789Y002572D02*
X013602Y002572D01*
X013653Y002731D02*
X014714Y002731D01*
X014714Y002889D02*
X013651Y002889D01*
X013586Y003048D02*
X014714Y003048D01*
X014862Y003207D02*
X013418Y003207D01*
X013344Y003365D02*
X014996Y003365D01*
X015005Y003356D02*
X015417Y003356D01*
X015708Y003647D01*
X015708Y004059D01*
X015417Y004350D01*
X015005Y004350D01*
X014714Y004059D01*
X014714Y003647D01*
X015005Y003356D01*
X014838Y003524D02*
X013556Y003524D01*
X013563Y003531D02*
X013633Y003699D01*
X013633Y003782D01*
X012907Y003782D01*
X012907Y003799D01*
X012890Y003799D01*
X012890Y004247D01*
X012531Y004247D01*
X012363Y004178D01*
X012234Y004049D01*
X012164Y003881D01*
X012164Y003799D01*
X012890Y003799D01*
X012890Y003782D01*
X012164Y003782D01*
X012164Y003699D01*
X012234Y003531D01*
X012363Y003403D01*
X012531Y003333D01*
X012890Y003333D01*
X012890Y003781D01*
X012907Y003781D01*
X012907Y003333D01*
X013267Y003333D01*
X013435Y003403D01*
X013563Y003531D01*
X013626Y003682D02*
X014714Y003682D01*
X014714Y003841D02*
X013633Y003841D01*
X013633Y003881D02*
X013563Y004049D01*
X013435Y004178D01*
X013267Y004247D01*
X012907Y004247D01*
X012907Y003799D01*
X013633Y003799D01*
X013633Y003881D01*
X013584Y003999D02*
X014714Y003999D01*
X014814Y004158D02*
X013455Y004158D01*
X013279Y004316D02*
X014972Y004316D01*
X015450Y004316D02*
X015972Y004316D01*
X016005Y004350D02*
X015714Y004059D01*
X015714Y003647D01*
X016005Y003356D01*
X016417Y003356D01*
X016708Y003647D01*
X016708Y004059D01*
X016417Y004350D01*
X016005Y004350D01*
X015814Y004158D02*
X015609Y004158D01*
X015708Y003999D02*
X015714Y003999D01*
X015708Y003841D02*
X015714Y003841D01*
X015708Y003682D02*
X015714Y003682D01*
X015838Y003524D02*
X015585Y003524D01*
X015426Y003365D02*
X015996Y003365D01*
X016005Y003350D02*
X015714Y003059D01*
X015714Y002647D01*
X016005Y002356D01*
X016417Y002356D01*
X016708Y002647D01*
X016708Y003059D01*
X016417Y003350D01*
X016005Y003350D01*
X015862Y003207D02*
X015560Y003207D01*
X015708Y003048D02*
X015714Y003048D01*
X015708Y002889D02*
X015714Y002889D01*
X015708Y002731D02*
X015714Y002731D01*
X015789Y002572D02*
X015633Y002572D01*
X015475Y002414D02*
X015947Y002414D01*
X016475Y002414D02*
X016947Y002414D01*
X016789Y002572D02*
X016633Y002572D01*
X016708Y002731D02*
X016714Y002731D01*
X016708Y002889D02*
X016714Y002889D01*
X016708Y003048D02*
X016714Y003048D01*
X016862Y003207D02*
X016560Y003207D01*
X016426Y003365D02*
X016996Y003365D01*
X016838Y003524D02*
X016585Y003524D01*
X016708Y003682D02*
X016714Y003682D01*
X016708Y003841D02*
X016714Y003841D01*
X016708Y003999D02*
X016714Y003999D01*
X016814Y004158D02*
X016609Y004158D01*
X016450Y004316D02*
X016972Y004316D01*
X017387Y005585D02*
X015551Y005585D01*
X015360Y005743D02*
X017394Y005743D01*
X017214Y005902D02*
X014821Y005902D01*
X014817Y006060D02*
X017149Y006060D01*
X017144Y006219D02*
X014729Y006219D01*
X014571Y006377D02*
X017193Y006377D01*
X017317Y006536D02*
X014412Y006536D01*
X014254Y006694D02*
X017511Y006694D01*
X017259Y006853D02*
X014095Y006853D01*
X013954Y006994D02*
X013954Y006994D01*
X013936Y007012D02*
X014218Y007012D01*
X014060Y007170D02*
X013471Y007170D01*
X013540Y007487D02*
X014004Y007487D01*
X014004Y007329D02*
X011938Y007329D01*
X011779Y007487D02*
X013007Y007487D01*
X012849Y007646D02*
X011590Y007646D01*
X011732Y007534D02*
X011732Y007534D01*
X011461Y007353D02*
X007524Y007353D01*
X007524Y007353D01*
X007524Y007353D01*
X007857Y007012D02*
X009218Y007012D01*
X009164Y006853D02*
X006572Y006853D01*
X006708Y006694D02*
X009166Y006694D01*
X009232Y006536D02*
X006765Y006536D01*
X006774Y006463D02*
X006774Y006040D01*
X008274Y004540D01*
X008274Y002728D01*
X008274Y002728D01*
X008103Y002414D02*
X009323Y002414D01*
X009351Y002386D02*
X009217Y002520D01*
X009144Y002695D01*
X009144Y002885D01*
X009217Y003061D01*
X009351Y003195D01*
X009527Y003267D01*
X010271Y003267D01*
X010446Y003195D01*
X010580Y003061D01*
X010653Y002885D01*
X010653Y002695D01*
X010580Y002520D01*
X010446Y002386D01*
X010271Y002313D01*
X009527Y002313D01*
X009351Y002386D01*
X009497Y002255D02*
X008261Y002255D01*
X008420Y002097D02*
X009253Y002097D01*
X009166Y001938D02*
X008578Y001938D01*
X008737Y001780D02*
X009144Y001780D01*
X009175Y001621D02*
X008895Y001621D01*
X008149Y001463D02*
X007024Y001463D01*
X007024Y001621D02*
X007990Y001621D01*
X007832Y001780D02*
X007024Y001780D01*
X007024Y001938D02*
X007673Y001938D01*
X007515Y002097D02*
X007024Y002097D01*
X007024Y002255D02*
X007356Y002255D01*
X007198Y002414D02*
X007024Y002414D01*
X007024Y002572D02*
X007039Y002572D01*
X007024Y002588D02*
X008592Y001019D01*
X008596Y001018D01*
X008710Y000970D01*
X008837Y000970D01*
X009201Y000970D01*
X009164Y000881D01*
X009164Y000799D01*
X009890Y000799D01*
X009890Y000782D01*
X009164Y000782D01*
X009164Y000699D01*
X009234Y000531D01*
X009363Y000403D01*
X009407Y000384D01*
X007024Y000384D01*
X007024Y002588D01*
X007627Y002889D02*
X009146Y002889D01*
X009144Y002731D02*
X007786Y002731D01*
X007944Y002572D02*
X009195Y002572D01*
X009212Y003048D02*
X007469Y003048D01*
X007310Y003207D02*
X009380Y003207D01*
X009401Y003365D02*
X007281Y003365D01*
X007281Y003524D02*
X009215Y003524D01*
X009217Y003520D02*
X009351Y003386D01*
X009527Y003313D01*
X010271Y003313D01*
X010446Y003386D01*
X010580Y003520D01*
X010653Y003695D01*
X010653Y003885D01*
X010580Y004061D01*
X010446Y004195D01*
X010271Y004267D01*
X009527Y004267D01*
X009351Y004195D01*
X009217Y004061D01*
X009144Y003885D01*
X009144Y003695D01*
X009217Y003520D01*
X009150Y003682D02*
X007281Y003682D01*
X007281Y003841D02*
X009144Y003841D01*
X009192Y003999D02*
X007845Y003999D01*
X008001Y004158D02*
X009314Y004158D01*
X009351Y004386D02*
X009217Y004520D01*
X009144Y004695D01*
X009144Y004885D01*
X009217Y005061D01*
X009351Y005195D01*
X009527Y005267D01*
X010271Y005267D01*
X010446Y005195D01*
X010580Y005061D01*
X010653Y004885D01*
X010653Y004695D01*
X010580Y004520D01*
X010446Y004386D01*
X010271Y004313D01*
X009527Y004313D01*
X009351Y004386D01*
X009262Y004475D02*
X008001Y004475D01*
X008001Y004316D02*
X009519Y004316D01*
X009170Y004633D02*
X007918Y004633D01*
X007759Y004792D02*
X009144Y004792D01*
X009171Y004951D02*
X006941Y004951D01*
X006782Y005109D02*
X009266Y005109D01*
X009351Y005386D02*
X009217Y005520D01*
X009144Y005695D01*
X009144Y005885D01*
X009217Y006061D01*
X009351Y006195D01*
X009527Y006267D01*
X010271Y006267D01*
X010446Y006195D01*
X010580Y006061D01*
X010653Y005885D01*
X010653Y005695D01*
X010580Y005520D01*
X010446Y005386D01*
X010271Y005313D01*
X009527Y005313D01*
X009351Y005386D01*
X009311Y005426D02*
X006465Y005426D01*
X006307Y005585D02*
X009190Y005585D01*
X009144Y005743D02*
X006148Y005743D01*
X005990Y005902D02*
X009151Y005902D01*
X009217Y006060D02*
X006560Y006060D01*
X006558Y006059D02*
X006692Y006193D01*
X006765Y006368D01*
X006765Y006444D01*
X006010Y006444D01*
X006010Y005986D01*
X006383Y005986D01*
X006558Y006059D01*
X006703Y006219D02*
X009409Y006219D01*
X009424Y006377D02*
X006765Y006377D01*
X006010Y006377D02*
X005973Y006377D01*
X005976Y006463D02*
X005991Y006463D01*
X005976Y006463D02*
X005961Y006478D01*
X005961Y007228D01*
X006211Y007478D01*
X006774Y007478D01*
X007211Y007915D01*
X007836Y007915D01*
X008024Y007728D01*
X012149Y007728D01*
X012461Y007415D01*
X014399Y007415D01*
X014461Y007415D02*
X014461Y007353D01*
X014461Y007353D01*
X015836Y007353D01*
X016524Y006665D01*
X018524Y006665D01*
X017169Y007012D02*
X014704Y007012D01*
X014862Y007170D02*
X017144Y007170D01*
X017173Y007329D02*
X014918Y007329D01*
X014918Y007487D02*
X017269Y007487D01*
X017308Y007804D02*
X016740Y007804D01*
X016899Y007963D02*
X017189Y007963D01*
X017144Y008121D02*
X017050Y008121D01*
X017094Y008227D02*
X017094Y008227D01*
X017094Y008280D02*
X017153Y008280D01*
X017094Y008438D02*
X017220Y008438D01*
X017094Y008597D02*
X017417Y008597D01*
X017364Y008756D02*
X017129Y008756D01*
X016774Y008853D02*
X016774Y008290D01*
X016461Y007978D01*
X013274Y007978D01*
X012738Y007963D02*
X006710Y007963D01*
X006776Y008121D02*
X012738Y008121D01*
X012738Y007804D02*
X007747Y007804D01*
X007301Y007804D02*
X006528Y007804D01*
X007142Y007646D02*
X002806Y007646D01*
X002806Y007804D02*
X002894Y007804D01*
X002806Y007487D02*
X007047Y007487D01*
X007047Y007329D02*
X002806Y007329D01*
X002806Y007170D02*
X007047Y007170D01*
X007190Y007012D02*
X002806Y007012D01*
X002806Y006853D02*
X002850Y006853D01*
X002806Y006481D02*
X003412Y006481D01*
X003412Y006444D01*
X002806Y006444D01*
X002806Y006481D01*
X002806Y006060D02*
X002862Y006060D01*
X002806Y005902D02*
X004234Y005902D01*
X004240Y005743D02*
X002806Y005743D01*
X002806Y005585D02*
X004306Y005585D01*
X004494Y005426D02*
X002806Y005426D01*
X002806Y005268D02*
X004451Y005268D01*
X004514Y005330D02*
X004234Y005050D01*
X004234Y004655D01*
X004514Y004376D01*
X004909Y004376D01*
X005188Y004655D01*
X005188Y005050D01*
X004909Y005330D01*
X004514Y005330D01*
X004293Y005109D02*
X002806Y005109D01*
X002806Y004951D02*
X004234Y004951D01*
X004234Y004792D02*
X002806Y004792D01*
X002806Y004633D02*
X004256Y004633D01*
X004414Y004475D02*
X002806Y004475D01*
X002806Y004316D02*
X006641Y004316D01*
X006511Y004475D02*
X005008Y004475D01*
X005167Y004633D02*
X006353Y004633D01*
X006194Y004792D02*
X005188Y004792D01*
X005188Y004951D02*
X006036Y004951D01*
X005877Y005109D02*
X005130Y005109D01*
X004971Y005268D02*
X005719Y005268D01*
X005560Y005426D02*
X004928Y005426D01*
X004711Y005790D02*
X004774Y005853D01*
X005586Y005853D01*
X006961Y004478D01*
X006961Y004353D01*
X006961Y004415D01*
X006961Y004353D02*
X006961Y003103D01*
X008774Y001290D01*
X014274Y001290D01*
X015149Y000415D01*
X022024Y000415D01*
X023211Y001603D01*
X023781Y001621D02*
X025738Y001621D01*
X025707Y001780D02*
X023781Y001780D01*
X023682Y001938D02*
X025729Y001938D01*
X025816Y002097D02*
X023523Y002097D01*
X022899Y002097D02*
X020243Y002097D01*
X020322Y001938D02*
X022741Y001938D01*
X022641Y001780D02*
X020388Y001780D01*
X020392Y001621D02*
X022641Y001621D01*
X022618Y001463D02*
X020392Y001463D01*
X020337Y001304D02*
X022460Y001304D01*
X022301Y001145D02*
X020271Y001145D01*
X020121Y000987D02*
X022143Y000987D01*
X021984Y000828D02*
X019864Y000828D01*
X019259Y000828D02*
X015188Y000828D01*
X015030Y000987D02*
X019002Y000987D01*
X018851Y001145D02*
X014871Y001145D01*
X014712Y001304D02*
X018785Y001304D01*
X018730Y001463D02*
X014554Y001463D01*
X013622Y001621D02*
X018730Y001621D01*
X018735Y001780D02*
X013653Y001780D01*
X013631Y001938D02*
X018800Y001938D01*
X018880Y002097D02*
X013544Y002097D01*
X012497Y002255D02*
X010300Y002255D01*
X010474Y002414D02*
X012323Y002414D01*
X012195Y002572D02*
X010602Y002572D01*
X010653Y002731D02*
X012144Y002731D01*
X012146Y002889D02*
X010651Y002889D01*
X010586Y003048D02*
X012212Y003048D01*
X012380Y003207D02*
X010418Y003207D01*
X010396Y003365D02*
X012453Y003365D01*
X012242Y003524D02*
X010582Y003524D01*
X010648Y003682D02*
X012171Y003682D01*
X012164Y003841D02*
X010653Y003841D01*
X010606Y003999D02*
X012213Y003999D01*
X012343Y004158D02*
X010483Y004158D01*
X010279Y004316D02*
X012519Y004316D01*
X012262Y004475D02*
X010535Y004475D01*
X010627Y004633D02*
X012170Y004633D01*
X012144Y004792D02*
X010653Y004792D01*
X010626Y004951D02*
X012171Y004951D01*
X012266Y005109D02*
X010532Y005109D01*
X010487Y005426D02*
X012311Y005426D01*
X012351Y005386D02*
X012527Y005313D01*
X013271Y005313D01*
X013446Y005386D01*
X013580Y005520D01*
X013653Y005695D01*
X013653Y005885D01*
X013580Y006061D01*
X013446Y006195D01*
X013271Y006267D01*
X012527Y006267D01*
X012351Y006195D01*
X012217Y006061D01*
X012144Y005885D01*
X012144Y005695D01*
X012217Y005520D01*
X012351Y005386D01*
X012190Y005585D02*
X010607Y005585D01*
X010653Y005743D02*
X012144Y005743D01*
X012151Y005902D02*
X010646Y005902D01*
X010580Y006060D02*
X012217Y006060D01*
X012409Y006219D02*
X010388Y006219D01*
X010374Y006377D02*
X012371Y006377D01*
X011825Y006536D02*
X010565Y006536D01*
X010631Y006694D02*
X011667Y006694D01*
X011508Y006853D02*
X010633Y006853D01*
X010579Y007012D02*
X011350Y007012D01*
X011461Y007353D02*
X012024Y006790D01*
X012899Y006790D01*
X012899Y006790D01*
X012327Y007170D02*
X012096Y007170D01*
X013388Y006219D02*
X013711Y006219D01*
X013580Y006060D02*
X013870Y006060D01*
X014028Y005902D02*
X013646Y005902D01*
X013653Y005743D02*
X014101Y005743D01*
X013984Y005585D02*
X013607Y005585D01*
X013487Y005426D02*
X013984Y005426D01*
X013984Y005268D02*
X006624Y005268D01*
X007099Y004792D02*
X007288Y004792D01*
X006010Y006060D02*
X005973Y006060D01*
X005973Y006219D02*
X006010Y006219D01*
X005972Y006481D02*
X005217Y006481D01*
X005217Y006558D01*
X005290Y006733D01*
X005424Y006867D01*
X005599Y006940D01*
X005973Y006940D01*
X005973Y006481D01*
X005973Y006536D02*
X006010Y006536D01*
X006010Y006694D02*
X005973Y006694D01*
X005973Y006853D02*
X006010Y006853D01*
X005410Y006853D02*
X004012Y006853D01*
X004148Y006694D02*
X005274Y006694D01*
X005217Y006536D02*
X004205Y006536D01*
X004205Y006444D02*
X003450Y006444D01*
X003450Y005986D01*
X003823Y005986D01*
X003998Y006059D01*
X004132Y006193D01*
X004205Y006368D01*
X004205Y006444D01*
X004205Y006377D02*
X005217Y006377D01*
X005279Y006219D02*
X005020Y006219D01*
X004711Y005853D02*
X004711Y005790D01*
X004281Y006060D02*
X004000Y006060D01*
X004143Y006219D02*
X004402Y006219D01*
X003450Y006219D02*
X003413Y006219D01*
X003413Y006377D02*
X003450Y006377D01*
X003450Y006536D02*
X003413Y006536D01*
X003413Y006694D02*
X003450Y006694D01*
X003450Y006853D02*
X003413Y006853D01*
X003413Y006060D02*
X003450Y006060D01*
X003968Y007804D02*
X005454Y007804D01*
X005272Y007963D02*
X004150Y007963D01*
X004216Y008121D02*
X005207Y008121D01*
X009890Y006694D02*
X009907Y006694D01*
X009890Y006536D02*
X009907Y006536D01*
X009890Y006377D02*
X009907Y006377D01*
X012890Y004158D02*
X012907Y004158D01*
X012890Y003999D02*
X012907Y003999D01*
X012890Y003841D02*
X012907Y003841D01*
X012899Y003790D02*
X012899Y003790D01*
X012890Y003682D02*
X012907Y003682D01*
X012890Y003524D02*
X012907Y003524D01*
X012890Y003365D02*
X012907Y003365D01*
X013535Y004475D02*
X022761Y004475D01*
X022972Y004316D02*
X022450Y004316D01*
X022417Y004350D02*
X022005Y004350D01*
X021714Y004059D01*
X021714Y003647D01*
X022005Y003356D01*
X022417Y003356D01*
X022708Y003647D01*
X022708Y004059D01*
X022417Y004350D01*
X022609Y004158D02*
X022814Y004158D01*
X022714Y003999D02*
X022708Y003999D01*
X022708Y003841D02*
X022714Y003841D01*
X022708Y003682D02*
X022714Y003682D01*
X022838Y003524D02*
X022585Y003524D01*
X022426Y003365D02*
X022996Y003365D01*
X022862Y003207D02*
X022560Y003207D01*
X022417Y003350D02*
X022708Y003059D01*
X022708Y002647D01*
X022417Y002356D01*
X022005Y002356D01*
X021714Y002647D01*
X021714Y003059D01*
X022005Y003350D01*
X022417Y003350D01*
X022708Y003048D02*
X022714Y003048D01*
X022708Y002889D02*
X022714Y002889D01*
X022708Y002731D02*
X022714Y002731D01*
X022789Y002572D02*
X022633Y002572D01*
X022475Y002414D02*
X022947Y002414D01*
X023475Y002414D02*
X023976Y002414D01*
X023817Y002572D02*
X023633Y002572D01*
X023708Y002731D02*
X023734Y002731D01*
X023734Y002889D02*
X023708Y002889D01*
X023708Y003048D02*
X023734Y003048D01*
X021996Y003365D02*
X021426Y003365D01*
X021417Y003356D02*
X021708Y003647D01*
X021708Y004059D01*
X021417Y004350D01*
X021005Y004350D01*
X020714Y004059D01*
X020714Y003647D01*
X021005Y003356D01*
X021417Y003356D01*
X021417Y003350D02*
X021005Y003350D01*
X020714Y003059D01*
X020714Y002647D01*
X021005Y002356D01*
X021417Y002356D01*
X021708Y002647D01*
X021708Y003059D01*
X021417Y003350D01*
X021560Y003207D02*
X021862Y003207D01*
X021714Y003048D02*
X021708Y003048D01*
X021708Y002889D02*
X021714Y002889D01*
X021708Y002731D02*
X021714Y002731D01*
X021789Y002572D02*
X021633Y002572D01*
X021475Y002414D02*
X021947Y002414D01*
X020947Y002414D02*
X020475Y002414D01*
X020417Y002356D02*
X020708Y002647D01*
X020708Y003059D01*
X020417Y003350D01*
X020005Y003350D01*
X019714Y003059D01*
X019714Y002647D01*
X020005Y002356D01*
X020417Y002356D01*
X020633Y002572D02*
X020789Y002572D01*
X020714Y002731D02*
X020708Y002731D01*
X020708Y002889D02*
X020714Y002889D01*
X020708Y003048D02*
X020714Y003048D01*
X020862Y003207D02*
X020560Y003207D01*
X020417Y003356D02*
X020005Y003356D01*
X019714Y003647D01*
X019714Y004059D01*
X020005Y004350D01*
X020417Y004350D01*
X020708Y004059D01*
X020708Y003647D01*
X020417Y003356D01*
X020426Y003365D02*
X020996Y003365D01*
X020838Y003524D02*
X020585Y003524D01*
X020708Y003682D02*
X020714Y003682D01*
X020708Y003841D02*
X020714Y003841D01*
X020708Y003999D02*
X020714Y003999D01*
X020814Y004158D02*
X020609Y004158D01*
X020450Y004316D02*
X020972Y004316D01*
X021450Y004316D02*
X021972Y004316D01*
X021814Y004158D02*
X021609Y004158D01*
X021708Y003999D02*
X021714Y003999D01*
X021708Y003841D02*
X021714Y003841D01*
X021708Y003682D02*
X021714Y003682D01*
X021838Y003524D02*
X021585Y003524D01*
X022227Y004792D02*
X022444Y004792D01*
X022277Y005585D02*
X022160Y005585D01*
X023303Y005743D02*
X023320Y005743D01*
X023303Y005902D02*
X023320Y005902D01*
X023303Y006060D02*
X023320Y006060D01*
X023311Y006165D02*
X023311Y006665D01*
X023303Y006536D02*
X023320Y006536D01*
X023303Y006377D02*
X023320Y006377D01*
X023303Y006219D02*
X023320Y006219D01*
X023587Y006536D02*
X023671Y006536D01*
X023671Y006694D02*
X022036Y006694D01*
X022288Y006853D02*
X023702Y006853D01*
X023810Y007012D02*
X022379Y007012D01*
X022403Y007170D02*
X023969Y007170D01*
X024127Y007329D02*
X022375Y007329D01*
X022279Y007487D02*
X024286Y007487D01*
X024444Y007646D02*
X014877Y007646D01*
X014470Y007329D02*
X014453Y007329D01*
X014453Y007170D02*
X014470Y007170D01*
X014453Y007012D02*
X014470Y007012D01*
X014045Y007646D02*
X013699Y007646D01*
X013552Y006377D02*
X013426Y006377D01*
X013532Y005109D02*
X014093Y005109D01*
X014251Y004951D02*
X013626Y004951D01*
X014671Y004951D02*
X015167Y004951D01*
X018450Y004316D02*
X018972Y004316D01*
X019005Y004350D02*
X018714Y004059D01*
X018714Y003647D01*
X019005Y003356D01*
X019417Y003356D01*
X019708Y003647D01*
X019708Y004059D01*
X019417Y004350D01*
X019005Y004350D01*
X018814Y004158D02*
X018609Y004158D01*
X018708Y003999D02*
X018714Y003999D01*
X018708Y003841D02*
X018714Y003841D01*
X018708Y003682D02*
X018714Y003682D01*
X018838Y003524D02*
X018585Y003524D01*
X018426Y003365D02*
X018996Y003365D01*
X018862Y003207D02*
X018560Y003207D01*
X018708Y003048D02*
X018714Y003048D01*
X018708Y002889D02*
X018714Y002889D01*
X018708Y002731D02*
X018714Y002731D01*
X018789Y002572D02*
X018633Y002572D01*
X019633Y002572D02*
X019789Y002572D01*
X019775Y002414D02*
X019947Y002414D01*
X020084Y002255D02*
X026060Y002255D01*
X026453Y002414D02*
X026470Y002414D01*
X026453Y002572D02*
X026470Y002572D01*
X026453Y002731D02*
X026470Y002731D01*
X026461Y002790D02*
X025524Y002790D01*
X025524Y004478D01*
X025836Y004790D01*
X026461Y004790D01*
X026452Y004792D02*
X025103Y004792D01*
X025261Y004951D02*
X025756Y004951D01*
X025754Y004633D02*
X024944Y004633D01*
X024786Y004475D02*
X025853Y004475D01*
X026453Y004475D02*
X026470Y004475D01*
X026453Y004633D02*
X026470Y004633D01*
X026470Y004792D02*
X027319Y004792D01*
X027454Y004633D02*
X027168Y004633D01*
X027070Y004475D02*
X027454Y004475D01*
X027774Y004790D02*
X027774Y002040D01*
X028024Y001790D01*
X029461Y001790D01*
X029060Y002255D02*
X028094Y002255D01*
X028094Y002414D02*
X028886Y002414D01*
X028758Y002572D02*
X028094Y002572D01*
X028094Y002731D02*
X028707Y002731D01*
X028709Y002889D02*
X028094Y002889D01*
X028094Y003048D02*
X028774Y003048D01*
X028942Y003207D02*
X028094Y003207D01*
X028094Y003365D02*
X028964Y003365D01*
X028778Y003524D02*
X028094Y003524D01*
X028094Y003682D02*
X028712Y003682D01*
X028707Y003841D02*
X028094Y003841D01*
X028094Y003999D02*
X028754Y003999D01*
X028877Y004158D02*
X028094Y004158D01*
X028094Y004316D02*
X029081Y004316D01*
X028825Y004475D02*
X028094Y004475D01*
X028094Y004633D02*
X028733Y004633D01*
X028707Y004792D02*
X028094Y004792D01*
X028054Y004951D02*
X028734Y004951D01*
X028828Y005109D02*
X027907Y005109D01*
X027749Y005268D02*
X033096Y005268D01*
X033096Y005233D02*
X033158Y005084D01*
X032567Y005084D01*
X032353Y004995D01*
X032189Y004831D01*
X032100Y004617D01*
X032100Y004384D01*
X032189Y004170D01*
X032353Y004005D01*
X032567Y003917D01*
X033567Y003917D01*
X033782Y004005D01*
X033818Y004041D01*
X033832Y004006D01*
X033997Y003842D01*
X034211Y003753D01*
X035211Y003753D01*
X035426Y003842D01*
X035590Y004006D01*
X035679Y004221D01*
X035679Y004453D01*
X035590Y004668D01*
X035426Y004832D01*
X035211Y004921D01*
X034844Y004921D01*
X034942Y005019D01*
X035031Y005233D01*
X035031Y005466D01*
X034942Y005680D01*
X034778Y005845D01*
X034564Y005933D01*
X033564Y005933D01*
X033349Y005845D01*
X033185Y005680D01*
X033096Y005466D01*
X033096Y005233D01*
X033147Y005109D02*
X030094Y005109D01*
X030189Y004951D02*
X032308Y004951D01*
X032172Y004792D02*
X030654Y004792D01*
X030812Y004633D02*
X031297Y004633D01*
X031139Y004475D02*
X030934Y004475D01*
X030950Y004316D02*
X030988Y004316D01*
X030524Y004290D02*
X031117Y003696D01*
X031117Y003728D01*
X031149Y003728D01*
X031524Y004103D01*
X031909Y004475D02*
X032100Y004475D01*
X032107Y004633D02*
X031750Y004633D01*
X032059Y004316D02*
X032128Y004316D01*
X032059Y004158D02*
X032201Y004158D01*
X032059Y003999D02*
X032368Y003999D01*
X032019Y003841D02*
X034000Y003841D01*
X033839Y003999D02*
X033767Y003999D01*
X034016Y003524D02*
X034112Y003524D01*
X034112Y003365D02*
X034016Y003365D01*
X034016Y003207D02*
X034112Y003207D01*
X034112Y003048D02*
X036216Y003048D01*
X036216Y003207D02*
X035008Y003207D01*
X034942Y003365D02*
X036216Y003365D01*
X036216Y003524D02*
X034807Y003524D01*
X035422Y003841D02*
X036216Y003841D01*
X036216Y003999D02*
X035583Y003999D01*
X035653Y004158D02*
X036216Y004158D01*
X036216Y004316D02*
X035679Y004316D01*
X035670Y004475D02*
X036216Y004475D01*
X036216Y004633D02*
X035604Y004633D01*
X035466Y004792D02*
X036216Y004792D01*
X036216Y004951D02*
X034874Y004951D01*
X034980Y005109D02*
X036216Y005109D01*
X036216Y005268D02*
X035031Y005268D01*
X035031Y005426D02*
X036216Y005426D01*
X036216Y005585D02*
X034982Y005585D01*
X034880Y005743D02*
X036216Y005743D01*
X036216Y005902D02*
X034640Y005902D01*
X034836Y006316D02*
X034836Y006316D01*
X034397Y006377D02*
X034219Y006377D01*
X033487Y005902D02*
X030209Y005902D01*
X030216Y005885D02*
X030143Y006061D01*
X030009Y006195D01*
X029833Y006267D01*
X029089Y006267D01*
X028914Y006195D01*
X028780Y006061D01*
X028707Y005885D01*
X028707Y005695D01*
X028780Y005520D01*
X028914Y005386D01*
X029089Y005313D01*
X029833Y005313D01*
X030009Y005386D01*
X030143Y005520D01*
X030216Y005695D01*
X030216Y005885D01*
X030216Y005743D02*
X033248Y005743D01*
X033145Y005585D02*
X030170Y005585D01*
X030049Y005426D02*
X033096Y005426D01*
X035311Y006377D02*
X036216Y006377D01*
X036216Y006219D02*
X029951Y006219D01*
X030143Y006060D02*
X036216Y006060D01*
X036216Y006536D02*
X035538Y006536D01*
X035726Y006694D02*
X036216Y006694D01*
X036216Y006853D02*
X035815Y006853D01*
X035815Y007012D02*
X036216Y007012D01*
X036216Y007170D02*
X035812Y007170D01*
X035712Y007329D02*
X036216Y007329D01*
X036216Y007487D02*
X035502Y007487D01*
X035047Y007487D02*
X034857Y007487D01*
X034836Y007496D02*
X034836Y007496D01*
X034501Y007487D02*
X034311Y007487D01*
X033758Y007487D02*
X030136Y007487D01*
X030208Y007329D02*
X033571Y007329D01*
X036216Y007646D02*
X029978Y007646D01*
X029819Y007804D02*
X036216Y007804D01*
X030524Y004290D02*
X030399Y004290D01*
X029863Y004316D02*
X029841Y004316D01*
X030210Y003682D02*
X030608Y003682D01*
X030608Y003524D02*
X030144Y003524D01*
X029959Y003365D02*
X030608Y003365D01*
X030608Y003207D02*
X029980Y003207D01*
X030148Y003048D02*
X030608Y003048D01*
X031149Y003286D02*
X031149Y003290D01*
X031149Y003665D01*
X031117Y003696D01*
X031149Y003290D02*
X031149Y003290D01*
X031689Y003365D02*
X033185Y003365D01*
X033119Y003207D02*
X031689Y003207D01*
X031689Y003048D02*
X032456Y003048D01*
X032244Y002889D02*
X031689Y002889D01*
X031234Y002414D02*
X031074Y002414D01*
X031074Y002255D02*
X031234Y002255D01*
X031074Y002097D02*
X030107Y002097D01*
X030165Y002572D02*
X033019Y002572D01*
X033019Y002414D02*
X033115Y002414D01*
X033115Y002255D02*
X033019Y002255D01*
X033019Y002097D02*
X033115Y002097D01*
X033814Y002097D02*
X033830Y002097D01*
X033960Y001938D02*
X031675Y001938D01*
X031675Y001780D02*
X036216Y001780D01*
X036216Y001938D02*
X035462Y001938D01*
X035593Y002097D02*
X036216Y002097D01*
X036216Y002255D02*
X035658Y002255D01*
X035621Y002572D02*
X036216Y002572D01*
X036216Y002414D02*
X034759Y002414D01*
X034759Y002255D02*
X034663Y002255D01*
X034663Y002097D02*
X034759Y002097D01*
X034759Y001938D02*
X034663Y001938D01*
X034781Y001304D02*
X023719Y001304D01*
X023781Y001463D02*
X025837Y001463D01*
X025893Y001145D02*
X023560Y001145D01*
X023048Y000987D02*
X025771Y000987D01*
X025727Y000828D02*
X022889Y000828D01*
X022731Y000670D02*
X025739Y000670D01*
X025817Y000511D02*
X022572Y000511D01*
X025461Y000790D02*
X025461Y000853D01*
X025524Y000915D01*
X025524Y002790D01*
X026453Y002889D02*
X026470Y002889D01*
X026453Y003048D02*
X026470Y003048D01*
X026453Y003207D02*
X026470Y003207D01*
X027774Y004790D02*
X027274Y005290D01*
X025149Y005290D01*
X024524Y004665D01*
X024339Y005743D02*
X025707Y005743D01*
X025714Y005902D02*
X024519Y005902D01*
X024584Y006060D02*
X025779Y006060D01*
X025972Y006219D02*
X024588Y006219D01*
X024551Y006377D02*
X025934Y006377D01*
X025773Y006536D02*
X024579Y006536D01*
X024738Y006694D02*
X025707Y006694D01*
X025707Y006853D02*
X024896Y006853D01*
X025055Y007012D02*
X025759Y007012D01*
X026989Y006377D02*
X028934Y006377D01*
X028972Y006219D02*
X026951Y006219D01*
X027143Y006060D02*
X028779Y006060D01*
X028714Y005902D02*
X027209Y005902D01*
X027216Y005743D02*
X028707Y005743D01*
X028753Y005585D02*
X027399Y005585D01*
X027590Y005426D02*
X028873Y005426D01*
X028773Y006536D02*
X027150Y006536D01*
X027215Y006694D02*
X028707Y006694D01*
X028707Y006853D02*
X027216Y006853D01*
X027163Y007012D02*
X028759Y007012D01*
X024603Y007804D02*
X022240Y007804D01*
X022358Y007963D02*
X023476Y007963D01*
X023318Y008121D02*
X022403Y008121D01*
X022395Y008280D02*
X023159Y008280D01*
X023000Y008438D02*
X022327Y008438D01*
X022130Y008597D02*
X022842Y008597D01*
X022683Y008756D02*
X022184Y008756D01*
X022338Y008914D02*
X022525Y008914D01*
X020149Y009231D02*
X018899Y009231D01*
X017899Y009165D02*
X017086Y009165D01*
X016774Y008853D01*
X016955Y008019D02*
X016955Y008019D01*
X019649Y007790D02*
X019649Y010853D01*
X018086Y010853D01*
X019649Y010853D02*
X019649Y013040D01*
X019649Y014978D01*
X019649Y017165D01*
X019649Y019103D01*
X019649Y021290D01*
X019649Y023228D02*
X018086Y023228D01*
X018086Y019103D02*
X019649Y019103D01*
X019649Y017165D02*
X021211Y017165D01*
X019649Y014978D02*
X018086Y014978D01*
X019649Y013040D02*
X021211Y013040D01*
X023694Y005902D02*
X023704Y005902D01*
X023536Y005743D02*
X023883Y005743D01*
X019972Y004316D02*
X019450Y004316D01*
X019609Y004158D02*
X019814Y004158D01*
X019714Y003999D02*
X019708Y003999D01*
X019708Y003841D02*
X019714Y003841D01*
X019708Y003682D02*
X019714Y003682D01*
X019838Y003524D02*
X019585Y003524D01*
X019426Y003365D02*
X019996Y003365D01*
X019862Y003207D02*
X019560Y003207D01*
X019708Y003048D02*
X019714Y003048D01*
X019708Y002889D02*
X019714Y002889D01*
X019708Y002731D02*
X019714Y002731D01*
X012253Y002097D02*
X010544Y002097D01*
X010631Y001938D02*
X012166Y001938D01*
X012144Y001780D02*
X010653Y001780D01*
X010622Y001621D02*
X012175Y001621D01*
X012180Y000970D02*
X010596Y000970D01*
X010633Y000881D01*
X010633Y000799D01*
X009907Y000799D01*
X009907Y000782D01*
X010633Y000782D01*
X010633Y000699D01*
X010563Y000531D01*
X010435Y000403D01*
X010390Y000384D01*
X012355Y000384D01*
X012351Y000386D01*
X012217Y000520D01*
X012144Y000695D01*
X012144Y000885D01*
X012180Y000970D01*
X012144Y000828D02*
X010633Y000828D01*
X010621Y000670D02*
X012155Y000670D01*
X012226Y000511D02*
X010543Y000511D01*
X009254Y000511D02*
X007024Y000511D01*
X007024Y000670D02*
X009176Y000670D01*
X009164Y000828D02*
X007024Y000828D01*
X007024Y000987D02*
X008670Y000987D01*
X008710Y000970D02*
X008710Y000970D01*
X008466Y001145D02*
X007024Y001145D01*
X007024Y001304D02*
X008307Y001304D01*
X030058Y001145D02*
X034781Y001145D01*
X034781Y000987D02*
X030173Y000987D01*
X030216Y000828D02*
X034781Y000828D01*
X034781Y000670D02*
X030205Y000670D01*
X030134Y000511D02*
X034781Y000511D01*
X035530Y002731D02*
X036216Y002731D01*
X036216Y002889D02*
X035311Y002889D01*
X036216Y003682D02*
X031860Y003682D01*
X031689Y003524D02*
X033320Y003524D01*
X033115Y003048D02*
X033019Y003048D01*
X033019Y002889D02*
X033115Y002889D01*
X033115Y002731D02*
X033019Y002731D01*
X033679Y003048D02*
X034015Y003048D01*
X031234Y001938D02*
X031074Y001938D01*
X031074Y001780D02*
X031234Y001780D01*
X031234Y001621D02*
X031074Y001621D01*
D384*
X024211Y001978D03*
X023211Y001603D03*
D385*
X024211Y001603D02*
X024211Y001978D01*
X024211Y001603D02*
X025024Y000790D01*
X025461Y000790D01*
X026461Y000790D01*
X026649Y000790D01*
X031211Y001040D02*
X031836Y001665D01*
X030399Y006790D02*
X029836Y006790D01*
X029774Y006853D01*
X029774Y007228D01*
X029461Y007540D01*
X024961Y007540D01*
X024111Y006690D01*
X024111Y006165D01*
X021649Y005165D02*
X017899Y005165D01*
X014461Y007415D02*
X014399Y007415D01*
X014399Y007415D01*
X005991Y006463D02*
X003414Y006463D01*
X003399Y006478D01*
X003399Y006463D01*
X003431Y006463D01*
X003461Y006463D01*
X003461Y006478D01*
X004711Y006478D01*
D386*
X013274Y007978D03*
X030399Y004290D03*
X031524Y004103D03*
X031211Y001040D03*
D387*
X017899Y005165D02*
X015461Y005165D01*
X015211Y005415D01*
X014461Y005415D01*
X014461Y005978D01*
X013649Y006790D01*
X012961Y006790D01*
X012899Y006790D01*
X012961Y006790D02*
X012961Y006790D01*
X011399Y006103D02*
X010711Y006790D01*
X009961Y006790D01*
X009899Y006790D01*
X009899Y006790D01*
X009899Y006790D01*
X007211Y006790D01*
X006884Y006463D01*
X006774Y006463D01*
X005991Y006463D01*
X009961Y006790D02*
X009961Y006790D01*
X011399Y006103D02*
X011399Y004478D01*
X012086Y003790D01*
X012899Y003790D01*
D388*
X008274Y002728D03*
D389*
X010586Y010853D02*
X010586Y010915D01*
X012774Y013103D01*
X013086Y013103D01*
X010586Y014978D02*
X010586Y015040D01*
X012774Y017228D01*
X013086Y017228D01*
X010586Y019103D02*
X010586Y019165D01*
X012774Y021353D01*
X013086Y021353D01*
X010586Y023228D02*
X010586Y023290D01*
X012774Y025478D01*
X013086Y025478D01*
X026211Y023165D02*
X026524Y023165D01*
X028711Y025353D01*
X028711Y025415D01*
X028711Y021290D02*
X028711Y021228D01*
X026524Y019040D01*
X026211Y019040D01*
X028711Y017165D02*
X028711Y017103D01*
X026524Y014915D01*
X026211Y014915D01*
X028711Y013040D02*
X028711Y012978D01*
X026524Y010790D01*
X026211Y010790D01*
X029461Y006790D02*
X030399Y006790D01*
D390*
X021649Y009165D02*
X020961Y009165D01*
X020461Y009665D01*
X020461Y011790D01*
X020711Y012040D01*
X021211Y012040D01*
M02*
