%
M48
M72
T01C0.0354
T02C0.0394
T03C0.0512
T04C0.0551
T05C0.1102
%
T01
X4711Y4853
X4711Y5853
X7524Y7353
X9899Y6790
X9899Y5790
X9899Y4790
X9899Y3790
X9899Y2790
X9899Y1790
X9899Y790
X12899Y790
X12899Y1790
X12899Y2790
X12899Y3790
X12899Y4790
X12899Y5790
X12899Y6790
X14461Y7415
X14461Y5415
X17899Y5165
X17899Y6165
X17899Y7165
X17899Y8165
X17899Y9165
X18086Y10853
X18086Y11853
X18086Y12853
X18086Y14978
X18086Y15978
X18086Y16978
X15086Y16978
X14086Y17228
X13086Y17228
X12961Y16378
X12961Y15578
X13086Y14978
X14086Y14978
X15086Y14978
X15086Y15978
X11586Y14978
X10586Y14978
X9336Y14978
X8336Y14978
X12961Y12253
X12961Y11453
X13086Y10853
X14086Y10853
X15086Y10853
X15086Y11853
X15086Y12853
X14086Y13103
X13086Y13103
X11586Y10853
X10586Y10853
X9336Y10853
X8336Y10853
X7524Y4353
X21211Y11040
X21211Y12040
X21211Y13040
X24211Y13040
X24211Y12040
X24211Y11040
X25211Y10790
X26211Y10790
X26336Y11640
X26336Y12440
X26211Y13040
X25211Y13040
X27711Y13040
X28711Y13040
X29961Y13040
X30961Y13040
X26211Y14915
X25211Y14915
X24211Y15165
X24211Y16165
X24211Y17165
X25211Y17165
X26211Y17165
X26336Y16565
X26336Y15765
X27711Y17165
X28711Y17165
X29961Y17165
X30961Y17165
X26211Y19040
X25211Y19040
X24211Y19290
X24211Y20290
X24211Y21290
X25211Y21290
X26211Y21290
X26336Y20690
X26336Y19890
X27711Y21290
X28711Y21290
X29961Y21290
X30961Y21290
X26211Y23165
X25211Y23165
X24211Y23415
X24211Y24415
X24211Y25415
X25211Y25415
X26211Y25415
X26336Y24815
X26336Y24015
X27711Y25415
X28711Y25415
X29961Y25415
X30961Y25415
X21211Y25415
X21211Y24415
X21211Y23415
X21211Y21290
X21211Y20290
X21211Y19290
X21211Y17165
X21211Y16165
X21211Y15165
X18086Y19103
X18086Y20103
X18086Y21103
X15086Y21103
X15086Y20103
X15086Y19103
X14086Y19103
X13086Y19103
X12961Y19703
X12961Y20503
X13086Y21353
X14086Y21353
X14086Y23228
X13086Y23228
X12961Y23828
X12961Y24628
X13086Y25478
X14086Y25478
X15086Y25228
X15086Y24228
X15086Y23228
X18086Y23228
X18086Y24228
X18086Y25228
X11586Y23228
X10586Y23228
X9336Y23228
X8336Y23228
X8336Y19103
X9336Y19103
X10586Y19103
X11586Y19103
X21649Y9165
X21649Y8165
X21649Y7165
X21649Y6165
X21649Y5165
X23311Y6165
X24111Y6165
X26461Y5790
X26461Y4790
X26461Y3790
X26461Y2790
X26461Y1790
X26461Y790
X29461Y790
X29461Y1790
X29461Y2790
X29461Y3790
X29461Y4790
X29461Y5790
X29461Y6790
X30399Y6790
X32399Y6790
X26461Y6790
T02
X30399Y4290
X31524Y4103
X31211Y1040
X24211Y1978
X23211Y1603
X23211Y2853
X24211Y2853
X24211Y3853
X23211Y3853
X22211Y3853
X21211Y3853
X20211Y3853
X19211Y3853
X18211Y3853
X17211Y3853
X16211Y3853
X15211Y3853
X15211Y2853
X16211Y2853
X17211Y2853
X18211Y2853
X19211Y2853
X20211Y2853
X21211Y2853
X22211Y2853
X13274Y7978
X5991Y8243
X5991Y6463
X3431Y6463
X3431Y8243
X8461Y12853
X11461Y12853
X11461Y16978
X8461Y16978
X8461Y21103
X11461Y21103
X11461Y25228
X8461Y25228
X27836Y23415
X30836Y23415
X30836Y19290
X27836Y19290
X27836Y15165
X30836Y15165
X30836Y11040
X27836Y11040
T03
X33063Y10354
X34711Y10369
X34711Y12337
X33063Y12322
X33063Y14309
X34711Y14369
X33063Y16278
X34711Y16337
X34711Y18369
X33063Y18228
X33063Y20196
X34711Y20337
X33063Y22165
X34711Y22369
X34711Y24337
X33063Y24133
X6225Y23286
X4661Y23369
X4661Y25337
X6225Y25254
X6225Y21317
X4661Y21337
X4661Y19369
X6225Y19349
X6225Y17341
X4661Y17337
X4661Y15369
X6225Y15372
X6225Y13404
X4661Y13337
X4661Y11369
X6225Y11435
X33067Y4500
X34064Y5350
X34711Y4337
X34064Y3086
X33067Y2532
X34711Y2369
T04
X8274Y2728
T05
X19561Y1603
X19561Y25103
M30
