G75*
G70*
%OFA0B0*%
%FSLAX24Y24*%
%IPPOS*%
%LPD*%
%AMOC8*
5,1,8,0,0,1.08239X$1,22.5*
%
%ADD10C,0.0000*%
%ADD11C,0.0040*%
%ADD12C,0.0030*%
%ADD13C,0.0060*%
%ADD14C,0.0050*%
%ADD15C,0.0020*%
%ADD16C,0.0100*%
%ADD17R,0.0200X0.0150*%
%ADD18C,0.0080*%
%ADD19C,0.0160*%
%ADD20C,0.0240*%
%ADD21C,0.0120*%
D10*
X002526Y000105D02*
X002526Y026601D01*
X035061Y026603D01*
X035061Y025351D01*
X036496Y025351D01*
X036496Y001355D01*
X035061Y001355D01*
X035061Y000103D01*
X002526Y000105D01*
X019010Y001603D02*
X019047Y001802D01*
X019154Y001974D01*
X019315Y002096D01*
X019510Y002152D01*
X019712Y002133D01*
X019893Y002043D01*
X020029Y001893D01*
X020103Y001704D01*
X020103Y001502D01*
X020029Y001313D01*
X019893Y001163D01*
X019712Y001073D01*
X019510Y001054D01*
X019315Y001110D01*
X019154Y001232D01*
X019047Y001404D01*
X019010Y001603D01*
X019010Y025103D02*
X019047Y025302D01*
X019154Y025474D01*
X019315Y025596D01*
X019510Y025652D01*
X019712Y025633D01*
X019893Y025543D01*
X020029Y025393D01*
X020103Y025204D01*
X020103Y025002D01*
X020029Y024813D01*
X019893Y024663D01*
X019712Y024573D01*
X019510Y024554D01*
X019315Y024610D01*
X019154Y024732D01*
X019047Y024904D01*
X019010Y025103D01*
D11*
X033731Y006083D02*
X033731Y005623D01*
X033961Y005623D01*
X034038Y005699D01*
X034038Y005853D01*
X033961Y005930D01*
X033731Y005930D01*
X034192Y005930D02*
X034192Y005699D01*
X034268Y005623D01*
X034498Y005623D01*
X034498Y005930D01*
X034652Y005853D02*
X034729Y005930D01*
X034959Y005930D01*
X034882Y005776D02*
X034729Y005776D01*
X034652Y005853D01*
X034652Y005623D02*
X034882Y005623D01*
X034959Y005699D01*
X034882Y005776D01*
X035573Y005853D02*
X035879Y005853D01*
X035726Y006006D02*
X035726Y005699D01*
X031899Y003673D02*
X031899Y001618D01*
X032631Y001083D02*
X032631Y000623D01*
X032861Y000623D01*
X032938Y000699D01*
X032938Y000853D01*
X032861Y000930D01*
X032631Y000930D01*
X033092Y000930D02*
X033092Y000699D01*
X033168Y000623D01*
X033398Y000623D01*
X033398Y000930D01*
X033552Y000853D02*
X033629Y000930D01*
X033859Y000930D01*
X033782Y000776D02*
X033629Y000776D01*
X033552Y000853D01*
X033552Y000623D02*
X033782Y000623D01*
X033859Y000699D01*
X033782Y000776D01*
X034473Y000853D02*
X034779Y000853D01*
X030615Y001037D02*
X030538Y000960D01*
X030385Y000960D01*
X030308Y001037D01*
X030155Y001037D02*
X030155Y001344D01*
X030078Y001421D01*
X029848Y001421D01*
X029848Y000960D01*
X030078Y000960D01*
X030155Y001037D01*
X030462Y001190D02*
X030538Y001190D01*
X030615Y001114D01*
X030615Y001037D01*
X030538Y001190D02*
X030615Y001267D01*
X030615Y001344D01*
X030538Y001421D01*
X030385Y001421D01*
X030308Y001344D01*
X030399Y001618D02*
X030399Y003673D01*
D12*
X035638Y002930D02*
X036009Y002930D01*
X036009Y003115D01*
X035947Y003177D01*
X035824Y003177D01*
X035762Y003115D01*
X035762Y002930D01*
X035762Y003299D02*
X035947Y003299D01*
X036009Y003360D01*
X036009Y003545D01*
X035762Y003545D01*
X035824Y003667D02*
X035762Y003729D01*
X035762Y003914D01*
X035885Y003852D02*
X035885Y003729D01*
X035824Y003667D01*
X036009Y003667D02*
X036009Y003852D01*
X035947Y003914D01*
X035885Y003852D01*
X026939Y010829D02*
X026891Y010780D01*
X026794Y010780D01*
X026746Y010829D01*
X026645Y010829D02*
X026596Y010780D01*
X026500Y010780D01*
X026451Y010829D01*
X026451Y011022D01*
X026500Y011071D01*
X026596Y011071D01*
X026645Y011022D01*
X026746Y011022D02*
X026794Y011071D01*
X026891Y011071D01*
X026939Y011022D01*
X026939Y010974D01*
X026891Y010925D01*
X026939Y010877D01*
X026939Y010829D01*
X026891Y010925D02*
X026843Y010925D01*
X025904Y011695D02*
X025710Y011695D01*
X025807Y011695D02*
X025807Y011986D01*
X025710Y011889D01*
X025609Y011647D02*
X025415Y011647D01*
X025314Y011695D02*
X025121Y011695D01*
X025314Y011889D01*
X025314Y011937D01*
X025266Y011986D01*
X025169Y011986D01*
X025121Y011937D01*
X025020Y011937D02*
X024971Y011986D01*
X024826Y011986D01*
X024826Y011695D01*
X024971Y011695D01*
X025020Y011744D01*
X025020Y011937D01*
X025973Y013585D02*
X026118Y013585D01*
X026166Y013634D01*
X026166Y013827D01*
X026118Y013876D01*
X025973Y013876D01*
X025973Y013585D01*
X026267Y013585D02*
X026461Y013585D01*
X026364Y013585D02*
X026364Y013876D01*
X026267Y013779D01*
X026562Y013537D02*
X026755Y013537D01*
X026857Y013585D02*
X027050Y013585D01*
X026953Y013585D02*
X026953Y013876D01*
X026857Y013779D01*
X026891Y014905D02*
X026794Y014905D01*
X026746Y014954D01*
X026746Y015050D02*
X026843Y015099D01*
X026891Y015099D01*
X026939Y015050D01*
X026939Y014954D01*
X026891Y014905D01*
X026746Y015050D02*
X026746Y015196D01*
X026939Y015196D01*
X026645Y015147D02*
X026596Y015196D01*
X026500Y015196D01*
X026451Y015147D01*
X026451Y014954D01*
X026500Y014905D01*
X026596Y014905D01*
X026645Y014954D01*
X025609Y015772D02*
X025415Y015772D01*
X025314Y015820D02*
X025121Y015820D01*
X025314Y016014D01*
X025314Y016062D01*
X025266Y016111D01*
X025169Y016111D01*
X025121Y016062D01*
X025020Y016062D02*
X024971Y016111D01*
X024826Y016111D01*
X024826Y015820D01*
X024971Y015820D01*
X025020Y015869D01*
X025020Y016062D01*
X025710Y016062D02*
X025758Y016111D01*
X025855Y016111D01*
X025904Y016062D01*
X025904Y016014D01*
X025710Y015820D01*
X025904Y015820D01*
X025521Y013996D02*
X025569Y013947D01*
X025569Y013899D01*
X025521Y013850D01*
X025569Y013802D01*
X025569Y013754D01*
X025521Y013705D01*
X025424Y013705D01*
X025376Y013754D01*
X025275Y013705D02*
X025178Y013802D01*
X025226Y013802D02*
X025081Y013802D01*
X025081Y013705D02*
X025081Y013996D01*
X025226Y013996D01*
X025275Y013947D01*
X025275Y013850D01*
X025226Y013802D01*
X025376Y013947D02*
X025424Y013996D01*
X025521Y013996D01*
X025521Y013850D02*
X025473Y013850D01*
X030782Y013807D02*
X030927Y013807D01*
X030975Y013855D01*
X030975Y013952D01*
X030927Y014001D01*
X030782Y014001D01*
X030782Y013710D01*
X030879Y013807D02*
X030975Y013710D01*
X031077Y013710D02*
X031270Y013904D01*
X031270Y013952D01*
X031222Y014001D01*
X031125Y014001D01*
X031077Y013952D01*
X031077Y013710D02*
X031270Y013710D01*
X031222Y017835D02*
X031222Y018126D01*
X031077Y017980D01*
X031270Y017980D01*
X030975Y017980D02*
X030927Y017932D01*
X030782Y017932D01*
X030879Y017932D02*
X030975Y017835D01*
X030975Y017980D02*
X030975Y018077D01*
X030927Y018126D01*
X030782Y018126D01*
X030782Y017835D01*
X027050Y017904D02*
X027050Y017952D01*
X027002Y018001D01*
X026905Y018001D01*
X026857Y017952D01*
X027050Y017904D02*
X026857Y017710D01*
X027050Y017710D01*
X026755Y017662D02*
X026562Y017662D01*
X026461Y017710D02*
X026267Y017710D01*
X026364Y017710D02*
X026364Y018001D01*
X026267Y017904D01*
X026166Y017952D02*
X026166Y017759D01*
X026118Y017710D01*
X025973Y017710D01*
X025973Y018001D01*
X026118Y018001D01*
X026166Y017952D01*
X025569Y017975D02*
X025569Y017879D01*
X025521Y017830D01*
X025424Y017830D01*
X025376Y017879D01*
X025376Y017975D02*
X025473Y018024D01*
X025521Y018024D01*
X025569Y017975D01*
X025569Y018121D02*
X025376Y018121D01*
X025376Y017975D01*
X025275Y017975D02*
X025226Y017927D01*
X025081Y017927D01*
X025081Y017830D02*
X025081Y018121D01*
X025226Y018121D01*
X025275Y018072D01*
X025275Y017975D01*
X025178Y017927D02*
X025275Y017830D01*
X026500Y019030D02*
X026596Y019030D01*
X026645Y019079D01*
X026746Y019079D02*
X026746Y019030D01*
X026746Y019079D02*
X026939Y019272D01*
X026939Y019321D01*
X026746Y019321D01*
X026645Y019272D02*
X026596Y019321D01*
X026500Y019321D01*
X026451Y019272D01*
X026451Y019079D01*
X026500Y019030D01*
X025855Y019945D02*
X025758Y019945D01*
X025710Y019994D01*
X025807Y020090D02*
X025855Y020090D01*
X025904Y020042D01*
X025904Y019994D01*
X025855Y019945D01*
X025855Y020090D02*
X025904Y020139D01*
X025904Y020187D01*
X025855Y020236D01*
X025758Y020236D01*
X025710Y020187D01*
X025609Y019897D02*
X025415Y019897D01*
X025314Y019945D02*
X025121Y019945D01*
X025314Y020139D01*
X025314Y020187D01*
X025266Y020236D01*
X025169Y020236D01*
X025121Y020187D01*
X025020Y020187D02*
X024971Y020236D01*
X024826Y020236D01*
X024826Y019945D01*
X024971Y019945D01*
X025020Y019994D01*
X025020Y020187D01*
X025973Y021835D02*
X026118Y021835D01*
X026166Y021884D01*
X026166Y022077D01*
X026118Y022126D01*
X025973Y022126D01*
X025973Y021835D01*
X026267Y021835D02*
X026461Y021835D01*
X026364Y021835D02*
X026364Y022126D01*
X026267Y022029D01*
X026562Y021787D02*
X026755Y021787D01*
X026857Y021884D02*
X026905Y021835D01*
X027002Y021835D01*
X027050Y021884D01*
X027050Y021932D01*
X027002Y021980D01*
X026953Y021980D01*
X027002Y021980D02*
X027050Y022029D01*
X027050Y022077D01*
X027002Y022126D01*
X026905Y022126D01*
X026857Y022077D01*
X026891Y023155D02*
X026794Y023155D01*
X026746Y023204D01*
X026645Y023204D02*
X026596Y023155D01*
X026500Y023155D01*
X026451Y023204D01*
X026451Y023397D01*
X026500Y023446D01*
X026596Y023446D01*
X026645Y023397D01*
X026746Y023397D02*
X026746Y023349D01*
X026794Y023300D01*
X026939Y023300D01*
X026939Y023204D02*
X026939Y023397D01*
X026891Y023446D01*
X026794Y023446D01*
X026746Y023397D01*
X026939Y023204D02*
X026891Y023155D01*
X025855Y024070D02*
X025855Y024361D01*
X025710Y024215D01*
X025904Y024215D01*
X025609Y024022D02*
X025415Y024022D01*
X025314Y024070D02*
X025121Y024070D01*
X025314Y024264D01*
X025314Y024312D01*
X025266Y024361D01*
X025169Y024361D01*
X025121Y024312D01*
X025020Y024312D02*
X024971Y024361D01*
X024826Y024361D01*
X024826Y024070D01*
X024971Y024070D01*
X025020Y024119D01*
X025020Y024312D01*
X026562Y025912D02*
X026755Y025912D01*
X026857Y026105D02*
X027050Y026105D01*
X027002Y025960D02*
X027002Y026251D01*
X026857Y026105D01*
X026461Y025960D02*
X026267Y025960D01*
X026364Y025960D02*
X026364Y026251D01*
X026267Y026154D01*
X026166Y026202D02*
X026118Y026251D01*
X025973Y026251D01*
X025973Y025960D01*
X026118Y025960D01*
X026166Y026009D01*
X026166Y026202D01*
X025569Y026225D02*
X025424Y026225D01*
X025376Y026274D01*
X025376Y026322D01*
X025424Y026371D01*
X025521Y026371D01*
X025569Y026322D01*
X025569Y026129D01*
X025521Y026080D01*
X025424Y026080D01*
X025376Y026129D01*
X025275Y026080D02*
X025178Y026177D01*
X025226Y026177D02*
X025081Y026177D01*
X025081Y026080D02*
X025081Y026371D01*
X025226Y026371D01*
X025275Y026322D01*
X025275Y026225D01*
X025226Y026177D01*
X030782Y026182D02*
X030927Y026182D01*
X030975Y026230D01*
X030975Y026327D01*
X030927Y026376D01*
X030782Y026376D01*
X030782Y026085D01*
X030879Y026182D02*
X030975Y026085D01*
X031077Y026134D02*
X031077Y026182D01*
X031125Y026230D01*
X031222Y026230D01*
X031270Y026182D01*
X031270Y026134D01*
X031222Y026085D01*
X031125Y026085D01*
X031077Y026134D01*
X031125Y026230D02*
X031077Y026279D01*
X031077Y026327D01*
X031125Y026376D01*
X031222Y026376D01*
X031270Y026327D01*
X031270Y026279D01*
X031222Y026230D01*
X031270Y022251D02*
X031173Y022202D01*
X031077Y022105D01*
X031222Y022105D01*
X031270Y022057D01*
X031270Y022009D01*
X031222Y021960D01*
X031125Y021960D01*
X031077Y022009D01*
X031077Y022105D01*
X030975Y022105D02*
X030927Y022057D01*
X030782Y022057D01*
X030879Y022057D02*
X030975Y021960D01*
X030975Y022105D02*
X030975Y022202D01*
X030927Y022251D01*
X030782Y022251D01*
X030782Y021960D01*
X025569Y022197D02*
X025376Y022004D01*
X025376Y021955D01*
X025275Y021955D02*
X025178Y022052D01*
X025226Y022052D02*
X025081Y022052D01*
X025081Y021955D02*
X025081Y022246D01*
X025226Y022246D01*
X025275Y022197D01*
X025275Y022100D01*
X025226Y022052D01*
X025376Y022246D02*
X025569Y022246D01*
X025569Y022197D01*
X014400Y020448D02*
X014303Y020400D01*
X014207Y020303D01*
X014352Y020303D01*
X014400Y020254D01*
X014400Y020206D01*
X014352Y020158D01*
X014255Y020158D01*
X014207Y020206D01*
X014207Y020303D01*
X014105Y020109D02*
X013912Y020109D01*
X013811Y020158D02*
X013617Y020158D01*
X013811Y020351D01*
X013811Y020400D01*
X013762Y020448D01*
X013666Y020448D01*
X013617Y020400D01*
X013516Y020400D02*
X013468Y020448D01*
X013323Y020448D01*
X013323Y020158D01*
X013468Y020158D01*
X013516Y020206D01*
X013516Y020400D01*
X012775Y021121D02*
X012727Y021073D01*
X012630Y021073D01*
X012582Y021121D01*
X012480Y021073D02*
X012287Y021073D01*
X012384Y021073D02*
X012384Y021363D01*
X012287Y021266D01*
X012186Y021315D02*
X012137Y021363D01*
X012041Y021363D01*
X011992Y021315D01*
X011992Y021121D01*
X012041Y021073D01*
X012137Y021073D01*
X012186Y021121D01*
X012582Y021315D02*
X012630Y021363D01*
X012727Y021363D01*
X012775Y021315D01*
X012775Y021266D01*
X012727Y021218D01*
X012775Y021169D01*
X012775Y021121D01*
X012727Y021218D02*
X012678Y021218D01*
X012765Y022344D02*
X012959Y022344D01*
X013060Y022441D02*
X013108Y022393D01*
X013205Y022393D01*
X013254Y022441D01*
X013254Y022538D01*
X013205Y022586D01*
X013157Y022586D01*
X013060Y022538D01*
X013060Y022683D01*
X013254Y022683D01*
X013362Y022563D02*
X013507Y022563D01*
X013556Y022515D01*
X013556Y022418D01*
X013507Y022369D01*
X013362Y022369D01*
X013362Y022273D02*
X013362Y022563D01*
X013459Y022369D02*
X013556Y022273D01*
X013657Y022273D02*
X013850Y022273D01*
X013754Y022273D02*
X013754Y022563D01*
X013657Y022466D01*
X013952Y022466D02*
X014048Y022563D01*
X014048Y022273D01*
X013952Y022273D02*
X014145Y022273D01*
X012664Y022393D02*
X012471Y022393D01*
X012568Y022393D02*
X012568Y022683D01*
X012471Y022586D01*
X012370Y022635D02*
X012321Y022683D01*
X012176Y022683D01*
X012176Y022393D01*
X012321Y022393D01*
X012370Y022441D01*
X012370Y022635D01*
X013323Y024283D02*
X013468Y024283D01*
X013516Y024331D01*
X013516Y024525D01*
X013468Y024573D01*
X013323Y024573D01*
X013323Y024283D01*
X013617Y024283D02*
X013811Y024476D01*
X013811Y024525D01*
X013762Y024573D01*
X013666Y024573D01*
X013617Y024525D01*
X013617Y024283D02*
X013811Y024283D01*
X013912Y024234D02*
X014105Y024234D01*
X014207Y024331D02*
X014255Y024283D01*
X014352Y024283D01*
X014400Y024331D01*
X014400Y024428D01*
X014352Y024476D01*
X014303Y024476D01*
X014207Y024428D01*
X014207Y024573D01*
X014400Y024573D01*
X012775Y025198D02*
X012582Y025198D01*
X012678Y025198D02*
X012678Y025488D01*
X012582Y025391D01*
X012480Y025198D02*
X012287Y025198D01*
X012384Y025198D02*
X012384Y025488D01*
X012287Y025391D01*
X012186Y025440D02*
X012137Y025488D01*
X012041Y025488D01*
X011992Y025440D01*
X011992Y025246D01*
X012041Y025198D01*
X012137Y025198D01*
X012186Y025246D01*
X008739Y022510D02*
X008545Y022316D01*
X008594Y022268D01*
X008691Y022268D01*
X008739Y022316D01*
X008739Y022510D01*
X008691Y022558D01*
X008594Y022558D01*
X008545Y022510D01*
X008545Y022316D01*
X008444Y022268D02*
X008251Y022268D01*
X008348Y022268D02*
X008348Y022558D01*
X008251Y022461D01*
X008150Y022413D02*
X008101Y022364D01*
X007956Y022364D01*
X007956Y022268D02*
X007956Y022558D01*
X008101Y022558D01*
X008150Y022510D01*
X008150Y022413D01*
X008053Y022364D02*
X008150Y022268D01*
X012176Y018558D02*
X012321Y018558D01*
X012370Y018510D01*
X012370Y018316D01*
X012321Y018268D01*
X012176Y018268D01*
X012176Y018558D01*
X012471Y018461D02*
X012568Y018558D01*
X012568Y018268D01*
X012664Y018268D02*
X012471Y018268D01*
X012765Y018219D02*
X012959Y018219D01*
X013060Y018316D02*
X013108Y018268D01*
X013205Y018268D01*
X013254Y018316D01*
X013254Y018364D01*
X013205Y018413D01*
X013060Y018413D01*
X013060Y018316D01*
X013060Y018413D02*
X013157Y018510D01*
X013254Y018558D01*
X013362Y018438D02*
X013507Y018438D01*
X013556Y018390D01*
X013556Y018293D01*
X013507Y018244D01*
X013362Y018244D01*
X013362Y018148D02*
X013362Y018438D01*
X013459Y018244D02*
X013556Y018148D01*
X013657Y018148D02*
X013850Y018148D01*
X013754Y018148D02*
X013754Y018438D01*
X013657Y018341D01*
X013952Y018390D02*
X014000Y018438D01*
X014097Y018438D01*
X014145Y018390D01*
X014145Y018341D01*
X014097Y018293D01*
X014145Y018244D01*
X014145Y018196D01*
X014097Y018148D01*
X014000Y018148D01*
X013952Y018196D01*
X014048Y018293D02*
X014097Y018293D01*
X012775Y017238D02*
X012582Y017238D01*
X012582Y017093D01*
X012678Y017141D01*
X012727Y017141D01*
X012775Y017093D01*
X012775Y016996D01*
X012727Y016948D01*
X012630Y016948D01*
X012582Y016996D01*
X012480Y016948D02*
X012287Y016948D01*
X012384Y016948D02*
X012384Y017238D01*
X012287Y017141D01*
X012186Y017190D02*
X012137Y017238D01*
X012041Y017238D01*
X011992Y017190D01*
X011992Y016996D01*
X012041Y016948D01*
X012137Y016948D01*
X012186Y016996D01*
X013323Y016323D02*
X013468Y016323D01*
X013516Y016275D01*
X013516Y016081D01*
X013468Y016033D01*
X013323Y016033D01*
X013323Y016323D01*
X013617Y016275D02*
X013666Y016323D01*
X013762Y016323D01*
X013811Y016275D01*
X013811Y016226D01*
X013617Y016033D01*
X013811Y016033D01*
X013912Y015984D02*
X014105Y015984D01*
X014207Y016033D02*
X014207Y016081D01*
X014400Y016275D01*
X014400Y016323D01*
X014207Y016323D01*
X014145Y014313D02*
X013952Y014313D01*
X013952Y014168D01*
X014048Y014216D01*
X014097Y014216D01*
X014145Y014168D01*
X014145Y014071D01*
X014097Y014023D01*
X014000Y014023D01*
X013952Y014071D01*
X013850Y014023D02*
X013657Y014023D01*
X013754Y014023D02*
X013754Y014313D01*
X013657Y014216D01*
X013556Y014168D02*
X013556Y014265D01*
X013507Y014313D01*
X013362Y014313D01*
X013362Y014023D01*
X013362Y014119D02*
X013507Y014119D01*
X013556Y014168D01*
X013459Y014119D02*
X013556Y014023D01*
X013337Y013775D02*
X013337Y013726D01*
X013289Y013678D01*
X013192Y013678D01*
X013144Y013726D01*
X013144Y013775D01*
X013192Y013823D01*
X013289Y013823D01*
X013337Y013775D01*
X013289Y013678D02*
X013337Y013629D01*
X013337Y013581D01*
X013289Y013533D01*
X013192Y013533D01*
X013144Y013581D01*
X013144Y013629D01*
X013192Y013678D01*
X013043Y013484D02*
X012849Y013484D01*
X012748Y013533D02*
X012555Y013533D01*
X012748Y013726D01*
X012748Y013775D01*
X012700Y013823D01*
X012603Y013823D01*
X012555Y013775D01*
X012454Y013775D02*
X012405Y013823D01*
X012260Y013823D01*
X012260Y013533D01*
X012405Y013533D01*
X012454Y013581D01*
X012454Y013775D01*
X012471Y014143D02*
X012664Y014143D01*
X012568Y014143D02*
X012568Y014433D01*
X012471Y014336D01*
X012370Y014385D02*
X012321Y014433D01*
X012176Y014433D01*
X012176Y014143D01*
X012321Y014143D01*
X012370Y014191D01*
X012370Y014385D01*
X012765Y014094D02*
X012959Y014094D01*
X013060Y014143D02*
X013060Y014191D01*
X013254Y014385D01*
X013254Y014433D01*
X013060Y014433D01*
X012124Y011354D02*
X012318Y011161D01*
X012366Y011161D01*
X012366Y011059D02*
X012366Y010866D01*
X012366Y010963D02*
X012076Y010963D01*
X012173Y010866D01*
X012124Y010765D02*
X012076Y010716D01*
X012076Y010620D01*
X012124Y010571D01*
X012318Y010571D01*
X012366Y010620D01*
X012366Y010716D01*
X012318Y010765D01*
X012076Y011161D02*
X012076Y011354D01*
X012124Y011354D01*
X012108Y010246D02*
X012205Y010246D01*
X012254Y010197D01*
X012254Y010149D01*
X012205Y010100D01*
X012108Y010100D01*
X012060Y010149D01*
X012060Y010197D01*
X012108Y010246D01*
X012108Y010100D02*
X012060Y010052D01*
X012060Y010004D01*
X012108Y009955D01*
X012205Y009955D01*
X012254Y010004D01*
X012254Y010052D01*
X012205Y010100D01*
X011959Y009907D02*
X011765Y009907D01*
X011664Y009955D02*
X011471Y009955D01*
X011568Y009955D02*
X011568Y010246D01*
X011471Y010149D01*
X011370Y010197D02*
X011321Y010246D01*
X011176Y010246D01*
X011176Y009955D01*
X011321Y009955D01*
X011370Y010004D01*
X011370Y010197D01*
X012737Y010250D02*
X012737Y009960D01*
X012737Y010057D02*
X012882Y010057D01*
X012931Y010105D01*
X012931Y010202D01*
X012882Y010250D01*
X012737Y010250D01*
X012834Y010057D02*
X012931Y009960D01*
X013032Y009960D02*
X013225Y009960D01*
X013129Y009960D02*
X013129Y010250D01*
X013032Y010154D01*
X013327Y010250D02*
X013520Y010250D01*
X013520Y010202D01*
X013327Y010009D01*
X013327Y009960D01*
X009426Y009746D02*
X009330Y009697D01*
X009233Y009600D01*
X009378Y009600D01*
X009426Y009552D01*
X009426Y009504D01*
X009378Y009455D01*
X009281Y009455D01*
X009233Y009504D01*
X009233Y009600D01*
X009132Y009455D02*
X008938Y009455D01*
X009035Y009455D02*
X009035Y009746D01*
X008938Y009649D01*
X008837Y009697D02*
X008837Y009600D01*
X008789Y009552D01*
X008644Y009552D01*
X008740Y009552D02*
X008837Y009455D01*
X008644Y009455D02*
X008644Y009746D01*
X008789Y009746D01*
X008837Y009697D01*
X008691Y014018D02*
X008691Y014308D01*
X008545Y014163D01*
X008739Y014163D01*
X008444Y014018D02*
X008251Y014018D01*
X008348Y014018D02*
X008348Y014308D01*
X008251Y014211D01*
X008150Y014163D02*
X008150Y014260D01*
X008101Y014308D01*
X007956Y014308D01*
X007956Y014018D01*
X007956Y014114D02*
X008101Y014114D01*
X008150Y014163D01*
X008053Y014114D02*
X008150Y014018D01*
X008150Y018143D02*
X008053Y018239D01*
X008101Y018239D02*
X007956Y018239D01*
X007956Y018143D02*
X007956Y018433D01*
X008101Y018433D01*
X008150Y018385D01*
X008150Y018288D01*
X008101Y018239D01*
X008251Y018143D02*
X008444Y018143D01*
X008348Y018143D02*
X008348Y018433D01*
X008251Y018336D01*
X008545Y018385D02*
X008594Y018433D01*
X008691Y018433D01*
X008739Y018385D01*
X008739Y018336D01*
X008545Y018143D01*
X008739Y018143D01*
D13*
X008011Y018178D02*
X011911Y018178D01*
X011961Y018165D01*
X011998Y018128D01*
X012011Y018078D01*
X012011Y015878D01*
X011998Y015828D01*
X011961Y015791D01*
X011911Y015778D01*
X008011Y015778D01*
X007961Y015791D01*
X007924Y015828D01*
X007911Y015878D01*
X007911Y018078D01*
X007924Y018128D01*
X007961Y018165D01*
X008011Y018178D01*
X006631Y018317D02*
X006551Y018317D01*
X006551Y014387D01*
X003951Y014387D01*
X003011Y014387D01*
X003011Y018317D01*
X003951Y018317D01*
X006551Y018317D01*
X006551Y018387D02*
X003951Y018387D01*
X003011Y018387D01*
X003011Y022317D01*
X003951Y022317D01*
X006551Y022317D01*
X006631Y022317D01*
X006631Y018387D01*
X006551Y018387D01*
X006551Y022317D01*
X006551Y022387D02*
X003951Y022387D01*
X003011Y022387D01*
X003011Y026317D01*
X003951Y026317D01*
X006551Y026317D01*
X006631Y026317D01*
X006631Y022387D01*
X006551Y022387D01*
X006551Y026317D01*
X007911Y026328D02*
X007911Y024128D01*
X007924Y024078D01*
X007961Y024041D01*
X008011Y024028D01*
X011911Y024028D01*
X011961Y024041D01*
X011998Y024078D01*
X012011Y024128D01*
X012011Y026328D01*
X011998Y026378D01*
X011961Y026415D01*
X011911Y026428D01*
X008011Y026428D01*
X007961Y026415D01*
X007924Y026378D01*
X007911Y026328D01*
X008911Y025228D02*
X010461Y025228D01*
X010811Y025228D02*
X011011Y025228D01*
X012111Y024228D02*
X012149Y024479D01*
X012259Y024707D01*
X012431Y024893D01*
X012650Y025019D01*
X012897Y025076D01*
X013150Y025057D01*
X013386Y024964D01*
X013584Y024806D01*
X013727Y024597D01*
X013802Y024355D01*
X013802Y024101D01*
X013727Y023859D01*
X013584Y023650D01*
X013386Y023492D01*
X013150Y023399D01*
X012897Y023380D01*
X012650Y023437D01*
X012431Y023563D01*
X012259Y023749D01*
X012149Y023977D01*
X012111Y024228D01*
X013461Y024428D02*
X013661Y024428D01*
X013561Y024528D02*
X013561Y024328D01*
X013561Y024078D02*
X013561Y023878D01*
X013586Y023228D02*
X013624Y023419D01*
X013732Y023582D01*
X013895Y023690D01*
X014086Y023728D01*
X014277Y023690D01*
X014440Y023582D01*
X014548Y023419D01*
X014586Y023228D01*
X014548Y023037D01*
X014440Y022874D01*
X014277Y022766D01*
X014086Y022728D01*
X013895Y022766D01*
X013732Y022874D01*
X013624Y023037D01*
X013586Y023228D01*
X012011Y022203D02*
X012011Y020003D01*
X011998Y019953D01*
X011961Y019916D01*
X011911Y019903D01*
X008011Y019903D01*
X007961Y019916D01*
X007924Y019953D01*
X007911Y020003D01*
X007911Y022203D01*
X007924Y022253D01*
X007961Y022290D01*
X008011Y022303D01*
X011911Y022303D01*
X011961Y022290D01*
X011998Y022253D01*
X012011Y022203D01*
X011011Y021103D02*
X010811Y021103D01*
X010461Y021103D02*
X008911Y021103D01*
X007836Y019103D02*
X007874Y019294D01*
X007982Y019457D01*
X008145Y019565D01*
X008336Y019603D01*
X008527Y019565D01*
X008690Y019457D01*
X008798Y019294D01*
X008836Y019103D01*
X008798Y018912D01*
X008690Y018749D01*
X008527Y018641D01*
X008336Y018603D01*
X008145Y018641D01*
X007982Y018749D01*
X007874Y018912D01*
X007836Y019103D01*
X006631Y018317D02*
X006631Y014387D01*
X006551Y014387D01*
X006551Y014317D02*
X006631Y014317D01*
X006631Y010387D01*
X006551Y010387D01*
X003951Y010387D01*
X003011Y010387D01*
X003011Y014317D01*
X003951Y014317D01*
X006551Y014317D01*
X006551Y010387D01*
X005831Y011367D02*
X005863Y011475D01*
X005948Y011549D01*
X006059Y011565D01*
X006162Y011518D01*
X006223Y011423D01*
X006223Y011311D01*
X006162Y011216D01*
X006059Y011169D01*
X005948Y011185D01*
X005863Y011259D01*
X005831Y011367D01*
X003951Y011017D02*
X003951Y010387D01*
X003951Y011717D02*
X003951Y012987D01*
X003951Y013687D02*
X003951Y014317D01*
X003951Y014387D02*
X003951Y015017D01*
X003951Y015717D02*
X003951Y016987D01*
X003951Y017687D02*
X003951Y018317D01*
X003951Y018387D02*
X003951Y019017D01*
X003951Y019717D02*
X003951Y020987D01*
X003951Y021687D02*
X003951Y022317D01*
X003951Y022387D02*
X003951Y023017D01*
X003951Y023717D02*
X003951Y024987D01*
X003951Y025687D02*
X003951Y026317D01*
X005831Y025337D02*
X005863Y025445D01*
X005948Y025519D01*
X006059Y025535D01*
X006162Y025488D01*
X006223Y025393D01*
X006223Y025281D01*
X006162Y025186D01*
X006059Y025139D01*
X005948Y025155D01*
X005863Y025229D01*
X005831Y025337D01*
X005831Y023367D02*
X005863Y023475D01*
X005948Y023549D01*
X006059Y023565D01*
X006162Y023518D01*
X006223Y023423D01*
X006223Y023311D01*
X006162Y023216D01*
X006059Y023169D01*
X005948Y023185D01*
X005863Y023259D01*
X005831Y023367D01*
X007836Y023228D02*
X007874Y023419D01*
X007982Y023582D01*
X008145Y023690D01*
X008336Y023728D01*
X008527Y023690D01*
X008690Y023582D01*
X008798Y023419D01*
X008836Y023228D01*
X008798Y023037D01*
X008690Y022874D01*
X008527Y022766D01*
X008336Y022728D01*
X008145Y022766D01*
X007982Y022874D01*
X007874Y023037D01*
X007836Y023228D01*
X005831Y021337D02*
X005863Y021445D01*
X005948Y021519D01*
X006059Y021535D01*
X006162Y021488D01*
X006223Y021393D01*
X006223Y021281D01*
X006162Y021186D01*
X006059Y021139D01*
X005948Y021155D01*
X005863Y021229D01*
X005831Y021337D01*
X005831Y019367D02*
X005863Y019475D01*
X005948Y019549D01*
X006059Y019565D01*
X006162Y019518D01*
X006223Y019423D01*
X006223Y019311D01*
X006162Y019216D01*
X006059Y019169D01*
X005948Y019185D01*
X005863Y019259D01*
X005831Y019367D01*
X005831Y017337D02*
X005863Y017445D01*
X005948Y017519D01*
X006059Y017535D01*
X006162Y017488D01*
X006223Y017393D01*
X006223Y017281D01*
X006162Y017186D01*
X006059Y017139D01*
X005948Y017155D01*
X005863Y017229D01*
X005831Y017337D01*
X005831Y015367D02*
X005863Y015475D01*
X005948Y015549D01*
X006059Y015565D01*
X006162Y015518D01*
X006223Y015423D01*
X006223Y015311D01*
X006162Y015216D01*
X006059Y015169D01*
X005948Y015185D01*
X005863Y015259D01*
X005831Y015367D01*
X007911Y013953D02*
X007911Y011753D01*
X007924Y011703D01*
X007961Y011666D01*
X008011Y011653D01*
X011911Y011653D01*
X011961Y011666D01*
X011998Y011703D01*
X012011Y011753D01*
X012011Y013953D01*
X011998Y014003D01*
X011961Y014040D01*
X011911Y014053D01*
X008011Y014053D01*
X007961Y014040D01*
X007924Y014003D01*
X007911Y013953D01*
X007836Y014978D02*
X007874Y015169D01*
X007982Y015332D01*
X008145Y015440D01*
X008336Y015478D01*
X008527Y015440D01*
X008690Y015332D01*
X008798Y015169D01*
X008836Y014978D01*
X008798Y014787D01*
X008690Y014624D01*
X008527Y014516D01*
X008336Y014478D01*
X008145Y014516D01*
X007982Y014624D01*
X007874Y014787D01*
X007836Y014978D01*
X005831Y013337D02*
X005863Y013445D01*
X005948Y013519D01*
X006059Y013535D01*
X006162Y013488D01*
X006223Y013393D01*
X006223Y013281D01*
X006162Y013186D01*
X006059Y013139D01*
X005948Y013155D01*
X005863Y013229D01*
X005831Y013337D01*
X008911Y012853D02*
X010461Y012853D01*
X010811Y012853D02*
X011011Y012853D01*
X012111Y011853D02*
X012149Y012104D01*
X012259Y012332D01*
X012431Y012518D01*
X012650Y012644D01*
X012897Y012701D01*
X013150Y012682D01*
X013386Y012589D01*
X013584Y012431D01*
X013727Y012222D01*
X013802Y011980D01*
X013802Y011726D01*
X013727Y011484D01*
X013584Y011275D01*
X013386Y011117D01*
X013150Y011024D01*
X012897Y011005D01*
X012650Y011062D01*
X012431Y011188D01*
X012259Y011374D01*
X012149Y011602D01*
X012111Y011853D01*
X013461Y012053D02*
X013661Y012053D01*
X013561Y012153D02*
X013561Y011953D01*
X013561Y011703D02*
X013561Y011503D01*
X013586Y010853D02*
X013624Y011044D01*
X013732Y011207D01*
X013895Y011315D01*
X014086Y011353D01*
X014277Y011315D01*
X014440Y011207D01*
X014548Y011044D01*
X014586Y010853D01*
X014548Y010662D01*
X014440Y010499D01*
X014277Y010391D01*
X014086Y010353D01*
X013895Y010391D01*
X013732Y010499D01*
X013624Y010662D01*
X013586Y010853D01*
X015436Y010353D02*
X017736Y010353D01*
X017736Y013353D01*
X016986Y013353D01*
X016956Y013200D01*
X016869Y013070D01*
X016739Y012983D01*
X016586Y012953D01*
X016433Y012983D01*
X016303Y013070D01*
X016216Y013200D01*
X016186Y013353D01*
X015436Y013353D01*
X015436Y010353D01*
X017399Y009665D02*
X017399Y005665D01*
X017399Y004665D01*
X017649Y004915D01*
X017399Y004665D02*
X018399Y004665D01*
X018399Y005665D01*
X018399Y009665D01*
X017399Y009665D01*
X014911Y007065D02*
X014911Y005765D01*
X014884Y005665D01*
X014811Y005592D01*
X014711Y005565D01*
X014461Y005915D02*
X014461Y006295D01*
X014461Y006545D02*
X014461Y006915D01*
X014211Y007265D02*
X014111Y007238D01*
X014038Y007165D01*
X014011Y007065D01*
X014011Y005765D01*
X014038Y005665D01*
X014111Y005592D01*
X014211Y005565D01*
X014961Y004353D02*
X015461Y004353D01*
X015711Y004103D01*
X015711Y002603D01*
X015461Y002353D01*
X014961Y002353D01*
X014711Y002603D01*
X014711Y004103D01*
X014961Y004353D01*
X015711Y004103D02*
X015961Y004353D01*
X016461Y004353D01*
X016711Y004103D01*
X016711Y002603D01*
X016461Y002353D01*
X015961Y002353D01*
X015711Y002603D01*
X016711Y002603D02*
X016961Y002353D01*
X017461Y002353D01*
X017711Y002603D01*
X017711Y004103D01*
X017961Y004353D01*
X018461Y004353D01*
X018711Y004103D01*
X018711Y002603D01*
X018461Y002353D01*
X017961Y002353D01*
X017711Y002603D01*
X018711Y002603D02*
X018961Y002353D01*
X019461Y002353D01*
X019711Y002603D01*
X019711Y004103D01*
X019461Y004353D01*
X018961Y004353D01*
X018711Y004103D01*
X018399Y004665D02*
X018149Y004915D01*
X018149Y005415D02*
X018399Y005665D01*
X017399Y005665D01*
X017649Y005415D01*
X017461Y004353D02*
X016961Y004353D01*
X016711Y004103D01*
X017461Y004353D02*
X017711Y004103D01*
X019711Y004103D02*
X019961Y004353D01*
X020461Y004353D01*
X020711Y004103D01*
X020711Y002603D01*
X020461Y002353D01*
X019961Y002353D01*
X019711Y002603D01*
X020711Y002603D02*
X020961Y002353D01*
X021461Y002353D01*
X021711Y002603D01*
X021711Y004103D01*
X021461Y004353D01*
X020961Y004353D01*
X020711Y004103D01*
X021149Y004665D02*
X021149Y005665D01*
X022149Y005665D01*
X022149Y009665D01*
X021149Y009665D01*
X021149Y005665D01*
X021399Y005415D01*
X021899Y005415D02*
X022149Y005665D01*
X022149Y004665D01*
X021899Y004915D01*
X022149Y004665D02*
X021149Y004665D01*
X021399Y004915D01*
X021961Y004353D02*
X022461Y004353D01*
X022711Y004103D01*
X022711Y002603D01*
X022461Y002353D01*
X021961Y002353D01*
X021711Y002603D01*
X022711Y002603D02*
X022961Y002353D01*
X023461Y002353D01*
X023711Y002603D01*
X023711Y004103D01*
X023461Y004353D01*
X022961Y004353D01*
X022711Y004103D01*
X021961Y004353D02*
X021711Y004103D01*
X023711Y004103D02*
X023961Y004353D01*
X024461Y004353D01*
X024711Y004103D01*
X024711Y002603D01*
X024461Y002353D01*
X023961Y002353D01*
X023711Y002603D01*
X026811Y000290D02*
X029111Y000290D01*
X029111Y007290D01*
X028361Y007290D01*
X028331Y007137D01*
X028244Y007007D01*
X028114Y006920D01*
X027961Y006890D01*
X027808Y006920D01*
X027678Y007007D01*
X027591Y007137D01*
X027561Y007290D01*
X026811Y007290D01*
X026811Y000290D01*
X032741Y001389D02*
X032821Y001389D01*
X032821Y005319D01*
X035421Y005319D01*
X036361Y005319D01*
X036361Y001389D01*
X035421Y001389D01*
X032821Y001389D01*
X032741Y001389D02*
X032741Y005319D01*
X032821Y005319D01*
X033141Y004339D02*
X033173Y004447D01*
X033258Y004521D01*
X033369Y004537D01*
X033472Y004490D01*
X033533Y004395D01*
X033533Y004283D01*
X033472Y004188D01*
X033369Y004141D01*
X033258Y004157D01*
X033173Y004231D01*
X033141Y004339D01*
X035421Y004689D02*
X035421Y005319D01*
X035421Y003989D02*
X035421Y002719D01*
X035421Y002019D02*
X035421Y001389D01*
X033141Y002369D02*
X033173Y002477D01*
X033258Y002551D01*
X033369Y002567D01*
X033472Y002520D01*
X033533Y002425D01*
X033533Y002313D01*
X033472Y002218D01*
X033369Y002171D01*
X033258Y002187D01*
X033173Y002261D01*
X033141Y002369D01*
X032049Y006340D02*
X030749Y006340D01*
X030649Y006367D01*
X030576Y006440D01*
X030549Y006540D01*
X030899Y006790D02*
X031279Y006790D01*
X031529Y006790D02*
X031899Y006790D01*
X032249Y006540D02*
X032222Y006440D01*
X032149Y006367D01*
X032049Y006340D01*
X032249Y007040D02*
X032222Y007140D01*
X032149Y007213D01*
X032049Y007240D01*
X030749Y007240D01*
X030649Y007213D01*
X030576Y007140D01*
X030549Y007040D01*
X029569Y008294D02*
X029783Y008508D01*
X029676Y008508D01*
X029676Y008615D01*
X029783Y008615D01*
X029783Y008508D01*
X029352Y008615D02*
X029245Y008508D01*
X029031Y008508D01*
X028925Y008615D01*
X029352Y009042D01*
X029352Y008615D01*
X029352Y009042D02*
X029245Y009148D01*
X029031Y009148D01*
X028925Y009042D01*
X028925Y008615D01*
X028707Y008615D02*
X028600Y008508D01*
X028387Y008508D01*
X028280Y008615D01*
X028063Y008508D02*
X027636Y008508D01*
X028063Y008935D01*
X028063Y009042D01*
X027956Y009148D01*
X027742Y009148D01*
X027636Y009042D01*
X027418Y008935D02*
X026991Y008508D01*
X026774Y008615D02*
X026667Y008508D01*
X026453Y008508D01*
X026347Y008615D01*
X026347Y008721D01*
X026453Y008828D01*
X026667Y008828D01*
X026774Y008721D01*
X026774Y008615D01*
X026667Y008828D02*
X026774Y008935D01*
X026774Y009042D01*
X026667Y009148D01*
X026453Y009148D01*
X026347Y009042D01*
X026347Y008935D01*
X026453Y008828D01*
X026130Y008935D02*
X025917Y008935D01*
X026024Y009042D02*
X026024Y008615D01*
X026130Y008508D01*
X025699Y008508D02*
X025699Y008935D01*
X025272Y008935D02*
X025272Y008615D01*
X025379Y008508D01*
X025699Y008508D01*
X025055Y008615D02*
X024948Y008508D01*
X024628Y008508D01*
X024628Y008294D02*
X024628Y008935D01*
X024948Y008935D01*
X025055Y008828D01*
X025055Y008615D01*
X024410Y008508D02*
X024410Y008828D01*
X024304Y008935D01*
X023983Y008935D01*
X023983Y008508D01*
X023767Y008508D02*
X023554Y008508D01*
X023660Y008508D02*
X023660Y009148D01*
X023554Y009148D02*
X023767Y009148D01*
X023861Y010540D02*
X023111Y010540D01*
X023081Y010693D01*
X022994Y010823D01*
X022864Y010910D01*
X022711Y010940D01*
X022558Y010910D01*
X022428Y010823D01*
X022341Y010693D01*
X022311Y010540D01*
X021561Y010540D01*
X021561Y013540D01*
X023861Y013540D01*
X023861Y010540D01*
X024461Y010790D02*
X024498Y011022D01*
X024604Y011231D01*
X024770Y011397D01*
X024979Y011503D01*
X025211Y011540D01*
X025443Y011503D01*
X025652Y011397D01*
X025818Y011231D01*
X025924Y011022D01*
X025961Y010790D01*
X025924Y010558D01*
X025818Y010349D01*
X025652Y010183D01*
X025443Y010077D01*
X025211Y010040D01*
X024979Y010077D01*
X024770Y010183D01*
X024604Y010349D01*
X024498Y010558D01*
X024461Y010790D01*
X025736Y011740D02*
X025736Y011940D01*
X025836Y011840D02*
X025636Y011840D01*
X025736Y012190D02*
X025736Y012390D01*
X025486Y012040D02*
X025524Y012291D01*
X025634Y012519D01*
X025806Y012705D01*
X026025Y012831D01*
X026272Y012888D01*
X026525Y012869D01*
X026761Y012776D01*
X026959Y012618D01*
X027102Y012409D01*
X027177Y012167D01*
X027177Y011913D01*
X027102Y011671D01*
X026959Y011462D01*
X026761Y011304D01*
X026525Y011211D01*
X026272Y011192D01*
X026025Y011249D01*
X025806Y011375D01*
X025634Y011561D01*
X025524Y011789D01*
X025486Y012040D01*
X024711Y013040D02*
X024749Y013231D01*
X024857Y013394D01*
X025020Y013502D01*
X025211Y013540D01*
X025402Y013502D01*
X025565Y013394D01*
X025673Y013231D01*
X025711Y013040D01*
X025673Y012849D01*
X025565Y012686D01*
X025402Y012578D01*
X025211Y012540D01*
X025020Y012578D01*
X024857Y012686D01*
X024749Y012849D01*
X024711Y013040D01*
X023861Y014665D02*
X023111Y014665D01*
X023081Y014818D01*
X022994Y014948D01*
X022864Y015035D01*
X022711Y015065D01*
X022558Y015035D01*
X022428Y014948D01*
X022341Y014818D01*
X022311Y014665D01*
X021561Y014665D01*
X021561Y017665D01*
X023861Y017665D01*
X023861Y014665D01*
X024461Y014915D02*
X024498Y015147D01*
X024604Y015356D01*
X024770Y015522D01*
X024979Y015628D01*
X025211Y015665D01*
X025443Y015628D01*
X025652Y015522D01*
X025818Y015356D01*
X025924Y015147D01*
X025961Y014915D01*
X025924Y014683D01*
X025818Y014474D01*
X025652Y014308D01*
X025443Y014202D01*
X025211Y014165D01*
X024979Y014202D01*
X024770Y014308D01*
X024604Y014474D01*
X024498Y014683D01*
X024461Y014915D01*
X025636Y015965D02*
X025836Y015965D01*
X025736Y015865D02*
X025736Y016065D01*
X025736Y016315D02*
X025736Y016515D01*
X025486Y016165D02*
X025524Y016416D01*
X025634Y016644D01*
X025806Y016830D01*
X026025Y016956D01*
X026272Y017013D01*
X026525Y016994D01*
X026761Y016901D01*
X026959Y016743D01*
X027102Y016534D01*
X027177Y016292D01*
X027177Y016038D01*
X027102Y015796D01*
X026959Y015587D01*
X026761Y015429D01*
X026525Y015336D01*
X026272Y015317D01*
X026025Y015374D01*
X025806Y015500D01*
X025634Y015686D01*
X025524Y015914D01*
X025486Y016165D01*
X024711Y017165D02*
X024749Y017356D01*
X024857Y017519D01*
X025020Y017627D01*
X025211Y017665D01*
X025402Y017627D01*
X025565Y017519D01*
X025673Y017356D01*
X025711Y017165D01*
X025673Y016974D01*
X025565Y016811D01*
X025402Y016703D01*
X025211Y016665D01*
X025020Y016703D01*
X024857Y016811D01*
X024749Y016974D01*
X024711Y017165D01*
X023861Y018790D02*
X023111Y018790D01*
X023081Y018943D01*
X022994Y019073D01*
X022864Y019160D01*
X022711Y019190D01*
X022558Y019160D01*
X022428Y019073D01*
X022341Y018943D01*
X022311Y018790D01*
X021561Y018790D01*
X021561Y021790D01*
X023861Y021790D01*
X023861Y018790D01*
X024461Y019040D02*
X024498Y019272D01*
X024604Y019481D01*
X024770Y019647D01*
X024979Y019753D01*
X025211Y019790D01*
X025443Y019753D01*
X025652Y019647D01*
X025818Y019481D01*
X025924Y019272D01*
X025961Y019040D01*
X025924Y018808D01*
X025818Y018599D01*
X025652Y018433D01*
X025443Y018327D01*
X025211Y018290D01*
X024979Y018327D01*
X024770Y018433D01*
X024604Y018599D01*
X024498Y018808D01*
X024461Y019040D01*
X025736Y019990D02*
X025736Y020190D01*
X025836Y020090D02*
X025636Y020090D01*
X025736Y020440D02*
X025736Y020640D01*
X025486Y020290D02*
X025524Y020541D01*
X025634Y020769D01*
X025806Y020955D01*
X026025Y021081D01*
X026272Y021138D01*
X026525Y021119D01*
X026761Y021026D01*
X026959Y020868D01*
X027102Y020659D01*
X027177Y020417D01*
X027177Y020163D01*
X027102Y019921D01*
X026959Y019712D01*
X026761Y019554D01*
X026525Y019461D01*
X026272Y019442D01*
X026025Y019499D01*
X025806Y019625D01*
X025634Y019811D01*
X025524Y020039D01*
X025486Y020290D01*
X024711Y021290D02*
X024749Y021481D01*
X024857Y021644D01*
X025020Y021752D01*
X025211Y021790D01*
X025402Y021752D01*
X025565Y021644D01*
X025673Y021481D01*
X025711Y021290D01*
X025673Y021099D01*
X025565Y020936D01*
X025402Y020828D01*
X025211Y020790D01*
X025020Y020828D01*
X024857Y020936D01*
X024749Y021099D01*
X024711Y021290D01*
X023861Y022915D02*
X023111Y022915D01*
X023081Y023068D01*
X022994Y023198D01*
X022864Y023285D01*
X022711Y023315D01*
X022558Y023285D01*
X022428Y023198D01*
X022341Y023068D01*
X022311Y022915D01*
X021561Y022915D01*
X021561Y025915D01*
X023861Y025915D01*
X023861Y022915D01*
X024461Y023165D02*
X024498Y023397D01*
X024604Y023606D01*
X024770Y023772D01*
X024979Y023878D01*
X025211Y023915D01*
X025443Y023878D01*
X025652Y023772D01*
X025818Y023606D01*
X025924Y023397D01*
X025961Y023165D01*
X025924Y022933D01*
X025818Y022724D01*
X025652Y022558D01*
X025443Y022452D01*
X025211Y022415D01*
X024979Y022452D01*
X024770Y022558D01*
X024604Y022724D01*
X024498Y022933D01*
X024461Y023165D01*
X025636Y024215D02*
X025836Y024215D01*
X025736Y024115D02*
X025736Y024315D01*
X025736Y024565D02*
X025736Y024765D01*
X025486Y024415D02*
X025524Y024666D01*
X025634Y024894D01*
X025806Y025080D01*
X026025Y025206D01*
X026272Y025263D01*
X026525Y025244D01*
X026761Y025151D01*
X026959Y024993D01*
X027102Y024784D01*
X027177Y024542D01*
X027177Y024288D01*
X027102Y024046D01*
X026959Y023837D01*
X026761Y023679D01*
X026525Y023586D01*
X026272Y023567D01*
X026025Y023624D01*
X025806Y023750D01*
X025634Y023936D01*
X025524Y024164D01*
X025486Y024415D01*
X024711Y025415D02*
X024749Y025606D01*
X024857Y025769D01*
X025020Y025877D01*
X025211Y025915D01*
X025402Y025877D01*
X025565Y025769D01*
X025673Y025606D01*
X025711Y025415D01*
X025673Y025224D01*
X025565Y025061D01*
X025402Y024953D01*
X025211Y024915D01*
X025020Y024953D01*
X024857Y025061D01*
X024749Y025224D01*
X024711Y025415D01*
X027286Y024515D02*
X027286Y022315D01*
X027299Y022265D01*
X027336Y022228D01*
X027386Y022215D01*
X031286Y022215D01*
X031336Y022228D01*
X031373Y022265D01*
X031386Y022315D01*
X031386Y024515D01*
X031373Y024565D01*
X031336Y024602D01*
X031286Y024615D01*
X027386Y024615D01*
X027336Y024602D01*
X027299Y024565D01*
X027286Y024515D01*
X027961Y025415D02*
X027998Y025647D01*
X028104Y025856D01*
X028270Y026022D01*
X028479Y026128D01*
X028711Y026165D01*
X028943Y026128D01*
X029152Y026022D01*
X029318Y025856D01*
X029424Y025647D01*
X029461Y025415D01*
X029424Y025183D01*
X029318Y024974D01*
X029152Y024808D01*
X028943Y024702D01*
X028711Y024665D01*
X028479Y024702D01*
X028270Y024808D01*
X028104Y024974D01*
X027998Y025183D01*
X027961Y025415D01*
X028286Y023415D02*
X028486Y023415D01*
X028836Y023415D02*
X030386Y023415D01*
X030461Y025415D02*
X030499Y025606D01*
X030607Y025769D01*
X030770Y025877D01*
X030961Y025915D01*
X031152Y025877D01*
X031315Y025769D01*
X031423Y025606D01*
X031461Y025415D01*
X031423Y025224D01*
X031315Y025061D01*
X031152Y024953D01*
X030961Y024915D01*
X030770Y024953D01*
X030607Y025061D01*
X030499Y025224D01*
X030461Y025415D01*
X032741Y025319D02*
X032741Y021389D01*
X032821Y021389D01*
X032821Y025319D01*
X035421Y025319D01*
X036361Y025319D01*
X036361Y021389D01*
X035421Y021389D01*
X032821Y021389D01*
X032821Y021319D02*
X035421Y021319D01*
X036361Y021319D01*
X036361Y017389D01*
X035421Y017389D01*
X032821Y017389D01*
X032741Y017389D01*
X032741Y021319D01*
X032821Y021319D01*
X032821Y017389D01*
X032821Y017319D02*
X035421Y017319D01*
X036361Y017319D01*
X036361Y013389D01*
X035421Y013389D01*
X032821Y013389D01*
X032741Y013389D01*
X032741Y017319D01*
X032821Y017319D01*
X032821Y013389D01*
X032821Y013319D02*
X035421Y013319D01*
X036361Y013319D01*
X036361Y009389D01*
X035421Y009389D01*
X032821Y009389D01*
X032741Y009389D01*
X032741Y013319D01*
X032821Y013319D01*
X032821Y009389D01*
X032360Y008935D02*
X032146Y008508D01*
X031933Y008935D01*
X031715Y008828D02*
X031715Y008721D01*
X031288Y008721D01*
X031288Y008615D02*
X031288Y008828D01*
X031395Y008935D01*
X031608Y008935D01*
X031715Y008828D01*
X031608Y008508D02*
X031395Y008508D01*
X031288Y008615D01*
X031071Y008508D02*
X030857Y008721D01*
X030964Y008721D02*
X030644Y008721D01*
X030644Y008508D02*
X030644Y009148D01*
X030964Y009148D01*
X031071Y009042D01*
X031071Y008828D01*
X030964Y008721D01*
X031286Y009840D02*
X027386Y009840D01*
X027336Y009853D01*
X027299Y009890D01*
X027286Y009940D01*
X027286Y012140D01*
X027299Y012190D01*
X027336Y012227D01*
X027386Y012240D01*
X031286Y012240D01*
X031336Y012227D01*
X031373Y012190D01*
X031386Y012140D01*
X031386Y009940D01*
X031373Y009890D01*
X031336Y009853D01*
X031286Y009840D01*
X032577Y008615D02*
X032684Y008615D01*
X032684Y008508D01*
X032577Y008508D01*
X032577Y008615D01*
X033544Y008828D02*
X033971Y008828D01*
X034188Y008615D02*
X034188Y008508D01*
X034295Y008508D01*
X034295Y008615D01*
X034188Y008615D01*
X034511Y008508D02*
X034938Y008508D01*
X034724Y008508D02*
X034724Y009148D01*
X034511Y008935D01*
X033864Y009148D02*
X033544Y008828D01*
X033864Y008508D02*
X033864Y009148D01*
X033141Y010369D02*
X033173Y010477D01*
X033258Y010551D01*
X033369Y010567D01*
X033472Y010520D01*
X033533Y010425D01*
X033533Y010313D01*
X033472Y010218D01*
X033369Y010171D01*
X033258Y010187D01*
X033173Y010261D01*
X033141Y010369D01*
X035421Y010719D02*
X035421Y011989D01*
X035421Y012689D02*
X035421Y013319D01*
X035421Y013389D02*
X035421Y014019D01*
X035421Y014719D02*
X035421Y015989D01*
X035421Y016689D02*
X035421Y017319D01*
X035421Y017389D02*
X035421Y018019D01*
X035421Y018719D02*
X035421Y019989D01*
X035421Y020689D02*
X035421Y021319D01*
X035421Y021389D02*
X035421Y022019D01*
X035421Y022719D02*
X035421Y023989D01*
X035421Y024689D02*
X035421Y025319D01*
X033141Y024339D02*
X033173Y024447D01*
X033258Y024521D01*
X033369Y024537D01*
X033472Y024490D01*
X033533Y024395D01*
X033533Y024283D01*
X033472Y024188D01*
X033369Y024141D01*
X033258Y024157D01*
X033173Y024231D01*
X033141Y024339D01*
X032821Y025319D02*
X032741Y025319D01*
X033141Y022369D02*
X033173Y022477D01*
X033258Y022551D01*
X033369Y022567D01*
X033472Y022520D01*
X033533Y022425D01*
X033533Y022313D01*
X033472Y022218D01*
X033369Y022171D01*
X033258Y022187D01*
X033173Y022261D01*
X033141Y022369D01*
X030461Y021290D02*
X030499Y021481D01*
X030607Y021644D01*
X030770Y021752D01*
X030961Y021790D01*
X031152Y021752D01*
X031315Y021644D01*
X031423Y021481D01*
X031461Y021290D01*
X031423Y021099D01*
X031315Y020936D01*
X031152Y020828D01*
X030961Y020790D01*
X030770Y020828D01*
X030607Y020936D01*
X030499Y021099D01*
X030461Y021290D01*
X031286Y020490D02*
X027386Y020490D01*
X027336Y020477D01*
X027299Y020440D01*
X027286Y020390D01*
X027286Y018190D01*
X027299Y018140D01*
X027336Y018103D01*
X027386Y018090D01*
X031286Y018090D01*
X031336Y018103D01*
X031373Y018140D01*
X031386Y018190D01*
X031386Y020390D01*
X031373Y020440D01*
X031336Y020477D01*
X031286Y020490D01*
X030386Y019290D02*
X028836Y019290D01*
X028486Y019290D02*
X028286Y019290D01*
X027961Y021290D02*
X027998Y021522D01*
X028104Y021731D01*
X028270Y021897D01*
X028479Y022003D01*
X028711Y022040D01*
X028943Y022003D01*
X029152Y021897D01*
X029318Y021731D01*
X029424Y021522D01*
X029461Y021290D01*
X029424Y021058D01*
X029318Y020849D01*
X029152Y020683D01*
X028943Y020577D01*
X028711Y020540D01*
X028479Y020577D01*
X028270Y020683D01*
X028104Y020849D01*
X027998Y021058D01*
X027961Y021290D01*
X033141Y020339D02*
X033173Y020447D01*
X033258Y020521D01*
X033369Y020537D01*
X033472Y020490D01*
X033533Y020395D01*
X033533Y020283D01*
X033472Y020188D01*
X033369Y020141D01*
X033258Y020157D01*
X033173Y020231D01*
X033141Y020339D01*
X033141Y018369D02*
X033173Y018477D01*
X033258Y018551D01*
X033369Y018567D01*
X033472Y018520D01*
X033533Y018425D01*
X033533Y018313D01*
X033472Y018218D01*
X033369Y018171D01*
X033258Y018187D01*
X033173Y018261D01*
X033141Y018369D01*
X030461Y017165D02*
X030499Y017356D01*
X030607Y017519D01*
X030770Y017627D01*
X030961Y017665D01*
X031152Y017627D01*
X031315Y017519D01*
X031423Y017356D01*
X031461Y017165D01*
X031423Y016974D01*
X031315Y016811D01*
X031152Y016703D01*
X030961Y016665D01*
X030770Y016703D01*
X030607Y016811D01*
X030499Y016974D01*
X030461Y017165D01*
X031286Y016365D02*
X027386Y016365D01*
X027336Y016352D01*
X027299Y016315D01*
X027286Y016265D01*
X027286Y014065D01*
X027299Y014015D01*
X027336Y013978D01*
X027386Y013965D01*
X031286Y013965D01*
X031336Y013978D01*
X031373Y014015D01*
X031386Y014065D01*
X031386Y016265D01*
X031373Y016315D01*
X031336Y016352D01*
X031286Y016365D01*
X030386Y015165D02*
X028836Y015165D01*
X028486Y015165D02*
X028286Y015165D01*
X027961Y017165D02*
X027998Y017397D01*
X028104Y017606D01*
X028270Y017772D01*
X028479Y017878D01*
X028711Y017915D01*
X028943Y017878D01*
X029152Y017772D01*
X029318Y017606D01*
X029424Y017397D01*
X029461Y017165D01*
X029424Y016933D01*
X029318Y016724D01*
X029152Y016558D01*
X028943Y016452D01*
X028711Y016415D01*
X028479Y016452D01*
X028270Y016558D01*
X028104Y016724D01*
X027998Y016933D01*
X027961Y017165D01*
X033141Y016339D02*
X033173Y016447D01*
X033258Y016521D01*
X033369Y016537D01*
X033472Y016490D01*
X033533Y016395D01*
X033533Y016283D01*
X033472Y016188D01*
X033369Y016141D01*
X033258Y016157D01*
X033173Y016231D01*
X033141Y016339D01*
X033141Y014369D02*
X033173Y014477D01*
X033258Y014551D01*
X033369Y014567D01*
X033472Y014520D01*
X033533Y014425D01*
X033533Y014313D01*
X033472Y014218D01*
X033369Y014171D01*
X033258Y014187D01*
X033173Y014261D01*
X033141Y014369D01*
X030461Y013040D02*
X030499Y013231D01*
X030607Y013394D01*
X030770Y013502D01*
X030961Y013540D01*
X031152Y013502D01*
X031315Y013394D01*
X031423Y013231D01*
X031461Y013040D01*
X031423Y012849D01*
X031315Y012686D01*
X031152Y012578D01*
X030961Y012540D01*
X030770Y012578D01*
X030607Y012686D01*
X030499Y012849D01*
X030461Y013040D01*
X027961Y013040D02*
X027998Y013272D01*
X028104Y013481D01*
X028270Y013647D01*
X028479Y013753D01*
X028711Y013790D01*
X028943Y013753D01*
X029152Y013647D01*
X029318Y013481D01*
X029424Y013272D01*
X029461Y013040D01*
X029424Y012808D01*
X029318Y012599D01*
X029152Y012433D01*
X028943Y012327D01*
X028711Y012290D01*
X028479Y012327D01*
X028270Y012433D01*
X028104Y012599D01*
X027998Y012808D01*
X027961Y013040D01*
X028286Y011040D02*
X028486Y011040D01*
X028836Y011040D02*
X030386Y011040D01*
X028600Y009148D02*
X028387Y009148D01*
X028280Y009042D01*
X028494Y008828D02*
X028600Y008828D01*
X028707Y008721D01*
X028707Y008615D01*
X028600Y008828D02*
X028707Y008935D01*
X028707Y009042D01*
X028600Y009148D01*
X027418Y008508D02*
X026991Y008935D01*
X022861Y006165D02*
X022899Y006416D01*
X023009Y006644D01*
X023181Y006830D01*
X023400Y006956D01*
X023647Y007013D01*
X023900Y006994D01*
X024136Y006901D01*
X024334Y006743D01*
X024477Y006534D01*
X024552Y006292D01*
X024552Y006038D01*
X024477Y005796D01*
X024334Y005587D01*
X024136Y005429D01*
X023900Y005336D01*
X023647Y005317D01*
X023400Y005374D01*
X023181Y005500D01*
X023009Y005686D01*
X022899Y005914D01*
X022861Y006165D01*
X023911Y005665D02*
X023911Y005465D01*
X024011Y005565D02*
X023811Y005565D01*
X023561Y005565D02*
X023361Y005565D01*
X014911Y007065D02*
X014884Y007165D01*
X014811Y007238D01*
X014711Y007265D01*
X012549Y007290D02*
X011799Y007290D01*
X011769Y007137D01*
X011682Y007007D01*
X011552Y006920D01*
X011399Y006890D01*
X011246Y006920D01*
X011116Y007007D01*
X011029Y007137D01*
X010999Y007290D01*
X010249Y007290D01*
X010249Y000290D01*
X012549Y000290D01*
X012549Y007290D01*
X007924Y006753D02*
X007924Y006603D01*
X007874Y006553D01*
X007874Y005153D01*
X007924Y005103D01*
X007924Y004953D01*
X007911Y004903D01*
X007874Y004866D01*
X007824Y004853D01*
X007224Y004853D01*
X007174Y004866D01*
X007137Y004903D01*
X007124Y004953D01*
X007124Y005103D01*
X007174Y005153D01*
X007174Y006553D01*
X007124Y006603D01*
X007124Y006753D01*
X007137Y006803D01*
X007174Y006840D01*
X007224Y006853D01*
X007824Y006853D01*
X007874Y006840D01*
X007911Y006803D01*
X007924Y006753D01*
X006011Y007053D02*
X006011Y007653D01*
X005911Y007653D01*
X005911Y007753D01*
X005911Y007053D02*
X005911Y006953D01*
X005911Y007053D02*
X006011Y007053D01*
X004611Y007353D02*
X004640Y007424D01*
X004711Y007453D01*
X004782Y007424D01*
X004811Y007353D01*
X004782Y007282D01*
X004711Y007253D01*
X004640Y007282D01*
X004611Y007353D01*
X004011Y007353D02*
X004049Y007580D01*
X004159Y007783D01*
X004328Y007939D01*
X004539Y008032D01*
X004769Y008051D01*
X004992Y007994D01*
X005185Y007868D01*
X005327Y007686D01*
X005401Y007468D01*
X005401Y007238D01*
X005327Y007020D01*
X005185Y006838D01*
X004992Y006712D01*
X004769Y006655D01*
X004539Y006674D01*
X004328Y006767D01*
X004159Y006923D01*
X004049Y007126D01*
X004011Y007353D01*
X003511Y007653D02*
X003511Y007753D01*
X003511Y007653D02*
X003411Y007653D01*
X003411Y007053D01*
X003511Y007053D01*
X003511Y006953D01*
X003861Y006153D02*
X004211Y006153D01*
X005211Y006153D01*
X005561Y006153D01*
X005311Y005353D02*
X005284Y005174D01*
X005204Y005011D01*
X005079Y004879D01*
X005311Y005353D02*
X005284Y005532D01*
X005204Y005695D01*
X005079Y005827D01*
X004111Y005353D02*
X004139Y005170D01*
X004222Y005005D01*
X004351Y004873D01*
X004111Y005353D02*
X004141Y005540D01*
X004227Y005708D01*
X004362Y005841D01*
X004261Y008553D02*
X003861Y008553D01*
X004261Y008553D02*
X005211Y008553D01*
X005561Y008553D01*
X007836Y010853D02*
X007874Y011044D01*
X007982Y011207D01*
X008145Y011315D01*
X008336Y011353D01*
X008527Y011315D01*
X008690Y011207D01*
X008798Y011044D01*
X008836Y010853D01*
X008798Y010662D01*
X008690Y010499D01*
X008527Y010391D01*
X008336Y010353D01*
X008145Y010391D01*
X007982Y010499D01*
X007874Y010662D01*
X007836Y010853D01*
X009836Y010853D02*
X009873Y011085D01*
X009979Y011294D01*
X010145Y011460D01*
X010354Y011566D01*
X010586Y011603D01*
X010818Y011566D01*
X011027Y011460D01*
X011193Y011294D01*
X011299Y011085D01*
X011336Y010853D01*
X011299Y010621D01*
X011193Y010412D01*
X011027Y010246D01*
X010818Y010140D01*
X010586Y010103D01*
X010354Y010140D01*
X010145Y010246D01*
X009979Y010412D01*
X009873Y010621D01*
X009836Y010853D01*
X013336Y013103D02*
X013373Y013335D01*
X013479Y013544D01*
X013645Y013710D01*
X013854Y013816D01*
X014086Y013853D01*
X014318Y013816D01*
X014527Y013710D01*
X014693Y013544D01*
X014799Y013335D01*
X014836Y013103D01*
X014799Y012871D01*
X014693Y012662D01*
X014527Y012496D01*
X014318Y012390D01*
X014086Y012353D01*
X013854Y012390D01*
X013645Y012496D01*
X013479Y012662D01*
X013373Y012871D01*
X013336Y013103D01*
X015436Y014478D02*
X017736Y014478D01*
X017736Y017478D01*
X016986Y017478D01*
X016956Y017325D01*
X016869Y017195D01*
X016739Y017108D01*
X016586Y017078D01*
X016433Y017108D01*
X016303Y017195D01*
X016216Y017325D01*
X016186Y017478D01*
X015436Y017478D01*
X015436Y014478D01*
X013586Y014978D02*
X013624Y015169D01*
X013732Y015332D01*
X013895Y015440D01*
X014086Y015478D01*
X014277Y015440D01*
X014440Y015332D01*
X014548Y015169D01*
X014586Y014978D01*
X014548Y014787D01*
X014440Y014624D01*
X014277Y014516D01*
X014086Y014478D01*
X013895Y014516D01*
X013732Y014624D01*
X013624Y014787D01*
X013586Y014978D01*
X013561Y015628D02*
X013561Y015828D01*
X013561Y016078D02*
X013561Y016278D01*
X013461Y016178D02*
X013661Y016178D01*
X012111Y015978D02*
X012149Y016229D01*
X012259Y016457D01*
X012431Y016643D01*
X012650Y016769D01*
X012897Y016826D01*
X013150Y016807D01*
X013386Y016714D01*
X013584Y016556D01*
X013727Y016347D01*
X013802Y016105D01*
X013802Y015851D01*
X013727Y015609D01*
X013584Y015400D01*
X013386Y015242D01*
X013150Y015149D01*
X012897Y015130D01*
X012650Y015187D01*
X012431Y015313D01*
X012259Y015499D01*
X012149Y015727D01*
X012111Y015978D01*
X011011Y016978D02*
X010811Y016978D01*
X010461Y016978D02*
X008911Y016978D01*
X009836Y014978D02*
X009873Y015210D01*
X009979Y015419D01*
X010145Y015585D01*
X010354Y015691D01*
X010586Y015728D01*
X010818Y015691D01*
X011027Y015585D01*
X011193Y015419D01*
X011299Y015210D01*
X011336Y014978D01*
X011299Y014746D01*
X011193Y014537D01*
X011027Y014371D01*
X010818Y014265D01*
X010586Y014228D01*
X010354Y014265D01*
X010145Y014371D01*
X009979Y014537D01*
X009873Y014746D01*
X009836Y014978D01*
X013336Y017228D02*
X013373Y017460D01*
X013479Y017669D01*
X013645Y017835D01*
X013854Y017941D01*
X014086Y017978D01*
X014318Y017941D01*
X014527Y017835D01*
X014693Y017669D01*
X014799Y017460D01*
X014836Y017228D01*
X014799Y016996D01*
X014693Y016787D01*
X014527Y016621D01*
X014318Y016515D01*
X014086Y016478D01*
X013854Y016515D01*
X013645Y016621D01*
X013479Y016787D01*
X013373Y016996D01*
X013336Y017228D01*
X015436Y018603D02*
X017736Y018603D01*
X017736Y021603D01*
X016986Y021603D01*
X016956Y021450D01*
X016869Y021320D01*
X016739Y021233D01*
X016586Y021203D01*
X016433Y021233D01*
X016303Y021320D01*
X016216Y021450D01*
X016186Y021603D01*
X015436Y021603D01*
X015436Y018603D01*
X013586Y019103D02*
X013624Y019294D01*
X013732Y019457D01*
X013895Y019565D01*
X014086Y019603D01*
X014277Y019565D01*
X014440Y019457D01*
X014548Y019294D01*
X014586Y019103D01*
X014548Y018912D01*
X014440Y018749D01*
X014277Y018641D01*
X014086Y018603D01*
X013895Y018641D01*
X013732Y018749D01*
X013624Y018912D01*
X013586Y019103D01*
X013561Y019753D02*
X013561Y019953D01*
X013561Y020203D02*
X013561Y020403D01*
X013461Y020303D02*
X013661Y020303D01*
X012111Y020103D02*
X012149Y020354D01*
X012259Y020582D01*
X012431Y020768D01*
X012650Y020894D01*
X012897Y020951D01*
X013150Y020932D01*
X013386Y020839D01*
X013584Y020681D01*
X013727Y020472D01*
X013802Y020230D01*
X013802Y019976D01*
X013727Y019734D01*
X013584Y019525D01*
X013386Y019367D01*
X013150Y019274D01*
X012897Y019255D01*
X012650Y019312D01*
X012431Y019438D01*
X012259Y019624D01*
X012149Y019852D01*
X012111Y020103D01*
X009836Y019103D02*
X009873Y019335D01*
X009979Y019544D01*
X010145Y019710D01*
X010354Y019816D01*
X010586Y019853D01*
X010818Y019816D01*
X011027Y019710D01*
X011193Y019544D01*
X011299Y019335D01*
X011336Y019103D01*
X011299Y018871D01*
X011193Y018662D01*
X011027Y018496D01*
X010818Y018390D01*
X010586Y018353D01*
X010354Y018390D01*
X010145Y018496D01*
X009979Y018662D01*
X009873Y018871D01*
X009836Y019103D01*
X013336Y021353D02*
X013373Y021585D01*
X013479Y021794D01*
X013645Y021960D01*
X013854Y022066D01*
X014086Y022103D01*
X014318Y022066D01*
X014527Y021960D01*
X014693Y021794D01*
X014799Y021585D01*
X014836Y021353D01*
X014799Y021121D01*
X014693Y020912D01*
X014527Y020746D01*
X014318Y020640D01*
X014086Y020603D01*
X013854Y020640D01*
X013645Y020746D01*
X013479Y020912D01*
X013373Y021121D01*
X013336Y021353D01*
X015436Y022728D02*
X017736Y022728D01*
X017736Y025728D01*
X016986Y025728D01*
X016956Y025575D01*
X016869Y025445D01*
X016739Y025358D01*
X016586Y025328D01*
X016433Y025358D01*
X016303Y025445D01*
X016216Y025575D01*
X016186Y025728D01*
X015436Y025728D01*
X015436Y022728D01*
X013336Y025478D02*
X013373Y025710D01*
X013479Y025919D01*
X013645Y026085D01*
X013854Y026191D01*
X014086Y026228D01*
X014318Y026191D01*
X014527Y026085D01*
X014693Y025919D01*
X014799Y025710D01*
X014836Y025478D01*
X014799Y025246D01*
X014693Y025037D01*
X014527Y024871D01*
X014318Y024765D01*
X014086Y024728D01*
X013854Y024765D01*
X013645Y024871D01*
X013479Y025037D01*
X013373Y025246D01*
X013336Y025478D01*
X009836Y023228D02*
X009873Y023460D01*
X009979Y023669D01*
X010145Y023835D01*
X010354Y023941D01*
X010586Y023978D01*
X010818Y023941D01*
X011027Y023835D01*
X011193Y023669D01*
X011299Y023460D01*
X011336Y023228D01*
X011299Y022996D01*
X011193Y022787D01*
X011027Y022621D01*
X010818Y022515D01*
X010586Y022478D01*
X010354Y022515D01*
X010145Y022621D01*
X009979Y022787D01*
X009873Y022996D01*
X009836Y023228D01*
X033141Y012339D02*
X033173Y012447D01*
X033258Y012521D01*
X033369Y012537D01*
X033472Y012490D01*
X033533Y012395D01*
X033533Y012283D01*
X033472Y012188D01*
X033369Y012141D01*
X033258Y012157D01*
X033173Y012231D01*
X033141Y012339D01*
X035421Y010019D02*
X035421Y009389D01*
D14*
X035706Y009864D02*
X036156Y010164D01*
X036156Y010324D02*
X036156Y010624D01*
X036156Y010474D02*
X035706Y010474D01*
X035856Y010324D01*
X035706Y010164D02*
X036156Y009864D01*
X033936Y009894D02*
X033936Y009594D01*
X033936Y009744D02*
X033486Y009744D01*
X033636Y009594D01*
X031795Y007741D02*
X031720Y007816D01*
X031569Y007816D01*
X031494Y007741D01*
X031494Y007666D01*
X031569Y007590D01*
X031795Y007590D01*
X031795Y007440D02*
X031795Y007741D01*
X031795Y007440D02*
X031720Y007365D01*
X031569Y007365D01*
X031494Y007440D01*
X031334Y007365D02*
X031034Y007365D01*
X031184Y007365D02*
X031184Y007816D01*
X031034Y007666D01*
X030874Y007741D02*
X030799Y007816D01*
X030649Y007816D01*
X030574Y007741D01*
X030574Y007440D01*
X030649Y007365D01*
X030799Y007365D01*
X030874Y007440D01*
X027854Y007465D02*
X027554Y007465D01*
X027704Y007465D02*
X027704Y007916D01*
X027554Y007766D01*
X027393Y007841D02*
X027318Y007916D01*
X027168Y007916D01*
X027093Y007841D01*
X027093Y007540D01*
X027168Y007465D01*
X027318Y007465D01*
X027393Y007540D01*
X026936Y007465D02*
X026786Y007465D01*
X026861Y007465D02*
X026861Y007916D01*
X026786Y007916D02*
X026936Y007916D01*
X023726Y009965D02*
X023426Y009965D01*
X023576Y009965D02*
X023576Y010416D01*
X023426Y010266D01*
X023266Y010416D02*
X022965Y010115D01*
X023040Y010190D02*
X023266Y009965D01*
X022965Y009965D02*
X022965Y010416D01*
X022805Y010341D02*
X022730Y010416D01*
X022580Y010416D01*
X022505Y010341D01*
X022505Y010040D01*
X022580Y009965D01*
X022730Y009965D01*
X022805Y010040D01*
X022805Y010341D01*
X022730Y014090D02*
X022805Y014165D01*
X022805Y014466D01*
X022730Y014541D01*
X022580Y014541D01*
X022505Y014466D01*
X022505Y014165D01*
X022580Y014090D01*
X022730Y014090D01*
X022965Y014090D02*
X022965Y014541D01*
X023040Y014315D02*
X023266Y014090D01*
X023426Y014090D02*
X023726Y014391D01*
X023726Y014466D01*
X023651Y014541D01*
X023501Y014541D01*
X023426Y014466D01*
X023266Y014541D02*
X022965Y014240D01*
X023426Y014090D02*
X023726Y014090D01*
X029586Y015615D02*
X029661Y015540D01*
X029811Y015540D01*
X029886Y015615D01*
X030047Y015765D02*
X030347Y015765D01*
X030272Y015540D02*
X030272Y015991D01*
X030047Y015765D01*
X029886Y015916D02*
X029811Y015991D01*
X029661Y015991D01*
X029586Y015916D01*
X029586Y015615D01*
X033486Y015619D02*
X033561Y015544D01*
X033486Y015619D02*
X033486Y015769D01*
X033561Y015844D01*
X033636Y015844D01*
X033936Y015544D01*
X033936Y015844D01*
X035706Y014549D02*
X035706Y014399D01*
X035781Y014324D01*
X035706Y014164D02*
X036156Y013864D01*
X036156Y014164D02*
X035706Y013864D01*
X036156Y014324D02*
X035856Y014624D01*
X035781Y014624D01*
X035706Y014549D01*
X036156Y014624D02*
X036156Y014324D01*
X033936Y013894D02*
X033936Y013594D01*
X033936Y013744D02*
X033486Y013744D01*
X033636Y013594D01*
X033636Y011844D02*
X033561Y011844D01*
X033486Y011769D01*
X033486Y011619D01*
X033561Y011544D01*
X033636Y011844D02*
X033936Y011544D01*
X033936Y011844D01*
X030347Y011791D02*
X030347Y011716D01*
X030047Y011415D01*
X030347Y011415D01*
X029886Y011490D02*
X029811Y011415D01*
X029661Y011415D01*
X029586Y011490D01*
X029586Y011791D01*
X029661Y011866D01*
X029811Y011866D01*
X029886Y011791D01*
X030047Y011791D02*
X030122Y011866D01*
X030272Y011866D01*
X030347Y011791D01*
X033636Y017594D02*
X033486Y017744D01*
X033936Y017744D01*
X033936Y017594D02*
X033936Y017894D01*
X035706Y017864D02*
X036156Y018164D01*
X036081Y018324D02*
X036156Y018399D01*
X036156Y018549D01*
X036081Y018624D01*
X036006Y018624D01*
X035931Y018549D01*
X035931Y018474D01*
X035931Y018549D02*
X035856Y018624D01*
X035781Y018624D01*
X035706Y018549D01*
X035706Y018399D01*
X035781Y018324D01*
X035706Y018164D02*
X036156Y017864D01*
X033936Y019544D02*
X033636Y019844D01*
X033561Y019844D01*
X033486Y019769D01*
X033486Y019619D01*
X033561Y019544D01*
X033936Y019544D02*
X033936Y019844D01*
X033936Y021594D02*
X033936Y021894D01*
X033936Y021744D02*
X033486Y021744D01*
X033636Y021594D01*
X035706Y021864D02*
X036156Y022164D01*
X035931Y022324D02*
X035931Y022624D01*
X035706Y022549D02*
X035931Y022324D01*
X035706Y022164D02*
X036156Y021864D01*
X036156Y022549D02*
X035706Y022549D01*
X033936Y023544D02*
X033636Y023844D01*
X033561Y023844D01*
X033486Y023769D01*
X033486Y023619D01*
X033561Y023544D01*
X033936Y023544D02*
X033936Y023844D01*
X030347Y023865D02*
X030272Y023790D01*
X030122Y023790D01*
X030047Y023865D01*
X030047Y023940D01*
X030122Y024015D01*
X030272Y024015D01*
X030347Y023940D01*
X030347Y023865D01*
X030272Y024015D02*
X030347Y024091D01*
X030347Y024166D01*
X030272Y024241D01*
X030122Y024241D01*
X030047Y024166D01*
X030047Y024091D01*
X030122Y024015D01*
X029886Y023865D02*
X029811Y023790D01*
X029661Y023790D01*
X029586Y023865D01*
X029586Y024166D01*
X029661Y024241D01*
X029811Y024241D01*
X029886Y024166D01*
X029811Y020116D02*
X029661Y020116D01*
X029586Y020041D01*
X029586Y019740D01*
X029661Y019665D01*
X029811Y019665D01*
X029886Y019740D01*
X030047Y019740D02*
X030122Y019665D01*
X030272Y019665D01*
X030347Y019740D01*
X030347Y019815D01*
X030272Y019890D01*
X030047Y019890D01*
X030047Y019740D01*
X030047Y019890D02*
X030197Y020041D01*
X030347Y020116D01*
X029886Y020041D02*
X029811Y020116D01*
X023726Y018591D02*
X023726Y018516D01*
X023651Y018440D01*
X023726Y018365D01*
X023726Y018290D01*
X023651Y018215D01*
X023501Y018215D01*
X023426Y018290D01*
X023266Y018215D02*
X023040Y018440D01*
X022965Y018365D02*
X023266Y018666D01*
X023426Y018591D02*
X023501Y018666D01*
X023651Y018666D01*
X023726Y018591D01*
X023651Y018440D02*
X023576Y018440D01*
X022965Y018666D02*
X022965Y018215D01*
X022805Y018290D02*
X022805Y018591D01*
X022730Y018666D01*
X022580Y018666D01*
X022505Y018591D01*
X022505Y018290D01*
X022580Y018215D01*
X022730Y018215D01*
X022805Y018290D01*
X022730Y022340D02*
X022805Y022415D01*
X022805Y022716D01*
X022730Y022791D01*
X022580Y022791D01*
X022505Y022716D01*
X022505Y022415D01*
X022580Y022340D01*
X022730Y022340D01*
X022965Y022340D02*
X022965Y022791D01*
X023040Y022565D02*
X023266Y022340D01*
X023426Y022565D02*
X023726Y022565D01*
X023651Y022340D02*
X023651Y022791D01*
X023426Y022565D01*
X023266Y022791D02*
X022965Y022490D01*
X016682Y022178D02*
X016532Y022103D01*
X016382Y021953D01*
X016607Y021953D01*
X016682Y021878D01*
X016682Y021803D01*
X016607Y021728D01*
X016457Y021728D01*
X016382Y021803D01*
X016382Y021953D01*
X016222Y022178D02*
X015922Y021878D01*
X015997Y021953D02*
X016222Y021728D01*
X015922Y021728D02*
X015922Y022178D01*
X015761Y022103D02*
X015761Y021803D01*
X015686Y021728D01*
X015536Y021728D01*
X015461Y021803D01*
X015461Y022103D01*
X015536Y022178D01*
X015686Y022178D01*
X015761Y022103D01*
X015686Y025853D02*
X015761Y025928D01*
X015761Y026228D01*
X015686Y026303D01*
X015536Y026303D01*
X015461Y026228D01*
X015461Y025928D01*
X015536Y025853D01*
X015686Y025853D01*
X015922Y025853D02*
X015922Y026303D01*
X015997Y026078D02*
X016222Y025853D01*
X016382Y025928D02*
X016457Y025853D01*
X016607Y025853D01*
X016682Y025928D01*
X016682Y026078D01*
X016607Y026153D01*
X016532Y026153D01*
X016382Y026078D01*
X016382Y026303D01*
X016682Y026303D01*
X016222Y026303D02*
X015922Y026003D01*
X009601Y024778D02*
X009601Y024478D01*
X009526Y024403D01*
X009376Y024403D01*
X009301Y024478D01*
X009601Y024778D01*
X009526Y024853D01*
X009376Y024853D01*
X009301Y024778D01*
X009301Y024478D01*
X009141Y024403D02*
X008840Y024403D01*
X008991Y024403D02*
X008991Y024853D01*
X008840Y024703D01*
X008680Y024778D02*
X008605Y024853D01*
X008455Y024853D01*
X008380Y024778D01*
X008380Y024478D01*
X008455Y024403D01*
X008605Y024403D01*
X008680Y024478D01*
X005886Y024052D02*
X005886Y023752D01*
X005586Y024052D01*
X005511Y024052D01*
X005436Y023977D01*
X005436Y023827D01*
X005511Y023752D01*
X003666Y024971D02*
X003216Y025271D01*
X003216Y025432D02*
X003441Y025432D01*
X003366Y025582D01*
X003366Y025657D01*
X003441Y025732D01*
X003591Y025732D01*
X003666Y025657D01*
X003666Y025507D01*
X003591Y025432D01*
X003666Y025271D02*
X003216Y024971D01*
X003216Y025432D02*
X003216Y025732D01*
X005436Y025852D02*
X005886Y025852D01*
X005886Y025702D02*
X005886Y026002D01*
X005586Y025702D02*
X005436Y025852D01*
X005886Y022002D02*
X005886Y021702D01*
X005886Y021852D02*
X005436Y021852D01*
X005586Y021702D01*
X003666Y021657D02*
X003591Y021732D01*
X003516Y021732D01*
X003441Y021657D01*
X003441Y021432D01*
X003591Y021432D01*
X003666Y021507D01*
X003666Y021657D01*
X003441Y021432D02*
X003291Y021582D01*
X003216Y021732D01*
X003216Y021271D02*
X003666Y020971D01*
X003666Y021271D02*
X003216Y020971D01*
X005436Y019977D02*
X005436Y019827D01*
X005511Y019752D01*
X005436Y019977D02*
X005511Y020052D01*
X005586Y020052D01*
X005886Y019752D01*
X005886Y020052D01*
X008380Y020353D02*
X008455Y020278D01*
X008605Y020278D01*
X008680Y020353D01*
X008840Y020278D02*
X009141Y020278D01*
X008991Y020278D02*
X008991Y020728D01*
X008840Y020578D01*
X008680Y020653D02*
X008605Y020728D01*
X008455Y020728D01*
X008380Y020653D01*
X008380Y020353D01*
X009301Y020278D02*
X009601Y020578D01*
X009601Y020653D01*
X009526Y020728D01*
X009376Y020728D01*
X009301Y020653D01*
X009301Y020278D02*
X009601Y020278D01*
X005886Y018002D02*
X005886Y017702D01*
X005886Y017852D02*
X005436Y017852D01*
X005586Y017702D01*
X003666Y017432D02*
X003591Y017432D01*
X003291Y017732D01*
X003216Y017732D01*
X003216Y017432D01*
X003216Y017271D02*
X003666Y016971D01*
X003666Y017271D02*
X003216Y016971D01*
X005436Y015977D02*
X005436Y015827D01*
X005511Y015752D01*
X005436Y015977D02*
X005511Y016052D01*
X005586Y016052D01*
X005886Y015752D01*
X005886Y016052D01*
X008380Y016228D02*
X008455Y016153D01*
X008605Y016153D01*
X008680Y016228D01*
X008840Y016153D02*
X009141Y016153D01*
X008991Y016153D02*
X008991Y016603D01*
X008840Y016453D01*
X008680Y016528D02*
X008605Y016603D01*
X008455Y016603D01*
X008380Y016528D01*
X008380Y016228D01*
X009301Y016378D02*
X009601Y016378D01*
X009526Y016153D02*
X009526Y016603D01*
X009301Y016378D01*
X005886Y014002D02*
X005886Y013702D01*
X005886Y013852D02*
X005436Y013852D01*
X005586Y013702D01*
X003666Y013657D02*
X003666Y013507D01*
X003591Y013432D01*
X003516Y013432D01*
X003441Y013507D01*
X003441Y013657D01*
X003516Y013732D01*
X003591Y013732D01*
X003666Y013657D01*
X003441Y013657D02*
X003366Y013732D01*
X003291Y013732D01*
X003216Y013657D01*
X003216Y013507D01*
X003291Y013432D01*
X003366Y013432D01*
X003441Y013507D01*
X003216Y013271D02*
X003666Y012971D01*
X003666Y013271D02*
X003216Y012971D01*
X005436Y011977D02*
X005436Y011827D01*
X005511Y011752D01*
X005436Y011977D02*
X005511Y012052D01*
X005586Y012052D01*
X005886Y011752D01*
X005886Y012052D01*
X008818Y011978D02*
X008893Y011903D01*
X009043Y011903D01*
X009118Y011978D01*
X009278Y011903D02*
X009578Y011903D01*
X009428Y011903D02*
X009428Y012353D01*
X009278Y012203D01*
X009118Y012278D02*
X009043Y012353D01*
X008893Y012353D01*
X008818Y012278D01*
X008818Y011978D01*
X009738Y011978D02*
X009813Y011903D01*
X009963Y011903D01*
X010039Y011978D01*
X010039Y012053D01*
X009963Y012128D01*
X009738Y012128D01*
X009738Y011978D01*
X009738Y012128D02*
X009888Y012278D01*
X010039Y012353D01*
X015461Y013553D02*
X015536Y013478D01*
X015686Y013478D01*
X015761Y013553D01*
X015761Y013853D01*
X015686Y013928D01*
X015536Y013928D01*
X015461Y013853D01*
X015461Y013553D01*
X015922Y013628D02*
X016222Y013928D01*
X016382Y013853D02*
X016382Y013778D01*
X016457Y013703D01*
X016607Y013703D01*
X016682Y013628D01*
X016682Y013553D01*
X016607Y013478D01*
X016457Y013478D01*
X016382Y013553D01*
X016382Y013628D01*
X016457Y013703D01*
X016607Y013703D02*
X016682Y013778D01*
X016682Y013853D01*
X016607Y013928D01*
X016457Y013928D01*
X016382Y013853D01*
X016222Y013478D02*
X015997Y013703D01*
X015922Y013928D02*
X015922Y013478D01*
X015922Y017603D02*
X015922Y018053D01*
X015761Y017978D02*
X015761Y017678D01*
X015686Y017603D01*
X015536Y017603D01*
X015461Y017678D01*
X015461Y017978D01*
X015536Y018053D01*
X015686Y018053D01*
X015761Y017978D01*
X015922Y017753D02*
X016222Y018053D01*
X016382Y018053D02*
X016682Y018053D01*
X016682Y017978D01*
X016382Y017678D01*
X016382Y017603D01*
X016222Y017603D02*
X015997Y017828D01*
X017161Y009536D02*
X017161Y009236D01*
X017161Y009386D02*
X016711Y009386D01*
X016861Y009236D01*
X016711Y009076D02*
X017161Y009076D01*
X016711Y008776D01*
X017161Y008776D01*
X017161Y008616D02*
X017011Y008465D01*
X017011Y008540D02*
X017011Y008315D01*
X017161Y008315D02*
X016711Y008315D01*
X016711Y008540D01*
X016786Y008616D01*
X016936Y008616D01*
X017011Y008540D01*
X015436Y006874D02*
X015361Y006874D01*
X015286Y006799D01*
X015286Y006649D01*
X015211Y006574D01*
X015136Y006574D01*
X015061Y006649D01*
X015061Y006799D01*
X015136Y006874D01*
X015211Y006874D01*
X015286Y006799D01*
X015286Y006649D02*
X015361Y006574D01*
X015436Y006574D01*
X015511Y006649D01*
X015511Y006799D01*
X015436Y006874D01*
X015511Y006413D02*
X015511Y006113D01*
X015511Y006263D02*
X015061Y006263D01*
X015211Y006113D01*
X015136Y005953D02*
X015061Y005878D01*
X015061Y005728D01*
X015136Y005653D01*
X015436Y005653D01*
X015511Y005728D01*
X015511Y005878D01*
X015436Y005953D01*
X011291Y007465D02*
X010991Y007465D01*
X011291Y007765D01*
X011291Y007841D01*
X011216Y007916D01*
X011066Y007916D01*
X010991Y007841D01*
X010831Y007841D02*
X010756Y007916D01*
X010606Y007916D01*
X010531Y007841D01*
X010531Y007540D01*
X010606Y007465D01*
X010756Y007465D01*
X010831Y007540D01*
X010374Y007465D02*
X010224Y007465D01*
X010299Y007465D02*
X010299Y007916D01*
X010224Y007916D02*
X010374Y007916D01*
X008724Y006043D02*
X008724Y005742D01*
X008724Y005892D02*
X008273Y005892D01*
X008424Y005742D01*
X008499Y005582D02*
X008574Y005507D01*
X008574Y005282D01*
X008724Y005282D02*
X008273Y005282D01*
X008273Y005507D01*
X008348Y005582D01*
X008499Y005582D01*
X008574Y005432D02*
X008724Y005582D01*
X007576Y004978D02*
X007276Y004978D01*
X007426Y004978D02*
X007426Y005428D01*
X007276Y005278D01*
X007116Y005353D02*
X007116Y005053D01*
X007041Y004978D01*
X006815Y004978D01*
X006815Y005428D01*
X007041Y005428D01*
X007116Y005353D01*
X006655Y005428D02*
X006355Y005428D01*
X006355Y004978D01*
X006655Y004978D01*
X006505Y005203D02*
X006355Y005203D01*
X006195Y004978D02*
X005895Y004978D01*
X005895Y005428D01*
X003547Y005328D02*
X003247Y005328D01*
X003397Y005328D02*
X003397Y005778D01*
X003247Y005628D01*
X003086Y005703D02*
X003011Y005778D01*
X002861Y005778D01*
X002786Y005703D01*
X002786Y005628D01*
X002861Y005553D01*
X003011Y005553D01*
X003086Y005478D01*
X003086Y005403D01*
X003011Y005328D01*
X002861Y005328D01*
X002786Y005403D01*
X020605Y001453D02*
X020680Y001378D01*
X020755Y001378D01*
X020830Y001453D01*
X020830Y001828D01*
X020755Y001828D02*
X020905Y001828D01*
X021065Y001828D02*
X021291Y001828D01*
X021366Y001753D01*
X021366Y001603D01*
X021291Y001528D01*
X021065Y001528D01*
X021065Y001378D02*
X021065Y001828D01*
X021526Y001678D02*
X021676Y001828D01*
X021676Y001378D01*
X021526Y001378D02*
X021826Y001378D01*
X022398Y004940D02*
X022398Y005165D01*
X022473Y005241D01*
X022624Y005241D01*
X022699Y005165D01*
X022699Y004940D01*
X022849Y004940D02*
X022398Y004940D01*
X022699Y005090D02*
X022849Y005241D01*
X022726Y005340D02*
X022426Y005340D01*
X022398Y005401D02*
X022849Y005701D01*
X022398Y005701D01*
X022426Y005641D02*
X022576Y005791D01*
X022576Y005340D01*
X022398Y005401D02*
X022849Y005401D01*
X022849Y005861D02*
X022548Y006161D01*
X022473Y006161D01*
X022398Y006086D01*
X022398Y005936D01*
X022473Y005861D01*
X022266Y005716D02*
X022191Y005791D01*
X022041Y005791D01*
X021965Y005716D01*
X021965Y005415D01*
X022041Y005340D01*
X022191Y005340D01*
X022266Y005415D01*
X022849Y005861D02*
X022849Y006161D01*
X033486Y003769D02*
X033486Y003619D01*
X033561Y003544D01*
X033486Y003769D02*
X033561Y003844D01*
X033636Y003844D01*
X033936Y003544D01*
X033936Y003844D01*
X035706Y002549D02*
X035706Y002399D01*
X035781Y002324D01*
X035856Y002324D01*
X035931Y002399D01*
X035931Y002624D01*
X035781Y002624D02*
X035706Y002549D01*
X035781Y002624D02*
X036081Y002624D01*
X036156Y002549D01*
X036156Y002399D01*
X036081Y002324D01*
X036156Y002164D02*
X035706Y001864D01*
X035706Y002164D02*
X036156Y001864D01*
X033936Y001894D02*
X033936Y001594D01*
X033936Y001744D02*
X033486Y001744D01*
X033636Y001594D01*
D15*
X005211Y006153D02*
X005211Y006253D01*
X004211Y006253D01*
X004211Y006153D01*
X004261Y008453D02*
X004261Y008553D01*
X004261Y008453D02*
X005211Y008453D01*
X005211Y008553D01*
D16*
X003911Y005353D02*
X003940Y005139D01*
X004025Y004941D01*
X004160Y004773D01*
X004335Y004647D01*
X005108Y004658D02*
X005275Y004785D01*
X005403Y004951D01*
X005484Y005145D01*
X005511Y005353D01*
X005478Y005581D01*
X005381Y005791D01*
X005228Y005964D01*
X004199Y005968D02*
X004044Y005794D01*
X003945Y005583D01*
X003911Y005353D01*
D17*
X007524Y004778D03*
X007524Y006928D03*
D18*
X030755Y002882D02*
X031149Y002882D01*
X031542Y002882D01*
X031149Y002882D02*
X031519Y002459D01*
X030767Y002459D01*
X031149Y002882D01*
D19*
X028836Y010540D02*
X028836Y011040D01*
X028836Y011540D01*
X028486Y011540D02*
X028486Y011040D01*
X028486Y010540D01*
X028486Y014665D02*
X028486Y015165D01*
X028486Y015665D01*
X028836Y015665D02*
X028836Y015165D01*
X028836Y014665D01*
X028836Y018790D02*
X028836Y019290D01*
X028836Y019790D01*
X028486Y019790D02*
X028486Y019290D01*
X028486Y018790D01*
X028486Y022915D02*
X028486Y023415D01*
X028486Y023915D01*
X028836Y023915D02*
X028836Y023415D01*
X028836Y022915D01*
X010811Y021603D02*
X010811Y021103D01*
X010811Y020603D01*
X010461Y020603D02*
X010461Y021103D01*
X010461Y021603D01*
X010461Y024728D02*
X010461Y025228D01*
X010461Y025728D01*
X010811Y025728D02*
X010811Y025228D01*
X010811Y024728D01*
X010811Y017478D02*
X010811Y016978D01*
X010811Y016478D01*
X010461Y016478D02*
X010461Y016978D01*
X010461Y017478D01*
X010461Y013353D02*
X010461Y012853D01*
X010461Y012353D01*
X010811Y012353D02*
X010811Y012853D01*
X010811Y013353D01*
D20*
X010976Y014978D02*
X011206Y014978D01*
X008936Y014978D02*
X008736Y014978D01*
X013486Y014978D02*
X013686Y014978D01*
X013696Y013103D02*
X013466Y013103D01*
X013486Y010853D02*
X013686Y010853D01*
X011206Y010853D02*
X010976Y010853D01*
X008936Y010853D02*
X008736Y010853D01*
X013466Y017228D02*
X013696Y017228D01*
X013686Y019103D02*
X013486Y019103D01*
X011206Y019103D02*
X010976Y019103D01*
X008936Y019103D02*
X008736Y019103D01*
X013466Y021353D02*
X013696Y021353D01*
X013686Y023228D02*
X013486Y023228D01*
X011206Y023228D02*
X010976Y023228D01*
X008936Y023228D02*
X008736Y023228D01*
X013466Y025478D02*
X013696Y025478D01*
X025611Y025415D02*
X025811Y025415D01*
X028091Y025415D02*
X028321Y025415D01*
X030361Y025415D02*
X030561Y025415D01*
X025831Y023165D02*
X025601Y023165D01*
X025611Y021290D02*
X025811Y021290D01*
X028091Y021290D02*
X028321Y021290D01*
X030361Y021290D02*
X030561Y021290D01*
X025831Y019040D02*
X025601Y019040D01*
X025611Y017165D02*
X025811Y017165D01*
X028091Y017165D02*
X028321Y017165D01*
X030361Y017165D02*
X030561Y017165D01*
X025831Y014915D02*
X025601Y014915D01*
X025611Y013040D02*
X025811Y013040D01*
X028091Y013040D02*
X028321Y013040D01*
X030361Y013040D02*
X030561Y013040D01*
X025831Y010790D02*
X025601Y010790D01*
D21*
X031279Y007090D02*
X031279Y006790D01*
X031279Y006490D01*
X031529Y006490D02*
X031529Y006790D01*
X031529Y007090D01*
X014761Y006545D02*
X014461Y006545D01*
X014161Y006545D01*
X014161Y006295D02*
X014461Y006295D01*
X014761Y006295D01*
M02*
