G75*
G70*
%OFA0B0*%
%FSLAX24Y24*%
%IPPOS*%
%LPD*%
%AMOC8*
5,1,8,0,0,1.08239X$1,22.5*
%
%ADD10C,0.1182*%
%ADD11C,0.0848*%
%ADD12C,0.0848*%
%ADD13C,0.0634*%
%ADD14C,0.0674*%
%ADD15OC8,0.0634*%
%ADD16C,0.0634*%
%ADD17C,0.1080*%
%ADD18OC8,0.1080*%
%ADD19R,0.0761X0.0737*%
%ADD20OC8,0.0674*%
%ADD21C,0.0789*%
%ADD22OC8,0.0555*%
D10*
X014817Y001603D03*
X020317Y001603D03*
X020317Y025103D03*
D11*
X006051Y001353D02*
X005283Y001353D01*
X006554Y001349D02*
X007321Y001349D01*
X007321Y003317D02*
X006554Y003317D01*
X006051Y003353D02*
X005283Y003353D01*
X005283Y011353D02*
X006051Y011353D01*
X006597Y011435D02*
X007365Y011435D01*
X006051Y013353D02*
X005283Y013353D01*
X006597Y013404D02*
X007365Y013404D01*
X007365Y015372D02*
X006597Y015372D01*
X006051Y015353D02*
X005283Y015353D01*
X005283Y017353D02*
X006051Y017353D01*
X006597Y017341D02*
X007365Y017341D01*
X007365Y019349D02*
X006597Y019349D01*
X006051Y019353D02*
X005283Y019353D01*
X005283Y021353D02*
X006051Y021353D01*
X006597Y021317D02*
X007365Y021317D01*
X007365Y023286D02*
X006597Y023286D01*
X006051Y023353D02*
X005283Y023353D01*
X005283Y025353D02*
X006051Y025353D01*
X006597Y025254D02*
X007365Y025254D01*
X033435Y024133D02*
X034202Y024133D01*
X034833Y024353D02*
X035601Y024353D01*
X035601Y022353D02*
X034833Y022353D01*
X034202Y022165D02*
X033435Y022165D01*
X034833Y020353D02*
X035601Y020353D01*
X034202Y020196D02*
X033435Y020196D01*
X033435Y018228D02*
X034202Y018228D01*
X034833Y018353D02*
X035601Y018353D01*
X035601Y016353D02*
X034833Y016353D01*
X034203Y016278D02*
X033435Y016278D01*
X033435Y014309D02*
X034203Y014309D01*
X034833Y014353D02*
X035601Y014353D01*
X035601Y012353D02*
X034833Y012353D01*
X034202Y012322D02*
X033435Y012322D01*
X033435Y010354D02*
X034202Y010354D01*
X034833Y010353D02*
X035601Y010353D01*
X035203Y005350D02*
X034436Y005350D01*
X034207Y004750D02*
X033440Y004750D01*
X034833Y004353D02*
X035601Y004353D01*
X035203Y003086D02*
X034436Y003086D01*
X034207Y002782D02*
X033440Y002782D01*
X034833Y002353D02*
X035601Y002353D01*
D12*
X032717Y010353D03*
X029717Y010353D03*
X025717Y010353D03*
X025717Y013353D03*
X025717Y014353D03*
X029717Y014353D03*
X031717Y013353D03*
X032717Y014353D03*
X032717Y018353D03*
X029717Y018353D03*
X025717Y018353D03*
X025717Y017353D03*
X025717Y021353D03*
X025717Y022353D03*
X029717Y022353D03*
X031717Y021353D03*
X032717Y022353D03*
X025717Y025353D03*
X015217Y025603D03*
X011217Y025603D03*
X008217Y025603D03*
X009217Y022603D03*
X008217Y021603D03*
X011217Y021603D03*
X015217Y021603D03*
X015217Y022603D03*
X015217Y018603D03*
X015217Y017603D03*
X011217Y017603D03*
X008217Y017603D03*
X009217Y014603D03*
X008217Y013603D03*
X011217Y013603D03*
X015217Y013603D03*
X015217Y014603D03*
X015217Y010603D03*
D13*
X015467Y009755D02*
X015467Y009201D01*
X016467Y009201D02*
X016467Y009755D01*
X016467Y010576D02*
X016467Y011130D01*
X017467Y011130D02*
X017467Y010576D01*
X018467Y010576D02*
X018467Y011130D01*
X019467Y011130D02*
X019467Y010576D01*
X020467Y010576D02*
X020467Y011130D01*
X021467Y011130D02*
X021467Y010576D01*
X021467Y009755D02*
X021467Y009201D01*
X020467Y009201D02*
X020467Y009755D01*
X019467Y009755D02*
X019467Y009201D01*
X018467Y009201D02*
X018467Y009755D01*
X017467Y009755D02*
X017467Y009201D01*
X017467Y006755D02*
X017467Y006201D01*
X018467Y006201D02*
X018467Y006755D01*
X019467Y006755D02*
X019467Y006201D01*
X020467Y006201D02*
X020467Y006755D01*
X021467Y006755D02*
X021467Y006201D01*
X022467Y006201D02*
X022467Y006755D01*
X023467Y006755D02*
X023467Y006201D01*
X024467Y006201D02*
X024467Y006755D01*
X024467Y009201D02*
X024467Y009755D01*
X024467Y010576D02*
X024467Y011130D01*
X023467Y011130D02*
X023467Y010576D01*
X022467Y010576D02*
X022467Y011130D01*
X022467Y009755D02*
X022467Y009201D01*
X023467Y009201D02*
X023467Y009755D01*
X023467Y013576D02*
X023467Y014130D01*
X022467Y014130D02*
X022467Y013576D01*
X021467Y013576D02*
X021467Y014130D01*
X020467Y014130D02*
X020467Y013576D01*
X019467Y013576D02*
X019467Y014130D01*
X018467Y014130D02*
X018467Y013576D01*
X017467Y013576D02*
X017467Y014130D01*
X016467Y014130D02*
X016467Y013576D01*
X024467Y013576D02*
X024467Y014130D01*
X016467Y006755D02*
X016467Y006201D01*
X015467Y006201D02*
X015467Y006755D01*
D14*
X012780Y007306D02*
X012780Y007900D01*
X011780Y007900D02*
X011780Y007306D01*
X010780Y007306D02*
X010780Y007900D01*
X007044Y008243D02*
X006450Y008243D01*
X004484Y008243D02*
X003890Y008243D01*
X003890Y006463D02*
X004484Y006463D01*
X006450Y006463D02*
X007044Y006463D01*
D15*
X005467Y004853D03*
X010342Y006353D03*
X014342Y006353D03*
D16*
X005467Y005853D03*
D17*
X012405Y003415D03*
D18*
X010405Y003415D03*
D19*
X030842Y004098D03*
X030848Y002856D03*
D20*
X024717Y003603D03*
X023717Y003603D03*
X022717Y003603D03*
X021717Y003603D03*
X020717Y003603D03*
X019717Y003603D03*
X018717Y003603D03*
X017717Y003603D03*
X016717Y003603D03*
X015717Y003603D03*
X015717Y004603D03*
X016717Y004603D03*
X017717Y004603D03*
X018717Y004603D03*
X019717Y004603D03*
X020717Y004603D03*
X021717Y004603D03*
X022717Y004603D03*
X023717Y004603D03*
X024717Y004603D03*
X014280Y007165D03*
X014280Y009165D03*
D21*
X008780Y007603D03*
X008780Y003603D03*
D22*
X009655Y005290D03*
X008030Y011415D03*
X010967Y012790D03*
X008030Y015665D03*
X010655Y017040D03*
X008030Y019353D03*
X010967Y020853D03*
X008030Y023603D03*
X010655Y025040D03*
X029967Y023103D03*
X032717Y024165D03*
X032717Y020040D03*
X030280Y018915D03*
X032717Y016290D03*
X029967Y015103D03*
X032780Y012040D03*
X030280Y010915D03*
X027842Y005540D03*
X030217Y004728D03*
X031467Y004728D03*
X031592Y002853D03*
M02*
