G75*
G70*
%OFA0B0*%
%FSLAX24Y24*%
%IPPOS*%
%LPD*%
%AMOC8*
5,1,8,0,0,1.08239X$1,22.5*
%
%ADD10C,0.1182*%
%ADD11C,0.0848*%
%ADD12C,0.0848*%
%ADD13C,0.0634*%
%ADD14C,0.0674*%
%ADD15OC8,0.0634*%
%ADD16C,0.0634*%
%ADD17C,0.1080*%
%ADD18OC8,0.1080*%
%ADD19R,0.0761X0.0737*%
%ADD20OC8,0.0674*%
%ADD21C,0.0789*%
%ADD22OC8,0.0437*%
%ADD23OC8,0.0611*%
%ADD24OC8,0.1025*%
D10*
X014617Y001643D03*
X020317Y001643D03*
X020317Y025143D03*
D11*
X005801Y001409D02*
X005033Y001409D01*
X006554Y001389D02*
X007321Y001389D01*
X007321Y003358D02*
X006554Y003358D01*
X005801Y003377D02*
X005033Y003377D01*
X005033Y011409D02*
X005801Y011409D01*
X006597Y011476D02*
X007365Y011476D01*
X007365Y013444D02*
X006597Y013444D01*
X005801Y013377D02*
X005033Y013377D01*
X005033Y015409D02*
X005801Y015409D01*
X006597Y015413D02*
X007365Y015413D01*
X007365Y017381D02*
X006597Y017381D01*
X005801Y017377D02*
X005033Y017377D01*
X005033Y019409D02*
X005801Y019409D01*
X006597Y019389D02*
X007365Y019389D01*
X007365Y021358D02*
X006597Y021358D01*
X005801Y021377D02*
X005033Y021377D01*
X005033Y023409D02*
X005801Y023409D01*
X006597Y023326D02*
X007365Y023326D01*
X007365Y025295D02*
X006597Y025295D01*
X005801Y025377D02*
X005033Y025377D01*
X033435Y024174D02*
X034202Y024174D01*
X035083Y024377D02*
X035851Y024377D01*
X035851Y022409D02*
X035083Y022409D01*
X034202Y022205D02*
X033435Y022205D01*
X035083Y020377D02*
X035851Y020377D01*
X034202Y020237D02*
X033435Y020237D01*
X033435Y018268D02*
X034202Y018268D01*
X035083Y018409D02*
X035851Y018409D01*
X035851Y016377D02*
X035083Y016377D01*
X034203Y016318D02*
X033435Y016318D01*
X033435Y014350D02*
X034203Y014350D01*
X035083Y014409D02*
X035851Y014409D01*
X035851Y012377D02*
X035083Y012377D01*
X034202Y012363D02*
X033435Y012363D01*
X033435Y010394D02*
X034202Y010394D01*
X035083Y010409D02*
X035851Y010409D01*
X035203Y005390D02*
X034436Y005390D01*
X034207Y004791D02*
X033440Y004791D01*
X035083Y004377D02*
X035851Y004377D01*
X035203Y003126D02*
X034436Y003126D01*
X034207Y002822D02*
X033440Y002822D01*
X035083Y002409D02*
X035851Y002409D01*
D12*
X032717Y010393D03*
X029717Y010393D03*
X025717Y010393D03*
X025717Y013393D03*
X025717Y014393D03*
X029717Y014393D03*
X031717Y013393D03*
X032717Y014393D03*
X025717Y017393D03*
X025717Y018393D03*
X029717Y018393D03*
X032717Y018393D03*
X031717Y021393D03*
X032717Y022393D03*
X029717Y022393D03*
X025717Y022393D03*
X025717Y021393D03*
X025717Y025393D03*
X015217Y025643D03*
X011217Y025643D03*
X008217Y025643D03*
X009217Y022643D03*
X008217Y021643D03*
X011217Y021643D03*
X015217Y021643D03*
X015217Y022643D03*
X015217Y018643D03*
X015217Y017643D03*
X011217Y017643D03*
X008217Y017643D03*
X009217Y014643D03*
X008217Y013643D03*
X011217Y013643D03*
X015217Y013643D03*
X015217Y014643D03*
X015217Y010643D03*
D13*
X016467Y010616D02*
X016467Y011170D01*
X017467Y011170D02*
X017467Y010616D01*
X018467Y010616D02*
X018467Y011170D01*
X019467Y011170D02*
X019467Y010616D01*
X020467Y010616D02*
X020467Y011170D01*
X021467Y011170D02*
X021467Y010616D01*
X022467Y010616D02*
X022467Y011170D01*
X023467Y011170D02*
X023467Y010616D01*
X024467Y010616D02*
X024467Y011170D01*
X024467Y009795D02*
X024467Y009241D01*
X023467Y009241D02*
X023467Y009795D01*
X022467Y009795D02*
X022467Y009241D01*
X021467Y009241D02*
X021467Y009795D01*
X020467Y009795D02*
X020467Y009241D01*
X019467Y009241D02*
X019467Y009795D01*
X018467Y009795D02*
X018467Y009241D01*
X017467Y009241D02*
X017467Y009795D01*
X016467Y009795D02*
X016467Y009241D01*
X015467Y009241D02*
X015467Y009795D01*
X015467Y006795D02*
X015467Y006241D01*
X016467Y006241D02*
X016467Y006795D01*
X017467Y006795D02*
X017467Y006241D01*
X018467Y006241D02*
X018467Y006795D01*
X019467Y006795D02*
X019467Y006241D01*
X020467Y006241D02*
X020467Y006795D01*
X021467Y006795D02*
X021467Y006241D01*
X022467Y006241D02*
X022467Y006795D01*
X023467Y006795D02*
X023467Y006241D01*
X024467Y006241D02*
X024467Y006795D01*
X024467Y013616D02*
X024467Y014170D01*
X023467Y014170D02*
X023467Y013616D01*
X022467Y013616D02*
X022467Y014170D01*
X021467Y014170D02*
X021467Y013616D01*
X020467Y013616D02*
X020467Y014170D01*
X019467Y014170D02*
X019467Y013616D01*
X018467Y013616D02*
X018467Y014170D01*
X017467Y014170D02*
X017467Y013616D01*
X016467Y013616D02*
X016467Y014170D01*
D14*
X006994Y008283D02*
X006400Y008283D01*
X004434Y008283D02*
X003840Y008283D01*
X003840Y006503D02*
X004434Y006503D01*
X006400Y006503D02*
X006994Y006503D01*
X010242Y006846D02*
X010242Y007440D01*
X011242Y007440D02*
X011242Y006846D01*
X012242Y006846D02*
X012242Y007440D01*
D15*
X013267Y005968D03*
X009267Y005968D03*
X005417Y004893D03*
D16*
X005417Y005893D03*
D17*
X012405Y003456D03*
D18*
X010405Y003456D03*
D19*
X030842Y004139D03*
X030848Y002896D03*
D20*
X024717Y003643D03*
X023717Y003643D03*
X022717Y003643D03*
X021717Y003643D03*
X020717Y003643D03*
X019717Y003643D03*
X018717Y003643D03*
X017717Y003643D03*
X016717Y003643D03*
X015717Y003643D03*
X015717Y004643D03*
X016717Y004643D03*
X017717Y004643D03*
X018717Y004643D03*
X019717Y004643D03*
X020717Y004643D03*
X021717Y004643D03*
X022717Y004643D03*
X023717Y004643D03*
X024717Y004643D03*
X014330Y006506D03*
X014330Y008506D03*
D21*
X008380Y007643D03*
X008380Y003643D03*
D22*
X008030Y011456D03*
X010967Y012831D03*
X008030Y015706D03*
X010655Y017081D03*
X008092Y019393D03*
X010967Y020893D03*
X008092Y023706D03*
X010655Y025081D03*
X029967Y023143D03*
X032717Y024206D03*
X032717Y020081D03*
X030280Y018956D03*
X032717Y016331D03*
X029967Y015143D03*
X032717Y012143D03*
X030280Y010956D03*
D23*
X027842Y005581D03*
X030217Y004768D03*
X031467Y004768D03*
X031592Y002893D03*
X009280Y005081D03*
D24*
X027842Y002893D03*
M02*
