%
M48
M72
T01C0.0315
T02C0.0354
T03C0.0394
T04C0.0433
T05C0.0472
T06C0.0512
T07C0.1102
%
T01
X9655Y5290
X8030Y11415
X10967Y12790
X8030Y15665
X10655Y17040
X8092Y19353
X10967Y20853
X8092Y23665
X10655Y25040
X29967Y23103
X32717Y24165
X32717Y20040
X30280Y18915
X32717Y16290
X29967Y15103
X30280Y10915
X27842Y5540
X30217Y4728
X31467Y4728
X31592Y2853
T02
X24467Y6478
X23467Y6478
X22467Y6478
X21467Y6478
X20467Y6478
X19467Y6478
X18467Y6478
X17467Y6478
X16467Y6478
X15467Y6478
X14342Y6353
X10342Y6353
X5467Y5853
X5467Y4853
X15467Y9478
X16467Y9478
X17467Y9478
X18467Y9478
X19467Y9478
X20467Y9478
X21467Y9478
X22467Y9478
X23467Y9478
X24467Y9478
X24467Y10853
X23467Y10853
X22467Y10853
X21467Y10853
X20467Y10853
X19467Y10853
X18467Y10853
X17467Y10853
X16467Y10853
X16467Y13853
X17467Y13853
X18467Y13853
X19467Y13853
X20467Y13853
X21467Y13853
X22467Y13853
X23467Y13853
X24467Y13853
T03
X14280Y9165
X12780Y7603
X11780Y7603
X10780Y7603
X14280Y7165
X15717Y4603
X16717Y4603
X17717Y4603
X18717Y4603
X19717Y4603
X20717Y4603
X21717Y4603
X22717Y4603
X23717Y4603
X24717Y4603
X24717Y3603
X23717Y3603
X22717Y3603
X21717Y3603
X20717Y3603
X19717Y3603
X18717Y3603
X17717Y3603
X16717Y3603
X15717Y3603
X6747Y6463
X6747Y8243
X4187Y8243
X4187Y6463
T04
X10405Y3415
X12405Y3415
T05
X8780Y3603
X8780Y7603
T06
X5417Y1369
X6938Y1349
X6938Y3317
X5417Y3337
X15217Y10603
X15217Y13603
X15217Y14603
X11217Y13603
X9217Y14603
X8217Y13603
X6981Y13404
X5417Y13337
X5417Y11369
X6981Y11435
X6981Y15372
X5417Y15369
X5417Y17337
X6981Y17341
X8217Y17603
X6981Y19349
X5417Y19369
X5417Y21337
X6981Y21317
X8217Y21603
X9217Y22603
X11217Y21603
X15217Y21603
X15217Y22603
X15217Y25603
X11217Y25603
X8217Y25603
X6981Y25254
X5417Y25337
X5417Y23369
X6981Y23286
X15217Y18603
X15217Y17603
X11217Y17603
X25717Y17353
X25717Y18353
X29717Y18353
X32717Y18353
X33818Y18228
X35467Y18369
X35467Y16337
X33819Y16278
X33819Y14309
X32717Y14353
X31717Y13353
X29717Y14353
X25717Y14353
X25717Y13353
X25717Y10353
X29717Y10353
X32717Y10353
X33818Y10354
X35467Y10369
X35467Y12337
X33818Y12322
X35467Y14369
X33818Y20196
X35467Y20337
X33818Y22165
X32717Y22353
X31717Y21353
X29717Y22353
X25717Y22353
X25717Y21353
X25717Y25353
X33818Y24133
X35467Y24337
X35467Y22369
X34820Y5350
X33823Y4750
X35467Y4337
X34820Y3086
X35467Y2369
X33823Y2782
T07
X20317Y1603
X14817Y1603
X20317Y25103
M30
