%
M48
M72
T01C0.0197
T02C0.0315
T03C0.0354
T04C0.0394
T05C0.0433
T06C0.0472
T07C0.0512
T08C0.1102
%
T01
X8030Y11456
X10967Y12831
X8030Y15706
X10655Y17081
X8092Y19393
X10967Y20893
X8092Y23706
X10655Y25081
X29967Y23143
X32717Y24206
X32717Y20081
X30280Y18956
X32717Y16331
X29967Y15143
X32717Y12143
X30280Y10956
T02
X27842Y5581
X30217Y4768
X31467Y4768
X31592Y2893
X9280Y5081
T03
X9267Y5968
X5417Y5893
X5417Y4893
X13267Y5968
X15467Y6518
X16467Y6518
X17467Y6518
X18467Y6518
X19467Y6518
X20467Y6518
X21467Y6518
X22467Y6518
X23467Y6518
X24467Y6518
X24467Y9518
X23467Y9518
X22467Y9518
X21467Y9518
X20467Y9518
X19467Y9518
X18467Y9518
X17467Y9518
X16467Y9518
X15467Y9518
X16467Y10893
X17467Y10893
X18467Y10893
X19467Y10893
X20467Y10893
X21467Y10893
X22467Y10893
X23467Y10893
X24467Y10893
X24467Y13893
X23467Y13893
X22467Y13893
X21467Y13893
X20467Y13893
X19467Y13893
X18467Y13893
X17467Y13893
X16467Y13893
T04
X14330Y8506
X12242Y7143
X11242Y7143
X10242Y7143
X6697Y6503
X4137Y6503
X4137Y8283
X6697Y8283
X14330Y6506
X15717Y4643
X16717Y4643
X17717Y4643
X18717Y4643
X19717Y4643
X20717Y4643
X21717Y4643
X22717Y4643
X23717Y4643
X24717Y4643
X24717Y3643
X23717Y3643
X22717Y3643
X21717Y3643
X20717Y3643
X19717Y3643
X18717Y3643
X17717Y3643
X16717Y3643
X15717Y3643
T05
X12405Y3456
X10405Y3456
T06
X8380Y3643
X8380Y7643
T07
X5417Y1409
X6938Y1389
X6938Y3358
X5417Y3377
X15217Y10643
X15217Y13643
X15217Y14643
X11217Y13643
X9217Y14643
X8217Y13643
X6981Y13444
X5417Y13377
X5417Y15409
X6981Y15413
X6981Y17381
X5417Y17377
X8217Y17643
X11217Y17643
X15217Y17643
X15217Y18643
X15217Y21643
X15217Y22643
X11217Y21643
X9217Y22643
X8217Y21643
X6981Y21358
X5417Y21377
X5417Y19409
X6981Y19389
X6981Y23326
X5417Y23409
X5417Y25377
X6981Y25295
X8217Y25643
X11217Y25643
X15217Y25643
X25717Y25393
X25717Y22393
X25717Y21393
X29717Y22393
X31717Y21393
X32717Y22393
X33818Y22205
X35467Y22409
X35467Y20377
X33818Y20237
X33818Y18268
X32717Y18393
X35467Y18409
X35467Y16377
X33819Y16318
X33819Y14350
X32717Y14393
X31717Y13393
X29717Y14393
X25717Y14393
X25717Y13393
X25717Y10393
X29717Y10393
X32717Y10393
X33818Y10394
X35467Y10409
X35467Y12377
X33818Y12363
X35467Y14409
X29717Y18393
X25717Y18393
X25717Y17393
X33818Y24174
X35467Y24377
X6981Y11476
X5417Y11409
X33823Y4791
X35467Y4377
X34820Y5390
X34820Y3126
X33823Y2822
X35467Y2409
T08
X20317Y1643
X14617Y1643
X20317Y25143
M30
