G75*
G70*
%OFA0B0*%
%FSLAX24Y24*%
%IPPOS*%
%LPD*%
%AMOC8*
5,1,8,0,0,1.08239X$1,22.5*
%
%ADD10C,0.0110*%
%ADD11C,0.0768*%
%ADD12C,0.0768*%
%ADD13C,0.0554*%
%ADD14C,0.0594*%
%ADD15OC8,0.0554*%
%ADD16C,0.0554*%
%ADD17C,0.1000*%
%ADD18OC8,0.1000*%
%ADD19OC8,0.0594*%
%ADD20C,0.0709*%
%ADD21C,0.0760*%
%ADD22OC8,0.0475*%
%ADD23C,0.0700*%
%ADD24C,0.0160*%
%ADD25C,0.0400*%
%ADD26C,0.0240*%
%ADD27C,0.0320*%
%ADD28C,0.0560*%
%ADD29C,0.0500*%
D10*
X017552Y024812D02*
X017847Y024812D01*
X017945Y024910D01*
X017945Y025009D01*
X017847Y025107D01*
X017552Y025107D01*
X017847Y025107D02*
X017945Y025205D01*
X017945Y025304D01*
X017847Y025402D01*
X017552Y025402D01*
X017552Y024812D01*
X018196Y024910D02*
X018196Y025304D01*
X018295Y025402D01*
X018491Y025402D01*
X018590Y025304D01*
X018590Y024910D01*
X018491Y024812D01*
X018295Y024812D01*
X018196Y024910D01*
X018841Y025402D02*
X019234Y025402D01*
X019038Y025402D02*
X019038Y024812D01*
D11*
X007878Y024133D02*
X007110Y024133D01*
X006480Y024353D02*
X005712Y024353D01*
X005712Y022353D02*
X006480Y022353D01*
X007110Y022165D02*
X007878Y022165D01*
X006480Y020353D02*
X005712Y020353D01*
X007110Y020196D02*
X007878Y020196D01*
X007878Y018228D02*
X007110Y018228D01*
X006480Y018353D02*
X005712Y018353D01*
X005712Y016353D02*
X006480Y016353D01*
X007110Y016278D02*
X007878Y016278D01*
X007878Y014309D02*
X007110Y014309D01*
X006480Y014353D02*
X005712Y014353D01*
X005712Y012353D02*
X006480Y012353D01*
X007110Y012322D02*
X007878Y012322D01*
X007878Y010354D02*
X007110Y010354D01*
X006480Y010353D02*
X005712Y010353D01*
X006109Y005350D02*
X006877Y005350D01*
X007106Y004750D02*
X007873Y004750D01*
X006480Y004353D02*
X005712Y004353D01*
X006109Y003086D02*
X006877Y003086D01*
X007106Y002782D02*
X007873Y002782D01*
X006480Y002353D02*
X005712Y002353D01*
X033991Y003317D02*
X034759Y003317D01*
X035262Y003353D02*
X036030Y003353D01*
X036030Y001353D02*
X035262Y001353D01*
X034759Y001349D02*
X033991Y001349D01*
X035262Y011353D02*
X036030Y011353D01*
X034716Y011435D02*
X033948Y011435D01*
X035262Y013353D02*
X036030Y013353D01*
X034716Y013404D02*
X033948Y013404D01*
X033948Y015372D02*
X034716Y015372D01*
X035262Y015353D02*
X036030Y015353D01*
X036030Y017353D02*
X035262Y017353D01*
X034716Y017341D02*
X033948Y017341D01*
X033948Y019349D02*
X034716Y019349D01*
X035262Y019353D02*
X036030Y019353D01*
X036030Y021353D02*
X035262Y021353D01*
X034716Y021317D02*
X033948Y021317D01*
X033948Y023286D02*
X034716Y023286D01*
X035262Y023353D02*
X036030Y023353D01*
X036030Y025353D02*
X035262Y025353D01*
X034716Y025254D02*
X033948Y025254D01*
D12*
X033096Y025603D03*
X030096Y025603D03*
X026096Y025603D03*
X026096Y022603D03*
X026096Y021603D03*
X030096Y021603D03*
X032096Y022603D03*
X033096Y021603D03*
X033096Y017603D03*
X030096Y017603D03*
X026096Y017603D03*
X026096Y018603D03*
X026096Y014603D03*
X026096Y013603D03*
X030096Y013603D03*
X032096Y014603D03*
X033096Y013603D03*
X026096Y010603D03*
X015596Y010353D03*
X011596Y010353D03*
X008596Y010353D03*
X009596Y013353D03*
X008596Y014353D03*
X011596Y014353D03*
X015596Y014353D03*
X015596Y013353D03*
X015596Y017353D03*
X015596Y018353D03*
X011596Y018353D03*
X008596Y018353D03*
X009596Y021353D03*
X008596Y022353D03*
X011596Y022353D03*
X015596Y022353D03*
X015596Y021353D03*
X015596Y025353D03*
D13*
X016846Y014130D02*
X016846Y013576D01*
X017846Y013576D02*
X017846Y014130D01*
X018846Y014130D02*
X018846Y013576D01*
X019846Y013576D02*
X019846Y014130D01*
X020846Y014130D02*
X020846Y013576D01*
X021846Y013576D02*
X021846Y014130D01*
X022846Y014130D02*
X022846Y013576D01*
X023846Y013576D02*
X023846Y014130D01*
X024846Y014130D02*
X024846Y013576D01*
X024846Y011130D02*
X024846Y010576D01*
X024846Y009755D02*
X024846Y009201D01*
X025846Y009201D02*
X025846Y009755D01*
X023846Y009755D02*
X023846Y009201D01*
X022846Y009201D02*
X022846Y009755D01*
X022846Y010576D02*
X022846Y011130D01*
X023846Y011130D02*
X023846Y010576D01*
X021846Y010576D02*
X021846Y011130D01*
X020846Y011130D02*
X020846Y010576D01*
X019846Y010576D02*
X019846Y011130D01*
X018846Y011130D02*
X018846Y010576D01*
X017846Y010576D02*
X017846Y011130D01*
X016846Y011130D02*
X016846Y010576D01*
X016846Y009755D02*
X016846Y009201D01*
X017846Y009201D02*
X017846Y009755D01*
X018846Y009755D02*
X018846Y009201D01*
X019846Y009201D02*
X019846Y009755D01*
X020846Y009755D02*
X020846Y009201D01*
X021846Y009201D02*
X021846Y009755D01*
X021846Y006755D02*
X021846Y006201D01*
X020846Y006201D02*
X020846Y006755D01*
X019846Y006755D02*
X019846Y006201D01*
X018846Y006201D02*
X018846Y006755D01*
X017846Y006755D02*
X017846Y006201D01*
X016846Y006201D02*
X016846Y006755D01*
X022846Y006755D02*
X022846Y006201D01*
X023846Y006201D02*
X023846Y006755D01*
X024846Y006755D02*
X024846Y006201D01*
X025846Y006201D02*
X025846Y006755D01*
D14*
X028533Y007306D02*
X028533Y007900D01*
X029533Y007900D02*
X029533Y007306D01*
X030533Y007306D02*
X030533Y007900D01*
X034269Y008243D02*
X034863Y008243D01*
X036829Y008243D02*
X037423Y008243D01*
X037423Y006463D02*
X036829Y006463D01*
X034863Y006463D02*
X034269Y006463D01*
D15*
X035846Y004853D03*
X030971Y006353D03*
X026971Y006353D03*
D16*
X035846Y005853D03*
D17*
X028908Y003415D03*
D18*
X030908Y003415D03*
D19*
X025596Y003603D03*
X024596Y003603D03*
X023596Y003603D03*
X022596Y003603D03*
X021596Y003603D03*
X020596Y003603D03*
X019596Y003603D03*
X018596Y003603D03*
X017596Y003603D03*
X016596Y003603D03*
X016596Y004603D03*
X017596Y004603D03*
X018596Y004603D03*
X019596Y004603D03*
X020596Y004603D03*
X021596Y004603D03*
X022596Y004603D03*
X023596Y004603D03*
X024596Y004603D03*
X025596Y004603D03*
X027033Y007165D03*
X027033Y009165D03*
D20*
X032533Y007603D03*
X032533Y003603D03*
D21*
X031701Y011435D02*
X034332Y011435D01*
X034700Y011435D01*
X034783Y011353D01*
X035646Y011353D01*
X035646Y013353D02*
X034783Y013353D01*
X034732Y013404D01*
X034332Y013404D01*
X033294Y013404D01*
X033096Y013603D01*
X032096Y014603D01*
X032533Y016165D02*
X033721Y015415D01*
X034283Y015415D01*
X034332Y015367D01*
X034332Y015372D01*
X035576Y015372D01*
X034346Y015353D02*
X034332Y015367D01*
X032533Y016165D02*
X031533Y016165D01*
X030658Y017040D01*
X030096Y017603D01*
X031846Y019353D02*
X033283Y019353D01*
X034346Y019353D01*
X034342Y019349D01*
X034332Y019349D01*
X034346Y019353D02*
X035646Y019353D01*
X035646Y021353D02*
X034346Y021353D01*
X034332Y021339D01*
X033359Y021339D01*
X033096Y021603D01*
X032096Y022603D01*
X032533Y024165D02*
X033721Y023290D01*
X033783Y023290D01*
X033783Y023286D01*
X033725Y023286D01*
X033783Y023286D02*
X034332Y023286D01*
X035154Y023286D01*
X035221Y023353D01*
X035646Y023353D01*
X035646Y025353D02*
X034846Y025353D01*
X034747Y025254D01*
X034332Y025254D01*
X033944Y025254D01*
X033596Y025603D01*
X033096Y025603D01*
X032533Y024165D02*
X031533Y024165D01*
X030658Y025040D01*
X030096Y025603D01*
X030096Y021603D02*
X030096Y021103D01*
X031846Y019353D01*
X033096Y017603D02*
X033658Y017603D01*
X033920Y017341D01*
X034332Y017341D01*
X035584Y017341D01*
X030096Y013603D02*
X030096Y013040D01*
X031701Y011435D01*
X034332Y021317D02*
X034332Y021339D01*
X011596Y022353D02*
X011596Y022853D01*
X010283Y024165D01*
X008596Y024165D01*
X007526Y024165D01*
X007494Y024133D01*
X007128Y024133D01*
X006971Y024290D01*
X006971Y024290D01*
X006908Y024353D01*
X006096Y024353D01*
X006096Y022353D02*
X006971Y022353D01*
X007159Y022165D01*
X007494Y022165D01*
X007495Y022165D01*
X008408Y022165D01*
X008596Y022353D01*
X009596Y021353D01*
X009221Y019790D02*
X008158Y020165D01*
X007471Y020165D01*
X007494Y020189D01*
X007494Y020196D01*
X007127Y020196D01*
X006971Y020353D01*
X006096Y020353D01*
X006096Y018353D02*
X006971Y018353D01*
X007096Y018228D01*
X007494Y018228D01*
X008408Y018228D01*
X008533Y018353D01*
X008596Y018353D01*
X007494Y018228D02*
X007471Y018228D01*
X009221Y019790D02*
X010158Y019790D01*
X011033Y018915D01*
X011596Y018353D01*
X010158Y016290D02*
X008596Y016290D01*
X007533Y016290D01*
X007521Y016278D01*
X007494Y016278D01*
X007481Y016290D01*
X007096Y016290D01*
X007033Y016353D01*
X006096Y016353D01*
X006096Y014353D02*
X007033Y014353D01*
X007076Y014309D01*
X007494Y014309D01*
X007490Y014309D01*
X007533Y014353D01*
X008596Y014353D01*
X009596Y013353D01*
X009221Y011790D02*
X008162Y012236D01*
X008033Y012290D01*
X007533Y012290D01*
X007501Y012322D01*
X007494Y012322D01*
X007464Y012353D01*
X006096Y012353D01*
X007471Y014290D02*
X007490Y014309D01*
X010158Y016290D02*
X011346Y015103D01*
X011596Y014853D01*
X011596Y014353D01*
X010158Y011790D02*
X009221Y011790D01*
X010158Y011790D02*
X011033Y010915D01*
X011596Y010353D01*
X008596Y010353D02*
X007471Y010353D01*
X007472Y010354D01*
X007494Y010354D01*
X006097Y010354D01*
X006096Y010353D01*
D22*
X008533Y012040D03*
X011033Y010915D03*
X011346Y015103D03*
X008596Y016290D03*
X011033Y018915D03*
X008596Y020040D03*
X011346Y023103D03*
X008596Y024165D03*
X030346Y020853D03*
X033283Y019353D03*
X030658Y017040D03*
X033283Y015665D03*
X030346Y012790D03*
X033283Y011415D03*
X031658Y005290D03*
X013471Y005540D03*
X011096Y004728D03*
X009846Y004728D03*
X009721Y002853D03*
X033283Y023603D03*
X030658Y025040D03*
D23*
X033283Y023603D02*
X033783Y023290D01*
X033283Y015665D02*
X033721Y015415D01*
X008533Y012040D02*
X008158Y012228D01*
X008162Y012236D01*
X008596Y020040D02*
X008158Y020165D01*
D24*
X005551Y001635D02*
X004346Y001635D01*
X004346Y005978D01*
X015096Y005978D01*
X015120Y010002D01*
X015265Y009858D01*
X015480Y009769D01*
X015712Y009769D01*
X015926Y009858D01*
X016091Y010022D01*
X016180Y010237D01*
X016180Y010469D01*
X016091Y010683D01*
X015926Y010848D01*
X015712Y010937D01*
X015480Y010937D01*
X015265Y010848D01*
X015125Y010707D01*
X015139Y012984D01*
X015265Y012858D01*
X015480Y012769D01*
X015712Y012769D01*
X015723Y012773D01*
X015789Y012706D01*
X015907Y012658D01*
X017532Y012658D01*
X017659Y012658D01*
X017777Y012706D01*
X018027Y012956D01*
X018027Y012956D01*
X018117Y013046D01*
X018166Y013164D01*
X018166Y013221D01*
X018250Y013305D01*
X018323Y013481D01*
X018323Y014225D01*
X018250Y014400D01*
X018116Y014534D01*
X017941Y014607D01*
X017751Y014607D01*
X017575Y014534D01*
X017441Y014400D01*
X017369Y014225D01*
X017369Y013481D01*
X017441Y013305D01*
X017449Y013298D01*
X017243Y013298D01*
X017250Y013305D01*
X017323Y013481D01*
X017323Y014225D01*
X017250Y014400D01*
X017116Y014534D01*
X016941Y014607D01*
X016751Y014607D01*
X016575Y014534D01*
X016441Y014400D01*
X016369Y014225D01*
X016369Y013481D01*
X016441Y013305D01*
X016449Y013298D01*
X016180Y013298D01*
X016180Y013469D01*
X016091Y013683D01*
X015926Y013848D01*
X015914Y013853D01*
X015926Y013858D01*
X016091Y014022D01*
X016180Y014237D01*
X016180Y014469D01*
X016091Y014683D01*
X015926Y014848D01*
X015712Y014937D01*
X015480Y014937D01*
X015265Y014848D01*
X015149Y014732D01*
X015163Y016960D01*
X015265Y016858D01*
X015480Y016769D01*
X015712Y016769D01*
X015926Y016858D01*
X016091Y017022D01*
X016095Y017033D01*
X016338Y017033D01*
X018526Y014845D01*
X018526Y014485D01*
X018441Y014400D01*
X018369Y014225D01*
X018369Y013481D01*
X018441Y013305D01*
X018575Y013171D01*
X018751Y013098D01*
X018941Y013098D01*
X019116Y013171D01*
X019250Y013305D01*
X019323Y013481D01*
X019323Y014225D01*
X019250Y014400D01*
X019166Y014485D01*
X019166Y014914D01*
X019166Y015041D01*
X019117Y015159D01*
X016742Y017534D01*
X016652Y017624D01*
X016534Y017673D01*
X016095Y017673D01*
X016091Y017683D01*
X015926Y017848D01*
X015914Y017853D01*
X015926Y017858D01*
X016091Y018022D01*
X016180Y018237D01*
X016180Y018469D01*
X016091Y018683D01*
X015926Y018848D01*
X015712Y018937D01*
X015480Y018937D01*
X015265Y018848D01*
X015174Y018757D01*
X015187Y020935D01*
X015265Y020858D01*
X015480Y020769D01*
X015712Y020769D01*
X015926Y020858D01*
X016091Y021022D01*
X016095Y021033D01*
X016338Y021033D01*
X019526Y017845D01*
X019526Y014485D01*
X019441Y014400D01*
X019369Y014225D01*
X019369Y013481D01*
X019441Y013305D01*
X019575Y013171D01*
X019751Y013098D01*
X019941Y013098D01*
X020116Y013171D01*
X020250Y013305D01*
X020323Y013481D01*
X020323Y014225D01*
X020250Y014400D01*
X020166Y014485D01*
X020166Y017914D01*
X020166Y018041D01*
X020117Y018159D01*
X016742Y021534D01*
X016652Y021624D01*
X016534Y021673D01*
X016095Y021673D01*
X016091Y021683D01*
X015926Y021848D01*
X015914Y021853D01*
X015926Y021858D01*
X016091Y022022D01*
X016095Y022033D01*
X016463Y022033D01*
X020526Y017970D01*
X020526Y014485D01*
X020441Y014400D01*
X020369Y014225D01*
X020369Y013481D01*
X020441Y013305D01*
X020575Y013171D01*
X020751Y013098D01*
X020941Y013098D01*
X021116Y013171D01*
X021250Y013305D01*
X021323Y013481D01*
X021323Y014225D01*
X021250Y014400D01*
X021166Y014485D01*
X021166Y018039D01*
X021166Y018166D01*
X021117Y018284D01*
X016867Y022534D01*
X016777Y022624D01*
X016659Y022673D01*
X016095Y022673D01*
X016091Y022683D01*
X015926Y022848D01*
X015712Y022937D01*
X015480Y022937D01*
X015265Y022848D01*
X015199Y022781D01*
X015212Y024911D01*
X015265Y024858D01*
X015480Y024769D01*
X015712Y024769D01*
X015926Y024858D01*
X016091Y025022D01*
X016180Y025237D01*
X016180Y025469D01*
X016091Y025683D01*
X015926Y025848D01*
X015712Y025937D01*
X015480Y025937D01*
X015265Y025848D01*
X015217Y025800D01*
X015221Y026322D01*
X026471Y026321D01*
X026471Y026053D01*
X026426Y026098D01*
X026212Y026187D01*
X025980Y026187D01*
X025765Y026098D01*
X025601Y025933D01*
X025512Y025719D01*
X025512Y025487D01*
X025601Y025272D01*
X025765Y025108D01*
X025980Y025019D01*
X026212Y025019D01*
X026426Y025108D01*
X026471Y025152D01*
X026471Y023053D01*
X026426Y023098D01*
X026212Y023187D01*
X025980Y023187D01*
X025765Y023098D01*
X025601Y022933D01*
X025596Y022923D01*
X025032Y022923D01*
X024914Y022874D01*
X024824Y022784D01*
X021574Y019534D01*
X021526Y019416D01*
X021526Y019289D01*
X021526Y014485D01*
X021441Y014400D01*
X021369Y014225D01*
X021369Y013481D01*
X021441Y013305D01*
X021575Y013171D01*
X021751Y013098D01*
X021941Y013098D01*
X022116Y013171D01*
X022250Y013305D01*
X022323Y013481D01*
X022323Y014225D01*
X022250Y014400D01*
X022166Y014485D01*
X022166Y019220D01*
X025228Y022283D01*
X025596Y022283D01*
X025601Y022272D01*
X025765Y022108D01*
X025777Y022103D01*
X025765Y022098D01*
X025601Y021933D01*
X025512Y021719D01*
X025512Y021487D01*
X025601Y021272D01*
X025765Y021108D01*
X025980Y021019D01*
X026212Y021019D01*
X026426Y021108D01*
X026471Y021152D01*
X026471Y019053D01*
X026426Y019098D01*
X026212Y019187D01*
X025980Y019187D01*
X025765Y019098D01*
X025601Y018933D01*
X025512Y018719D01*
X025512Y018487D01*
X025601Y018272D01*
X025765Y018108D01*
X025777Y018103D01*
X025765Y018098D01*
X025601Y017933D01*
X025512Y017719D01*
X025512Y017487D01*
X025601Y017272D01*
X025765Y017108D01*
X025980Y017019D01*
X026212Y017019D01*
X026426Y017108D01*
X026471Y017152D01*
X026471Y015053D01*
X026426Y015098D01*
X026212Y015187D01*
X025980Y015187D01*
X025969Y015182D01*
X025527Y015624D01*
X025409Y015673D01*
X025282Y015673D01*
X024157Y015673D01*
X024039Y015624D01*
X023949Y015534D01*
X023574Y015159D01*
X023526Y015041D01*
X023526Y014914D01*
X023526Y014485D01*
X023441Y014400D01*
X023369Y014225D01*
X023369Y013481D01*
X023441Y013305D01*
X023575Y013171D01*
X023751Y013098D01*
X023941Y013098D01*
X024116Y013171D01*
X024250Y013305D01*
X024323Y013481D01*
X024323Y014225D01*
X024250Y014400D01*
X024166Y014485D01*
X024166Y014845D01*
X024353Y015033D01*
X025213Y015033D01*
X025516Y014730D01*
X025512Y014719D01*
X025512Y014487D01*
X025601Y014272D01*
X025765Y014108D01*
X025777Y014103D01*
X025765Y014098D01*
X025601Y013933D01*
X025512Y013719D01*
X025512Y013487D01*
X025601Y013272D01*
X025765Y013108D01*
X025980Y013019D01*
X026212Y013019D01*
X026426Y013108D01*
X026471Y013152D01*
X026471Y011053D01*
X026426Y011098D01*
X026416Y011102D01*
X026416Y011914D01*
X026416Y012041D01*
X026367Y012159D01*
X025235Y013291D01*
X025250Y013305D01*
X025323Y013481D01*
X025323Y014225D01*
X025250Y014400D01*
X025116Y014534D01*
X024941Y014607D01*
X024751Y014607D01*
X024575Y014534D01*
X024441Y014400D01*
X024369Y014225D01*
X024369Y013481D01*
X024441Y013305D01*
X024526Y013221D01*
X024526Y013164D01*
X024574Y013046D01*
X024664Y012956D01*
X025776Y011845D01*
X025776Y011102D01*
X025765Y011098D01*
X025601Y010933D01*
X025512Y010719D01*
X025512Y010487D01*
X025601Y010272D01*
X025673Y010200D01*
X025575Y010159D01*
X025441Y010025D01*
X025369Y009850D01*
X025369Y009106D01*
X025441Y008930D01*
X025575Y008796D01*
X025751Y008723D01*
X025941Y008723D01*
X026116Y008796D01*
X026250Y008930D01*
X026323Y009106D01*
X026323Y009158D01*
X026536Y009158D01*
X026536Y008959D01*
X026581Y008915D01*
X026276Y008610D01*
X017219Y008610D01*
X017102Y008562D01*
X017012Y008472D01*
X017012Y008471D01*
X016102Y007561D01*
X016102Y007561D01*
X016012Y007471D01*
X015963Y007354D01*
X015963Y007354D01*
X015963Y007227D01*
X015963Y005852D01*
X016012Y005734D01*
X016102Y005644D01*
X016646Y005100D01*
X016390Y005100D01*
X016293Y005003D01*
X016136Y005003D01*
X016072Y005067D01*
X015925Y005128D01*
X015766Y005128D01*
X011371Y005128D01*
X011293Y005205D01*
X010898Y005205D01*
X010618Y004926D01*
X010618Y004530D01*
X010898Y004250D01*
X011293Y004250D01*
X011371Y004328D01*
X015680Y004328D01*
X015744Y004264D01*
X015891Y004203D01*
X016293Y004203D01*
X016390Y004106D01*
X016801Y004106D01*
X016846Y004150D01*
X016914Y004081D01*
X017143Y003853D01*
X017099Y003809D01*
X017099Y003397D01*
X017276Y003220D01*
X017276Y003166D01*
X017276Y003039D01*
X017324Y002921D01*
X017949Y002296D01*
X018039Y002206D01*
X018157Y002158D01*
X020375Y002158D01*
X020291Y002074D01*
X020165Y001768D01*
X020165Y001437D01*
X020291Y001132D01*
X020525Y000898D01*
X020830Y000772D01*
X021161Y000772D01*
X021466Y000898D01*
X021700Y001132D01*
X021827Y001437D01*
X021827Y001768D01*
X021700Y002074D01*
X021616Y002158D01*
X025875Y002158D01*
X025791Y002074D01*
X025665Y001768D01*
X025665Y001437D01*
X025791Y001132D01*
X026025Y000898D01*
X026330Y000772D01*
X026661Y000772D01*
X026966Y000898D01*
X027200Y001132D01*
X027327Y001437D01*
X027327Y001768D01*
X027217Y002033D01*
X036659Y002033D01*
X036777Y002081D01*
X036867Y002171D01*
X036867Y002171D01*
X037402Y002706D01*
X037492Y002796D01*
X037541Y002914D01*
X037541Y005289D01*
X037541Y005416D01*
X037492Y005534D01*
X037040Y005986D01*
X037107Y005986D01*
X037107Y006444D01*
X037107Y006481D01*
X036352Y006481D01*
X036352Y006558D01*
X036425Y006733D01*
X036559Y006867D01*
X036734Y006940D01*
X037107Y006940D01*
X037107Y006481D01*
X037144Y006481D01*
X037144Y006940D01*
X037517Y006940D01*
X037693Y006867D01*
X037751Y006809D01*
X037751Y007868D01*
X037704Y007822D01*
X037521Y007746D01*
X036730Y007746D01*
X036547Y007822D01*
X036486Y007883D01*
X036206Y007883D01*
X036206Y006173D01*
X036445Y006173D01*
X036425Y006193D01*
X036352Y006368D01*
X036352Y006444D01*
X037107Y006444D01*
X037144Y006444D01*
X037144Y005986D01*
X037517Y005986D01*
X037693Y006059D01*
X037751Y006117D01*
X037751Y000385D01*
X005846Y000383D01*
X005846Y001603D01*
X005628Y001603D01*
X005551Y001635D01*
X005584Y001621D02*
X020165Y001621D01*
X020165Y001463D02*
X005846Y001463D01*
X005846Y001304D02*
X020220Y001304D01*
X020285Y001145D02*
X005846Y001145D01*
X005846Y000987D02*
X020436Y000987D01*
X020693Y000828D02*
X005846Y000828D01*
X005846Y000670D02*
X037751Y000670D01*
X037751Y000828D02*
X036237Y000828D01*
X036142Y000789D02*
X036349Y000875D01*
X036508Y001033D01*
X036593Y001241D01*
X036593Y001305D01*
X035694Y001305D01*
X035694Y001401D01*
X036593Y001401D01*
X036593Y001465D01*
X036508Y001672D01*
X036349Y001831D01*
X036142Y001917D01*
X035694Y001917D01*
X035694Y001401D01*
X035598Y001401D01*
X035598Y001917D01*
X035150Y001917D01*
X035006Y001857D01*
X034871Y001913D01*
X034423Y001913D01*
X034423Y001397D01*
X034327Y001397D01*
X034327Y001913D01*
X033879Y001913D01*
X033672Y001827D01*
X033513Y001668D01*
X033428Y001461D01*
X033428Y001397D01*
X034327Y001397D01*
X034327Y001301D01*
X033428Y001301D01*
X033428Y001237D01*
X033513Y001029D01*
X033672Y000871D01*
X033879Y000785D01*
X034327Y000785D01*
X034327Y001301D01*
X034423Y001301D01*
X034423Y000785D01*
X034871Y000785D01*
X035015Y000845D01*
X035150Y000789D01*
X035598Y000789D01*
X035598Y001305D01*
X035694Y001305D01*
X035694Y000789D01*
X036142Y000789D01*
X036461Y000987D02*
X037751Y000987D01*
X037751Y001145D02*
X036554Y001145D01*
X036593Y001304D02*
X037751Y001304D01*
X037751Y001463D02*
X036593Y001463D01*
X036529Y001621D02*
X037751Y001621D01*
X037751Y001780D02*
X036400Y001780D01*
X036792Y002097D02*
X037751Y002097D01*
X037751Y002255D02*
X036951Y002255D01*
X037109Y002414D02*
X037751Y002414D01*
X037751Y002572D02*
X037268Y002572D01*
X037426Y002731D02*
X037751Y002731D01*
X037751Y002889D02*
X037531Y002889D01*
X037541Y003048D02*
X037751Y003048D01*
X037751Y003207D02*
X037541Y003207D01*
X037541Y003365D02*
X037751Y003365D01*
X037751Y003524D02*
X037541Y003524D01*
X037541Y003682D02*
X037751Y003682D01*
X037751Y003841D02*
X037541Y003841D01*
X037541Y003999D02*
X037751Y003999D01*
X037751Y004158D02*
X037541Y004158D01*
X037541Y004316D02*
X037751Y004316D01*
X037751Y004475D02*
X037541Y004475D01*
X037541Y004633D02*
X037751Y004633D01*
X037751Y004792D02*
X037541Y004792D01*
X037541Y004951D02*
X037751Y004951D01*
X037751Y005109D02*
X037541Y005109D01*
X037541Y005268D02*
X037751Y005268D01*
X037751Y005426D02*
X037537Y005426D01*
X037441Y005585D02*
X037751Y005585D01*
X037751Y005743D02*
X037283Y005743D01*
X037124Y005902D02*
X037751Y005902D01*
X037751Y006060D02*
X037694Y006060D01*
X037144Y006060D02*
X037107Y006060D01*
X037107Y006219D02*
X037144Y006219D01*
X037144Y006377D02*
X037107Y006377D01*
X037107Y006536D02*
X037144Y006536D01*
X037144Y006694D02*
X037107Y006694D01*
X037107Y006853D02*
X037144Y006853D01*
X036545Y006853D02*
X036206Y006853D01*
X036206Y006694D02*
X036409Y006694D01*
X036352Y006536D02*
X036206Y006536D01*
X036206Y006377D02*
X036352Y006377D01*
X036414Y006219D02*
X036206Y006219D01*
X035846Y005853D02*
X036721Y005853D01*
X037221Y005353D01*
X037221Y002978D01*
X036596Y002353D01*
X026471Y002353D01*
X026346Y002478D01*
X018221Y002478D01*
X017596Y003103D01*
X017596Y003603D01*
X017099Y003682D02*
X017073Y003682D01*
X017073Y003621D02*
X016614Y003621D01*
X016614Y003584D01*
X016577Y003584D01*
X016577Y003621D01*
X016119Y003621D01*
X016119Y003800D01*
X016398Y004080D01*
X016577Y004080D01*
X016577Y003621D01*
X016614Y003621D01*
X016614Y004080D01*
X016793Y004080D01*
X017073Y003800D01*
X017073Y003621D01*
X017073Y003584D02*
X017073Y003405D01*
X016793Y003126D01*
X016614Y003126D01*
X016614Y003584D01*
X017073Y003584D01*
X017073Y003524D02*
X017099Y003524D01*
X017131Y003365D02*
X017032Y003365D01*
X016874Y003207D02*
X017276Y003207D01*
X017276Y003048D02*
X008373Y003048D01*
X008351Y003101D02*
X008437Y002894D01*
X008437Y002830D01*
X007538Y002830D01*
X007538Y002734D01*
X008437Y002734D01*
X008437Y002670D01*
X008351Y002462D01*
X008193Y002304D01*
X007985Y002218D01*
X007537Y002218D01*
X007537Y002734D01*
X007441Y002734D01*
X007441Y002218D01*
X007034Y002218D01*
X006958Y002033D01*
X006799Y001875D01*
X006592Y001789D01*
X006144Y001789D01*
X006144Y002305D01*
X006048Y002305D01*
X006048Y001789D01*
X005600Y001789D01*
X005392Y001875D01*
X005234Y002033D01*
X005148Y002241D01*
X005148Y002305D01*
X006047Y002305D01*
X006047Y002401D01*
X005148Y002401D01*
X005148Y002465D01*
X005234Y002672D01*
X005392Y002831D01*
X005574Y002906D01*
X005546Y002974D01*
X005546Y003038D01*
X006445Y003038D01*
X006445Y003134D01*
X005546Y003134D01*
X005546Y003198D01*
X005631Y003405D01*
X005790Y003564D01*
X005997Y003650D01*
X006445Y003650D01*
X006445Y003134D01*
X006541Y003134D01*
X006541Y003650D01*
X006989Y003650D01*
X007196Y003564D01*
X007355Y003405D01*
X007380Y003346D01*
X007441Y003346D01*
X007441Y002830D01*
X007537Y002830D01*
X007537Y003346D01*
X007985Y003346D01*
X008193Y003260D01*
X008351Y003101D01*
X008246Y003207D02*
X016318Y003207D01*
X016398Y003126D02*
X016119Y003405D01*
X016119Y003584D01*
X016577Y003584D01*
X016577Y003126D01*
X016398Y003126D01*
X016577Y003207D02*
X016614Y003207D01*
X016614Y003365D02*
X016577Y003365D01*
X016577Y003524D02*
X016614Y003524D01*
X016614Y003682D02*
X016577Y003682D01*
X016577Y003841D02*
X016614Y003841D01*
X016614Y003999D02*
X016577Y003999D01*
X016318Y003999D02*
X006952Y003999D01*
X006974Y004022D02*
X006810Y003858D01*
X006596Y003769D01*
X005596Y003769D01*
X005381Y003858D01*
X005217Y004022D01*
X005128Y004237D01*
X005128Y004469D01*
X005217Y004683D01*
X005381Y004848D01*
X005596Y004937D01*
X005697Y004937D01*
X005614Y005019D01*
X005526Y005233D01*
X005526Y005466D01*
X005614Y005680D01*
X005779Y005845D01*
X005993Y005933D01*
X006993Y005933D01*
X007208Y005845D01*
X007372Y005680D01*
X007461Y005466D01*
X007461Y005334D01*
X007989Y005334D01*
X008204Y005245D01*
X008299Y005150D01*
X009593Y005150D01*
X009648Y005205D01*
X010043Y005205D01*
X010323Y004926D01*
X010323Y004530D01*
X010043Y004250D01*
X009648Y004250D01*
X009548Y004350D01*
X008299Y004350D01*
X008204Y004255D01*
X007989Y004167D01*
X007034Y004167D01*
X006974Y004022D01*
X007031Y004158D02*
X016338Y004158D01*
X016159Y003841D02*
X006769Y003841D01*
X006541Y003524D02*
X006445Y003524D01*
X006445Y003365D02*
X006541Y003365D01*
X006541Y003207D02*
X006445Y003207D01*
X006541Y003134D02*
X006660Y003134D01*
X006628Y003101D01*
X006601Y003038D01*
X006541Y003038D01*
X006445Y003038D01*
X006445Y002917D01*
X006541Y002917D01*
X006541Y003038D01*
X006541Y003134D01*
X006541Y003048D02*
X006605Y003048D01*
X006445Y003048D02*
X004346Y003048D01*
X004346Y002889D02*
X005534Y002889D01*
X005293Y002731D02*
X004346Y002731D01*
X004346Y002572D02*
X005192Y002572D01*
X005148Y002414D02*
X004346Y002414D01*
X004346Y002255D02*
X005148Y002255D01*
X005208Y002097D02*
X004346Y002097D01*
X004346Y001938D02*
X005329Y001938D01*
X006048Y001938D02*
X006144Y001938D01*
X006144Y002097D02*
X006048Y002097D01*
X006048Y002255D02*
X006144Y002255D01*
X006862Y001938D02*
X020235Y001938D01*
X020169Y001780D02*
X004346Y001780D01*
X005846Y000511D02*
X037751Y000511D01*
X035694Y000828D02*
X035598Y000828D01*
X035598Y000987D02*
X035694Y000987D01*
X035694Y001145D02*
X035598Y001145D01*
X035598Y001304D02*
X035694Y001304D01*
X035597Y001305D02*
X035597Y001401D01*
X035323Y001401D01*
X035323Y001397D01*
X034423Y001397D01*
X034423Y001301D01*
X034698Y001301D01*
X034698Y001305D01*
X035597Y001305D01*
X035598Y001463D02*
X035694Y001463D01*
X035694Y001621D02*
X035598Y001621D01*
X035598Y001780D02*
X035694Y001780D01*
X034698Y001304D02*
X034423Y001304D01*
X034327Y001304D02*
X027272Y001304D01*
X027327Y001463D02*
X033428Y001463D01*
X033494Y001621D02*
X027327Y001621D01*
X027322Y001780D02*
X033625Y001780D01*
X033465Y001145D02*
X027206Y001145D01*
X027055Y000987D02*
X033556Y000987D01*
X033774Y000828D02*
X026798Y000828D01*
X026193Y000828D02*
X021298Y000828D01*
X021555Y000987D02*
X025936Y000987D01*
X025785Y001145D02*
X021706Y001145D01*
X021772Y001304D02*
X025720Y001304D01*
X025665Y001463D02*
X021827Y001463D01*
X021827Y001621D02*
X025665Y001621D01*
X025669Y001780D02*
X021822Y001780D01*
X021756Y001938D02*
X025735Y001938D01*
X025814Y002097D02*
X021677Y002097D01*
X020314Y002097D02*
X006984Y002097D01*
X007441Y002255D02*
X007537Y002255D01*
X007537Y002414D02*
X007441Y002414D01*
X007441Y002572D02*
X007537Y002572D01*
X007537Y002731D02*
X007441Y002731D01*
X007441Y002889D02*
X007537Y002889D01*
X007537Y003048D02*
X007441Y003048D01*
X007441Y003207D02*
X007537Y003207D01*
X007372Y003365D02*
X016159Y003365D01*
X016119Y003524D02*
X007237Y003524D01*
X008265Y004316D02*
X009582Y004316D01*
X010110Y004316D02*
X010832Y004316D01*
X010673Y004475D02*
X010268Y004475D01*
X010323Y004633D02*
X010618Y004633D01*
X010618Y004792D02*
X010323Y004792D01*
X010298Y004951D02*
X010643Y004951D01*
X010802Y005109D02*
X010140Y005109D01*
X011360Y004316D02*
X015691Y004316D01*
X016119Y003682D02*
X004346Y003682D01*
X004346Y003524D02*
X005750Y003524D01*
X005615Y003365D02*
X004346Y003365D01*
X004346Y003207D02*
X005549Y003207D01*
X005422Y003841D02*
X004346Y003841D01*
X004346Y003999D02*
X005240Y003999D01*
X005161Y004158D02*
X004346Y004158D01*
X004346Y004316D02*
X005128Y004316D01*
X005130Y004475D02*
X004346Y004475D01*
X004346Y004633D02*
X005196Y004633D01*
X005325Y004792D02*
X004346Y004792D01*
X004346Y004951D02*
X005683Y004951D01*
X005577Y005109D02*
X004346Y005109D01*
X004346Y005268D02*
X005526Y005268D01*
X005526Y005426D02*
X004346Y005426D01*
X004346Y005585D02*
X005575Y005585D01*
X005677Y005743D02*
X004346Y005743D01*
X004346Y005902D02*
X005917Y005902D01*
X007070Y005902D02*
X015963Y005902D01*
X015963Y006060D02*
X015096Y006060D01*
X015097Y006219D02*
X015963Y006219D01*
X015963Y006377D02*
X015098Y006377D01*
X015099Y006536D02*
X015963Y006536D01*
X015963Y006694D02*
X015100Y006694D01*
X015101Y006853D02*
X015963Y006853D01*
X015963Y007012D02*
X015102Y007012D01*
X015103Y007170D02*
X015963Y007170D01*
X015963Y007329D02*
X015104Y007329D01*
X015105Y007487D02*
X016028Y007487D01*
X016186Y007646D02*
X015106Y007646D01*
X015107Y007804D02*
X016345Y007804D01*
X016503Y007963D02*
X015108Y007963D01*
X015109Y008121D02*
X016662Y008121D01*
X016820Y008280D02*
X015110Y008280D01*
X015111Y008438D02*
X016979Y008438D01*
X017188Y008597D02*
X015112Y008597D01*
X015113Y008756D02*
X016725Y008756D01*
X016755Y008743D02*
X016587Y008813D01*
X016458Y008942D01*
X016389Y009110D01*
X016389Y009469D01*
X016837Y009469D01*
X016837Y008743D01*
X016755Y008743D01*
X016837Y008756D02*
X016854Y008756D01*
X016854Y008743D02*
X016854Y009469D01*
X016837Y009469D01*
X016837Y009486D01*
X016389Y009486D01*
X016389Y009846D01*
X016458Y010014D01*
X016587Y010142D01*
X016642Y010165D01*
X016587Y010188D01*
X016458Y010317D01*
X016389Y010485D01*
X016389Y010844D01*
X016837Y010844D01*
X016837Y010118D01*
X016837Y009487D01*
X016854Y009487D01*
X016854Y010212D01*
X016854Y010844D01*
X016837Y010844D01*
X016837Y010861D01*
X016389Y010861D01*
X016389Y011221D01*
X016458Y011389D01*
X016587Y011517D01*
X016755Y011587D01*
X016837Y011587D01*
X016837Y010862D01*
X016854Y010862D01*
X016854Y011587D01*
X016937Y011587D01*
X017105Y011517D01*
X017233Y011389D01*
X017303Y011221D01*
X017303Y010861D01*
X016855Y010861D01*
X016855Y010844D01*
X017303Y010844D01*
X017303Y010485D01*
X017233Y010317D01*
X017105Y010188D01*
X017050Y010165D01*
X017105Y010142D01*
X017233Y010014D01*
X017303Y009846D01*
X017303Y009486D01*
X016855Y009486D01*
X016855Y009469D01*
X017303Y009469D01*
X017303Y009110D01*
X017233Y008942D01*
X017105Y008813D01*
X016937Y008743D01*
X016854Y008743D01*
X016966Y008756D02*
X017673Y008756D01*
X017751Y008723D02*
X017575Y008796D01*
X017441Y008930D01*
X017369Y009106D01*
X017369Y009850D01*
X017441Y010025D01*
X017526Y010110D01*
X017526Y010221D01*
X017441Y010305D01*
X017369Y010481D01*
X017369Y011225D01*
X017441Y011400D01*
X017575Y011534D01*
X017751Y011607D01*
X017941Y011607D01*
X018116Y011534D01*
X018250Y011400D01*
X018323Y011225D01*
X018323Y010481D01*
X018250Y010305D01*
X018166Y010221D01*
X018166Y010110D01*
X018250Y010025D01*
X018323Y009850D01*
X018323Y009106D01*
X018250Y008930D01*
X018116Y008796D01*
X017941Y008723D01*
X017751Y008723D01*
X018018Y008756D02*
X018673Y008756D01*
X018751Y008723D02*
X018575Y008796D01*
X018441Y008930D01*
X018369Y009106D01*
X018369Y009850D01*
X018441Y010025D01*
X018526Y010110D01*
X018526Y010221D01*
X018441Y010305D01*
X018369Y010481D01*
X018369Y011225D01*
X018441Y011400D01*
X018575Y011534D01*
X018751Y011607D01*
X018941Y011607D01*
X019116Y011534D01*
X019250Y011400D01*
X019323Y011225D01*
X019323Y010481D01*
X019250Y010305D01*
X019166Y010221D01*
X019166Y010110D01*
X019250Y010025D01*
X019323Y009850D01*
X019323Y009106D01*
X019250Y008930D01*
X019116Y008796D01*
X018941Y008723D01*
X018751Y008723D01*
X019018Y008756D02*
X019673Y008756D01*
X019751Y008723D02*
X019575Y008796D01*
X019441Y008930D01*
X019369Y009106D01*
X019369Y009850D01*
X019441Y010025D01*
X019526Y010110D01*
X019526Y010221D01*
X019441Y010305D01*
X019369Y010481D01*
X019369Y011225D01*
X019441Y011400D01*
X019575Y011534D01*
X019751Y011607D01*
X019941Y011607D01*
X020116Y011534D01*
X020250Y011400D01*
X020323Y011225D01*
X020323Y010481D01*
X020250Y010305D01*
X020166Y010221D01*
X020166Y010110D01*
X020250Y010025D01*
X020323Y009850D01*
X020323Y009106D01*
X020250Y008930D01*
X020116Y008796D01*
X019941Y008723D01*
X019751Y008723D01*
X020018Y008756D02*
X020673Y008756D01*
X020751Y008723D02*
X020575Y008796D01*
X020441Y008930D01*
X020369Y009106D01*
X020369Y009850D01*
X020441Y010025D01*
X020526Y010110D01*
X020526Y010221D01*
X020441Y010305D01*
X020369Y010481D01*
X020369Y011225D01*
X020441Y011400D01*
X020575Y011534D01*
X020751Y011607D01*
X020941Y011607D01*
X021116Y011534D01*
X021250Y011400D01*
X021323Y011225D01*
X021323Y010481D01*
X021250Y010305D01*
X021166Y010221D01*
X021166Y010110D01*
X021250Y010025D01*
X021323Y009850D01*
X021323Y009106D01*
X021250Y008930D01*
X021116Y008796D01*
X020941Y008723D01*
X020751Y008723D01*
X021018Y008756D02*
X021673Y008756D01*
X021751Y008723D02*
X021575Y008796D01*
X021441Y008930D01*
X021369Y009106D01*
X021369Y009850D01*
X021441Y010025D01*
X021526Y010110D01*
X021526Y010221D01*
X021441Y010305D01*
X021369Y010481D01*
X021369Y011225D01*
X021441Y011400D01*
X021575Y011534D01*
X021751Y011607D01*
X021941Y011607D01*
X022116Y011534D01*
X022250Y011400D01*
X022323Y011225D01*
X022323Y010481D01*
X022250Y010305D01*
X022166Y010221D01*
X022166Y010110D01*
X022250Y010025D01*
X022323Y009850D01*
X022323Y009106D01*
X022250Y008930D01*
X022116Y008796D01*
X021941Y008723D01*
X021751Y008723D01*
X022018Y008756D02*
X022673Y008756D01*
X022751Y008723D02*
X022575Y008796D01*
X022441Y008930D01*
X022369Y009106D01*
X022369Y009850D01*
X022441Y010025D01*
X022526Y010110D01*
X022526Y010221D01*
X022441Y010305D01*
X022369Y010481D01*
X022369Y011225D01*
X022441Y011400D01*
X022575Y011534D01*
X022751Y011607D01*
X022941Y011607D01*
X023116Y011534D01*
X023250Y011400D01*
X023323Y011225D01*
X023323Y010481D01*
X023250Y010305D01*
X023166Y010221D01*
X023166Y010110D01*
X023250Y010025D01*
X023323Y009850D01*
X023323Y009106D01*
X023250Y008930D01*
X023116Y008796D01*
X022941Y008723D01*
X022751Y008723D01*
X023018Y008756D02*
X023673Y008756D01*
X023751Y008723D02*
X023575Y008796D01*
X023441Y008930D01*
X023369Y009106D01*
X023369Y009850D01*
X023441Y010025D01*
X023526Y010110D01*
X023526Y010221D01*
X023441Y010305D01*
X023369Y010481D01*
X023369Y011225D01*
X023441Y011400D01*
X023575Y011534D01*
X023751Y011607D01*
X023941Y011607D01*
X024116Y011534D01*
X024250Y011400D01*
X024323Y011225D01*
X024323Y010481D01*
X024250Y010305D01*
X024166Y010221D01*
X024166Y010110D01*
X024250Y010025D01*
X024323Y009850D01*
X024323Y009106D01*
X024250Y008930D01*
X024116Y008796D01*
X023941Y008723D01*
X023751Y008723D01*
X024018Y008756D02*
X024673Y008756D01*
X024751Y008723D02*
X024575Y008796D01*
X024441Y008930D01*
X024369Y009106D01*
X024369Y009850D01*
X024441Y010025D01*
X024526Y010110D01*
X024526Y010221D01*
X024441Y010305D01*
X024369Y010481D01*
X024369Y011225D01*
X024441Y011400D01*
X024575Y011534D01*
X024751Y011607D01*
X024941Y011607D01*
X025116Y011534D01*
X025250Y011400D01*
X025323Y011225D01*
X025323Y010481D01*
X025250Y010305D01*
X025166Y010221D01*
X025166Y010110D01*
X025250Y010025D01*
X025323Y009850D01*
X025323Y009106D01*
X025250Y008930D01*
X025116Y008796D01*
X024941Y008723D01*
X024751Y008723D01*
X025018Y008756D02*
X025673Y008756D01*
X025457Y008914D02*
X025234Y008914D01*
X025309Y009073D02*
X025382Y009073D01*
X025369Y009231D02*
X025323Y009231D01*
X025323Y009390D02*
X025369Y009390D01*
X025369Y009548D02*
X025323Y009548D01*
X025323Y009707D02*
X025369Y009707D01*
X025375Y009865D02*
X025316Y009865D01*
X025251Y010024D02*
X025441Y010024D01*
X025631Y010182D02*
X025166Y010182D01*
X025265Y010341D02*
X025572Y010341D01*
X025512Y010500D02*
X025323Y010500D01*
X025323Y010658D02*
X025512Y010658D01*
X025552Y010817D02*
X025323Y010817D01*
X025323Y010975D02*
X025642Y010975D01*
X025776Y011134D02*
X025323Y011134D01*
X025295Y011292D02*
X025776Y011292D01*
X025776Y011451D02*
X025200Y011451D01*
X024492Y011451D02*
X024200Y011451D01*
X024295Y011292D02*
X024396Y011292D01*
X024369Y011134D02*
X024323Y011134D01*
X024323Y010975D02*
X024369Y010975D01*
X024369Y010817D02*
X024323Y010817D01*
X024323Y010658D02*
X024369Y010658D01*
X024369Y010500D02*
X024323Y010500D01*
X024265Y010341D02*
X024426Y010341D01*
X024526Y010182D02*
X024166Y010182D01*
X024251Y010024D02*
X024441Y010024D01*
X024375Y009865D02*
X024316Y009865D01*
X024323Y009707D02*
X024369Y009707D01*
X024369Y009548D02*
X024323Y009548D01*
X024323Y009390D02*
X024369Y009390D01*
X024369Y009231D02*
X024323Y009231D01*
X024309Y009073D02*
X024382Y009073D01*
X024457Y008914D02*
X024234Y008914D01*
X023846Y009478D02*
X023846Y010853D01*
X023369Y010817D02*
X023323Y010817D01*
X023323Y010975D02*
X023369Y010975D01*
X023369Y011134D02*
X023323Y011134D01*
X023295Y011292D02*
X023396Y011292D01*
X023492Y011451D02*
X023200Y011451D01*
X022846Y010853D02*
X022846Y009478D01*
X023323Y009548D02*
X023369Y009548D01*
X023369Y009390D02*
X023323Y009390D01*
X023323Y009231D02*
X023369Y009231D01*
X023382Y009073D02*
X023309Y009073D01*
X023234Y008914D02*
X023457Y008914D01*
X022457Y008914D02*
X022234Y008914D01*
X022309Y009073D02*
X022382Y009073D01*
X022369Y009231D02*
X022323Y009231D01*
X022323Y009390D02*
X022369Y009390D01*
X022369Y009548D02*
X022323Y009548D01*
X022323Y009707D02*
X022369Y009707D01*
X022375Y009865D02*
X022316Y009865D01*
X022251Y010024D02*
X022441Y010024D01*
X022526Y010182D02*
X022166Y010182D01*
X022265Y010341D02*
X022426Y010341D01*
X022369Y010500D02*
X022323Y010500D01*
X022323Y010658D02*
X022369Y010658D01*
X022369Y010817D02*
X022323Y010817D01*
X022323Y010975D02*
X022369Y010975D01*
X022369Y011134D02*
X022323Y011134D01*
X022295Y011292D02*
X022396Y011292D01*
X022492Y011451D02*
X022200Y011451D01*
X021492Y011451D02*
X021200Y011451D01*
X021295Y011292D02*
X021396Y011292D01*
X021369Y011134D02*
X021323Y011134D01*
X021323Y010975D02*
X021369Y010975D01*
X021369Y010817D02*
X021323Y010817D01*
X021323Y010658D02*
X021369Y010658D01*
X021369Y010500D02*
X021323Y010500D01*
X021265Y010341D02*
X021426Y010341D01*
X021526Y010182D02*
X021166Y010182D01*
X021251Y010024D02*
X021441Y010024D01*
X021375Y009865D02*
X021316Y009865D01*
X021323Y009707D02*
X021369Y009707D01*
X021369Y009548D02*
X021323Y009548D01*
X021323Y009390D02*
X021369Y009390D01*
X021369Y009231D02*
X021323Y009231D01*
X021309Y009073D02*
X021382Y009073D01*
X021457Y008914D02*
X021234Y008914D01*
X020846Y009478D02*
X020846Y010853D01*
X020369Y010817D02*
X020323Y010817D01*
X020323Y010975D02*
X020369Y010975D01*
X020369Y011134D02*
X020323Y011134D01*
X020295Y011292D02*
X020396Y011292D01*
X020492Y011451D02*
X020200Y011451D01*
X019492Y011451D02*
X019200Y011451D01*
X019295Y011292D02*
X019396Y011292D01*
X019369Y011134D02*
X019323Y011134D01*
X019323Y010975D02*
X019369Y010975D01*
X019369Y010817D02*
X019323Y010817D01*
X019323Y010658D02*
X019369Y010658D01*
X019369Y010500D02*
X019323Y010500D01*
X019265Y010341D02*
X019426Y010341D01*
X019526Y010182D02*
X019166Y010182D01*
X019251Y010024D02*
X019441Y010024D01*
X019375Y009865D02*
X019316Y009865D01*
X019323Y009707D02*
X019369Y009707D01*
X019369Y009548D02*
X019323Y009548D01*
X019323Y009390D02*
X019369Y009390D01*
X019369Y009231D02*
X019323Y009231D01*
X019309Y009073D02*
X019382Y009073D01*
X019457Y008914D02*
X019234Y008914D01*
X018846Y009478D02*
X018846Y010853D01*
X018369Y010817D02*
X018323Y010817D01*
X018323Y010975D02*
X018369Y010975D01*
X018369Y011134D02*
X018323Y011134D01*
X018295Y011292D02*
X018396Y011292D01*
X018492Y011451D02*
X018200Y011451D01*
X017846Y010853D02*
X017846Y009478D01*
X018323Y009548D02*
X018369Y009548D01*
X018369Y009390D02*
X018323Y009390D01*
X018323Y009231D02*
X018369Y009231D01*
X018382Y009073D02*
X018309Y009073D01*
X018234Y008914D02*
X018457Y008914D01*
X017457Y008914D02*
X017206Y008914D01*
X017288Y009073D02*
X017382Y009073D01*
X017369Y009231D02*
X017303Y009231D01*
X017303Y009390D02*
X017369Y009390D01*
X017369Y009548D02*
X017303Y009548D01*
X017303Y009707D02*
X017369Y009707D01*
X017375Y009865D02*
X017295Y009865D01*
X017223Y010024D02*
X017441Y010024D01*
X017526Y010182D02*
X017091Y010182D01*
X017243Y010341D02*
X017426Y010341D01*
X017369Y010500D02*
X017303Y010500D01*
X017303Y010658D02*
X017369Y010658D01*
X017369Y010817D02*
X017303Y010817D01*
X017303Y010975D02*
X017369Y010975D01*
X017369Y011134D02*
X017303Y011134D01*
X017273Y011292D02*
X017396Y011292D01*
X017492Y011451D02*
X017171Y011451D01*
X016854Y011451D02*
X016837Y011451D01*
X016854Y011292D02*
X016837Y011292D01*
X016854Y011134D02*
X016837Y011134D01*
X016854Y010975D02*
X016837Y010975D01*
X016854Y010817D02*
X016837Y010817D01*
X016854Y010658D02*
X016837Y010658D01*
X016854Y010500D02*
X016837Y010500D01*
X016854Y010341D02*
X016837Y010341D01*
X016854Y010182D02*
X016837Y010182D01*
X016854Y010024D02*
X016837Y010024D01*
X016854Y009865D02*
X016837Y009865D01*
X016854Y009707D02*
X016837Y009707D01*
X016854Y009548D02*
X016837Y009548D01*
X016854Y009390D02*
X016837Y009390D01*
X016854Y009231D02*
X016837Y009231D01*
X016854Y009073D02*
X016837Y009073D01*
X016854Y008914D02*
X016837Y008914D01*
X016486Y008914D02*
X015114Y008914D01*
X015115Y009073D02*
X016404Y009073D01*
X016389Y009231D02*
X015116Y009231D01*
X015117Y009390D02*
X016389Y009390D01*
X016389Y009548D02*
X015118Y009548D01*
X015119Y009707D02*
X016389Y009707D01*
X016397Y009865D02*
X015934Y009865D01*
X016091Y010024D02*
X016468Y010024D01*
X016600Y010182D02*
X016157Y010182D01*
X016180Y010341D02*
X016448Y010341D01*
X016389Y010500D02*
X016167Y010500D01*
X016101Y010658D02*
X016389Y010658D01*
X016389Y010817D02*
X015957Y010817D01*
X016389Y010975D02*
X015126Y010975D01*
X015125Y010817D02*
X015234Y010817D01*
X015127Y011134D02*
X016389Y011134D01*
X016418Y011292D02*
X015128Y011292D01*
X015129Y011451D02*
X016520Y011451D01*
X015130Y011609D02*
X025776Y011609D01*
X025776Y011768D02*
X015131Y011768D01*
X015132Y011926D02*
X025694Y011926D01*
X025536Y012085D02*
X015133Y012085D01*
X015134Y012244D02*
X025377Y012244D01*
X025219Y012402D02*
X015135Y012402D01*
X015136Y012561D02*
X025060Y012561D01*
X024902Y012719D02*
X017790Y012719D01*
X017948Y012878D02*
X024743Y012878D01*
X024585Y013036D02*
X018107Y013036D01*
X018166Y013195D02*
X018552Y013195D01*
X018421Y013353D02*
X018270Y013353D01*
X018323Y013512D02*
X018369Y013512D01*
X018369Y013670D02*
X018323Y013670D01*
X018323Y013829D02*
X018369Y013829D01*
X018369Y013987D02*
X018323Y013987D01*
X018323Y014146D02*
X018369Y014146D01*
X018402Y014305D02*
X018290Y014305D01*
X018187Y014463D02*
X018504Y014463D01*
X018526Y014622D02*
X016116Y014622D01*
X016180Y014463D02*
X016504Y014463D01*
X016402Y014305D02*
X016180Y014305D01*
X016142Y014146D02*
X016369Y014146D01*
X016369Y013987D02*
X016056Y013987D01*
X015945Y013829D02*
X016369Y013829D01*
X016369Y013670D02*
X016096Y013670D01*
X016162Y013512D02*
X016369Y013512D01*
X016421Y013353D02*
X016180Y013353D01*
X015971Y012978D02*
X017596Y012978D01*
X017846Y013228D01*
X017846Y013853D01*
X017369Y013829D02*
X017323Y013829D01*
X017323Y013987D02*
X017369Y013987D01*
X017369Y014146D02*
X017323Y014146D01*
X017290Y014305D02*
X017402Y014305D01*
X017504Y014463D02*
X017187Y014463D01*
X017323Y013670D02*
X017369Y013670D01*
X017369Y013512D02*
X017323Y013512D01*
X017270Y013353D02*
X017421Y013353D01*
X018846Y013853D02*
X018846Y014978D01*
X016471Y017353D01*
X015596Y017353D01*
X015887Y016841D02*
X016530Y016841D01*
X016688Y016683D02*
X015161Y016683D01*
X015162Y016841D02*
X015305Y016841D01*
X016068Y017000D02*
X016371Y017000D01*
X016801Y017475D02*
X019526Y017475D01*
X019526Y017317D02*
X016959Y017317D01*
X017118Y017158D02*
X019526Y017158D01*
X019526Y017000D02*
X017276Y017000D01*
X017435Y016841D02*
X019526Y016841D01*
X019526Y016683D02*
X017593Y016683D01*
X017752Y016524D02*
X019526Y016524D01*
X019526Y016366D02*
X017910Y016366D01*
X018069Y016207D02*
X019526Y016207D01*
X019526Y016049D02*
X018227Y016049D01*
X018386Y015890D02*
X019526Y015890D01*
X019526Y015731D02*
X018545Y015731D01*
X018703Y015573D02*
X019526Y015573D01*
X019526Y015414D02*
X018862Y015414D01*
X019020Y015256D02*
X019526Y015256D01*
X019526Y015097D02*
X019143Y015097D01*
X019166Y014939D02*
X019526Y014939D01*
X019526Y014780D02*
X019166Y014780D01*
X019166Y014622D02*
X019526Y014622D01*
X019504Y014463D02*
X019187Y014463D01*
X019290Y014305D02*
X019402Y014305D01*
X019369Y014146D02*
X019323Y014146D01*
X019323Y013987D02*
X019369Y013987D01*
X019369Y013829D02*
X019323Y013829D01*
X019323Y013670D02*
X019369Y013670D01*
X019369Y013512D02*
X019323Y013512D01*
X019270Y013353D02*
X019421Y013353D01*
X019552Y013195D02*
X019140Y013195D01*
X019846Y013853D02*
X019846Y017978D01*
X016471Y021353D01*
X015596Y021353D01*
X016032Y020963D02*
X016407Y020963D01*
X016566Y020805D02*
X015799Y020805D01*
X015393Y020805D02*
X015187Y020805D01*
X015186Y020646D02*
X016725Y020646D01*
X016883Y020488D02*
X015185Y020488D01*
X015184Y020329D02*
X017042Y020329D01*
X017200Y020171D02*
X015183Y020171D01*
X015182Y020012D02*
X017359Y020012D01*
X017517Y019854D02*
X015181Y019854D01*
X015180Y019695D02*
X017676Y019695D01*
X017834Y019536D02*
X015179Y019536D01*
X015178Y019378D02*
X017993Y019378D01*
X018151Y019219D02*
X015177Y019219D01*
X015176Y019061D02*
X018310Y019061D01*
X018469Y018902D02*
X015794Y018902D01*
X016030Y018744D02*
X018627Y018744D01*
X018786Y018585D02*
X016131Y018585D01*
X016180Y018427D02*
X018944Y018427D01*
X019103Y018268D02*
X016180Y018268D01*
X016127Y018110D02*
X019261Y018110D01*
X019420Y017951D02*
X016020Y017951D01*
X015982Y017793D02*
X019526Y017793D01*
X019526Y017634D02*
X016628Y017634D01*
X015397Y018902D02*
X015175Y018902D01*
X017471Y020805D02*
X017691Y020805D01*
X017630Y020646D02*
X017850Y020646D01*
X017788Y020488D02*
X018008Y020488D01*
X017947Y020329D02*
X018167Y020329D01*
X018105Y020171D02*
X018325Y020171D01*
X018264Y020012D02*
X018484Y020012D01*
X018422Y019854D02*
X018642Y019854D01*
X018581Y019695D02*
X018801Y019695D01*
X018739Y019536D02*
X018959Y019536D01*
X018898Y019378D02*
X019118Y019378D01*
X019057Y019219D02*
X019276Y019219D01*
X019215Y019061D02*
X019435Y019061D01*
X019374Y018902D02*
X019594Y018902D01*
X019532Y018744D02*
X019752Y018744D01*
X019691Y018585D02*
X019911Y018585D01*
X019849Y018427D02*
X020069Y018427D01*
X020008Y018268D02*
X020228Y018268D01*
X020137Y018110D02*
X020386Y018110D01*
X020526Y017951D02*
X020166Y017951D01*
X020166Y017793D02*
X020526Y017793D01*
X020526Y017634D02*
X020166Y017634D01*
X020166Y017475D02*
X020526Y017475D01*
X020526Y017317D02*
X020166Y017317D01*
X020166Y017158D02*
X020526Y017158D01*
X020526Y017000D02*
X020166Y017000D01*
X020166Y016841D02*
X020526Y016841D01*
X020526Y016683D02*
X020166Y016683D01*
X020166Y016524D02*
X020526Y016524D01*
X020526Y016366D02*
X020166Y016366D01*
X020166Y016207D02*
X020526Y016207D01*
X020526Y016049D02*
X020166Y016049D01*
X020166Y015890D02*
X020526Y015890D01*
X020526Y015731D02*
X020166Y015731D01*
X020166Y015573D02*
X020526Y015573D01*
X020526Y015414D02*
X020166Y015414D01*
X020166Y015256D02*
X020526Y015256D01*
X020526Y015097D02*
X020166Y015097D01*
X020166Y014939D02*
X020526Y014939D01*
X020526Y014780D02*
X020166Y014780D01*
X020166Y014622D02*
X020526Y014622D01*
X020504Y014463D02*
X020187Y014463D01*
X020290Y014305D02*
X020402Y014305D01*
X020369Y014146D02*
X020323Y014146D01*
X020323Y013987D02*
X020369Y013987D01*
X020369Y013829D02*
X020323Y013829D01*
X020323Y013670D02*
X020369Y013670D01*
X020369Y013512D02*
X020323Y013512D01*
X020270Y013353D02*
X020421Y013353D01*
X020552Y013195D02*
X020140Y013195D01*
X020846Y013853D02*
X020846Y018103D01*
X016596Y022353D01*
X015596Y022353D01*
X015983Y021915D02*
X016581Y021915D01*
X016740Y021756D02*
X016018Y021756D01*
X016678Y021598D02*
X016898Y021598D01*
X016837Y021439D02*
X017057Y021439D01*
X016996Y021280D02*
X017215Y021280D01*
X017154Y021122D02*
X017374Y021122D01*
X017313Y020963D02*
X017532Y020963D01*
X018121Y021280D02*
X023321Y021280D01*
X023162Y021122D02*
X018279Y021122D01*
X018438Y020963D02*
X023004Y020963D01*
X022845Y020805D02*
X018596Y020805D01*
X018755Y020646D02*
X022687Y020646D01*
X022528Y020488D02*
X018913Y020488D01*
X019072Y020329D02*
X022370Y020329D01*
X022211Y020171D02*
X019230Y020171D01*
X019389Y020012D02*
X022053Y020012D01*
X021894Y019854D02*
X019547Y019854D01*
X019706Y019695D02*
X021735Y019695D01*
X021577Y019536D02*
X019864Y019536D01*
X020023Y019378D02*
X021526Y019378D01*
X021526Y019219D02*
X020182Y019219D01*
X020340Y019061D02*
X021526Y019061D01*
X021526Y018902D02*
X020499Y018902D01*
X020657Y018744D02*
X021526Y018744D01*
X021526Y018585D02*
X020816Y018585D01*
X020974Y018427D02*
X021526Y018427D01*
X021526Y018268D02*
X021124Y018268D01*
X021166Y018110D02*
X021526Y018110D01*
X021526Y017951D02*
X021166Y017951D01*
X021166Y017793D02*
X021526Y017793D01*
X021526Y017634D02*
X021166Y017634D01*
X021166Y017475D02*
X021526Y017475D01*
X021526Y017317D02*
X021166Y017317D01*
X021166Y017158D02*
X021526Y017158D01*
X021526Y017000D02*
X021166Y017000D01*
X021166Y016841D02*
X021526Y016841D01*
X021526Y016683D02*
X021166Y016683D01*
X021166Y016524D02*
X021526Y016524D01*
X021526Y016366D02*
X021166Y016366D01*
X021166Y016207D02*
X021526Y016207D01*
X021526Y016049D02*
X021166Y016049D01*
X021166Y015890D02*
X021526Y015890D01*
X021526Y015731D02*
X021166Y015731D01*
X021166Y015573D02*
X021526Y015573D01*
X021526Y015414D02*
X021166Y015414D01*
X021166Y015256D02*
X021526Y015256D01*
X021526Y015097D02*
X021166Y015097D01*
X021166Y014939D02*
X021526Y014939D01*
X021526Y014780D02*
X021166Y014780D01*
X021166Y014622D02*
X021526Y014622D01*
X021504Y014463D02*
X021187Y014463D01*
X021290Y014305D02*
X021402Y014305D01*
X021369Y014146D02*
X021323Y014146D01*
X021323Y013987D02*
X021369Y013987D01*
X021369Y013829D02*
X021323Y013829D01*
X021323Y013670D02*
X021369Y013670D01*
X021369Y013512D02*
X021323Y013512D01*
X021270Y013353D02*
X021421Y013353D01*
X021552Y013195D02*
X021140Y013195D01*
X021846Y013853D02*
X021846Y019353D01*
X025096Y022603D01*
X026096Y022603D01*
X025641Y022232D02*
X025177Y022232D01*
X025019Y022073D02*
X025740Y022073D01*
X025593Y021915D02*
X024860Y021915D01*
X024702Y021756D02*
X025527Y021756D01*
X025512Y021598D02*
X024543Y021598D01*
X024385Y021439D02*
X025532Y021439D01*
X025597Y021280D02*
X024226Y021280D01*
X024067Y021122D02*
X025751Y021122D01*
X026441Y021122D02*
X026471Y021122D01*
X026471Y020963D02*
X023909Y020963D01*
X023750Y020805D02*
X026471Y020805D01*
X026471Y020646D02*
X023592Y020646D01*
X023433Y020488D02*
X026471Y020488D01*
X026471Y020329D02*
X023275Y020329D01*
X023116Y020171D02*
X026471Y020171D01*
X026471Y020012D02*
X022958Y020012D01*
X022799Y019854D02*
X026471Y019854D01*
X026471Y019695D02*
X022641Y019695D01*
X022482Y019536D02*
X026471Y019536D01*
X026471Y019378D02*
X022323Y019378D01*
X022166Y019219D02*
X026471Y019219D01*
X026471Y019061D02*
X026463Y019061D01*
X025728Y019061D02*
X022166Y019061D01*
X022166Y018902D02*
X025588Y018902D01*
X025522Y018744D02*
X022166Y018744D01*
X022166Y018585D02*
X025512Y018585D01*
X025537Y018427D02*
X022166Y018427D01*
X022166Y018268D02*
X025605Y018268D01*
X025763Y018110D02*
X022166Y018110D01*
X022166Y017951D02*
X025618Y017951D01*
X025542Y017793D02*
X022166Y017793D01*
X022166Y017634D02*
X025512Y017634D01*
X025516Y017475D02*
X022166Y017475D01*
X022166Y017317D02*
X025582Y017317D01*
X025714Y017158D02*
X022166Y017158D01*
X022166Y017000D02*
X026471Y017000D01*
X026471Y016841D02*
X022166Y016841D01*
X022166Y016683D02*
X026471Y016683D01*
X026471Y016524D02*
X022166Y016524D01*
X022166Y016366D02*
X026471Y016366D01*
X026471Y016207D02*
X022166Y016207D01*
X022166Y016049D02*
X026471Y016049D01*
X026471Y015890D02*
X022166Y015890D01*
X022166Y015731D02*
X026471Y015731D01*
X026471Y015573D02*
X025578Y015573D01*
X025737Y015414D02*
X026471Y015414D01*
X026471Y015256D02*
X025895Y015256D01*
X026427Y015097D02*
X026471Y015097D01*
X026096Y014603D02*
X025346Y015353D01*
X024221Y015353D01*
X023846Y014978D01*
X023846Y013853D01*
X024323Y013829D02*
X024369Y013829D01*
X024369Y013987D02*
X024323Y013987D01*
X024323Y014146D02*
X024369Y014146D01*
X024402Y014305D02*
X024290Y014305D01*
X024187Y014463D02*
X024504Y014463D01*
X024166Y014622D02*
X025512Y014622D01*
X025522Y014463D02*
X025187Y014463D01*
X025290Y014305D02*
X025587Y014305D01*
X025727Y014146D02*
X025323Y014146D01*
X025323Y013987D02*
X025655Y013987D01*
X025557Y013829D02*
X025323Y013829D01*
X025323Y013670D02*
X025512Y013670D01*
X025512Y013512D02*
X025323Y013512D01*
X025270Y013353D02*
X025567Y013353D01*
X025678Y013195D02*
X025331Y013195D01*
X025490Y013036D02*
X025938Y013036D01*
X026254Y013036D02*
X026471Y013036D01*
X026471Y012878D02*
X025648Y012878D01*
X025807Y012719D02*
X026471Y012719D01*
X026471Y012561D02*
X025965Y012561D01*
X026124Y012402D02*
X026471Y012402D01*
X026471Y012244D02*
X026282Y012244D01*
X026398Y012085D02*
X026471Y012085D01*
X026471Y011926D02*
X026416Y011926D01*
X026416Y011768D02*
X026471Y011768D01*
X026471Y011609D02*
X026416Y011609D01*
X026416Y011451D02*
X026471Y011451D01*
X026471Y011292D02*
X026416Y011292D01*
X026416Y011134D02*
X026471Y011134D01*
X026096Y010603D02*
X026096Y011978D01*
X024846Y013228D01*
X024846Y013853D01*
X024369Y013670D02*
X024323Y013670D01*
X024323Y013512D02*
X024369Y013512D01*
X024421Y013353D02*
X024270Y013353D01*
X024140Y013195D02*
X024526Y013195D01*
X023552Y013195D02*
X023140Y013195D01*
X023116Y013171D02*
X023250Y013305D01*
X023323Y013481D01*
X023323Y014225D01*
X023250Y014400D01*
X023116Y014534D01*
X022941Y014607D01*
X022751Y014607D01*
X022575Y014534D01*
X022441Y014400D01*
X022369Y014225D01*
X022369Y013481D01*
X022441Y013305D01*
X022575Y013171D01*
X022751Y013098D01*
X022941Y013098D01*
X023116Y013171D01*
X023270Y013353D02*
X023421Y013353D01*
X023369Y013512D02*
X023323Y013512D01*
X023323Y013670D02*
X023369Y013670D01*
X023369Y013829D02*
X023323Y013829D01*
X023323Y013987D02*
X023369Y013987D01*
X023369Y014146D02*
X023323Y014146D01*
X023290Y014305D02*
X023402Y014305D01*
X023504Y014463D02*
X023187Y014463D01*
X023526Y014622D02*
X022166Y014622D01*
X022166Y014780D02*
X023526Y014780D01*
X023526Y014939D02*
X022166Y014939D01*
X022166Y015097D02*
X023549Y015097D01*
X023671Y015256D02*
X022166Y015256D01*
X022166Y015414D02*
X023830Y015414D01*
X023988Y015573D02*
X022166Y015573D01*
X022187Y014463D02*
X022504Y014463D01*
X022402Y014305D02*
X022290Y014305D01*
X022323Y014146D02*
X022369Y014146D01*
X022369Y013987D02*
X022323Y013987D01*
X022323Y013829D02*
X022369Y013829D01*
X022369Y013670D02*
X022323Y013670D01*
X022323Y013512D02*
X022369Y013512D01*
X022421Y013353D02*
X022270Y013353D01*
X022140Y013195D02*
X022552Y013195D01*
X024166Y014780D02*
X025466Y014780D01*
X025307Y014939D02*
X024259Y014939D01*
X018526Y014780D02*
X015994Y014780D01*
X015197Y014780D02*
X015150Y014780D01*
X015151Y014939D02*
X018432Y014939D01*
X018274Y015097D02*
X015152Y015097D01*
X015153Y015256D02*
X018115Y015256D01*
X017956Y015414D02*
X015154Y015414D01*
X015155Y015573D02*
X017798Y015573D01*
X017639Y015731D02*
X015156Y015731D01*
X015157Y015890D02*
X017481Y015890D01*
X017322Y016049D02*
X015158Y016049D01*
X015158Y016207D02*
X017164Y016207D01*
X017005Y016366D02*
X015159Y016366D01*
X015160Y016524D02*
X016847Y016524D01*
X015596Y013353D02*
X015971Y012978D01*
X015777Y012719D02*
X015137Y012719D01*
X015138Y012878D02*
X015245Y012878D01*
X018323Y010658D02*
X018369Y010658D01*
X018369Y010500D02*
X018323Y010500D01*
X018265Y010341D02*
X018426Y010341D01*
X018526Y010182D02*
X018166Y010182D01*
X018251Y010024D02*
X018441Y010024D01*
X018375Y009865D02*
X018316Y009865D01*
X018323Y009707D02*
X018369Y009707D01*
X019846Y009478D02*
X019846Y010853D01*
X020323Y010658D02*
X020369Y010658D01*
X020369Y010500D02*
X020323Y010500D01*
X020265Y010341D02*
X020426Y010341D01*
X020526Y010182D02*
X020166Y010182D01*
X020251Y010024D02*
X020441Y010024D01*
X020375Y009865D02*
X020316Y009865D01*
X020323Y009707D02*
X020369Y009707D01*
X020369Y009548D02*
X020323Y009548D01*
X020323Y009390D02*
X020369Y009390D01*
X020369Y009231D02*
X020323Y009231D01*
X020309Y009073D02*
X020382Y009073D01*
X020457Y008914D02*
X020234Y008914D01*
X021846Y009478D02*
X021846Y010853D01*
X023166Y010182D02*
X023526Y010182D01*
X023441Y010024D02*
X023251Y010024D01*
X023316Y009865D02*
X023375Y009865D01*
X023369Y009707D02*
X023323Y009707D01*
X023265Y010341D02*
X023426Y010341D01*
X023369Y010500D02*
X023323Y010500D01*
X023323Y010658D02*
X023369Y010658D01*
X024846Y010853D02*
X024846Y009478D01*
X025846Y009478D02*
X026721Y009478D01*
X027033Y009165D01*
X027033Y008915D01*
X026408Y008290D01*
X026408Y006915D01*
X026971Y006353D01*
X027448Y006377D02*
X028133Y006377D01*
X028133Y006219D02*
X027448Y006219D01*
X027448Y006155D02*
X027168Y005876D01*
X026773Y005876D01*
X026494Y006155D01*
X026494Y006377D01*
X026323Y006548D01*
X026323Y006106D01*
X026250Y005930D01*
X026116Y005796D01*
X025941Y005723D01*
X025751Y005723D01*
X025575Y005796D01*
X025441Y005930D01*
X025369Y006106D01*
X025369Y006850D01*
X025441Y007025D01*
X025518Y007102D01*
X025338Y007283D01*
X017853Y007283D01*
X017803Y007232D01*
X017941Y007232D01*
X018116Y007159D01*
X018250Y007025D01*
X018323Y006850D01*
X018323Y006106D01*
X018250Y005930D01*
X018166Y005846D01*
X018166Y005735D01*
X018353Y005548D01*
X018574Y005548D01*
X018526Y005664D01*
X018526Y005846D01*
X018441Y005930D01*
X018369Y006106D01*
X018369Y006850D01*
X018441Y007025D01*
X018575Y007159D01*
X018751Y007232D01*
X018941Y007232D01*
X019116Y007159D01*
X019250Y007025D01*
X019323Y006850D01*
X019323Y006106D01*
X019250Y005930D01*
X019243Y005923D01*
X019409Y005923D01*
X019477Y005895D01*
X019441Y005930D01*
X019369Y006106D01*
X019369Y006850D01*
X019441Y007025D01*
X019575Y007159D01*
X019751Y007232D01*
X019941Y007232D01*
X020116Y007159D01*
X020250Y007025D01*
X020323Y006850D01*
X020323Y006106D01*
X020250Y005930D01*
X020235Y005916D01*
X020526Y005625D01*
X020526Y005846D01*
X020441Y005930D01*
X020369Y006106D01*
X020369Y006850D01*
X020441Y007025D01*
X020575Y007159D01*
X020751Y007232D01*
X020941Y007232D01*
X021116Y007159D01*
X021250Y007025D01*
X021323Y006850D01*
X021323Y006106D01*
X021250Y005930D01*
X021166Y005846D01*
X021166Y005610D01*
X021367Y005409D01*
X021416Y005291D01*
X021416Y005164D01*
X021416Y005100D01*
X021801Y005100D01*
X022093Y004809D01*
X022093Y004397D01*
X021801Y004106D01*
X021416Y004106D01*
X021416Y004100D01*
X021801Y004100D01*
X022093Y003809D01*
X022093Y003397D01*
X022073Y003378D01*
X022118Y003378D01*
X022099Y003397D01*
X022099Y003809D01*
X022390Y004100D01*
X022640Y004100D01*
X022646Y004106D01*
X022390Y004106D01*
X022099Y004397D01*
X022099Y004809D01*
X022143Y004853D01*
X021664Y005331D01*
X021574Y005421D01*
X021526Y005539D01*
X021526Y005846D01*
X021441Y005930D01*
X021369Y006106D01*
X021369Y006850D01*
X021441Y007025D01*
X021575Y007159D01*
X021751Y007232D01*
X021941Y007232D01*
X022116Y007159D01*
X022250Y007025D01*
X022323Y006850D01*
X022323Y006106D01*
X022250Y005930D01*
X022166Y005846D01*
X022166Y005735D01*
X022526Y005375D01*
X022526Y005846D01*
X022441Y005930D01*
X022369Y006106D01*
X022369Y006850D01*
X022441Y007025D01*
X022575Y007159D01*
X022751Y007232D01*
X022941Y007232D01*
X023116Y007159D01*
X023250Y007025D01*
X023323Y006850D01*
X023323Y006106D01*
X023250Y005930D01*
X023166Y005846D01*
X023166Y005360D01*
X023276Y005250D01*
X023276Y005291D01*
X023324Y005409D01*
X023526Y005610D01*
X023526Y005846D01*
X023441Y005930D01*
X023369Y006106D01*
X023369Y006850D01*
X023441Y007025D01*
X023575Y007159D01*
X023751Y007232D01*
X023941Y007232D01*
X024116Y007159D01*
X024250Y007025D01*
X024323Y006850D01*
X024323Y006106D01*
X024250Y005930D01*
X024166Y005846D01*
X024166Y005500D01*
X024282Y005548D01*
X024463Y005548D01*
X024526Y005610D01*
X024526Y005846D01*
X024441Y005930D01*
X024369Y006106D01*
X024369Y006850D01*
X024441Y007025D01*
X024575Y007159D01*
X024751Y007232D01*
X024941Y007232D01*
X025116Y007159D01*
X025250Y007025D01*
X025323Y006850D01*
X025323Y006106D01*
X025250Y005930D01*
X025166Y005846D01*
X025166Y005414D01*
X025117Y005296D01*
X025027Y005206D01*
X024861Y005040D01*
X025093Y004809D01*
X025093Y004397D01*
X024801Y004106D01*
X024416Y004106D01*
X024416Y004100D01*
X024801Y004100D01*
X025093Y003809D01*
X025093Y003397D01*
X025073Y003378D01*
X025118Y003378D01*
X025099Y003397D01*
X025099Y003809D01*
X025390Y004100D01*
X025801Y004100D01*
X026093Y003809D01*
X026093Y003397D01*
X026073Y003378D01*
X026180Y003378D01*
X028133Y005331D01*
X028133Y007003D01*
X028112Y007024D01*
X028036Y007207D01*
X028036Y007998D01*
X028112Y008181D01*
X028252Y008321D01*
X028434Y008396D01*
X028632Y008396D01*
X028815Y008321D01*
X028954Y008181D01*
X029030Y007998D01*
X029030Y007207D01*
X028954Y007024D01*
X028933Y007003D01*
X028933Y005086D01*
X028872Y004939D01*
X028760Y004826D01*
X028760Y004826D01*
X026606Y002673D01*
X036463Y002673D01*
X036901Y003110D01*
X036901Y005220D01*
X036588Y005533D01*
X036200Y005533D01*
X036116Y005448D01*
X035941Y005376D01*
X035751Y005376D01*
X035575Y005448D01*
X035441Y005582D01*
X035369Y005758D01*
X035369Y005948D01*
X035441Y006123D01*
X035486Y006168D01*
X035486Y007883D01*
X035205Y007883D01*
X035144Y007822D01*
X034961Y007746D01*
X034170Y007746D01*
X033987Y007822D01*
X033848Y007961D01*
X033772Y008144D01*
X033772Y008342D01*
X033828Y008478D01*
X027048Y008478D01*
X026728Y008158D01*
X026728Y007535D01*
X026836Y007642D01*
X027015Y007642D01*
X027015Y007184D01*
X027052Y007184D01*
X027052Y007147D01*
X027510Y007147D01*
X027510Y006968D01*
X027270Y006728D01*
X027448Y006550D01*
X027448Y006155D01*
X027353Y006060D02*
X028133Y006060D01*
X028133Y005902D02*
X027194Y005902D01*
X026747Y005902D02*
X026222Y005902D01*
X026304Y006060D02*
X026588Y006060D01*
X026494Y006219D02*
X026323Y006219D01*
X026323Y006377D02*
X026494Y006377D01*
X026335Y006536D02*
X026323Y006536D01*
X025846Y006478D02*
X025846Y007228D01*
X025471Y007603D01*
X017721Y007603D01*
X017346Y007228D01*
X017346Y005478D01*
X017596Y005228D01*
X017596Y004603D01*
X017096Y004353D02*
X017346Y004103D01*
X018096Y004103D01*
X018596Y004603D01*
X018971Y005228D02*
X018221Y005228D01*
X017846Y005603D01*
X017846Y006478D01*
X018323Y006536D02*
X018369Y006536D01*
X018369Y006694D02*
X018323Y006694D01*
X018321Y006853D02*
X018370Y006853D01*
X018436Y007012D02*
X018256Y007012D01*
X018090Y007170D02*
X018601Y007170D01*
X019090Y007170D02*
X019601Y007170D01*
X019436Y007012D02*
X019256Y007012D01*
X019321Y006853D02*
X019370Y006853D01*
X019369Y006694D02*
X019323Y006694D01*
X019323Y006536D02*
X019369Y006536D01*
X019369Y006377D02*
X019323Y006377D01*
X019323Y006219D02*
X019369Y006219D01*
X019387Y006060D02*
X019304Y006060D01*
X019460Y005902D02*
X019470Y005902D01*
X019846Y005853D02*
X019846Y006478D01*
X020323Y006536D02*
X020369Y006536D01*
X020369Y006694D02*
X020323Y006694D01*
X020321Y006853D02*
X020370Y006853D01*
X020436Y007012D02*
X020256Y007012D01*
X020090Y007170D02*
X020601Y007170D01*
X021090Y007170D02*
X021601Y007170D01*
X021436Y007012D02*
X021256Y007012D01*
X021321Y006853D02*
X021370Y006853D01*
X021369Y006694D02*
X021323Y006694D01*
X021323Y006536D02*
X021369Y006536D01*
X021369Y006377D02*
X021323Y006377D01*
X021323Y006219D02*
X021369Y006219D01*
X021387Y006060D02*
X021304Y006060D01*
X021222Y005902D02*
X021470Y005902D01*
X021526Y005743D02*
X021166Y005743D01*
X021191Y005585D02*
X021526Y005585D01*
X021572Y005426D02*
X021350Y005426D01*
X021416Y005268D02*
X021728Y005268D01*
X021887Y005109D02*
X021416Y005109D01*
X021096Y005228D02*
X020846Y005478D01*
X020846Y006478D01*
X020369Y006377D02*
X020323Y006377D01*
X020323Y006219D02*
X020369Y006219D01*
X020387Y006060D02*
X020304Y006060D01*
X020249Y005902D02*
X020470Y005902D01*
X020526Y005743D02*
X020408Y005743D01*
X019846Y005853D02*
X020596Y005103D01*
X020596Y004603D01*
X020096Y004853D02*
X019346Y005603D01*
X018971Y005603D01*
X018846Y005728D01*
X018846Y006478D01*
X018369Y006377D02*
X018323Y006377D01*
X018323Y006219D02*
X018369Y006219D01*
X018387Y006060D02*
X018304Y006060D01*
X018222Y005902D02*
X018470Y005902D01*
X018526Y005743D02*
X018166Y005743D01*
X018316Y005585D02*
X018559Y005585D01*
X018971Y005228D02*
X019596Y004603D01*
X020096Y004853D02*
X020096Y004103D01*
X019596Y003603D01*
X020596Y003603D02*
X021096Y004103D01*
X021096Y005228D01*
X021846Y005603D02*
X021846Y006478D01*
X022323Y006536D02*
X022369Y006536D01*
X022369Y006694D02*
X022323Y006694D01*
X022321Y006853D02*
X022370Y006853D01*
X022436Y007012D02*
X022256Y007012D01*
X022090Y007170D02*
X022601Y007170D01*
X023090Y007170D02*
X023601Y007170D01*
X023436Y007012D02*
X023256Y007012D01*
X023321Y006853D02*
X023370Y006853D01*
X023369Y006694D02*
X023323Y006694D01*
X023323Y006536D02*
X023369Y006536D01*
X023369Y006377D02*
X023323Y006377D01*
X023323Y006219D02*
X023369Y006219D01*
X023387Y006060D02*
X023304Y006060D01*
X023222Y005902D02*
X023470Y005902D01*
X023526Y005743D02*
X023166Y005743D01*
X023166Y005585D02*
X023500Y005585D01*
X023342Y005426D02*
X023166Y005426D01*
X023258Y005268D02*
X023276Y005268D01*
X023596Y005228D02*
X023846Y005478D01*
X023846Y006478D01*
X024323Y006536D02*
X024369Y006536D01*
X024369Y006694D02*
X024323Y006694D01*
X024321Y006853D02*
X024370Y006853D01*
X024436Y007012D02*
X024256Y007012D01*
X024090Y007170D02*
X024601Y007170D01*
X025090Y007170D02*
X025451Y007170D01*
X025436Y007012D02*
X025256Y007012D01*
X025321Y006853D02*
X025370Y006853D01*
X025369Y006694D02*
X025323Y006694D01*
X025323Y006536D02*
X025369Y006536D01*
X025369Y006377D02*
X025323Y006377D01*
X025323Y006219D02*
X025369Y006219D01*
X025387Y006060D02*
X025304Y006060D01*
X025222Y005902D02*
X025470Y005902D01*
X025703Y005743D02*
X025166Y005743D01*
X025166Y005585D02*
X028133Y005585D01*
X028133Y005743D02*
X025988Y005743D01*
X025801Y005100D02*
X026093Y004809D01*
X026093Y004397D01*
X025801Y004106D01*
X025390Y004106D01*
X025099Y004397D01*
X025099Y004809D01*
X025390Y005100D01*
X025801Y005100D01*
X025951Y004951D02*
X027753Y004951D01*
X027911Y005109D02*
X024930Y005109D01*
X024950Y004951D02*
X025241Y004951D01*
X025099Y004792D02*
X025093Y004792D01*
X025099Y004633D02*
X025093Y004633D01*
X025099Y004475D02*
X025093Y004475D01*
X025012Y004316D02*
X025179Y004316D01*
X025338Y004158D02*
X024853Y004158D01*
X024902Y003999D02*
X025290Y003999D01*
X025131Y003841D02*
X025060Y003841D01*
X025093Y003682D02*
X025099Y003682D01*
X025099Y003524D02*
X025093Y003524D01*
X025902Y003999D02*
X026802Y003999D01*
X026960Y004158D02*
X025853Y004158D01*
X026012Y004316D02*
X027119Y004316D01*
X027277Y004475D02*
X026093Y004475D01*
X026093Y004633D02*
X027436Y004633D01*
X027594Y004792D02*
X026093Y004792D01*
X026060Y003841D02*
X026643Y003841D01*
X026484Y003682D02*
X026093Y003682D01*
X026093Y003524D02*
X026326Y003524D01*
X026982Y003048D02*
X028303Y003048D01*
X028315Y003019D02*
X028208Y003276D01*
X028208Y003554D01*
X028315Y003812D01*
X028512Y004009D01*
X028769Y004115D01*
X028873Y004115D01*
X028926Y004169D01*
X028999Y004199D01*
X029043Y004243D01*
X029043Y007191D01*
X029036Y007207D01*
X029036Y007998D01*
X029112Y008181D01*
X029252Y008321D01*
X029434Y008396D01*
X029632Y008396D01*
X029815Y008321D01*
X029954Y008181D01*
X030030Y007998D01*
X030030Y007207D01*
X030023Y007191D01*
X030023Y003943D01*
X029949Y003763D01*
X029811Y003625D01*
X029811Y003625D01*
X029691Y003506D01*
X029661Y003433D01*
X029608Y003380D01*
X029608Y003276D01*
X029502Y003019D01*
X029305Y002822D01*
X029047Y002715D01*
X028769Y002715D01*
X028512Y002822D01*
X028315Y003019D01*
X028444Y002889D02*
X026823Y002889D01*
X026664Y002731D02*
X028731Y002731D01*
X029085Y002731D02*
X036521Y002731D01*
X036392Y002889D02*
X036680Y002889D01*
X036524Y003022D02*
X036360Y002858D01*
X036146Y002769D01*
X035146Y002769D01*
X035053Y002807D01*
X034875Y002733D01*
X033875Y002733D01*
X033661Y002822D01*
X033566Y002917D01*
X032898Y002917D01*
X032739Y002917D01*
X032592Y002978D01*
X032522Y003048D01*
X031503Y003048D01*
X031588Y003134D02*
X031190Y002735D01*
X030937Y002735D01*
X030937Y003387D01*
X031588Y003387D01*
X031588Y003134D01*
X031588Y003207D02*
X032145Y003207D01*
X032219Y003133D02*
X032063Y003289D01*
X031979Y003492D01*
X031979Y003713D01*
X032063Y003917D01*
X032219Y004073D01*
X032423Y004157D01*
X032643Y004157D01*
X032847Y004073D01*
X033003Y003917D01*
X033086Y003717D01*
X033566Y003717D01*
X033661Y003812D01*
X033875Y003901D01*
X034875Y003901D01*
X034968Y003863D01*
X035146Y003937D01*
X036146Y003937D01*
X036360Y003848D01*
X036524Y003683D01*
X036613Y003469D01*
X036613Y003237D01*
X036524Y003022D01*
X036535Y003048D02*
X036838Y003048D01*
X036901Y003207D02*
X036601Y003207D01*
X036613Y003365D02*
X036901Y003365D01*
X036901Y003524D02*
X036591Y003524D01*
X036525Y003682D02*
X036901Y003682D01*
X036901Y003841D02*
X036367Y003841D01*
X036901Y003999D02*
X032921Y003999D01*
X033035Y003841D02*
X033729Y003841D01*
X034414Y004581D02*
X034532Y004533D01*
X035491Y004533D01*
X035648Y004376D01*
X036043Y004376D01*
X036323Y004655D01*
X036323Y005050D01*
X036043Y005330D01*
X035648Y005330D01*
X035491Y005173D01*
X034728Y005173D01*
X033277Y006624D01*
X033159Y006673D01*
X033032Y006673D01*
X031325Y006673D01*
X031168Y006830D01*
X030773Y006830D01*
X030494Y006550D01*
X030494Y006155D01*
X030773Y005876D01*
X031168Y005876D01*
X031325Y006033D01*
X032963Y006033D01*
X034324Y004671D01*
X034414Y004581D01*
X034362Y004633D02*
X030023Y004633D01*
X030023Y004475D02*
X035549Y004475D01*
X036143Y004475D02*
X036901Y004475D01*
X036901Y004633D02*
X036301Y004633D01*
X036323Y004792D02*
X036901Y004792D01*
X036901Y004951D02*
X036323Y004951D01*
X036264Y005109D02*
X036901Y005109D01*
X036853Y005268D02*
X036106Y005268D01*
X036063Y005426D02*
X036695Y005426D01*
X035846Y004853D02*
X034596Y004853D01*
X033096Y006353D01*
X030971Y006353D01*
X030494Y006377D02*
X030023Y006377D01*
X030023Y006219D02*
X030494Y006219D01*
X030588Y006060D02*
X030023Y006060D01*
X030023Y005902D02*
X030747Y005902D01*
X031194Y005902D02*
X033094Y005902D01*
X033253Y005743D02*
X030023Y005743D01*
X030023Y005585D02*
X033411Y005585D01*
X033570Y005426D02*
X030023Y005426D01*
X030023Y005268D02*
X033728Y005268D01*
X033887Y005109D02*
X030023Y005109D01*
X030023Y004951D02*
X034045Y004951D01*
X034204Y004792D02*
X030023Y004792D01*
X030023Y004316D02*
X036901Y004316D01*
X036901Y004158D02*
X030023Y004158D01*
X030023Y003999D02*
X030531Y003999D01*
X030627Y004095D02*
X030880Y004095D01*
X030880Y003444D01*
X030937Y003444D01*
X030937Y003387D01*
X030880Y003387D01*
X030880Y002735D01*
X030627Y002735D01*
X030228Y003134D01*
X030228Y003387D01*
X030880Y003387D01*
X030880Y003444D01*
X030228Y003444D01*
X030228Y003697D01*
X030627Y004095D01*
X030880Y003999D02*
X030937Y003999D01*
X030937Y004095D02*
X031190Y004095D01*
X031588Y003697D01*
X031588Y003444D01*
X030937Y003444D01*
X030937Y004095D01*
X030937Y003841D02*
X030880Y003841D01*
X030880Y003682D02*
X030937Y003682D01*
X030937Y003524D02*
X030880Y003524D01*
X030880Y003365D02*
X030937Y003365D01*
X030937Y003207D02*
X030880Y003207D01*
X030880Y003048D02*
X030937Y003048D01*
X030937Y002889D02*
X030880Y002889D01*
X030472Y002889D02*
X029372Y002889D01*
X029514Y003048D02*
X030314Y003048D01*
X030228Y003207D02*
X029579Y003207D01*
X029608Y003365D02*
X030228Y003365D01*
X030228Y003524D02*
X029709Y003524D01*
X029868Y003682D02*
X030228Y003682D01*
X030372Y003841D02*
X029981Y003841D01*
X029043Y004316D02*
X028250Y004316D01*
X028091Y004158D02*
X028915Y004158D01*
X029043Y004475D02*
X028408Y004475D01*
X028567Y004633D02*
X029043Y004633D01*
X029043Y004792D02*
X028726Y004792D01*
X028877Y004951D02*
X029043Y004951D01*
X029043Y005109D02*
X028933Y005109D01*
X028933Y005268D02*
X029043Y005268D01*
X029043Y005426D02*
X028933Y005426D01*
X028933Y005585D02*
X029043Y005585D01*
X029043Y005743D02*
X028933Y005743D01*
X028933Y005902D02*
X029043Y005902D01*
X029043Y006060D02*
X028933Y006060D01*
X028933Y006219D02*
X029043Y006219D01*
X029043Y006377D02*
X028933Y006377D01*
X028933Y006536D02*
X029043Y006536D01*
X029043Y006694D02*
X028933Y006694D01*
X028933Y006853D02*
X029043Y006853D01*
X029043Y007012D02*
X028941Y007012D01*
X029015Y007170D02*
X029043Y007170D01*
X029036Y007329D02*
X029030Y007329D01*
X029036Y007487D02*
X029030Y007487D01*
X029036Y007646D02*
X029030Y007646D01*
X029036Y007804D02*
X029030Y007804D01*
X029036Y007963D02*
X029030Y007963D01*
X028979Y008121D02*
X029087Y008121D01*
X029211Y008280D02*
X028855Y008280D01*
X028211Y008280D02*
X026850Y008280D01*
X026728Y008121D02*
X028087Y008121D01*
X028036Y007963D02*
X026728Y007963D01*
X026728Y007804D02*
X028036Y007804D01*
X028036Y007646D02*
X026728Y007646D01*
X027052Y007642D02*
X027231Y007642D01*
X027510Y007363D01*
X027510Y007184D01*
X027052Y007184D01*
X027052Y007642D01*
X027052Y007487D02*
X027015Y007487D01*
X027015Y007329D02*
X027052Y007329D01*
X027052Y007170D02*
X028052Y007170D01*
X028036Y007329D02*
X027510Y007329D01*
X027386Y007487D02*
X028036Y007487D01*
X028125Y007012D02*
X027510Y007012D01*
X027395Y006853D02*
X028133Y006853D01*
X028133Y006694D02*
X027304Y006694D01*
X027448Y006536D02*
X028133Y006536D01*
X028133Y005426D02*
X025166Y005426D01*
X025088Y005268D02*
X028070Y005268D01*
X027933Y003999D02*
X028502Y003999D01*
X028344Y003841D02*
X027774Y003841D01*
X027616Y003682D02*
X028261Y003682D01*
X028208Y003524D02*
X027457Y003524D01*
X027299Y003365D02*
X028208Y003365D01*
X028237Y003207D02*
X027140Y003207D01*
X027256Y001938D02*
X037751Y001938D01*
X035054Y000828D02*
X034976Y000828D01*
X034423Y000828D02*
X034327Y000828D01*
X034327Y000987D02*
X034423Y000987D01*
X034423Y001145D02*
X034327Y001145D01*
X034327Y001463D02*
X034423Y001463D01*
X034423Y001621D02*
X034327Y001621D01*
X034327Y001780D02*
X034423Y001780D01*
X033594Y002889D02*
X031344Y002889D01*
X031588Y003365D02*
X032032Y003365D01*
X031979Y003524D02*
X031588Y003524D01*
X031588Y003682D02*
X031979Y003682D01*
X032032Y003841D02*
X031444Y003841D01*
X031286Y003999D02*
X032146Y003999D01*
X032219Y003133D02*
X032423Y003048D01*
X032522Y003048D01*
X034633Y005268D02*
X035586Y005268D01*
X035629Y005426D02*
X034475Y005426D01*
X034316Y005585D02*
X035440Y005585D01*
X035375Y005743D02*
X034158Y005743D01*
X033999Y005902D02*
X035369Y005902D01*
X035415Y006060D02*
X035134Y006060D01*
X035133Y006059D02*
X034957Y005986D01*
X034584Y005986D01*
X034584Y006444D01*
X034547Y006444D01*
X034547Y006481D01*
X033792Y006481D01*
X033792Y006558D01*
X033865Y006733D01*
X033999Y006867D01*
X034174Y006940D01*
X034547Y006940D01*
X034547Y006481D01*
X034584Y006481D01*
X034584Y006444D01*
X035339Y006444D01*
X035339Y006368D01*
X035267Y006193D01*
X035133Y006059D01*
X035278Y006219D02*
X035486Y006219D01*
X035486Y006377D02*
X035339Y006377D01*
X035339Y006481D02*
X034584Y006481D01*
X034584Y006940D01*
X034957Y006940D01*
X035133Y006867D01*
X035267Y006733D01*
X035339Y006558D01*
X035339Y006481D01*
X035339Y006536D02*
X035486Y006536D01*
X035486Y006694D02*
X035283Y006694D01*
X035147Y006853D02*
X035486Y006853D01*
X035486Y007012D02*
X030941Y007012D01*
X030954Y007024D02*
X030815Y006885D01*
X030632Y006809D01*
X030434Y006809D01*
X030252Y006885D01*
X030112Y007024D01*
X030036Y007207D01*
X030036Y007998D01*
X030112Y008181D01*
X030252Y008321D01*
X030434Y008396D01*
X030632Y008396D01*
X030815Y008321D01*
X030954Y008181D01*
X031028Y008003D01*
X032149Y008003D01*
X032219Y008073D01*
X032423Y008157D01*
X032643Y008157D01*
X032847Y008073D01*
X033003Y007917D01*
X033088Y007713D01*
X033088Y007492D01*
X033003Y007289D01*
X032847Y007133D01*
X032643Y007048D01*
X032423Y007048D01*
X032219Y007133D01*
X032149Y007203D01*
X031028Y007203D01*
X030954Y007024D01*
X031015Y007170D02*
X032182Y007170D01*
X032885Y007170D02*
X035486Y007170D01*
X035486Y007329D02*
X033020Y007329D01*
X033085Y007487D02*
X035486Y007487D01*
X035486Y007646D02*
X033088Y007646D01*
X033050Y007804D02*
X034029Y007804D01*
X033847Y007963D02*
X032957Y007963D01*
X032730Y008121D02*
X033781Y008121D01*
X033772Y008280D02*
X030855Y008280D01*
X030979Y008121D02*
X032337Y008121D01*
X033812Y008438D02*
X027009Y008438D01*
X026408Y008290D02*
X026408Y008290D01*
X017283Y008290D01*
X016283Y007290D01*
X016283Y005915D01*
X017096Y005103D01*
X017096Y004353D01*
X016997Y003999D02*
X016874Y003999D01*
X017032Y003841D02*
X017131Y003841D01*
X017356Y002889D02*
X008437Y002889D01*
X008437Y002731D02*
X017515Y002731D01*
X017674Y002572D02*
X008397Y002572D01*
X008303Y002414D02*
X017832Y002414D01*
X017991Y002255D02*
X008075Y002255D01*
X008150Y005268D02*
X016478Y005268D01*
X016320Y005426D02*
X007461Y005426D01*
X007412Y005585D02*
X016161Y005585D01*
X016008Y005743D02*
X007309Y005743D01*
X015120Y009865D02*
X015257Y009865D01*
X017250Y007804D02*
X017470Y007804D01*
X017539Y007874D02*
X017657Y007923D01*
X017784Y007923D01*
X025534Y007923D01*
X025652Y007874D01*
X025742Y007784D01*
X026088Y007438D01*
X026088Y007970D01*
X017416Y007970D01*
X016603Y007158D01*
X016603Y007149D01*
X016755Y007212D01*
X016837Y007212D01*
X016837Y006487D01*
X016854Y006487D01*
X016854Y007212D01*
X016937Y007212D01*
X017026Y007175D01*
X017026Y007291D01*
X017074Y007409D01*
X017164Y007499D01*
X017539Y007874D01*
X017408Y007963D02*
X026088Y007963D01*
X026088Y007804D02*
X025722Y007804D01*
X025880Y007646D02*
X026088Y007646D01*
X026088Y007487D02*
X026039Y007487D01*
X026018Y008756D02*
X026421Y008756D01*
X026580Y008914D02*
X026234Y008914D01*
X026309Y009073D02*
X026536Y009073D01*
X029855Y008280D02*
X030211Y008280D01*
X030087Y008121D02*
X029979Y008121D01*
X030030Y007963D02*
X030036Y007963D01*
X030036Y007804D02*
X030030Y007804D01*
X030036Y007646D02*
X030030Y007646D01*
X030036Y007487D02*
X030030Y007487D01*
X030036Y007329D02*
X030030Y007329D01*
X030023Y007170D02*
X030052Y007170D01*
X030023Y007012D02*
X030125Y007012D01*
X030023Y006853D02*
X030328Y006853D01*
X030023Y006694D02*
X030638Y006694D01*
X030738Y006853D02*
X033985Y006853D01*
X033849Y006694D02*
X031304Y006694D01*
X030494Y006536D02*
X030023Y006536D01*
X033365Y006536D02*
X033792Y006536D01*
X033792Y006444D02*
X034547Y006444D01*
X034547Y005986D01*
X034174Y005986D01*
X033999Y006059D01*
X033865Y006193D01*
X033792Y006368D01*
X033792Y006444D01*
X033792Y006377D02*
X033524Y006377D01*
X033682Y006219D02*
X033854Y006219D01*
X033841Y006060D02*
X033997Y006060D01*
X034547Y006060D02*
X034584Y006060D01*
X034584Y006219D02*
X034547Y006219D01*
X034547Y006377D02*
X034584Y006377D01*
X034584Y006536D02*
X034547Y006536D01*
X034547Y006694D02*
X034584Y006694D01*
X034584Y006853D02*
X034547Y006853D01*
X035102Y007804D02*
X035486Y007804D01*
X036206Y007804D02*
X036589Y007804D01*
X036206Y007646D02*
X037751Y007646D01*
X037751Y007804D02*
X037662Y007804D01*
X037751Y007487D02*
X036206Y007487D01*
X036206Y007329D02*
X037751Y007329D01*
X037751Y007170D02*
X036206Y007170D01*
X036206Y007012D02*
X037751Y007012D01*
X037751Y006853D02*
X037707Y006853D01*
X024846Y006478D02*
X024846Y005478D01*
X024596Y005228D01*
X024346Y005228D01*
X024096Y004978D01*
X024096Y004103D01*
X023596Y003603D01*
X023096Y004103D02*
X023096Y004978D01*
X022846Y005228D01*
X022846Y006478D01*
X022369Y006377D02*
X022323Y006377D01*
X022323Y006219D02*
X022369Y006219D01*
X022387Y006060D02*
X022304Y006060D01*
X022222Y005902D02*
X022470Y005902D01*
X022526Y005743D02*
X022166Y005743D01*
X022316Y005585D02*
X022526Y005585D01*
X022526Y005426D02*
X022475Y005426D01*
X022596Y004853D02*
X021846Y005603D01*
X021951Y004951D02*
X022045Y004951D01*
X022093Y004792D02*
X022099Y004792D01*
X022099Y004633D02*
X022093Y004633D01*
X022099Y004475D02*
X022093Y004475D01*
X022012Y004316D02*
X022179Y004316D01*
X022338Y004158D02*
X021853Y004158D01*
X021902Y003999D02*
X022290Y003999D01*
X022131Y003841D02*
X022060Y003841D01*
X022093Y003682D02*
X022099Y003682D01*
X022099Y003524D02*
X022093Y003524D01*
X022596Y003603D02*
X023096Y004103D01*
X023596Y004603D02*
X023596Y005228D01*
X024166Y005585D02*
X024500Y005585D01*
X024526Y005743D02*
X024166Y005743D01*
X024222Y005902D02*
X024470Y005902D01*
X024387Y006060D02*
X024304Y006060D01*
X024323Y006219D02*
X024369Y006219D01*
X024369Y006377D02*
X024323Y006377D01*
X022596Y004853D02*
X022596Y004603D01*
X017311Y007646D02*
X017091Y007646D01*
X017153Y007487D02*
X016933Y007487D01*
X017041Y007329D02*
X016774Y007329D01*
X016837Y007170D02*
X016854Y007170D01*
X016854Y007012D02*
X016837Y007012D01*
X016854Y006853D02*
X016837Y006853D01*
X016854Y006694D02*
X016837Y006694D01*
X016854Y006536D02*
X016837Y006536D01*
X016654Y007170D02*
X016616Y007170D01*
X016637Y005109D02*
X015970Y005109D01*
X017962Y021439D02*
X023479Y021439D01*
X023638Y021598D02*
X017803Y021598D01*
X017645Y021756D02*
X023796Y021756D01*
X023955Y021915D02*
X017486Y021915D01*
X017328Y022073D02*
X024114Y022073D01*
X024272Y022232D02*
X017169Y022232D01*
X017011Y022390D02*
X024431Y022390D01*
X024589Y022549D02*
X016852Y022549D01*
X016067Y022707D02*
X024748Y022707D01*
X024906Y022866D02*
X015882Y022866D01*
X015309Y022866D02*
X015199Y022866D01*
X015200Y023024D02*
X025692Y023024D01*
X025971Y023183D02*
X015201Y023183D01*
X015202Y023342D02*
X026471Y023342D01*
X026471Y023500D02*
X015203Y023500D01*
X015204Y023659D02*
X026471Y023659D01*
X026471Y023817D02*
X015205Y023817D01*
X015206Y023976D02*
X026471Y023976D01*
X026471Y024134D02*
X015207Y024134D01*
X015208Y024293D02*
X020779Y024293D01*
X020830Y024272D02*
X020525Y024398D01*
X020291Y024632D01*
X020165Y024937D01*
X020165Y025268D01*
X020291Y025574D01*
X020525Y025807D01*
X020830Y025934D01*
X021161Y025934D01*
X021466Y025807D01*
X021700Y025574D01*
X021827Y025268D01*
X021827Y024937D01*
X021700Y024632D01*
X021466Y024398D01*
X021161Y024272D01*
X020830Y024272D01*
X021212Y024293D02*
X026471Y024293D01*
X026471Y024451D02*
X021520Y024451D01*
X021678Y024610D02*
X026471Y024610D01*
X026471Y024768D02*
X021757Y024768D01*
X021823Y024927D02*
X026471Y024927D01*
X026471Y025086D02*
X026373Y025086D01*
X025819Y025086D02*
X021827Y025086D01*
X021827Y025244D02*
X025629Y025244D01*
X025547Y025403D02*
X021771Y025403D01*
X021705Y025561D02*
X025512Y025561D01*
X025512Y025720D02*
X021554Y025720D01*
X021295Y025878D02*
X025578Y025878D01*
X025704Y026037D02*
X015219Y026037D01*
X015220Y026195D02*
X026471Y026195D01*
X026471Y023183D02*
X026220Y023183D01*
X020696Y025878D02*
X015853Y025878D01*
X016054Y025720D02*
X020437Y025720D01*
X020286Y025561D02*
X019488Y025561D01*
X019484Y025569D02*
X019529Y025461D01*
X019529Y025344D01*
X019484Y025235D01*
X019402Y025152D01*
X019333Y025124D01*
X019333Y024753D01*
X019288Y024645D01*
X019205Y024562D01*
X019096Y024517D01*
X018979Y024517D01*
X018870Y024562D01*
X018788Y024645D01*
X018774Y024677D01*
X018659Y024562D01*
X018594Y024535D01*
X018550Y024517D01*
X018433Y024517D01*
X018236Y024517D01*
X018128Y024562D01*
X018071Y024618D01*
X018015Y024563D01*
X018014Y024562D01*
X018014Y024562D01*
X017952Y024536D01*
X017906Y024517D01*
X017493Y024517D01*
X017385Y024562D01*
X017302Y024645D01*
X017257Y024753D01*
X017257Y024870D01*
X017257Y025048D01*
X017257Y025166D01*
X017257Y025344D01*
X017257Y025461D01*
X017302Y025569D01*
X017385Y025652D01*
X017493Y025697D01*
X017788Y025697D01*
X017906Y025697D01*
X017949Y025679D01*
X018014Y025652D01*
X018071Y025596D01*
X018128Y025652D01*
X018236Y025697D01*
X018353Y025697D01*
X018433Y025697D01*
X018550Y025697D01*
X018550Y025697D01*
X018586Y025682D01*
X018659Y025652D01*
X018666Y025645D01*
X018674Y025652D01*
X018782Y025697D01*
X019293Y025697D01*
X019402Y025652D01*
X019484Y025569D01*
X019529Y025403D02*
X020220Y025403D01*
X020165Y025244D02*
X019488Y025244D01*
X019333Y025086D02*
X020165Y025086D01*
X020169Y024927D02*
X019333Y024927D01*
X019333Y024768D02*
X020235Y024768D01*
X020313Y024610D02*
X019253Y024610D01*
X018822Y024610D02*
X018707Y024610D01*
X018550Y024517D02*
X018550Y024517D01*
X018079Y024610D02*
X018062Y024610D01*
X017336Y024610D02*
X015210Y024610D01*
X015211Y024768D02*
X017257Y024768D01*
X017257Y024927D02*
X015996Y024927D01*
X016117Y025086D02*
X017257Y025086D01*
X017257Y025244D02*
X016180Y025244D01*
X016180Y025403D02*
X017257Y025403D01*
X017298Y025561D02*
X016141Y025561D01*
X015339Y025878D02*
X015218Y025878D01*
X015209Y024451D02*
X020472Y024451D01*
X017906Y025697D02*
X017906Y025697D01*
D25*
X006493Y005350D02*
X006471Y005350D01*
X006471Y005353D01*
X007073Y004750D01*
X007158Y004750D01*
X007489Y004750D01*
X006596Y003103D02*
X006917Y002782D01*
X007489Y002782D01*
X006846Y002790D02*
X006533Y002790D01*
X006096Y002353D01*
X006493Y003000D02*
X006493Y003086D01*
X006596Y003086D01*
X006596Y003103D01*
D26*
X034375Y003317D02*
X034435Y003317D01*
X034471Y003353D01*
X034346Y001353D02*
X035646Y001353D01*
X034375Y001349D02*
X034350Y001349D01*
X034346Y001353D01*
X035846Y005853D02*
X035846Y008243D01*
X034611Y008243D01*
X034596Y008228D01*
X034596Y008243D01*
X034566Y008243D01*
X035846Y008243D02*
X037126Y008243D01*
D27*
X032533Y007603D02*
X030533Y007603D01*
X028533Y007603D02*
X028533Y005165D01*
X026346Y002978D01*
X018846Y002978D01*
X018596Y003228D01*
X018596Y003603D01*
X016596Y004603D02*
X015971Y004603D01*
X015846Y004728D01*
X011096Y004728D01*
X009846Y004728D02*
X009823Y004750D01*
X007489Y004750D01*
X007158Y004750D02*
X007158Y004728D01*
X006471Y004728D01*
X006096Y004353D01*
X007489Y002782D02*
X007471Y002763D01*
X007471Y002728D01*
X009596Y002728D01*
X009721Y002853D01*
X032533Y003603D02*
X032819Y003317D01*
X034375Y003317D01*
X034471Y003353D02*
X035646Y003353D01*
X032533Y003603D02*
X032533Y003603D01*
D28*
X029221Y003728D02*
X028908Y003415D01*
D29*
X029221Y003728D02*
X029533Y004040D01*
X029533Y007603D01*
M02*
