G75*
G70*
%OFA0B0*%
%FSLAX24Y24*%
%IPPOS*%
%LPD*%
%AMOC8*
5,1,8,0,0,1.08239X$1,22.5*
%
%ADD10C,0.0110*%
%ADD11C,0.0030*%
%ADD12R,0.0021X0.0003*%
%ADD13R,0.0048X0.0003*%
%ADD14R,0.0054X0.0003*%
%ADD15R,0.0063X0.0003*%
%ADD16R,0.0066X0.0003*%
%ADD17R,0.0069X0.0003*%
%ADD18R,0.0048X0.0003*%
%ADD19R,0.0039X0.0003*%
%ADD20R,0.0039X0.0003*%
%ADD21R,0.0036X0.0003*%
%ADD22R,0.0030X0.0003*%
%ADD23R,0.0036X0.0003*%
%ADD24R,0.0042X0.0003*%
%ADD25R,0.0066X0.0003*%
%ADD26R,0.0051X0.0003*%
%ADD27R,0.0033X0.0003*%
%ADD28R,0.0063X0.0003*%
%ADD29R,0.0054X0.0003*%
%ADD30R,0.0051X0.0003*%
%ADD31R,0.0072X0.0003*%
%ADD32R,0.0036X0.0003*%
%ADD33R,0.0036X0.0003*%
%ADD34R,0.0078X0.0003*%
%ADD35R,0.0066X0.0003*%
%ADD36R,0.0033X0.0003*%
%ADD37R,0.0054X0.0003*%
%ADD38R,0.0066X0.0003*%
%ADD39R,0.0081X0.0003*%
%ADD40R,0.0090X0.0003*%
%ADD41R,0.0045X0.0003*%
%ADD42R,0.0087X0.0003*%
%ADD43R,0.0057X0.0003*%
%ADD44R,0.0090X0.0003*%
%ADD45R,0.0114X0.0003*%
%ADD46R,0.0075X0.0003*%
%ADD47R,0.0057X0.0003*%
%ADD48R,0.0093X0.0003*%
%ADD49R,0.0093X0.0003*%
%ADD50R,0.0099X0.0003*%
%ADD51R,0.0060X0.0003*%
%ADD52R,0.0099X0.0003*%
%ADD53R,0.0117X0.0003*%
%ADD54R,0.0102X0.0003*%
%ADD55R,0.0108X0.0003*%
%ADD56R,0.0105X0.0003*%
%ADD57R,0.0111X0.0003*%
%ADD58R,0.0045X0.0003*%
%ADD59R,0.0114X0.0003*%
%ADD60R,0.0039X0.0003*%
%ADD61R,0.0009X0.0003*%
%ADD62R,0.0042X0.0003*%
%ADD63R,0.0006X0.0003*%
%ADD64R,0.0039X0.0003*%
%ADD65R,0.0042X0.0003*%
%ADD66R,0.0042X0.0003*%
%ADD67R,0.0006X0.0003*%
%ADD68R,0.0012X0.0003*%
%ADD69R,0.0033X0.0003*%
%ADD70R,0.0063X0.0003*%
%ADD71R,0.0048X0.0003*%
%ADD72R,0.0075X0.0003*%
%ADD73R,0.0078X0.0003*%
%ADD74R,0.0123X0.0003*%
%ADD75R,0.0126X0.0003*%
%ADD76R,0.0096X0.0003*%
%ADD77R,0.0096X0.0003*%
%ADD78R,0.0084X0.0003*%
%ADD79R,0.0084X0.0003*%
%ADD80R,0.0060X0.0003*%
%ADD81R,0.0084X0.0003*%
%ADD82R,0.0009X0.0003*%
%ADD83R,0.0021X0.0003*%
%ADD84R,0.0051X0.0003*%
%ADD85R,0.0012X0.0003*%
%ADD86R,0.0051X0.0003*%
%ADD87R,0.0081X0.0003*%
%ADD88R,0.0078X0.0003*%
%ADD89R,0.0081X0.0003*%
%ADD90R,0.0192X0.0003*%
%ADD91R,0.0120X0.0003*%
%ADD92R,0.0195X0.0003*%
%ADD93R,0.0087X0.0003*%
%ADD94R,0.0069X0.0003*%
%ADD95R,0.0087X0.0003*%
%ADD96R,0.0072X0.0003*%
%ADD97R,0.0081X0.0003*%
%ADD98R,0.0069X0.0003*%
%ADD99R,0.0069X0.0003*%
%ADD100R,0.0072X0.0003*%
%ADD101R,0.0003X0.0003*%
%ADD102R,0.0012X0.0003*%
%ADD103R,0.0027X0.0003*%
%ADD104R,0.0024X0.0003*%
%ADD105R,0.0027X0.0003*%
%ADD106R,0.0018X0.0003*%
%ADD107R,0.0009X0.0003*%
%ADD108R,0.0348X0.0003*%
%ADD109R,0.0309X0.0003*%
%ADD110R,0.0228X0.0003*%
%ADD111R,0.0243X0.0003*%
%ADD112R,0.0318X0.0003*%
%ADD113R,0.0240X0.0003*%
%ADD114R,0.0255X0.0003*%
%ADD115R,0.0348X0.0003*%
%ADD116R,0.0327X0.0003*%
%ADD117R,0.0249X0.0003*%
%ADD118R,0.0264X0.0003*%
%ADD119R,0.0330X0.0003*%
%ADD120R,0.0258X0.0003*%
%ADD121R,0.0270X0.0003*%
%ADD122R,0.0336X0.0003*%
%ADD123R,0.0264X0.0003*%
%ADD124R,0.0276X0.0003*%
%ADD125R,0.0339X0.0003*%
%ADD126R,0.0282X0.0003*%
%ADD127R,0.0342X0.0003*%
%ADD128R,0.0273X0.0003*%
%ADD129R,0.0288X0.0003*%
%ADD130R,0.0345X0.0003*%
%ADD131R,0.0279X0.0003*%
%ADD132R,0.0291X0.0003*%
%ADD133R,0.0345X0.0003*%
%ADD134R,0.0294X0.0003*%
%ADD135R,0.0297X0.0003*%
%ADD136R,0.0351X0.0003*%
%ADD137R,0.0291X0.0003*%
%ADD138R,0.0300X0.0003*%
%ADD139R,0.0303X0.0003*%
%ADD140R,0.0354X0.0003*%
%ADD141R,0.0297X0.0003*%
%ADD142R,0.0306X0.0003*%
%ADD143R,0.0354X0.0003*%
%ADD144R,0.0357X0.0003*%
%ADD145R,0.0312X0.0003*%
%ADD146R,0.0306X0.0003*%
%ADD147R,0.0315X0.0003*%
%ADD148R,0.0360X0.0003*%
%ADD149R,0.0309X0.0003*%
%ADD150R,0.0315X0.0003*%
%ADD151R,0.0360X0.0003*%
%ADD152R,0.0321X0.0003*%
%ADD153R,0.0093X0.0003*%
%ADD154R,0.0321X0.0003*%
%ADD155R,0.0324X0.0003*%
%ADD156R,0.0363X0.0003*%
%ADD157R,0.0321X0.0003*%
%ADD158R,0.0324X0.0003*%
%ADD159R,0.0327X0.0003*%
%ADD160R,0.0363X0.0003*%
%ADD161R,0.0129X0.0003*%
%ADD162R,0.0117X0.0003*%
%ADD163R,0.0111X0.0003*%
%ADD164R,0.0093X0.0003*%
%ADD165R,0.0084X0.0003*%
%ADD166R,0.0177X0.0003*%
%ADD167R,0.0306X0.0003*%
%ADD168R,0.0186X0.0003*%
%ADD169R,0.0249X0.0003*%
%ADD170R,0.0204X0.0003*%
%ADD171R,0.0210X0.0003*%
%ADD172R,0.0246X0.0003*%
%ADD173R,0.0336X0.0003*%
%ADD174R,0.0216X0.0003*%
%ADD175R,0.0246X0.0003*%
%ADD176R,0.0219X0.0003*%
%ADD177R,0.0225X0.0003*%
%ADD178R,0.0231X0.0003*%
%ADD179R,0.0240X0.0003*%
%ADD180R,0.0234X0.0003*%
%ADD181R,0.0237X0.0003*%
%ADD182R,0.0234X0.0003*%
%ADD183R,0.0243X0.0003*%
%ADD184R,0.0225X0.0003*%
%ADD185R,0.0246X0.0003*%
%ADD186R,0.0222X0.0003*%
%ADD187R,0.0249X0.0003*%
%ADD188R,0.0252X0.0003*%
%ADD189R,0.0231X0.0003*%
%ADD190R,0.0252X0.0003*%
%ADD191R,0.0234X0.0003*%
%ADD192R,0.0312X0.0003*%
%ADD193R,0.0261X0.0003*%
%ADD194R,0.0306X0.0003*%
%ADD195R,0.0261X0.0003*%
%ADD196R,0.0264X0.0003*%
%ADD197R,0.0264X0.0003*%
%ADD198R,0.0303X0.0003*%
%ADD199R,0.0078X0.0003*%
%ADD200R,0.0096X0.0003*%
%ADD201R,0.0102X0.0003*%
%ADD202R,0.0324X0.0003*%
%ADD203R,0.0333X0.0003*%
%ADD204R,0.0321X0.0003*%
%ADD205R,0.0333X0.0003*%
%ADD206R,0.0330X0.0003*%
%ADD207R,0.0327X0.0003*%
%ADD208R,0.0324X0.0003*%
%ADD209R,0.0312X0.0003*%
%ADD210R,0.0309X0.0003*%
%ADD211R,0.0318X0.0003*%
%ADD212R,0.0297X0.0003*%
%ADD213R,0.0294X0.0003*%
%ADD214R,0.0309X0.0003*%
%ADD215R,0.0291X0.0003*%
%ADD216R,0.0285X0.0003*%
%ADD217R,0.0279X0.0003*%
%ADD218R,0.0294X0.0003*%
%ADD219R,0.0276X0.0003*%
%ADD220R,0.0288X0.0003*%
%ADD221R,0.0267X0.0003*%
%ADD222R,0.0252X0.0003*%
%ADD223R,0.0270X0.0003*%
%ADD224R,0.0267X0.0003*%
%ADD225R,0.0144X0.0003*%
%ADD226R,0.0147X0.0003*%
%ADD227R,0.0123X0.0003*%
%ADD228R,0.0147X0.0003*%
%ADD229R,0.0162X0.0003*%
%ADD230R,0.0339X0.0003*%
%ADD231R,0.0378X0.0003*%
%ADD232R,0.0414X0.0003*%
%ADD233R,0.0453X0.0003*%
%ADD234R,0.0147X0.0003*%
%ADD235R,0.0489X0.0003*%
%ADD236R,0.0147X0.0003*%
%ADD237R,0.0531X0.0003*%
%ADD238R,0.0576X0.0003*%
%ADD239R,0.0612X0.0003*%
%ADD240R,0.0645X0.0003*%
%ADD241R,0.0678X0.0003*%
%ADD242R,0.0717X0.0003*%
%ADD243R,0.0144X0.0003*%
%ADD244R,0.0753X0.0003*%
%ADD245R,0.0792X0.0003*%
%ADD246R,0.0828X0.0003*%
%ADD247R,0.0867X0.0003*%
%ADD248R,0.0903X0.0003*%
%ADD249R,0.1086X0.0003*%
%ADD250R,0.1083X0.0003*%
%ADD251R,0.1083X0.0003*%
%ADD252R,0.1092X0.0003*%
%ADD253R,0.1131X0.0003*%
%ADD254R,0.1167X0.0003*%
%ADD255R,0.1203X0.0003*%
%ADD256R,0.1242X0.0003*%
%ADD257R,0.1278X0.0003*%
%ADD258R,0.1359X0.0003*%
%ADD259R,0.1392X0.0003*%
%ADD260R,0.1428X0.0003*%
%ADD261R,0.1467X0.0003*%
%ADD262R,0.1503X0.0003*%
%ADD263R,0.1563X0.0003*%
%ADD264R,0.1578X0.0003*%
%ADD265R,0.1617X0.0003*%
%ADD266R,0.1638X0.0003*%
%ADD267R,0.1611X0.0003*%
%ADD268R,0.1614X0.0003*%
%ADD269R,0.1614X0.0003*%
%ADD270R,0.1683X0.0003*%
%ADD271R,0.1650X0.0003*%
%ADD272R,0.1623X0.0003*%
%ADD273R,0.1623X0.0003*%
%ADD274R,0.1626X0.0003*%
%ADD275R,0.1629X0.0003*%
%ADD276R,0.1629X0.0003*%
%ADD277R,0.1632X0.0003*%
%ADD278R,0.1635X0.0003*%
%ADD279R,0.1641X0.0003*%
%ADD280R,0.1641X0.0003*%
%ADD281R,0.1644X0.0003*%
%ADD282R,0.1647X0.0003*%
%ADD283R,0.1656X0.0003*%
%ADD284R,0.1620X0.0003*%
%ADD285R,0.1584X0.0003*%
%ADD286R,0.1602X0.0003*%
%ADD287R,0.1674X0.0003*%
%ADD288R,0.1674X0.0003*%
%ADD289R,0.1494X0.0003*%
%ADD290R,0.1461X0.0003*%
%ADD291R,0.0141X0.0003*%
%ADD292R,0.1425X0.0003*%
%ADD293R,0.0141X0.0003*%
%ADD294R,0.1389X0.0003*%
%ADD295R,0.1374X0.0003*%
%ADD296R,0.1317X0.0003*%
%ADD297R,0.1284X0.0003*%
%ADD298R,0.1248X0.0003*%
%ADD299R,0.0144X0.0003*%
%ADD300R,0.1212X0.0003*%
%ADD301R,0.1176X0.0003*%
%ADD302R,0.1140X0.0003*%
%ADD303R,0.0141X0.0003*%
%ADD304R,0.1107X0.0003*%
%ADD305R,0.1071X0.0003*%
%ADD306R,0.0141X0.0003*%
%ADD307R,0.1035X0.0003*%
%ADD308R,0.1002X0.0003*%
%ADD309R,0.0966X0.0003*%
%ADD310R,0.0810X0.0003*%
%ADD311R,0.0027X0.0003*%
%ADD312R,0.0810X0.0003*%
%ADD313R,0.0138X0.0003*%
%ADD314R,0.0708X0.0003*%
%ADD315R,0.0705X0.0003*%
%ADD316R,0.0138X0.0003*%
%ADD317R,0.0681X0.0003*%
%ADD318R,0.0609X0.0003*%
%ADD319R,0.0573X0.0003*%
%ADD320R,0.0135X0.0003*%
%ADD321R,0.0540X0.0003*%
%ADD322R,0.0135X0.0003*%
%ADD323R,0.0504X0.0003*%
%ADD324R,0.0468X0.0003*%
%ADD325R,0.0432X0.0003*%
%ADD326R,0.0396X0.0003*%
%ADD327R,0.0159X0.0003*%
%ADD328R,0.0219X0.0003*%
%ADD329R,0.0408X0.0003*%
%ADD330R,0.0186X0.0003*%
%ADD331R,0.0462X0.0003*%
%ADD332R,0.0150X0.0003*%
%ADD333R,0.0507X0.0003*%
%ADD334R,0.0561X0.0003*%
%ADD335R,0.0615X0.0003*%
%ADD336R,0.0660X0.0003*%
%ADD337R,0.0777X0.0003*%
%ADD338R,0.0777X0.0003*%
%ADD339R,0.0858X0.0003*%
%ADD340R,0.0861X0.0003*%
%ADD341R,0.0861X0.0003*%
%ADD342R,0.0864X0.0003*%
%ADD343R,0.0864X0.0003*%
%ADD344R,0.0867X0.0003*%
%ADD345R,0.0867X0.0003*%
%ADD346R,0.0870X0.0003*%
%ADD347R,0.0873X0.0003*%
%ADD348R,0.0873X0.0003*%
%ADD349R,0.0876X0.0003*%
%ADD350R,0.0879X0.0003*%
%ADD351R,0.0879X0.0003*%
%ADD352R,0.0456X0.0003*%
%ADD353R,0.0180X0.0003*%
%ADD354R,0.0456X0.0003*%
%ADD355R,0.0180X0.0003*%
%ADD356R,0.0459X0.0003*%
%ADD357R,0.0459X0.0003*%
%ADD358R,0.0183X0.0003*%
%ADD359R,0.0183X0.0003*%
%ADD360R,0.0462X0.0003*%
%ADD361R,0.0462X0.0003*%
%ADD362R,0.0138X0.0003*%
%ADD363R,0.0465X0.0003*%
%ADD364R,0.0465X0.0003*%
%ADD365R,0.0186X0.0003*%
%ADD366R,0.0189X0.0003*%
%ADD367R,0.0189X0.0003*%
%ADD368R,0.0192X0.0003*%
%ADD369R,0.0468X0.0003*%
%ADD370R,0.0471X0.0003*%
%ADD371R,0.0471X0.0003*%
%ADD372R,0.0195X0.0003*%
%ADD373R,0.0474X0.0003*%
%ADD374R,0.0474X0.0003*%
%ADD375R,0.0198X0.0003*%
%ADD376R,0.0198X0.0003*%
%ADD377R,0.0477X0.0003*%
%ADD378R,0.0477X0.0003*%
%ADD379R,0.0201X0.0003*%
%ADD380R,0.0480X0.0003*%
%ADD381R,0.0480X0.0003*%
%ADD382R,0.0201X0.0003*%
%ADD383R,0.0138X0.0003*%
%ADD384R,0.0204X0.0003*%
%ADD385R,0.0207X0.0003*%
%ADD386R,0.0207X0.0003*%
%ADD387R,0.0483X0.0003*%
%ADD388R,0.0483X0.0003*%
%ADD389R,0.0210X0.0003*%
%ADD390R,0.0486X0.0003*%
%ADD391R,0.0486X0.0003*%
%ADD392R,0.0489X0.0003*%
%ADD393R,0.0213X0.0003*%
%ADD394R,0.0489X0.0003*%
%ADD395R,0.0213X0.0003*%
%ADD396R,0.0111X0.0003*%
%ADD397R,0.0216X0.0003*%
%ADD398R,0.0108X0.0003*%
%ADD399R,0.0108X0.0003*%
%ADD400R,0.0222X0.0003*%
%ADD401R,0.0063X0.0003*%
%ADD402R,0.0105X0.0003*%
%ADD403R,0.0222X0.0003*%
%ADD404R,0.0132X0.0003*%
%ADD405R,0.0132X0.0003*%
%ADD406R,0.0132X0.0003*%
%ADD407R,0.0228X0.0003*%
%ADD408R,0.0231X0.0003*%
%ADD409R,0.0102X0.0003*%
%ADD410R,0.0099X0.0003*%
%ADD411R,0.0237X0.0003*%
%ADD412R,0.0243X0.0003*%
%ADD413R,0.0243X0.0003*%
%ADD414R,0.0102X0.0003*%
%ADD415R,0.0585X0.0003*%
%ADD416R,0.0588X0.0003*%
%ADD417R,0.0588X0.0003*%
%ADD418R,0.0108X0.0003*%
%ADD419R,0.0627X0.0003*%
%ADD420R,0.0732X0.0003*%
%ADD421R,0.0825X0.0003*%
%ADD422R,0.1026X0.0003*%
%ADD423R,0.1026X0.0003*%
%ADD424R,0.1029X0.0003*%
%ADD425R,0.1032X0.0003*%
%ADD426R,0.0012X0.0003*%
%ADD427R,0.1032X0.0003*%
%ADD428R,0.1035X0.0003*%
%ADD429R,0.0132X0.0003*%
%ADD430R,0.0996X0.0003*%
%ADD431R,0.0795X0.0003*%
%ADD432R,0.0657X0.0003*%
%ADD433R,0.0516X0.0003*%
%ADD434R,0.0390X0.0003*%
%ADD435R,0.0099X0.0003*%
%ADD436R,0.0129X0.0003*%
%ADD437R,0.0153X0.0003*%
%ADD438R,0.0165X0.0003*%
%ADD439R,0.0246X0.0003*%
%ADD440R,0.0168X0.0003*%
%ADD441R,0.0168X0.0003*%
%ADD442R,0.0198X0.0003*%
%ADD443R,0.0261X0.0003*%
%ADD444R,0.0168X0.0003*%
%ADD445R,0.0171X0.0003*%
%ADD446R,0.0438X0.0003*%
%ADD447R,0.0171X0.0003*%
%ADD448R,0.0876X0.0003*%
%ADD449R,0.0174X0.0003*%
%ADD450R,0.1095X0.0003*%
%ADD451R,0.0174X0.0003*%
%ADD452R,0.1317X0.0003*%
%ADD453R,0.0174X0.0003*%
%ADD454R,0.1458X0.0003*%
%ADD455R,0.1845X0.0003*%
%ADD456R,0.1842X0.0003*%
%ADD457R,0.1839X0.0003*%
%ADD458R,0.1836X0.0003*%
%ADD459R,0.1833X0.0003*%
%ADD460R,0.1830X0.0003*%
%ADD461R,0.1827X0.0003*%
%ADD462R,0.1824X0.0003*%
%ADD463R,0.1821X0.0003*%
%ADD464R,0.1818X0.0003*%
%ADD465R,0.1815X0.0003*%
%ADD466R,0.1809X0.0003*%
%ADD467R,0.1806X0.0003*%
%ADD468R,0.1803X0.0003*%
%ADD469R,0.1800X0.0003*%
%ADD470R,0.1794X0.0003*%
%ADD471R,0.1743X0.0003*%
%ADD472R,0.1734X0.0003*%
%ADD473R,0.1662X0.0003*%
%ADD474R,0.1620X0.0003*%
%ADD475R,0.1608X0.0003*%
%ADD476R,0.1596X0.0003*%
%ADD477R,0.1572X0.0003*%
%ADD478R,0.1554X0.0003*%
%ADD479R,0.1545X0.0003*%
%ADD480R,0.1539X0.0003*%
%ADD481R,0.1530X0.0003*%
%ADD482R,0.1524X0.0003*%
%ADD483R,0.1518X0.0003*%
%ADD484R,0.1158X0.0003*%
%ADD485R,0.0924X0.0003*%
%ADD486R,0.0690X0.0003*%
%ADD487R,0.0456X0.0003*%
%ADD488R,0.0150X0.0003*%
%ADD489R,0.0213X0.0003*%
%ADD490R,0.0153X0.0003*%
%ADD491R,0.0156X0.0003*%
%ADD492R,0.0156X0.0003*%
%ADD493R,0.0207X0.0003*%
%ADD494R,0.0387X0.0003*%
%ADD495R,0.0159X0.0003*%
%ADD496R,0.0564X0.0003*%
%ADD497R,0.0741X0.0003*%
%ADD498R,0.0918X0.0003*%
%ADD499R,0.0159X0.0003*%
%ADD500R,0.1134X0.0003*%
%ADD501R,0.1269X0.0003*%
%ADD502R,0.1296X0.0003*%
%ADD503R,0.1290X0.0003*%
%ADD504R,0.1275X0.0003*%
%ADD505R,0.1269X0.0003*%
%ADD506R,0.1263X0.0003*%
%ADD507R,0.1257X0.0003*%
%ADD508R,0.1251X0.0003*%
%ADD509R,0.1242X0.0003*%
%ADD510R,0.1239X0.0003*%
%ADD511R,0.1233X0.0003*%
%ADD512R,0.1227X0.0003*%
%ADD513R,0.1221X0.0003*%
%ADD514R,0.1215X0.0003*%
%ADD515R,0.1209X0.0003*%
%ADD516R,0.1203X0.0003*%
%ADD517R,0.1200X0.0003*%
%ADD518R,0.1194X0.0003*%
%ADD519R,0.1188X0.0003*%
%ADD520R,0.1182X0.0003*%
%ADD521R,0.1170X0.0003*%
%ADD522R,0.0642X0.0003*%
%ADD523R,0.0522X0.0003*%
%ADD524R,0.0621X0.0003*%
%ADD525R,0.0498X0.0003*%
%ADD526R,0.0486X0.0003*%
%ADD527R,0.0600X0.0003*%
%ADD528R,0.0591X0.0003*%
%ADD529R,0.0462X0.0003*%
%ADD530R,0.0576X0.0003*%
%ADD531R,0.0459X0.0003*%
%ADD532R,0.0570X0.0003*%
%ADD533R,0.0564X0.0003*%
%ADD534R,0.0447X0.0003*%
%ADD535R,0.0558X0.0003*%
%ADD536R,0.0441X0.0003*%
%ADD537R,0.0552X0.0003*%
%ADD538R,0.0435X0.0003*%
%ADD539R,0.0549X0.0003*%
%ADD540R,0.0429X0.0003*%
%ADD541R,0.0543X0.0003*%
%ADD542R,0.0426X0.0003*%
%ADD543R,0.0537X0.0003*%
%ADD544R,0.0423X0.0003*%
%ADD545R,0.0534X0.0003*%
%ADD546R,0.0417X0.0003*%
%ADD547R,0.0528X0.0003*%
%ADD548R,0.0414X0.0003*%
%ADD549R,0.0525X0.0003*%
%ADD550R,0.0408X0.0003*%
%ADD551R,0.0519X0.0003*%
%ADD552R,0.0405X0.0003*%
%ADD553R,0.0204X0.0003*%
%ADD554R,0.0513X0.0003*%
%ADD555R,0.0399X0.0003*%
%ADD556R,0.0396X0.0003*%
%ADD557R,0.0504X0.0003*%
%ADD558R,0.0393X0.0003*%
%ADD559R,0.0501X0.0003*%
%ADD560R,0.0387X0.0003*%
%ADD561R,0.0498X0.0003*%
%ADD562R,0.0384X0.0003*%
%ADD563R,0.0495X0.0003*%
%ADD564R,0.0492X0.0003*%
%ADD565R,0.0381X0.0003*%
%ADD566R,0.0486X0.0003*%
%ADD567R,0.0378X0.0003*%
%ADD568R,0.0483X0.0003*%
%ADD569R,0.0375X0.0003*%
%ADD570R,0.0372X0.0003*%
%ADD571R,0.0369X0.0003*%
%ADD572R,0.0477X0.0003*%
%ADD573R,0.0366X0.0003*%
%ADD574R,0.0474X0.0003*%
%ADD575R,0.0366X0.0003*%
%ADD576R,0.0471X0.0003*%
%ADD577R,0.0357X0.0003*%
%ADD578R,0.0357X0.0003*%
%ADD579R,0.0351X0.0003*%
%ADD580R,0.0450X0.0003*%
%ADD581R,0.0351X0.0003*%
%ADD582R,0.0450X0.0003*%
%ADD583R,0.0201X0.0003*%
%ADD584R,0.0447X0.0003*%
%ADD585R,0.0447X0.0003*%
%ADD586R,0.0348X0.0003*%
%ADD587R,0.0354X0.0003*%
%ADD588R,0.0357X0.0003*%
%ADD589R,0.0861X0.0003*%
%ADD590R,0.0855X0.0003*%
%ADD591R,0.0849X0.0003*%
%ADD592R,0.0843X0.0003*%
%ADD593R,0.0837X0.0003*%
%ADD594R,0.0831X0.0003*%
%ADD595R,0.0828X0.0003*%
%ADD596R,0.0822X0.0003*%
%ADD597R,0.0816X0.0003*%
%ADD598R,0.0804X0.0003*%
%ADD599R,0.0798X0.0003*%
%ADD600R,0.0792X0.0003*%
%ADD601R,0.0789X0.0003*%
%ADD602R,0.0783X0.0003*%
%ADD603R,0.0771X0.0003*%
%ADD604R,0.0765X0.0003*%
%ADD605R,0.0759X0.0003*%
%ADD606R,0.0756X0.0003*%
%ADD607R,0.0750X0.0003*%
%ADD608R,0.0744X0.0003*%
%ADD609R,0.0738X0.0003*%
%ADD610R,0.0732X0.0003*%
%ADD611R,0.0726X0.0003*%
%ADD612R,0.0723X0.0003*%
%ADD613R,0.0717X0.0003*%
%ADD614R,0.0711X0.0003*%
%ADD615R,0.0699X0.0003*%
%ADD616R,0.0693X0.0003*%
%ADD617R,0.0690X0.0003*%
%ADD618R,0.0684X0.0003*%
%ADD619R,0.0678X0.0003*%
%ADD620R,0.0672X0.0003*%
%ADD621R,0.0666X0.0003*%
%ADD622R,0.0660X0.0003*%
%ADD623R,0.0651X0.0003*%
%ADD624R,0.0639X0.0003*%
%ADD625R,0.0633X0.0003*%
%ADD626R,0.0621X0.0003*%
%ADD627R,0.0603X0.0003*%
%ADD628R,0.0597X0.0003*%
%ADD629R,0.0591X0.0003*%
%ADD630R,0.0192X0.0003*%
%ADD631R,0.0582X0.0003*%
%ADD632R,0.0576X0.0003*%
%ADD633R,0.0558X0.0003*%
%ADD634R,0.0552X0.0003*%
%ADD635R,0.0549X0.0003*%
%ADD636R,0.0543X0.0003*%
%ADD637R,0.0537X0.0003*%
%ADD638R,0.0525X0.0003*%
%ADD639R,0.0519X0.0003*%
%ADD640R,0.0510X0.0003*%
%ADD641R,0.0504X0.0003*%
%ADD642R,0.0492X0.0003*%
%ADD643R,0.0189X0.0003*%
%ADD644R,0.0189X0.0003*%
%ADD645R,0.0444X0.0003*%
%ADD646R,0.0438X0.0003*%
%ADD647R,0.0420X0.0003*%
%ADD648R,0.0411X0.0003*%
%ADD649R,0.0393X0.0003*%
%ADD650R,0.0381X0.0003*%
%ADD651R,0.0378X0.0003*%
%ADD652R,0.0372X0.0003*%
%ADD653R,0.0186X0.0003*%
%ADD654R,0.0348X0.0003*%
%ADD655R,0.0342X0.0003*%
%ADD656R,0.0279X0.0003*%
%ADD657R,0.0237X0.0003*%
%ADD658R,0.0183X0.0003*%
%ADD659R,0.0219X0.0003*%
%ADD660R,0.0216X0.0003*%
%ADD661R,0.0390X0.0003*%
%ADD662R,0.0384X0.0003*%
%ADD663R,0.0339X0.0003*%
%ADD664R,0.0021X0.0003*%
%ADD665R,0.0015X0.0003*%
%ADD666R,0.0228X0.0003*%
%ADD667R,0.0219X0.0003*%
%ADD668R,0.0129X0.0003*%
%ADD669R,0.0123X0.0003*%
%ADD670R,0.0117X0.0003*%
%ADD671R,0.0114X0.0003*%
%ADD672R,0.0018X0.0003*%
%ADD673C,0.0768*%
%ADD674C,0.0768*%
%ADD675C,0.0554*%
%ADD676C,0.0594*%
%ADD677OC8,0.0554*%
%ADD678C,0.0554*%
%ADD679C,0.1000*%
%ADD680OC8,0.1000*%
%ADD681R,0.0681X0.0657*%
%ADD682OC8,0.0594*%
%ADD683C,0.0709*%
%ADD684C,0.0760*%
%ADD685OC8,0.0475*%
%ADD686C,0.0240*%
%ADD687C,0.0320*%
%ADD688C,0.0160*%
D10*
X022285Y024792D02*
X022285Y025382D01*
X022088Y025382D02*
X022482Y025382D01*
X022733Y025284D02*
X022733Y024890D01*
X022831Y024792D01*
X023028Y024792D01*
X023126Y024890D01*
X023126Y025284D01*
X023028Y025382D01*
X022831Y025382D01*
X022733Y025284D01*
X023377Y025382D02*
X023672Y025382D01*
X023771Y025284D01*
X023771Y025087D01*
X023672Y024989D01*
X023377Y024989D01*
X023377Y024792D02*
X023377Y025382D01*
D11*
X029587Y006718D02*
X029772Y006718D01*
X029834Y006656D01*
X029834Y006533D01*
X029772Y006471D01*
X029587Y006471D01*
X029587Y006348D02*
X029587Y006718D01*
X029711Y006471D02*
X029834Y006348D01*
X029955Y006409D02*
X029955Y006533D01*
X030017Y006595D01*
X030141Y006595D01*
X030202Y006533D01*
X030202Y006471D01*
X029955Y006471D01*
X029955Y006409D02*
X030017Y006348D01*
X030141Y006348D01*
X030324Y006348D02*
X030447Y006348D01*
X030385Y006348D02*
X030385Y006718D01*
X030324Y006718D01*
X030631Y006595D02*
X030754Y006595D01*
X030816Y006533D01*
X030816Y006348D01*
X030631Y006348D01*
X030569Y006409D01*
X030631Y006471D01*
X030816Y006471D01*
X030938Y006348D02*
X031061Y006348D01*
X030999Y006348D02*
X030999Y006595D01*
X030938Y006595D01*
X030999Y006718D02*
X030999Y006780D01*
X031245Y006595D02*
X031430Y006595D01*
X031551Y006595D02*
X031551Y006656D01*
X031613Y006718D01*
X031736Y006718D01*
X031798Y006656D01*
X031798Y006595D01*
X031736Y006533D01*
X031613Y006533D01*
X031551Y006595D01*
X031613Y006533D02*
X031551Y006471D01*
X031551Y006409D01*
X031613Y006348D01*
X031736Y006348D01*
X031798Y006409D01*
X031798Y006471D01*
X031736Y006533D01*
X031920Y006595D02*
X032166Y006348D01*
X032288Y006348D02*
X032535Y006595D01*
X032535Y006656D01*
X032473Y006718D01*
X032350Y006718D01*
X032288Y006656D01*
X032166Y006595D02*
X031920Y006348D01*
X032288Y006348D02*
X032535Y006348D01*
X032656Y006409D02*
X032718Y006348D01*
X032841Y006348D01*
X032903Y006409D01*
X032903Y006471D01*
X032841Y006533D01*
X032780Y006533D01*
X032841Y006533D02*
X032903Y006595D01*
X032903Y006656D01*
X032841Y006718D01*
X032718Y006718D01*
X032656Y006656D01*
X033025Y006656D02*
X033086Y006718D01*
X033210Y006718D01*
X033271Y006656D01*
X033025Y006409D01*
X033086Y006348D01*
X033210Y006348D01*
X033271Y006409D01*
X033271Y006656D01*
X033025Y006656D02*
X033025Y006409D01*
X033393Y006224D02*
X033516Y006348D01*
X033455Y006348D01*
X033455Y006409D01*
X033516Y006409D01*
X033516Y006348D01*
X034007Y006348D02*
X034007Y006718D01*
X034192Y006718D01*
X034254Y006656D01*
X034254Y006533D01*
X034192Y006471D01*
X034007Y006471D01*
X034130Y006471D02*
X034254Y006348D01*
X034375Y006409D02*
X034375Y006533D01*
X034437Y006595D01*
X034560Y006595D01*
X034622Y006533D01*
X034622Y006471D01*
X034375Y006471D01*
X034375Y006409D02*
X034437Y006348D01*
X034560Y006348D01*
X034867Y006348D02*
X034990Y006595D01*
X035112Y006409D02*
X035173Y006409D01*
X035173Y006348D01*
X035112Y006348D01*
X035112Y006409D01*
X034867Y006348D02*
X034743Y006595D01*
X035664Y006595D02*
X035664Y006656D01*
X035726Y006718D01*
X035849Y006718D01*
X035911Y006656D01*
X035911Y006595D01*
X035849Y006533D01*
X035726Y006533D01*
X035664Y006595D01*
X035726Y006533D02*
X035664Y006471D01*
X035664Y006409D01*
X035726Y006348D01*
X035849Y006348D01*
X035911Y006409D01*
X035911Y006471D01*
X035849Y006533D01*
X036032Y006409D02*
X036094Y006409D01*
X036094Y006348D01*
X036032Y006348D01*
X036032Y006409D01*
X036216Y006409D02*
X036278Y006348D01*
X036402Y006348D01*
X036463Y006409D01*
X036463Y006471D01*
X036402Y006533D01*
X036340Y006533D01*
X036402Y006533D02*
X036463Y006595D01*
X036463Y006656D01*
X036402Y006718D01*
X036278Y006718D01*
X036216Y006656D01*
X036646Y006595D02*
X036770Y006595D01*
X036832Y006533D01*
X036832Y006348D01*
X036646Y006348D01*
X036585Y006409D01*
X036646Y006471D01*
X036832Y006471D01*
X031430Y006409D02*
X031368Y006471D01*
X031245Y006471D01*
X031183Y006533D01*
X031245Y006595D01*
X031183Y006348D02*
X031368Y006348D01*
X031430Y006409D01*
D12*
X021209Y021149D03*
X021134Y021245D03*
X021014Y021947D03*
D13*
X021214Y021152D03*
D14*
X021217Y021155D03*
X021736Y021251D03*
X019927Y021185D03*
X019624Y021185D03*
X020371Y023882D03*
D15*
X019664Y021233D03*
X019775Y021188D03*
X021218Y021158D03*
X021248Y021203D03*
D16*
X021220Y021161D03*
X020725Y021185D03*
X020233Y021251D03*
X020203Y021260D03*
X020008Y022526D03*
X020008Y022529D03*
X020008Y022532D03*
X020008Y022535D03*
X020008Y022541D03*
D17*
X020006Y022544D03*
X020006Y022547D03*
X020006Y022550D03*
X020006Y022556D03*
X020006Y022559D03*
X020369Y023867D03*
X020369Y023870D03*
X021221Y021164D03*
X021863Y021260D03*
D18*
X021355Y021239D03*
X021247Y021191D03*
X021235Y021167D03*
X021067Y021239D03*
X020917Y021251D03*
X020758Y021200D03*
X020071Y021200D03*
X020002Y021200D03*
X019603Y021197D03*
X019423Y021266D03*
X021517Y021992D03*
D19*
X021728Y021242D03*
X021728Y021239D03*
X021809Y021239D03*
X021809Y021242D03*
X021503Y021200D03*
X021248Y021185D03*
X021248Y021182D03*
X021239Y021170D03*
X021209Y021245D03*
X021206Y021251D03*
X020924Y021245D03*
X020924Y021242D03*
X020774Y021215D03*
X020771Y021209D03*
X020768Y021206D03*
X020771Y021239D03*
X020681Y021206D03*
X020678Y021209D03*
X020528Y021200D03*
X020204Y021266D03*
X020084Y021236D03*
X020081Y021242D03*
X020078Y021245D03*
X020081Y021209D03*
X020078Y021206D03*
X019991Y021206D03*
X019988Y021209D03*
X019988Y021239D03*
X019991Y021242D03*
X019994Y021245D03*
X019748Y021209D03*
X019598Y021200D03*
X019316Y021200D03*
X019064Y021281D03*
D20*
X019985Y021218D03*
X020372Y021203D03*
X020450Y021203D03*
X020525Y021248D03*
X021242Y021173D03*
X021347Y021203D03*
D21*
X021346Y021206D03*
X021349Y021242D03*
X021352Y021251D03*
X021292Y021254D03*
X021292Y021257D03*
X021289Y021251D03*
X021286Y021245D03*
X021277Y021230D03*
X021274Y021224D03*
X021247Y021179D03*
X021244Y021176D03*
X021214Y021236D03*
X021214Y021239D03*
X021211Y021242D03*
X021202Y021257D03*
X021199Y021266D03*
X021142Y021200D03*
X021061Y021242D03*
X021064Y021251D03*
X020926Y021239D03*
X020926Y021236D03*
X020926Y021230D03*
X020926Y021227D03*
X020926Y021224D03*
X020926Y021221D03*
X020926Y021215D03*
X020926Y021212D03*
X020926Y021209D03*
X020926Y021206D03*
X020926Y021200D03*
X020926Y021197D03*
X020926Y021194D03*
X020926Y021191D03*
X020926Y021185D03*
X020839Y021185D03*
X020839Y021191D03*
X020839Y021194D03*
X020839Y021197D03*
X020839Y021200D03*
X020839Y021206D03*
X020839Y021209D03*
X020839Y021212D03*
X020839Y021215D03*
X020839Y021221D03*
X020839Y021224D03*
X020839Y021227D03*
X020839Y021230D03*
X020839Y021236D03*
X020776Y021230D03*
X020776Y021227D03*
X020776Y021224D03*
X020776Y021221D03*
X020677Y021212D03*
X020674Y021221D03*
X020674Y021224D03*
X020674Y021227D03*
X020674Y021230D03*
X020677Y021236D03*
X020677Y021239D03*
X020611Y021239D03*
X020611Y021242D03*
X020611Y021245D03*
X020611Y021251D03*
X020611Y021254D03*
X020611Y021257D03*
X020611Y021260D03*
X020611Y021281D03*
X020611Y021284D03*
X020611Y021287D03*
X020611Y021290D03*
X020611Y021296D03*
X020611Y021236D03*
X020611Y021230D03*
X020611Y021227D03*
X020611Y021224D03*
X020611Y021221D03*
X020611Y021215D03*
X020611Y021212D03*
X020611Y021209D03*
X020611Y021206D03*
X020611Y021200D03*
X020611Y021197D03*
X020611Y021194D03*
X020611Y021191D03*
X020611Y021185D03*
X020452Y021206D03*
X020452Y021209D03*
X020452Y021245D03*
X020371Y021212D03*
X020371Y021209D03*
X020371Y021206D03*
X020149Y021230D03*
X020149Y021236D03*
X020149Y021239D03*
X020086Y021230D03*
X020086Y021227D03*
X020086Y021224D03*
X020086Y021221D03*
X020086Y021215D03*
X019987Y021215D03*
X019987Y021212D03*
X019984Y021221D03*
X019984Y021224D03*
X019984Y021227D03*
X019984Y021230D03*
X019987Y021236D03*
X019909Y021236D03*
X019909Y021239D03*
X019909Y021242D03*
X019909Y021245D03*
X019909Y021230D03*
X019909Y021227D03*
X019909Y021224D03*
X019909Y021221D03*
X019909Y021215D03*
X019909Y021212D03*
X019909Y021209D03*
X019909Y021206D03*
X019909Y021269D03*
X019909Y021272D03*
X019909Y021275D03*
X019909Y021281D03*
X019909Y021284D03*
X019834Y021266D03*
X019834Y021260D03*
X019834Y021257D03*
X019834Y021254D03*
X019834Y021251D03*
X019834Y021245D03*
X019834Y021242D03*
X019834Y021239D03*
X019834Y021236D03*
X019834Y021230D03*
X019834Y021227D03*
X019834Y021224D03*
X019834Y021221D03*
X019834Y021215D03*
X019834Y021212D03*
X019747Y021212D03*
X019747Y021215D03*
X019747Y021221D03*
X019747Y021224D03*
X019747Y021227D03*
X019747Y021230D03*
X019747Y021236D03*
X019747Y021239D03*
X019747Y021242D03*
X019747Y021245D03*
X019747Y021251D03*
X019747Y021254D03*
X019747Y021257D03*
X019747Y021260D03*
X019684Y021185D03*
X019597Y021206D03*
X019597Y021209D03*
X019597Y021212D03*
X019462Y021245D03*
X019426Y021182D03*
X019384Y021206D03*
X019381Y021209D03*
X019381Y021212D03*
X019381Y021215D03*
X019381Y021236D03*
X019381Y021239D03*
X019384Y021242D03*
X019324Y021236D03*
X019321Y021242D03*
X019321Y021206D03*
X019282Y021182D03*
X019237Y021212D03*
X019237Y021215D03*
X019237Y021236D03*
X019237Y021239D03*
X019192Y021266D03*
X019144Y021230D03*
X019144Y021227D03*
X019144Y021224D03*
X019144Y021221D03*
X019144Y021215D03*
X019144Y021212D03*
X019144Y021209D03*
X019144Y021206D03*
X019144Y021200D03*
X019144Y021197D03*
X019144Y021194D03*
X019144Y021191D03*
X019144Y021185D03*
X019414Y022817D03*
X020509Y023759D03*
X021502Y021284D03*
X021502Y021281D03*
X021502Y021275D03*
X021502Y021272D03*
X021502Y021269D03*
X021502Y021245D03*
X021502Y021242D03*
X021502Y021239D03*
X021502Y021236D03*
X021502Y021230D03*
X021502Y021227D03*
X021502Y021224D03*
X021502Y021221D03*
X021502Y021215D03*
X021502Y021212D03*
X021502Y021209D03*
X021502Y021206D03*
X021577Y021212D03*
X021577Y021215D03*
X021577Y021236D03*
X021622Y021182D03*
X021661Y021206D03*
X021664Y021236D03*
X021727Y021236D03*
X021727Y021230D03*
X021727Y021227D03*
X021727Y021224D03*
X021727Y021221D03*
X021727Y021215D03*
X021727Y021212D03*
X021727Y021209D03*
X021727Y021206D03*
X021727Y021200D03*
X021727Y021197D03*
X021727Y021194D03*
X021727Y021191D03*
X021727Y021185D03*
X021889Y021185D03*
X021889Y021191D03*
X021889Y021194D03*
X021889Y021197D03*
X021889Y021200D03*
X021889Y021206D03*
X021889Y021209D03*
X021889Y021212D03*
X021889Y021215D03*
X021889Y021221D03*
X021889Y021224D03*
X021889Y021227D03*
X021889Y021230D03*
X021889Y021236D03*
X021889Y021239D03*
X021889Y021242D03*
D22*
X021520Y021182D03*
X021508Y021989D03*
X020545Y021182D03*
X020398Y021182D03*
X020146Y021266D03*
X019927Y021182D03*
X019774Y021182D03*
X019621Y021182D03*
X019414Y022814D03*
X020509Y023762D03*
D23*
X020308Y021245D03*
X020308Y021242D03*
X020308Y021239D03*
X020308Y021236D03*
X020230Y021236D03*
X020230Y021239D03*
X020230Y021230D03*
X020083Y021239D03*
X020083Y021212D03*
X020035Y021182D03*
X019750Y021206D03*
X019678Y021206D03*
X019678Y021209D03*
X019678Y021212D03*
X019678Y021215D03*
X019678Y021221D03*
X019678Y021239D03*
X019678Y021242D03*
X019678Y021245D03*
X019600Y021245D03*
X019600Y021215D03*
X019465Y021206D03*
X019465Y021242D03*
X019243Y021245D03*
X019240Y021242D03*
X019240Y021209D03*
X019240Y021206D03*
X019063Y021209D03*
X019063Y021212D03*
X019063Y021215D03*
X019063Y021221D03*
X019063Y021224D03*
X019063Y021227D03*
X019063Y021230D03*
X019063Y021236D03*
X019063Y021239D03*
X019063Y021242D03*
X019063Y021245D03*
X019063Y021269D03*
X019063Y021272D03*
X019063Y021275D03*
X019063Y021206D03*
X019063Y021200D03*
X019063Y021197D03*
X019063Y021194D03*
X019063Y021191D03*
X019063Y021185D03*
X020680Y021242D03*
X020725Y021182D03*
X020773Y021212D03*
X020773Y021236D03*
X020770Y021242D03*
X021058Y021206D03*
X021145Y021206D03*
X021145Y021209D03*
X021205Y021254D03*
X021220Y021227D03*
X021223Y021221D03*
X021280Y021236D03*
X021283Y021239D03*
X021295Y021260D03*
X021298Y021266D03*
X021433Y021209D03*
X021433Y021206D03*
X021430Y021200D03*
X021580Y021206D03*
X021580Y021209D03*
X021580Y021242D03*
X021583Y021245D03*
X021808Y021236D03*
X021808Y021230D03*
X021808Y021227D03*
X021808Y021224D03*
X021808Y021221D03*
X021808Y021215D03*
X021808Y021212D03*
X021808Y021209D03*
X021808Y021206D03*
X021808Y021200D03*
X021808Y021197D03*
X021808Y021194D03*
X021808Y021191D03*
X021808Y021185D03*
D24*
X021865Y021266D03*
X021730Y021245D03*
X021652Y021251D03*
X021658Y021200D03*
X021430Y021212D03*
X021391Y021182D03*
X021352Y021200D03*
X021142Y021212D03*
X021136Y021251D03*
X021103Y021182D03*
X020842Y021245D03*
X020767Y021245D03*
X020683Y021245D03*
X020230Y021242D03*
X020152Y021245D03*
X019753Y021200D03*
X019675Y021236D03*
X019606Y021251D03*
X019390Y021200D03*
X019246Y021200D03*
X019147Y021242D03*
X021520Y022127D03*
D25*
X020776Y021920D03*
X020776Y021917D03*
X020776Y021914D03*
X020776Y021911D03*
X020776Y021905D03*
X020776Y021902D03*
X020776Y021899D03*
X020776Y021896D03*
X020776Y021890D03*
X020776Y021887D03*
X020776Y021884D03*
X020776Y021881D03*
X020776Y021875D03*
X020776Y021872D03*
X020776Y021869D03*
X020776Y021866D03*
X020776Y021860D03*
X020776Y021857D03*
X020776Y021854D03*
X020776Y021851D03*
X020776Y021845D03*
X020776Y021842D03*
X020776Y021839D03*
X020776Y021836D03*
X020776Y021830D03*
X020776Y021827D03*
X020776Y021824D03*
X020776Y021821D03*
X020776Y021815D03*
X020776Y021812D03*
X020776Y021809D03*
X020776Y021806D03*
X020776Y021800D03*
X020776Y021797D03*
X020776Y021794D03*
X020776Y021791D03*
X021247Y021206D03*
X021622Y021185D03*
X019426Y021185D03*
X019282Y021185D03*
X019081Y021287D03*
X019414Y022829D03*
D26*
X019280Y021266D03*
X019775Y021185D03*
X020690Y021200D03*
X021620Y021266D03*
D27*
X021659Y021245D03*
X021662Y021242D03*
X021662Y021239D03*
X021725Y021257D03*
X021725Y021260D03*
X021725Y021266D03*
X021578Y021239D03*
X021347Y021245D03*
X021284Y021242D03*
X021275Y021227D03*
X021272Y021221D03*
X021269Y021215D03*
X021230Y021209D03*
X021227Y021212D03*
X021227Y021215D03*
X021218Y021230D03*
X021059Y021245D03*
X020837Y021257D03*
X020837Y021260D03*
X020837Y021266D03*
X020609Y021266D03*
X020609Y021299D03*
X020525Y021284D03*
X020525Y021281D03*
X020525Y021275D03*
X020525Y021272D03*
X020525Y021269D03*
X020525Y021245D03*
X020525Y021242D03*
X020525Y021239D03*
X020525Y021236D03*
X020525Y021230D03*
X020525Y021227D03*
X020525Y021224D03*
X020525Y021221D03*
X020525Y021215D03*
X020525Y021212D03*
X020525Y021209D03*
X020525Y021206D03*
X020459Y021185D03*
X020453Y021212D03*
X020453Y021215D03*
X020453Y021221D03*
X020453Y021239D03*
X020453Y021242D03*
X020375Y021245D03*
X020309Y021230D03*
X020309Y021227D03*
X020309Y021224D03*
X020309Y021221D03*
X020309Y021215D03*
X020309Y021212D03*
X020309Y021209D03*
X020309Y021206D03*
X020309Y021200D03*
X020309Y021197D03*
X020309Y021194D03*
X020309Y021191D03*
X020309Y021185D03*
X020228Y021185D03*
X020228Y021191D03*
X020228Y021194D03*
X020228Y021197D03*
X020228Y021200D03*
X020228Y021206D03*
X020228Y021209D03*
X020228Y021212D03*
X020228Y021215D03*
X020228Y021221D03*
X020228Y021224D03*
X020228Y021227D03*
X020147Y021227D03*
X020147Y021224D03*
X020147Y021221D03*
X020147Y021215D03*
X020147Y021212D03*
X020147Y021209D03*
X020147Y021206D03*
X020147Y021200D03*
X020147Y021197D03*
X020147Y021194D03*
X020147Y021191D03*
X020147Y021185D03*
X020147Y021260D03*
X019835Y021191D03*
X019835Y021185D03*
X019748Y021266D03*
X019322Y021239D03*
X019319Y021245D03*
X019142Y021260D03*
X019142Y021266D03*
X020369Y023891D03*
D28*
X021101Y021266D03*
X020036Y021185D03*
X019616Y021221D03*
D29*
X020035Y021266D03*
X020158Y021251D03*
X020398Y021185D03*
X020725Y021266D03*
D30*
X020543Y021185D03*
X021248Y021194D03*
X021521Y021185D03*
X019826Y021200D03*
D31*
X021103Y021185D03*
X021391Y021185D03*
X020005Y022562D03*
X020005Y022565D03*
X020005Y022571D03*
X020005Y022574D03*
X020005Y022577D03*
X020005Y022580D03*
X020845Y022832D03*
X020845Y022835D03*
X020845Y022841D03*
X020845Y022844D03*
X020845Y022847D03*
X020845Y022850D03*
X020845Y022856D03*
X020845Y022859D03*
X020845Y022862D03*
X020845Y022865D03*
X020845Y022871D03*
X020845Y022874D03*
X020845Y022877D03*
X020845Y022880D03*
D32*
X021208Y021248D03*
X021145Y021203D03*
X021295Y021263D03*
X021433Y021203D03*
X021808Y021203D03*
X021808Y021218D03*
X021808Y021233D03*
X021808Y021188D03*
X020458Y021188D03*
X020230Y021233D03*
X019678Y021218D03*
X019468Y021233D03*
X019243Y021203D03*
X019063Y021203D03*
X019063Y021218D03*
X019063Y021233D03*
X019063Y021248D03*
X019063Y021278D03*
X019063Y021188D03*
D33*
X019144Y021188D03*
X019144Y021203D03*
X019144Y021218D03*
X019144Y021233D03*
X019237Y021233D03*
X019237Y021218D03*
X019324Y021233D03*
X019381Y021233D03*
X019381Y021218D03*
X019387Y021203D03*
X019459Y021248D03*
X019597Y021203D03*
X019747Y021218D03*
X019747Y021233D03*
X019747Y021248D03*
X019747Y021263D03*
X019834Y021263D03*
X019834Y021248D03*
X019834Y021233D03*
X019834Y021218D03*
X019909Y021218D03*
X019909Y021233D03*
X019909Y021248D03*
X019909Y021278D03*
X019909Y021203D03*
X019987Y021233D03*
X020086Y021233D03*
X020086Y021218D03*
X020149Y021233D03*
X020377Y021248D03*
X020452Y021248D03*
X020527Y021203D03*
X020611Y021203D03*
X020611Y021218D03*
X020611Y021233D03*
X020611Y021248D03*
X020611Y021263D03*
X020611Y021293D03*
X020674Y021233D03*
X020674Y021218D03*
X020611Y021188D03*
X020776Y021218D03*
X020839Y021218D03*
X020839Y021233D03*
X020839Y021203D03*
X020839Y021188D03*
X020926Y021188D03*
X020926Y021203D03*
X020926Y021218D03*
X020926Y021233D03*
X021139Y021248D03*
X021199Y021263D03*
X021217Y021233D03*
X021271Y021218D03*
X021427Y021248D03*
X021502Y021248D03*
X021502Y021233D03*
X021502Y021218D03*
X021502Y021203D03*
X021502Y021278D03*
X021577Y021233D03*
X021577Y021218D03*
X021661Y021203D03*
X021664Y021233D03*
X021727Y021233D03*
X021727Y021218D03*
X021727Y021203D03*
X021727Y021188D03*
X021889Y021188D03*
X021889Y021203D03*
X021889Y021218D03*
X021889Y021233D03*
X020371Y023888D03*
D34*
X020002Y022613D03*
X020773Y022103D03*
X020773Y022088D03*
X020773Y022073D03*
X021172Y021698D03*
X021172Y021683D03*
X021172Y021668D03*
X021172Y021653D03*
X021172Y021638D03*
X021172Y021623D03*
X021172Y021608D03*
X021172Y021593D03*
X021172Y021578D03*
X021172Y021563D03*
X021172Y021548D03*
X021175Y021518D03*
X021010Y021593D03*
X020728Y021593D03*
X020728Y021608D03*
X020728Y021578D03*
X020728Y021563D03*
X020728Y021548D03*
X020728Y021533D03*
X020728Y021518D03*
X020728Y021503D03*
X020728Y021488D03*
X020728Y021473D03*
X020728Y021458D03*
X020416Y021263D03*
X020308Y021488D03*
X020035Y021188D03*
X019912Y021263D03*
X019888Y021458D03*
X019888Y021473D03*
X019888Y021488D03*
X019732Y021608D03*
X019447Y021608D03*
X019447Y021593D03*
X019447Y021578D03*
X019447Y021563D03*
X019447Y021548D03*
X019447Y021533D03*
X019447Y021518D03*
X019447Y021503D03*
X019447Y021488D03*
X019447Y021473D03*
X019447Y021458D03*
X019447Y021443D03*
X019447Y021428D03*
X019447Y021413D03*
X019447Y021398D03*
X019447Y021383D03*
X019447Y021368D03*
X019426Y021188D03*
X019282Y021188D03*
X019048Y021368D03*
X019048Y021383D03*
X019048Y021398D03*
X019048Y021413D03*
X019048Y021428D03*
X019048Y021443D03*
X019048Y021458D03*
X019048Y021473D03*
X019048Y021488D03*
X021442Y021488D03*
X021442Y021503D03*
X021442Y021518D03*
X021442Y021533D03*
X021442Y021548D03*
X021442Y021563D03*
X021442Y021578D03*
X021442Y021593D03*
X021442Y021608D03*
X021442Y021623D03*
X021442Y021638D03*
X021442Y021653D03*
X021442Y021668D03*
X021442Y021683D03*
X021442Y021698D03*
X021598Y021593D03*
X021442Y021473D03*
X021442Y021458D03*
X021622Y021188D03*
X021853Y021473D03*
D35*
X020776Y021803D03*
X020776Y021818D03*
X020776Y021833D03*
X020776Y021848D03*
X020776Y021863D03*
X020776Y021878D03*
X020776Y021893D03*
X020776Y021908D03*
X019624Y021188D03*
D36*
X019682Y021188D03*
X019835Y021188D03*
X020147Y021188D03*
X020147Y021203D03*
X020147Y021218D03*
X020147Y021263D03*
X020228Y021218D03*
X020228Y021203D03*
X020228Y021188D03*
X020309Y021188D03*
X020309Y021203D03*
X020309Y021218D03*
X020309Y021233D03*
X020453Y021218D03*
X020525Y021218D03*
X020525Y021233D03*
X020525Y021278D03*
X020837Y021263D03*
X021062Y021248D03*
X021224Y021218D03*
X021278Y021233D03*
X021287Y021248D03*
X021347Y021248D03*
X021725Y021263D03*
X019142Y021263D03*
D37*
X019924Y021188D03*
X020542Y021188D03*
X019414Y022823D03*
D38*
X020008Y022538D03*
X020398Y021188D03*
D39*
X020723Y021188D03*
X021101Y021263D03*
X021011Y021473D03*
X021176Y021503D03*
X021389Y021263D03*
X021374Y021233D03*
X020771Y022118D03*
D40*
X019999Y022673D03*
X019414Y022838D03*
X019690Y021413D03*
X019702Y021398D03*
X019714Y021383D03*
X019726Y021368D03*
X021103Y021188D03*
X021847Y021458D03*
D41*
X021731Y021248D03*
X021248Y021188D03*
X020762Y021248D03*
X020687Y021248D03*
X020684Y021203D03*
X020381Y021218D03*
X020153Y021248D03*
X020072Y021248D03*
X019997Y021248D03*
X019829Y021203D03*
D42*
X021389Y021188D03*
X020000Y022643D03*
X020000Y022658D03*
X020369Y023858D03*
D43*
X020009Y022493D03*
X020204Y021263D03*
X021518Y021188D03*
X021782Y021263D03*
X021863Y021263D03*
D44*
X021622Y021257D03*
X021622Y021191D03*
X021403Y021221D03*
X021115Y021221D03*
X021007Y021452D03*
X021004Y021491D03*
X021187Y021476D03*
X021607Y021611D03*
X020416Y021260D03*
X020320Y021602D03*
X020323Y021605D03*
X019903Y021602D03*
X019672Y021437D03*
X019669Y021440D03*
X019660Y021452D03*
X019651Y021464D03*
X019681Y021425D03*
X019693Y021410D03*
X019699Y021401D03*
X019705Y021395D03*
X019708Y021389D03*
X019711Y021386D03*
X019717Y021377D03*
X019720Y021374D03*
X019723Y021371D03*
X019726Y021365D03*
X019729Y021362D03*
X019423Y021257D03*
X019426Y021191D03*
X019282Y021191D03*
X019279Y021257D03*
X019063Y021602D03*
X019999Y022661D03*
X019999Y022664D03*
X019999Y022667D03*
X019999Y022670D03*
X019999Y022676D03*
X019999Y022679D03*
X021055Y022832D03*
D45*
X021484Y022121D03*
X021391Y021197D03*
X020416Y021191D03*
X019642Y021191D03*
X019639Y021194D03*
X019414Y022847D03*
D46*
X019415Y022832D03*
X020003Y022595D03*
X020003Y022592D03*
X020003Y022589D03*
X020003Y022586D03*
X019733Y021614D03*
X019733Y021611D03*
X019730Y021602D03*
X019913Y021266D03*
X019775Y021191D03*
X020282Y021257D03*
X020306Y021455D03*
X020306Y021461D03*
X020306Y021464D03*
X020306Y021467D03*
X020306Y021470D03*
X020306Y021476D03*
X020306Y021479D03*
X020306Y021482D03*
X020306Y021485D03*
X020528Y021266D03*
X020528Y021260D03*
X020528Y021257D03*
X020528Y021254D03*
X020528Y021251D03*
X020726Y021455D03*
X020726Y021611D03*
X021173Y021530D03*
X021173Y021527D03*
X021173Y021524D03*
X021506Y021266D03*
X021506Y021260D03*
X021506Y021257D03*
X021506Y021254D03*
X021506Y021251D03*
X021782Y021257D03*
X021857Y021485D03*
X021596Y021581D03*
X021596Y021584D03*
X021596Y021587D03*
X021596Y021590D03*
X021599Y021596D03*
X020369Y023864D03*
D47*
X020369Y023876D03*
X020369Y023879D03*
X021194Y022877D03*
X020009Y022499D03*
X020009Y022496D03*
X020009Y022490D03*
X020009Y022487D03*
X019922Y021191D03*
X019667Y021197D03*
X019088Y021296D03*
X020444Y021197D03*
X020540Y021191D03*
X020849Y021251D03*
X021248Y021197D03*
X021515Y021194D03*
D48*
X021101Y021260D03*
X021191Y021470D03*
X021611Y021614D03*
X020036Y021191D03*
X019706Y021392D03*
X019676Y021431D03*
X019661Y021449D03*
X019646Y021470D03*
D49*
X019649Y021467D03*
X019652Y021461D03*
X019658Y021455D03*
X019664Y021446D03*
X019673Y021434D03*
X019682Y021422D03*
X019685Y021419D03*
X019688Y021416D03*
X019694Y021407D03*
X019697Y021404D03*
X019715Y021380D03*
X019640Y021476D03*
X019640Y021479D03*
X019637Y021482D03*
X019634Y021485D03*
X019718Y021581D03*
X019904Y021605D03*
X019640Y021260D03*
X019064Y021605D03*
X019997Y022682D03*
X019997Y022685D03*
X019997Y022691D03*
X019997Y022694D03*
X019997Y022697D03*
X021842Y021455D03*
X021389Y021260D03*
X021383Y021230D03*
X021107Y021224D03*
X021095Y021230D03*
X020723Y021191D03*
X020369Y023855D03*
D50*
X019994Y022721D03*
X021194Y021467D03*
X021101Y021257D03*
X021101Y021191D03*
X021389Y021191D03*
X021389Y021257D03*
X021623Y021194D03*
X019424Y021194D03*
X019424Y021254D03*
D51*
X019921Y021197D03*
X019921Y021194D03*
X020416Y021266D03*
X020539Y021197D03*
X020539Y021194D03*
X021133Y021215D03*
X021247Y021200D03*
X021388Y021266D03*
X021514Y021197D03*
X021517Y021191D03*
X020071Y022094D03*
X020008Y022502D03*
X020008Y022505D03*
X020008Y022511D03*
X020008Y022514D03*
X020008Y022517D03*
X020008Y022520D03*
X019414Y022826D03*
D52*
X019415Y022841D03*
X020417Y022709D03*
X020417Y022706D03*
X020417Y022700D03*
X020417Y022697D03*
X020417Y022694D03*
X020417Y022691D03*
X020417Y022685D03*
X020417Y022682D03*
X020417Y022679D03*
X020417Y022676D03*
X020417Y022670D03*
X020417Y022667D03*
X020417Y022664D03*
X020417Y022661D03*
X020417Y022655D03*
X020417Y022652D03*
X020417Y022649D03*
X020417Y022646D03*
X020417Y022640D03*
X020417Y022637D03*
X020417Y022634D03*
X020417Y022631D03*
X020660Y022052D03*
X019910Y021611D03*
X019640Y021257D03*
X019280Y021254D03*
X019280Y021194D03*
X019070Y021611D03*
X021620Y021254D03*
D53*
X020414Y021194D03*
X019793Y021197D03*
X019793Y021194D03*
D54*
X020035Y021194D03*
X020416Y021257D03*
X020725Y021194D03*
X021052Y022841D03*
X019996Y022739D03*
X019996Y022736D03*
X019996Y022730D03*
X019996Y022727D03*
X019996Y022724D03*
X020368Y023849D03*
D55*
X020368Y023846D03*
X019993Y022775D03*
X019993Y022772D03*
X019993Y022769D03*
X019993Y022766D03*
X019993Y022760D03*
X021037Y022859D03*
X021043Y022850D03*
X020095Y022097D03*
X020335Y021614D03*
X020035Y021254D03*
X020725Y021254D03*
X021103Y021194D03*
X021388Y021254D03*
D56*
X021389Y021194D03*
X021623Y021197D03*
X021197Y021464D03*
X021101Y021254D03*
X020417Y021224D03*
X020414Y021254D03*
X019643Y021224D03*
X019640Y021254D03*
X019424Y021197D03*
X019280Y021197D03*
X020417Y022517D03*
X020417Y022520D03*
X020417Y022526D03*
X020417Y022529D03*
X020417Y022532D03*
X020417Y022535D03*
X020417Y022541D03*
X020417Y022544D03*
X020417Y022547D03*
X020417Y022550D03*
X020417Y022556D03*
X020417Y022559D03*
X020417Y022562D03*
X020417Y022565D03*
X020417Y022571D03*
X020417Y022574D03*
X020417Y022577D03*
X020417Y022580D03*
X020417Y022586D03*
X020417Y022589D03*
X020417Y022592D03*
X020417Y022595D03*
X020417Y022601D03*
X020417Y022604D03*
X020417Y022607D03*
X019994Y022742D03*
X019994Y022745D03*
X019994Y022751D03*
X019994Y022754D03*
X019994Y022757D03*
X019415Y022844D03*
X021038Y022856D03*
X021047Y022847D03*
X021050Y022844D03*
D57*
X019991Y022781D03*
X019613Y022907D03*
X019916Y021614D03*
X020036Y021197D03*
X020186Y021257D03*
X020723Y021197D03*
X019076Y021614D03*
D58*
X018959Y021782D03*
X019088Y021299D03*
X019070Y021284D03*
X019148Y021245D03*
X019187Y021260D03*
X019250Y021251D03*
X019310Y021251D03*
X019394Y021251D03*
X019454Y021251D03*
X019670Y021251D03*
X019673Y021200D03*
X020231Y021245D03*
X020303Y021251D03*
X020381Y021251D03*
X020378Y021197D03*
X020447Y021200D03*
X020447Y021251D03*
X021590Y021251D03*
X021809Y021245D03*
X021881Y021251D03*
D59*
X021103Y021197D03*
X020725Y021251D03*
X020035Y021251D03*
X020428Y022736D03*
D60*
X020372Y023885D03*
X020150Y021242D03*
X020375Y021215D03*
X020675Y021215D03*
X020840Y021239D03*
X020840Y021242D03*
X021200Y021260D03*
X021887Y021245D03*
X019910Y021200D03*
X019832Y021206D03*
X019832Y021209D03*
X019460Y021200D03*
X019385Y021245D03*
X019145Y021239D03*
X019145Y021236D03*
D61*
X019946Y021200D03*
X020414Y021269D03*
X021101Y021269D03*
X021389Y021269D03*
X021539Y021200D03*
X021533Y022130D03*
X020756Y022832D03*
D62*
X019414Y022820D03*
X020284Y021266D03*
X020374Y021200D03*
X020449Y021236D03*
X020899Y021266D03*
X021064Y021200D03*
X021424Y021251D03*
X021589Y021200D03*
X021784Y021266D03*
D63*
X020725Y021269D03*
X020563Y021200D03*
X020035Y021269D03*
X019453Y021209D03*
X019423Y021269D03*
X020368Y023900D03*
D64*
X020306Y021248D03*
X020774Y021233D03*
X020921Y021248D03*
X021059Y021203D03*
X021584Y021203D03*
X021584Y021248D03*
X021656Y021248D03*
X021884Y021248D03*
X019751Y021203D03*
X019676Y021203D03*
X019676Y021248D03*
X019601Y021248D03*
X019463Y021203D03*
X019388Y021248D03*
X019316Y021248D03*
X019319Y021203D03*
X019244Y021248D03*
D65*
X019996Y021203D03*
X020077Y021203D03*
D66*
X020764Y021203D03*
X019189Y021263D03*
D67*
X019279Y021269D03*
X019309Y021209D03*
X020284Y021269D03*
X020386Y021242D03*
X020899Y021269D03*
X021619Y021269D03*
X021649Y021209D03*
X021784Y021269D03*
X019756Y023069D03*
D68*
X021448Y021986D03*
X021355Y021209D03*
X021067Y021209D03*
X019105Y021284D03*
D69*
X019466Y021239D03*
X019466Y021236D03*
X021221Y021224D03*
X021266Y021212D03*
X021266Y021209D03*
D70*
X021365Y021236D03*
X021419Y021215D03*
X021077Y021236D03*
X021812Y021251D03*
X020678Y022055D03*
X020393Y021221D03*
X019640Y021266D03*
X019082Y021290D03*
D71*
X019606Y021218D03*
X020845Y021248D03*
D72*
X021122Y021218D03*
X021173Y021533D03*
X021506Y021263D03*
X021857Y021488D03*
X020528Y021263D03*
X020306Y021458D03*
X020306Y021473D03*
X020003Y022583D03*
X020003Y022598D03*
D73*
X021409Y021218D03*
D74*
X021620Y021221D03*
X021620Y021224D03*
X021620Y021227D03*
X021620Y021230D03*
X020042Y022484D03*
X019415Y022850D03*
X019424Y021230D03*
X019424Y021227D03*
X019424Y021221D03*
X019280Y021224D03*
X019280Y021227D03*
X019280Y021230D03*
X019280Y021221D03*
D75*
X019423Y021224D03*
X019990Y022844D03*
D76*
X019996Y022715D03*
X019996Y022712D03*
X019996Y022709D03*
X019996Y022706D03*
X019996Y022700D03*
X020419Y022712D03*
X020419Y022715D03*
X020419Y022721D03*
X020419Y022724D03*
X020419Y022727D03*
X020419Y022730D03*
X020422Y021227D03*
X021394Y021224D03*
D77*
X021388Y021227D03*
X021103Y021227D03*
X020725Y021257D03*
X020035Y021257D03*
X019648Y021227D03*
X021055Y022835D03*
X020368Y023852D03*
D78*
X019414Y022835D03*
X020002Y022640D03*
X020002Y022637D03*
X020002Y022634D03*
X020002Y022631D03*
X020002Y022625D03*
X020002Y022622D03*
X019726Y021590D03*
X019654Y021230D03*
X020314Y021590D03*
X020317Y021596D03*
X021007Y021581D03*
X021181Y021491D03*
X021184Y021482D03*
D79*
X021010Y021455D03*
X021010Y021611D03*
X020428Y021230D03*
X020770Y022106D03*
X020770Y022130D03*
X021850Y021464D03*
X021055Y022829D03*
X019168Y021257D03*
D80*
X019084Y021293D03*
X020284Y021263D03*
X020440Y021233D03*
X020899Y021263D03*
X020008Y022508D03*
X020371Y023873D03*
D81*
X021010Y021608D03*
X021010Y021458D03*
X021088Y021233D03*
D82*
X019610Y021242D03*
X020510Y023774D03*
D83*
X019412Y022811D03*
X021422Y021245D03*
D84*
X020231Y021248D03*
X019151Y021248D03*
D85*
X019198Y021248D03*
X019921Y021293D03*
D86*
X021812Y021248D03*
D87*
X021620Y021260D03*
X021602Y021605D03*
X020897Y021257D03*
X020312Y021584D03*
X020312Y021587D03*
X019895Y021590D03*
X019895Y021587D03*
X019892Y021581D03*
X019727Y021596D03*
X019280Y021260D03*
X019067Y021260D03*
X019067Y021257D03*
X019067Y021254D03*
X019067Y021251D03*
X019067Y021266D03*
X019052Y021581D03*
X019055Y021587D03*
X019055Y021590D03*
D88*
X019048Y021485D03*
X019048Y021482D03*
X019048Y021479D03*
X019048Y021476D03*
X019048Y021470D03*
X019048Y021467D03*
X019048Y021464D03*
X019048Y021461D03*
X019048Y021455D03*
X019048Y021452D03*
X019048Y021449D03*
X019048Y021446D03*
X019048Y021440D03*
X019048Y021437D03*
X019048Y021434D03*
X019048Y021431D03*
X019048Y021425D03*
X019048Y021422D03*
X019048Y021419D03*
X019048Y021416D03*
X019048Y021410D03*
X019048Y021407D03*
X019048Y021404D03*
X019048Y021401D03*
X019048Y021395D03*
X019048Y021392D03*
X019048Y021389D03*
X019048Y021386D03*
X019048Y021380D03*
X019048Y021377D03*
X019048Y021374D03*
X019048Y021371D03*
X019048Y021365D03*
X019048Y021362D03*
X019165Y021251D03*
X019447Y021362D03*
X019447Y021365D03*
X019447Y021371D03*
X019447Y021374D03*
X019447Y021377D03*
X019447Y021380D03*
X019447Y021386D03*
X019447Y021389D03*
X019447Y021392D03*
X019447Y021395D03*
X019447Y021401D03*
X019447Y021404D03*
X019447Y021407D03*
X019447Y021410D03*
X019447Y021416D03*
X019447Y021419D03*
X019447Y021422D03*
X019447Y021425D03*
X019447Y021431D03*
X019447Y021434D03*
X019447Y021437D03*
X019447Y021440D03*
X019447Y021446D03*
X019447Y021449D03*
X019447Y021452D03*
X019447Y021455D03*
X019447Y021461D03*
X019447Y021464D03*
X019447Y021467D03*
X019447Y021470D03*
X019447Y021476D03*
X019447Y021479D03*
X019447Y021482D03*
X019447Y021485D03*
X019447Y021491D03*
X019447Y021494D03*
X019447Y021497D03*
X019447Y021500D03*
X019447Y021506D03*
X019447Y021509D03*
X019447Y021512D03*
X019447Y021515D03*
X019447Y021521D03*
X019447Y021524D03*
X019447Y021527D03*
X019447Y021530D03*
X019447Y021536D03*
X019447Y021539D03*
X019447Y021542D03*
X019447Y021545D03*
X019447Y021551D03*
X019447Y021554D03*
X019447Y021557D03*
X019447Y021560D03*
X019447Y021566D03*
X019447Y021569D03*
X019447Y021572D03*
X019447Y021575D03*
X019447Y021581D03*
X019447Y021584D03*
X019447Y021587D03*
X019447Y021590D03*
X019447Y021596D03*
X019447Y021599D03*
X019447Y021602D03*
X019447Y021605D03*
X019447Y021611D03*
X019447Y021614D03*
X019732Y021605D03*
X019888Y021485D03*
X019888Y021482D03*
X019888Y021479D03*
X019888Y021476D03*
X019888Y021470D03*
X019888Y021467D03*
X019888Y021464D03*
X019888Y021461D03*
X019888Y021455D03*
X019912Y021260D03*
X019912Y021257D03*
X019912Y021254D03*
X019912Y021251D03*
X020311Y021581D03*
X020728Y021584D03*
X020728Y021587D03*
X020728Y021590D03*
X020728Y021596D03*
X020728Y021599D03*
X020728Y021602D03*
X020728Y021605D03*
X020728Y021614D03*
X020728Y021581D03*
X020728Y021575D03*
X020728Y021572D03*
X020728Y021569D03*
X020728Y021566D03*
X020728Y021560D03*
X020728Y021557D03*
X020728Y021554D03*
X020728Y021551D03*
X020728Y021545D03*
X020728Y021542D03*
X020728Y021539D03*
X020728Y021536D03*
X020728Y021530D03*
X020728Y021527D03*
X020728Y021524D03*
X020728Y021521D03*
X020728Y021515D03*
X020728Y021512D03*
X020728Y021509D03*
X020728Y021506D03*
X020728Y021500D03*
X020728Y021497D03*
X020728Y021494D03*
X020728Y021491D03*
X020728Y021485D03*
X020728Y021482D03*
X020728Y021479D03*
X020728Y021476D03*
X020728Y021470D03*
X020728Y021467D03*
X020728Y021464D03*
X020728Y021461D03*
X020728Y021452D03*
X021010Y021476D03*
X021010Y021479D03*
X021010Y021587D03*
X021010Y021590D03*
X021172Y021590D03*
X021172Y021587D03*
X021172Y021584D03*
X021172Y021581D03*
X021172Y021575D03*
X021172Y021572D03*
X021172Y021569D03*
X021172Y021566D03*
X021172Y021560D03*
X021172Y021557D03*
X021172Y021554D03*
X021172Y021551D03*
X021172Y021545D03*
X021172Y021542D03*
X021172Y021539D03*
X021172Y021536D03*
X021175Y021521D03*
X021175Y021515D03*
X021175Y021512D03*
X021175Y021509D03*
X021172Y021596D03*
X021172Y021599D03*
X021172Y021602D03*
X021172Y021605D03*
X021172Y021611D03*
X021172Y021614D03*
X021172Y021617D03*
X021172Y021620D03*
X021172Y021626D03*
X021172Y021629D03*
X021172Y021632D03*
X021172Y021635D03*
X021172Y021641D03*
X021172Y021644D03*
X021172Y021647D03*
X021172Y021650D03*
X021172Y021656D03*
X021172Y021659D03*
X021172Y021662D03*
X021172Y021665D03*
X021172Y021671D03*
X021172Y021674D03*
X021172Y021677D03*
X021172Y021680D03*
X021172Y021686D03*
X021172Y021689D03*
X021172Y021692D03*
X021172Y021695D03*
X021172Y021701D03*
X021442Y021701D03*
X021442Y021695D03*
X021442Y021692D03*
X021442Y021689D03*
X021442Y021686D03*
X021442Y021680D03*
X021442Y021677D03*
X021442Y021674D03*
X021442Y021671D03*
X021442Y021665D03*
X021442Y021662D03*
X021442Y021659D03*
X021442Y021656D03*
X021442Y021650D03*
X021442Y021647D03*
X021442Y021644D03*
X021442Y021641D03*
X021442Y021635D03*
X021442Y021632D03*
X021442Y021629D03*
X021442Y021626D03*
X021442Y021620D03*
X021442Y021617D03*
X021442Y021614D03*
X021442Y021611D03*
X021442Y021605D03*
X021442Y021602D03*
X021442Y021599D03*
X021442Y021596D03*
X021442Y021590D03*
X021442Y021587D03*
X021442Y021584D03*
X021442Y021581D03*
X021442Y021575D03*
X021442Y021572D03*
X021442Y021569D03*
X021442Y021566D03*
X021442Y021560D03*
X021442Y021557D03*
X021442Y021554D03*
X021442Y021551D03*
X021442Y021545D03*
X021442Y021542D03*
X021442Y021539D03*
X021442Y021536D03*
X021442Y021530D03*
X021442Y021527D03*
X021442Y021524D03*
X021442Y021521D03*
X021442Y021515D03*
X021442Y021512D03*
X021442Y021509D03*
X021442Y021506D03*
X021442Y021500D03*
X021442Y021497D03*
X021442Y021494D03*
X021442Y021491D03*
X021442Y021485D03*
X021442Y021482D03*
X021442Y021479D03*
X021442Y021476D03*
X021442Y021470D03*
X021442Y021467D03*
X021442Y021464D03*
X021442Y021461D03*
X021442Y021455D03*
X021601Y021599D03*
X021601Y021602D03*
X021856Y021482D03*
X021856Y021479D03*
X021856Y021476D03*
X021853Y021470D03*
X021862Y021257D03*
X021502Y022124D03*
X020773Y022100D03*
X020773Y022097D03*
X020773Y022094D03*
X020773Y022091D03*
X020773Y022085D03*
X020773Y022082D03*
X020773Y022079D03*
X020773Y022076D03*
X020773Y022070D03*
X020773Y022067D03*
X020773Y022064D03*
X020002Y022601D03*
X020002Y022604D03*
X020002Y022607D03*
X020002Y022610D03*
X020002Y022616D03*
D89*
X020003Y022619D03*
X020771Y022127D03*
X020771Y022124D03*
X020771Y022121D03*
X020771Y022115D03*
X020771Y022112D03*
X020771Y022109D03*
X021011Y021605D03*
X021011Y021602D03*
X021011Y021599D03*
X021011Y021596D03*
X021008Y021584D03*
X021008Y021485D03*
X021008Y021482D03*
X021011Y021470D03*
X021011Y021467D03*
X021011Y021464D03*
X021011Y021461D03*
X021176Y021500D03*
X021179Y021497D03*
X021179Y021494D03*
X021176Y021506D03*
X021851Y021467D03*
X019424Y021260D03*
X019166Y021254D03*
X020369Y023861D03*
D90*
X020086Y023522D03*
X020083Y023519D03*
X020080Y023516D03*
X020071Y023507D03*
X020068Y023504D03*
X020065Y023501D03*
X020056Y023492D03*
X020053Y023489D03*
X020050Y023486D03*
X020041Y023477D03*
X020038Y023474D03*
X020035Y023471D03*
X020026Y023462D03*
X020815Y022319D03*
X020815Y022316D03*
X020815Y022310D03*
X020815Y022307D03*
X020815Y022304D03*
X020815Y022301D03*
X020815Y022295D03*
X020815Y022292D03*
X020227Y021254D03*
D91*
X020881Y021254D03*
D92*
X021806Y021254D03*
X020816Y022322D03*
X020816Y022325D03*
X020816Y022331D03*
X020816Y022334D03*
X020816Y022337D03*
X020816Y022340D03*
X020816Y022346D03*
X019598Y021497D03*
X019034Y021794D03*
X019964Y023399D03*
X019967Y023402D03*
X019970Y023405D03*
X019976Y023411D03*
X019979Y023414D03*
X019982Y023417D03*
X019985Y023420D03*
X019991Y023426D03*
X019994Y023429D03*
X019997Y023432D03*
X020000Y023435D03*
X020006Y023441D03*
X020009Y023444D03*
X020012Y023447D03*
X020015Y023450D03*
X020021Y023456D03*
X020024Y023459D03*
D93*
X019901Y021599D03*
X019721Y021584D03*
X020036Y021260D03*
X019061Y021599D03*
D94*
X020282Y021260D03*
X021782Y021260D03*
D95*
X021848Y021461D03*
X021185Y021479D03*
X021182Y021485D03*
X021008Y021614D03*
X020723Y021260D03*
X020318Y021599D03*
X019898Y021596D03*
X019724Y021587D03*
X019058Y021596D03*
X018977Y021785D03*
X020000Y022646D03*
X020000Y022649D03*
X020000Y022652D03*
X020000Y022655D03*
D96*
X020899Y021260D03*
D97*
X020315Y021593D03*
X019727Y021593D03*
X019640Y021263D03*
X019067Y021263D03*
D98*
X019280Y021263D03*
X021620Y021263D03*
D99*
X020774Y021923D03*
X020006Y022553D03*
X019424Y021263D03*
D100*
X020035Y021263D03*
X020725Y021263D03*
X020005Y022568D03*
X020845Y022838D03*
X020845Y022853D03*
X020845Y022868D03*
X020845Y022883D03*
D101*
X020612Y022217D03*
X021050Y021950D03*
X021863Y021269D03*
X020204Y021269D03*
X019772Y021359D03*
X019190Y021269D03*
X019757Y023072D03*
X019763Y023081D03*
D102*
X019639Y021269D03*
D103*
X019913Y021287D03*
X020510Y023765D03*
D104*
X020530Y021287D03*
D105*
X021506Y021287D03*
D106*
X021511Y021290D03*
X020533Y021290D03*
X019918Y021290D03*
D107*
X020537Y021293D03*
X021515Y021293D03*
D108*
X020863Y021389D03*
X020863Y021677D03*
X020863Y021680D03*
X020443Y021449D03*
X020443Y021446D03*
X020443Y021440D03*
X020443Y021437D03*
X020443Y021434D03*
X020443Y021431D03*
X020443Y021425D03*
X020443Y021422D03*
X020443Y021419D03*
X020443Y021416D03*
X020443Y021410D03*
X020443Y021407D03*
X020443Y021404D03*
X020443Y021401D03*
X020443Y021395D03*
X020443Y021392D03*
X020443Y021389D03*
X020443Y021386D03*
X020443Y021380D03*
X020443Y021377D03*
X020443Y021374D03*
X020443Y021371D03*
X020443Y021365D03*
X020443Y021362D03*
X020023Y021365D03*
X020023Y021362D03*
X020023Y021371D03*
X020023Y021374D03*
X020023Y021377D03*
X020023Y021380D03*
X020023Y021386D03*
X020023Y021389D03*
X020023Y021392D03*
X020023Y021395D03*
X020023Y021401D03*
X020023Y021404D03*
X020023Y021407D03*
X020023Y021410D03*
X020023Y021416D03*
X020023Y021419D03*
X020023Y021422D03*
X020023Y021425D03*
X020023Y021431D03*
X020023Y021434D03*
X020023Y021437D03*
X020023Y021440D03*
X020023Y021446D03*
X020023Y021449D03*
X020023Y021452D03*
X020758Y023276D03*
X020752Y023285D03*
X020746Y023291D03*
X020743Y023294D03*
D109*
X020003Y021554D03*
X020003Y021551D03*
X020003Y021545D03*
X020003Y021542D03*
X020003Y021539D03*
X020003Y021536D03*
X020003Y021530D03*
X020003Y021527D03*
X020003Y021524D03*
X020003Y021521D03*
X020003Y021515D03*
X020003Y021512D03*
X020003Y021509D03*
X020003Y021506D03*
X020003Y021500D03*
X020003Y021497D03*
X020003Y021494D03*
X020003Y021491D03*
X020843Y021362D03*
X021326Y021410D03*
X021713Y021401D03*
D110*
X021367Y021362D03*
X020911Y021530D03*
X020911Y021542D03*
X019615Y021515D03*
X019057Y021797D03*
X020827Y022577D03*
X020827Y022580D03*
X020827Y022586D03*
X020827Y022589D03*
X020827Y022592D03*
X020827Y022595D03*
X020827Y022601D03*
D111*
X020918Y021560D03*
X020918Y021557D03*
X020918Y021515D03*
X020918Y021512D03*
X021680Y021362D03*
X019622Y021530D03*
X019223Y021701D03*
D112*
X019186Y021632D03*
X019186Y021629D03*
X019186Y021626D03*
X020038Y021650D03*
X020848Y021365D03*
X021322Y021422D03*
X021322Y021425D03*
X021718Y021419D03*
X021718Y021416D03*
X021736Y021650D03*
X020497Y023606D03*
X020377Y023750D03*
D113*
X020359Y023771D03*
X021097Y022865D03*
X020830Y022685D03*
X020830Y022682D03*
X020830Y022679D03*
X020830Y022676D03*
X020830Y022670D03*
X020830Y022667D03*
X020830Y022664D03*
X020830Y022661D03*
X020917Y021554D03*
X021361Y021365D03*
X019621Y021527D03*
D114*
X019628Y021551D03*
X019628Y021554D03*
X021413Y022109D03*
X021686Y021365D03*
X021095Y022874D03*
X020054Y022841D03*
X020357Y023762D03*
D115*
X020443Y021443D03*
X020443Y021428D03*
X020443Y021413D03*
X020443Y021398D03*
X020443Y021383D03*
X020443Y021368D03*
X020023Y021368D03*
X020023Y021383D03*
X020023Y021398D03*
X020023Y021413D03*
X020023Y021428D03*
X020023Y021443D03*
D116*
X020453Y021638D03*
X020852Y021698D03*
X020852Y021368D03*
X021317Y021443D03*
X021722Y021443D03*
X021377Y022103D03*
X020495Y023603D03*
D117*
X021356Y021368D03*
D118*
X021691Y021368D03*
X021091Y022883D03*
D119*
X020377Y023744D03*
X020452Y021635D03*
X020452Y021632D03*
X020032Y021629D03*
X020032Y021626D03*
X020854Y021371D03*
X021316Y021446D03*
X021316Y021449D03*
X021316Y021452D03*
X021724Y021452D03*
X021724Y021449D03*
X021730Y021620D03*
D120*
X021352Y021371D03*
X020488Y021701D03*
X020167Y022106D03*
X019630Y021560D03*
X019630Y021557D03*
X019216Y021695D03*
X020500Y023639D03*
D121*
X021346Y021377D03*
X021694Y021371D03*
D122*
X021727Y021491D03*
X021727Y021494D03*
X021727Y021497D03*
X021727Y021500D03*
X021727Y021506D03*
X021727Y021509D03*
X021727Y021512D03*
X021727Y021515D03*
X021727Y021521D03*
X021727Y021524D03*
X021727Y021527D03*
X021727Y021530D03*
X021727Y021536D03*
X021727Y021539D03*
X021727Y021542D03*
X021727Y021545D03*
X021727Y021551D03*
X021727Y021554D03*
X021727Y021557D03*
X021727Y021560D03*
X021727Y021566D03*
X021727Y021569D03*
X021727Y021572D03*
X021727Y021575D03*
X020857Y021692D03*
X020857Y021374D03*
X020449Y021620D03*
D123*
X021349Y021374D03*
D124*
X021697Y021374D03*
X021757Y021695D03*
X020479Y021692D03*
X020059Y021695D03*
D125*
X020858Y021689D03*
X020858Y021377D03*
D126*
X021340Y021386D03*
X021700Y021377D03*
X020476Y021689D03*
X020056Y021692D03*
X020056Y021689D03*
X020512Y022739D03*
D127*
X020860Y021686D03*
X020860Y021380D03*
D128*
X021344Y021380D03*
X020480Y021695D03*
X019208Y021686D03*
X020498Y023630D03*
D129*
X021751Y021686D03*
X021703Y021380D03*
X021337Y021389D03*
X019201Y021674D03*
D130*
X020861Y021683D03*
X020861Y021383D03*
D131*
X021341Y021383D03*
D132*
X021704Y021383D03*
X020471Y021683D03*
D133*
X020441Y021452D03*
X020861Y021386D03*
X020375Y023735D03*
D134*
X021334Y021395D03*
X021706Y021386D03*
D135*
X021707Y021389D03*
X020468Y021677D03*
X020048Y021677D03*
D136*
X020864Y021674D03*
X020864Y021395D03*
X020864Y021392D03*
X020756Y023279D03*
X020753Y023282D03*
D137*
X021395Y022106D03*
X021335Y021392D03*
D138*
X021331Y021401D03*
X021709Y021392D03*
X021745Y021677D03*
X020467Y021674D03*
X020047Y021674D03*
X019195Y021659D03*
D139*
X019193Y021656D03*
X020045Y021671D03*
X020465Y021671D03*
X021329Y021404D03*
X021710Y021395D03*
X021743Y021674D03*
X020498Y023615D03*
D140*
X020494Y023588D03*
X020866Y021668D03*
X020866Y021398D03*
D141*
X021332Y021398D03*
X020498Y023618D03*
D142*
X020464Y021668D03*
X020422Y021563D03*
X020422Y021548D03*
X020422Y021533D03*
X020422Y021518D03*
X020422Y021503D03*
X020044Y021668D03*
X019192Y021653D03*
X021712Y021398D03*
D143*
X020866Y021401D03*
X020866Y021665D03*
X020866Y021671D03*
X020767Y023264D03*
X020764Y023267D03*
X020737Y023300D03*
D144*
X020768Y023261D03*
X020375Y023729D03*
X020867Y021662D03*
X020867Y021659D03*
X020867Y021656D03*
X020867Y021410D03*
X020867Y021407D03*
X020867Y021404D03*
D145*
X021325Y021416D03*
X021715Y021407D03*
X021715Y021404D03*
X020461Y021662D03*
X020041Y021659D03*
X019168Y021575D03*
X019168Y021572D03*
X019168Y021569D03*
X019168Y021566D03*
X019168Y021560D03*
X020497Y023609D03*
D146*
X020005Y021575D03*
X020005Y021572D03*
X020005Y021569D03*
X020005Y021566D03*
X020005Y021560D03*
X020005Y021557D03*
X021328Y021407D03*
D147*
X021323Y021419D03*
X021716Y021410D03*
X021737Y021656D03*
X021737Y021659D03*
X020459Y021659D03*
X020459Y021656D03*
X020039Y021656D03*
X019187Y021635D03*
X019166Y021557D03*
X019166Y021554D03*
X019166Y021551D03*
X019166Y021545D03*
X019166Y021542D03*
X019166Y021539D03*
X019166Y021536D03*
X019166Y021530D03*
X019166Y021527D03*
X019166Y021524D03*
X019166Y021521D03*
X019166Y021515D03*
X019166Y021512D03*
X019166Y021509D03*
X019166Y021506D03*
X019166Y021500D03*
X019166Y021497D03*
X019166Y021494D03*
X019166Y021491D03*
D148*
X020869Y021428D03*
X020869Y021413D03*
X020869Y021653D03*
D149*
X021326Y021413D03*
X020003Y021503D03*
X020003Y021518D03*
X020003Y021533D03*
X020003Y021548D03*
D150*
X020039Y021653D03*
X019187Y021638D03*
X019166Y021548D03*
X019166Y021533D03*
X019166Y021518D03*
X019166Y021503D03*
X021716Y021413D03*
D151*
X020869Y021419D03*
X020869Y021422D03*
X020869Y021425D03*
X020869Y021416D03*
X020869Y021641D03*
X020869Y021644D03*
X020869Y021647D03*
X020869Y021650D03*
X020218Y022112D03*
X020773Y023252D03*
X020728Y023306D03*
X020494Y023585D03*
X020374Y023726D03*
D152*
X020456Y021650D03*
X020456Y021647D03*
X020036Y021647D03*
X020036Y021644D03*
X019184Y021620D03*
X021719Y021425D03*
X021719Y021422D03*
X021734Y021644D03*
X021734Y021647D03*
D153*
X021188Y021473D03*
X019907Y021608D03*
X019679Y021428D03*
X019667Y021443D03*
X019655Y021458D03*
X019643Y021473D03*
X019997Y022688D03*
D154*
X021320Y021428D03*
D155*
X021721Y021428D03*
D156*
X021359Y022100D03*
X020870Y021635D03*
X020870Y021632D03*
X020870Y021629D03*
X020870Y021626D03*
X020870Y021620D03*
X020870Y021617D03*
X020870Y021449D03*
X020870Y021446D03*
X020870Y021440D03*
X020870Y021437D03*
X020870Y021434D03*
X020870Y021431D03*
X019589Y021617D03*
X019589Y021620D03*
X019589Y021626D03*
X019589Y021629D03*
X019589Y021632D03*
X019589Y021635D03*
X019589Y021641D03*
X019589Y021644D03*
X019589Y021647D03*
X019589Y021650D03*
X019589Y021656D03*
X019589Y021659D03*
X019589Y021662D03*
X019589Y021665D03*
X019589Y021671D03*
X019589Y021674D03*
X019589Y021677D03*
X019589Y021680D03*
X019589Y021686D03*
X019589Y021689D03*
X019589Y021692D03*
X019589Y021695D03*
X019589Y021701D03*
X020777Y023246D03*
X020774Y023249D03*
D157*
X021320Y021431D03*
D158*
X021319Y021434D03*
X021319Y021437D03*
X021721Y021431D03*
X020851Y021701D03*
X020377Y023747D03*
D159*
X020453Y021641D03*
X020033Y021635D03*
X020033Y021632D03*
X021317Y021440D03*
X021722Y021440D03*
X021722Y021437D03*
X021722Y021434D03*
X021728Y021617D03*
D160*
X020870Y021623D03*
X020870Y021638D03*
X020870Y021443D03*
X019589Y021623D03*
X019589Y021638D03*
X019589Y021653D03*
X019589Y021668D03*
X019589Y021683D03*
X019589Y021698D03*
D161*
X021212Y021455D03*
D162*
X021206Y021458D03*
D163*
X021200Y021461D03*
X020417Y022481D03*
X020417Y022484D03*
X020417Y022487D03*
X020417Y022490D03*
X020417Y022496D03*
X020417Y022499D03*
X020417Y022502D03*
X020417Y022505D03*
D164*
X019631Y021488D03*
D165*
X019897Y021593D03*
X019057Y021593D03*
X020002Y022628D03*
X021004Y021578D03*
X021007Y021488D03*
X021181Y021488D03*
X021604Y021608D03*
D166*
X019589Y021491D03*
X020363Y023807D03*
D167*
X020377Y023756D03*
X020497Y023612D03*
X020044Y021665D03*
X020422Y021575D03*
X020422Y021572D03*
X020422Y021569D03*
X020422Y021566D03*
X020422Y021560D03*
X020422Y021557D03*
X020422Y021554D03*
X020422Y021551D03*
X020422Y021545D03*
X020422Y021542D03*
X020422Y021539D03*
X020422Y021536D03*
X020422Y021530D03*
X020422Y021527D03*
X020422Y021524D03*
X020422Y021521D03*
X020422Y021515D03*
X020422Y021512D03*
X020422Y021509D03*
X020422Y021506D03*
X020422Y021500D03*
X020422Y021497D03*
X020422Y021494D03*
X020422Y021491D03*
X019192Y021650D03*
X021742Y021671D03*
D168*
X019594Y021494D03*
X020152Y023591D03*
X020161Y023600D03*
X020167Y023606D03*
X020176Y023615D03*
X020182Y023621D03*
X020191Y023630D03*
X020197Y023636D03*
X020206Y023645D03*
X020362Y023801D03*
D169*
X020831Y022739D03*
X020921Y021575D03*
X020921Y021572D03*
X020921Y021500D03*
X020921Y021497D03*
X020921Y021494D03*
D170*
X019603Y021500D03*
X019780Y023210D03*
X019795Y023225D03*
X019810Y023240D03*
X019825Y023255D03*
D171*
X019711Y023138D03*
X019696Y023123D03*
X019681Y023108D03*
X019666Y023093D03*
X020479Y023693D03*
X020821Y022448D03*
X020146Y022103D03*
X019606Y021503D03*
D172*
X020920Y021503D03*
X020920Y021563D03*
X020833Y022718D03*
X020833Y022733D03*
D173*
X021727Y021578D03*
X021727Y021563D03*
X021727Y021548D03*
X021727Y021533D03*
X021727Y021518D03*
X021727Y021503D03*
D174*
X020824Y022490D03*
X020824Y022496D03*
X020824Y022499D03*
X020824Y022502D03*
X020824Y022505D03*
X020824Y022511D03*
X020824Y022514D03*
X020092Y022481D03*
X019651Y023075D03*
X020494Y023669D03*
X020491Y023675D03*
X020359Y023786D03*
X019609Y021506D03*
D175*
X020920Y021509D03*
X020920Y021506D03*
X020920Y021566D03*
X020920Y021569D03*
X020833Y022721D03*
X020833Y022724D03*
X020833Y022727D03*
X020833Y022730D03*
X020833Y022736D03*
X020500Y023645D03*
D176*
X020495Y023666D03*
X020492Y023672D03*
X020822Y022517D03*
X019610Y021509D03*
D177*
X019613Y021512D03*
X020825Y022547D03*
X020825Y022550D03*
X020825Y022556D03*
X020825Y022559D03*
X020825Y022562D03*
X020825Y022565D03*
X020825Y022571D03*
X020825Y022574D03*
X020501Y023657D03*
D178*
X020828Y022628D03*
X020828Y022613D03*
X019616Y021518D03*
D179*
X020917Y021518D03*
X020830Y022673D03*
X020500Y023648D03*
D180*
X020830Y022637D03*
X020830Y022634D03*
X020830Y022631D03*
X019618Y021521D03*
D181*
X019619Y021524D03*
X020915Y021521D03*
X020915Y021551D03*
X020828Y022640D03*
X020828Y022646D03*
X020828Y022649D03*
X020828Y022652D03*
X020828Y022655D03*
D182*
X021097Y022862D03*
X020359Y023774D03*
X020914Y021527D03*
X020914Y021524D03*
D183*
X019622Y021533D03*
X020357Y023768D03*
D184*
X020825Y022568D03*
X020825Y022553D03*
X020909Y021533D03*
D185*
X019624Y021536D03*
D186*
X020908Y021539D03*
X020908Y021536D03*
X019645Y023066D03*
X020500Y023660D03*
D187*
X020357Y023765D03*
X019625Y021542D03*
X019625Y021539D03*
D188*
X019627Y021545D03*
X021097Y022871D03*
X020500Y023642D03*
D189*
X020912Y021545D03*
D190*
X019627Y021548D03*
D191*
X020914Y021548D03*
D192*
X019168Y021563D03*
X019168Y021578D03*
X020377Y023753D03*
D193*
X019631Y021563D03*
D194*
X020005Y021563D03*
D195*
X019631Y021566D03*
X019631Y021569D03*
X019631Y021572D03*
X021764Y021701D03*
D196*
X019633Y021575D03*
X019213Y021692D03*
X019075Y021800D03*
X020500Y023636D03*
D197*
X020485Y021698D03*
X019633Y021578D03*
D198*
X020003Y021578D03*
X020423Y021578D03*
X019094Y021803D03*
D199*
X019054Y021584D03*
X019729Y021599D03*
X019894Y021584D03*
D200*
X020326Y021608D03*
X019066Y021608D03*
X019996Y022703D03*
X019996Y022718D03*
X020419Y022718D03*
X020419Y022733D03*
D201*
X020419Y022625D03*
X020419Y022622D03*
X020419Y022619D03*
X020419Y022616D03*
X020419Y022610D03*
X020329Y021611D03*
D202*
X020455Y021644D03*
X020035Y021641D03*
X019183Y021617D03*
X021733Y021635D03*
X021733Y021641D03*
D203*
X020855Y021695D03*
X020450Y021629D03*
X020450Y021626D03*
X020447Y021617D03*
X020030Y021620D03*
X020030Y021617D03*
X020495Y023600D03*
X020375Y023741D03*
D204*
X020144Y022478D03*
X019184Y021623D03*
D205*
X020030Y021623D03*
X020450Y021623D03*
D206*
X021730Y021623D03*
D207*
X021731Y021626D03*
X021731Y021629D03*
X021731Y021632D03*
D208*
X021733Y021638D03*
X020035Y021638D03*
D209*
X020194Y022109D03*
X019189Y021641D03*
X021739Y021662D03*
D210*
X021740Y021665D03*
X020462Y021665D03*
X020042Y021662D03*
X019190Y021647D03*
X019190Y021644D03*
D211*
X020458Y021653D03*
X021736Y021653D03*
D212*
X021746Y021680D03*
X019196Y021665D03*
X019196Y021662D03*
D213*
X019198Y021668D03*
X021748Y021683D03*
D214*
X021740Y021668D03*
D215*
X020051Y021680D03*
X019199Y021671D03*
X020498Y023621D03*
D216*
X020498Y023624D03*
X020474Y021686D03*
X020054Y021686D03*
X019202Y021677D03*
X021752Y021689D03*
D217*
X021755Y021692D03*
X020762Y022217D03*
X019205Y021680D03*
D218*
X020470Y021680D03*
D219*
X020059Y021698D03*
X019207Y021683D03*
D220*
X020053Y021683D03*
D221*
X019211Y021689D03*
D222*
X019219Y021698D03*
D223*
X021760Y021698D03*
X020500Y023633D03*
D224*
X020063Y021701D03*
D225*
X019960Y021779D03*
X019960Y021812D03*
X019933Y022046D03*
X020365Y023825D03*
D226*
X020891Y023021D03*
X019961Y021809D03*
X019961Y021806D03*
X019961Y021800D03*
X019961Y021797D03*
X019961Y021794D03*
X019961Y021791D03*
X019961Y021785D03*
X019961Y021782D03*
D227*
X018995Y021788D03*
D228*
X019961Y021788D03*
X019961Y021803D03*
D229*
X019015Y021791D03*
D230*
X019112Y021806D03*
X020495Y023597D03*
D231*
X019132Y021809D03*
D232*
X019150Y021812D03*
D233*
X019169Y021815D03*
X020795Y023171D03*
X020489Y023534D03*
X020222Y023270D03*
X020219Y023267D03*
D234*
X020897Y023012D03*
X020900Y023009D03*
X020903Y023006D03*
X019415Y022859D03*
X019955Y021851D03*
X019955Y021845D03*
X019958Y021830D03*
X019958Y021827D03*
X019958Y021824D03*
X019958Y021821D03*
X019958Y021815D03*
D235*
X019187Y021818D03*
D236*
X019955Y021848D03*
X019958Y021833D03*
X019958Y021818D03*
X020894Y023018D03*
D237*
X020486Y023492D03*
X019208Y021821D03*
D238*
X019231Y021824D03*
D239*
X019249Y021827D03*
D240*
X019265Y021830D03*
X021218Y022076D03*
X020480Y023432D03*
D241*
X019282Y021833D03*
D242*
X019301Y021836D03*
D243*
X019957Y021842D03*
X019957Y021839D03*
X019957Y021836D03*
X019939Y022004D03*
X019939Y022007D03*
X019936Y022019D03*
X019936Y022022D03*
X019936Y022025D03*
X019936Y022031D03*
X019936Y022034D03*
X019927Y022106D03*
X019927Y022109D03*
X019912Y022250D03*
X019912Y022256D03*
X019906Y022301D03*
X019906Y022304D03*
X019906Y022307D03*
D244*
X019319Y021839D03*
D245*
X019339Y021842D03*
D246*
X019357Y021845D03*
D247*
X019376Y021848D03*
D248*
X019394Y021851D03*
D249*
X019486Y021854D03*
X019486Y021857D03*
D250*
X019484Y021860D03*
X019484Y021866D03*
D251*
X019484Y021863D03*
D252*
X019486Y021869D03*
D253*
X019505Y021872D03*
D254*
X019523Y021875D03*
D255*
X019541Y021878D03*
D256*
X019561Y021881D03*
D257*
X019579Y021884D03*
X020449Y023090D03*
D258*
X019619Y021890D03*
X019619Y021887D03*
D259*
X019636Y021893D03*
D260*
X019654Y021896D03*
D261*
X019673Y021899D03*
D262*
X019691Y021902D03*
D263*
X019721Y021905D03*
X020231Y022982D03*
D264*
X019729Y021908D03*
D265*
X019751Y021911D03*
X020216Y021950D03*
D266*
X020332Y021959D03*
X019801Y021914D03*
D267*
X019823Y021917D03*
D268*
X019861Y021920D03*
X020002Y021932D03*
D269*
X019897Y021923D03*
D270*
X019967Y021926D03*
D271*
X019984Y021929D03*
X020551Y021977D03*
D272*
X020042Y021935D03*
D273*
X020078Y021938D03*
D274*
X020116Y021941D03*
D275*
X020150Y021944D03*
D276*
X020186Y021947D03*
D277*
X020260Y021953D03*
X020437Y021968D03*
D278*
X020297Y021956D03*
D279*
X020369Y021962D03*
D280*
X020405Y021965D03*
D281*
X020479Y021971D03*
D282*
X020513Y021974D03*
D283*
X020590Y021980D03*
D284*
X020608Y021983D03*
D285*
X020626Y021986D03*
X020236Y022976D03*
D286*
X020668Y021992D03*
X020668Y021989D03*
D287*
X020704Y021995D03*
X020704Y022001D03*
D288*
X020704Y021998D03*
D289*
X020794Y022004D03*
D290*
X020810Y022007D03*
X020492Y022904D03*
X020492Y022907D03*
D291*
X019907Y022295D03*
X019907Y022292D03*
X019907Y022289D03*
X019907Y022286D03*
X019907Y022280D03*
X019907Y022277D03*
X019907Y022274D03*
X019907Y022271D03*
X019922Y022157D03*
X019922Y022154D03*
X019922Y022151D03*
X019922Y022145D03*
X019922Y022142D03*
X019922Y022139D03*
X019922Y022136D03*
X019925Y022130D03*
X019925Y022127D03*
X019925Y022124D03*
X019925Y022121D03*
X019925Y022115D03*
X019925Y022112D03*
X019937Y022016D03*
X019937Y022010D03*
D292*
X020828Y022010D03*
D293*
X019937Y022013D03*
X019925Y022118D03*
X019922Y022148D03*
X019907Y022268D03*
X019907Y022283D03*
X019835Y022883D03*
D294*
X020846Y022013D03*
D295*
X020854Y022016D03*
D296*
X020882Y022019D03*
D297*
X020899Y022022D03*
X020449Y023087D03*
D298*
X020917Y022025D03*
D299*
X019936Y022028D03*
X019924Y022133D03*
X019912Y022253D03*
X019906Y022298D03*
D300*
X020935Y022028D03*
D301*
X020953Y022031D03*
X020455Y023144D03*
D302*
X020971Y022034D03*
D303*
X019934Y022040D03*
X019934Y022037D03*
X019934Y022049D03*
X019934Y022052D03*
X019934Y022055D03*
X019919Y022166D03*
X019919Y022169D03*
X019919Y022172D03*
X019919Y022175D03*
X019919Y022181D03*
X019919Y022184D03*
X019916Y022196D03*
X019916Y022199D03*
X019916Y022202D03*
X019916Y022205D03*
X019913Y022220D03*
X019913Y022226D03*
X019913Y022229D03*
X019913Y022232D03*
X019913Y022235D03*
X019913Y022241D03*
X019913Y022244D03*
X019913Y022247D03*
X019904Y022310D03*
X019904Y022316D03*
X019838Y022859D03*
D304*
X020987Y022037D03*
D305*
X021005Y022040D03*
D306*
X019934Y022043D03*
X019934Y022058D03*
X019919Y022163D03*
X019919Y022178D03*
X019916Y022193D03*
X019916Y022208D03*
X019913Y022223D03*
X019913Y022238D03*
X019904Y022313D03*
D307*
X020447Y022823D03*
X021023Y022043D03*
D308*
X021043Y022046D03*
D309*
X021061Y022049D03*
D310*
X021139Y022052D03*
X021139Y022055D03*
X021139Y022061D03*
X020440Y022139D03*
X020473Y023342D03*
D311*
X020696Y022058D03*
D312*
X021139Y022058D03*
D313*
X019933Y022067D03*
X019933Y022070D03*
X019933Y022076D03*
X019933Y022079D03*
X019933Y022082D03*
X019933Y022064D03*
X019933Y022061D03*
X019921Y022160D03*
X019918Y022187D03*
X019918Y022190D03*
X019915Y022211D03*
X019915Y022214D03*
X019915Y022217D03*
X019903Y022319D03*
X019903Y022322D03*
X019903Y022325D03*
X019903Y022331D03*
X019903Y022334D03*
X019900Y022337D03*
X019900Y022340D03*
X019900Y022346D03*
X019900Y022349D03*
X019900Y022352D03*
X019900Y022355D03*
X019897Y022367D03*
X019897Y022370D03*
X019897Y022376D03*
X019897Y022379D03*
X019897Y022382D03*
X019891Y022424D03*
X019891Y022427D03*
X019891Y022430D03*
X019888Y022454D03*
X019888Y022457D03*
X019885Y022481D03*
X019885Y022484D03*
X019870Y022601D03*
X019870Y022604D03*
X019870Y022607D03*
X019867Y022622D03*
X019867Y022625D03*
X019867Y022631D03*
X019867Y022634D03*
X019861Y022670D03*
X019861Y022676D03*
X019861Y022679D03*
X019861Y022682D03*
X019858Y022694D03*
X019858Y022697D03*
X019858Y022700D03*
X019858Y022706D03*
X019858Y022709D03*
X019855Y022721D03*
X019855Y022724D03*
X019855Y022727D03*
X019855Y022730D03*
X019852Y022742D03*
X019852Y022745D03*
X019852Y022751D03*
X019852Y022754D03*
X019852Y022757D03*
X019843Y022826D03*
X019843Y022829D03*
X019843Y022832D03*
X019840Y022835D03*
X019840Y022841D03*
X019840Y022844D03*
X019840Y022847D03*
X019840Y022850D03*
X019840Y022856D03*
X019837Y022862D03*
X019837Y022865D03*
X019837Y022871D03*
X019837Y022874D03*
X019837Y022877D03*
X019837Y022880D03*
D314*
X021190Y022064D03*
D315*
X021188Y022067D03*
X021188Y022070D03*
X020477Y023399D03*
D316*
X020365Y023828D03*
X019837Y022868D03*
X019840Y022853D03*
X019840Y022838D03*
X019852Y022748D03*
X019855Y022733D03*
X019855Y022718D03*
X019858Y022703D03*
X019861Y022673D03*
X019867Y022628D03*
X019870Y022598D03*
X019891Y022433D03*
X019897Y022373D03*
X019900Y022358D03*
X019900Y022343D03*
X019903Y022328D03*
X019933Y022073D03*
D317*
X021200Y022073D03*
D318*
X021236Y022079D03*
X020183Y023156D03*
X020483Y023450D03*
D319*
X021254Y022082D03*
D320*
X019931Y022091D03*
X019931Y022094D03*
X019931Y022097D03*
X019931Y022100D03*
X019931Y022085D03*
X019898Y022361D03*
X019898Y022364D03*
X019895Y022385D03*
X019895Y022391D03*
X019892Y022412D03*
X019892Y022415D03*
X019892Y022421D03*
X019889Y022436D03*
X019889Y022439D03*
X019889Y022442D03*
X019889Y022445D03*
X019889Y022451D03*
X019886Y022460D03*
X019886Y022466D03*
X019886Y022469D03*
X019886Y022472D03*
X019886Y022475D03*
X019883Y022487D03*
X019883Y022490D03*
X019883Y022496D03*
X019883Y022499D03*
X019883Y022502D03*
X019883Y022505D03*
X019880Y022511D03*
X019880Y022514D03*
X019880Y022517D03*
X019880Y022520D03*
X019880Y022526D03*
X019880Y022529D03*
X019880Y022532D03*
X019877Y022541D03*
X019877Y022544D03*
X019877Y022547D03*
X019877Y022550D03*
X019877Y022556D03*
X019877Y022559D03*
X019874Y022571D03*
X019874Y022574D03*
X019874Y022577D03*
X019874Y022580D03*
X019871Y022595D03*
X019868Y022610D03*
X019868Y022616D03*
X019868Y022619D03*
X019865Y022637D03*
X019865Y022640D03*
X019862Y022661D03*
X019862Y022664D03*
X019862Y022667D03*
X019859Y022685D03*
X019859Y022691D03*
X019856Y022712D03*
X019856Y022715D03*
X019853Y022736D03*
X019853Y022739D03*
X019847Y022787D03*
X019847Y022790D03*
X019847Y022796D03*
X019847Y022799D03*
X019847Y022802D03*
X019847Y022805D03*
X019415Y022856D03*
X020366Y023831D03*
D321*
X021271Y022085D03*
D322*
X019931Y022088D03*
X019931Y022103D03*
X019895Y022388D03*
X019892Y022418D03*
X019889Y022448D03*
X019886Y022463D03*
X019886Y022478D03*
X019883Y022493D03*
X019883Y022508D03*
X019880Y022523D03*
X019877Y022553D03*
X019874Y022568D03*
X019874Y022583D03*
X019868Y022613D03*
X019865Y022643D03*
X019859Y022688D03*
X019847Y022793D03*
X019847Y022808D03*
D323*
X021289Y022088D03*
D324*
X021307Y022091D03*
X020242Y022304D03*
X020242Y022307D03*
X020242Y022310D03*
X020242Y022316D03*
X020242Y022319D03*
X020242Y022322D03*
X020206Y023249D03*
D325*
X020491Y023546D03*
X021325Y022094D03*
D326*
X021343Y022097D03*
D327*
X020120Y022100D03*
X019415Y022865D03*
X020852Y023069D03*
X020855Y023066D03*
D328*
X021431Y022112D03*
D329*
X020242Y022115D03*
D330*
X020815Y022265D03*
X020815Y022271D03*
X020815Y022274D03*
X020815Y022277D03*
X021448Y022115D03*
X020155Y023594D03*
X020158Y023597D03*
X020170Y023609D03*
X020173Y023612D03*
X020185Y023624D03*
X020188Y023627D03*
X020200Y023639D03*
X020203Y023642D03*
D331*
X020269Y022118D03*
D332*
X021466Y022118D03*
X020905Y023003D03*
D333*
X020186Y023210D03*
X020291Y022121D03*
D334*
X020318Y022124D03*
D335*
X020342Y022127D03*
X020483Y023447D03*
D336*
X020365Y022130D03*
D337*
X020423Y022133D03*
D338*
X020423Y022136D03*
X020474Y023360D03*
D339*
X020464Y022142D03*
D340*
X020462Y022145D03*
D341*
X020462Y022148D03*
D342*
X020464Y022151D03*
X020464Y022154D03*
X020464Y022157D03*
X020464Y022160D03*
D343*
X020464Y022163D03*
D344*
X020462Y022166D03*
X020462Y022169D03*
X020462Y022172D03*
X020462Y022175D03*
D345*
X020462Y022178D03*
D346*
X020464Y022181D03*
X020464Y022184D03*
D347*
X020462Y022187D03*
X020462Y022190D03*
X020462Y022196D03*
X020462Y022199D03*
X020462Y022202D03*
D348*
X020462Y022193D03*
D349*
X020461Y022205D03*
D350*
X020462Y022208D03*
D351*
X020462Y022211D03*
X020462Y022214D03*
D352*
X020251Y022217D03*
X020251Y022220D03*
D353*
X020812Y022226D03*
X020812Y022229D03*
X020812Y022232D03*
X020812Y022235D03*
X020812Y022220D03*
X020362Y023804D03*
D354*
X020251Y022223D03*
D355*
X020812Y022223D03*
D356*
X020249Y022229D03*
X020249Y022232D03*
X020249Y022235D03*
X020249Y022241D03*
X020249Y022226D03*
X020213Y023261D03*
X020216Y023264D03*
X020264Y023309D03*
X020489Y023531D03*
D357*
X020249Y022238D03*
D358*
X020813Y022238D03*
X020813Y022253D03*
X020222Y023663D03*
X020237Y023678D03*
X020252Y023693D03*
X020267Y023708D03*
D359*
X020264Y023705D03*
X020258Y023699D03*
X020255Y023696D03*
X020249Y023690D03*
X020243Y023684D03*
X020240Y023681D03*
X020234Y023675D03*
X020228Y023669D03*
X020225Y023666D03*
X020219Y023660D03*
X020213Y023654D03*
X020210Y023651D03*
X020813Y022262D03*
X020813Y022259D03*
X020813Y022256D03*
X020813Y022250D03*
X020813Y022247D03*
X020813Y022244D03*
X020813Y022241D03*
D360*
X020248Y022247D03*
X020248Y022250D03*
X020248Y022256D03*
X020248Y022259D03*
X020248Y022262D03*
X020245Y022277D03*
X020245Y022280D03*
X020248Y022244D03*
D361*
X020248Y022253D03*
X020245Y022283D03*
X020212Y023258D03*
D362*
X019834Y022895D03*
X019834Y022892D03*
X019834Y022889D03*
X019834Y022886D03*
X019849Y022784D03*
X019849Y022781D03*
X019849Y022775D03*
X019849Y022772D03*
X019849Y022769D03*
X019849Y022766D03*
X019849Y022760D03*
X019864Y022655D03*
X019864Y022652D03*
X019864Y022649D03*
X019864Y022646D03*
X019894Y022409D03*
X019894Y022406D03*
X019894Y022400D03*
X019894Y022397D03*
X019894Y022394D03*
X019909Y022265D03*
X019909Y022262D03*
X019909Y022259D03*
D363*
X020243Y022286D03*
X020243Y022289D03*
X020243Y022292D03*
X020243Y022295D03*
X020243Y022301D03*
X020246Y022274D03*
X020246Y022271D03*
X020246Y022265D03*
X020207Y023252D03*
X020210Y023255D03*
D364*
X020489Y023528D03*
X020243Y022298D03*
X020246Y022268D03*
D365*
X020815Y022268D03*
D366*
X020813Y022280D03*
X020813Y022286D03*
X020813Y022289D03*
X020093Y023531D03*
X020096Y023534D03*
X020099Y023537D03*
X020108Y023546D03*
X020111Y023549D03*
X020114Y023552D03*
X020123Y023561D03*
X020126Y023564D03*
X020129Y023567D03*
X020138Y023576D03*
X020141Y023579D03*
X020144Y023582D03*
D367*
X020813Y022283D03*
D368*
X020815Y022298D03*
X020815Y022313D03*
X020032Y023468D03*
X020047Y023483D03*
X020062Y023498D03*
X020077Y023513D03*
X020362Y023798D03*
D369*
X020242Y022313D03*
D370*
X020240Y022325D03*
X020240Y022331D03*
X020240Y022334D03*
X020240Y022337D03*
X020240Y022340D03*
X020792Y023162D03*
D371*
X020240Y022328D03*
D372*
X020816Y022328D03*
X020816Y022343D03*
X019973Y023408D03*
X019988Y023423D03*
X020003Y023438D03*
X020018Y023453D03*
D373*
X020239Y022358D03*
X020239Y022343D03*
D374*
X020239Y022346D03*
X020239Y022349D03*
X020239Y022352D03*
X020239Y022355D03*
X020239Y022361D03*
D375*
X020818Y022367D03*
X020818Y022370D03*
X020818Y022376D03*
X020818Y022364D03*
X020818Y022361D03*
X020818Y022355D03*
X020818Y022352D03*
X020818Y022349D03*
X019903Y023336D03*
X019906Y023339D03*
X019912Y023345D03*
X019918Y023351D03*
X019921Y023354D03*
X019927Y023360D03*
X019933Y023366D03*
X019936Y023369D03*
X019942Y023375D03*
X019948Y023381D03*
X019951Y023384D03*
X019957Y023390D03*
X019963Y023396D03*
X020362Y023795D03*
D376*
X019960Y023393D03*
X019945Y023378D03*
X019930Y023363D03*
X019915Y023348D03*
X019900Y023333D03*
X020818Y022373D03*
X020818Y022358D03*
D377*
X020237Y022364D03*
X020237Y022367D03*
X020237Y022370D03*
X020237Y022376D03*
X020237Y022379D03*
X020237Y022382D03*
X020234Y022391D03*
X020234Y022394D03*
X020234Y022397D03*
X020234Y022400D03*
X020792Y023159D03*
X020489Y023522D03*
D378*
X020237Y022373D03*
D379*
X020819Y022379D03*
X020819Y022382D03*
X020819Y022385D03*
X020819Y022391D03*
X020819Y022394D03*
X020819Y022397D03*
X020819Y022400D03*
X019898Y023330D03*
X019889Y023321D03*
X019883Y023315D03*
X019874Y023306D03*
X019868Y023300D03*
X019859Y023291D03*
X019853Y023285D03*
X019844Y023276D03*
X019838Y023270D03*
D380*
X020197Y023234D03*
X020200Y023237D03*
X020488Y023519D03*
X020233Y022421D03*
X020233Y022415D03*
X020233Y022412D03*
X020233Y022409D03*
X020233Y022406D03*
X020236Y022385D03*
D381*
X020236Y022388D03*
X020233Y022403D03*
X020233Y022418D03*
D382*
X020819Y022388D03*
X019886Y023318D03*
X019871Y023303D03*
X019856Y023288D03*
X019841Y023273D03*
D383*
X019834Y022898D03*
X019849Y022778D03*
X019849Y022763D03*
X019864Y022658D03*
X019894Y022403D03*
D384*
X020818Y022403D03*
X019798Y023228D03*
X019813Y023243D03*
X019828Y023258D03*
X019783Y023213D03*
D385*
X019775Y023204D03*
X019772Y023201D03*
X019763Y023192D03*
X019760Y023189D03*
X019757Y023186D03*
X019748Y023177D03*
X019745Y023174D03*
X019742Y023171D03*
X019733Y023162D03*
X019730Y023159D03*
X019727Y023156D03*
X019718Y023147D03*
X019715Y023144D03*
X020468Y023705D03*
X020474Y023699D03*
X020360Y023789D03*
X020819Y022430D03*
X020819Y022427D03*
X020819Y022424D03*
X020819Y022421D03*
X020819Y022415D03*
X020819Y022412D03*
X020819Y022409D03*
X020819Y022406D03*
D386*
X020819Y022418D03*
X020819Y022433D03*
X019769Y023198D03*
X019754Y023183D03*
X019739Y023168D03*
X019724Y023153D03*
X020468Y023708D03*
D387*
X020231Y022442D03*
X020231Y022439D03*
X020231Y022436D03*
X020231Y022430D03*
X020231Y022427D03*
X020231Y022424D03*
D388*
X020231Y022433D03*
D389*
X020821Y022439D03*
X020821Y022442D03*
X020821Y022445D03*
X020821Y022451D03*
X020821Y022454D03*
X020821Y022457D03*
X020821Y022460D03*
X020821Y022436D03*
X019714Y023141D03*
X019708Y023135D03*
X019705Y023132D03*
X019702Y023129D03*
X019699Y023126D03*
X019693Y023120D03*
X019690Y023117D03*
X019687Y023114D03*
X019684Y023111D03*
X019678Y023105D03*
X019675Y023102D03*
X019672Y023099D03*
X019669Y023096D03*
X019654Y023081D03*
X020482Y023687D03*
X020476Y023696D03*
D390*
X020488Y023516D03*
X020230Y022460D03*
X020230Y022457D03*
X020230Y022454D03*
X020230Y022451D03*
X020230Y022445D03*
D391*
X020230Y022448D03*
D392*
X020228Y022463D03*
D393*
X020822Y022463D03*
X020822Y022478D03*
X019622Y023048D03*
X019607Y023033D03*
X019592Y023018D03*
D394*
X020228Y022475D03*
X020228Y022472D03*
X020228Y022469D03*
X020228Y022466D03*
D395*
X020822Y022472D03*
X020822Y022475D03*
X020822Y022481D03*
X020822Y022484D03*
X020822Y022487D03*
X020822Y022469D03*
X020822Y022466D03*
X019664Y023090D03*
X019658Y023084D03*
X019643Y023069D03*
X019634Y023060D03*
X019628Y023054D03*
X019625Y023051D03*
X019619Y023045D03*
X019613Y023039D03*
X019610Y023036D03*
X019604Y023030D03*
X019598Y023024D03*
X019595Y023021D03*
X020483Y023684D03*
X020480Y023690D03*
D396*
X020417Y022493D03*
X020417Y022478D03*
D397*
X020824Y022493D03*
X020824Y022508D03*
X019654Y023078D03*
X019639Y023063D03*
D398*
X020419Y022508D03*
D399*
X020419Y022511D03*
X020419Y022514D03*
D400*
X020824Y022520D03*
X020824Y022526D03*
X020824Y022529D03*
X020824Y022532D03*
X020824Y022535D03*
X020824Y022541D03*
X020824Y022544D03*
X019594Y023015D03*
X020359Y023780D03*
D401*
X020006Y022523D03*
D402*
X019994Y022748D03*
X020417Y022598D03*
X020417Y022583D03*
X020417Y022568D03*
X020417Y022553D03*
X020417Y022538D03*
X020417Y022523D03*
X021041Y022853D03*
D403*
X020824Y022538D03*
X020824Y022523D03*
D404*
X019879Y022535D03*
D405*
X019879Y022538D03*
D406*
X019876Y022562D03*
X019876Y022565D03*
X019873Y022586D03*
X019873Y022589D03*
X019873Y022592D03*
X019846Y022811D03*
X019846Y022814D03*
X019846Y022817D03*
X019846Y022820D03*
X020815Y022829D03*
D407*
X020827Y022598D03*
X020827Y022583D03*
D408*
X020828Y022604D03*
X020828Y022607D03*
X020828Y022610D03*
X020828Y022616D03*
X020828Y022619D03*
X020828Y022622D03*
X020828Y022625D03*
X020501Y023654D03*
D409*
X020419Y022628D03*
X020419Y022613D03*
D410*
X020417Y022643D03*
X020417Y022658D03*
X020417Y022673D03*
X020417Y022688D03*
X020417Y022703D03*
D411*
X020828Y022658D03*
X020828Y022643D03*
D412*
X020831Y022688D03*
X020831Y022703D03*
D413*
X020831Y022706D03*
X020831Y022709D03*
X020831Y022712D03*
X020831Y022715D03*
X020831Y022700D03*
X020831Y022697D03*
X020831Y022694D03*
X020831Y022691D03*
D414*
X019996Y022733D03*
D415*
X020180Y023165D03*
X020483Y023462D03*
X020663Y022742D03*
D416*
X020665Y022745D03*
X020665Y022751D03*
X020665Y022754D03*
X020665Y022757D03*
X020665Y022760D03*
X020665Y022766D03*
X020665Y022769D03*
X020665Y022772D03*
D417*
X020665Y022763D03*
X020665Y022748D03*
D418*
X019993Y022763D03*
X019993Y022778D03*
D419*
X020648Y022775D03*
X020480Y023441D03*
D420*
X020596Y022778D03*
D421*
X020549Y022781D03*
D422*
X020449Y022784D03*
X020449Y022787D03*
X020449Y022790D03*
X020449Y022796D03*
D423*
X020449Y022793D03*
D424*
X020447Y022799D03*
D425*
X020449Y022802D03*
X020449Y022805D03*
X020449Y022811D03*
X020449Y022814D03*
X020449Y022817D03*
D426*
X019414Y022808D03*
D427*
X020449Y022808D03*
D428*
X020447Y022820D03*
D429*
X019846Y022823D03*
D430*
X020428Y022826D03*
D431*
X020327Y022829D03*
D432*
X020258Y022832D03*
X020894Y022889D03*
X020480Y023426D03*
D433*
X020488Y023501D03*
X020185Y023204D03*
X020188Y022835D03*
D434*
X020125Y022838D03*
D435*
X021053Y022838D03*
D436*
X019415Y022853D03*
D437*
X019415Y022862D03*
X020867Y023051D03*
X020873Y023045D03*
X020879Y023036D03*
D438*
X020363Y023813D03*
X019418Y022868D03*
D439*
X021097Y022868D03*
D440*
X019432Y022880D03*
X019423Y022874D03*
X019420Y022871D03*
D441*
X019429Y022877D03*
D442*
X019909Y023342D03*
X019924Y023357D03*
X019939Y023372D03*
X019954Y023387D03*
X021064Y022877D03*
D443*
X021092Y022880D03*
X020357Y023759D03*
D444*
X019435Y022883D03*
D445*
X019439Y022886D03*
X020363Y023810D03*
D446*
X021004Y022886D03*
D447*
X019445Y022892D03*
X019442Y022889D03*
D448*
X020785Y022892D03*
D449*
X019450Y022895D03*
D450*
X020675Y022895D03*
D451*
X019453Y022898D03*
D452*
X020564Y022898D03*
D453*
X019462Y022907D03*
X019459Y022904D03*
X019456Y022901D03*
D454*
X020494Y022901D03*
D455*
X020300Y022910D03*
D456*
X020302Y022913D03*
D457*
X020303Y022916D03*
D458*
X020305Y022919D03*
D459*
X020306Y022922D03*
D460*
X020308Y022925D03*
D461*
X020309Y022928D03*
D462*
X020311Y022931D03*
D463*
X020312Y022934D03*
D464*
X020314Y022937D03*
D465*
X020315Y022940D03*
D466*
X020315Y022943D03*
D467*
X020317Y022946D03*
D468*
X020318Y022949D03*
D469*
X020320Y022952D03*
D470*
X020320Y022955D03*
D471*
X020297Y022958D03*
D472*
X020296Y022961D03*
D473*
X020263Y022964D03*
D474*
X020245Y022967D03*
D475*
X020242Y022970D03*
D476*
X020239Y022973D03*
D477*
X020233Y022979D03*
D478*
X020230Y022985D03*
D479*
X020228Y022988D03*
D480*
X020228Y022991D03*
D481*
X020227Y022994D03*
D482*
X020227Y022997D03*
D483*
X020227Y023000D03*
D484*
X020050Y023003D03*
D485*
X019936Y023006D03*
D486*
X019822Y023009D03*
D487*
X019708Y023012D03*
X020260Y023306D03*
D488*
X020875Y023042D03*
X020878Y023039D03*
X020884Y023030D03*
X020887Y023027D03*
X020890Y023024D03*
X020896Y023015D03*
X020365Y023822D03*
D489*
X020486Y023681D03*
X019661Y023087D03*
X019646Y023072D03*
X019631Y023057D03*
X019616Y023042D03*
X019601Y023027D03*
D490*
X020870Y023048D03*
X020882Y023033D03*
D491*
X020866Y023054D03*
D492*
X020863Y023057D03*
X020860Y023060D03*
X020365Y023819D03*
D493*
X020471Y023702D03*
X019766Y023195D03*
X019751Y023180D03*
X019736Y023165D03*
X019721Y023150D03*
X019886Y023060D03*
D494*
X019976Y023063D03*
D495*
X020858Y023063D03*
D496*
X020485Y023474D03*
X020068Y023066D03*
D497*
X020159Y023069D03*
D498*
X020251Y023072D03*
D499*
X020849Y023072D03*
X020363Y023816D03*
D500*
X020362Y023075D03*
D501*
X020432Y023078D03*
D502*
X020449Y023081D03*
D503*
X020449Y023084D03*
D504*
X020450Y023093D03*
D505*
X020450Y023096D03*
D506*
X020450Y023099D03*
D507*
X020450Y023102D03*
D508*
X020450Y023105D03*
D509*
X020452Y023108D03*
D510*
X020453Y023111D03*
D511*
X020453Y023114D03*
D512*
X020453Y023117D03*
D513*
X020453Y023120D03*
D514*
X020453Y023123D03*
D515*
X020453Y023126D03*
D516*
X020453Y023129D03*
D517*
X020455Y023132D03*
D518*
X020455Y023135D03*
D519*
X020455Y023138D03*
D520*
X020455Y023141D03*
D521*
X020455Y023147D03*
D522*
X020194Y023150D03*
D523*
X020779Y023150D03*
D524*
X020186Y023153D03*
D525*
X020788Y023153D03*
D526*
X020791Y023156D03*
D527*
X020182Y023159D03*
D528*
X020180Y023162D03*
D529*
X020794Y023165D03*
D530*
X020179Y023168D03*
D531*
X020795Y023168D03*
D532*
X020485Y023471D03*
X020179Y023171D03*
D533*
X020179Y023174D03*
D534*
X020234Y023285D03*
X020240Y023291D03*
X020243Y023294D03*
X020489Y023537D03*
X020795Y023174D03*
D535*
X020179Y023177D03*
D536*
X020795Y023177D03*
D537*
X020179Y023180D03*
D538*
X020795Y023180D03*
D539*
X020180Y023183D03*
D540*
X020795Y023183D03*
D541*
X020180Y023186D03*
D542*
X020491Y023549D03*
X020797Y023186D03*
D543*
X020180Y023189D03*
D544*
X020795Y023189D03*
D545*
X020182Y023192D03*
D546*
X020795Y023192D03*
D547*
X020182Y023195D03*
D548*
X020491Y023555D03*
X020794Y023195D03*
D549*
X020183Y023198D03*
D550*
X020794Y023198D03*
D551*
X020183Y023201D03*
D552*
X020492Y023561D03*
X020792Y023204D03*
X020792Y023201D03*
D553*
X019837Y023267D03*
X019834Y023264D03*
X019831Y023261D03*
X019822Y023252D03*
X019819Y023249D03*
X019816Y023246D03*
X019807Y023237D03*
X019804Y023234D03*
X019801Y023231D03*
X019792Y023222D03*
X019789Y023219D03*
X019786Y023216D03*
X019777Y023207D03*
D554*
X020186Y023207D03*
D555*
X020492Y023564D03*
X020792Y023207D03*
D556*
X020791Y023210D03*
D557*
X020188Y023213D03*
D558*
X020789Y023213D03*
D559*
X020189Y023216D03*
D560*
X020492Y023570D03*
X020789Y023216D03*
D561*
X020488Y023510D03*
X020191Y023219D03*
D562*
X020788Y023222D03*
X020788Y023219D03*
D563*
X020192Y023222D03*
D564*
X020194Y023225D03*
D565*
X020786Y023225D03*
D566*
X020194Y023228D03*
D567*
X020785Y023228D03*
D568*
X020195Y023231D03*
D569*
X020714Y023312D03*
X020783Y023231D03*
D570*
X020782Y023234D03*
D571*
X020780Y023237D03*
D572*
X020201Y023240D03*
D573*
X020494Y023582D03*
X020722Y023309D03*
X020779Y023240D03*
D574*
X020203Y023243D03*
D575*
X020374Y023723D03*
X020779Y023243D03*
D576*
X020489Y023525D03*
X020273Y023312D03*
X020204Y023246D03*
D577*
X020771Y023255D03*
D578*
X020771Y023258D03*
D579*
X020762Y023270D03*
X020375Y023732D03*
D580*
X020254Y023303D03*
X020224Y023273D03*
D581*
X020759Y023273D03*
D582*
X020251Y023300D03*
X020230Y023279D03*
X020227Y023276D03*
D583*
X019895Y023327D03*
X019892Y023324D03*
X019880Y023312D03*
X019877Y023309D03*
X019865Y023297D03*
X019862Y023294D03*
X019850Y023282D03*
X019847Y023279D03*
X020360Y023792D03*
D584*
X020246Y023297D03*
X020231Y023282D03*
D585*
X020237Y023288D03*
D586*
X020749Y023288D03*
D587*
X020740Y023297D03*
D588*
X020732Y023303D03*
D589*
X020471Y023315D03*
D590*
X020471Y023318D03*
D591*
X020471Y023321D03*
D592*
X020471Y023324D03*
D593*
X020471Y023327D03*
D594*
X020471Y023330D03*
D595*
X020473Y023333D03*
D596*
X020473Y023336D03*
D597*
X020473Y023339D03*
D598*
X020473Y023345D03*
D599*
X020473Y023348D03*
D600*
X020473Y023351D03*
D601*
X020474Y023354D03*
D602*
X020474Y023357D03*
D603*
X020474Y023363D03*
D604*
X020474Y023366D03*
D605*
X020474Y023369D03*
D606*
X020476Y023372D03*
D607*
X020476Y023375D03*
D608*
X020476Y023378D03*
D609*
X020476Y023381D03*
D610*
X020476Y023384D03*
D611*
X020476Y023387D03*
D612*
X020477Y023390D03*
D613*
X020477Y023393D03*
D614*
X020477Y023396D03*
D615*
X020477Y023402D03*
D616*
X020477Y023405D03*
D617*
X020479Y023408D03*
D618*
X020479Y023411D03*
D619*
X020479Y023414D03*
D620*
X020479Y023417D03*
D621*
X020479Y023420D03*
D622*
X020479Y023423D03*
D623*
X020480Y023429D03*
D624*
X020480Y023435D03*
D625*
X020480Y023438D03*
D626*
X020480Y023444D03*
D627*
X020483Y023453D03*
D628*
X020483Y023456D03*
D629*
X020483Y023459D03*
D630*
X020074Y023510D03*
X020059Y023495D03*
X020044Y023480D03*
X020029Y023465D03*
D631*
X020485Y023465D03*
D632*
X020485Y023468D03*
D633*
X020485Y023477D03*
D634*
X020485Y023480D03*
D635*
X020486Y023483D03*
D636*
X020486Y023486D03*
D637*
X020486Y023489D03*
D638*
X020486Y023495D03*
D639*
X020486Y023498D03*
D640*
X020488Y023504D03*
D641*
X020488Y023507D03*
D642*
X020488Y023513D03*
D643*
X020147Y023585D03*
X020132Y023570D03*
X020117Y023555D03*
X020102Y023540D03*
X020087Y023525D03*
D644*
X020090Y023528D03*
X020105Y023543D03*
X020120Y023558D03*
X020135Y023573D03*
D645*
X020491Y023540D03*
D646*
X020491Y023543D03*
D647*
X020491Y023552D03*
D648*
X020492Y023558D03*
D649*
X020492Y023567D03*
D650*
X020492Y023573D03*
D651*
X020494Y023576D03*
X020374Y023717D03*
D652*
X020374Y023720D03*
X020494Y023579D03*
D653*
X020209Y023648D03*
X020194Y023633D03*
X020179Y023618D03*
X020164Y023603D03*
X020149Y023588D03*
D654*
X020494Y023591D03*
D655*
X020494Y023594D03*
D656*
X020498Y023627D03*
D657*
X020501Y023651D03*
D658*
X020261Y023702D03*
X020246Y023687D03*
X020231Y023672D03*
X020216Y023657D03*
D659*
X020498Y023663D03*
D660*
X020488Y023678D03*
D661*
X020374Y023711D03*
D662*
X020374Y023714D03*
D663*
X020375Y023738D03*
D664*
X020510Y023768D03*
D665*
X020510Y023771D03*
D666*
X020359Y023777D03*
D667*
X020360Y023783D03*
D668*
X020366Y023834D03*
D669*
X020366Y023837D03*
D670*
X020366Y023840D03*
D671*
X020368Y023843D03*
D672*
X020374Y023894D03*
X020374Y023897D03*
D673*
X033435Y024133D02*
X034202Y024133D01*
X034833Y024353D02*
X035601Y024353D01*
X035601Y022353D02*
X034833Y022353D01*
X034202Y022165D02*
X033435Y022165D01*
X034833Y020353D02*
X035601Y020353D01*
X034202Y020196D02*
X033435Y020196D01*
X033435Y018228D02*
X034202Y018228D01*
X034833Y018353D02*
X035601Y018353D01*
X035601Y016353D02*
X034833Y016353D01*
X034203Y016278D02*
X033435Y016278D01*
X033435Y014309D02*
X034203Y014309D01*
X034833Y014353D02*
X035601Y014353D01*
X035601Y012353D02*
X034833Y012353D01*
X034202Y012322D02*
X033435Y012322D01*
X033435Y010354D02*
X034202Y010354D01*
X034833Y010353D02*
X035601Y010353D01*
X035203Y005350D02*
X034436Y005350D01*
X034207Y004750D02*
X033440Y004750D01*
X034833Y004353D02*
X035601Y004353D01*
X035203Y003086D02*
X034436Y003086D01*
X034207Y002782D02*
X033440Y002782D01*
X034833Y002353D02*
X035601Y002353D01*
X007321Y003317D02*
X006554Y003317D01*
X006051Y003353D02*
X005283Y003353D01*
X005283Y001353D02*
X006051Y001353D01*
X006554Y001349D02*
X007321Y001349D01*
X006051Y011353D02*
X005283Y011353D01*
X006597Y011435D02*
X007365Y011435D01*
X006051Y013353D02*
X005283Y013353D01*
X006597Y013404D02*
X007365Y013404D01*
X007365Y015372D02*
X006597Y015372D01*
X006051Y015353D02*
X005283Y015353D01*
X005283Y017353D02*
X006051Y017353D01*
X006597Y017341D02*
X007365Y017341D01*
X007365Y019349D02*
X006597Y019349D01*
X006051Y019353D02*
X005283Y019353D01*
X005283Y021353D02*
X006051Y021353D01*
X006597Y021317D02*
X007365Y021317D01*
X007365Y023286D02*
X006597Y023286D01*
X006051Y023353D02*
X005283Y023353D01*
X005283Y025353D02*
X006051Y025353D01*
X006597Y025254D02*
X007365Y025254D01*
D674*
X008217Y025603D03*
X011217Y025603D03*
X015217Y025603D03*
X015217Y022603D03*
X015217Y021603D03*
X011217Y021603D03*
X009217Y022603D03*
X008217Y021603D03*
X008217Y017603D03*
X011217Y017603D03*
X015217Y017603D03*
X015217Y018603D03*
X015217Y014603D03*
X015217Y013603D03*
X011217Y013603D03*
X009217Y014603D03*
X008217Y013603D03*
X015217Y010603D03*
X025717Y010353D03*
X029717Y010353D03*
X032717Y010353D03*
X031717Y013353D03*
X032717Y014353D03*
X029717Y014353D03*
X025717Y014353D03*
X025717Y013353D03*
X025717Y017353D03*
X025717Y018353D03*
X029717Y018353D03*
X032717Y018353D03*
X031717Y021353D03*
X032717Y022353D03*
X029717Y022353D03*
X025717Y022353D03*
X025717Y021353D03*
X025717Y025353D03*
D675*
X024467Y014130D02*
X024467Y013576D01*
X023467Y013576D02*
X023467Y014130D01*
X022467Y014130D02*
X022467Y013576D01*
X021467Y013576D02*
X021467Y014130D01*
X020467Y014130D02*
X020467Y013576D01*
X019467Y013576D02*
X019467Y014130D01*
X018467Y014130D02*
X018467Y013576D01*
X017467Y013576D02*
X017467Y014130D01*
X016467Y014130D02*
X016467Y013576D01*
X016467Y011130D02*
X016467Y010576D01*
X016467Y009755D02*
X016467Y009201D01*
X015467Y009201D02*
X015467Y009755D01*
X017467Y009755D02*
X017467Y009201D01*
X018467Y009201D02*
X018467Y009755D01*
X018467Y010576D02*
X018467Y011130D01*
X017467Y011130D02*
X017467Y010576D01*
X019467Y010576D02*
X019467Y011130D01*
X020467Y011130D02*
X020467Y010576D01*
X021467Y010576D02*
X021467Y011130D01*
X022467Y011130D02*
X022467Y010576D01*
X023467Y010576D02*
X023467Y011130D01*
X024467Y011130D02*
X024467Y010576D01*
X024467Y009755D02*
X024467Y009201D01*
X023467Y009201D02*
X023467Y009755D01*
X022467Y009755D02*
X022467Y009201D01*
X021467Y009201D02*
X021467Y009755D01*
X020467Y009755D02*
X020467Y009201D01*
X019467Y009201D02*
X019467Y009755D01*
X019467Y006755D02*
X019467Y006201D01*
X020467Y006201D02*
X020467Y006755D01*
X021467Y006755D02*
X021467Y006201D01*
X022467Y006201D02*
X022467Y006755D01*
X023467Y006755D02*
X023467Y006201D01*
X024467Y006201D02*
X024467Y006755D01*
X018467Y006755D02*
X018467Y006201D01*
X017467Y006201D02*
X017467Y006755D01*
X016467Y006755D02*
X016467Y006201D01*
X015467Y006201D02*
X015467Y006755D01*
D676*
X012780Y007306D02*
X012780Y007900D01*
X011780Y007900D02*
X011780Y007306D01*
X010780Y007306D02*
X010780Y007900D01*
X007044Y008243D02*
X006450Y008243D01*
X004484Y008243D02*
X003890Y008243D01*
X003890Y006463D02*
X004484Y006463D01*
X006450Y006463D02*
X007044Y006463D01*
D677*
X005467Y004853D03*
X010342Y006353D03*
X014342Y006353D03*
D678*
X005467Y005853D03*
D679*
X012405Y003415D03*
D680*
X010405Y003415D03*
D681*
X030842Y004098D03*
X030848Y002856D03*
D682*
X024717Y003603D03*
X023717Y003603D03*
X022717Y003603D03*
X021717Y003603D03*
X020717Y003603D03*
X019717Y003603D03*
X018717Y003603D03*
X017717Y003603D03*
X016717Y003603D03*
X015717Y003603D03*
X015717Y004603D03*
X016717Y004603D03*
X017717Y004603D03*
X018717Y004603D03*
X019717Y004603D03*
X020717Y004603D03*
X021717Y004603D03*
X022717Y004603D03*
X023717Y004603D03*
X024717Y004603D03*
X014280Y007165D03*
X014280Y009165D03*
D683*
X008780Y007603D03*
X008780Y003603D03*
D684*
X008030Y011415D02*
X006592Y011415D01*
X006530Y011353D01*
X005667Y011353D01*
X008030Y011415D02*
X009592Y011415D01*
X010967Y012790D01*
X011217Y013040D01*
X011217Y013603D01*
X009217Y014603D02*
X008030Y013415D01*
X006592Y013415D01*
X006530Y013353D01*
X005667Y013353D01*
X005667Y015353D02*
X007467Y015353D01*
X008780Y016165D01*
X009780Y016165D01*
X010655Y017040D01*
X011217Y017603D01*
X009467Y019353D02*
X008030Y019353D01*
X005667Y019353D01*
X005667Y021353D02*
X007967Y021353D01*
X009217Y022603D01*
X008780Y024165D02*
X007592Y023290D01*
X006155Y023290D01*
X006092Y023353D01*
X005667Y023353D01*
X005667Y025353D02*
X006467Y025353D01*
X006592Y025228D01*
X007342Y025228D01*
X007717Y025603D01*
X008217Y025603D01*
X008780Y024165D02*
X009780Y024165D01*
X010655Y025040D01*
X011217Y025603D01*
X011217Y021603D02*
X011217Y021103D01*
X010967Y020853D01*
X009467Y019353D01*
X008217Y017603D02*
X007655Y017603D01*
X007405Y017353D01*
X005667Y017353D01*
X029717Y018353D02*
X030280Y018915D01*
X031155Y019790D01*
X032092Y019790D01*
X033155Y020165D01*
X033842Y020165D01*
X033842Y020228D02*
X034217Y020228D01*
X034342Y020353D01*
X035217Y020353D01*
X034217Y022165D02*
X032592Y022165D01*
X032717Y022353D02*
X031717Y021353D01*
X029717Y022353D02*
X029717Y022853D01*
X031030Y024165D01*
X032717Y024165D01*
X034217Y024165D01*
X034405Y024353D01*
X035217Y024353D01*
X035217Y022353D02*
X034342Y022353D01*
X034342Y018353D02*
X034217Y018228D01*
X032842Y018228D01*
X032717Y018353D01*
X034342Y018353D02*
X035217Y018353D01*
X035217Y016353D02*
X034280Y016353D01*
X034217Y016290D01*
X032717Y016290D01*
X031155Y016290D01*
X029967Y015103D01*
X029717Y014853D01*
X029717Y014353D01*
X031717Y013353D02*
X032717Y014353D01*
X033842Y014353D01*
X033905Y014353D02*
X033842Y014290D01*
X033905Y014353D02*
X035217Y014353D01*
X035217Y012353D02*
X033842Y012353D01*
X033780Y012290D01*
X033842Y012290D01*
X033842Y012353D01*
X033780Y012290D02*
X033280Y012290D01*
X032092Y011790D01*
X032030Y011790D02*
X031155Y011790D01*
X030280Y010915D01*
X029717Y010353D01*
X032717Y010353D02*
X035217Y010353D01*
D685*
X032780Y012040D03*
X030280Y010915D03*
X029967Y015103D03*
X032717Y016290D03*
X030280Y018915D03*
X032717Y020040D03*
X029967Y023103D03*
X032717Y024165D03*
X010967Y020853D03*
X008030Y019353D03*
X010655Y017040D03*
X008030Y015665D03*
X010967Y012790D03*
X008030Y011415D03*
X009655Y005290D03*
X027842Y005540D03*
X030217Y004728D03*
X031467Y004728D03*
X031592Y002853D03*
X008030Y023603D03*
X010655Y025040D03*
D686*
X006717Y006478D02*
X006702Y006463D01*
X004187Y006463D01*
X004077Y006463D01*
X006717Y006463D02*
X006747Y006463D01*
X006717Y006463D02*
X006717Y006478D01*
X024717Y003603D02*
X024717Y003228D01*
X025092Y002853D01*
X030842Y002853D01*
X030845Y002856D01*
X030848Y002856D01*
D687*
X031589Y002856D01*
X031592Y002853D01*
X030842Y004098D02*
X030842Y004478D01*
X031092Y004728D01*
X031467Y004728D01*
X030842Y004478D02*
X030592Y004728D01*
X030217Y004728D01*
X004077Y006463D02*
X003967Y006353D01*
D688*
X003562Y006117D02*
X003562Y000408D01*
X003578Y000395D01*
X003597Y000385D01*
X035467Y000383D01*
X035467Y001603D01*
X035684Y001603D01*
X035761Y001635D01*
X036967Y001635D01*
X036967Y005978D01*
X033464Y005978D01*
X033444Y005969D01*
X033342Y005969D01*
X033322Y005978D01*
X026217Y005978D01*
X026217Y009478D01*
X024592Y009478D01*
X024592Y009486D01*
X024476Y009486D01*
X024476Y009469D01*
X024924Y009469D01*
X024924Y009110D01*
X024855Y008942D01*
X024726Y008813D01*
X024558Y008743D01*
X024476Y008743D01*
X024476Y009469D01*
X024458Y009469D01*
X024010Y009469D01*
X024010Y009110D01*
X024080Y008942D01*
X024208Y008813D01*
X024376Y008743D01*
X024458Y008743D01*
X024458Y009469D01*
X024458Y009486D01*
X024010Y009486D01*
X024010Y009846D01*
X024080Y010014D01*
X024208Y010142D01*
X024263Y010165D01*
X024208Y010188D01*
X024080Y010317D01*
X024010Y010485D01*
X024010Y010844D01*
X024458Y010844D01*
X024458Y010861D01*
X024010Y010861D01*
X024010Y011221D01*
X024080Y011389D01*
X024208Y011517D01*
X024376Y011587D01*
X024458Y011587D01*
X024458Y010862D01*
X024476Y010862D01*
X024476Y011587D01*
X024558Y011587D01*
X024592Y011573D01*
X024592Y011853D01*
X014842Y011853D01*
X014842Y011053D01*
X014886Y011098D01*
X015101Y011187D01*
X015333Y011187D01*
X015548Y011098D01*
X015712Y010933D01*
X015801Y010719D01*
X015801Y010487D01*
X015712Y010272D01*
X015640Y010200D01*
X015737Y010159D01*
X015872Y010025D01*
X015944Y009850D01*
X015944Y009106D01*
X015872Y008930D01*
X015737Y008796D01*
X015562Y008723D01*
X015372Y008723D01*
X015197Y008796D01*
X015063Y008930D01*
X014990Y009106D01*
X014990Y009850D01*
X015063Y010025D01*
X015069Y010032D01*
X014886Y010108D01*
X014842Y010152D01*
X014842Y009540D01*
X014607Y009540D01*
X014776Y009371D01*
X014776Y008959D01*
X014485Y008668D01*
X014280Y008668D01*
X014280Y008478D01*
X007484Y008478D01*
X007541Y008342D01*
X007541Y008144D01*
X007465Y007961D01*
X007325Y007822D01*
X007143Y007746D01*
X006351Y007746D01*
X006169Y007822D01*
X006029Y007961D01*
X005953Y008144D01*
X005953Y008342D01*
X006010Y008478D01*
X004924Y008478D01*
X004981Y008342D01*
X004981Y008144D01*
X004905Y007961D01*
X004765Y007822D01*
X004583Y007746D01*
X003791Y007746D01*
X003609Y007822D01*
X003582Y007848D01*
X003566Y006812D01*
X003620Y006867D01*
X003795Y006940D01*
X004169Y006940D01*
X004169Y006481D01*
X004206Y006481D01*
X004961Y006481D01*
X004961Y006558D01*
X004888Y006733D01*
X004754Y006867D01*
X004579Y006940D01*
X004206Y006940D01*
X004206Y006481D01*
X004206Y006444D01*
X004961Y006444D01*
X004961Y006368D01*
X004888Y006193D01*
X004754Y006059D01*
X004579Y005986D01*
X004206Y005986D01*
X004206Y006444D01*
X004169Y006444D01*
X004169Y005986D01*
X003795Y005986D01*
X003620Y006059D01*
X003562Y006117D01*
X003562Y006060D02*
X003618Y006060D01*
X003562Y005902D02*
X004990Y005902D01*
X004990Y005948D02*
X004990Y005758D01*
X005063Y005582D01*
X005197Y005448D01*
X005372Y005376D01*
X005562Y005376D01*
X005737Y005448D01*
X005872Y005582D01*
X005944Y005758D01*
X005944Y005948D01*
X005872Y006123D01*
X005737Y006257D01*
X005562Y006330D01*
X005372Y006330D01*
X005197Y006257D01*
X005063Y006123D01*
X004990Y005948D01*
X005037Y006060D02*
X004756Y006060D01*
X004899Y006219D02*
X005158Y006219D01*
X004961Y006377D02*
X005973Y006377D01*
X005973Y006368D02*
X006046Y006193D01*
X006180Y006059D01*
X006355Y005986D01*
X006729Y005986D01*
X006729Y006444D01*
X006766Y006444D01*
X006766Y006481D01*
X007521Y006481D01*
X007521Y006558D01*
X007448Y006733D01*
X007314Y006867D01*
X007139Y006940D01*
X006766Y006940D01*
X006766Y006481D01*
X006729Y006481D01*
X006729Y006940D01*
X006355Y006940D01*
X006180Y006867D01*
X006046Y006733D01*
X005973Y006558D01*
X005973Y006481D01*
X006728Y006481D01*
X006728Y006444D01*
X005973Y006444D01*
X005973Y006368D01*
X006035Y006219D02*
X005776Y006219D01*
X005898Y006060D02*
X006178Y006060D01*
X005944Y005902D02*
X010118Y005902D01*
X010144Y005876D02*
X009865Y006155D01*
X009865Y006550D01*
X010144Y006830D01*
X010540Y006830D01*
X010819Y006550D01*
X010819Y006155D01*
X010540Y005876D01*
X010144Y005876D01*
X009960Y006060D02*
X007316Y006060D01*
X007314Y006059D02*
X007448Y006193D01*
X007521Y006368D01*
X007521Y006444D01*
X006766Y006444D01*
X006766Y005986D01*
X007139Y005986D01*
X007314Y006059D01*
X007459Y006219D02*
X009865Y006219D01*
X009865Y006377D02*
X007521Y006377D01*
X007521Y006536D02*
X009865Y006536D01*
X010009Y006694D02*
X007464Y006694D01*
X007328Y006853D02*
X010575Y006853D01*
X010498Y006885D02*
X010681Y006809D01*
X010878Y006809D01*
X011061Y006885D01*
X011201Y007024D01*
X011276Y007207D01*
X011276Y007998D01*
X011201Y008181D01*
X011061Y008321D01*
X010878Y008396D01*
X010681Y008396D01*
X010498Y008321D01*
X010358Y008181D01*
X010283Y007998D01*
X010283Y007207D01*
X010358Y007024D01*
X010498Y006885D01*
X010371Y007012D02*
X003569Y007012D01*
X003571Y007170D02*
X008428Y007170D01*
X008466Y007133D02*
X008669Y007048D01*
X008890Y007048D01*
X009094Y007133D01*
X009249Y007289D01*
X009334Y007492D01*
X009334Y007713D01*
X009249Y007917D01*
X009094Y008073D01*
X008890Y008157D01*
X008669Y008157D01*
X008466Y008073D01*
X008310Y007917D01*
X008225Y007713D01*
X008225Y007492D01*
X008310Y007289D01*
X008466Y007133D01*
X008293Y007329D02*
X003574Y007329D01*
X003576Y007487D02*
X008227Y007487D01*
X008225Y007646D02*
X003579Y007646D01*
X003581Y007804D02*
X003650Y007804D01*
X004724Y007804D02*
X006210Y007804D01*
X006028Y007963D02*
X004906Y007963D01*
X004971Y008121D02*
X005963Y008121D01*
X005953Y008280D02*
X004981Y008280D01*
X004941Y008438D02*
X005994Y008438D01*
X007284Y007804D02*
X008263Y007804D01*
X008356Y007963D02*
X007466Y007963D01*
X007531Y008121D02*
X008583Y008121D01*
X008976Y008121D02*
X010334Y008121D01*
X010283Y007963D02*
X009203Y007963D01*
X009296Y007804D02*
X010283Y007804D01*
X010283Y007646D02*
X009334Y007646D01*
X009332Y007487D02*
X010283Y007487D01*
X010283Y007329D02*
X009266Y007329D01*
X009131Y007170D02*
X010298Y007170D01*
X010675Y006694D02*
X014009Y006694D01*
X014043Y006728D02*
X013865Y006550D01*
X013865Y006155D01*
X014144Y005876D01*
X014540Y005876D01*
X014819Y006155D01*
X014819Y006550D01*
X014579Y006790D01*
X014756Y006968D01*
X014756Y007147D01*
X014298Y007147D01*
X014298Y007184D01*
X014261Y007184D01*
X014261Y007642D01*
X014082Y007642D01*
X013803Y007363D01*
X013803Y007184D01*
X014261Y007184D01*
X014261Y007147D01*
X013803Y007147D01*
X013803Y006968D01*
X014043Y006728D01*
X013917Y006853D02*
X012985Y006853D01*
X013061Y006885D02*
X013201Y007024D01*
X013276Y007207D01*
X013276Y007998D01*
X013201Y008181D01*
X013061Y008321D01*
X012878Y008396D01*
X012681Y008396D01*
X012498Y008321D01*
X012358Y008181D01*
X012283Y007998D01*
X012283Y007207D01*
X012358Y007024D01*
X012498Y006885D01*
X012681Y006809D01*
X012878Y006809D01*
X013061Y006885D01*
X013188Y007012D02*
X013803Y007012D01*
X013803Y007329D02*
X013276Y007329D01*
X013276Y007487D02*
X013927Y007487D01*
X014261Y007487D02*
X014298Y007487D01*
X014298Y007642D02*
X014298Y007184D01*
X014756Y007184D01*
X014756Y007363D01*
X014477Y007642D01*
X014298Y007642D01*
X014298Y007329D02*
X014261Y007329D01*
X014261Y007170D02*
X013261Y007170D01*
X013276Y007646D02*
X026217Y007646D01*
X026217Y007804D02*
X013276Y007804D01*
X013276Y007963D02*
X026217Y007963D01*
X026217Y008121D02*
X013226Y008121D01*
X013102Y008280D02*
X026217Y008280D01*
X026217Y008438D02*
X007501Y008438D01*
X007541Y008280D02*
X010457Y008280D01*
X011102Y008280D02*
X011457Y008280D01*
X011498Y008321D02*
X011358Y008181D01*
X011283Y007998D01*
X011283Y007207D01*
X011358Y007024D01*
X011498Y006885D01*
X011681Y006809D01*
X011878Y006809D01*
X012061Y006885D01*
X012201Y007024D01*
X012276Y007207D01*
X012276Y007998D01*
X012201Y008181D01*
X012061Y008321D01*
X011878Y008396D01*
X011681Y008396D01*
X011498Y008321D01*
X011334Y008121D02*
X011226Y008121D01*
X011276Y007963D02*
X011283Y007963D01*
X011276Y007804D02*
X011283Y007804D01*
X011276Y007646D02*
X011283Y007646D01*
X011276Y007487D02*
X011283Y007487D01*
X011276Y007329D02*
X011283Y007329D01*
X011298Y007170D02*
X011261Y007170D01*
X011188Y007012D02*
X011371Y007012D01*
X011575Y006853D02*
X010985Y006853D01*
X010819Y006536D02*
X013865Y006536D01*
X013865Y006377D02*
X010819Y006377D01*
X010819Y006219D02*
X013865Y006219D01*
X013960Y006060D02*
X010724Y006060D01*
X010566Y005902D02*
X014118Y005902D01*
X014566Y005902D02*
X015091Y005902D01*
X015063Y005930D02*
X015197Y005796D01*
X015372Y005723D01*
X015562Y005723D01*
X015737Y005796D01*
X015872Y005930D01*
X015944Y006106D01*
X015944Y006850D01*
X015872Y007025D01*
X015737Y007159D01*
X015562Y007232D01*
X015372Y007232D01*
X015197Y007159D01*
X015063Y007025D01*
X014990Y006850D01*
X014990Y006106D01*
X015063Y005930D01*
X015009Y006060D02*
X014724Y006060D01*
X014819Y006219D02*
X014990Y006219D01*
X014990Y006377D02*
X014819Y006377D01*
X014819Y006536D02*
X014990Y006536D01*
X014990Y006694D02*
X014675Y006694D01*
X014642Y006853D02*
X014991Y006853D01*
X015057Y007012D02*
X014756Y007012D01*
X014756Y007329D02*
X026217Y007329D01*
X026217Y007487D02*
X014632Y007487D01*
X014298Y007170D02*
X015223Y007170D01*
X015712Y007170D02*
X016223Y007170D01*
X016197Y007159D02*
X016063Y007025D01*
X015990Y006850D01*
X015990Y006106D01*
X016063Y005930D01*
X016197Y005796D01*
X016372Y005723D01*
X016562Y005723D01*
X016737Y005796D01*
X016872Y005930D01*
X016944Y006106D01*
X016944Y006850D01*
X016872Y007025D01*
X016737Y007159D01*
X016562Y007232D01*
X016372Y007232D01*
X016197Y007159D01*
X016057Y007012D02*
X015877Y007012D01*
X015943Y006853D02*
X015991Y006853D01*
X015990Y006694D02*
X015944Y006694D01*
X015944Y006536D02*
X015990Y006536D01*
X015990Y006377D02*
X015944Y006377D01*
X015944Y006219D02*
X015990Y006219D01*
X016009Y006060D02*
X015925Y006060D01*
X015843Y005902D02*
X016091Y005902D01*
X016324Y005743D02*
X015610Y005743D01*
X015324Y005743D02*
X005938Y005743D01*
X005872Y005585D02*
X033901Y005585D01*
X033941Y005680D02*
X033852Y005466D01*
X033852Y005334D01*
X033323Y005334D01*
X033109Y005245D01*
X032945Y005081D01*
X032856Y004867D01*
X032856Y004634D01*
X032945Y004420D01*
X033109Y004255D01*
X033323Y004167D01*
X034278Y004167D01*
X034338Y004022D01*
X034502Y003858D01*
X034717Y003769D01*
X035717Y003769D01*
X035932Y003858D01*
X036096Y004022D01*
X036185Y004237D01*
X036185Y004469D01*
X036096Y004683D01*
X035932Y004848D01*
X035717Y004937D01*
X035616Y004937D01*
X035698Y005019D01*
X035787Y005233D01*
X035787Y005466D01*
X035698Y005680D01*
X035534Y005845D01*
X035320Y005933D01*
X034320Y005933D01*
X034105Y005845D01*
X033941Y005680D01*
X034004Y005743D02*
X023610Y005743D01*
X023562Y005723D02*
X023737Y005796D01*
X023872Y005930D01*
X023944Y006106D01*
X023944Y006850D01*
X023872Y007025D01*
X023737Y007159D01*
X023562Y007232D01*
X023372Y007232D01*
X023197Y007159D01*
X023063Y007025D01*
X022990Y006850D01*
X022990Y006106D01*
X023063Y005930D01*
X023197Y005796D01*
X023372Y005723D01*
X023562Y005723D01*
X023324Y005743D02*
X022610Y005743D01*
X022562Y005723D02*
X022737Y005796D01*
X022872Y005930D01*
X022944Y006106D01*
X022944Y006850D01*
X022872Y007025D01*
X022737Y007159D01*
X022562Y007232D01*
X022372Y007232D01*
X022197Y007159D01*
X022063Y007025D01*
X021990Y006850D01*
X021990Y006106D01*
X022063Y005930D01*
X022197Y005796D01*
X022372Y005723D01*
X022562Y005723D01*
X022324Y005743D02*
X021610Y005743D01*
X021562Y005723D02*
X021737Y005796D01*
X021872Y005930D01*
X021944Y006106D01*
X021944Y006850D01*
X021872Y007025D01*
X021737Y007159D01*
X021562Y007232D01*
X021372Y007232D01*
X021197Y007159D01*
X021063Y007025D01*
X020990Y006850D01*
X020990Y006106D01*
X021063Y005930D01*
X021197Y005796D01*
X021372Y005723D01*
X021562Y005723D01*
X021324Y005743D02*
X020610Y005743D01*
X020562Y005723D02*
X020737Y005796D01*
X020872Y005930D01*
X020944Y006106D01*
X020944Y006850D01*
X020872Y007025D01*
X020737Y007159D01*
X020562Y007232D01*
X020372Y007232D01*
X020197Y007159D01*
X020063Y007025D01*
X019990Y006850D01*
X019990Y006106D01*
X020063Y005930D01*
X020197Y005796D01*
X020372Y005723D01*
X020562Y005723D01*
X020324Y005743D02*
X019610Y005743D01*
X019562Y005723D02*
X019737Y005796D01*
X019872Y005930D01*
X019944Y006106D01*
X019944Y006850D01*
X019872Y007025D01*
X019737Y007159D01*
X019562Y007232D01*
X019372Y007232D01*
X019197Y007159D01*
X019063Y007025D01*
X018990Y006850D01*
X018990Y006106D01*
X019063Y005930D01*
X019197Y005796D01*
X019372Y005723D01*
X019562Y005723D01*
X019324Y005743D02*
X018610Y005743D01*
X018562Y005723D02*
X018737Y005796D01*
X018872Y005930D01*
X018944Y006106D01*
X018944Y006850D01*
X018872Y007025D01*
X018737Y007159D01*
X018562Y007232D01*
X018372Y007232D01*
X018197Y007159D01*
X018063Y007025D01*
X017990Y006850D01*
X017990Y006106D01*
X018063Y005930D01*
X018197Y005796D01*
X018372Y005723D01*
X018562Y005723D01*
X018324Y005743D02*
X017610Y005743D01*
X017562Y005723D02*
X017737Y005796D01*
X017872Y005930D01*
X017944Y006106D01*
X017944Y006850D01*
X017872Y007025D01*
X017737Y007159D01*
X017562Y007232D01*
X017372Y007232D01*
X017197Y007159D01*
X017063Y007025D01*
X016990Y006850D01*
X016990Y006106D01*
X017063Y005930D01*
X017197Y005796D01*
X017372Y005723D01*
X017562Y005723D01*
X017324Y005743D02*
X016610Y005743D01*
X016843Y005902D02*
X017091Y005902D01*
X017009Y006060D02*
X016925Y006060D01*
X016944Y006219D02*
X016990Y006219D01*
X016990Y006377D02*
X016944Y006377D01*
X016944Y006536D02*
X016990Y006536D01*
X016990Y006694D02*
X016944Y006694D01*
X016943Y006853D02*
X016991Y006853D01*
X017057Y007012D02*
X016877Y007012D01*
X016712Y007170D02*
X017223Y007170D01*
X017712Y007170D02*
X018223Y007170D01*
X018057Y007012D02*
X017877Y007012D01*
X017943Y006853D02*
X017991Y006853D01*
X017990Y006694D02*
X017944Y006694D01*
X017944Y006536D02*
X017990Y006536D01*
X017990Y006377D02*
X017944Y006377D01*
X017944Y006219D02*
X017990Y006219D01*
X018009Y006060D02*
X017925Y006060D01*
X017843Y005902D02*
X018091Y005902D01*
X018843Y005902D02*
X019091Y005902D01*
X019009Y006060D02*
X018925Y006060D01*
X018944Y006219D02*
X018990Y006219D01*
X018990Y006377D02*
X018944Y006377D01*
X018944Y006536D02*
X018990Y006536D01*
X018990Y006694D02*
X018944Y006694D01*
X018943Y006853D02*
X018991Y006853D01*
X019057Y007012D02*
X018877Y007012D01*
X018712Y007170D02*
X019223Y007170D01*
X019712Y007170D02*
X020223Y007170D01*
X020057Y007012D02*
X019877Y007012D01*
X019943Y006853D02*
X019991Y006853D01*
X019990Y006694D02*
X019944Y006694D01*
X019944Y006536D02*
X019990Y006536D01*
X019990Y006377D02*
X019944Y006377D01*
X019944Y006219D02*
X019990Y006219D01*
X020009Y006060D02*
X019925Y006060D01*
X019843Y005902D02*
X020091Y005902D01*
X020843Y005902D02*
X021091Y005902D01*
X021009Y006060D02*
X020925Y006060D01*
X020944Y006219D02*
X020990Y006219D01*
X020990Y006377D02*
X020944Y006377D01*
X020944Y006536D02*
X020990Y006536D01*
X020990Y006694D02*
X020944Y006694D01*
X020943Y006853D02*
X020991Y006853D01*
X021057Y007012D02*
X020877Y007012D01*
X020712Y007170D02*
X021223Y007170D01*
X021712Y007170D02*
X022223Y007170D01*
X022057Y007012D02*
X021877Y007012D01*
X021943Y006853D02*
X021991Y006853D01*
X021990Y006694D02*
X021944Y006694D01*
X021944Y006536D02*
X021990Y006536D01*
X021990Y006377D02*
X021944Y006377D01*
X021944Y006219D02*
X021990Y006219D01*
X022009Y006060D02*
X021925Y006060D01*
X021843Y005902D02*
X022091Y005902D01*
X022843Y005902D02*
X023091Y005902D01*
X023009Y006060D02*
X022925Y006060D01*
X022944Y006219D02*
X022990Y006219D01*
X022990Y006377D02*
X022944Y006377D01*
X022944Y006536D02*
X022990Y006536D01*
X022990Y006694D02*
X022944Y006694D01*
X022943Y006853D02*
X022991Y006853D01*
X023057Y007012D02*
X022877Y007012D01*
X022712Y007170D02*
X023223Y007170D01*
X023712Y007170D02*
X024275Y007170D01*
X024208Y007142D02*
X024080Y007014D01*
X024010Y006846D01*
X024010Y006486D01*
X024458Y006486D01*
X024458Y006469D01*
X024010Y006469D01*
X024010Y006110D01*
X024080Y005942D01*
X024208Y005813D01*
X024376Y005743D01*
X024458Y005743D01*
X024458Y006469D01*
X024476Y006469D01*
X024476Y006486D01*
X024924Y006486D01*
X024924Y006846D01*
X024855Y007014D01*
X024726Y007142D01*
X024558Y007212D01*
X024476Y007212D01*
X024476Y006487D01*
X024458Y006487D01*
X024458Y007212D01*
X024376Y007212D01*
X024208Y007142D01*
X024079Y007012D02*
X023877Y007012D01*
X023943Y006853D02*
X024013Y006853D01*
X024010Y006694D02*
X023944Y006694D01*
X023944Y006536D02*
X024010Y006536D01*
X024010Y006377D02*
X023944Y006377D01*
X023944Y006219D02*
X024010Y006219D01*
X024030Y006060D02*
X023925Y006060D01*
X023843Y005902D02*
X024119Y005902D01*
X024217Y005603D02*
X024467Y005853D01*
X024467Y006478D01*
X024467Y009478D01*
X024458Y009487D02*
X024458Y010118D01*
X024458Y010844D01*
X024476Y010844D01*
X024476Y010118D01*
X024476Y009487D01*
X024458Y009487D01*
X024458Y009548D02*
X024476Y009548D01*
X024476Y009390D02*
X024458Y009390D01*
X024458Y009231D02*
X024476Y009231D01*
X024476Y009073D02*
X024458Y009073D01*
X024458Y008914D02*
X024476Y008914D01*
X024476Y008756D02*
X024458Y008756D01*
X024347Y008756D02*
X023640Y008756D01*
X023562Y008723D02*
X023737Y008796D01*
X023872Y008930D01*
X023944Y009106D01*
X023944Y009850D01*
X023872Y010025D01*
X023737Y010159D01*
X023723Y010165D01*
X023737Y010171D01*
X023872Y010305D01*
X023944Y010481D01*
X023944Y011225D01*
X023872Y011400D01*
X023737Y011534D01*
X023562Y011607D01*
X023372Y011607D01*
X023197Y011534D01*
X023063Y011400D01*
X022990Y011225D01*
X022990Y010481D01*
X023063Y010305D01*
X023197Y010171D01*
X023211Y010165D01*
X023197Y010159D01*
X023063Y010025D01*
X022990Y009850D01*
X022990Y009106D01*
X023063Y008930D01*
X023197Y008796D01*
X023372Y008723D01*
X023562Y008723D01*
X023295Y008756D02*
X022640Y008756D01*
X022562Y008723D02*
X022737Y008796D01*
X022872Y008930D01*
X022944Y009106D01*
X022944Y009850D01*
X022872Y010025D01*
X022737Y010159D01*
X022723Y010165D01*
X022737Y010171D01*
X022872Y010305D01*
X022944Y010481D01*
X022944Y011225D01*
X022872Y011400D01*
X022737Y011534D01*
X022562Y011607D01*
X022372Y011607D01*
X022197Y011534D01*
X022063Y011400D01*
X021990Y011225D01*
X021990Y010481D01*
X022063Y010305D01*
X022197Y010171D01*
X022211Y010165D01*
X022197Y010159D01*
X022063Y010025D01*
X021990Y009850D01*
X021990Y009106D01*
X022063Y008930D01*
X022197Y008796D01*
X022372Y008723D01*
X022562Y008723D01*
X022295Y008756D02*
X021640Y008756D01*
X021562Y008723D02*
X021737Y008796D01*
X021872Y008930D01*
X021944Y009106D01*
X021944Y009850D01*
X021872Y010025D01*
X021737Y010159D01*
X021723Y010165D01*
X021737Y010171D01*
X021872Y010305D01*
X021944Y010481D01*
X021944Y011225D01*
X021872Y011400D01*
X021737Y011534D01*
X021562Y011607D01*
X021372Y011607D01*
X021197Y011534D01*
X021063Y011400D01*
X020990Y011225D01*
X020990Y010481D01*
X021063Y010305D01*
X021197Y010171D01*
X021211Y010165D01*
X021197Y010159D01*
X021063Y010025D01*
X020990Y009850D01*
X020990Y009106D01*
X021063Y008930D01*
X021197Y008796D01*
X021372Y008723D01*
X021562Y008723D01*
X021295Y008756D02*
X020640Y008756D01*
X020562Y008723D02*
X020737Y008796D01*
X020872Y008930D01*
X020944Y009106D01*
X020944Y009850D01*
X020872Y010025D01*
X020737Y010159D01*
X020723Y010165D01*
X020737Y010171D01*
X020872Y010305D01*
X020944Y010481D01*
X020944Y011225D01*
X020872Y011400D01*
X020737Y011534D01*
X020562Y011607D01*
X020372Y011607D01*
X020197Y011534D01*
X020063Y011400D01*
X019990Y011225D01*
X019990Y010481D01*
X020063Y010305D01*
X020197Y010171D01*
X020211Y010165D01*
X020197Y010159D01*
X020063Y010025D01*
X019990Y009850D01*
X019990Y009106D01*
X020063Y008930D01*
X020197Y008796D01*
X020372Y008723D01*
X020562Y008723D01*
X020295Y008756D02*
X019640Y008756D01*
X019562Y008723D02*
X019737Y008796D01*
X019872Y008930D01*
X019944Y009106D01*
X019944Y009850D01*
X019872Y010025D01*
X019737Y010159D01*
X019723Y010165D01*
X019737Y010171D01*
X019872Y010305D01*
X019944Y010481D01*
X019944Y011225D01*
X019872Y011400D01*
X019737Y011534D01*
X019562Y011607D01*
X019372Y011607D01*
X019197Y011534D01*
X019063Y011400D01*
X018990Y011225D01*
X018990Y010481D01*
X019063Y010305D01*
X019197Y010171D01*
X019211Y010165D01*
X019197Y010159D01*
X019063Y010025D01*
X018990Y009850D01*
X018990Y009106D01*
X019063Y008930D01*
X019197Y008796D01*
X019372Y008723D01*
X019562Y008723D01*
X019295Y008756D02*
X018640Y008756D01*
X018562Y008723D02*
X018737Y008796D01*
X018872Y008930D01*
X018944Y009106D01*
X018944Y009850D01*
X018872Y010025D01*
X018737Y010159D01*
X018723Y010165D01*
X018737Y010171D01*
X018872Y010305D01*
X018944Y010481D01*
X018944Y011225D01*
X018872Y011400D01*
X018737Y011534D01*
X018562Y011607D01*
X018372Y011607D01*
X018197Y011534D01*
X018063Y011400D01*
X017990Y011225D01*
X017990Y010481D01*
X018063Y010305D01*
X018197Y010171D01*
X018211Y010165D01*
X018197Y010159D01*
X018063Y010025D01*
X017990Y009850D01*
X017990Y009106D01*
X018063Y008930D01*
X018197Y008796D01*
X018372Y008723D01*
X018562Y008723D01*
X018295Y008756D02*
X017640Y008756D01*
X017562Y008723D02*
X017737Y008796D01*
X017872Y008930D01*
X017944Y009106D01*
X017944Y009850D01*
X017872Y010025D01*
X017737Y010159D01*
X017723Y010165D01*
X017737Y010171D01*
X017872Y010305D01*
X017944Y010481D01*
X017944Y011225D01*
X017872Y011400D01*
X017737Y011534D01*
X017562Y011607D01*
X017372Y011607D01*
X017197Y011534D01*
X017063Y011400D01*
X016990Y011225D01*
X016990Y010481D01*
X017063Y010305D01*
X017197Y010171D01*
X017211Y010165D01*
X017197Y010159D01*
X017063Y010025D01*
X016990Y009850D01*
X016990Y009106D01*
X017063Y008930D01*
X017197Y008796D01*
X017372Y008723D01*
X017562Y008723D01*
X017295Y008756D02*
X016640Y008756D01*
X016562Y008723D02*
X016737Y008796D01*
X016872Y008930D01*
X016944Y009106D01*
X016944Y009850D01*
X016872Y010025D01*
X016737Y010159D01*
X016723Y010165D01*
X016737Y010171D01*
X016872Y010305D01*
X016944Y010481D01*
X016944Y011225D01*
X016872Y011400D01*
X016737Y011534D01*
X016562Y011607D01*
X016372Y011607D01*
X016197Y011534D01*
X016063Y011400D01*
X015990Y011225D01*
X015990Y010481D01*
X016063Y010305D01*
X016197Y010171D01*
X016211Y010165D01*
X016197Y010159D01*
X016063Y010025D01*
X015990Y009850D01*
X015990Y009106D01*
X016063Y008930D01*
X016197Y008796D01*
X016372Y008723D01*
X016562Y008723D01*
X016295Y008756D02*
X015640Y008756D01*
X015855Y008914D02*
X016079Y008914D01*
X016004Y009073D02*
X015931Y009073D01*
X015944Y009231D02*
X015990Y009231D01*
X015990Y009390D02*
X015944Y009390D01*
X015944Y009548D02*
X015990Y009548D01*
X015990Y009707D02*
X015944Y009707D01*
X015938Y009865D02*
X015996Y009865D01*
X016062Y010024D02*
X015872Y010024D01*
X015682Y010182D02*
X016185Y010182D01*
X016048Y010341D02*
X015741Y010341D01*
X015801Y010500D02*
X015990Y010500D01*
X015990Y010658D02*
X015801Y010658D01*
X015760Y010817D02*
X015990Y010817D01*
X015990Y010975D02*
X015670Y010975D01*
X015461Y011134D02*
X015990Y011134D01*
X016018Y011292D02*
X014842Y011292D01*
X014842Y011134D02*
X014973Y011134D01*
X014842Y011451D02*
X016113Y011451D01*
X016821Y011451D02*
X017113Y011451D01*
X017018Y011292D02*
X016916Y011292D01*
X016944Y011134D02*
X016990Y011134D01*
X016990Y010975D02*
X016944Y010975D01*
X016944Y010817D02*
X016990Y010817D01*
X016990Y010658D02*
X016944Y010658D01*
X016944Y010500D02*
X016990Y010500D01*
X017048Y010341D02*
X016886Y010341D01*
X016749Y010182D02*
X017185Y010182D01*
X017062Y010024D02*
X016872Y010024D01*
X016938Y009865D02*
X016996Y009865D01*
X016990Y009707D02*
X016944Y009707D01*
X016944Y009548D02*
X016990Y009548D01*
X016990Y009390D02*
X016944Y009390D01*
X016944Y009231D02*
X016990Y009231D01*
X017004Y009073D02*
X016931Y009073D01*
X016855Y008914D02*
X017079Y008914D01*
X017855Y008914D02*
X018079Y008914D01*
X018004Y009073D02*
X017931Y009073D01*
X017944Y009231D02*
X017990Y009231D01*
X017990Y009390D02*
X017944Y009390D01*
X017944Y009548D02*
X017990Y009548D01*
X017990Y009707D02*
X017944Y009707D01*
X017938Y009865D02*
X017996Y009865D01*
X018062Y010024D02*
X017872Y010024D01*
X017749Y010182D02*
X018185Y010182D01*
X018048Y010341D02*
X017886Y010341D01*
X017944Y010500D02*
X017990Y010500D01*
X017990Y010658D02*
X017944Y010658D01*
X017944Y010817D02*
X017990Y010817D01*
X017990Y010975D02*
X017944Y010975D01*
X017944Y011134D02*
X017990Y011134D01*
X018018Y011292D02*
X017916Y011292D01*
X017821Y011451D02*
X018113Y011451D01*
X018821Y011451D02*
X019113Y011451D01*
X019018Y011292D02*
X018916Y011292D01*
X018944Y011134D02*
X018990Y011134D01*
X018990Y010975D02*
X018944Y010975D01*
X018944Y010817D02*
X018990Y010817D01*
X018990Y010658D02*
X018944Y010658D01*
X018944Y010500D02*
X018990Y010500D01*
X019048Y010341D02*
X018886Y010341D01*
X018749Y010182D02*
X019185Y010182D01*
X019062Y010024D02*
X018872Y010024D01*
X018938Y009865D02*
X018996Y009865D01*
X018990Y009707D02*
X018944Y009707D01*
X018944Y009548D02*
X018990Y009548D01*
X018990Y009390D02*
X018944Y009390D01*
X018944Y009231D02*
X018990Y009231D01*
X019004Y009073D02*
X018931Y009073D01*
X018855Y008914D02*
X019079Y008914D01*
X019855Y008914D02*
X020079Y008914D01*
X020004Y009073D02*
X019931Y009073D01*
X019944Y009231D02*
X019990Y009231D01*
X019990Y009390D02*
X019944Y009390D01*
X019944Y009548D02*
X019990Y009548D01*
X019990Y009707D02*
X019944Y009707D01*
X019938Y009865D02*
X019996Y009865D01*
X020062Y010024D02*
X019872Y010024D01*
X019749Y010182D02*
X020185Y010182D01*
X020048Y010341D02*
X019886Y010341D01*
X019944Y010500D02*
X019990Y010500D01*
X019990Y010658D02*
X019944Y010658D01*
X019944Y010817D02*
X019990Y010817D01*
X019990Y010975D02*
X019944Y010975D01*
X019944Y011134D02*
X019990Y011134D01*
X020018Y011292D02*
X019916Y011292D01*
X019821Y011451D02*
X020113Y011451D01*
X020821Y011451D02*
X021113Y011451D01*
X021018Y011292D02*
X020916Y011292D01*
X020944Y011134D02*
X020990Y011134D01*
X020990Y010975D02*
X020944Y010975D01*
X020944Y010817D02*
X020990Y010817D01*
X020990Y010658D02*
X020944Y010658D01*
X020944Y010500D02*
X020990Y010500D01*
X021048Y010341D02*
X020886Y010341D01*
X020749Y010182D02*
X021185Y010182D01*
X021062Y010024D02*
X020872Y010024D01*
X020938Y009865D02*
X020996Y009865D01*
X020990Y009707D02*
X020944Y009707D01*
X020944Y009548D02*
X020990Y009548D01*
X020990Y009390D02*
X020944Y009390D01*
X020944Y009231D02*
X020990Y009231D01*
X021004Y009073D02*
X020931Y009073D01*
X020855Y008914D02*
X021079Y008914D01*
X021855Y008914D02*
X022079Y008914D01*
X022004Y009073D02*
X021931Y009073D01*
X021944Y009231D02*
X021990Y009231D01*
X021990Y009390D02*
X021944Y009390D01*
X021944Y009548D02*
X021990Y009548D01*
X021990Y009707D02*
X021944Y009707D01*
X021938Y009865D02*
X021996Y009865D01*
X022062Y010024D02*
X021872Y010024D01*
X021749Y010182D02*
X022185Y010182D01*
X022048Y010341D02*
X021886Y010341D01*
X021944Y010500D02*
X021990Y010500D01*
X021990Y010658D02*
X021944Y010658D01*
X021944Y010817D02*
X021990Y010817D01*
X021990Y010975D02*
X021944Y010975D01*
X021944Y011134D02*
X021990Y011134D01*
X022018Y011292D02*
X021916Y011292D01*
X021821Y011451D02*
X022113Y011451D01*
X022821Y011451D02*
X023113Y011451D01*
X023018Y011292D02*
X022916Y011292D01*
X022944Y011134D02*
X022990Y011134D01*
X022990Y010975D02*
X022944Y010975D01*
X022944Y010817D02*
X022990Y010817D01*
X022990Y010658D02*
X022944Y010658D01*
X022944Y010500D02*
X022990Y010500D01*
X023048Y010341D02*
X022886Y010341D01*
X022749Y010182D02*
X023185Y010182D01*
X023062Y010024D02*
X022872Y010024D01*
X022938Y009865D02*
X022996Y009865D01*
X022990Y009707D02*
X022944Y009707D01*
X022944Y009548D02*
X022990Y009548D01*
X022990Y009390D02*
X022944Y009390D01*
X022944Y009231D02*
X022990Y009231D01*
X023004Y009073D02*
X022931Y009073D01*
X022855Y008914D02*
X023079Y008914D01*
X023855Y008914D02*
X024107Y008914D01*
X024025Y009073D02*
X023931Y009073D01*
X023944Y009231D02*
X024010Y009231D01*
X024010Y009390D02*
X023944Y009390D01*
X023944Y009548D02*
X024010Y009548D01*
X024010Y009707D02*
X023944Y009707D01*
X023938Y009865D02*
X024018Y009865D01*
X024090Y010024D02*
X023872Y010024D01*
X023749Y010182D02*
X024222Y010182D01*
X024069Y010341D02*
X023886Y010341D01*
X023944Y010500D02*
X024010Y010500D01*
X024010Y010658D02*
X023944Y010658D01*
X023944Y010817D02*
X024010Y010817D01*
X024010Y010975D02*
X023944Y010975D01*
X023944Y011134D02*
X024010Y011134D01*
X024040Y011292D02*
X023916Y011292D01*
X023821Y011451D02*
X024141Y011451D01*
X024458Y011451D02*
X024476Y011451D01*
X024476Y011292D02*
X024458Y011292D01*
X024458Y011134D02*
X024476Y011134D01*
X024476Y010975D02*
X024458Y010975D01*
X024458Y010817D02*
X024476Y010817D01*
X024476Y010658D02*
X024458Y010658D01*
X024458Y010500D02*
X024476Y010500D01*
X024476Y010341D02*
X024458Y010341D01*
X024458Y010182D02*
X024476Y010182D01*
X024476Y010024D02*
X024458Y010024D01*
X024458Y009865D02*
X024476Y009865D01*
X024476Y009707D02*
X024458Y009707D01*
X024924Y009390D02*
X026217Y009390D01*
X026217Y009231D02*
X024924Y009231D01*
X024909Y009073D02*
X026217Y009073D01*
X026217Y008914D02*
X024827Y008914D01*
X024587Y008756D02*
X026217Y008756D01*
X026217Y008597D02*
X014280Y008597D01*
X014572Y008756D02*
X015295Y008756D01*
X015079Y008914D02*
X014731Y008914D01*
X014776Y009073D02*
X015004Y009073D01*
X014990Y009231D02*
X014776Y009231D01*
X014758Y009390D02*
X014990Y009390D01*
X014990Y009548D02*
X014842Y009548D01*
X014842Y009707D02*
X014990Y009707D01*
X014996Y009865D02*
X014842Y009865D01*
X014842Y010024D02*
X015062Y010024D01*
X014842Y011609D02*
X024592Y011609D01*
X024592Y011768D02*
X014842Y011768D01*
X014842Y012540D02*
X014842Y013180D01*
X014898Y013125D01*
X015105Y013039D01*
X015169Y013039D01*
X015169Y013555D01*
X015265Y013555D01*
X015265Y013651D01*
X015781Y013651D01*
X015781Y013715D01*
X015695Y013922D01*
X015536Y014081D01*
X015509Y014092D01*
X015548Y014108D01*
X015712Y014272D01*
X015801Y014487D01*
X015801Y014719D01*
X015712Y014933D01*
X015548Y015098D01*
X015333Y015187D01*
X015101Y015187D01*
X014886Y015098D01*
X014842Y015053D01*
X014842Y017180D01*
X014898Y017125D01*
X015105Y017039D01*
X015169Y017039D01*
X015169Y017555D01*
X015265Y017555D01*
X015265Y017651D01*
X015781Y017651D01*
X015781Y017715D01*
X015695Y017922D01*
X015536Y018081D01*
X015509Y018092D01*
X015548Y018108D01*
X015712Y018272D01*
X015801Y018487D01*
X015801Y018719D01*
X015712Y018933D01*
X015548Y019098D01*
X015333Y019187D01*
X015101Y019187D01*
X014886Y019098D01*
X014842Y019053D01*
X014842Y021180D01*
X014898Y021125D01*
X015105Y021039D01*
X015169Y021039D01*
X015169Y021555D01*
X015265Y021555D01*
X015265Y021651D01*
X015781Y021651D01*
X015781Y021715D01*
X015695Y021922D01*
X015536Y022081D01*
X015509Y022092D01*
X015548Y022108D01*
X015712Y022272D01*
X015801Y022487D01*
X015801Y022719D01*
X015712Y022933D01*
X015548Y023098D01*
X015333Y023187D01*
X015101Y023187D01*
X014886Y023098D01*
X014842Y023053D01*
X014842Y025180D01*
X014898Y025125D01*
X015105Y025039D01*
X015169Y025039D01*
X015169Y025555D01*
X015265Y025555D01*
X015265Y025651D01*
X015169Y025651D01*
X015169Y026167D01*
X015105Y026167D01*
X014898Y026081D01*
X014842Y026025D01*
X014842Y026321D01*
X026092Y026322D01*
X026097Y025771D01*
X026036Y025831D01*
X025829Y025917D01*
X025765Y025917D01*
X025765Y025401D01*
X025669Y025401D01*
X025669Y025917D01*
X025605Y025917D01*
X025398Y025831D01*
X025239Y025672D01*
X025153Y025465D01*
X025153Y025401D01*
X025669Y025401D01*
X025669Y025305D01*
X025153Y025305D01*
X025153Y025241D01*
X025239Y025033D01*
X025398Y024875D01*
X025605Y024789D01*
X025669Y024789D01*
X025669Y025305D01*
X025765Y025305D01*
X025765Y024789D01*
X025829Y024789D01*
X026036Y024875D01*
X026103Y024941D01*
X026120Y022776D01*
X026048Y022848D01*
X025833Y022937D01*
X025601Y022937D01*
X025386Y022848D01*
X025222Y022683D01*
X025133Y022469D01*
X025133Y022237D01*
X025222Y022022D01*
X025386Y021858D01*
X025399Y021853D01*
X025386Y021848D01*
X025222Y021683D01*
X025133Y021469D01*
X025133Y021237D01*
X025222Y021022D01*
X025386Y020858D01*
X025601Y020769D01*
X025833Y020769D01*
X026048Y020858D01*
X026134Y020944D01*
X026151Y018716D01*
X026036Y018831D01*
X025829Y018917D01*
X025765Y018917D01*
X025765Y018401D01*
X025669Y018401D01*
X025669Y018917D01*
X025605Y018917D01*
X025398Y018831D01*
X025239Y018672D01*
X025153Y018465D01*
X025153Y018401D01*
X025669Y018401D01*
X025669Y018305D01*
X025153Y018305D01*
X025153Y018241D01*
X025239Y018033D01*
X025398Y017875D01*
X025425Y017864D01*
X025386Y017848D01*
X025222Y017683D01*
X025133Y017469D01*
X025133Y017237D01*
X025222Y017022D01*
X025386Y016858D01*
X025601Y016769D01*
X025833Y016769D01*
X026048Y016858D01*
X026164Y016974D01*
X026182Y014685D01*
X026036Y014831D01*
X025829Y014917D01*
X025765Y014917D01*
X025765Y014401D01*
X025669Y014401D01*
X025669Y014917D01*
X025605Y014917D01*
X025398Y014831D01*
X025239Y014672D01*
X025153Y014465D01*
X025153Y014401D01*
X025669Y014401D01*
X025669Y014305D01*
X025153Y014305D01*
X025153Y014241D01*
X025239Y014033D01*
X025398Y013875D01*
X025425Y013864D01*
X025386Y013848D01*
X025222Y013683D01*
X025133Y013469D01*
X025133Y013237D01*
X025222Y013022D01*
X025386Y012858D01*
X025601Y012769D01*
X025833Y012769D01*
X026048Y012858D01*
X026195Y013005D01*
X026213Y010629D01*
X026195Y010672D01*
X026036Y010831D01*
X025829Y010917D01*
X025765Y010917D01*
X025765Y010401D01*
X025669Y010401D01*
X025669Y010917D01*
X025605Y010917D01*
X025398Y010831D01*
X025239Y010672D01*
X025153Y010465D01*
X025153Y010401D01*
X025669Y010401D01*
X025669Y010305D01*
X025153Y010305D01*
X025153Y010241D01*
X025210Y010103D01*
X025092Y010103D01*
X025155Y012540D01*
X014842Y012540D01*
X014842Y012561D02*
X026198Y012561D01*
X026197Y012719D02*
X014842Y012719D01*
X014842Y012878D02*
X025366Y012878D01*
X025216Y013036D02*
X014842Y013036D01*
X015169Y013195D02*
X015265Y013195D01*
X015265Y013039D02*
X015329Y013039D01*
X015536Y013125D01*
X015695Y013283D01*
X015781Y013491D01*
X015781Y013555D01*
X015265Y013555D01*
X015265Y013039D01*
X015265Y013353D02*
X015169Y013353D01*
X015169Y013512D02*
X015265Y013512D01*
X015217Y013603D02*
X015842Y012978D01*
X024217Y012978D01*
X024467Y013228D01*
X025717Y011978D01*
X025717Y010353D01*
X025669Y010341D02*
X025098Y010341D01*
X025094Y010182D02*
X025177Y010182D01*
X025168Y010500D02*
X025102Y010500D01*
X025106Y010658D02*
X025233Y010658D01*
X025110Y010817D02*
X025384Y010817D01*
X025669Y010817D02*
X025765Y010817D01*
X025765Y010658D02*
X025669Y010658D01*
X025669Y010500D02*
X025765Y010500D01*
X026051Y010817D02*
X026212Y010817D01*
X026210Y010975D02*
X025114Y010975D01*
X025119Y011134D02*
X026209Y011134D01*
X026208Y011292D02*
X025123Y011292D01*
X025127Y011451D02*
X026207Y011451D01*
X026205Y011609D02*
X025131Y011609D01*
X025135Y011768D02*
X026204Y011768D01*
X026203Y011926D02*
X025139Y011926D01*
X025143Y012085D02*
X026202Y012085D01*
X026201Y012244D02*
X025147Y012244D01*
X025151Y012402D02*
X026199Y012402D01*
X026196Y012878D02*
X026068Y012878D01*
X025151Y013195D02*
X024733Y013195D01*
X024726Y013188D02*
X024855Y013317D01*
X024924Y013485D01*
X024924Y013844D01*
X024476Y013844D01*
X024476Y013861D01*
X024924Y013861D01*
X024924Y014221D01*
X024855Y014389D01*
X024726Y014517D01*
X024558Y014587D01*
X024476Y014587D01*
X024476Y013862D01*
X024458Y013862D01*
X024458Y014587D01*
X024376Y014587D01*
X024208Y014517D01*
X024080Y014389D01*
X024010Y014221D01*
X024010Y013861D01*
X024458Y013861D01*
X024458Y013844D01*
X024010Y013844D01*
X024010Y013485D01*
X024080Y013317D01*
X024208Y013188D01*
X024376Y013118D01*
X024458Y013118D01*
X024458Y013844D01*
X024476Y013844D01*
X024476Y013118D01*
X024558Y013118D01*
X024726Y013188D01*
X024870Y013353D02*
X025133Y013353D01*
X025151Y013512D02*
X024924Y013512D01*
X024924Y013670D02*
X025217Y013670D01*
X025368Y013829D02*
X024924Y013829D01*
X024924Y013987D02*
X025285Y013987D01*
X025192Y014146D02*
X024924Y014146D01*
X024890Y014305D02*
X025153Y014305D01*
X025217Y014353D02*
X024842Y014728D01*
X024467Y014728D01*
X024467Y015103D01*
X017342Y015103D01*
X016342Y016103D01*
X016342Y017603D01*
X015217Y017603D01*
X015265Y017634D02*
X025202Y017634D01*
X025136Y017475D02*
X015775Y017475D01*
X015781Y017491D02*
X015781Y017555D01*
X015265Y017555D01*
X015265Y017039D01*
X015329Y017039D01*
X015536Y017125D01*
X015695Y017283D01*
X015781Y017491D01*
X015709Y017317D02*
X025133Y017317D01*
X025166Y017158D02*
X015570Y017158D01*
X015265Y017158D02*
X015169Y017158D01*
X015169Y017317D02*
X015265Y017317D01*
X015265Y017475D02*
X015169Y017475D01*
X014864Y017158D02*
X014842Y017158D01*
X014842Y017000D02*
X025244Y017000D01*
X025426Y016841D02*
X014842Y016841D01*
X014842Y016683D02*
X026166Y016683D01*
X026165Y016841D02*
X026008Y016841D01*
X026168Y016524D02*
X014842Y016524D01*
X014842Y016366D02*
X026169Y016366D01*
X026170Y016207D02*
X014842Y016207D01*
X014842Y016049D02*
X026171Y016049D01*
X026173Y015890D02*
X014842Y015890D01*
X014842Y015731D02*
X026174Y015731D01*
X026175Y015573D02*
X014842Y015573D01*
X014842Y015414D02*
X026176Y015414D01*
X026177Y015256D02*
X014842Y015256D01*
X014842Y015097D02*
X014886Y015097D01*
X015548Y015097D02*
X026179Y015097D01*
X026180Y014939D02*
X015707Y014939D01*
X015776Y014780D02*
X025347Y014780D01*
X025218Y014622D02*
X015801Y014622D01*
X015791Y014463D02*
X016125Y014463D01*
X016063Y014400D02*
X016197Y014534D01*
X016372Y014607D01*
X016562Y014607D01*
X016737Y014534D01*
X016872Y014400D01*
X016944Y014225D01*
X016944Y013481D01*
X016872Y013305D01*
X016737Y013171D01*
X016562Y013098D01*
X016372Y013098D01*
X016197Y013171D01*
X016063Y013305D01*
X015990Y013481D01*
X015990Y014225D01*
X016063Y014400D01*
X016023Y014305D02*
X015725Y014305D01*
X015586Y014146D02*
X015990Y014146D01*
X015990Y013987D02*
X015630Y013987D01*
X015734Y013829D02*
X015990Y013829D01*
X015990Y013670D02*
X015781Y013670D01*
X015781Y013512D02*
X015990Y013512D01*
X016043Y013353D02*
X015724Y013353D01*
X015606Y013195D02*
X016173Y013195D01*
X016761Y013195D02*
X017173Y013195D01*
X017197Y013171D02*
X017372Y013098D01*
X017562Y013098D01*
X017737Y013171D01*
X017872Y013305D01*
X017944Y013481D01*
X017944Y014225D01*
X017872Y014400D01*
X017737Y014534D01*
X017562Y014607D01*
X017372Y014607D01*
X017197Y014534D01*
X017063Y014400D01*
X016990Y014225D01*
X016990Y013481D01*
X017063Y013305D01*
X017197Y013171D01*
X017043Y013353D02*
X016891Y013353D01*
X016944Y013512D02*
X016990Y013512D01*
X016990Y013670D02*
X016944Y013670D01*
X016944Y013829D02*
X016990Y013829D01*
X016990Y013987D02*
X016944Y013987D01*
X016944Y014146D02*
X016990Y014146D01*
X017023Y014305D02*
X016911Y014305D01*
X016809Y014463D02*
X017125Y014463D01*
X017809Y014463D02*
X018125Y014463D01*
X018063Y014400D02*
X017990Y014225D01*
X017990Y013481D01*
X018063Y013305D01*
X018197Y013171D01*
X018372Y013098D01*
X018562Y013098D01*
X018737Y013171D01*
X018872Y013305D01*
X018944Y013481D01*
X018944Y014225D01*
X018872Y014400D01*
X018737Y014534D01*
X018562Y014607D01*
X018372Y014607D01*
X018197Y014534D01*
X018063Y014400D01*
X018023Y014305D02*
X017911Y014305D01*
X017944Y014146D02*
X017990Y014146D01*
X017990Y013987D02*
X017944Y013987D01*
X017944Y013829D02*
X017990Y013829D01*
X017990Y013670D02*
X017944Y013670D01*
X017944Y013512D02*
X017990Y013512D01*
X018043Y013353D02*
X017891Y013353D01*
X017761Y013195D02*
X018173Y013195D01*
X018761Y013195D02*
X019173Y013195D01*
X019197Y013171D02*
X019372Y013098D01*
X019562Y013098D01*
X019737Y013171D01*
X019872Y013305D01*
X019944Y013481D01*
X019944Y014225D01*
X019872Y014400D01*
X019737Y014534D01*
X019562Y014607D01*
X019372Y014607D01*
X019197Y014534D01*
X019063Y014400D01*
X018990Y014225D01*
X018990Y013481D01*
X019063Y013305D01*
X019197Y013171D01*
X019043Y013353D02*
X018891Y013353D01*
X018944Y013512D02*
X018990Y013512D01*
X018990Y013670D02*
X018944Y013670D01*
X018944Y013829D02*
X018990Y013829D01*
X018990Y013987D02*
X018944Y013987D01*
X018944Y014146D02*
X018990Y014146D01*
X019023Y014305D02*
X018911Y014305D01*
X018809Y014463D02*
X019125Y014463D01*
X019809Y014463D02*
X020125Y014463D01*
X020063Y014400D02*
X020197Y014534D01*
X020372Y014607D01*
X020562Y014607D01*
X020737Y014534D01*
X020872Y014400D01*
X020944Y014225D01*
X020944Y013481D01*
X020872Y013305D01*
X020737Y013171D01*
X020562Y013098D01*
X020372Y013098D01*
X020197Y013171D01*
X020063Y013305D01*
X019990Y013481D01*
X019990Y014225D01*
X020063Y014400D01*
X020023Y014305D02*
X019911Y014305D01*
X019944Y014146D02*
X019990Y014146D01*
X019990Y013987D02*
X019944Y013987D01*
X019944Y013829D02*
X019990Y013829D01*
X019990Y013670D02*
X019944Y013670D01*
X019944Y013512D02*
X019990Y013512D01*
X020043Y013353D02*
X019891Y013353D01*
X019761Y013195D02*
X020173Y013195D01*
X020761Y013195D02*
X021173Y013195D01*
X021197Y013171D02*
X021372Y013098D01*
X021562Y013098D01*
X021737Y013171D01*
X021872Y013305D01*
X021944Y013481D01*
X021944Y014225D01*
X021872Y014400D01*
X021737Y014534D01*
X021562Y014607D01*
X021372Y014607D01*
X021197Y014534D01*
X021063Y014400D01*
X020990Y014225D01*
X020990Y013481D01*
X021063Y013305D01*
X021197Y013171D01*
X021043Y013353D02*
X020891Y013353D01*
X020944Y013512D02*
X020990Y013512D01*
X020990Y013670D02*
X020944Y013670D01*
X020944Y013829D02*
X020990Y013829D01*
X020990Y013987D02*
X020944Y013987D01*
X020944Y014146D02*
X020990Y014146D01*
X021023Y014305D02*
X020911Y014305D01*
X020809Y014463D02*
X021125Y014463D01*
X021809Y014463D02*
X022125Y014463D01*
X022063Y014400D02*
X022197Y014534D01*
X022372Y014607D01*
X022562Y014607D01*
X022737Y014534D01*
X022872Y014400D01*
X022944Y014225D01*
X022944Y013481D01*
X022872Y013305D01*
X022737Y013171D01*
X022562Y013098D01*
X022372Y013098D01*
X022197Y013171D01*
X022063Y013305D01*
X021990Y013481D01*
X021990Y014225D01*
X022063Y014400D01*
X022023Y014305D02*
X021911Y014305D01*
X021944Y014146D02*
X021990Y014146D01*
X021990Y013987D02*
X021944Y013987D01*
X021944Y013829D02*
X021990Y013829D01*
X021990Y013670D02*
X021944Y013670D01*
X021944Y013512D02*
X021990Y013512D01*
X022043Y013353D02*
X021891Y013353D01*
X021761Y013195D02*
X022173Y013195D01*
X022761Y013195D02*
X023173Y013195D01*
X023197Y013171D02*
X023372Y013098D01*
X023562Y013098D01*
X023737Y013171D01*
X023872Y013305D01*
X023944Y013481D01*
X023944Y014225D01*
X023872Y014400D01*
X023737Y014534D01*
X023562Y014607D01*
X023372Y014607D01*
X023197Y014534D01*
X023063Y014400D01*
X022990Y014225D01*
X022990Y013481D01*
X023063Y013305D01*
X023197Y013171D01*
X023043Y013353D02*
X022891Y013353D01*
X022944Y013512D02*
X022990Y013512D01*
X022990Y013670D02*
X022944Y013670D01*
X022944Y013829D02*
X022990Y013829D01*
X022990Y013987D02*
X022944Y013987D01*
X022944Y014146D02*
X022990Y014146D01*
X023023Y014305D02*
X022911Y014305D01*
X022809Y014463D02*
X023125Y014463D01*
X023809Y014463D02*
X024154Y014463D01*
X024045Y014305D02*
X023911Y014305D01*
X023944Y014146D02*
X024010Y014146D01*
X024010Y013987D02*
X023944Y013987D01*
X023944Y013829D02*
X024010Y013829D01*
X024010Y013670D02*
X023944Y013670D01*
X023944Y013512D02*
X024010Y013512D01*
X024064Y013353D02*
X023891Y013353D01*
X023761Y013195D02*
X024201Y013195D01*
X024458Y013195D02*
X024476Y013195D01*
X024467Y013228D02*
X024467Y013853D01*
X024467Y014728D01*
X024458Y014463D02*
X024476Y014463D01*
X024476Y014305D02*
X024458Y014305D01*
X024458Y014146D02*
X024476Y014146D01*
X024476Y013987D02*
X024458Y013987D01*
X024458Y013829D02*
X024476Y013829D01*
X024476Y013670D02*
X024458Y013670D01*
X024458Y013512D02*
X024476Y013512D01*
X024476Y013353D02*
X024458Y013353D01*
X025217Y014353D02*
X025717Y014353D01*
X025669Y014463D02*
X025765Y014463D01*
X025765Y014622D02*
X025669Y014622D01*
X025669Y014780D02*
X025765Y014780D01*
X026087Y014780D02*
X026181Y014780D01*
X025153Y014463D02*
X024780Y014463D01*
X024467Y015103D02*
X024467Y018353D01*
X025717Y018353D01*
X025669Y018427D02*
X025765Y018427D01*
X025765Y018585D02*
X025669Y018585D01*
X025669Y018744D02*
X025765Y018744D01*
X025765Y018902D02*
X025669Y018902D01*
X025571Y018902D02*
X015725Y018902D01*
X015791Y018744D02*
X025311Y018744D01*
X025203Y018585D02*
X015801Y018585D01*
X015776Y018427D02*
X025153Y018427D01*
X025153Y018268D02*
X015708Y018268D01*
X015550Y018110D02*
X025207Y018110D01*
X025321Y017951D02*
X015666Y017951D01*
X015749Y017793D02*
X025331Y017793D01*
X024467Y018353D02*
X024467Y024728D01*
X025092Y025353D01*
X025717Y025353D01*
X025669Y025403D02*
X025765Y025403D01*
X025765Y025561D02*
X025669Y025561D01*
X025669Y025720D02*
X025765Y025720D01*
X025765Y025878D02*
X025669Y025878D01*
X025512Y025878D02*
X020617Y025878D01*
X020482Y025934D02*
X020152Y025934D01*
X019846Y025807D01*
X019612Y025574D01*
X019486Y025268D01*
X019486Y024937D01*
X019612Y024632D01*
X019846Y024398D01*
X019857Y024394D01*
X018543Y024394D01*
X018426Y024277D01*
X018426Y020751D01*
X018543Y020634D01*
X022249Y020634D01*
X022366Y020751D01*
X022366Y024277D01*
X022249Y024394D01*
X020777Y024394D01*
X020788Y024398D01*
X021022Y024632D01*
X021148Y024937D01*
X021148Y025268D01*
X021022Y025574D01*
X020788Y025807D01*
X020482Y025934D01*
X020876Y025720D02*
X025287Y025720D01*
X025193Y025561D02*
X023911Y025561D01*
X023839Y025632D02*
X023775Y025659D01*
X023731Y025677D01*
X023614Y025677D01*
X023318Y025677D01*
X023210Y025632D01*
X023202Y025625D01*
X023195Y025632D01*
X023122Y025662D01*
X023086Y025677D01*
X022969Y025677D01*
X022890Y025677D01*
X022772Y025677D01*
X022664Y025632D01*
X022656Y025625D01*
X022649Y025632D01*
X022540Y025677D01*
X022029Y025677D01*
X021921Y025632D01*
X021838Y025549D01*
X021793Y025441D01*
X021793Y025324D01*
X021838Y025215D01*
X021921Y025132D01*
X021990Y025104D01*
X021990Y024733D01*
X022035Y024625D01*
X022118Y024542D01*
X022226Y024497D01*
X022344Y024497D01*
X022452Y024542D01*
X022535Y024625D01*
X022548Y024657D01*
X022581Y024625D01*
X022664Y024542D01*
X022772Y024497D01*
X022969Y024497D01*
X023086Y024497D01*
X023086Y024497D01*
X023130Y024515D01*
X023195Y024542D01*
X023202Y024549D01*
X023210Y024542D01*
X023318Y024497D01*
X023436Y024497D01*
X023544Y024542D01*
X023627Y024625D01*
X023656Y024694D01*
X023731Y024694D01*
X023839Y024739D01*
X023922Y024821D01*
X024021Y024920D01*
X024066Y025028D01*
X024066Y025146D01*
X024066Y025343D01*
X024021Y025451D01*
X023839Y025632D01*
X023731Y025677D02*
X023731Y025677D01*
X024041Y025403D02*
X025153Y025403D01*
X025153Y025244D02*
X024066Y025244D01*
X024066Y025343D02*
X024066Y025343D01*
X024066Y025086D02*
X025217Y025086D01*
X025345Y024927D02*
X024024Y024927D01*
X023869Y024768D02*
X026104Y024768D01*
X026105Y024610D02*
X023612Y024610D01*
X022596Y024610D02*
X022520Y024610D01*
X022050Y024610D02*
X021000Y024610D01*
X021078Y024768D02*
X021990Y024768D01*
X021990Y024927D02*
X021144Y024927D01*
X021148Y025086D02*
X021990Y025086D01*
X021826Y025244D02*
X021148Y025244D01*
X021093Y025403D02*
X021793Y025403D01*
X021850Y025561D02*
X021027Y025561D01*
X020017Y025878D02*
X015713Y025878D01*
X015695Y025922D02*
X015781Y025715D01*
X015781Y025651D01*
X015265Y025651D01*
X015265Y026167D01*
X015329Y026167D01*
X015536Y026081D01*
X015695Y025922D01*
X015580Y026037D02*
X026094Y026037D01*
X026093Y026195D02*
X014842Y026195D01*
X014842Y026037D02*
X014854Y026037D01*
X015169Y026037D02*
X015265Y026037D01*
X015265Y025878D02*
X015169Y025878D01*
X015169Y025720D02*
X015265Y025720D01*
X015217Y025603D02*
X015842Y025603D01*
X016342Y025103D01*
X016342Y021603D01*
X016342Y017603D01*
X015585Y019061D02*
X026148Y019061D01*
X026147Y019219D02*
X014842Y019219D01*
X014842Y019061D02*
X014850Y019061D01*
X014842Y019378D02*
X026146Y019378D01*
X026144Y019536D02*
X014842Y019536D01*
X014842Y019695D02*
X026143Y019695D01*
X026142Y019854D02*
X014842Y019854D01*
X014842Y020012D02*
X026141Y020012D01*
X026140Y020171D02*
X014842Y020171D01*
X014842Y020329D02*
X026138Y020329D01*
X026137Y020488D02*
X014842Y020488D01*
X014842Y020646D02*
X018531Y020646D01*
X018426Y020805D02*
X014842Y020805D01*
X014842Y020963D02*
X018426Y020963D01*
X018426Y021122D02*
X015530Y021122D01*
X015536Y021125D02*
X015695Y021283D01*
X015781Y021491D01*
X015781Y021555D01*
X015265Y021555D01*
X015265Y021039D01*
X015329Y021039D01*
X015536Y021125D01*
X015692Y021280D02*
X018426Y021280D01*
X018426Y021439D02*
X015760Y021439D01*
X015764Y021756D02*
X018426Y021756D01*
X018426Y021598D02*
X015265Y021598D01*
X015217Y021603D02*
X016342Y021603D01*
X015698Y021915D02*
X018426Y021915D01*
X018426Y022073D02*
X015544Y022073D01*
X015672Y022232D02*
X018426Y022232D01*
X018426Y022390D02*
X015761Y022390D01*
X015801Y022549D02*
X018426Y022549D01*
X018426Y022707D02*
X015801Y022707D01*
X015740Y022866D02*
X018426Y022866D01*
X018426Y023024D02*
X015621Y023024D01*
X015342Y023183D02*
X018426Y023183D01*
X018426Y023342D02*
X014842Y023342D01*
X014842Y023500D02*
X018426Y023500D01*
X018426Y023659D02*
X014842Y023659D01*
X014842Y023817D02*
X018426Y023817D01*
X018426Y023976D02*
X014842Y023976D01*
X014842Y024134D02*
X018426Y024134D01*
X018442Y024293D02*
X014842Y024293D01*
X014842Y024451D02*
X019793Y024451D01*
X019634Y024610D02*
X014842Y024610D01*
X014842Y024768D02*
X019556Y024768D01*
X019490Y024927D02*
X014842Y024927D01*
X014842Y025086D02*
X014992Y025086D01*
X015169Y025086D02*
X015265Y025086D01*
X015265Y025039D02*
X015329Y025039D01*
X015536Y025125D01*
X015695Y025283D01*
X015781Y025491D01*
X015781Y025555D01*
X015265Y025555D01*
X015265Y025039D01*
X015442Y025086D02*
X019486Y025086D01*
X019486Y025244D02*
X015656Y025244D01*
X015744Y025403D02*
X019542Y025403D01*
X019607Y025561D02*
X015265Y025561D01*
X015265Y025403D02*
X015169Y025403D01*
X015169Y025244D02*
X015265Y025244D01*
X015779Y025720D02*
X019759Y025720D01*
X020841Y024451D02*
X026107Y024451D01*
X026108Y024293D02*
X022350Y024293D01*
X022366Y024134D02*
X026109Y024134D01*
X026110Y023976D02*
X022366Y023976D01*
X022366Y023817D02*
X026112Y023817D01*
X026113Y023659D02*
X022366Y023659D01*
X022366Y023500D02*
X026114Y023500D01*
X026115Y023342D02*
X022366Y023342D01*
X022366Y023183D02*
X026116Y023183D01*
X026118Y023024D02*
X022366Y023024D01*
X022366Y022866D02*
X025430Y022866D01*
X025246Y022707D02*
X022366Y022707D01*
X022366Y022549D02*
X025166Y022549D01*
X025133Y022390D02*
X022366Y022390D01*
X022366Y022232D02*
X025135Y022232D01*
X025201Y022073D02*
X022366Y022073D01*
X022366Y021915D02*
X025329Y021915D01*
X025295Y021756D02*
X022366Y021756D01*
X022366Y021598D02*
X025187Y021598D01*
X025133Y021439D02*
X022366Y021439D01*
X022366Y021280D02*
X025133Y021280D01*
X025181Y021122D02*
X022366Y021122D01*
X022366Y020963D02*
X025281Y020963D01*
X025514Y020805D02*
X022366Y020805D01*
X022262Y020646D02*
X026136Y020646D01*
X026135Y020805D02*
X025920Y020805D01*
X025864Y018902D02*
X026149Y018902D01*
X026151Y018744D02*
X026123Y018744D01*
X026119Y022866D02*
X026004Y022866D01*
X026089Y024927D02*
X026103Y024927D01*
X025765Y024927D02*
X025669Y024927D01*
X025669Y025086D02*
X025765Y025086D01*
X025765Y025244D02*
X025669Y025244D01*
X025922Y025878D02*
X026096Y025878D01*
X023086Y025677D02*
X023086Y025677D01*
X015092Y023183D02*
X014842Y023183D01*
X015169Y021439D02*
X015265Y021439D01*
X015265Y021280D02*
X015169Y021280D01*
X015169Y021122D02*
X015265Y021122D01*
X014904Y021122D02*
X014842Y021122D01*
X026201Y010658D02*
X026213Y010658D01*
X026217Y007170D02*
X024659Y007170D01*
X024476Y007170D02*
X024458Y007170D01*
X024458Y007012D02*
X024476Y007012D01*
X024476Y006853D02*
X024458Y006853D01*
X024458Y006694D02*
X024476Y006694D01*
X024476Y006536D02*
X024458Y006536D01*
X024476Y006469D02*
X024924Y006469D01*
X024924Y006110D01*
X024855Y005942D01*
X024726Y005813D01*
X024558Y005743D01*
X024476Y005743D01*
X024476Y006469D01*
X024476Y006377D02*
X024458Y006377D01*
X024458Y006219D02*
X024476Y006219D01*
X024476Y006060D02*
X024458Y006060D01*
X024458Y005902D02*
X024476Y005902D01*
X024815Y005902D02*
X034243Y005902D01*
X033852Y005426D02*
X005684Y005426D01*
X005665Y005330D02*
X005269Y005330D01*
X004990Y005050D01*
X004990Y004655D01*
X005269Y004376D01*
X005665Y004376D01*
X005944Y004655D01*
X005944Y005050D01*
X005665Y005330D01*
X005727Y005268D02*
X033163Y005268D01*
X032973Y005109D02*
X031761Y005109D01*
X031665Y005205D02*
X031269Y005205D01*
X031192Y005128D01*
X031172Y005128D01*
X031012Y005128D01*
X030865Y005067D01*
X030842Y005043D01*
X030819Y005067D01*
X030672Y005128D01*
X030492Y005128D01*
X030415Y005205D01*
X030019Y005205D01*
X029740Y004926D01*
X029740Y004530D01*
X030019Y004250D01*
X030302Y004250D01*
X030302Y003687D01*
X030419Y003569D01*
X031265Y003569D01*
X031383Y003687D01*
X031383Y004250D01*
X031665Y004250D01*
X031945Y004530D01*
X031945Y004926D01*
X031665Y005205D01*
X031920Y004951D02*
X032890Y004951D01*
X032856Y004792D02*
X031945Y004792D01*
X031945Y004633D02*
X032856Y004633D01*
X032922Y004475D02*
X031889Y004475D01*
X031731Y004316D02*
X033048Y004316D01*
X034282Y004158D02*
X031383Y004158D01*
X031383Y003999D02*
X034361Y003999D01*
X034544Y003841D02*
X031383Y003841D01*
X031378Y003682D02*
X036967Y003682D01*
X036967Y003524D02*
X035563Y003524D01*
X035523Y003564D02*
X035681Y003405D01*
X035767Y003198D01*
X035767Y003134D01*
X034868Y003134D01*
X034868Y003038D01*
X035767Y003038D01*
X035767Y002974D01*
X035739Y002906D01*
X035920Y002831D01*
X036079Y002672D01*
X036165Y002465D01*
X036165Y002401D01*
X035265Y002401D01*
X035265Y002305D01*
X036165Y002305D01*
X036165Y002241D01*
X036079Y002033D01*
X035920Y001875D01*
X035713Y001789D01*
X035265Y001789D01*
X035265Y002305D01*
X035169Y002305D01*
X035169Y001789D01*
X034721Y001789D01*
X034514Y001875D01*
X034355Y002033D01*
X034279Y002218D01*
X033871Y002218D01*
X033871Y002734D01*
X033775Y002734D01*
X032876Y002734D01*
X032876Y002670D01*
X032961Y002462D01*
X033120Y002304D01*
X033327Y002218D01*
X033775Y002218D01*
X033775Y002734D01*
X033775Y002830D01*
X032876Y002830D01*
X032876Y002894D01*
X032961Y003101D01*
X033120Y003260D01*
X033327Y003346D01*
X033775Y003346D01*
X033775Y002830D01*
X033871Y002830D01*
X033871Y003346D01*
X033933Y003346D01*
X033958Y003405D01*
X034116Y003564D01*
X034324Y003650D01*
X034772Y003650D01*
X034772Y003134D01*
X034868Y003134D01*
X034868Y003650D01*
X035316Y003650D01*
X035523Y003564D01*
X035698Y003365D02*
X036967Y003365D01*
X036967Y003207D02*
X035764Y003207D01*
X035779Y002889D02*
X036967Y002889D01*
X036967Y002731D02*
X036020Y002731D01*
X036120Y002572D02*
X036967Y002572D01*
X036967Y002414D02*
X036165Y002414D01*
X036165Y002255D02*
X036967Y002255D01*
X036967Y002097D02*
X036105Y002097D01*
X035984Y001938D02*
X036967Y001938D01*
X036967Y001780D02*
X021143Y001780D01*
X021148Y001768D02*
X021022Y002074D01*
X020788Y002307D01*
X020482Y002434D01*
X020152Y002434D01*
X019846Y002307D01*
X019612Y002074D01*
X019486Y001768D01*
X019486Y001437D01*
X019612Y001132D01*
X019846Y000898D01*
X020152Y000772D01*
X020482Y000772D01*
X020788Y000898D01*
X021022Y001132D01*
X021148Y001437D01*
X021148Y001768D01*
X021148Y001621D02*
X035729Y001621D01*
X035467Y001463D02*
X021148Y001463D01*
X021093Y001304D02*
X035467Y001304D01*
X035467Y001145D02*
X021027Y001145D01*
X020877Y000987D02*
X035467Y000987D01*
X035467Y000828D02*
X020620Y000828D01*
X020015Y000828D02*
X015120Y000828D01*
X014982Y000772D02*
X014652Y000772D01*
X014346Y000898D01*
X014112Y001132D01*
X013986Y001437D01*
X013986Y001768D01*
X014112Y002074D01*
X014346Y002307D01*
X014652Y002434D01*
X014982Y002434D01*
X015288Y002307D01*
X015522Y002074D01*
X015648Y001768D01*
X015648Y001437D01*
X015522Y001132D01*
X015288Y000898D01*
X014982Y000772D01*
X015377Y000987D02*
X019757Y000987D01*
X019607Y001145D02*
X015527Y001145D01*
X015593Y001304D02*
X019541Y001304D01*
X019486Y001463D02*
X015648Y001463D01*
X015648Y001621D02*
X019486Y001621D01*
X019491Y001780D02*
X015643Y001780D01*
X015578Y001938D02*
X019556Y001938D01*
X019636Y002097D02*
X015499Y002097D01*
X015340Y002255D02*
X019794Y002255D01*
X020103Y002414D02*
X015031Y002414D01*
X014603Y002414D02*
X003562Y002414D01*
X003562Y002572D02*
X030327Y002572D01*
X030327Y002452D02*
X030432Y002347D01*
X030768Y002347D01*
X030768Y002776D01*
X030927Y002776D01*
X030927Y002347D01*
X031263Y002347D01*
X031368Y002452D01*
X031368Y002776D01*
X030928Y002776D01*
X030928Y002936D01*
X031368Y002936D01*
X031368Y003259D01*
X031263Y003364D01*
X030927Y003364D01*
X030927Y002936D01*
X030768Y002936D01*
X030768Y003364D01*
X030432Y003364D01*
X030327Y003259D01*
X030327Y002936D01*
X030767Y002936D01*
X030767Y002776D01*
X030327Y002776D01*
X030327Y002452D01*
X030366Y002414D02*
X020531Y002414D01*
X020840Y002255D02*
X033237Y002255D01*
X033010Y002414D02*
X031330Y002414D01*
X031368Y002572D02*
X032916Y002572D01*
X032876Y002731D02*
X031368Y002731D01*
X031368Y003048D02*
X032939Y003048D01*
X032876Y002889D02*
X030928Y002889D01*
X030927Y002731D02*
X030768Y002731D01*
X030767Y002889D02*
X012869Y002889D01*
X012801Y002822D02*
X012998Y003019D01*
X013105Y003276D01*
X013105Y003554D01*
X012998Y003812D01*
X012801Y004009D01*
X012544Y004115D01*
X012265Y004115D01*
X012008Y004009D01*
X011811Y003812D01*
X011705Y003554D01*
X011705Y003276D01*
X011811Y003019D01*
X012008Y002822D01*
X012265Y002715D01*
X012544Y002715D01*
X012801Y002822D01*
X012581Y002731D02*
X030327Y002731D01*
X030327Y003048D02*
X013010Y003048D01*
X013076Y003207D02*
X015411Y003207D01*
X015511Y003106D02*
X015923Y003106D01*
X016214Y003397D01*
X016214Y003809D01*
X015923Y004100D01*
X015511Y004100D01*
X015220Y003809D01*
X015220Y003397D01*
X015511Y003106D01*
X015252Y003365D02*
X013105Y003365D01*
X013105Y003524D02*
X015220Y003524D01*
X015220Y003682D02*
X013052Y003682D01*
X012969Y003841D02*
X015252Y003841D01*
X015411Y003999D02*
X012810Y003999D01*
X011999Y003999D02*
X010782Y003999D01*
X010686Y004095D02*
X010433Y004095D01*
X010433Y003444D01*
X010376Y003444D01*
X010376Y004095D01*
X010123Y004095D01*
X009725Y003697D01*
X009725Y003444D01*
X010376Y003444D01*
X010376Y003387D01*
X009725Y003387D01*
X009725Y003134D01*
X010123Y002735D01*
X010376Y002735D01*
X010376Y003387D01*
X010433Y003387D01*
X010433Y003444D01*
X011085Y003444D01*
X011085Y003697D01*
X010686Y004095D01*
X010433Y003999D02*
X010376Y003999D01*
X010376Y003841D02*
X010433Y003841D01*
X010433Y003682D02*
X010376Y003682D01*
X010376Y003524D02*
X010433Y003524D01*
X010405Y003415D02*
X010405Y002040D01*
X009713Y001349D01*
X006938Y001349D01*
X006986Y001304D02*
X014041Y001304D01*
X013986Y001463D02*
X007885Y001463D01*
X007885Y001461D02*
X007799Y001668D01*
X007641Y001827D01*
X007434Y001913D01*
X006986Y001913D01*
X006986Y001397D01*
X007885Y001397D01*
X007885Y001461D01*
X007885Y001301D02*
X006986Y001301D01*
X006986Y001397D01*
X006890Y001397D01*
X006890Y001913D01*
X006441Y001913D01*
X006307Y001857D01*
X006163Y001917D01*
X005715Y001917D01*
X005715Y001401D01*
X005619Y001401D01*
X005619Y001917D01*
X005171Y001917D01*
X004964Y001831D01*
X004805Y001672D01*
X004719Y001465D01*
X004719Y001401D01*
X005619Y001401D01*
X005619Y001305D01*
X004719Y001305D01*
X004719Y001241D01*
X004805Y001033D01*
X004964Y000875D01*
X005171Y000789D01*
X005619Y000789D01*
X005619Y001305D01*
X005715Y001305D01*
X005715Y001401D01*
X005990Y001401D01*
X005990Y001397D01*
X006889Y001397D01*
X006889Y001301D01*
X006615Y001301D01*
X006615Y001305D01*
X005715Y001305D01*
X005715Y000789D01*
X006163Y000789D01*
X006298Y000845D01*
X006441Y000785D01*
X006890Y000785D01*
X006890Y001301D01*
X006986Y001301D01*
X006986Y000785D01*
X007434Y000785D01*
X007641Y000871D01*
X007799Y001029D01*
X007885Y001237D01*
X007885Y001301D01*
X007847Y001145D02*
X014107Y001145D01*
X014257Y000987D02*
X007757Y000987D01*
X007538Y000828D02*
X014515Y000828D01*
X013986Y001621D02*
X007819Y001621D01*
X007688Y001780D02*
X013991Y001780D01*
X014056Y001938D02*
X003562Y001938D01*
X003562Y001780D02*
X004913Y001780D01*
X004784Y001621D02*
X003562Y001621D01*
X003562Y001463D02*
X004719Y001463D01*
X004719Y001304D02*
X003562Y001304D01*
X003562Y001145D02*
X004759Y001145D01*
X004852Y000987D02*
X003562Y000987D01*
X003562Y000828D02*
X005076Y000828D01*
X005619Y000828D02*
X005715Y000828D01*
X005715Y000987D02*
X005619Y000987D01*
X005619Y001145D02*
X005715Y001145D01*
X005715Y001304D02*
X005619Y001304D01*
X005619Y001463D02*
X005715Y001463D01*
X005715Y001621D02*
X005619Y001621D01*
X005619Y001780D02*
X005715Y001780D01*
X006615Y001304D02*
X006889Y001304D01*
X006890Y001145D02*
X006986Y001145D01*
X006986Y000987D02*
X006890Y000987D01*
X006890Y000828D02*
X006986Y000828D01*
X006337Y000828D02*
X006258Y000828D01*
X006890Y001463D02*
X006986Y001463D01*
X006986Y001621D02*
X006890Y001621D01*
X006890Y001780D02*
X006986Y001780D01*
X007438Y002733D02*
X006438Y002733D01*
X006260Y002807D01*
X006167Y002769D01*
X005167Y002769D01*
X004952Y002858D01*
X004788Y003022D01*
X004699Y003237D01*
X004699Y003469D01*
X004788Y003683D01*
X004952Y003848D01*
X005167Y003937D01*
X006167Y003937D01*
X006345Y003863D01*
X006438Y003901D01*
X007438Y003901D01*
X007652Y003812D01*
X007816Y003648D01*
X007905Y003433D01*
X007905Y003201D01*
X007816Y002987D01*
X007652Y002822D01*
X007438Y002733D01*
X007719Y002889D02*
X009969Y002889D01*
X009810Y003048D02*
X007842Y003048D01*
X007905Y003207D02*
X008392Y003207D01*
X008466Y003133D02*
X008310Y003289D01*
X008225Y003492D01*
X008225Y003713D01*
X008310Y003917D01*
X008466Y004073D01*
X008669Y004157D01*
X008890Y004157D01*
X009094Y004073D01*
X009249Y003917D01*
X009334Y003713D01*
X009334Y003492D01*
X009249Y003289D01*
X009094Y003133D01*
X008890Y003048D01*
X008669Y003048D01*
X008466Y003133D01*
X008278Y003365D02*
X007905Y003365D01*
X007868Y003524D02*
X008225Y003524D01*
X008225Y003682D02*
X007782Y003682D01*
X007583Y003841D02*
X008278Y003841D01*
X008392Y003999D02*
X003562Y003999D01*
X003562Y003841D02*
X004946Y003841D01*
X004788Y003682D02*
X003562Y003682D01*
X003562Y003524D02*
X004722Y003524D01*
X004699Y003365D02*
X003562Y003365D01*
X003562Y003207D02*
X004712Y003207D01*
X004777Y003048D02*
X003562Y003048D01*
X003562Y002889D02*
X004921Y002889D01*
X003562Y002731D02*
X012228Y002731D01*
X011940Y002889D02*
X010840Y002889D01*
X010686Y002735D02*
X011085Y003134D01*
X011085Y003387D01*
X010433Y003387D01*
X010433Y002735D01*
X010686Y002735D01*
X010433Y002889D02*
X010376Y002889D01*
X010376Y003048D02*
X010433Y003048D01*
X010433Y003207D02*
X010376Y003207D01*
X010376Y003365D02*
X010433Y003365D01*
X010405Y003415D02*
X010405Y003415D01*
X010405Y004540D01*
X008482Y006463D01*
X006747Y006463D01*
X006729Y006536D02*
X006766Y006536D01*
X006766Y006694D02*
X006729Y006694D01*
X006729Y006853D02*
X006766Y006853D01*
X006766Y006377D02*
X006729Y006377D01*
X006729Y006219D02*
X006766Y006219D01*
X006766Y006060D02*
X006729Y006060D01*
X005973Y006536D02*
X004961Y006536D01*
X004904Y006694D02*
X006030Y006694D01*
X006166Y006853D02*
X004768Y006853D01*
X004206Y006853D02*
X004169Y006853D01*
X004169Y006694D02*
X004206Y006694D01*
X004206Y006536D02*
X004169Y006536D01*
X004168Y006481D02*
X004168Y006444D01*
X003562Y006444D01*
X003562Y006481D01*
X004168Y006481D01*
X004169Y006377D02*
X004206Y006377D01*
X004206Y006219D02*
X004169Y006219D01*
X004169Y006060D02*
X004206Y006060D01*
X003562Y005743D02*
X004996Y005743D01*
X005062Y005585D02*
X003562Y005585D01*
X003562Y005426D02*
X005250Y005426D01*
X005207Y005268D02*
X003562Y005268D01*
X003562Y005109D02*
X005049Y005109D01*
X004990Y004951D02*
X003562Y004951D01*
X003562Y004792D02*
X004990Y004792D01*
X005012Y004633D02*
X003562Y004633D01*
X003562Y004475D02*
X005170Y004475D01*
X005764Y004475D02*
X015220Y004475D01*
X015220Y004397D02*
X015511Y004106D01*
X015923Y004106D01*
X016214Y004397D01*
X016214Y004809D01*
X015923Y005100D01*
X015511Y005100D01*
X015220Y004809D01*
X015220Y004397D01*
X015301Y004316D02*
X003562Y004316D01*
X003562Y004158D02*
X015459Y004158D01*
X015975Y004158D02*
X016459Y004158D01*
X016511Y004106D02*
X016923Y004106D01*
X017214Y004397D01*
X017214Y004809D01*
X016923Y005100D01*
X016511Y005100D01*
X016220Y004809D01*
X016220Y004397D01*
X016511Y004106D01*
X016511Y004100D02*
X016220Y003809D01*
X016220Y003397D01*
X016511Y003106D01*
X016923Y003106D01*
X017214Y003397D01*
X017214Y003809D01*
X016923Y004100D01*
X016511Y004100D01*
X016411Y003999D02*
X016023Y003999D01*
X016182Y003841D02*
X016252Y003841D01*
X016220Y003682D02*
X016214Y003682D01*
X016214Y003524D02*
X016220Y003524D01*
X016252Y003365D02*
X016182Y003365D01*
X016023Y003207D02*
X016411Y003207D01*
X017023Y003207D02*
X017411Y003207D01*
X017511Y003106D02*
X017923Y003106D01*
X018214Y003397D01*
X018214Y003809D01*
X017923Y004100D01*
X017511Y004100D01*
X017220Y003809D01*
X017220Y003397D01*
X017511Y003106D01*
X017252Y003365D02*
X017182Y003365D01*
X017214Y003524D02*
X017220Y003524D01*
X017214Y003682D02*
X017220Y003682D01*
X017252Y003841D02*
X017182Y003841D01*
X017023Y003999D02*
X017411Y003999D01*
X017511Y004106D02*
X017923Y004106D01*
X018214Y004397D01*
X018214Y004809D01*
X017923Y005100D01*
X017511Y005100D01*
X017220Y004809D01*
X017220Y004397D01*
X017511Y004106D01*
X017459Y004158D02*
X016975Y004158D01*
X017133Y004316D02*
X017301Y004316D01*
X017220Y004475D02*
X017214Y004475D01*
X017214Y004633D02*
X017220Y004633D01*
X017214Y004792D02*
X017220Y004792D01*
X017362Y004951D02*
X017072Y004951D01*
X016362Y004951D02*
X016072Y004951D01*
X016214Y004792D02*
X016220Y004792D01*
X016214Y004633D02*
X016220Y004633D01*
X016214Y004475D02*
X016220Y004475D01*
X016301Y004316D02*
X016133Y004316D01*
X015362Y004951D02*
X005944Y004951D01*
X005944Y004792D02*
X015220Y004792D01*
X015220Y004633D02*
X005923Y004633D01*
X005886Y005109D02*
X029923Y005109D01*
X029765Y004951D02*
X025072Y004951D01*
X025214Y004809D02*
X024923Y005100D01*
X024511Y005100D01*
X024220Y004809D01*
X024220Y004397D01*
X024511Y004106D01*
X024923Y004106D01*
X025214Y004397D01*
X025214Y004809D01*
X025214Y004792D02*
X029740Y004792D01*
X029740Y004633D02*
X025214Y004633D01*
X025214Y004475D02*
X029795Y004475D01*
X029953Y004316D02*
X025133Y004316D01*
X024975Y004158D02*
X030302Y004158D01*
X030302Y003999D02*
X024995Y003999D01*
X024915Y004080D02*
X025194Y003800D01*
X025194Y003621D01*
X024736Y003621D01*
X024736Y003584D01*
X025194Y003584D01*
X025194Y003405D01*
X024915Y003126D01*
X024736Y003126D01*
X024736Y003584D01*
X024699Y003584D01*
X024699Y003126D01*
X024520Y003126D01*
X024240Y003405D01*
X024240Y003584D01*
X024698Y003584D01*
X024698Y003621D01*
X024240Y003621D01*
X024240Y003800D01*
X024520Y004080D01*
X024699Y004080D01*
X024699Y003621D01*
X024736Y003621D01*
X024736Y004080D01*
X024915Y004080D01*
X024736Y003999D02*
X024699Y003999D01*
X024717Y003978D02*
X024592Y004103D01*
X024467Y004103D01*
X024217Y004353D01*
X024217Y005603D01*
X023923Y005100D02*
X023511Y005100D01*
X023220Y004809D01*
X023220Y004397D01*
X023511Y004106D01*
X023923Y004106D01*
X024214Y004397D01*
X024214Y004809D01*
X023923Y005100D01*
X024072Y004951D02*
X024362Y004951D01*
X024220Y004792D02*
X024214Y004792D01*
X024214Y004633D02*
X024220Y004633D01*
X024214Y004475D02*
X024220Y004475D01*
X024301Y004316D02*
X024133Y004316D01*
X023975Y004158D02*
X024459Y004158D01*
X024439Y003999D02*
X024023Y003999D01*
X023923Y004100D02*
X024214Y003809D01*
X024214Y003397D01*
X023923Y003106D01*
X023511Y003106D01*
X023220Y003397D01*
X023220Y003809D01*
X023511Y004100D01*
X023923Y004100D01*
X024182Y003841D02*
X024281Y003841D01*
X024240Y003682D02*
X024214Y003682D01*
X024214Y003524D02*
X024240Y003524D01*
X024280Y003365D02*
X024182Y003365D01*
X024023Y003207D02*
X024439Y003207D01*
X024699Y003207D02*
X024736Y003207D01*
X024736Y003365D02*
X024699Y003365D01*
X024699Y003524D02*
X024736Y003524D01*
X024717Y003603D02*
X024717Y003978D01*
X024699Y003841D02*
X024736Y003841D01*
X024736Y003682D02*
X024699Y003682D01*
X025153Y003841D02*
X030302Y003841D01*
X030306Y003682D02*
X025194Y003682D01*
X025194Y003524D02*
X034076Y003524D01*
X033941Y003365D02*
X025154Y003365D01*
X024995Y003207D02*
X030327Y003207D01*
X030768Y003207D02*
X030927Y003207D01*
X030927Y003048D02*
X030768Y003048D01*
X031368Y003207D02*
X033067Y003207D01*
X033775Y003207D02*
X033871Y003207D01*
X033871Y003048D02*
X033775Y003048D01*
X033775Y002889D02*
X033871Y002889D01*
X033871Y002731D02*
X033775Y002731D01*
X033775Y002572D02*
X033871Y002572D01*
X033871Y002414D02*
X033775Y002414D01*
X033775Y002255D02*
X033871Y002255D01*
X034329Y002097D02*
X020999Y002097D01*
X021078Y001938D02*
X034450Y001938D01*
X035169Y001938D02*
X035265Y001938D01*
X035265Y002097D02*
X035169Y002097D01*
X035169Y002255D02*
X035265Y002255D01*
X034868Y003048D02*
X036967Y003048D01*
X036967Y003841D02*
X035890Y003841D01*
X036073Y003999D02*
X036967Y003999D01*
X036967Y004158D02*
X036152Y004158D01*
X036185Y004316D02*
X036967Y004316D01*
X036967Y004475D02*
X036182Y004475D01*
X036117Y004633D02*
X036967Y004633D01*
X036967Y004792D02*
X035987Y004792D01*
X035630Y004951D02*
X036967Y004951D01*
X036967Y005109D02*
X035736Y005109D01*
X035787Y005268D02*
X036967Y005268D01*
X036967Y005426D02*
X035787Y005426D01*
X035738Y005585D02*
X036967Y005585D01*
X036967Y005743D02*
X035635Y005743D01*
X035396Y005902D02*
X036967Y005902D01*
X034868Y003524D02*
X034772Y003524D01*
X034772Y003365D02*
X034868Y003365D01*
X034868Y003207D02*
X034772Y003207D01*
X035467Y000670D02*
X003562Y000670D01*
X003562Y000511D02*
X035467Y000511D01*
X030927Y002414D02*
X030768Y002414D01*
X030768Y002572D02*
X030927Y002572D01*
X030967Y005109D02*
X030717Y005109D01*
X026217Y006060D02*
X024904Y006060D01*
X024924Y006219D02*
X026217Y006219D01*
X026217Y006377D02*
X024924Y006377D01*
X024924Y006536D02*
X026217Y006536D01*
X026217Y006694D02*
X024924Y006694D01*
X024921Y006853D02*
X026217Y006853D01*
X026217Y007012D02*
X024856Y007012D01*
X022923Y005100D02*
X022511Y005100D01*
X022220Y004809D01*
X022220Y004397D01*
X022511Y004106D01*
X022923Y004106D01*
X023214Y004397D01*
X023214Y004809D01*
X022923Y005100D01*
X023072Y004951D02*
X023362Y004951D01*
X023220Y004792D02*
X023214Y004792D01*
X023214Y004633D02*
X023220Y004633D01*
X023214Y004475D02*
X023220Y004475D01*
X023301Y004316D02*
X023133Y004316D01*
X022975Y004158D02*
X023459Y004158D01*
X023411Y003999D02*
X023023Y003999D01*
X022923Y004100D02*
X022511Y004100D01*
X022220Y003809D01*
X022220Y003397D01*
X022511Y003106D01*
X022923Y003106D01*
X023214Y003397D01*
X023214Y003809D01*
X022923Y004100D01*
X023182Y003841D02*
X023252Y003841D01*
X023220Y003682D02*
X023214Y003682D01*
X023214Y003524D02*
X023220Y003524D01*
X023252Y003365D02*
X023182Y003365D01*
X023023Y003207D02*
X023411Y003207D01*
X022411Y003207D02*
X022023Y003207D01*
X021923Y003106D02*
X022214Y003397D01*
X022214Y003809D01*
X021923Y004100D01*
X021511Y004100D01*
X021220Y003809D01*
X021220Y003397D01*
X021511Y003106D01*
X021923Y003106D01*
X022182Y003365D02*
X022252Y003365D01*
X022220Y003524D02*
X022214Y003524D01*
X022214Y003682D02*
X022220Y003682D01*
X022252Y003841D02*
X022182Y003841D01*
X022023Y003999D02*
X022411Y003999D01*
X022459Y004158D02*
X021975Y004158D01*
X021923Y004106D02*
X022214Y004397D01*
X022214Y004809D01*
X021923Y005100D01*
X021511Y005100D01*
X021220Y004809D01*
X021220Y004397D01*
X021511Y004106D01*
X021923Y004106D01*
X022133Y004316D02*
X022301Y004316D01*
X022220Y004475D02*
X022214Y004475D01*
X022214Y004633D02*
X022220Y004633D01*
X022214Y004792D02*
X022220Y004792D01*
X022362Y004951D02*
X022072Y004951D01*
X021362Y004951D02*
X021072Y004951D01*
X021214Y004809D02*
X020923Y005100D01*
X020511Y005100D01*
X020220Y004809D01*
X020220Y004397D01*
X020511Y004106D01*
X020923Y004106D01*
X021214Y004397D01*
X021214Y004809D01*
X021214Y004792D02*
X021220Y004792D01*
X021214Y004633D02*
X021220Y004633D01*
X021214Y004475D02*
X021220Y004475D01*
X021301Y004316D02*
X021133Y004316D01*
X020975Y004158D02*
X021459Y004158D01*
X021411Y003999D02*
X021023Y003999D01*
X020923Y004100D02*
X020511Y004100D01*
X020220Y003809D01*
X020220Y003397D01*
X020511Y003106D01*
X020923Y003106D01*
X021214Y003397D01*
X021214Y003809D01*
X020923Y004100D01*
X021182Y003841D02*
X021252Y003841D01*
X021220Y003682D02*
X021214Y003682D01*
X021214Y003524D02*
X021220Y003524D01*
X021252Y003365D02*
X021182Y003365D01*
X021023Y003207D02*
X021411Y003207D01*
X020411Y003207D02*
X020023Y003207D01*
X019923Y003106D02*
X020214Y003397D01*
X020214Y003809D01*
X019923Y004100D01*
X019511Y004100D01*
X019220Y003809D01*
X019220Y003397D01*
X019511Y003106D01*
X019923Y003106D01*
X020182Y003365D02*
X020252Y003365D01*
X020220Y003524D02*
X020214Y003524D01*
X020214Y003682D02*
X020220Y003682D01*
X020252Y003841D02*
X020182Y003841D01*
X020023Y003999D02*
X020411Y003999D01*
X020459Y004158D02*
X019975Y004158D01*
X019923Y004106D02*
X020214Y004397D01*
X020214Y004809D01*
X019923Y005100D01*
X019511Y005100D01*
X019220Y004809D01*
X019220Y004397D01*
X019511Y004106D01*
X019923Y004106D01*
X020133Y004316D02*
X020301Y004316D01*
X020220Y004475D02*
X020214Y004475D01*
X020214Y004633D02*
X020220Y004633D01*
X020214Y004792D02*
X020220Y004792D01*
X020362Y004951D02*
X020072Y004951D01*
X019362Y004951D02*
X019072Y004951D01*
X019214Y004809D02*
X018923Y005100D01*
X018511Y005100D01*
X018220Y004809D01*
X018220Y004397D01*
X018511Y004106D01*
X018923Y004106D01*
X019214Y004397D01*
X019214Y004809D01*
X019214Y004792D02*
X019220Y004792D01*
X019214Y004633D02*
X019220Y004633D01*
X019214Y004475D02*
X019220Y004475D01*
X019301Y004316D02*
X019133Y004316D01*
X018975Y004158D02*
X019459Y004158D01*
X019411Y003999D02*
X019023Y003999D01*
X018923Y004100D02*
X019214Y003809D01*
X019214Y003397D01*
X018923Y003106D01*
X018511Y003106D01*
X018220Y003397D01*
X018220Y003809D01*
X018511Y004100D01*
X018923Y004100D01*
X019182Y003841D02*
X019252Y003841D01*
X019220Y003682D02*
X019214Y003682D01*
X019214Y003524D02*
X019220Y003524D01*
X019252Y003365D02*
X019182Y003365D01*
X019023Y003207D02*
X019411Y003207D01*
X018411Y003207D02*
X018023Y003207D01*
X018182Y003365D02*
X018252Y003365D01*
X018220Y003524D02*
X018214Y003524D01*
X018214Y003682D02*
X018220Y003682D01*
X018252Y003841D02*
X018182Y003841D01*
X018023Y003999D02*
X018411Y003999D01*
X018459Y004158D02*
X017975Y004158D01*
X018133Y004316D02*
X018301Y004316D01*
X018220Y004475D02*
X018214Y004475D01*
X018214Y004633D02*
X018220Y004633D01*
X018214Y004792D02*
X018220Y004792D01*
X018362Y004951D02*
X018072Y004951D01*
X014294Y002255D02*
X003562Y002255D01*
X003562Y002097D02*
X014136Y002097D01*
X011799Y003048D02*
X010999Y003048D01*
X011085Y003207D02*
X011733Y003207D01*
X011705Y003365D02*
X011085Y003365D01*
X011085Y003524D02*
X011705Y003524D01*
X011757Y003682D02*
X011085Y003682D01*
X010941Y003841D02*
X011840Y003841D01*
X010027Y003999D02*
X009167Y003999D01*
X009281Y003841D02*
X009868Y003841D01*
X009725Y003682D02*
X009334Y003682D01*
X009334Y003524D02*
X009725Y003524D01*
X009725Y003365D02*
X009281Y003365D01*
X009167Y003207D02*
X009725Y003207D01*
X011985Y006853D02*
X012575Y006853D01*
X012371Y007012D02*
X012188Y007012D01*
X012261Y007170D02*
X012298Y007170D01*
X012283Y007329D02*
X012276Y007329D01*
X012276Y007487D02*
X012283Y007487D01*
X012276Y007646D02*
X012283Y007646D01*
X012276Y007804D02*
X012283Y007804D01*
X012276Y007963D02*
X012283Y007963D01*
X012334Y008121D02*
X012226Y008121D01*
X012102Y008280D02*
X012457Y008280D01*
X003606Y006853D02*
X003566Y006853D01*
M02*
