G75*
G70*
%OFA0B0*%
%FSLAX24Y24*%
%IPPOS*%
%LPD*%
%AMOC8*
5,1,8,0,0,1.08239X$1,22.5*
%
%ADD10C,0.0110*%
%ADD11C,0.0768*%
%ADD12C,0.0768*%
%ADD13C,0.0554*%
%ADD14C,0.0594*%
%ADD15OC8,0.0554*%
%ADD16C,0.0554*%
%ADD17C,0.1000*%
%ADD18OC8,0.1000*%
%ADD19OC8,0.0594*%
%ADD20C,0.0709*%
%ADD21C,0.0760*%
%ADD22OC8,0.0357*%
%ADD23C,0.0860*%
%ADD24C,0.0160*%
%ADD25C,0.0400*%
%ADD26C,0.0240*%
%ADD27OC8,0.0475*%
%ADD28C,0.0320*%
%ADD29C,0.0560*%
%ADD30C,0.0500*%
D10*
X034524Y024852D02*
X034820Y024852D01*
X034918Y024950D01*
X034918Y025049D01*
X034820Y025147D01*
X034524Y025147D01*
X034524Y024852D02*
X034524Y025443D01*
X034820Y025443D01*
X034918Y025344D01*
X034918Y025246D01*
X034820Y025147D01*
X035169Y024950D02*
X035267Y024852D01*
X035464Y024852D01*
X035562Y024950D01*
X035562Y025344D01*
X035464Y025443D01*
X035267Y025443D01*
X035169Y025344D01*
X035169Y024950D01*
X036010Y024852D02*
X036010Y025443D01*
X035813Y025443D02*
X036207Y025443D01*
D11*
X024851Y024174D02*
X024083Y024174D01*
X023202Y024377D02*
X022434Y024377D01*
X022434Y022409D02*
X023202Y022409D01*
X024083Y022205D02*
X024851Y022205D01*
X023202Y020377D02*
X022434Y020377D01*
X024083Y020237D02*
X024851Y020237D01*
X024851Y018268D02*
X024083Y018268D01*
X023202Y018409D02*
X022434Y018409D01*
X022434Y016377D02*
X023202Y016377D01*
X024082Y016318D02*
X024850Y016318D01*
X024850Y014350D02*
X024082Y014350D01*
X023202Y014409D02*
X022434Y014409D01*
X022434Y012377D02*
X023202Y012377D01*
X024083Y012363D02*
X024851Y012363D01*
X024851Y010394D02*
X024083Y010394D01*
X023202Y010409D02*
X022434Y010409D01*
X023082Y005390D02*
X023850Y005390D01*
X024078Y004791D02*
X024846Y004791D01*
X023202Y004377D02*
X022434Y004377D01*
X023082Y003126D02*
X023850Y003126D01*
X024078Y002822D02*
X024846Y002822D01*
X023202Y002409D02*
X022434Y002409D01*
X050964Y003358D02*
X051732Y003358D01*
X052484Y003377D02*
X053252Y003377D01*
X053252Y001409D02*
X052484Y001409D01*
X051732Y001389D02*
X050964Y001389D01*
X050921Y011476D02*
X051688Y011476D01*
X052484Y011409D02*
X053252Y011409D01*
X053252Y013377D02*
X052484Y013377D01*
X051688Y013444D02*
X050921Y013444D01*
X050921Y015413D02*
X051688Y015413D01*
X052484Y015409D02*
X053252Y015409D01*
X053252Y017377D02*
X052484Y017377D01*
X051688Y017381D02*
X050921Y017381D01*
X050921Y019389D02*
X051688Y019389D01*
X052484Y019409D02*
X053252Y019409D01*
X053252Y021377D02*
X052484Y021377D01*
X051688Y021358D02*
X050921Y021358D01*
X050921Y023326D02*
X051688Y023326D01*
X052484Y023409D02*
X053252Y023409D01*
X053252Y025377D02*
X052484Y025377D01*
X051688Y025295D02*
X050921Y025295D01*
D12*
X050068Y025643D03*
X047068Y025643D03*
X043068Y025643D03*
X043068Y022643D03*
X043068Y021643D03*
X047068Y021643D03*
X049068Y022643D03*
X050068Y021643D03*
X043068Y018643D03*
X043068Y017643D03*
X047068Y017643D03*
X050068Y017643D03*
X049068Y014643D03*
X050068Y013643D03*
X047068Y013643D03*
X043068Y013643D03*
X043068Y014643D03*
X043068Y010643D03*
X032568Y010393D03*
X028568Y010393D03*
X025568Y010393D03*
X026568Y013393D03*
X025568Y014393D03*
X028568Y014393D03*
X032568Y014393D03*
X032568Y013393D03*
X032568Y017393D03*
X032568Y018393D03*
X028568Y018393D03*
X025568Y018393D03*
X026568Y021393D03*
X025568Y022393D03*
X028568Y022393D03*
X032568Y022393D03*
X032568Y021393D03*
X032568Y025393D03*
D13*
X033818Y014170D02*
X033818Y013616D01*
X034818Y013616D02*
X034818Y014170D01*
X035818Y014170D02*
X035818Y013616D01*
X036818Y013616D02*
X036818Y014170D01*
X037818Y014170D02*
X037818Y013616D01*
X038818Y013616D02*
X038818Y014170D01*
X039818Y014170D02*
X039818Y013616D01*
X040818Y013616D02*
X040818Y014170D01*
X041818Y014170D02*
X041818Y013616D01*
X041818Y011170D02*
X041818Y010616D01*
X040818Y010616D02*
X040818Y011170D01*
X039818Y011170D02*
X039818Y010616D01*
X038818Y010616D02*
X038818Y011170D01*
X037818Y011170D02*
X037818Y010616D01*
X036818Y010616D02*
X036818Y011170D01*
X035818Y011170D02*
X035818Y010616D01*
X034818Y010616D02*
X034818Y011170D01*
X033818Y011170D02*
X033818Y010616D01*
X033818Y009795D02*
X033818Y009241D01*
X034818Y009241D02*
X034818Y009795D01*
X035818Y009795D02*
X035818Y009241D01*
X036818Y009241D02*
X036818Y009795D01*
X037818Y009795D02*
X037818Y009241D01*
X038818Y009241D02*
X038818Y009795D01*
X039818Y009795D02*
X039818Y009241D01*
X040818Y009241D02*
X040818Y009795D01*
X041818Y009795D02*
X041818Y009241D01*
X042818Y009241D02*
X042818Y009795D01*
X042818Y006795D02*
X042818Y006241D01*
X041818Y006241D02*
X041818Y006795D01*
X040818Y006795D02*
X040818Y006241D01*
X039818Y006241D02*
X039818Y006795D01*
X038818Y006795D02*
X038818Y006241D01*
X037818Y006241D02*
X037818Y006795D01*
X036818Y006795D02*
X036818Y006241D01*
X035818Y006241D02*
X035818Y006795D01*
X034818Y006795D02*
X034818Y006241D01*
X033818Y006241D02*
X033818Y006795D01*
D14*
X046043Y006846D02*
X046043Y007440D01*
X047043Y007440D02*
X047043Y006846D01*
X048043Y006846D02*
X048043Y007440D01*
X051291Y008283D02*
X051885Y008283D01*
X053851Y008283D02*
X054445Y008283D01*
X054445Y006503D02*
X053851Y006503D01*
X051885Y006503D02*
X051291Y006503D01*
D15*
X049018Y005968D03*
X052868Y004893D03*
X045018Y005968D03*
D16*
X052868Y005893D03*
D17*
X045881Y003456D03*
D18*
X047881Y003456D03*
D19*
X042568Y003643D03*
X041568Y003643D03*
X040568Y003643D03*
X039568Y003643D03*
X038568Y003643D03*
X037568Y003643D03*
X036568Y003643D03*
X035568Y003643D03*
X034568Y003643D03*
X033568Y003643D03*
X033568Y004643D03*
X034568Y004643D03*
X035568Y004643D03*
X036568Y004643D03*
X037568Y004643D03*
X038568Y004643D03*
X039568Y004643D03*
X040568Y004643D03*
X041568Y004643D03*
X042568Y004643D03*
X043956Y006506D03*
X043956Y008506D03*
D20*
X049906Y007643D03*
X049906Y003643D03*
D21*
X052881Y011393D02*
X052868Y011406D01*
X052868Y011409D01*
X050068Y013643D02*
X049068Y014643D01*
X049506Y016206D02*
X050693Y015456D01*
X050756Y015393D01*
X051304Y015413D02*
X051318Y015399D01*
X051318Y015393D01*
X049506Y016206D02*
X048506Y016206D01*
X047631Y017081D01*
X047068Y017643D01*
X050068Y017643D02*
X050631Y017643D01*
X052868Y017377D02*
X052881Y017390D01*
X052881Y017393D01*
X051304Y021358D02*
X051318Y021371D01*
X051318Y021393D01*
X050443Y021393D01*
X050381Y021331D01*
X050068Y021643D02*
X049068Y022643D01*
X049506Y024206D02*
X050693Y023331D01*
X050756Y023331D01*
X050756Y023326D01*
X050760Y023331D01*
X050756Y023326D02*
X050698Y023326D01*
X051304Y023326D02*
X051309Y023331D01*
X049506Y024206D02*
X048506Y024206D01*
X047631Y025081D01*
X047068Y025643D01*
X050068Y025643D02*
X050568Y025643D01*
X051304Y025295D02*
X051301Y025283D01*
X051307Y025272D01*
X051318Y025268D01*
X028568Y018393D02*
X028006Y018956D01*
X027131Y019831D01*
X026193Y019831D01*
X025131Y020206D01*
X026568Y021393D02*
X025568Y022393D01*
X024467Y024174D02*
X024499Y024206D01*
X022818Y024377D02*
X022818Y024393D01*
X025568Y018393D02*
X025443Y018268D01*
X024506Y016331D02*
X024493Y016318D01*
X024466Y016318D01*
X022818Y016377D02*
X022818Y016393D01*
X022818Y014409D02*
X022818Y014393D01*
X025568Y014393D02*
X026568Y013393D01*
X025568Y012143D02*
X025193Y012331D01*
X025568Y012143D02*
X026193Y011831D01*
X027131Y011831D01*
X028006Y010956D01*
X028568Y010393D01*
X022818Y012377D02*
X022818Y012393D01*
D22*
X025568Y012143D03*
X028006Y010956D03*
X028318Y015143D03*
X025568Y016331D03*
X028006Y018956D03*
X025568Y020081D03*
X028318Y023143D03*
X025568Y024206D03*
X047318Y020893D03*
X050193Y019393D03*
X047631Y017081D03*
X050256Y015706D03*
X047318Y012831D03*
X050256Y011456D03*
X050193Y023706D03*
X047631Y025081D03*
D23*
X050568Y025643D02*
X050917Y025295D01*
X051304Y025295D01*
X051318Y025268D02*
X051693Y025268D01*
X051818Y025393D01*
X052881Y025393D01*
X052881Y023393D02*
X052256Y023393D01*
X052193Y023331D01*
X051309Y023331D01*
X050760Y023331D01*
X050068Y021643D02*
X050381Y021331D01*
X052131Y021331D01*
X052193Y021393D01*
X052881Y021393D01*
X052881Y019393D02*
X050193Y019393D01*
X048818Y019393D01*
X047068Y021143D01*
X047068Y021643D01*
X050631Y017643D02*
X050881Y017393D01*
X052881Y017393D01*
X052881Y015393D02*
X051318Y015393D01*
X050756Y015393D01*
X050068Y013643D02*
X050267Y013444D01*
X051304Y013444D01*
X051705Y013444D01*
X051756Y013393D01*
X052881Y013393D01*
X052881Y011393D02*
X051756Y011393D01*
X051693Y011456D01*
X051318Y011456D01*
X051304Y011476D02*
X048673Y011476D01*
X047068Y013081D01*
X047068Y013643D01*
X028568Y014393D02*
X028568Y014893D01*
X028318Y015143D01*
X027131Y016331D01*
X025568Y016331D01*
X024506Y016331D01*
X024443Y016331D02*
X024068Y016331D01*
X024006Y016393D01*
X022818Y016393D01*
X022818Y018393D02*
X023943Y018393D01*
X024068Y018268D01*
X025443Y018268D01*
X025131Y020206D02*
X024068Y020206D01*
X023881Y020393D01*
X022818Y020393D01*
X022818Y022393D02*
X023881Y022393D01*
X024068Y022206D01*
X025381Y022206D01*
X025568Y022393D01*
X027256Y024206D02*
X028568Y022893D01*
X028568Y022393D01*
X027256Y024206D02*
X025568Y024206D01*
X024499Y024206D01*
X024443Y024206D02*
X024068Y024206D01*
X023881Y024393D01*
X022818Y024393D01*
X022818Y014393D02*
X025568Y014393D01*
X025193Y012331D02*
X024443Y012331D01*
X024381Y012393D01*
X022818Y012393D01*
X022818Y010393D02*
X025568Y010393D01*
D24*
X022524Y001675D02*
X021318Y001675D01*
X021318Y006018D01*
X032068Y006018D01*
X032093Y010043D01*
X032238Y009898D01*
X032452Y009809D01*
X032684Y009809D01*
X032899Y009898D01*
X033063Y010062D01*
X033152Y010277D01*
X033152Y010509D01*
X033063Y010724D01*
X032899Y010888D01*
X032684Y010977D01*
X032452Y010977D01*
X032238Y010888D01*
X032097Y010748D01*
X032111Y013024D01*
X032238Y012898D01*
X032452Y012809D01*
X032684Y012809D01*
X032695Y012814D01*
X032762Y012747D01*
X032880Y012698D01*
X034505Y012698D01*
X034632Y012698D01*
X034750Y012747D01*
X035000Y012997D01*
X035090Y013087D01*
X035138Y013204D01*
X035138Y013261D01*
X035223Y013346D01*
X035295Y013521D01*
X035295Y014265D01*
X035223Y014441D01*
X035089Y014575D01*
X034913Y014647D01*
X034723Y014647D01*
X034548Y014575D01*
X034414Y014441D01*
X034341Y014265D01*
X034341Y013521D01*
X034414Y013346D01*
X034421Y013338D01*
X034215Y013338D01*
X034223Y013346D01*
X034295Y013521D01*
X034295Y014265D01*
X034223Y014441D01*
X034089Y014575D01*
X033913Y014647D01*
X033723Y014647D01*
X033548Y014575D01*
X033414Y014441D01*
X033341Y014265D01*
X033341Y013521D01*
X033414Y013346D01*
X033421Y013338D01*
X033152Y013338D01*
X033152Y013509D01*
X033063Y013724D01*
X032899Y013888D01*
X032887Y013893D01*
X032899Y013898D01*
X033063Y014062D01*
X033152Y014277D01*
X033152Y014509D01*
X033063Y014724D01*
X032899Y014888D01*
X032684Y014977D01*
X032452Y014977D01*
X032238Y014888D01*
X032122Y014772D01*
X032136Y017000D01*
X032238Y016898D01*
X032452Y016809D01*
X032684Y016809D01*
X032899Y016898D01*
X033063Y017062D01*
X033068Y017073D01*
X033311Y017073D01*
X035498Y014885D01*
X035498Y014525D01*
X035414Y014441D01*
X035341Y014265D01*
X035341Y013521D01*
X035414Y013346D01*
X035548Y013211D01*
X035723Y013139D01*
X035913Y013139D01*
X036089Y013211D01*
X036223Y013346D01*
X036295Y013521D01*
X036295Y014265D01*
X036223Y014441D01*
X036138Y014525D01*
X036138Y014954D01*
X036138Y015082D01*
X036090Y015199D01*
X033715Y017574D01*
X033625Y017664D01*
X033507Y017713D01*
X033068Y017713D01*
X033063Y017724D01*
X032899Y017888D01*
X032887Y017893D01*
X032899Y017898D01*
X033063Y018062D01*
X033152Y018277D01*
X033152Y018509D01*
X033063Y018724D01*
X032899Y018888D01*
X032684Y018977D01*
X032452Y018977D01*
X032238Y018888D01*
X032147Y018797D01*
X032160Y020976D01*
X032238Y020898D01*
X032452Y020809D01*
X032684Y020809D01*
X032899Y020898D01*
X033063Y021062D01*
X033068Y021073D01*
X033311Y021073D01*
X036498Y017885D01*
X036498Y014525D01*
X036414Y014441D01*
X036341Y014265D01*
X036341Y013521D01*
X036414Y013346D01*
X036548Y013211D01*
X036723Y013139D01*
X036913Y013139D01*
X037089Y013211D01*
X037223Y013346D01*
X037295Y013521D01*
X037295Y014265D01*
X037223Y014441D01*
X037138Y014525D01*
X037138Y017954D01*
X037138Y018082D01*
X037090Y018199D01*
X033715Y021574D01*
X033625Y021664D01*
X033507Y021713D01*
X033068Y021713D01*
X033063Y021724D01*
X032899Y021888D01*
X032887Y021893D01*
X032899Y021898D01*
X033063Y022062D01*
X033068Y022073D01*
X033436Y022073D01*
X037498Y018010D01*
X037498Y014525D01*
X037414Y014441D01*
X037341Y014265D01*
X037341Y013521D01*
X037414Y013346D01*
X037548Y013211D01*
X037723Y013139D01*
X037913Y013139D01*
X038089Y013211D01*
X038223Y013346D01*
X038295Y013521D01*
X038295Y014265D01*
X038223Y014441D01*
X038138Y014525D01*
X038138Y018079D01*
X038138Y018207D01*
X038090Y018324D01*
X033840Y022574D01*
X033750Y022664D01*
X033632Y022713D01*
X033068Y022713D01*
X033063Y022724D01*
X032899Y022888D01*
X032684Y022977D01*
X032452Y022977D01*
X032238Y022888D01*
X032171Y022822D01*
X032184Y024951D01*
X032238Y024898D01*
X032452Y024809D01*
X032684Y024809D01*
X032899Y024898D01*
X033063Y025062D01*
X033152Y025277D01*
X033152Y025509D01*
X033063Y025724D01*
X032899Y025888D01*
X032684Y025977D01*
X032452Y025977D01*
X032238Y025888D01*
X032190Y025840D01*
X032193Y026362D01*
X043443Y026362D01*
X043443Y026094D01*
X043399Y026138D01*
X043184Y026227D01*
X042952Y026227D01*
X042738Y026138D01*
X042573Y025974D01*
X042484Y025759D01*
X042484Y025527D01*
X042573Y025312D01*
X042738Y025148D01*
X042952Y025059D01*
X043184Y025059D01*
X043399Y025148D01*
X043443Y025192D01*
X043443Y023094D01*
X043399Y023138D01*
X043184Y023227D01*
X042952Y023227D01*
X042738Y023138D01*
X042573Y022974D01*
X042569Y022963D01*
X042005Y022963D01*
X041887Y022914D01*
X041797Y022824D01*
X038547Y019574D01*
X038498Y019457D01*
X038498Y019329D01*
X038498Y014525D01*
X038414Y014441D01*
X038341Y014265D01*
X038341Y013521D01*
X038414Y013346D01*
X038548Y013211D01*
X038723Y013139D01*
X038913Y013139D01*
X039089Y013211D01*
X039223Y013346D01*
X039295Y013521D01*
X039295Y014265D01*
X039223Y014441D01*
X039138Y014525D01*
X039138Y019260D01*
X043443Y019260D01*
X043399Y019138D02*
X043443Y019094D01*
X043443Y021192D01*
X043399Y021148D01*
X043184Y021059D01*
X042952Y021059D01*
X042738Y021148D01*
X042573Y021312D01*
X042484Y021527D01*
X042484Y021759D01*
X042573Y021974D01*
X042738Y022138D01*
X042750Y022143D01*
X042738Y022148D01*
X042573Y022312D01*
X042569Y022323D01*
X042201Y022323D01*
X039138Y019260D01*
X039138Y019101D02*
X042701Y019101D01*
X042738Y019138D02*
X042952Y019227D01*
X043184Y019227D01*
X043399Y019138D01*
X043436Y019101D02*
X043443Y019101D01*
X043443Y019418D02*
X039296Y019418D01*
X039455Y019577D02*
X043443Y019577D01*
X043443Y019735D02*
X039613Y019735D01*
X039772Y019894D02*
X043443Y019894D01*
X043443Y020052D02*
X039930Y020052D01*
X040089Y020211D02*
X043443Y020211D01*
X043443Y020370D02*
X040247Y020370D01*
X040406Y020528D02*
X043443Y020528D01*
X043443Y020687D02*
X040564Y020687D01*
X040723Y020845D02*
X043443Y020845D01*
X043443Y021004D02*
X040881Y021004D01*
X041040Y021162D02*
X042723Y021162D01*
X042570Y021321D02*
X041199Y021321D01*
X041357Y021479D02*
X042504Y021479D01*
X042484Y021638D02*
X041516Y021638D01*
X041674Y021796D02*
X042500Y021796D01*
X042566Y021955D02*
X041833Y021955D01*
X041991Y022114D02*
X042713Y022114D01*
X042614Y022272D02*
X042150Y022272D01*
X042068Y022643D02*
X043068Y022643D01*
X042068Y022643D02*
X038818Y019393D01*
X038818Y013893D01*
X038341Y013869D02*
X038295Y013869D01*
X038295Y013711D02*
X038341Y013711D01*
X038341Y013552D02*
X038295Y013552D01*
X038243Y013394D02*
X038394Y013394D01*
X038524Y013235D02*
X038112Y013235D01*
X037524Y013235D02*
X037112Y013235D01*
X037243Y013394D02*
X037394Y013394D01*
X037341Y013552D02*
X037295Y013552D01*
X037295Y013711D02*
X037341Y013711D01*
X037341Y013869D02*
X037295Y013869D01*
X037295Y014028D02*
X037341Y014028D01*
X037341Y014186D02*
X037295Y014186D01*
X037262Y014345D02*
X037374Y014345D01*
X037477Y014503D02*
X037160Y014503D01*
X037138Y014662D02*
X037498Y014662D01*
X037498Y014821D02*
X037138Y014821D01*
X037138Y014979D02*
X037498Y014979D01*
X037498Y015138D02*
X037138Y015138D01*
X037138Y015296D02*
X037498Y015296D01*
X037498Y015455D02*
X037138Y015455D01*
X037138Y015613D02*
X037498Y015613D01*
X037498Y015772D02*
X037138Y015772D01*
X037138Y015930D02*
X037498Y015930D01*
X037498Y016089D02*
X037138Y016089D01*
X037138Y016247D02*
X037498Y016247D01*
X037498Y016406D02*
X037138Y016406D01*
X037138Y016564D02*
X037498Y016564D01*
X037498Y016723D02*
X037138Y016723D01*
X037138Y016882D02*
X037498Y016882D01*
X037498Y017040D02*
X037138Y017040D01*
X037138Y017199D02*
X037498Y017199D01*
X037498Y017357D02*
X037138Y017357D01*
X037138Y017516D02*
X037498Y017516D01*
X037498Y017674D02*
X037138Y017674D01*
X037138Y017833D02*
X037498Y017833D01*
X037498Y017991D02*
X037138Y017991D01*
X037110Y018150D02*
X037359Y018150D01*
X037200Y018308D02*
X036980Y018308D01*
X037042Y018467D02*
X036822Y018467D01*
X036883Y018626D02*
X036663Y018626D01*
X036725Y018784D02*
X036505Y018784D01*
X036566Y018943D02*
X036346Y018943D01*
X036408Y019101D02*
X036188Y019101D01*
X036249Y019260D02*
X036029Y019260D01*
X036091Y019418D02*
X035871Y019418D01*
X035932Y019577D02*
X035712Y019577D01*
X035773Y019735D02*
X035554Y019735D01*
X035615Y019894D02*
X035395Y019894D01*
X035456Y020052D02*
X035236Y020052D01*
X035298Y020211D02*
X035078Y020211D01*
X035139Y020370D02*
X034919Y020370D01*
X034981Y020528D02*
X034761Y020528D01*
X034822Y020687D02*
X034602Y020687D01*
X034664Y020845D02*
X034444Y020845D01*
X034505Y021004D02*
X034285Y021004D01*
X034347Y021162D02*
X034127Y021162D01*
X034188Y021321D02*
X033968Y021321D01*
X034029Y021479D02*
X033810Y021479D01*
X033871Y021638D02*
X033651Y021638D01*
X033712Y021796D02*
X032991Y021796D01*
X032956Y021955D02*
X033554Y021955D01*
X033568Y022393D02*
X032568Y022393D01*
X032282Y022906D02*
X032172Y022906D01*
X032173Y023065D02*
X042664Y023065D01*
X042943Y023223D02*
X032174Y023223D01*
X032175Y023382D02*
X043443Y023382D01*
X043443Y023540D02*
X032176Y023540D01*
X032177Y023699D02*
X043443Y023699D01*
X043443Y023857D02*
X032178Y023857D01*
X032179Y024016D02*
X043443Y024016D01*
X043443Y024175D02*
X032180Y024175D01*
X032181Y024333D02*
X037752Y024333D01*
X037803Y024312D02*
X037497Y024438D01*
X037264Y024672D01*
X037137Y024978D01*
X037137Y025308D01*
X037264Y025614D01*
X037497Y025848D01*
X037803Y025974D01*
X038134Y025974D01*
X038439Y025848D01*
X038673Y025614D01*
X038799Y025308D01*
X038799Y024978D01*
X038673Y024672D01*
X038439Y024438D01*
X038134Y024312D01*
X037803Y024312D01*
X038185Y024333D02*
X043443Y024333D01*
X043443Y024492D02*
X038492Y024492D01*
X038651Y024650D02*
X043443Y024650D01*
X043443Y024809D02*
X038729Y024809D01*
X038795Y024967D02*
X043443Y024967D01*
X043443Y025126D02*
X043345Y025126D01*
X042791Y025126D02*
X038799Y025126D01*
X038799Y025284D02*
X042601Y025284D01*
X042519Y025443D02*
X038744Y025443D01*
X038678Y025601D02*
X042484Y025601D01*
X042485Y025760D02*
X038527Y025760D01*
X038268Y025919D02*
X042550Y025919D01*
X042677Y026077D02*
X032191Y026077D01*
X032190Y025919D02*
X032311Y025919D01*
X032825Y025919D02*
X037669Y025919D01*
X037410Y025760D02*
X033027Y025760D01*
X033114Y025601D02*
X034271Y025601D01*
X034274Y025610D02*
X034357Y025693D01*
X034466Y025738D01*
X034761Y025738D01*
X034878Y025738D01*
X034922Y025719D01*
X034987Y025693D01*
X035043Y025636D01*
X035100Y025693D01*
X035209Y025738D01*
X035326Y025738D01*
X035405Y025738D01*
X035523Y025738D01*
X035559Y025723D01*
X035631Y025693D01*
X035639Y025685D01*
X035646Y025693D01*
X035755Y025738D01*
X036266Y025738D01*
X036374Y025693D01*
X036457Y025610D01*
X036502Y025501D01*
X036502Y025384D01*
X036457Y025275D01*
X036374Y025192D01*
X036305Y025164D01*
X036305Y024793D01*
X036260Y024685D01*
X036177Y024602D01*
X036069Y024557D01*
X035951Y024557D01*
X035843Y024602D01*
X035760Y024685D01*
X035747Y024717D01*
X035631Y024602D01*
X035566Y024575D01*
X035523Y024557D01*
X035523Y024557D01*
X035405Y024557D01*
X035209Y024557D01*
X035100Y024602D01*
X035043Y024659D01*
X034988Y024603D01*
X034987Y024602D01*
X034987Y024602D01*
X034924Y024576D01*
X034878Y024557D01*
X034466Y024557D01*
X034357Y024602D01*
X034274Y024685D01*
X034229Y024793D01*
X034229Y024911D01*
X034229Y025089D01*
X034229Y025206D01*
X034229Y025384D01*
X034229Y025501D01*
X034274Y025610D01*
X034229Y025443D02*
X033152Y025443D01*
X033152Y025284D02*
X034229Y025284D01*
X034229Y025126D02*
X033090Y025126D01*
X032968Y024967D02*
X034229Y024967D01*
X034229Y024809D02*
X032184Y024809D01*
X032183Y024650D02*
X034309Y024650D01*
X035035Y024650D02*
X035052Y024650D01*
X035679Y024650D02*
X035795Y024650D01*
X036225Y024650D02*
X037286Y024650D01*
X037207Y024809D02*
X036305Y024809D01*
X036305Y024967D02*
X037141Y024967D01*
X037137Y025126D02*
X036305Y025126D01*
X036461Y025284D02*
X037137Y025284D01*
X037193Y025443D02*
X036502Y025443D01*
X036460Y025601D02*
X037259Y025601D01*
X035523Y025738D02*
X035523Y025738D01*
X034878Y025738D02*
X034878Y025738D01*
X032192Y026236D02*
X043443Y026236D01*
X037444Y024492D02*
X032182Y024492D01*
X032855Y022906D02*
X041879Y022906D01*
X041720Y022748D02*
X033039Y022748D01*
X033568Y022393D02*
X037818Y018143D01*
X037818Y013893D01*
X038295Y014028D02*
X038341Y014028D01*
X038341Y014186D02*
X038295Y014186D01*
X038262Y014345D02*
X038374Y014345D01*
X038477Y014503D02*
X038160Y014503D01*
X038138Y014662D02*
X038498Y014662D01*
X038498Y014821D02*
X038138Y014821D01*
X038138Y014979D02*
X038498Y014979D01*
X038498Y015138D02*
X038138Y015138D01*
X038138Y015296D02*
X038498Y015296D01*
X038498Y015455D02*
X038138Y015455D01*
X038138Y015613D02*
X038498Y015613D01*
X038498Y015772D02*
X038138Y015772D01*
X038138Y015930D02*
X038498Y015930D01*
X038498Y016089D02*
X038138Y016089D01*
X038138Y016247D02*
X038498Y016247D01*
X038498Y016406D02*
X038138Y016406D01*
X038138Y016564D02*
X038498Y016564D01*
X038498Y016723D02*
X038138Y016723D01*
X038138Y016882D02*
X038498Y016882D01*
X038498Y017040D02*
X038138Y017040D01*
X038138Y017199D02*
X038498Y017199D01*
X038498Y017357D02*
X038138Y017357D01*
X038138Y017516D02*
X038498Y017516D01*
X038498Y017674D02*
X038138Y017674D01*
X038138Y017833D02*
X038498Y017833D01*
X038498Y017991D02*
X038138Y017991D01*
X038138Y018150D02*
X038498Y018150D01*
X038498Y018308D02*
X038096Y018308D01*
X037947Y018467D02*
X038498Y018467D01*
X038498Y018626D02*
X037788Y018626D01*
X037630Y018784D02*
X038498Y018784D01*
X038498Y018943D02*
X037471Y018943D01*
X037313Y019101D02*
X038498Y019101D01*
X038498Y019260D02*
X037154Y019260D01*
X036996Y019418D02*
X038498Y019418D01*
X038549Y019577D02*
X036837Y019577D01*
X036679Y019735D02*
X038708Y019735D01*
X038867Y019894D02*
X036520Y019894D01*
X036361Y020052D02*
X039025Y020052D01*
X039184Y020211D02*
X036203Y020211D01*
X036044Y020370D02*
X039342Y020370D01*
X039501Y020528D02*
X035886Y020528D01*
X035727Y020687D02*
X039659Y020687D01*
X039818Y020845D02*
X035569Y020845D01*
X035410Y021004D02*
X039976Y021004D01*
X040135Y021162D02*
X035252Y021162D01*
X035093Y021321D02*
X040293Y021321D01*
X040452Y021479D02*
X034935Y021479D01*
X034776Y021638D02*
X040611Y021638D01*
X040769Y021796D02*
X034617Y021796D01*
X034459Y021955D02*
X040928Y021955D01*
X041086Y022114D02*
X034300Y022114D01*
X034142Y022272D02*
X041245Y022272D01*
X041403Y022431D02*
X033983Y022431D01*
X033825Y022589D02*
X041562Y022589D01*
X043193Y023223D02*
X043443Y023223D01*
X043443Y021162D02*
X043413Y021162D01*
X042738Y019138D02*
X042573Y018974D01*
X042569Y018963D01*
X042067Y018963D01*
X041949Y018914D01*
X041859Y018824D01*
X039547Y016512D01*
X039498Y016394D01*
X039498Y016267D01*
X039498Y014525D01*
X039414Y014441D01*
X039341Y014265D01*
X039341Y013521D01*
X039414Y013346D01*
X039548Y013211D01*
X039723Y013139D01*
X039913Y013139D01*
X040089Y013211D01*
X040223Y013346D01*
X040295Y013521D01*
X040295Y014265D01*
X040223Y014441D01*
X040138Y014525D01*
X040138Y016198D01*
X042263Y018323D01*
X042569Y018323D01*
X042573Y018312D01*
X042738Y018148D01*
X042750Y018143D01*
X042738Y018138D01*
X042573Y017974D01*
X042484Y017759D01*
X042484Y017527D01*
X042573Y017312D01*
X042738Y017148D01*
X042952Y017059D01*
X043184Y017059D01*
X043399Y017148D01*
X043443Y017192D01*
X043443Y015094D01*
X043399Y015138D01*
X043184Y015227D01*
X042952Y015227D01*
X042941Y015222D01*
X042500Y015664D01*
X042382Y015713D01*
X042255Y015713D01*
X041130Y015713D01*
X041012Y015664D01*
X040922Y015574D01*
X040547Y015199D01*
X040498Y015082D01*
X040498Y014954D01*
X040498Y014525D01*
X040414Y014441D01*
X040341Y014265D01*
X040341Y013521D01*
X040414Y013346D01*
X040548Y013211D01*
X040723Y013139D01*
X040913Y013139D01*
X041089Y013211D01*
X041223Y013346D01*
X041295Y013521D01*
X041295Y014265D01*
X041223Y014441D01*
X041138Y014525D01*
X041138Y014885D01*
X041326Y015073D01*
X042186Y015073D01*
X042489Y014770D01*
X042484Y014759D01*
X042484Y014527D01*
X042573Y014312D01*
X042738Y014148D01*
X042750Y014143D01*
X042738Y014138D01*
X042573Y013974D01*
X042484Y013759D01*
X042484Y013527D01*
X042573Y013312D01*
X042578Y013307D01*
X042578Y012023D01*
X042138Y012463D01*
X042138Y013261D01*
X042223Y013346D01*
X042295Y013521D01*
X042295Y014265D01*
X042223Y014441D01*
X042089Y014575D01*
X041913Y014647D01*
X041723Y014647D01*
X041548Y014575D01*
X041414Y014441D01*
X041341Y014265D01*
X041341Y013521D01*
X041414Y013346D01*
X041498Y013261D01*
X041498Y012394D01*
X041498Y012267D01*
X041547Y012149D01*
X042648Y011048D01*
X042573Y010974D01*
X042484Y010759D01*
X042484Y010527D01*
X042573Y010312D01*
X042646Y010240D01*
X042548Y010200D01*
X042414Y010066D01*
X042341Y009890D01*
X042341Y009146D01*
X042414Y008971D01*
X042548Y008836D01*
X042723Y008764D01*
X042913Y008764D01*
X043089Y008836D01*
X043223Y008971D01*
X043260Y009061D01*
X043490Y008832D01*
X043387Y008789D01*
X043248Y008651D01*
X043067Y008651D01*
X034192Y008651D01*
X034074Y008602D01*
X033984Y008512D01*
X033984Y008512D01*
X033075Y007602D01*
X033074Y007602D01*
X032984Y007512D01*
X032936Y007394D01*
X032936Y007394D01*
X032936Y007267D01*
X032936Y005892D01*
X032984Y005774D01*
X033074Y005684D01*
X033619Y005140D01*
X033363Y005140D01*
X033266Y005043D01*
X033109Y005043D01*
X033045Y005107D01*
X032898Y005168D01*
X032739Y005168D01*
X028344Y005168D01*
X028266Y005246D01*
X027871Y005246D01*
X027591Y004966D01*
X027591Y004570D01*
X027871Y004291D01*
X028266Y004291D01*
X028344Y004368D01*
X032653Y004368D01*
X032717Y004304D01*
X032864Y004243D01*
X033266Y004243D01*
X033363Y004146D01*
X033774Y004146D01*
X033818Y004191D01*
X033887Y004122D01*
X034116Y003893D01*
X034071Y003849D01*
X034071Y003437D01*
X034248Y003260D01*
X034248Y003207D01*
X034248Y003079D01*
X034297Y002962D01*
X034922Y002337D01*
X035012Y002247D01*
X035130Y002198D01*
X037348Y002198D01*
X037264Y002114D01*
X037137Y001808D01*
X037137Y001478D01*
X037264Y001172D01*
X037497Y000938D01*
X037803Y000812D01*
X038134Y000812D01*
X038439Y000938D01*
X038673Y001172D01*
X038799Y001478D01*
X038799Y001808D01*
X038673Y002114D01*
X038589Y002198D01*
X043048Y002198D01*
X042964Y002114D01*
X042837Y001808D01*
X042837Y001478D01*
X042964Y001172D01*
X043197Y000938D01*
X043503Y000812D01*
X043834Y000812D01*
X044139Y000938D01*
X044373Y001172D01*
X044499Y001478D01*
X044499Y001808D01*
X044390Y002073D01*
X053632Y002073D01*
X053750Y002122D01*
X053840Y002212D01*
X053840Y002212D01*
X054375Y002747D01*
X054465Y002837D01*
X054513Y002954D01*
X054513Y005329D01*
X054513Y005457D01*
X054465Y005574D01*
X054013Y006026D01*
X054130Y006026D01*
X054130Y006484D01*
X054167Y006484D01*
X054167Y006026D01*
X054540Y006026D01*
X054715Y006099D01*
X054723Y006107D01*
X054723Y000425D01*
X022818Y000423D01*
X022818Y001643D01*
X022601Y001643D01*
X022524Y001675D01*
X022557Y001661D02*
X037137Y001661D01*
X037137Y001503D02*
X022818Y001503D01*
X022818Y001344D02*
X037192Y001344D01*
X037258Y001186D02*
X022818Y001186D01*
X022818Y001027D02*
X037409Y001027D01*
X037666Y000869D02*
X022818Y000869D01*
X022818Y000710D02*
X054723Y000710D01*
X054723Y000552D02*
X022818Y000552D01*
X022770Y001845D02*
X022322Y001845D01*
X022115Y001931D01*
X021956Y002089D01*
X021871Y002297D01*
X021871Y002361D01*
X022770Y002361D01*
X022770Y002457D01*
X021871Y002457D01*
X021871Y002521D01*
X021956Y002728D01*
X022115Y002887D01*
X022322Y002973D01*
X022535Y002973D01*
X022518Y003014D01*
X022518Y003078D01*
X023418Y003078D01*
X023418Y002930D01*
X023514Y002930D01*
X023514Y002890D02*
X023514Y003078D01*
X023574Y003078D01*
X023600Y003142D01*
X023633Y003174D01*
X023514Y003174D01*
X023514Y003078D01*
X023418Y003078D01*
X023418Y003174D01*
X023514Y003174D01*
X023514Y003690D01*
X023962Y003690D01*
X024169Y003604D01*
X024328Y003446D01*
X024352Y003386D01*
X024414Y003386D01*
X024414Y002870D01*
X024510Y002870D01*
X024510Y002774D01*
X024414Y002774D01*
X024414Y002258D01*
X023966Y002258D01*
X023766Y002341D01*
X023766Y002297D01*
X023680Y002089D01*
X023522Y001931D01*
X023314Y001845D01*
X022866Y001845D01*
X022866Y002361D01*
X022770Y002361D01*
X022770Y001845D01*
X022770Y001979D02*
X022866Y001979D01*
X022866Y002137D02*
X022770Y002137D01*
X022770Y002296D02*
X022866Y002296D01*
X022866Y002361D02*
X023742Y002361D01*
X023646Y002457D01*
X022866Y002457D01*
X022866Y002361D01*
X022866Y002454D02*
X023649Y002454D01*
X023766Y002296D02*
X023876Y002296D01*
X023700Y002137D02*
X037287Y002137D01*
X037208Y001979D02*
X023569Y001979D01*
X024414Y002296D02*
X024510Y002296D01*
X024510Y002258D02*
X024510Y002774D01*
X025410Y002774D01*
X025410Y002710D01*
X025324Y002503D01*
X025165Y002344D01*
X024958Y002258D01*
X024510Y002258D01*
X024510Y002454D02*
X024414Y002454D01*
X024414Y002613D02*
X024510Y002613D01*
X024510Y002771D02*
X024414Y002771D01*
X024510Y002870D02*
X024510Y003386D01*
X024958Y003386D01*
X025165Y003300D01*
X025324Y003142D01*
X025410Y002934D01*
X025410Y002870D01*
X024510Y002870D01*
X024510Y002930D02*
X024414Y002930D01*
X024414Y003088D02*
X024510Y003088D01*
X024510Y003247D02*
X024414Y003247D01*
X024344Y003405D02*
X033132Y003405D01*
X033091Y003446D02*
X033091Y003625D01*
X033550Y003625D01*
X033550Y003661D01*
X033091Y003661D01*
X033091Y003841D01*
X033371Y004120D01*
X033550Y004120D01*
X033550Y003662D01*
X033587Y003662D01*
X033587Y004120D01*
X033766Y004120D01*
X034045Y003841D01*
X034045Y003661D01*
X033587Y003661D01*
X033587Y003625D01*
X034045Y003625D01*
X034045Y003446D01*
X033766Y003166D01*
X033587Y003166D01*
X033587Y003624D01*
X033550Y003624D01*
X033550Y003166D01*
X033371Y003166D01*
X033091Y003446D01*
X033091Y003564D02*
X024209Y003564D01*
X023514Y003564D02*
X023418Y003564D01*
X023418Y003690D02*
X023418Y003174D01*
X022518Y003174D01*
X022518Y003238D01*
X022604Y003446D01*
X022763Y003604D01*
X022970Y003690D01*
X023418Y003690D01*
X023318Y003793D02*
X022318Y003793D01*
X022104Y003882D01*
X021939Y004047D01*
X021851Y004261D01*
X021851Y004493D01*
X021939Y004708D01*
X022104Y004872D01*
X022318Y004961D01*
X022685Y004961D01*
X022587Y005059D01*
X022498Y005274D01*
X022498Y005506D01*
X022587Y005721D01*
X022751Y005885D01*
X022966Y005974D01*
X023966Y005974D01*
X024180Y005885D01*
X024345Y005721D01*
X024434Y005506D01*
X024434Y005375D01*
X024962Y005375D01*
X025177Y005286D01*
X025272Y005191D01*
X026566Y005191D01*
X026621Y005246D01*
X027016Y005246D01*
X027296Y004966D01*
X027296Y004570D01*
X027016Y004291D01*
X026621Y004291D01*
X026520Y004391D01*
X025272Y004391D01*
X025177Y004296D01*
X024962Y004207D01*
X023962Y004207D01*
X023819Y004266D01*
X023766Y004212D01*
X023697Y004047D01*
X023533Y003882D01*
X023318Y003793D01*
X023530Y003881D02*
X033132Y003881D01*
X033091Y003722D02*
X021318Y003722D01*
X021318Y003564D02*
X022722Y003564D01*
X022587Y003405D02*
X021318Y003405D01*
X021318Y003247D02*
X022522Y003247D01*
X022219Y002930D02*
X021318Y002930D01*
X021318Y003088D02*
X023418Y003088D01*
X023514Y003088D02*
X023578Y003088D01*
X023514Y003247D02*
X023418Y003247D01*
X023418Y003405D02*
X023514Y003405D01*
X023418Y002930D02*
X023514Y002890D01*
X022770Y002454D02*
X021318Y002454D01*
X021318Y002296D02*
X021871Y002296D01*
X021937Y002137D02*
X021318Y002137D01*
X021318Y001979D02*
X022067Y001979D01*
X021318Y001820D02*
X037142Y001820D01*
X038271Y000869D02*
X043366Y000869D01*
X043109Y001027D02*
X038528Y001027D01*
X038679Y001186D02*
X042958Y001186D01*
X042892Y001344D02*
X038744Y001344D01*
X038799Y001503D02*
X042837Y001503D01*
X042837Y001661D02*
X038799Y001661D01*
X038795Y001820D02*
X042842Y001820D01*
X042908Y001979D02*
X038729Y001979D01*
X038650Y002137D02*
X042987Y002137D01*
X043704Y002838D02*
X044255Y002838D01*
X044382Y002838D01*
X044500Y002789D01*
X044576Y002713D01*
X053436Y002713D01*
X053873Y003151D01*
X053873Y005260D01*
X053561Y005573D01*
X053223Y005573D01*
X053139Y005489D01*
X052963Y005416D01*
X052773Y005416D01*
X052598Y005489D01*
X052464Y005623D01*
X052391Y005798D01*
X052391Y005988D01*
X052464Y006163D01*
X052508Y006208D01*
X052508Y007923D01*
X052228Y007923D01*
X052167Y007862D01*
X051984Y007786D01*
X051193Y007786D01*
X051010Y007862D01*
X050870Y008002D01*
X050795Y008184D01*
X050795Y008382D01*
X050851Y008518D01*
X047011Y008518D01*
X047459Y008071D01*
X047533Y007890D01*
X047533Y007696D01*
X047533Y007555D01*
X047540Y007539D01*
X047540Y006747D01*
X047533Y006731D01*
X047533Y004716D01*
X047533Y004521D01*
X047459Y004341D01*
X046664Y003546D01*
X046634Y003474D01*
X046581Y003420D01*
X046581Y003316D01*
X046474Y003059D01*
X046277Y002862D01*
X046020Y002756D01*
X045742Y002756D01*
X045484Y002862D01*
X045287Y003059D01*
X045181Y003316D01*
X045181Y003595D01*
X045287Y003852D01*
X045484Y004049D01*
X045742Y004156D01*
X045845Y004156D01*
X045899Y004209D01*
X045971Y004239D01*
X046553Y004821D01*
X046553Y006731D01*
X046546Y006747D01*
X046546Y007539D01*
X046553Y007555D01*
X046553Y007590D01*
X046494Y007649D01*
X046540Y007539D01*
X046540Y006747D01*
X046468Y006574D01*
X046468Y005688D01*
X046407Y005541D01*
X046295Y005429D01*
X043704Y002838D01*
X043796Y002930D02*
X045417Y002930D01*
X045275Y003088D02*
X043954Y003088D01*
X044113Y003247D02*
X045210Y003247D01*
X045181Y003405D02*
X044271Y003405D01*
X044430Y003564D02*
X045181Y003564D01*
X045234Y003722D02*
X044588Y003722D01*
X044747Y003881D02*
X045316Y003881D01*
X045475Y004040D02*
X044905Y004040D01*
X045064Y004198D02*
X045888Y004198D01*
X046089Y004357D02*
X045223Y004357D01*
X045381Y004515D02*
X046247Y004515D01*
X046406Y004674D02*
X045540Y004674D01*
X045698Y004832D02*
X046553Y004832D01*
X046553Y004991D02*
X045857Y004991D01*
X046015Y005149D02*
X046553Y005149D01*
X046553Y005308D02*
X046174Y005308D01*
X046332Y005466D02*
X046553Y005466D01*
X046553Y005625D02*
X046442Y005625D01*
X046468Y005784D02*
X046553Y005784D01*
X046553Y005942D02*
X046468Y005942D01*
X046468Y006101D02*
X046553Y006101D01*
X046553Y006259D02*
X046468Y006259D01*
X046468Y006418D02*
X046553Y006418D01*
X046553Y006576D02*
X046469Y006576D01*
X046535Y006735D02*
X046552Y006735D01*
X046546Y006893D02*
X046540Y006893D01*
X046546Y007052D02*
X046540Y007052D01*
X046546Y007210D02*
X046540Y007210D01*
X046546Y007369D02*
X046540Y007369D01*
X046546Y007528D02*
X046540Y007528D01*
X045741Y007841D02*
X045291Y007841D01*
X045096Y007841D01*
X044916Y007915D01*
X044453Y008378D01*
X044453Y008300D01*
X044346Y008193D01*
X045200Y007339D01*
X045290Y007249D01*
X045338Y007132D01*
X045338Y006323D01*
X045495Y006166D01*
X045495Y005770D01*
X045216Y005491D01*
X044821Y005491D01*
X044541Y005770D01*
X044541Y006166D01*
X044698Y006323D01*
X044698Y006936D01*
X043685Y007949D01*
X043636Y008067D01*
X043636Y008123D01*
X043631Y008128D01*
X043562Y008059D01*
X043444Y008011D01*
X043195Y008011D01*
X043194Y008011D01*
X043067Y008011D01*
X034388Y008011D01*
X033576Y007198D01*
X033576Y007190D01*
X033727Y007252D01*
X033810Y007252D01*
X033810Y006527D01*
X033827Y006527D01*
X033827Y007252D01*
X033909Y007252D01*
X033998Y007215D01*
X033998Y007332D01*
X034047Y007449D01*
X034137Y007539D01*
X034512Y007914D01*
X034630Y007963D01*
X034757Y007963D01*
X042507Y007963D01*
X042625Y007914D01*
X042715Y007824D01*
X043090Y007449D01*
X043138Y007332D01*
X043138Y007204D01*
X043138Y007150D01*
X043223Y007066D01*
X043295Y006890D01*
X043295Y006146D01*
X043223Y005971D01*
X043089Y005836D01*
X042913Y005764D01*
X042723Y005764D01*
X042548Y005836D01*
X042414Y005971D01*
X042341Y006146D01*
X042341Y006890D01*
X042414Y007066D01*
X042491Y007143D01*
X042311Y007323D01*
X034826Y007323D01*
X034775Y007272D01*
X034913Y007272D01*
X035089Y007200D01*
X035223Y007066D01*
X035295Y006890D01*
X035295Y006146D01*
X035223Y005971D01*
X035138Y005886D01*
X035138Y005776D01*
X035326Y005588D01*
X035546Y005588D01*
X035498Y005704D01*
X035498Y005886D01*
X035414Y005971D01*
X035341Y006146D01*
X035341Y006890D01*
X035414Y007066D01*
X035548Y007200D01*
X035723Y007272D01*
X035913Y007272D01*
X036089Y007200D01*
X036223Y007066D01*
X036295Y006890D01*
X036295Y006146D01*
X036223Y005971D01*
X036215Y005963D01*
X036382Y005963D01*
X036449Y005935D01*
X036414Y005971D01*
X036341Y006146D01*
X036341Y006890D01*
X036414Y007066D01*
X036548Y007200D01*
X036723Y007272D01*
X036913Y007272D01*
X037089Y007200D01*
X037223Y007066D01*
X037295Y006890D01*
X037295Y006146D01*
X037223Y005971D01*
X037208Y005956D01*
X037498Y005666D01*
X037498Y005886D01*
X037414Y005971D01*
X037341Y006146D01*
X037341Y006890D01*
X037414Y007066D01*
X037548Y007200D01*
X037723Y007272D01*
X037913Y007272D01*
X038089Y007200D01*
X038223Y007066D01*
X038295Y006890D01*
X038295Y006146D01*
X038223Y005971D01*
X038138Y005886D01*
X038138Y005651D01*
X038340Y005449D01*
X038388Y005332D01*
X038388Y005204D01*
X038388Y005140D01*
X038774Y005140D01*
X039065Y004849D01*
X039065Y004437D01*
X038774Y004146D01*
X038388Y004146D01*
X038388Y004140D01*
X038774Y004140D01*
X039065Y003849D01*
X039065Y003437D01*
X039046Y003418D01*
X039091Y003418D01*
X039071Y003437D01*
X039071Y003849D01*
X039363Y004140D01*
X039613Y004140D01*
X039619Y004146D01*
X039363Y004146D01*
X039071Y004437D01*
X039071Y004849D01*
X039116Y004893D01*
X038637Y005372D01*
X038547Y005462D01*
X038498Y005579D01*
X038498Y005886D01*
X038414Y005971D01*
X038341Y006146D01*
X038341Y006890D01*
X038414Y007066D01*
X038548Y007200D01*
X038723Y007272D01*
X038913Y007272D01*
X039089Y007200D01*
X039223Y007066D01*
X039295Y006890D01*
X039295Y006146D01*
X039223Y005971D01*
X039138Y005886D01*
X039138Y005776D01*
X039498Y005416D01*
X039498Y005886D01*
X039414Y005971D01*
X039341Y006146D01*
X039341Y006890D01*
X039414Y007066D01*
X039548Y007200D01*
X039723Y007272D01*
X039913Y007272D01*
X040089Y007200D01*
X040223Y007066D01*
X040295Y006890D01*
X040295Y006146D01*
X040223Y005971D01*
X040138Y005886D01*
X040138Y005401D01*
X040248Y005291D01*
X040248Y005332D01*
X040297Y005449D01*
X040498Y005651D01*
X040498Y005886D01*
X040414Y005971D01*
X040341Y006146D01*
X040341Y006890D01*
X040414Y007066D01*
X040548Y007200D01*
X040723Y007272D01*
X040913Y007272D01*
X041089Y007200D01*
X041223Y007066D01*
X041295Y006890D01*
X041295Y006146D01*
X041223Y005971D01*
X041138Y005886D01*
X041138Y005540D01*
X041255Y005588D01*
X041436Y005588D01*
X041498Y005651D01*
X041498Y005886D01*
X041414Y005971D01*
X041341Y006146D01*
X041341Y006890D01*
X041414Y007066D01*
X041548Y007200D01*
X041723Y007272D01*
X041913Y007272D01*
X042089Y007200D01*
X042223Y007066D01*
X042295Y006890D01*
X042295Y006146D01*
X042223Y005971D01*
X042138Y005886D01*
X042138Y005454D01*
X042090Y005337D01*
X042000Y005247D01*
X041833Y005081D01*
X042065Y004849D01*
X042065Y004437D01*
X041774Y004146D01*
X041388Y004146D01*
X041388Y004140D01*
X041774Y004140D01*
X042065Y003849D01*
X042065Y003437D01*
X042046Y003418D01*
X042091Y003418D01*
X042071Y003437D01*
X042071Y003849D01*
X042363Y004140D01*
X042774Y004140D01*
X043065Y003849D01*
X043065Y003437D01*
X043046Y003418D01*
X043153Y003418D01*
X045668Y005934D01*
X045668Y006519D01*
X045622Y006565D01*
X045546Y006747D01*
X045546Y007539D01*
X045622Y007721D01*
X045741Y007841D01*
X045607Y007686D02*
X044853Y007686D01*
X045011Y007528D02*
X045546Y007528D01*
X045546Y007369D02*
X045170Y007369D01*
X045200Y007339D02*
X045200Y007339D01*
X045306Y007210D02*
X045546Y007210D01*
X045546Y007052D02*
X045338Y007052D01*
X045338Y006893D02*
X045546Y006893D01*
X045552Y006735D02*
X045338Y006735D01*
X045338Y006576D02*
X045617Y006576D01*
X045668Y006418D02*
X045338Y006418D01*
X045402Y006259D02*
X045668Y006259D01*
X045668Y006101D02*
X045495Y006101D01*
X045495Y005942D02*
X045668Y005942D01*
X045518Y005784D02*
X045495Y005784D01*
X045360Y005625D02*
X045350Y005625D01*
X045201Y005466D02*
X042138Y005466D01*
X042138Y005625D02*
X044687Y005625D01*
X044541Y005784D02*
X042961Y005784D01*
X043194Y005942D02*
X044541Y005942D01*
X044541Y006101D02*
X044225Y006101D01*
X044153Y006029D02*
X044433Y006308D01*
X044433Y006487D01*
X043974Y006487D01*
X043937Y006487D01*
X043937Y006524D01*
X043479Y006524D01*
X043479Y006703D01*
X043758Y006982D01*
X043937Y006982D01*
X043937Y006524D01*
X043974Y006524D01*
X043974Y006982D01*
X044153Y006982D01*
X044433Y006703D01*
X044433Y006524D01*
X043974Y006524D01*
X043974Y006487D01*
X043974Y006029D01*
X044153Y006029D01*
X043974Y006101D02*
X043937Y006101D01*
X043937Y006029D02*
X043758Y006029D01*
X043479Y006308D01*
X043479Y006487D01*
X043937Y006487D01*
X043937Y006029D01*
X043937Y006259D02*
X043974Y006259D01*
X043974Y006418D02*
X043937Y006418D01*
X043937Y006576D02*
X043974Y006576D01*
X043974Y006735D02*
X043937Y006735D01*
X043937Y006893D02*
X043974Y006893D01*
X044242Y006893D02*
X044698Y006893D01*
X044698Y006735D02*
X044401Y006735D01*
X044433Y006576D02*
X044698Y006576D01*
X044698Y006418D02*
X044433Y006418D01*
X044384Y006259D02*
X044635Y006259D01*
X045018Y005968D02*
X045018Y007068D01*
X043956Y008131D01*
X043956Y008506D01*
X043956Y008506D01*
X043943Y008518D01*
X043568Y008518D01*
X043381Y008331D01*
X043131Y008331D01*
X043131Y008331D01*
X043131Y008331D01*
X034256Y008331D01*
X033256Y007331D01*
X033256Y005956D01*
X034068Y005143D01*
X034068Y004393D01*
X034318Y004143D01*
X035068Y004143D01*
X035568Y004643D01*
X035943Y005268D02*
X036568Y004643D01*
X037068Y004893D02*
X036318Y005643D01*
X035943Y005643D01*
X035818Y005768D01*
X035818Y006518D01*
X035341Y006576D02*
X035295Y006576D01*
X035295Y006418D02*
X035341Y006418D01*
X035341Y006259D02*
X035295Y006259D01*
X035277Y006101D02*
X035360Y006101D01*
X035442Y005942D02*
X035194Y005942D01*
X035138Y005784D02*
X035498Y005784D01*
X035531Y005625D02*
X035289Y005625D01*
X035193Y005268D02*
X034818Y005643D01*
X034818Y006518D01*
X035295Y006735D02*
X035341Y006735D01*
X035342Y006893D02*
X035294Y006893D01*
X035228Y007052D02*
X035408Y007052D01*
X035574Y007210D02*
X035063Y007210D01*
X036063Y007210D02*
X036574Y007210D01*
X036408Y007052D02*
X036228Y007052D01*
X036294Y006893D02*
X036342Y006893D01*
X036341Y006735D02*
X036295Y006735D01*
X036295Y006576D02*
X036341Y006576D01*
X036341Y006418D02*
X036295Y006418D01*
X036295Y006259D02*
X036341Y006259D01*
X036360Y006101D02*
X036277Y006101D01*
X036433Y005942D02*
X036442Y005942D01*
X036818Y005893D02*
X036818Y006518D01*
X037295Y006576D02*
X037341Y006576D01*
X037341Y006418D02*
X037295Y006418D01*
X037295Y006259D02*
X037341Y006259D01*
X037360Y006101D02*
X037277Y006101D01*
X037222Y005942D02*
X037442Y005942D01*
X037498Y005784D02*
X037380Y005784D01*
X037818Y005518D02*
X037818Y006518D01*
X038295Y006576D02*
X038341Y006576D01*
X038341Y006418D02*
X038295Y006418D01*
X038295Y006259D02*
X038341Y006259D01*
X038360Y006101D02*
X038277Y006101D01*
X038194Y005942D02*
X038442Y005942D01*
X038498Y005784D02*
X038138Y005784D01*
X038164Y005625D02*
X038498Y005625D01*
X038545Y005466D02*
X038322Y005466D01*
X038388Y005308D02*
X038701Y005308D01*
X038859Y005149D02*
X038388Y005149D01*
X038068Y005268D02*
X037818Y005518D01*
X038068Y005268D02*
X038068Y004143D01*
X037568Y003643D01*
X037068Y004143D02*
X037068Y004893D01*
X037568Y004643D02*
X037568Y005143D01*
X036818Y005893D01*
X037295Y006735D02*
X037341Y006735D01*
X037342Y006893D02*
X037294Y006893D01*
X037228Y007052D02*
X037408Y007052D01*
X037574Y007210D02*
X037063Y007210D01*
X038063Y007210D02*
X038574Y007210D01*
X038408Y007052D02*
X038228Y007052D01*
X038294Y006893D02*
X038342Y006893D01*
X038341Y006735D02*
X038295Y006735D01*
X038818Y006518D02*
X038818Y005643D01*
X039568Y004893D01*
X039568Y004643D01*
X039071Y004674D02*
X039065Y004674D01*
X039071Y004832D02*
X039065Y004832D01*
X039018Y004991D02*
X038923Y004991D01*
X039065Y004515D02*
X039071Y004515D01*
X039152Y004357D02*
X038984Y004357D01*
X038826Y004198D02*
X039311Y004198D01*
X039262Y004040D02*
X038874Y004040D01*
X039033Y003881D02*
X039104Y003881D01*
X039071Y003722D02*
X039065Y003722D01*
X039071Y003564D02*
X039065Y003564D01*
X039568Y003643D02*
X040068Y004143D01*
X040068Y005018D01*
X039818Y005268D01*
X039818Y006518D01*
X039341Y006576D02*
X039295Y006576D01*
X039295Y006418D02*
X039341Y006418D01*
X039341Y006259D02*
X039295Y006259D01*
X039277Y006101D02*
X039360Y006101D01*
X039442Y005942D02*
X039194Y005942D01*
X039138Y005784D02*
X039498Y005784D01*
X039498Y005625D02*
X039289Y005625D01*
X039447Y005466D02*
X039498Y005466D01*
X040138Y005466D02*
X040314Y005466D01*
X040248Y005308D02*
X040231Y005308D01*
X040568Y005268D02*
X040818Y005518D01*
X040818Y006518D01*
X040341Y006576D02*
X040295Y006576D01*
X040295Y006418D02*
X040341Y006418D01*
X040341Y006259D02*
X040295Y006259D01*
X040277Y006101D02*
X040360Y006101D01*
X040442Y005942D02*
X040194Y005942D01*
X040138Y005784D02*
X040498Y005784D01*
X040473Y005625D02*
X040138Y005625D01*
X040568Y005268D02*
X040568Y004643D01*
X041068Y005018D02*
X041318Y005268D01*
X041568Y005268D01*
X041818Y005518D01*
X041818Y006518D01*
X041341Y006576D02*
X041295Y006576D01*
X041295Y006418D02*
X041341Y006418D01*
X041341Y006259D02*
X041295Y006259D01*
X041277Y006101D02*
X041360Y006101D01*
X041442Y005942D02*
X041194Y005942D01*
X041138Y005784D02*
X041498Y005784D01*
X041473Y005625D02*
X041138Y005625D01*
X041902Y005149D02*
X044884Y005149D01*
X044725Y004991D02*
X042923Y004991D01*
X043065Y004849D02*
X043065Y004437D01*
X042774Y004146D01*
X042363Y004146D01*
X042071Y004437D01*
X042071Y004849D01*
X042363Y005140D01*
X042774Y005140D01*
X043065Y004849D01*
X043065Y004832D02*
X044567Y004832D01*
X044408Y004674D02*
X043065Y004674D01*
X043065Y004515D02*
X044250Y004515D01*
X044091Y004357D02*
X042984Y004357D01*
X042826Y004198D02*
X043933Y004198D01*
X043774Y004040D02*
X042874Y004040D01*
X043033Y003881D02*
X043616Y003881D01*
X043457Y003722D02*
X043065Y003722D01*
X043065Y003564D02*
X043299Y003564D01*
X042262Y004040D02*
X041874Y004040D01*
X041826Y004198D02*
X042311Y004198D01*
X042152Y004357D02*
X041984Y004357D01*
X042065Y004515D02*
X042071Y004515D01*
X042071Y004674D02*
X042065Y004674D01*
X042071Y004832D02*
X042065Y004832D01*
X041923Y004991D02*
X042213Y004991D01*
X042061Y005308D02*
X045042Y005308D01*
X043686Y006101D02*
X043277Y006101D01*
X043295Y006259D02*
X043528Y006259D01*
X043479Y006418D02*
X043295Y006418D01*
X043295Y006576D02*
X043479Y006576D01*
X043511Y006735D02*
X043295Y006735D01*
X043294Y006893D02*
X043669Y006893D01*
X043228Y007052D02*
X044582Y007052D01*
X044423Y007210D02*
X043138Y007210D01*
X043123Y007369D02*
X044265Y007369D01*
X044106Y007528D02*
X043011Y007528D01*
X042853Y007686D02*
X043948Y007686D01*
X043789Y007845D02*
X042694Y007845D01*
X042443Y007643D02*
X034693Y007643D01*
X034318Y007268D01*
X034318Y005518D01*
X034568Y005268D01*
X034568Y004643D01*
X033969Y004040D02*
X033846Y004040D01*
X034005Y003881D02*
X034104Y003881D01*
X034071Y003722D02*
X034045Y003722D01*
X034045Y003564D02*
X034071Y003564D01*
X034103Y003405D02*
X034005Y003405D01*
X033846Y003247D02*
X034248Y003247D01*
X034248Y003088D02*
X025346Y003088D01*
X025410Y002930D02*
X034329Y002930D01*
X034488Y002771D02*
X025410Y002771D01*
X025369Y002613D02*
X034646Y002613D01*
X034805Y002454D02*
X025275Y002454D01*
X025048Y002296D02*
X034963Y002296D01*
X035193Y002518D02*
X044318Y002518D01*
X044443Y002393D01*
X053568Y002393D01*
X054193Y003018D01*
X054193Y005393D01*
X053693Y005893D01*
X052868Y005893D01*
X052438Y006101D02*
X052157Y006101D01*
X052155Y006099D02*
X051980Y006026D01*
X051607Y006026D01*
X051607Y006484D01*
X051570Y006484D01*
X051570Y006026D01*
X051197Y006026D01*
X051021Y006099D01*
X050887Y006233D01*
X050815Y006408D01*
X050815Y006485D01*
X051570Y006485D01*
X051570Y006521D01*
X050815Y006521D01*
X050815Y006598D01*
X050887Y006773D01*
X051021Y006907D01*
X051197Y006980D01*
X051570Y006980D01*
X051570Y006522D01*
X051607Y006522D01*
X051607Y006980D01*
X051980Y006980D01*
X052155Y006907D01*
X052289Y006773D01*
X052362Y006598D01*
X052362Y006521D01*
X051607Y006521D01*
X051607Y006485D01*
X052362Y006485D01*
X052362Y006408D01*
X052289Y006233D01*
X052155Y006099D01*
X052300Y006259D02*
X052508Y006259D01*
X052508Y006418D02*
X052362Y006418D01*
X052362Y006576D02*
X052508Y006576D01*
X052508Y006735D02*
X052305Y006735D01*
X052169Y006893D02*
X052508Y006893D01*
X052508Y007052D02*
X050295Y007052D01*
X050321Y007078D02*
X050109Y006866D01*
X050109Y006865D02*
X049971Y006728D01*
X049791Y006653D01*
X048501Y006653D01*
X048465Y006565D01*
X048325Y006425D01*
X048142Y006349D01*
X047944Y006349D01*
X047762Y006425D01*
X047622Y006565D01*
X047546Y006747D01*
X047546Y007539D01*
X047622Y007721D01*
X047762Y007861D01*
X047944Y007937D01*
X048142Y007937D01*
X048325Y007861D01*
X048465Y007721D01*
X048501Y007633D01*
X049351Y007633D01*
X049351Y007753D01*
X049436Y007957D01*
X049592Y008113D01*
X049796Y008197D01*
X050016Y008197D01*
X050220Y008113D01*
X050376Y007957D01*
X050460Y007753D01*
X050460Y007533D01*
X050396Y007377D01*
X050396Y007258D01*
X050321Y007078D01*
X050376Y007210D02*
X052508Y007210D01*
X052508Y007369D02*
X050396Y007369D01*
X050458Y007528D02*
X052508Y007528D01*
X052508Y007686D02*
X050460Y007686D01*
X050422Y007845D02*
X051052Y007845D01*
X050870Y008003D02*
X050330Y008003D01*
X050102Y008162D02*
X050804Y008162D01*
X050795Y008320D02*
X047209Y008320D01*
X047368Y008162D02*
X049709Y008162D01*
X049482Y008003D02*
X047487Y008003D01*
X047533Y007845D02*
X047745Y007845D01*
X047607Y007686D02*
X047533Y007686D01*
X047546Y007528D02*
X047540Y007528D01*
X047546Y007369D02*
X047540Y007369D01*
X047546Y007210D02*
X047540Y007210D01*
X047546Y007052D02*
X047540Y007052D01*
X047546Y006893D02*
X047540Y006893D01*
X047552Y006735D02*
X047535Y006735D01*
X047533Y006576D02*
X047617Y006576D01*
X047533Y006418D02*
X047779Y006418D01*
X047533Y006259D02*
X048635Y006259D01*
X048541Y006166D02*
X048821Y006445D01*
X049216Y006445D01*
X049386Y006276D01*
X049507Y006276D01*
X049625Y006227D01*
X049715Y006137D01*
X050638Y005213D01*
X052514Y005213D01*
X052671Y005370D01*
X053066Y005370D01*
X053345Y005091D01*
X053345Y004695D01*
X053066Y004416D01*
X052671Y004416D01*
X052514Y004573D01*
X050569Y004573D01*
X050442Y004573D01*
X050325Y004622D01*
X049336Y005611D01*
X049216Y005491D01*
X048821Y005491D01*
X048541Y005770D01*
X048541Y006166D01*
X048541Y006101D02*
X047533Y006101D01*
X047533Y005942D02*
X048541Y005942D01*
X048541Y005784D02*
X047533Y005784D01*
X047533Y005625D02*
X048687Y005625D01*
X049006Y005956D02*
X049443Y005956D01*
X050506Y004893D01*
X052868Y004893D01*
X053345Y004832D02*
X053873Y004832D01*
X053873Y004674D02*
X053324Y004674D01*
X053165Y004515D02*
X053873Y004515D01*
X053873Y004357D02*
X047465Y004357D01*
X047531Y004515D02*
X052571Y004515D01*
X052368Y003961D02*
X053368Y003961D01*
X053583Y003872D01*
X053747Y003708D01*
X053836Y003493D01*
X053836Y003261D01*
X053747Y003047D01*
X053583Y002882D01*
X053368Y002793D01*
X052368Y002793D01*
X052154Y002882D01*
X052133Y002903D01*
X052103Y002903D01*
X052062Y002863D01*
X051848Y002774D01*
X050848Y002774D01*
X050633Y002863D01*
X050628Y002868D01*
X050131Y002868D01*
X049951Y002942D01*
X049813Y003080D01*
X049805Y003089D01*
X049796Y003089D01*
X049592Y003173D01*
X049436Y003329D01*
X049351Y003533D01*
X049351Y003753D01*
X049436Y003957D01*
X049592Y004113D01*
X049796Y004197D01*
X050016Y004197D01*
X050220Y004113D01*
X050376Y003957D01*
X050414Y003866D01*
X050432Y003848D01*
X050628Y003848D01*
X050633Y003853D01*
X050848Y003941D01*
X051848Y003941D01*
X051989Y003883D01*
X052180Y003883D01*
X052368Y003961D01*
X053562Y003881D02*
X053873Y003881D01*
X053873Y003722D02*
X053733Y003722D01*
X053807Y003564D02*
X053873Y003564D01*
X053873Y003405D02*
X053836Y003405D01*
X053830Y003247D02*
X053873Y003247D01*
X053811Y003088D02*
X053764Y003088D01*
X053652Y002930D02*
X053630Y002930D01*
X053494Y002771D02*
X046058Y002771D01*
X046345Y002930D02*
X047445Y002930D01*
X047599Y002776D02*
X047201Y003174D01*
X047201Y003427D01*
X047852Y003427D01*
X047852Y003484D01*
X047201Y003484D01*
X047201Y003737D01*
X047599Y004136D01*
X047853Y004136D01*
X047853Y003484D01*
X047909Y003484D01*
X047909Y004136D01*
X048162Y004136D01*
X048561Y003737D01*
X048561Y003484D01*
X047909Y003484D01*
X047909Y003427D01*
X047853Y003427D01*
X047853Y002776D01*
X047599Y002776D01*
X047853Y002930D02*
X047909Y002930D01*
X047909Y002776D02*
X047909Y003427D01*
X048561Y003427D01*
X048561Y003174D01*
X048162Y002776D01*
X047909Y002776D01*
X047909Y003088D02*
X047853Y003088D01*
X047853Y003247D02*
X047909Y003247D01*
X047909Y003405D02*
X047853Y003405D01*
X047853Y003564D02*
X047909Y003564D01*
X047909Y003722D02*
X047853Y003722D01*
X047853Y003881D02*
X047909Y003881D01*
X047909Y004040D02*
X047853Y004040D01*
X047503Y004040D02*
X047158Y004040D01*
X047316Y004198D02*
X053873Y004198D01*
X053873Y004040D02*
X050293Y004040D01*
X050407Y003881D02*
X050702Y003881D01*
X049518Y004040D02*
X048258Y004040D01*
X048417Y003881D02*
X049404Y003881D01*
X049351Y003722D02*
X048561Y003722D01*
X048561Y003564D02*
X049351Y003564D01*
X049404Y003405D02*
X048561Y003405D01*
X048561Y003247D02*
X049518Y003247D01*
X049805Y003088D02*
X048475Y003088D01*
X048317Y002930D02*
X049981Y002930D01*
X049813Y003080D02*
X049813Y003080D01*
X050645Y001867D02*
X050852Y001953D01*
X051300Y001953D01*
X051300Y001437D01*
X051396Y001437D01*
X051396Y001341D01*
X051921Y001341D01*
X051921Y001361D01*
X052820Y001361D01*
X052820Y001457D01*
X052296Y001457D01*
X052296Y001437D01*
X051396Y001437D01*
X051396Y001953D01*
X051844Y001953D01*
X052051Y001867D01*
X052098Y001820D01*
X052165Y001887D01*
X052372Y001973D01*
X052820Y001973D01*
X052820Y001457D01*
X052916Y001457D01*
X052916Y001973D01*
X053364Y001973D01*
X053572Y001887D01*
X053730Y001728D01*
X053816Y001521D01*
X053816Y001457D01*
X052916Y001457D01*
X052916Y001361D01*
X052820Y001361D01*
X052820Y000845D01*
X052372Y000845D01*
X052165Y000931D01*
X052118Y000978D01*
X052051Y000911D01*
X051844Y000825D01*
X051396Y000825D01*
X051396Y001341D01*
X051300Y001341D01*
X051300Y000825D01*
X050852Y000825D01*
X050645Y000911D01*
X050486Y001070D01*
X050400Y001277D01*
X050400Y001341D01*
X051300Y001341D01*
X051300Y001437D01*
X050400Y001437D01*
X050400Y001501D01*
X050486Y001709D01*
X050645Y001867D01*
X050597Y001820D02*
X044495Y001820D01*
X044499Y001661D02*
X050466Y001661D01*
X050401Y001503D02*
X044499Y001503D01*
X044444Y001344D02*
X051300Y001344D01*
X051318Y001393D02*
X051381Y001393D01*
X051396Y001409D01*
X052868Y001409D01*
X052916Y001361D02*
X052916Y000845D01*
X053364Y000845D01*
X053572Y000931D01*
X053730Y001089D01*
X053816Y001297D01*
X053816Y001361D01*
X052916Y001361D01*
X052916Y001344D02*
X052820Y001344D01*
X052820Y001186D02*
X052916Y001186D01*
X052916Y001027D02*
X052820Y001027D01*
X052820Y000869D02*
X052916Y000869D01*
X053422Y000869D02*
X054723Y000869D01*
X054723Y001027D02*
X053668Y001027D01*
X053770Y001186D02*
X054723Y001186D01*
X054723Y001344D02*
X053816Y001344D01*
X053816Y001503D02*
X054723Y001503D01*
X054723Y001661D02*
X053758Y001661D01*
X053638Y001820D02*
X054723Y001820D01*
X054723Y001979D02*
X044429Y001979D01*
X044379Y001186D02*
X050438Y001186D01*
X050528Y001027D02*
X044228Y001027D01*
X043971Y000869D02*
X050747Y000869D01*
X051300Y000869D02*
X051396Y000869D01*
X051396Y001027D02*
X051300Y001027D01*
X051300Y001186D02*
X051396Y001186D01*
X051396Y001344D02*
X051921Y001344D01*
X051396Y001503D02*
X051300Y001503D01*
X051300Y001661D02*
X051396Y001661D01*
X051396Y001820D02*
X051300Y001820D01*
X052820Y001820D02*
X052916Y001820D01*
X052916Y001661D02*
X052820Y001661D01*
X052820Y001503D02*
X052916Y001503D01*
X052315Y000869D02*
X051949Y000869D01*
X053765Y002137D02*
X054723Y002137D01*
X054723Y002296D02*
X053923Y002296D01*
X054082Y002454D02*
X054723Y002454D01*
X054723Y002613D02*
X054240Y002613D01*
X054399Y002771D02*
X054723Y002771D01*
X054723Y002930D02*
X054503Y002930D01*
X054513Y003088D02*
X054723Y003088D01*
X054723Y003247D02*
X054513Y003247D01*
X054513Y003405D02*
X054723Y003405D01*
X054723Y003564D02*
X054513Y003564D01*
X054513Y003722D02*
X054723Y003722D01*
X054723Y003881D02*
X054513Y003881D01*
X054513Y004040D02*
X054723Y004040D01*
X054723Y004198D02*
X054513Y004198D01*
X054513Y004357D02*
X054723Y004357D01*
X054723Y004515D02*
X054513Y004515D01*
X054513Y004674D02*
X054723Y004674D01*
X054723Y004832D02*
X054513Y004832D01*
X054513Y004991D02*
X054723Y004991D01*
X054723Y005149D02*
X054513Y005149D01*
X054513Y005308D02*
X054723Y005308D01*
X054723Y005466D02*
X054509Y005466D01*
X054414Y005625D02*
X054723Y005625D01*
X054723Y005784D02*
X054255Y005784D01*
X054097Y005942D02*
X054723Y005942D01*
X054723Y006101D02*
X054717Y006101D01*
X054167Y006101D02*
X054130Y006101D01*
X054130Y006259D02*
X054167Y006259D01*
X054167Y006418D02*
X054130Y006418D01*
X054130Y006485D02*
X054130Y006521D01*
X053375Y006521D01*
X053375Y006598D01*
X053447Y006773D01*
X053581Y006907D01*
X053757Y006980D01*
X054130Y006980D01*
X054130Y006522D01*
X054167Y006522D01*
X054167Y006980D01*
X054540Y006980D01*
X054715Y006907D01*
X054723Y006899D01*
X054723Y007861D01*
X054544Y007786D01*
X053753Y007786D01*
X053570Y007862D01*
X053509Y007923D01*
X053228Y007923D01*
X053228Y006213D01*
X053467Y006213D01*
X053447Y006233D01*
X053375Y006408D01*
X053375Y006485D01*
X054130Y006485D01*
X054130Y006576D02*
X054167Y006576D01*
X054167Y006735D02*
X054130Y006735D01*
X054130Y006893D02*
X054167Y006893D01*
X054723Y007052D02*
X053228Y007052D01*
X053228Y007210D02*
X054723Y007210D01*
X054723Y007369D02*
X053228Y007369D01*
X053228Y007528D02*
X054723Y007528D01*
X054723Y007686D02*
X053228Y007686D01*
X053228Y007845D02*
X053612Y007845D01*
X052508Y007845D02*
X052125Y007845D01*
X050835Y008479D02*
X047051Y008479D01*
X048341Y007845D02*
X049389Y007845D01*
X049351Y007686D02*
X048479Y007686D01*
X049978Y006735D02*
X050871Y006735D01*
X050815Y006576D02*
X048469Y006576D01*
X048307Y006418D02*
X048793Y006418D01*
X049243Y006418D02*
X050815Y006418D01*
X050876Y006259D02*
X049546Y006259D01*
X049751Y006101D02*
X051020Y006101D01*
X051570Y006101D02*
X051607Y006101D01*
X051607Y006259D02*
X051570Y006259D01*
X051570Y006418D02*
X051607Y006418D01*
X051607Y006576D02*
X051570Y006576D01*
X051570Y006735D02*
X051607Y006735D01*
X051607Y006893D02*
X051570Y006893D01*
X051007Y006893D02*
X050137Y006893D01*
X050109Y006866D02*
X050109Y006865D01*
X049909Y005942D02*
X052391Y005942D01*
X052397Y005784D02*
X050068Y005784D01*
X050226Y005625D02*
X052463Y005625D01*
X052651Y005466D02*
X050385Y005466D01*
X050544Y005308D02*
X052608Y005308D01*
X053085Y005466D02*
X053667Y005466D01*
X053826Y005308D02*
X053128Y005308D01*
X053287Y005149D02*
X053873Y005149D01*
X053873Y004991D02*
X053345Y004991D01*
X053436Y006259D02*
X053228Y006259D01*
X053228Y006418D02*
X053375Y006418D01*
X053375Y006576D02*
X053228Y006576D01*
X053228Y006735D02*
X053431Y006735D01*
X053567Y006893D02*
X053228Y006893D01*
X054685Y007845D02*
X054723Y007845D01*
X049480Y005466D02*
X047533Y005466D01*
X047533Y005308D02*
X049638Y005308D01*
X049797Y005149D02*
X047533Y005149D01*
X047533Y004991D02*
X049955Y004991D01*
X050114Y004832D02*
X047533Y004832D01*
X047533Y004674D02*
X050273Y004674D01*
X049006Y005956D02*
X049018Y005968D01*
X049018Y005968D01*
X045086Y007845D02*
X044694Y007845D01*
X044828Y008003D02*
X044536Y008003D01*
X044669Y008162D02*
X044377Y008162D01*
X044453Y008320D02*
X044511Y008320D01*
X043943Y008518D02*
X043943Y008831D01*
X043256Y009518D01*
X042818Y009518D01*
X042341Y009589D02*
X042295Y009589D01*
X042295Y009747D02*
X042341Y009747D01*
X042295Y009890D02*
X042295Y009146D01*
X042223Y008971D01*
X042089Y008836D01*
X041913Y008764D01*
X041723Y008764D01*
X041548Y008836D01*
X041414Y008971D01*
X041341Y009146D01*
X041341Y009890D01*
X041414Y010066D01*
X041498Y010150D01*
X041498Y010261D01*
X041414Y010346D01*
X041341Y010521D01*
X041341Y011265D01*
X041414Y011441D01*
X041548Y011575D01*
X041723Y011647D01*
X041913Y011647D01*
X042089Y011575D01*
X042223Y011441D01*
X042295Y011265D01*
X042295Y010521D01*
X042223Y010346D01*
X042138Y010261D01*
X042138Y010150D01*
X042223Y010066D01*
X042295Y009890D01*
X042289Y009906D02*
X042348Y009906D01*
X042413Y010064D02*
X042223Y010064D01*
X042138Y010223D02*
X042604Y010223D01*
X042545Y010381D02*
X042238Y010381D01*
X042295Y010540D02*
X042484Y010540D01*
X042484Y010698D02*
X042295Y010698D01*
X042295Y010857D02*
X042525Y010857D01*
X042615Y011015D02*
X042295Y011015D01*
X042295Y011174D02*
X042522Y011174D01*
X042364Y011333D02*
X042267Y011333D01*
X042205Y011491D02*
X042172Y011491D01*
X042047Y011650D02*
X032103Y011650D01*
X032104Y011808D02*
X041888Y011808D01*
X041730Y011967D02*
X032105Y011967D01*
X032106Y012125D02*
X041571Y012125D01*
X041498Y012284D02*
X032107Y012284D01*
X032108Y012442D02*
X041498Y012442D01*
X041498Y012601D02*
X032109Y012601D01*
X032110Y012759D02*
X032749Y012759D01*
X032943Y013018D02*
X034568Y013018D01*
X034818Y013268D01*
X034818Y013893D01*
X034341Y013869D02*
X034295Y013869D01*
X034295Y013711D02*
X034341Y013711D01*
X034341Y013552D02*
X034295Y013552D01*
X034243Y013394D02*
X034394Y013394D01*
X035138Y013235D02*
X035524Y013235D01*
X035394Y013394D02*
X035243Y013394D01*
X035295Y013552D02*
X035341Y013552D01*
X035341Y013711D02*
X035295Y013711D01*
X035295Y013869D02*
X035341Y013869D01*
X035341Y014028D02*
X035295Y014028D01*
X035295Y014186D02*
X035341Y014186D01*
X035374Y014345D02*
X035262Y014345D01*
X035160Y014503D02*
X035477Y014503D01*
X035498Y014662D02*
X033089Y014662D01*
X033152Y014503D02*
X033477Y014503D01*
X033374Y014345D02*
X033152Y014345D01*
X033115Y014186D02*
X033341Y014186D01*
X033341Y014028D02*
X033029Y014028D01*
X032918Y013869D02*
X033341Y013869D01*
X033341Y013711D02*
X033069Y013711D01*
X033134Y013552D02*
X033341Y013552D01*
X033394Y013394D02*
X033152Y013394D01*
X032943Y013018D02*
X032568Y013393D01*
X032218Y012918D02*
X032111Y012918D01*
X034295Y014028D02*
X034341Y014028D01*
X034341Y014186D02*
X034295Y014186D01*
X034262Y014345D02*
X034374Y014345D01*
X034477Y014503D02*
X034160Y014503D01*
X032966Y014821D02*
X035498Y014821D01*
X035405Y014979D02*
X032123Y014979D01*
X032122Y014821D02*
X032170Y014821D01*
X032124Y015138D02*
X035246Y015138D01*
X035088Y015296D02*
X032125Y015296D01*
X032126Y015455D02*
X034929Y015455D01*
X034771Y015613D02*
X032127Y015613D01*
X032128Y015772D02*
X034612Y015772D01*
X034453Y015930D02*
X032129Y015930D01*
X032130Y016089D02*
X034295Y016089D01*
X034136Y016247D02*
X032131Y016247D01*
X032132Y016406D02*
X033978Y016406D01*
X033819Y016564D02*
X032133Y016564D01*
X032134Y016723D02*
X033661Y016723D01*
X033502Y016882D02*
X032859Y016882D01*
X033041Y017040D02*
X033344Y017040D01*
X033932Y017357D02*
X036498Y017357D01*
X036498Y017199D02*
X034090Y017199D01*
X034249Y017040D02*
X036498Y017040D01*
X036498Y016882D02*
X034407Y016882D01*
X034566Y016723D02*
X036498Y016723D01*
X036498Y016564D02*
X034724Y016564D01*
X034883Y016406D02*
X036498Y016406D01*
X036498Y016247D02*
X035041Y016247D01*
X035200Y016089D02*
X036498Y016089D01*
X036498Y015930D02*
X035359Y015930D01*
X035517Y015772D02*
X036498Y015772D01*
X036498Y015613D02*
X035676Y015613D01*
X035834Y015455D02*
X036498Y015455D01*
X036498Y015296D02*
X035993Y015296D01*
X036115Y015138D02*
X036498Y015138D01*
X036498Y014979D02*
X036138Y014979D01*
X036138Y014821D02*
X036498Y014821D01*
X036498Y014662D02*
X036138Y014662D01*
X036160Y014503D02*
X036477Y014503D01*
X036374Y014345D02*
X036262Y014345D01*
X036295Y014186D02*
X036341Y014186D01*
X036341Y014028D02*
X036295Y014028D01*
X036295Y013869D02*
X036341Y013869D01*
X036341Y013711D02*
X036295Y013711D01*
X036295Y013552D02*
X036341Y013552D01*
X036394Y013394D02*
X036243Y013394D01*
X036112Y013235D02*
X036524Y013235D01*
X036818Y013893D02*
X036818Y018018D01*
X033443Y021393D01*
X032568Y021393D01*
X033005Y021004D02*
X033380Y021004D01*
X033539Y020845D02*
X032771Y020845D01*
X032365Y020845D02*
X032159Y020845D01*
X032158Y020687D02*
X033697Y020687D01*
X033856Y020528D02*
X032157Y020528D01*
X032156Y020370D02*
X034014Y020370D01*
X034173Y020211D02*
X032155Y020211D01*
X032154Y020052D02*
X034331Y020052D01*
X034490Y019894D02*
X032153Y019894D01*
X032152Y019735D02*
X034648Y019735D01*
X034807Y019577D02*
X032151Y019577D01*
X032151Y019418D02*
X034966Y019418D01*
X035124Y019260D02*
X032150Y019260D01*
X032149Y019101D02*
X035283Y019101D01*
X035441Y018943D02*
X032767Y018943D01*
X033003Y018784D02*
X035600Y018784D01*
X035758Y018626D02*
X033104Y018626D01*
X033152Y018467D02*
X035917Y018467D01*
X036075Y018308D02*
X033152Y018308D01*
X033100Y018150D02*
X036234Y018150D01*
X036392Y017991D02*
X032992Y017991D01*
X032954Y017833D02*
X036498Y017833D01*
X036498Y017674D02*
X033601Y017674D01*
X033773Y017516D02*
X036498Y017516D01*
X035818Y015018D02*
X033443Y017393D01*
X032568Y017393D01*
X032277Y016882D02*
X032135Y016882D01*
X032148Y018943D02*
X032369Y018943D01*
X039138Y018943D02*
X042018Y018943D01*
X041819Y018784D02*
X039138Y018784D01*
X039138Y018626D02*
X041661Y018626D01*
X041502Y018467D02*
X039138Y018467D01*
X039138Y018308D02*
X041344Y018308D01*
X041185Y018150D02*
X039138Y018150D01*
X039138Y017991D02*
X041027Y017991D01*
X040868Y017833D02*
X039138Y017833D01*
X039138Y017674D02*
X040709Y017674D01*
X040551Y017516D02*
X039138Y017516D01*
X039138Y017357D02*
X040392Y017357D01*
X040234Y017199D02*
X039138Y017199D01*
X039138Y017040D02*
X040075Y017040D01*
X039917Y016882D02*
X039138Y016882D01*
X039138Y016723D02*
X039758Y016723D01*
X039600Y016564D02*
X039138Y016564D01*
X039138Y016406D02*
X039503Y016406D01*
X039498Y016247D02*
X039138Y016247D01*
X039138Y016089D02*
X039498Y016089D01*
X039498Y015930D02*
X039138Y015930D01*
X039138Y015772D02*
X039498Y015772D01*
X039498Y015613D02*
X039138Y015613D01*
X039138Y015455D02*
X039498Y015455D01*
X039498Y015296D02*
X039138Y015296D01*
X039138Y015138D02*
X039498Y015138D01*
X039498Y014979D02*
X039138Y014979D01*
X039138Y014821D02*
X039498Y014821D01*
X039498Y014662D02*
X039138Y014662D01*
X039160Y014503D02*
X039477Y014503D01*
X039374Y014345D02*
X039262Y014345D01*
X039295Y014186D02*
X039341Y014186D01*
X039341Y014028D02*
X039295Y014028D01*
X039295Y013869D02*
X039341Y013869D01*
X039341Y013711D02*
X039295Y013711D01*
X039295Y013552D02*
X039341Y013552D01*
X039394Y013394D02*
X039243Y013394D01*
X039112Y013235D02*
X039524Y013235D01*
X040112Y013235D02*
X040524Y013235D01*
X040394Y013394D02*
X040243Y013394D01*
X040295Y013552D02*
X040341Y013552D01*
X040341Y013711D02*
X040295Y013711D01*
X040295Y013869D02*
X040341Y013869D01*
X040341Y014028D02*
X040295Y014028D01*
X040295Y014186D02*
X040341Y014186D01*
X040374Y014345D02*
X040262Y014345D01*
X040160Y014503D02*
X040477Y014503D01*
X040498Y014662D02*
X040138Y014662D01*
X040138Y014821D02*
X040498Y014821D01*
X040498Y014979D02*
X040138Y014979D01*
X040138Y015138D02*
X040521Y015138D01*
X040644Y015296D02*
X040138Y015296D01*
X040138Y015455D02*
X040802Y015455D01*
X040961Y015613D02*
X040138Y015613D01*
X040138Y015772D02*
X043443Y015772D01*
X043443Y015930D02*
X040138Y015930D01*
X040138Y016089D02*
X043443Y016089D01*
X043443Y016247D02*
X040188Y016247D01*
X040346Y016406D02*
X043443Y016406D01*
X043443Y016564D02*
X040505Y016564D01*
X040663Y016723D02*
X043443Y016723D01*
X043443Y016882D02*
X040822Y016882D01*
X040980Y017040D02*
X043443Y017040D01*
X042687Y017199D02*
X041139Y017199D01*
X041297Y017357D02*
X042555Y017357D01*
X042489Y017516D02*
X041456Y017516D01*
X041615Y017674D02*
X042484Y017674D01*
X042515Y017833D02*
X041773Y017833D01*
X041932Y017991D02*
X042591Y017991D01*
X042736Y018150D02*
X042090Y018150D01*
X042249Y018308D02*
X042577Y018308D01*
X042131Y018643D02*
X043068Y018643D01*
X042131Y018643D02*
X039818Y016331D01*
X039818Y013893D01*
X040818Y013893D02*
X040818Y015018D01*
X041193Y015393D01*
X042318Y015393D01*
X043068Y014643D01*
X042484Y014662D02*
X041138Y014662D01*
X041138Y014821D02*
X042438Y014821D01*
X042280Y014979D02*
X041232Y014979D01*
X041160Y014503D02*
X041477Y014503D01*
X041374Y014345D02*
X041262Y014345D01*
X041295Y014186D02*
X041341Y014186D01*
X041341Y014028D02*
X041295Y014028D01*
X041295Y013869D02*
X041341Y013869D01*
X041341Y013711D02*
X041295Y013711D01*
X041295Y013552D02*
X041341Y013552D01*
X041394Y013394D02*
X041243Y013394D01*
X041112Y013235D02*
X041498Y013235D01*
X041498Y013077D02*
X035079Y013077D01*
X034921Y012918D02*
X041498Y012918D01*
X041498Y012759D02*
X034762Y012759D01*
X034723Y011647D02*
X034913Y011647D01*
X035089Y011575D01*
X035223Y011441D01*
X035295Y011265D01*
X035295Y010521D01*
X035223Y010346D01*
X035138Y010261D01*
X035138Y010150D01*
X035223Y010066D01*
X035295Y009890D01*
X035295Y009146D01*
X035223Y008971D01*
X035089Y008836D01*
X034913Y008764D01*
X034723Y008764D01*
X034548Y008836D01*
X034414Y008971D01*
X034341Y009146D01*
X034341Y009890D01*
X034414Y010066D01*
X034498Y010150D01*
X034498Y010261D01*
X034414Y010346D01*
X034341Y010521D01*
X034341Y011265D01*
X034414Y011441D01*
X034548Y011575D01*
X034723Y011647D01*
X034464Y011491D02*
X034144Y011491D01*
X034206Y011429D02*
X034275Y011261D01*
X034275Y010902D01*
X033827Y010902D01*
X033827Y011627D01*
X033909Y011627D01*
X034077Y011558D01*
X034206Y011429D01*
X034246Y011333D02*
X034369Y011333D01*
X034341Y011174D02*
X034275Y011174D01*
X034275Y011015D02*
X034341Y011015D01*
X034275Y010884D02*
X034275Y010525D01*
X034206Y010357D01*
X034077Y010228D01*
X034022Y010206D01*
X034077Y010183D01*
X034206Y010054D01*
X034275Y009886D01*
X034275Y009527D01*
X033827Y009527D01*
X033827Y010252D01*
X033827Y010884D01*
X033810Y010884D01*
X033810Y010159D01*
X033810Y009527D01*
X033827Y009527D01*
X033827Y009509D01*
X033810Y009509D01*
X033810Y008784D01*
X033727Y008784D01*
X033559Y008853D01*
X033431Y008982D01*
X033361Y009150D01*
X033361Y009509D01*
X033809Y009509D01*
X033809Y009527D01*
X033361Y009527D01*
X033361Y009886D01*
X033431Y010054D01*
X033559Y010183D01*
X033614Y010206D01*
X033559Y010228D01*
X033431Y010357D01*
X033361Y010525D01*
X033361Y010884D01*
X033809Y010884D01*
X033809Y010902D01*
X033361Y010902D01*
X033361Y011261D01*
X033431Y011429D01*
X033559Y011558D01*
X033727Y011627D01*
X033810Y011627D01*
X033810Y010902D01*
X033827Y010902D01*
X033827Y010884D01*
X034275Y010884D01*
X034275Y010857D02*
X034341Y010857D01*
X034341Y010698D02*
X034275Y010698D01*
X034275Y010540D02*
X034341Y010540D01*
X034399Y010381D02*
X034216Y010381D01*
X034064Y010223D02*
X034498Y010223D01*
X034413Y010064D02*
X034196Y010064D01*
X034267Y009906D02*
X034348Y009906D01*
X034341Y009747D02*
X034275Y009747D01*
X034275Y009589D02*
X034341Y009589D01*
X034275Y009509D02*
X034275Y009150D01*
X034206Y008982D01*
X034077Y008853D01*
X033909Y008784D01*
X033827Y008784D01*
X033827Y009509D01*
X034275Y009509D01*
X034275Y009430D02*
X034341Y009430D01*
X034341Y009271D02*
X034275Y009271D01*
X034260Y009113D02*
X034355Y009113D01*
X034430Y008954D02*
X034178Y008954D01*
X033939Y008796D02*
X034646Y008796D01*
X034991Y008796D02*
X035646Y008796D01*
X035723Y008764D02*
X035548Y008836D01*
X035414Y008971D01*
X035341Y009146D01*
X035341Y009890D01*
X035414Y010066D01*
X035498Y010150D01*
X035498Y010261D01*
X035414Y010346D01*
X035341Y010521D01*
X035341Y011265D01*
X035414Y011441D01*
X035548Y011575D01*
X035723Y011647D01*
X035913Y011647D01*
X036089Y011575D01*
X036223Y011441D01*
X036295Y011265D01*
X036295Y010521D01*
X036223Y010346D01*
X036138Y010261D01*
X036138Y010150D01*
X036223Y010066D01*
X036295Y009890D01*
X036295Y009146D01*
X036223Y008971D01*
X036089Y008836D01*
X035913Y008764D01*
X035723Y008764D01*
X035991Y008796D02*
X036646Y008796D01*
X036723Y008764D02*
X036548Y008836D01*
X036414Y008971D01*
X036341Y009146D01*
X036341Y009890D01*
X036414Y010066D01*
X036498Y010150D01*
X036498Y010261D01*
X036414Y010346D01*
X036341Y010521D01*
X036341Y011265D01*
X036414Y011441D01*
X036548Y011575D01*
X036723Y011647D01*
X036913Y011647D01*
X037089Y011575D01*
X037223Y011441D01*
X037295Y011265D01*
X037295Y010521D01*
X037223Y010346D01*
X037138Y010261D01*
X037138Y010150D01*
X037223Y010066D01*
X037295Y009890D01*
X037295Y009146D01*
X037223Y008971D01*
X037089Y008836D01*
X036913Y008764D01*
X036723Y008764D01*
X036991Y008796D02*
X037646Y008796D01*
X037723Y008764D02*
X037548Y008836D01*
X037414Y008971D01*
X037341Y009146D01*
X037341Y009890D01*
X037414Y010066D01*
X037498Y010150D01*
X037498Y010261D01*
X037414Y010346D01*
X037341Y010521D01*
X037341Y011265D01*
X037414Y011441D01*
X037548Y011575D01*
X037723Y011647D01*
X037913Y011647D01*
X038089Y011575D01*
X038223Y011441D01*
X038295Y011265D01*
X038295Y010521D01*
X038223Y010346D01*
X038138Y010261D01*
X038138Y010150D01*
X038223Y010066D01*
X038295Y009890D01*
X038295Y009146D01*
X038223Y008971D01*
X038089Y008836D01*
X037913Y008764D01*
X037723Y008764D01*
X037991Y008796D02*
X038646Y008796D01*
X038723Y008764D02*
X038548Y008836D01*
X038414Y008971D01*
X038341Y009146D01*
X038341Y009890D01*
X038414Y010066D01*
X038498Y010150D01*
X038498Y010261D01*
X038414Y010346D01*
X038341Y010521D01*
X038341Y011265D01*
X038414Y011441D01*
X038548Y011575D01*
X038723Y011647D01*
X038913Y011647D01*
X039089Y011575D01*
X039223Y011441D01*
X039295Y011265D01*
X039295Y010521D01*
X039223Y010346D01*
X039138Y010261D01*
X039138Y010150D01*
X039223Y010066D01*
X039295Y009890D01*
X039295Y009146D01*
X039223Y008971D01*
X039089Y008836D01*
X038913Y008764D01*
X038723Y008764D01*
X038991Y008796D02*
X039646Y008796D01*
X039723Y008764D02*
X039548Y008836D01*
X039414Y008971D01*
X039341Y009146D01*
X039341Y009890D01*
X039414Y010066D01*
X039498Y010150D01*
X039498Y010261D01*
X039414Y010346D01*
X039341Y010521D01*
X039341Y011265D01*
X039414Y011441D01*
X039548Y011575D01*
X039723Y011647D01*
X039913Y011647D01*
X040089Y011575D01*
X040223Y011441D01*
X040295Y011265D01*
X040295Y010521D01*
X040223Y010346D01*
X040138Y010261D01*
X040138Y010150D01*
X040223Y010066D01*
X040295Y009890D01*
X040295Y009146D01*
X040223Y008971D01*
X040089Y008836D01*
X039913Y008764D01*
X039723Y008764D01*
X039991Y008796D02*
X040646Y008796D01*
X040723Y008764D02*
X040548Y008836D01*
X040414Y008971D01*
X040341Y009146D01*
X040341Y009890D01*
X040414Y010066D01*
X040498Y010150D01*
X040498Y010261D01*
X040414Y010346D01*
X040341Y010521D01*
X040341Y011265D01*
X040414Y011441D01*
X040548Y011575D01*
X040723Y011647D01*
X040913Y011647D01*
X041089Y011575D01*
X041223Y011441D01*
X041295Y011265D01*
X041295Y010521D01*
X041223Y010346D01*
X041138Y010261D01*
X041138Y010150D01*
X041223Y010066D01*
X041295Y009890D01*
X041295Y009146D01*
X041223Y008971D01*
X041089Y008836D01*
X040913Y008764D01*
X040723Y008764D01*
X040991Y008796D02*
X041646Y008796D01*
X041430Y008954D02*
X041207Y008954D01*
X041282Y009113D02*
X041355Y009113D01*
X041341Y009271D02*
X041295Y009271D01*
X041295Y009430D02*
X041341Y009430D01*
X041341Y009589D02*
X041295Y009589D01*
X041295Y009747D02*
X041341Y009747D01*
X041348Y009906D02*
X041289Y009906D01*
X041223Y010064D02*
X041413Y010064D01*
X041498Y010223D02*
X041138Y010223D01*
X041238Y010381D02*
X041399Y010381D01*
X041341Y010540D02*
X041295Y010540D01*
X041295Y010698D02*
X041341Y010698D01*
X041341Y010857D02*
X041295Y010857D01*
X041295Y011015D02*
X041341Y011015D01*
X041341Y011174D02*
X041295Y011174D01*
X041267Y011333D02*
X041369Y011333D01*
X041464Y011491D02*
X041172Y011491D01*
X040464Y011491D02*
X040172Y011491D01*
X040267Y011333D02*
X040369Y011333D01*
X040341Y011174D02*
X040295Y011174D01*
X040295Y011015D02*
X040341Y011015D01*
X040341Y010857D02*
X040295Y010857D01*
X040295Y010698D02*
X040341Y010698D01*
X040341Y010540D02*
X040295Y010540D01*
X040238Y010381D02*
X040399Y010381D01*
X040498Y010223D02*
X040138Y010223D01*
X040223Y010064D02*
X040413Y010064D01*
X040348Y009906D02*
X040289Y009906D01*
X040295Y009747D02*
X040341Y009747D01*
X040341Y009589D02*
X040295Y009589D01*
X040295Y009430D02*
X040341Y009430D01*
X040341Y009271D02*
X040295Y009271D01*
X040282Y009113D02*
X040355Y009113D01*
X040430Y008954D02*
X040207Y008954D01*
X039430Y008954D02*
X039207Y008954D01*
X039282Y009113D02*
X039355Y009113D01*
X039341Y009271D02*
X039295Y009271D01*
X039295Y009430D02*
X039341Y009430D01*
X039341Y009589D02*
X039295Y009589D01*
X039295Y009747D02*
X039341Y009747D01*
X039348Y009906D02*
X039289Y009906D01*
X039223Y010064D02*
X039413Y010064D01*
X039498Y010223D02*
X039138Y010223D01*
X039238Y010381D02*
X039399Y010381D01*
X039341Y010540D02*
X039295Y010540D01*
X039295Y010698D02*
X039341Y010698D01*
X039341Y010857D02*
X039295Y010857D01*
X039295Y011015D02*
X039341Y011015D01*
X039341Y011174D02*
X039295Y011174D01*
X039267Y011333D02*
X039369Y011333D01*
X039464Y011491D02*
X039172Y011491D01*
X038818Y010893D02*
X038818Y009518D01*
X038341Y009589D02*
X038295Y009589D01*
X038295Y009747D02*
X038341Y009747D01*
X038348Y009906D02*
X038289Y009906D01*
X038223Y010064D02*
X038413Y010064D01*
X038498Y010223D02*
X038138Y010223D01*
X038238Y010381D02*
X038399Y010381D01*
X038341Y010540D02*
X038295Y010540D01*
X038295Y010698D02*
X038341Y010698D01*
X038341Y010857D02*
X038295Y010857D01*
X038295Y011015D02*
X038341Y011015D01*
X038341Y011174D02*
X038295Y011174D01*
X038267Y011333D02*
X038369Y011333D01*
X038464Y011491D02*
X038172Y011491D01*
X037464Y011491D02*
X037172Y011491D01*
X037267Y011333D02*
X037369Y011333D01*
X037341Y011174D02*
X037295Y011174D01*
X037295Y011015D02*
X037341Y011015D01*
X037341Y010857D02*
X037295Y010857D01*
X037295Y010698D02*
X037341Y010698D01*
X037341Y010540D02*
X037295Y010540D01*
X037238Y010381D02*
X037399Y010381D01*
X037498Y010223D02*
X037138Y010223D01*
X037223Y010064D02*
X037413Y010064D01*
X037348Y009906D02*
X037289Y009906D01*
X037295Y009747D02*
X037341Y009747D01*
X037341Y009589D02*
X037295Y009589D01*
X037295Y009430D02*
X037341Y009430D01*
X037341Y009271D02*
X037295Y009271D01*
X037282Y009113D02*
X037355Y009113D01*
X037430Y008954D02*
X037207Y008954D01*
X036430Y008954D02*
X036207Y008954D01*
X036282Y009113D02*
X036355Y009113D01*
X036341Y009271D02*
X036295Y009271D01*
X036295Y009430D02*
X036341Y009430D01*
X036341Y009589D02*
X036295Y009589D01*
X036295Y009747D02*
X036341Y009747D01*
X036348Y009906D02*
X036289Y009906D01*
X036223Y010064D02*
X036413Y010064D01*
X036498Y010223D02*
X036138Y010223D01*
X036238Y010381D02*
X036399Y010381D01*
X036341Y010540D02*
X036295Y010540D01*
X036295Y010698D02*
X036341Y010698D01*
X036341Y010857D02*
X036295Y010857D01*
X036295Y011015D02*
X036341Y011015D01*
X036341Y011174D02*
X036295Y011174D01*
X036267Y011333D02*
X036369Y011333D01*
X036464Y011491D02*
X036172Y011491D01*
X035818Y010893D02*
X035818Y009518D01*
X035341Y009589D02*
X035295Y009589D01*
X035295Y009747D02*
X035341Y009747D01*
X035348Y009906D02*
X035289Y009906D01*
X035223Y010064D02*
X035413Y010064D01*
X035498Y010223D02*
X035138Y010223D01*
X035238Y010381D02*
X035399Y010381D01*
X035341Y010540D02*
X035295Y010540D01*
X035295Y010698D02*
X035341Y010698D01*
X035341Y010857D02*
X035295Y010857D01*
X035295Y011015D02*
X035341Y011015D01*
X035341Y011174D02*
X035295Y011174D01*
X035267Y011333D02*
X035369Y011333D01*
X035464Y011491D02*
X035172Y011491D01*
X034818Y010893D02*
X034818Y009518D01*
X035295Y009430D02*
X035341Y009430D01*
X035341Y009271D02*
X035295Y009271D01*
X035282Y009113D02*
X035355Y009113D01*
X035430Y008954D02*
X035207Y008954D01*
X034160Y008637D02*
X032084Y008637D01*
X032083Y008479D02*
X033951Y008479D01*
X033793Y008320D02*
X032082Y008320D01*
X032081Y008162D02*
X033634Y008162D01*
X033476Y008003D02*
X032080Y008003D01*
X032080Y007845D02*
X033317Y007845D01*
X033159Y007686D02*
X032079Y007686D01*
X032078Y007528D02*
X033000Y007528D01*
X032936Y007369D02*
X032077Y007369D01*
X032076Y007210D02*
X032936Y007210D01*
X032936Y007052D02*
X032075Y007052D01*
X032074Y006893D02*
X032936Y006893D01*
X032936Y006735D02*
X032073Y006735D01*
X032072Y006576D02*
X032936Y006576D01*
X032936Y006418D02*
X032071Y006418D01*
X032070Y006259D02*
X032936Y006259D01*
X032936Y006101D02*
X032069Y006101D01*
X032936Y005942D02*
X024042Y005942D01*
X024282Y005784D02*
X032981Y005784D01*
X033134Y005625D02*
X024384Y005625D01*
X024434Y005466D02*
X033292Y005466D01*
X033451Y005308D02*
X025123Y005308D01*
X025237Y004357D02*
X026554Y004357D01*
X027082Y004357D02*
X027804Y004357D01*
X027646Y004515D02*
X027241Y004515D01*
X027296Y004674D02*
X027591Y004674D01*
X027591Y004832D02*
X027296Y004832D01*
X027271Y004991D02*
X027616Y004991D01*
X027774Y005149D02*
X027112Y005149D01*
X028332Y004357D02*
X032664Y004357D01*
X033311Y004198D02*
X023760Y004198D01*
X023690Y004040D02*
X033290Y004040D01*
X033550Y004040D02*
X033587Y004040D01*
X033587Y003881D02*
X033550Y003881D01*
X033550Y003722D02*
X033587Y003722D01*
X033587Y003564D02*
X033550Y003564D01*
X033550Y003405D02*
X033587Y003405D01*
X033587Y003247D02*
X033550Y003247D01*
X033290Y003247D02*
X025219Y003247D01*
X022655Y004991D02*
X021318Y004991D01*
X021318Y005149D02*
X022550Y005149D01*
X022498Y005308D02*
X021318Y005308D01*
X021318Y005466D02*
X022498Y005466D01*
X022547Y005625D02*
X021318Y005625D01*
X021318Y005784D02*
X022650Y005784D01*
X022889Y005942D02*
X021318Y005942D01*
X021318Y004832D02*
X022064Y004832D01*
X021925Y004674D02*
X021318Y004674D01*
X021318Y004515D02*
X021860Y004515D01*
X021851Y004357D02*
X021318Y004357D01*
X021318Y004198D02*
X021877Y004198D01*
X021946Y004040D02*
X021318Y004040D01*
X021318Y003881D02*
X022107Y003881D01*
X021999Y002771D02*
X021318Y002771D01*
X021318Y002613D02*
X021909Y002613D01*
X032943Y005149D02*
X033609Y005149D01*
X035193Y005268D02*
X035943Y005268D01*
X037068Y004143D02*
X036568Y003643D01*
X035193Y002518D02*
X034568Y003143D01*
X034568Y003643D01*
X040568Y003643D02*
X041068Y004143D01*
X041068Y005018D01*
X042138Y005784D02*
X042676Y005784D01*
X042442Y005942D02*
X042194Y005942D01*
X042277Y006101D02*
X042360Y006101D01*
X042341Y006259D02*
X042295Y006259D01*
X042295Y006418D02*
X042341Y006418D01*
X042341Y006576D02*
X042295Y006576D01*
X042295Y006735D02*
X042341Y006735D01*
X042342Y006893D02*
X042294Y006893D01*
X042228Y007052D02*
X042408Y007052D01*
X042423Y007210D02*
X042063Y007210D01*
X041574Y007210D02*
X041063Y007210D01*
X041228Y007052D02*
X041408Y007052D01*
X041342Y006893D02*
X041294Y006893D01*
X041295Y006735D02*
X041341Y006735D01*
X040574Y007210D02*
X040063Y007210D01*
X040228Y007052D02*
X040408Y007052D01*
X040342Y006893D02*
X040294Y006893D01*
X040295Y006735D02*
X040341Y006735D01*
X039574Y007210D02*
X039063Y007210D01*
X039228Y007052D02*
X039408Y007052D01*
X039342Y006893D02*
X039294Y006893D01*
X039295Y006735D02*
X039341Y006735D01*
X042443Y007643D02*
X042818Y007268D01*
X042818Y006518D01*
X043067Y008011D02*
X043067Y008011D01*
X043662Y008003D02*
X034381Y008003D01*
X034442Y007845D02*
X034222Y007845D01*
X034284Y007686D02*
X034064Y007686D01*
X034125Y007528D02*
X033905Y007528D01*
X034014Y007369D02*
X033747Y007369D01*
X033810Y007210D02*
X033827Y007210D01*
X033827Y007052D02*
X033810Y007052D01*
X033827Y006893D02*
X033810Y006893D01*
X033827Y006735D02*
X033810Y006735D01*
X033827Y006576D02*
X033810Y006576D01*
X033626Y007210D02*
X033588Y007210D01*
X033698Y008796D02*
X032085Y008796D01*
X032086Y008954D02*
X033458Y008954D01*
X033376Y009113D02*
X032087Y009113D01*
X032088Y009271D02*
X033361Y009271D01*
X033361Y009430D02*
X032089Y009430D01*
X032090Y009589D02*
X033361Y009589D01*
X033361Y009747D02*
X032091Y009747D01*
X032092Y009906D02*
X032230Y009906D01*
X032907Y009906D02*
X033369Y009906D01*
X033441Y010064D02*
X033064Y010064D01*
X033130Y010223D02*
X033573Y010223D01*
X033421Y010381D02*
X033152Y010381D01*
X033139Y010540D02*
X033361Y010540D01*
X033361Y010698D02*
X033074Y010698D01*
X032930Y010857D02*
X033361Y010857D01*
X033361Y011015D02*
X032099Y011015D01*
X032098Y010857D02*
X032206Y010857D01*
X032100Y011174D02*
X033361Y011174D01*
X033391Y011333D02*
X032101Y011333D01*
X032102Y011491D02*
X033493Y011491D01*
X033810Y011491D02*
X033827Y011491D01*
X033827Y011333D02*
X033810Y011333D01*
X033827Y011174D02*
X033810Y011174D01*
X033827Y011015D02*
X033810Y011015D01*
X033827Y010857D02*
X033810Y010857D01*
X033827Y010698D02*
X033810Y010698D01*
X033827Y010540D02*
X033810Y010540D01*
X033827Y010381D02*
X033810Y010381D01*
X033827Y010223D02*
X033810Y010223D01*
X033827Y010064D02*
X033810Y010064D01*
X033827Y009906D02*
X033810Y009906D01*
X033827Y009747D02*
X033810Y009747D01*
X033827Y009589D02*
X033810Y009589D01*
X033827Y009430D02*
X033810Y009430D01*
X033827Y009271D02*
X033810Y009271D01*
X033827Y009113D02*
X033810Y009113D01*
X033827Y008954D02*
X033810Y008954D01*
X033827Y008796D02*
X033810Y008796D01*
X036818Y009518D02*
X036818Y010893D01*
X037818Y010893D02*
X037818Y009518D01*
X038295Y009430D02*
X038341Y009430D01*
X038341Y009271D02*
X038295Y009271D01*
X038282Y009113D02*
X038355Y009113D01*
X038430Y008954D02*
X038207Y008954D01*
X039818Y009518D02*
X039818Y010893D01*
X040818Y010893D02*
X040818Y009518D01*
X041818Y009518D02*
X041818Y010893D01*
X043068Y011081D02*
X043068Y010643D01*
X043068Y011081D02*
X041818Y012331D01*
X041818Y013893D01*
X042295Y013869D02*
X042530Y013869D01*
X042484Y013711D02*
X042295Y013711D01*
X042295Y013552D02*
X042484Y013552D01*
X042540Y013394D02*
X042243Y013394D01*
X042138Y013235D02*
X042578Y013235D01*
X042578Y013077D02*
X042138Y013077D01*
X042138Y012918D02*
X042578Y012918D01*
X042578Y012759D02*
X042138Y012759D01*
X042138Y012601D02*
X042578Y012601D01*
X042578Y012442D02*
X042159Y012442D01*
X042318Y012284D02*
X042578Y012284D01*
X042578Y012125D02*
X042476Y012125D01*
X042627Y014028D02*
X042295Y014028D01*
X042295Y014186D02*
X042699Y014186D01*
X042560Y014345D02*
X042262Y014345D01*
X042160Y014503D02*
X042494Y014503D01*
X043399Y015138D02*
X043443Y015138D01*
X043443Y015296D02*
X042868Y015296D01*
X042709Y015455D02*
X043443Y015455D01*
X043443Y015613D02*
X042551Y015613D01*
X035818Y015018D02*
X035818Y013893D01*
X042295Y009430D02*
X042341Y009430D01*
X042341Y009271D02*
X042295Y009271D01*
X042282Y009113D02*
X042355Y009113D01*
X042430Y008954D02*
X042207Y008954D01*
X041991Y008796D02*
X042646Y008796D01*
X042991Y008796D02*
X043403Y008796D01*
X043367Y008954D02*
X043207Y008954D01*
X043131Y008331D02*
X043131Y008331D01*
X042104Y003881D02*
X042033Y003881D01*
X042065Y003722D02*
X042071Y003722D01*
X042071Y003564D02*
X042065Y003564D01*
X044518Y002771D02*
X045704Y002771D01*
X046486Y003088D02*
X047286Y003088D01*
X047201Y003247D02*
X046552Y003247D01*
X046581Y003405D02*
X047201Y003405D01*
X047201Y003564D02*
X046682Y003564D01*
X046841Y003722D02*
X047201Y003722D01*
X047345Y003881D02*
X046999Y003881D01*
D25*
X024462Y004791D02*
X024131Y004791D01*
X024046Y004791D01*
X023443Y005393D01*
X023443Y005390D01*
X023466Y005390D01*
X023568Y003143D02*
X023889Y002822D01*
X024462Y002822D01*
X023818Y002831D02*
X023506Y002831D01*
X023466Y003041D02*
X023466Y003126D01*
X023568Y003126D01*
X023568Y003143D01*
D26*
X051348Y003358D02*
X051408Y003358D01*
X051443Y003393D01*
X051318Y001393D02*
X051322Y001389D01*
X051348Y001389D01*
X052868Y005893D02*
X052868Y008283D01*
X051583Y008283D01*
X051568Y008268D01*
X051568Y008283D01*
X051583Y008283D01*
X051588Y008283D01*
X052868Y008283D02*
X054148Y008283D01*
D27*
X049006Y005081D03*
X030443Y005581D03*
X028068Y004768D03*
X026818Y004768D03*
X026693Y002893D03*
D28*
X026568Y002768D01*
X024443Y002768D01*
X024443Y002804D01*
X024462Y002822D01*
X023506Y002831D02*
X023506Y002831D01*
X023084Y002409D01*
X022818Y002409D01*
X022818Y004377D02*
X023365Y004377D01*
X023756Y004768D01*
X024131Y004768D01*
X024131Y004791D01*
X024462Y004791D02*
X026796Y004791D01*
X026818Y004768D01*
X028068Y004768D02*
X032818Y004768D01*
X032943Y004643D01*
X033568Y004643D01*
X035568Y003643D02*
X035568Y003268D01*
X035818Y003018D01*
X043318Y003018D01*
X046068Y005768D01*
X046068Y007143D01*
X046043Y007143D01*
X052868Y003381D02*
X052868Y003377D01*
X052868Y003381D02*
X052881Y003393D01*
D29*
X046193Y003768D02*
X045881Y003456D01*
D30*
X046193Y003768D02*
X047043Y004618D01*
X047043Y007143D01*
X047043Y007793D01*
X046506Y008331D01*
X045193Y008331D01*
X043881Y009643D01*
X043881Y011018D01*
X043068Y011831D01*
X043068Y013643D01*
X049906Y007643D02*
X049906Y007356D01*
X049693Y007143D01*
X048043Y007143D01*
X049906Y003643D02*
X049943Y003643D01*
X050229Y003358D01*
X051348Y003358D01*
X051443Y003393D02*
X052881Y003393D01*
M02*
