G75*
G70*
%OFA0B0*%
%FSLAX24Y24*%
%IPPOS*%
%LPD*%
%AMOC8*
5,1,8,0,0,1.08239X$1,22.5*
%
%ADD10C,0.0000*%
%ADD11C,0.0030*%
%ADD12R,0.0014X0.0002*%
%ADD13R,0.0032X0.0002*%
%ADD14R,0.0036X0.0002*%
%ADD15R,0.0042X0.0002*%
%ADD16R,0.0044X0.0002*%
%ADD17R,0.0046X0.0002*%
%ADD18R,0.0026X0.0002*%
%ADD19R,0.0026X0.0002*%
%ADD20R,0.0024X0.0002*%
%ADD21R,0.0024X0.0002*%
%ADD22R,0.0024X0.0002*%
%ADD23R,0.0020X0.0002*%
%ADD24R,0.0028X0.0002*%
%ADD25R,0.0026X0.0002*%
%ADD26R,0.0028X0.0002*%
%ADD27R,0.0024X0.0002*%
%ADD28R,0.0044X0.0002*%
%ADD29R,0.0034X0.0002*%
%ADD30R,0.0022X0.0002*%
%ADD31R,0.0022X0.0002*%
%ADD32R,0.0036X0.0002*%
%ADD33R,0.0048X0.0002*%
%ADD34R,0.0048X0.0002*%
%ADD35R,0.0034X0.0002*%
%ADD36R,0.0052X0.0002*%
%ADD37R,0.0042X0.0002*%
%ADD38R,0.0054X0.0002*%
%ADD39R,0.0060X0.0002*%
%ADD40R,0.0030X0.0002*%
%ADD41R,0.0058X0.0002*%
%ADD42R,0.0038X0.0002*%
%ADD43R,0.0076X0.0002*%
%ADD44R,0.0050X0.0002*%
%ADD45R,0.0062X0.0002*%
%ADD46R,0.0076X0.0002*%
%ADD47R,0.0038X0.0002*%
%ADD48R,0.0066X0.0002*%
%ADD49R,0.0032X0.0002*%
%ADD50R,0.0040X0.0002*%
%ADD51R,0.0066X0.0002*%
%ADD52R,0.0078X0.0002*%
%ADD53R,0.0068X0.0002*%
%ADD54R,0.0072X0.0002*%
%ADD55R,0.0070X0.0002*%
%ADD56R,0.0070X0.0002*%
%ADD57R,0.0032X0.0002*%
%ADD58R,0.0038X0.0002*%
%ADD59R,0.0078X0.0002*%
%ADD60R,0.0040X0.0002*%
%ADD61R,0.0074X0.0002*%
%ADD62R,0.0022X0.0002*%
%ADD63R,0.0030X0.0002*%
%ADD64R,0.0074X0.0002*%
%ADD65R,0.0076X0.0002*%
%ADD66R,0.0028X0.0002*%
%ADD67R,0.0028X0.0002*%
%ADD68R,0.0006X0.0002*%
%ADD69R,0.0004X0.0002*%
%ADD70R,0.0032X0.0002*%
%ADD71R,0.0004X0.0002*%
%ADD72R,0.0008X0.0002*%
%ADD73R,0.0022X0.0002*%
%ADD74R,0.0082X0.0002*%
%ADD75R,0.0082X0.0002*%
%ADD76R,0.0084X0.0002*%
%ADD77R,0.0064X0.0002*%
%ADD78R,0.0082X0.0002*%
%ADD79R,0.0082X0.0002*%
%ADD80R,0.0064X0.0002*%
%ADD81R,0.0064X0.0002*%
%ADD82R,0.0056X0.0002*%
%ADD83R,0.0056X0.0002*%
%ADD84R,0.0062X0.0002*%
%ADD85R,0.0054X0.0002*%
%ADD86R,0.0006X0.0002*%
%ADD87R,0.0026X0.0002*%
%ADD88R,0.0004X0.0002*%
%ADD89R,0.0014X0.0002*%
%ADD90R,0.0008X0.0002*%
%ADD91R,0.0072X0.0002*%
%ADD92R,0.0128X0.0002*%
%ADD93R,0.0080X0.0002*%
%ADD94R,0.0130X0.0002*%
%ADD95R,0.0054X0.0002*%
%ADD96R,0.0056X0.0002*%
%ADD97R,0.0060X0.0002*%
%ADD98R,0.0066X0.0002*%
%ADD99R,0.0052X0.0002*%
%ADD100R,0.0050X0.0002*%
%ADD101R,0.0068X0.0002*%
%ADD102R,0.0066X0.0002*%
%ADD103R,0.0046X0.0002*%
%ADD104R,0.0020X0.0002*%
%ADD105R,0.0002X0.0002*%
%ADD106R,0.0002X0.0002*%
%ADD107R,0.0044X0.0002*%
%ADD108R,0.0018X0.0002*%
%ADD109R,0.0016X0.0002*%
%ADD110R,0.0012X0.0002*%
%ADD111R,0.0012X0.0002*%
%ADD112R,0.0006X0.0002*%
%ADD113R,0.0052X0.0002*%
%ADD114R,0.0232X0.0002*%
%ADD115R,0.0206X0.0002*%
%ADD116R,0.0152X0.0002*%
%ADD117R,0.0162X0.0002*%
%ADD118R,0.0052X0.0002*%
%ADD119R,0.0232X0.0002*%
%ADD120R,0.0212X0.0002*%
%ADD121R,0.0160X0.0002*%
%ADD122R,0.0170X0.0002*%
%ADD123R,0.0218X0.0002*%
%ADD124R,0.0166X0.0002*%
%ADD125R,0.0176X0.0002*%
%ADD126R,0.0220X0.0002*%
%ADD127R,0.0172X0.0002*%
%ADD128R,0.0180X0.0002*%
%ADD129R,0.0224X0.0002*%
%ADD130R,0.0176X0.0002*%
%ADD131R,0.0184X0.0002*%
%ADD132R,0.0226X0.0002*%
%ADD133R,0.0180X0.0002*%
%ADD134R,0.0188X0.0002*%
%ADD135R,0.0228X0.0002*%
%ADD136R,0.0182X0.0002*%
%ADD137R,0.0192X0.0002*%
%ADD138R,0.0230X0.0002*%
%ADD139R,0.0186X0.0002*%
%ADD140R,0.0194X0.0002*%
%ADD141R,0.0188X0.0002*%
%ADD142R,0.0196X0.0002*%
%ADD143R,0.0192X0.0002*%
%ADD144R,0.0198X0.0002*%
%ADD145R,0.0062X0.0002*%
%ADD146R,0.0234X0.0002*%
%ADD147R,0.0194X0.0002*%
%ADD148R,0.0200X0.0002*%
%ADD149R,0.0234X0.0002*%
%ADD150R,0.0196X0.0002*%
%ADD151R,0.0202X0.0002*%
%ADD152R,0.0236X0.0002*%
%ADD153R,0.0204X0.0002*%
%ADD154R,0.0200X0.0002*%
%ADD155R,0.0206X0.0002*%
%ADD156R,0.0238X0.0002*%
%ADD157R,0.0202X0.0002*%
%ADD158R,0.0208X0.0002*%
%ADD159R,0.0238X0.0002*%
%ADD160R,0.0204X0.0002*%
%ADD161R,0.0208X0.0002*%
%ADD162R,0.0206X0.0002*%
%ADD163R,0.0210X0.0002*%
%ADD164R,0.0240X0.0002*%
%ADD165R,0.0240X0.0002*%
%ADD166R,0.0212X0.0002*%
%ADD167R,0.0214X0.0002*%
%ADD168R,0.0212X0.0002*%
%ADD169R,0.0214X0.0002*%
%ADD170R,0.0214X0.0002*%
%ADD171R,0.0216X0.0002*%
%ADD172R,0.0242X0.0002*%
%ADD173R,0.0216X0.0002*%
%ADD174R,0.0242X0.0002*%
%ADD175R,0.0216X0.0002*%
%ADD176R,0.0218X0.0002*%
%ADD177R,0.0230X0.0002*%
%ADD178R,0.0220X0.0002*%
%ADD179R,0.0086X0.0002*%
%ADD180R,0.0074X0.0002*%
%ADD181R,0.0054X0.0002*%
%ADD182R,0.0058X0.0002*%
%ADD183R,0.0056X0.0002*%
%ADD184R,0.0118X0.0002*%
%ADD185R,0.0124X0.0002*%
%ADD186R,0.0210X0.0002*%
%ADD187R,0.0130X0.0002*%
%ADD188R,0.0204X0.0002*%
%ADD189R,0.0166X0.0002*%
%ADD190R,0.0224X0.0002*%
%ADD191R,0.0136X0.0002*%
%ADD192R,0.0140X0.0002*%
%ADD193R,0.0164X0.0002*%
%ADD194R,0.0144X0.0002*%
%ADD195R,0.0146X0.0002*%
%ADD196R,0.0150X0.0002*%
%ADD197R,0.0162X0.0002*%
%ADD198R,0.0152X0.0002*%
%ADD199R,0.0162X0.0002*%
%ADD200R,0.0154X0.0002*%
%ADD201R,0.0156X0.0002*%
%ADD202R,0.0158X0.0002*%
%ADD203R,0.0158X0.0002*%
%ADD204R,0.0156X0.0002*%
%ADD205R,0.0160X0.0002*%
%ADD206R,0.0156X0.0002*%
%ADD207R,0.0150X0.0002*%
%ADD208R,0.0164X0.0002*%
%ADD209R,0.0148X0.0002*%
%ADD210R,0.0166X0.0002*%
%ADD211R,0.0166X0.0002*%
%ADD212R,0.0168X0.0002*%
%ADD213R,0.0154X0.0002*%
%ADD214R,0.0172X0.0002*%
%ADD215R,0.0208X0.0002*%
%ADD216R,0.0204X0.0002*%
%ADD217R,0.0174X0.0002*%
%ADD218R,0.0208X0.0002*%
%ADD219R,0.0174X0.0002*%
%ADD220R,0.0058X0.0002*%
%ADD221R,0.0064X0.0002*%
%ADD222R,0.0074X0.0002*%
%ADD223R,0.0216X0.0002*%
%ADD224R,0.0242X0.0002*%
%ADD225R,0.0222X0.0002*%
%ADD226R,0.0222X0.0002*%
%ADD227R,0.0242X0.0002*%
%ADD228R,0.0222X0.0002*%
%ADD229R,0.0198X0.0002*%
%ADD230R,0.0190X0.0002*%
%ADD231R,0.0186X0.0002*%
%ADD232R,0.0190X0.0002*%
%ADD233R,0.0178X0.0002*%
%ADD234R,0.0226X0.0002*%
%ADD235R,0.0176X0.0002*%
%ADD236R,0.0184X0.0002*%
%ADD237R,0.0186X0.0002*%
%ADD238R,0.0182X0.0002*%
%ADD239R,0.0172X0.0002*%
%ADD240R,0.0096X0.0002*%
%ADD241R,0.0098X0.0002*%
%ADD242R,0.0098X0.0002*%
%ADD243R,0.0108X0.0002*%
%ADD244R,0.0252X0.0002*%
%ADD245R,0.0276X0.0002*%
%ADD246R,0.0096X0.0002*%
%ADD247R,0.0302X0.0002*%
%ADD248R,0.0326X0.0002*%
%ADD249R,0.0354X0.0002*%
%ADD250R,0.0384X0.0002*%
%ADD251R,0.0408X0.0002*%
%ADD252R,0.0430X0.0002*%
%ADD253R,0.0452X0.0002*%
%ADD254R,0.0478X0.0002*%
%ADD255R,0.0096X0.0002*%
%ADD256R,0.0502X0.0002*%
%ADD257R,0.0528X0.0002*%
%ADD258R,0.0096X0.0002*%
%ADD259R,0.0552X0.0002*%
%ADD260R,0.0098X0.0002*%
%ADD261R,0.0578X0.0002*%
%ADD262R,0.0602X0.0002*%
%ADD263R,0.0724X0.0002*%
%ADD264R,0.0724X0.0002*%
%ADD265R,0.0722X0.0002*%
%ADD266R,0.0728X0.0002*%
%ADD267R,0.0754X0.0002*%
%ADD268R,0.0778X0.0002*%
%ADD269R,0.0802X0.0002*%
%ADD270R,0.0828X0.0002*%
%ADD271R,0.0852X0.0002*%
%ADD272R,0.0906X0.0002*%
%ADD273R,0.0906X0.0002*%
%ADD274R,0.0928X0.0002*%
%ADD275R,0.0952X0.0002*%
%ADD276R,0.0978X0.0002*%
%ADD277R,0.1002X0.0002*%
%ADD278R,0.1042X0.0002*%
%ADD279R,0.1052X0.0002*%
%ADD280R,0.1078X0.0002*%
%ADD281R,0.1092X0.0002*%
%ADD282R,0.1074X0.0002*%
%ADD283R,0.1076X0.0002*%
%ADD284R,0.1076X0.0002*%
%ADD285R,0.1122X0.0002*%
%ADD286R,0.1100X0.0002*%
%ADD287R,0.1076X0.0002*%
%ADD288R,0.1082X0.0002*%
%ADD289R,0.1084X0.0002*%
%ADD290R,0.1086X0.0002*%
%ADD291R,0.1086X0.0002*%
%ADD292R,0.0014X0.0002*%
%ADD293R,0.1088X0.0002*%
%ADD294R,0.1090X0.0002*%
%ADD295R,0.1094X0.0002*%
%ADD296R,0.1094X0.0002*%
%ADD297R,0.1096X0.0002*%
%ADD298R,0.1098X0.0002*%
%ADD299R,0.1100X0.0002*%
%ADD300R,0.1104X0.0002*%
%ADD301R,0.1080X0.0002*%
%ADD302R,0.1056X0.0002*%
%ADD303R,0.1068X0.0002*%
%ADD304R,0.1068X0.0002*%
%ADD305R,0.1116X0.0002*%
%ADD306R,0.0996X0.0002*%
%ADD307R,0.0974X0.0002*%
%ADD308R,0.0094X0.0002*%
%ADD309R,0.0950X0.0002*%
%ADD310R,0.0926X0.0002*%
%ADD311R,0.0916X0.0002*%
%ADD312R,0.0878X0.0002*%
%ADD313R,0.0856X0.0002*%
%ADD314R,0.0832X0.0002*%
%ADD315R,0.0808X0.0002*%
%ADD316R,0.0784X0.0002*%
%ADD317R,0.0760X0.0002*%
%ADD318R,0.0094X0.0002*%
%ADD319R,0.0738X0.0002*%
%ADD320R,0.0094X0.0002*%
%ADD321R,0.0714X0.0002*%
%ADD322R,0.0690X0.0002*%
%ADD323R,0.0668X0.0002*%
%ADD324R,0.0644X0.0002*%
%ADD325R,0.0540X0.0002*%
%ADD326R,0.0540X0.0002*%
%ADD327R,0.0018X0.0002*%
%ADD328R,0.0092X0.0002*%
%ADD329R,0.0472X0.0002*%
%ADD330R,0.0092X0.0002*%
%ADD331R,0.0470X0.0002*%
%ADD332R,0.0470X0.0002*%
%ADD333R,0.0454X0.0002*%
%ADD334R,0.0406X0.0002*%
%ADD335R,0.0382X0.0002*%
%ADD336R,0.0090X0.0002*%
%ADD337R,0.0360X0.0002*%
%ADD338R,0.0336X0.0002*%
%ADD339R,0.0312X0.0002*%
%ADD340R,0.0288X0.0002*%
%ADD341R,0.0090X0.0002*%
%ADD342R,0.0072X0.0002*%
%ADD343R,0.0264X0.0002*%
%ADD344R,0.0106X0.0002*%
%ADD345R,0.0194X0.0002*%
%ADD346R,0.0094X0.0002*%
%ADD347R,0.0146X0.0002*%
%ADD348R,0.0272X0.0002*%
%ADD349R,0.0124X0.0002*%
%ADD350R,0.0308X0.0002*%
%ADD351R,0.0100X0.0002*%
%ADD352R,0.0338X0.0002*%
%ADD353R,0.0374X0.0002*%
%ADD354R,0.0410X0.0002*%
%ADD355R,0.0440X0.0002*%
%ADD356R,0.0518X0.0002*%
%ADD357R,0.0572X0.0002*%
%ADD358R,0.0574X0.0002*%
%ADD359R,0.0576X0.0002*%
%ADD360R,0.0576X0.0002*%
%ADD361R,0.0092X0.0002*%
%ADD362R,0.0578X0.0002*%
%ADD363R,0.0580X0.0002*%
%ADD364R,0.0582X0.0002*%
%ADD365R,0.0582X0.0002*%
%ADD366R,0.0584X0.0002*%
%ADD367R,0.0586X0.0002*%
%ADD368R,0.0092X0.0002*%
%ADD369R,0.0304X0.0002*%
%ADD370R,0.0002X0.0002*%
%ADD371R,0.0304X0.0002*%
%ADD372R,0.0120X0.0002*%
%ADD373R,0.0306X0.0002*%
%ADD374R,0.0306X0.0002*%
%ADD375R,0.0120X0.0002*%
%ADD376R,0.0122X0.0002*%
%ADD377R,0.0308X0.0002*%
%ADD378R,0.0308X0.0002*%
%ADD379R,0.0122X0.0002*%
%ADD380R,0.0310X0.0002*%
%ADD381R,0.0308X0.0002*%
%ADD382R,0.0124X0.0002*%
%ADD383R,0.0126X0.0002*%
%ADD384R,0.0310X0.0002*%
%ADD385R,0.0128X0.0002*%
%ADD386R,0.0312X0.0002*%
%ADD387R,0.0314X0.0002*%
%ADD388R,0.0314X0.0002*%
%ADD389R,0.0316X0.0002*%
%ADD390R,0.0132X0.0002*%
%ADD391R,0.0316X0.0002*%
%ADD392R,0.0132X0.0002*%
%ADD393R,0.0318X0.0002*%
%ADD394R,0.0318X0.0002*%
%ADD395R,0.0134X0.0002*%
%ADD396R,0.0134X0.0002*%
%ADD397R,0.0320X0.0002*%
%ADD398R,0.0138X0.0002*%
%ADD399R,0.0320X0.0002*%
%ADD400R,0.0138X0.0002*%
%ADD401R,0.0322X0.0002*%
%ADD402R,0.0322X0.0002*%
%ADD403R,0.0140X0.0002*%
%ADD404R,0.0324X0.0002*%
%ADD405R,0.0324X0.0002*%
%ADD406R,0.0142X0.0002*%
%ADD407R,0.0326X0.0002*%
%ADD408R,0.0142X0.0002*%
%ADD409R,0.0144X0.0002*%
%ADD410R,0.0146X0.0002*%
%ADD411R,0.0148X0.0002*%
%ADD412R,0.0148X0.0002*%
%ADD413R,0.0088X0.0002*%
%ADD414R,0.0046X0.0002*%
%ADD415R,0.0088X0.0002*%
%ADD416R,0.0048X0.0002*%
%ADD417R,0.0088X0.0002*%
%ADD418R,0.0088X0.0002*%
%ADD419R,0.0154X0.0002*%
%ADD420R,0.0156X0.0002*%
%ADD421R,0.0058X0.0002*%
%ADD422R,0.0158X0.0002*%
%ADD423R,0.0164X0.0002*%
%ADD424R,0.0390X0.0002*%
%ADD425R,0.0392X0.0002*%
%ADD426R,0.0392X0.0002*%
%ADD427R,0.0072X0.0002*%
%ADD428R,0.0418X0.0002*%
%ADD429R,0.0488X0.0002*%
%ADD430R,0.0550X0.0002*%
%ADD431R,0.0684X0.0002*%
%ADD432R,0.0684X0.0002*%
%ADD433R,0.0686X0.0002*%
%ADD434R,0.0688X0.0002*%
%ADD435R,0.0688X0.0002*%
%ADD436R,0.0664X0.0002*%
%ADD437R,0.0530X0.0002*%
%ADD438R,0.0438X0.0002*%
%ADD439R,0.0006X0.0002*%
%ADD440R,0.0344X0.0002*%
%ADD441R,0.0260X0.0002*%
%ADD442R,0.0076X0.0002*%
%ADD443R,0.0102X0.0002*%
%ADD444R,0.0110X0.0002*%
%ADD445R,0.0112X0.0002*%
%ADD446R,0.0112X0.0002*%
%ADD447R,0.0112X0.0002*%
%ADD448R,0.0132X0.0002*%
%ADD449R,0.0174X0.0002*%
%ADD450R,0.0114X0.0002*%
%ADD451R,0.0292X0.0002*%
%ADD452R,0.0114X0.0002*%
%ADD453R,0.0438X0.0002*%
%ADD454R,0.0114X0.0002*%
%ADD455R,0.0584X0.0002*%
%ADD456R,0.0116X0.0002*%
%ADD457R,0.0730X0.0002*%
%ADD458R,0.0972X0.0002*%
%ADD459R,0.0116X0.0002*%
%ADD460R,0.0974X0.0002*%
%ADD461R,0.0116X0.0002*%
%ADD462R,0.1230X0.0002*%
%ADD463R,0.1228X0.0002*%
%ADD464R,0.1226X0.0002*%
%ADD465R,0.1224X0.0002*%
%ADD466R,0.1222X0.0002*%
%ADD467R,0.1220X0.0002*%
%ADD468R,0.1218X0.0002*%
%ADD469R,0.1216X0.0002*%
%ADD470R,0.1214X0.0002*%
%ADD471R,0.1212X0.0002*%
%ADD472R,0.1210X0.0002*%
%ADD473R,0.1206X0.0002*%
%ADD474R,0.1204X0.0002*%
%ADD475R,0.1202X0.0002*%
%ADD476R,0.1200X0.0002*%
%ADD477R,0.1196X0.0002*%
%ADD478R,0.1162X0.0002*%
%ADD479R,0.1156X0.0002*%
%ADD480R,0.1108X0.0002*%
%ADD481R,0.1080X0.0002*%
%ADD482R,0.1072X0.0002*%
%ADD483R,0.1064X0.0002*%
%ADD484R,0.1048X0.0002*%
%ADD485R,0.1042X0.0002*%
%ADD486R,0.1036X0.0002*%
%ADD487R,0.1030X0.0002*%
%ADD488R,0.1026X0.0002*%
%ADD489R,0.1020X0.0002*%
%ADD490R,0.1016X0.0002*%
%ADD491R,0.1012X0.0002*%
%ADD492R,0.0772X0.0002*%
%ADD493R,0.0616X0.0002*%
%ADD494R,0.0460X0.0002*%
%ADD495R,0.0142X0.0002*%
%ADD496R,0.0100X0.0002*%
%ADD497R,0.0102X0.0002*%
%ADD498R,0.0102X0.0002*%
%ADD499R,0.0104X0.0002*%
%ADD500R,0.0104X0.0002*%
%ADD501R,0.0258X0.0002*%
%ADD502R,0.0376X0.0002*%
%ADD503R,0.0494X0.0002*%
%ADD504R,0.0612X0.0002*%
%ADD505R,0.0106X0.0002*%
%ADD506R,0.0144X0.0002*%
%ADD507R,0.0756X0.0002*%
%ADD508R,0.0846X0.0002*%
%ADD509R,0.0864X0.0002*%
%ADD510R,0.0860X0.0002*%
%ADD511R,0.0850X0.0002*%
%ADD512R,0.0842X0.0002*%
%ADD513R,0.0838X0.0002*%
%ADD514R,0.0834X0.0002*%
%ADD515R,0.0826X0.0002*%
%ADD516R,0.0822X0.0002*%
%ADD517R,0.0818X0.0002*%
%ADD518R,0.0814X0.0002*%
%ADD519R,0.0810X0.0002*%
%ADD520R,0.0806X0.0002*%
%ADD521R,0.0800X0.0002*%
%ADD522R,0.0796X0.0002*%
%ADD523R,0.0792X0.0002*%
%ADD524R,0.0788X0.0002*%
%ADD525R,0.0138X0.0002*%
%ADD526R,0.0780X0.0002*%
%ADD527R,0.0428X0.0002*%
%ADD528R,0.0348X0.0002*%
%ADD529R,0.0414X0.0002*%
%ADD530R,0.0332X0.0002*%
%ADD531R,0.0406X0.0002*%
%ADD532R,0.0400X0.0002*%
%ADD533R,0.0394X0.0002*%
%ADD534R,0.0390X0.0002*%
%ADD535R,0.0384X0.0002*%
%ADD536R,0.0306X0.0002*%
%ADD537R,0.0380X0.0002*%
%ADD538R,0.0302X0.0002*%
%ADD539R,0.0376X0.0002*%
%ADD540R,0.0298X0.0002*%
%ADD541R,0.0372X0.0002*%
%ADD542R,0.0294X0.0002*%
%ADD543R,0.0368X0.0002*%
%ADD544R,0.0290X0.0002*%
%ADD545R,0.0366X0.0002*%
%ADD546R,0.0286X0.0002*%
%ADD547R,0.0362X0.0002*%
%ADD548R,0.0284X0.0002*%
%ADD549R,0.0358X0.0002*%
%ADD550R,0.0282X0.0002*%
%ADD551R,0.0356X0.0002*%
%ADD552R,0.0278X0.0002*%
%ADD553R,0.0352X0.0002*%
%ADD554R,0.0276X0.0002*%
%ADD555R,0.0350X0.0002*%
%ADD556R,0.0346X0.0002*%
%ADD557R,0.0270X0.0002*%
%ADD558R,0.0136X0.0002*%
%ADD559R,0.0342X0.0002*%
%ADD560R,0.0266X0.0002*%
%ADD561R,0.0264X0.0002*%
%ADD562R,0.0336X0.0002*%
%ADD563R,0.0262X0.0002*%
%ADD564R,0.0334X0.0002*%
%ADD565R,0.0136X0.0002*%
%ADD566R,0.0332X0.0002*%
%ADD567R,0.0256X0.0002*%
%ADD568R,0.0330X0.0002*%
%ADD569R,0.0256X0.0002*%
%ADD570R,0.0328X0.0002*%
%ADD571R,0.0254X0.0002*%
%ADD572R,0.0324X0.0002*%
%ADD573R,0.0322X0.0002*%
%ADD574R,0.0250X0.0002*%
%ADD575R,0.0248X0.0002*%
%ADD576R,0.0246X0.0002*%
%ADD577R,0.0244X0.0002*%
%ADD578R,0.0316X0.0002*%
%ADD579R,0.0314X0.0002*%
%ADD580R,0.0236X0.0002*%
%ADD581R,0.0302X0.0002*%
%ADD582R,0.0236X0.0002*%
%ADD583R,0.0134X0.0002*%
%ADD584R,0.0234X0.0002*%
%ADD585R,0.0300X0.0002*%
%ADD586R,0.0134X0.0002*%
%ADD587R,0.0298X0.0002*%
%ADD588R,0.0234X0.0002*%
%ADD589R,0.0298X0.0002*%
%ADD590R,0.0232X0.0002*%
%ADD591R,0.0236X0.0002*%
%ADD592R,0.0250X0.0002*%
%ADD593R,0.0574X0.0002*%
%ADD594R,0.0570X0.0002*%
%ADD595R,0.0566X0.0002*%
%ADD596R,0.0562X0.0002*%
%ADD597R,0.0558X0.0002*%
%ADD598R,0.0554X0.0002*%
%ADD599R,0.0132X0.0002*%
%ADD600R,0.0552X0.0002*%
%ADD601R,0.0548X0.0002*%
%ADD602R,0.0544X0.0002*%
%ADD603R,0.0536X0.0002*%
%ADD604R,0.0532X0.0002*%
%ADD605R,0.0528X0.0002*%
%ADD606R,0.0526X0.0002*%
%ADD607R,0.0522X0.0002*%
%ADD608R,0.0514X0.0002*%
%ADD609R,0.0510X0.0002*%
%ADD610R,0.0506X0.0002*%
%ADD611R,0.0504X0.0002*%
%ADD612R,0.0500X0.0002*%
%ADD613R,0.0496X0.0002*%
%ADD614R,0.0492X0.0002*%
%ADD615R,0.0484X0.0002*%
%ADD616R,0.0482X0.0002*%
%ADD617R,0.0474X0.0002*%
%ADD618R,0.0466X0.0002*%
%ADD619R,0.0462X0.0002*%
%ADD620R,0.0456X0.0002*%
%ADD621R,0.0448X0.0002*%
%ADD622R,0.0444X0.0002*%
%ADD623R,0.0438X0.0002*%
%ADD624R,0.0434X0.0002*%
%ADD625R,0.0430X0.0002*%
%ADD626R,0.0426X0.0002*%
%ADD627R,0.0422X0.0002*%
%ADD628R,0.0418X0.0002*%
%ADD629R,0.0414X0.0002*%
%ADD630R,0.0402X0.0002*%
%ADD631R,0.0398X0.0002*%
%ADD632R,0.0394X0.0002*%
%ADD633R,0.0388X0.0002*%
%ADD634R,0.0128X0.0002*%
%ADD635R,0.0366X0.0002*%
%ADD636R,0.0362X0.0002*%
%ADD637R,0.0358X0.0002*%
%ADD638R,0.0354X0.0002*%
%ADD639R,0.0346X0.0002*%
%ADD640R,0.0340X0.0002*%
%ADD641R,0.0336X0.0002*%
%ADD642R,0.0328X0.0002*%
%ADD643R,0.0126X0.0002*%
%ADD644R,0.0126X0.0002*%
%ADD645R,0.0296X0.0002*%
%ADD646R,0.0284X0.0002*%
%ADD647R,0.0280X0.0002*%
%ADD648R,0.0276X0.0002*%
%ADD649R,0.0274X0.0002*%
%ADD650R,0.0266X0.0002*%
%ADD651R,0.0262X0.0002*%
%ADD652R,0.0254X0.0002*%
%ADD653R,0.0244X0.0002*%
%ADD654R,0.0218X0.0002*%
%ADD655R,0.0168X0.0002*%
%ADD656R,0.0122X0.0002*%
%ADD657R,0.0256X0.0002*%
%ADD658R,0.0252X0.0002*%
%ADD659R,0.0238X0.0002*%
%ADD660R,0.0170X0.0002*%
%ADD661R,0.0018X0.0002*%
%ADD662R,0.0010X0.0002*%
%ADD663R,0.0118X0.0002*%
%ADD664R,0.0086X0.0002*%
%ADD665R,0.0068X0.0002*%
%ADD666R,0.0036X0.0002*%
%ADD667R,0.0012X0.0002*%
%ADD668C,0.0060*%
%ADD669R,0.0340X0.0240*%
%ADD670C,0.0050*%
%ADD671C,0.0120*%
%ADD672C,0.0020*%
%ADD673C,0.0100*%
%ADD674C,0.0070*%
%ADD675R,0.0240X0.0340*%
%ADD676R,0.0250X0.0900*%
%ADD677R,0.0800X0.0200*%
%ADD678R,0.0200X0.0750*%
%ADD679C,0.0240*%
%ADD680R,0.0200X0.1400*%
%ADD681R,0.0540X0.0420*%
%ADD682R,0.0150X0.0700*%
%ADD683R,0.0550X0.0200*%
%ADD684C,0.0080*%
%ADD685C,0.0040*%
%ADD686R,0.0200X0.0800*%
%ADD687R,0.0750X0.0200*%
D10*
X000212Y000182D02*
X026761Y000182D01*
X026761Y023327D01*
X000212Y023327D01*
X000212Y000182D01*
X001060Y002131D02*
X001097Y002330D01*
X001204Y002502D01*
X001365Y002624D01*
X001560Y002680D01*
X001762Y002661D01*
X001943Y002571D01*
X002079Y002421D01*
X002153Y002232D01*
X002153Y002030D01*
X002079Y001841D01*
X001943Y001691D01*
X001762Y001601D01*
X001560Y001582D01*
X001365Y001638D01*
X001204Y001760D01*
X001097Y001932D01*
X001060Y002131D01*
X024810Y002131D02*
X024847Y002330D01*
X024954Y002502D01*
X025115Y002624D01*
X025310Y002680D01*
X025512Y002661D01*
X025693Y002571D01*
X025829Y002421D01*
X025903Y002232D01*
X025903Y002030D01*
X025829Y001841D01*
X025693Y001691D01*
X025512Y001601D01*
X025310Y001582D01*
X025115Y001638D01*
X024954Y001760D01*
X024847Y001932D01*
X024810Y002131D01*
X024810Y021381D02*
X024847Y021580D01*
X024954Y021752D01*
X025115Y021874D01*
X025310Y021930D01*
X025512Y021911D01*
X025693Y021821D01*
X025829Y021671D01*
X025903Y021482D01*
X025903Y021280D01*
X025829Y021091D01*
X025693Y020941D01*
X025512Y020851D01*
X025310Y020832D01*
X025115Y020888D01*
X024954Y021010D01*
X024847Y021182D01*
X024810Y021381D01*
X001060Y021381D02*
X001097Y021580D01*
X001204Y021752D01*
X001365Y021874D01*
X001560Y021930D01*
X001762Y021911D01*
X001943Y021821D01*
X002079Y021671D01*
X002153Y021482D01*
X002153Y021280D01*
X002079Y021091D01*
X001943Y020941D01*
X001762Y020851D01*
X001560Y020832D01*
X001365Y020888D01*
X001204Y021010D01*
X001097Y021182D01*
X001060Y021381D01*
D11*
X010997Y022174D02*
X011046Y022126D01*
X011094Y022174D01*
X011142Y022126D01*
X011191Y022174D01*
X011191Y022319D01*
X011292Y022319D02*
X011292Y022174D01*
X011340Y022126D01*
X011389Y022174D01*
X011437Y022126D01*
X011485Y022174D01*
X011485Y022319D01*
X011586Y022319D02*
X011586Y022174D01*
X011635Y022126D01*
X011683Y022174D01*
X011732Y022126D01*
X011780Y022174D01*
X011780Y022319D01*
X011881Y022174D02*
X011929Y022174D01*
X011929Y022126D01*
X011881Y022126D01*
X011881Y022174D01*
X012028Y022271D02*
X012125Y022271D01*
X012077Y022368D02*
X012125Y022416D01*
X012077Y022368D02*
X012077Y022126D01*
X012225Y022126D02*
X012225Y022319D01*
X012225Y022223D02*
X012322Y022319D01*
X012370Y022319D01*
X012470Y022271D02*
X012519Y022319D01*
X012616Y022319D01*
X012664Y022271D01*
X012664Y022223D01*
X012470Y022223D01*
X012470Y022271D02*
X012470Y022174D01*
X012519Y022126D01*
X012616Y022126D01*
X012765Y022174D02*
X012765Y022271D01*
X012813Y022319D01*
X012910Y022319D01*
X012959Y022271D01*
X012959Y022223D01*
X012765Y022223D01*
X012765Y022174D02*
X012813Y022126D01*
X012910Y022126D01*
X013060Y022126D02*
X013060Y022416D01*
X013060Y022319D02*
X013205Y022319D01*
X013253Y022271D01*
X013253Y022174D01*
X013205Y022126D01*
X013060Y022126D01*
X013354Y022174D02*
X013403Y022126D01*
X013548Y022126D01*
X013548Y022319D01*
X013649Y022271D02*
X013697Y022319D01*
X013842Y022319D01*
X013794Y022223D02*
X013697Y022223D01*
X013649Y022271D01*
X013649Y022126D02*
X013794Y022126D01*
X013842Y022174D01*
X013794Y022223D01*
X013944Y022174D02*
X013992Y022174D01*
X013992Y022126D01*
X013944Y022126D01*
X013944Y022174D01*
X014091Y022174D02*
X014139Y022126D01*
X014236Y022126D01*
X014284Y022174D01*
X014284Y022271D01*
X014236Y022319D01*
X014139Y022319D01*
X014091Y022271D01*
X014091Y022174D01*
X014386Y022126D02*
X014386Y022319D01*
X014386Y022223D02*
X014482Y022319D01*
X014531Y022319D01*
X014631Y022271D02*
X014631Y022174D01*
X014679Y022126D01*
X014825Y022126D01*
X014825Y022078D02*
X014825Y022319D01*
X014679Y022319D01*
X014631Y022271D01*
X014825Y022078D02*
X014776Y022029D01*
X014728Y022029D01*
X013354Y022174D02*
X013354Y022319D01*
X010997Y022319D02*
X010997Y022174D01*
D12*
X021733Y009505D03*
X021783Y009441D03*
D13*
X021786Y009443D03*
X021800Y009453D03*
X021988Y010003D03*
D14*
X021788Y009445D03*
X021338Y009467D03*
X020928Y009465D03*
X020926Y009467D03*
X020726Y009465D03*
X020586Y010557D03*
D15*
X020981Y010357D03*
X021429Y010045D03*
X021239Y009489D03*
X021001Y009465D03*
X020753Y009497D03*
X020721Y009489D03*
X020365Y009535D03*
X021695Y009499D03*
X021711Y009519D03*
X021789Y009447D03*
X021809Y009477D03*
X021923Y009485D03*
X022185Y009509D03*
D16*
X021790Y009449D03*
X021460Y009465D03*
X021242Y009467D03*
X021132Y009509D03*
X021112Y009515D03*
X020594Y009465D03*
X021494Y009869D03*
X021494Y009871D03*
X021494Y009875D03*
X021494Y009877D03*
X021494Y009879D03*
X021494Y009881D03*
X021494Y009885D03*
X021494Y009887D03*
X021494Y009889D03*
X021494Y009891D03*
X021494Y009895D03*
X021494Y009897D03*
X021494Y009899D03*
X021494Y009901D03*
X021494Y009905D03*
X021494Y009907D03*
X021494Y009909D03*
X021494Y009911D03*
X021494Y009915D03*
X021494Y009917D03*
X021494Y009919D03*
X021494Y009921D03*
X021494Y009925D03*
X021494Y009927D03*
X021494Y009929D03*
X021494Y009931D03*
X021494Y009935D03*
X021494Y009937D03*
X021494Y009939D03*
X021494Y009941D03*
X021494Y009945D03*
X021494Y009947D03*
X021494Y009949D03*
X021494Y009951D03*
X021494Y009955D03*
X020982Y010359D03*
X020982Y010361D03*
X020982Y010365D03*
X020982Y010367D03*
X020982Y010369D03*
D17*
X020981Y010371D03*
X020981Y010375D03*
X020981Y010377D03*
X020981Y010379D03*
X020981Y010381D03*
X021493Y009957D03*
X021791Y009451D03*
X020593Y009517D03*
X021223Y011255D03*
D18*
X021113Y009519D03*
X021181Y009507D03*
X021033Y009499D03*
X021031Y009481D03*
X020971Y009479D03*
X020973Y009505D03*
X020811Y009477D03*
X020761Y009477D03*
X020761Y009507D03*
X020711Y009507D03*
X020521Y009507D03*
X020523Y009477D03*
X020521Y009475D03*
X020473Y009507D03*
X020353Y009529D03*
X021431Y009479D03*
X021491Y009481D03*
X021493Y009485D03*
X021493Y009497D03*
X021491Y009501D03*
X021591Y009507D03*
X021593Y009505D03*
X021683Y009477D03*
X021781Y009509D03*
X021783Y009505D03*
X021803Y009455D03*
X022033Y009477D03*
X022033Y009507D03*
X022081Y009507D03*
X022183Y009501D03*
X022233Y009507D03*
D19*
X022235Y009505D03*
X022129Y009501D03*
X021979Y009475D03*
X021875Y009477D03*
X021809Y009465D03*
X021805Y009457D03*
X021777Y009515D03*
X021537Y009501D03*
X021489Y009479D03*
X021429Y009481D03*
X021427Y009485D03*
X021329Y009475D03*
X021327Y009507D03*
X021277Y009477D03*
X021227Y009485D03*
X021225Y009477D03*
X021029Y009479D03*
X021029Y009505D03*
X020969Y009501D03*
X020967Y009487D03*
X020969Y009481D03*
X020917Y009475D03*
X020865Y009479D03*
X020865Y009481D03*
X020809Y009481D03*
X020709Y009475D03*
X020619Y009477D03*
X020617Y009475D03*
X020569Y009507D03*
X020567Y009505D03*
X020407Y009501D03*
X020407Y009499D03*
X021225Y011265D03*
D20*
X021316Y011181D03*
X021278Y009507D03*
X021278Y009505D03*
X021278Y009481D03*
X021278Y009479D03*
X021328Y009477D03*
X021426Y009487D03*
X021426Y009489D03*
X021426Y009491D03*
X021426Y009495D03*
X021426Y009497D03*
X021428Y009499D03*
X021428Y009501D03*
X021536Y009499D03*
X021536Y009497D03*
X021536Y009495D03*
X021536Y009491D03*
X021536Y009489D03*
X021536Y009487D03*
X021536Y009485D03*
X021536Y009481D03*
X021536Y009479D03*
X021536Y009477D03*
X021536Y009475D03*
X021536Y009471D03*
X021536Y009469D03*
X021536Y009467D03*
X021536Y009465D03*
X021686Y009509D03*
X021736Y009507D03*
X021738Y009475D03*
X021786Y009499D03*
X021786Y009501D03*
X021788Y009497D03*
X021776Y009517D03*
X021776Y009519D03*
X021828Y009495D03*
X021826Y009491D03*
X021836Y009509D03*
X021838Y009511D03*
X021878Y009509D03*
X021928Y009507D03*
X021978Y009507D03*
X021978Y009505D03*
X021978Y009501D03*
X021978Y009499D03*
X021978Y009497D03*
X021978Y009495D03*
X021978Y009491D03*
X021978Y009489D03*
X021978Y009487D03*
X021978Y009485D03*
X021978Y009481D03*
X021978Y009479D03*
X021978Y009477D03*
X021978Y009521D03*
X021978Y009525D03*
X021978Y009527D03*
X021978Y009529D03*
X021978Y009531D03*
X022028Y009499D03*
X022028Y009497D03*
X022028Y009487D03*
X022028Y009485D03*
X022086Y009497D03*
X022086Y009499D03*
X022128Y009499D03*
X022128Y009497D03*
X022128Y009495D03*
X022128Y009491D03*
X022128Y009489D03*
X022128Y009487D03*
X022128Y009485D03*
X022128Y009481D03*
X022128Y009479D03*
X022128Y009477D03*
X022128Y009475D03*
X022128Y009471D03*
X022128Y009469D03*
X022128Y009467D03*
X022128Y009465D03*
X022236Y009467D03*
X022236Y009469D03*
X022236Y009471D03*
X022236Y009475D03*
X022236Y009477D03*
X022236Y009479D03*
X022236Y009481D03*
X022236Y009485D03*
X022236Y009487D03*
X022236Y009489D03*
X022236Y009491D03*
X022236Y009495D03*
X022236Y009497D03*
X022236Y009499D03*
X022236Y009501D03*
X022236Y009465D03*
X021808Y009461D03*
X021806Y009459D03*
X021228Y009507D03*
X021076Y009501D03*
X021076Y009499D03*
X021076Y009497D03*
X021076Y009495D03*
X020968Y009497D03*
X020968Y009499D03*
X020966Y009495D03*
X020966Y009491D03*
X020966Y009489D03*
X020968Y009485D03*
X020916Y009487D03*
X020916Y009489D03*
X020916Y009491D03*
X020916Y009495D03*
X020916Y009497D03*
X020916Y009499D03*
X020916Y009501D03*
X020916Y009505D03*
X020916Y009507D03*
X020916Y009521D03*
X020916Y009525D03*
X020916Y009527D03*
X020916Y009529D03*
X020916Y009531D03*
X020916Y009485D03*
X020916Y009481D03*
X020916Y009479D03*
X020916Y009477D03*
X020866Y009485D03*
X020866Y009487D03*
X020866Y009489D03*
X020866Y009491D03*
X020866Y009495D03*
X020866Y009497D03*
X020866Y009499D03*
X020866Y009501D03*
X020866Y009505D03*
X020866Y009507D03*
X020866Y009509D03*
X020866Y009511D03*
X020866Y009515D03*
X020866Y009517D03*
X020866Y009519D03*
X020808Y009517D03*
X020808Y009515D03*
X020808Y009511D03*
X020808Y009509D03*
X020808Y009507D03*
X020808Y009505D03*
X020808Y009501D03*
X020808Y009499D03*
X020808Y009497D03*
X020808Y009495D03*
X020808Y009491D03*
X020808Y009489D03*
X020808Y009487D03*
X020808Y009485D03*
X020766Y009465D03*
X020708Y009477D03*
X020708Y009479D03*
X020708Y009481D03*
X020618Y009505D03*
X020616Y009507D03*
X020568Y009477D03*
X020566Y009479D03*
X020526Y009497D03*
X020526Y009499D03*
X020468Y009501D03*
X020468Y009499D03*
X020468Y009497D03*
X020468Y009487D03*
X020468Y009485D03*
X020438Y009519D03*
X020406Y009497D03*
X020406Y009495D03*
X020406Y009491D03*
X020406Y009489D03*
X020406Y009487D03*
X020406Y009485D03*
X020406Y009481D03*
X020406Y009479D03*
X020406Y009477D03*
X020406Y009475D03*
X020406Y009471D03*
X020406Y009469D03*
X020406Y009467D03*
X020406Y009465D03*
D21*
X020406Y009473D03*
X020406Y009483D03*
X020406Y009493D03*
X020468Y009483D03*
X020498Y009463D03*
X020566Y009503D03*
X020708Y009483D03*
X020808Y009483D03*
X020808Y009493D03*
X020808Y009503D03*
X020808Y009513D03*
X020866Y009513D03*
X020866Y009503D03*
X020866Y009493D03*
X020866Y009483D03*
X020916Y009483D03*
X020916Y009493D03*
X020916Y009503D03*
X020916Y009523D03*
X020966Y009493D03*
X020968Y009483D03*
X021426Y009493D03*
X021428Y009483D03*
X021536Y009483D03*
X021536Y009473D03*
X021536Y009493D03*
X021778Y009513D03*
X021838Y009513D03*
X021876Y009503D03*
X021978Y009503D03*
X021978Y009493D03*
X021978Y009483D03*
X021978Y009523D03*
X022028Y009483D03*
X022058Y009463D03*
X022128Y009473D03*
X022128Y009483D03*
X022128Y009493D03*
X022236Y009493D03*
X022236Y009483D03*
X022236Y009473D03*
X022236Y009503D03*
X020586Y010553D03*
D22*
X020620Y009503D03*
X020594Y009463D03*
X020564Y009483D03*
X020524Y009503D03*
X020470Y009503D03*
X020352Y009503D03*
X020352Y009493D03*
X020352Y009483D03*
X020352Y009473D03*
X020352Y009523D03*
X020762Y009503D03*
X020762Y009483D03*
X021000Y009463D03*
X021032Y009483D03*
X021034Y009493D03*
X021182Y009503D03*
X021224Y009483D03*
X021384Y009483D03*
X021384Y009473D03*
X021384Y009493D03*
X021384Y009503D03*
X021384Y009513D03*
X021384Y009533D03*
X021430Y009503D03*
X021460Y009463D03*
X021492Y009483D03*
X021494Y009493D03*
X021490Y009503D03*
X021594Y009493D03*
X021594Y009483D03*
X021594Y009473D03*
X021684Y009503D03*
X021784Y009503D03*
X021790Y009493D03*
X022030Y009503D03*
X022182Y009493D03*
X022182Y009483D03*
X022182Y009473D03*
D23*
X021990Y009463D03*
X021340Y009463D03*
X021242Y009463D03*
X020928Y009463D03*
X020826Y009463D03*
X020724Y009463D03*
X021316Y011183D03*
D24*
X021712Y009463D03*
D25*
X021809Y009463D03*
X021537Y009503D03*
X021077Y009503D03*
X022129Y009503D03*
D26*
X021930Y009483D03*
X021904Y009463D03*
X021738Y009483D03*
X021130Y009503D03*
X020408Y009503D03*
X021990Y010093D03*
D27*
X022032Y009505D03*
X022030Y009481D03*
X022030Y009479D03*
X022084Y009479D03*
X022084Y009477D03*
X022182Y009479D03*
X022182Y009481D03*
X022182Y009477D03*
X022182Y009475D03*
X022182Y009471D03*
X022182Y009469D03*
X022182Y009467D03*
X022182Y009465D03*
X022182Y009485D03*
X022182Y009487D03*
X022182Y009489D03*
X022182Y009491D03*
X022182Y009495D03*
X022182Y009497D03*
X022182Y009499D03*
X021932Y009481D03*
X021932Y009479D03*
X021932Y009477D03*
X021930Y009475D03*
X021874Y009479D03*
X021832Y009501D03*
X021830Y009499D03*
X021834Y009505D03*
X021840Y009515D03*
X021840Y009517D03*
X021842Y009519D03*
X021824Y009487D03*
X021792Y009489D03*
X021782Y009507D03*
X021780Y009511D03*
X021740Y009481D03*
X021740Y009479D03*
X021740Y009477D03*
X021682Y009479D03*
X021594Y009481D03*
X021594Y009479D03*
X021594Y009477D03*
X021594Y009475D03*
X021594Y009471D03*
X021594Y009469D03*
X021594Y009467D03*
X021594Y009465D03*
X021594Y009485D03*
X021594Y009487D03*
X021594Y009489D03*
X021594Y009491D03*
X021594Y009495D03*
X021594Y009497D03*
X021594Y009499D03*
X021594Y009501D03*
X021494Y009495D03*
X021494Y009491D03*
X021494Y009489D03*
X021494Y009487D03*
X021492Y009499D03*
X021384Y009501D03*
X021384Y009499D03*
X021384Y009497D03*
X021384Y009495D03*
X021384Y009491D03*
X021384Y009489D03*
X021384Y009487D03*
X021384Y009485D03*
X021384Y009481D03*
X021384Y009479D03*
X021384Y009477D03*
X021384Y009475D03*
X021384Y009471D03*
X021384Y009469D03*
X021384Y009467D03*
X021384Y009465D03*
X021384Y009505D03*
X021384Y009507D03*
X021384Y009509D03*
X021384Y009511D03*
X021384Y009515D03*
X021384Y009517D03*
X021384Y009529D03*
X021384Y009531D03*
X021384Y009535D03*
X021384Y009537D03*
X021384Y009539D03*
X021282Y009467D03*
X021224Y009479D03*
X021224Y009481D03*
X021182Y009499D03*
X021182Y009501D03*
X021182Y009505D03*
X021130Y009501D03*
X021130Y009499D03*
X021130Y009497D03*
X021130Y009495D03*
X021034Y009497D03*
X021034Y009495D03*
X021034Y009491D03*
X021034Y009489D03*
X021034Y009487D03*
X021034Y009485D03*
X021032Y009501D03*
X020810Y009479D03*
X020762Y009479D03*
X020762Y009481D03*
X020762Y009485D03*
X020762Y009487D03*
X020762Y009489D03*
X020762Y009501D03*
X020762Y009505D03*
X020710Y009505D03*
X020710Y009485D03*
X020622Y009497D03*
X020620Y009479D03*
X020564Y009481D03*
X020564Y009485D03*
X020564Y009487D03*
X020564Y009497D03*
X020564Y009499D03*
X020564Y009501D03*
X020524Y009479D03*
X020472Y009477D03*
X020470Y009479D03*
X020470Y009481D03*
X020472Y009505D03*
X020352Y009507D03*
X020352Y009505D03*
X020352Y009501D03*
X020352Y009499D03*
X020352Y009497D03*
X020352Y009495D03*
X020352Y009491D03*
X020352Y009489D03*
X020352Y009487D03*
X020352Y009485D03*
X020352Y009481D03*
X020352Y009479D03*
X020352Y009477D03*
X020352Y009475D03*
X020352Y009471D03*
X020352Y009469D03*
X020352Y009467D03*
X020352Y009465D03*
X020352Y009521D03*
X020352Y009525D03*
X020352Y009527D03*
X021224Y011267D03*
D28*
X020586Y010561D03*
X020498Y009465D03*
X020726Y009467D03*
X021808Y009479D03*
X022058Y009465D03*
D29*
X022057Y009519D03*
X022185Y009507D03*
X021809Y009471D03*
X021437Y009475D03*
X021339Y009465D03*
X020827Y009465D03*
X020497Y009519D03*
D30*
X020867Y009469D03*
X020867Y009467D03*
X020867Y009465D03*
X021227Y009505D03*
X021327Y009505D03*
X021327Y009501D03*
X021327Y009499D03*
X021327Y009497D03*
X021327Y009495D03*
X021327Y009491D03*
X021327Y009489D03*
X021327Y009487D03*
X021327Y009485D03*
X021327Y009481D03*
X021327Y009479D03*
X021327Y009521D03*
X021327Y009525D03*
X021327Y009527D03*
X021327Y009529D03*
X021327Y009531D03*
X021797Y009481D03*
X022127Y009515D03*
X022127Y009517D03*
X022127Y009519D03*
D31*
X022085Y009501D03*
X022083Y009505D03*
X022029Y009501D03*
X021875Y009505D03*
X021875Y009507D03*
X021835Y009507D03*
X021829Y009497D03*
X021825Y009489D03*
X021823Y009485D03*
X021821Y009481D03*
X021795Y009485D03*
X021793Y009487D03*
X021791Y009491D03*
X021789Y009495D03*
X021685Y009507D03*
X021683Y009505D03*
X021535Y009515D03*
X021535Y009517D03*
X021535Y009519D03*
X021383Y009519D03*
X021383Y009541D03*
X021279Y009501D03*
X021279Y009489D03*
X021279Y009487D03*
X021279Y009485D03*
X021283Y009465D03*
X021183Y009467D03*
X021183Y009469D03*
X021183Y009471D03*
X021183Y009475D03*
X021183Y009477D03*
X021183Y009479D03*
X021183Y009481D03*
X021183Y009485D03*
X021183Y009487D03*
X021183Y009489D03*
X021183Y009491D03*
X021183Y009495D03*
X021183Y009497D03*
X021183Y009465D03*
X021129Y009467D03*
X021129Y009469D03*
X021129Y009471D03*
X021129Y009475D03*
X021129Y009477D03*
X021129Y009479D03*
X021129Y009481D03*
X021129Y009485D03*
X021129Y009487D03*
X021129Y009489D03*
X021129Y009491D03*
X021129Y009465D03*
X021075Y009467D03*
X021075Y009469D03*
X021075Y009471D03*
X021075Y009475D03*
X021075Y009477D03*
X021075Y009479D03*
X021075Y009481D03*
X021075Y009485D03*
X021075Y009487D03*
X021075Y009489D03*
X021075Y009491D03*
X021075Y009515D03*
X021075Y009517D03*
X021075Y009465D03*
X020809Y009519D03*
X020765Y009467D03*
X020621Y009499D03*
X020621Y009501D03*
X020525Y009501D03*
X020523Y009505D03*
X020405Y009515D03*
X020405Y009517D03*
X020405Y009519D03*
X021223Y011269D03*
D32*
X021000Y009519D03*
X021082Y009509D03*
X021242Y009465D03*
X021460Y009519D03*
X022134Y009509D03*
D33*
X021712Y009465D03*
D34*
X021576Y009515D03*
X021460Y009517D03*
X021904Y009465D03*
X021000Y009517D03*
X020980Y010385D03*
X020980Y010387D03*
X020980Y010389D03*
X020980Y010391D03*
X020980Y010395D03*
X021540Y010565D03*
X021540Y010567D03*
X021540Y010569D03*
X021540Y010571D03*
X021540Y010575D03*
X021540Y010577D03*
X021540Y010579D03*
X021540Y010581D03*
X021540Y010585D03*
X021540Y010587D03*
X021540Y010589D03*
X021540Y010591D03*
X021540Y010595D03*
X021540Y010597D03*
D35*
X021131Y009507D03*
X020861Y009475D03*
X020411Y009507D03*
X021991Y009465D03*
D36*
X022058Y009467D03*
X021916Y009487D03*
X021938Y009645D03*
X021938Y009647D03*
X021938Y009649D03*
X021938Y009651D03*
X021938Y009655D03*
X021938Y009657D03*
X021938Y009659D03*
X021938Y009661D03*
X021938Y009665D03*
X021938Y009667D03*
X021938Y009669D03*
X021938Y009671D03*
X021938Y009675D03*
X021938Y009677D03*
X021938Y009679D03*
X021938Y009681D03*
X021938Y009685D03*
X021938Y009687D03*
X021938Y009689D03*
X021938Y009691D03*
X021938Y009695D03*
X021938Y009697D03*
X021938Y009699D03*
X021938Y009701D03*
X021938Y009705D03*
X021938Y009707D03*
X021938Y009709D03*
X021938Y009711D03*
X021938Y009715D03*
X021938Y009717D03*
X021938Y009719D03*
X021938Y009721D03*
X021938Y009725D03*
X021938Y009727D03*
X021938Y009729D03*
X021938Y009731D03*
X021938Y009735D03*
X021938Y009737D03*
X021938Y009739D03*
X021938Y009741D03*
X021938Y009745D03*
X021938Y009747D03*
X021938Y009749D03*
X021938Y009751D03*
X021938Y009755D03*
X021938Y009757D03*
X021938Y009759D03*
X021938Y009761D03*
X021938Y009765D03*
X021938Y009767D03*
X021938Y009769D03*
X021938Y009771D03*
X021938Y009775D03*
X021938Y009777D03*
X021938Y009779D03*
X021938Y009781D03*
X021938Y009785D03*
X021938Y009787D03*
X021938Y009789D03*
X021938Y009791D03*
X021938Y009795D03*
X021938Y009797D03*
X021938Y009799D03*
X021938Y009801D03*
X021938Y009805D03*
X021938Y009807D03*
X021938Y009809D03*
X022044Y009741D03*
X022214Y009661D03*
X022214Y009659D03*
X021760Y009681D03*
X021760Y009685D03*
X021760Y009687D03*
X021760Y009689D03*
X021758Y009699D03*
X021758Y009701D03*
X021758Y009705D03*
X021758Y009707D03*
X021758Y009709D03*
X021758Y009711D03*
X021758Y009715D03*
X021758Y009717D03*
X021758Y009719D03*
X021758Y009721D03*
X021758Y009725D03*
X021758Y009727D03*
X021758Y009729D03*
X021758Y009731D03*
X021758Y009735D03*
X021758Y009737D03*
X021758Y009739D03*
X021758Y009741D03*
X021758Y009745D03*
X021758Y009747D03*
X021758Y009749D03*
X021758Y009751D03*
X021758Y009755D03*
X021758Y009757D03*
X021758Y009759D03*
X021758Y009761D03*
X021758Y009765D03*
X021758Y009767D03*
X021758Y009769D03*
X021758Y009771D03*
X021758Y009775D03*
X021758Y009777D03*
X021758Y009779D03*
X021758Y009781D03*
X021758Y009785D03*
X021758Y009787D03*
X021758Y009789D03*
X021758Y009791D03*
X021758Y009795D03*
X021758Y009797D03*
X021758Y009799D03*
X021758Y009801D03*
X021758Y009805D03*
X021758Y009807D03*
X021758Y009809D03*
X021650Y009737D03*
X021650Y009735D03*
X021650Y009661D03*
X021650Y009659D03*
X021254Y009517D03*
X021184Y009729D03*
X020906Y009731D03*
X020798Y009745D03*
X020798Y009747D03*
X020796Y009741D03*
X020608Y009741D03*
X020608Y009739D03*
X020608Y009737D03*
X020608Y009735D03*
X020608Y009731D03*
X020608Y009729D03*
X020608Y009727D03*
X020608Y009725D03*
X020608Y009721D03*
X020608Y009719D03*
X020608Y009717D03*
X020608Y009715D03*
X020608Y009711D03*
X020608Y009709D03*
X020608Y009707D03*
X020608Y009705D03*
X020608Y009701D03*
X020608Y009699D03*
X020608Y009697D03*
X020608Y009695D03*
X020608Y009691D03*
X020608Y009689D03*
X020608Y009687D03*
X020608Y009685D03*
X020608Y009681D03*
X020608Y009679D03*
X020608Y009677D03*
X020608Y009675D03*
X020608Y009671D03*
X020608Y009669D03*
X020608Y009667D03*
X020608Y009665D03*
X020608Y009661D03*
X020608Y009659D03*
X020608Y009657D03*
X020608Y009655D03*
X020608Y009651D03*
X020608Y009649D03*
X020608Y009647D03*
X020608Y009645D03*
X020608Y009641D03*
X020608Y009639D03*
X020608Y009637D03*
X020608Y009635D03*
X020608Y009631D03*
X020608Y009629D03*
X020608Y009627D03*
X020608Y009625D03*
X020608Y009621D03*
X020608Y009619D03*
X020608Y009617D03*
X020608Y009615D03*
X020608Y009611D03*
X020608Y009609D03*
X020608Y009607D03*
X020608Y009605D03*
X020608Y009601D03*
X020608Y009599D03*
X020608Y009597D03*
X020608Y009595D03*
X020608Y009591D03*
X020608Y009589D03*
X020608Y009587D03*
X020608Y009585D03*
X020594Y009467D03*
X020498Y009467D03*
X020420Y009509D03*
X020346Y009731D03*
X020608Y009745D03*
X020608Y009747D03*
X020608Y009749D03*
X020608Y009751D03*
X020918Y009517D03*
X020918Y009515D03*
X020918Y009511D03*
X020918Y009509D03*
X021000Y009467D03*
X021978Y010091D03*
X020978Y010409D03*
X020978Y010411D03*
X020978Y010415D03*
X020978Y010417D03*
X020978Y010419D03*
D37*
X020737Y009519D03*
X020827Y009467D03*
X021887Y009499D03*
D38*
X022057Y009515D03*
X022045Y009745D03*
X021649Y009731D03*
X021649Y009665D03*
X021459Y009467D03*
X021185Y009731D03*
X021187Y009737D03*
X020907Y009735D03*
X020905Y009729D03*
X020795Y009737D03*
X020795Y009739D03*
X020737Y009517D03*
X020497Y009515D03*
X020355Y009517D03*
X020355Y009519D03*
X020355Y009515D03*
X020355Y009511D03*
X020355Y009509D03*
X020345Y009729D03*
X020347Y009735D03*
X020979Y010421D03*
D39*
X020976Y010449D03*
X020976Y010451D03*
X020976Y010455D03*
X020976Y010457D03*
X020976Y010459D03*
X020976Y010461D03*
X020586Y010567D03*
X020744Y009651D03*
X020756Y009635D03*
X020764Y009625D03*
X020770Y009617D03*
X020772Y009615D03*
X020776Y009609D03*
X020778Y009607D03*
X020780Y009605D03*
X020782Y009601D03*
X020784Y009599D03*
X020786Y009597D03*
X020790Y009591D03*
X020792Y009589D03*
X020794Y009587D03*
X020794Y009585D03*
X020594Y009469D03*
X020498Y009469D03*
X021192Y009745D03*
X021254Y009515D03*
X021646Y009669D03*
X021768Y009659D03*
X021720Y009489D03*
X021712Y009467D03*
X021912Y009489D03*
X022058Y009469D03*
X022208Y009647D03*
X022048Y009749D03*
D40*
X022037Y009509D03*
X022131Y009507D03*
X022183Y009505D03*
X022231Y009509D03*
X021809Y009467D03*
X021485Y009507D03*
X021435Y009507D03*
X021433Y009477D03*
X021275Y009475D03*
X021275Y009509D03*
X021231Y009509D03*
X021231Y009487D03*
X021179Y009509D03*
X021131Y009505D03*
X021079Y009507D03*
X021025Y009507D03*
X020975Y009507D03*
X020863Y009477D03*
X020759Y009475D03*
X020757Y009509D03*
X020613Y009509D03*
X020573Y009509D03*
X020517Y009509D03*
X020477Y009509D03*
X020435Y009515D03*
X020409Y009505D03*
X020369Y009541D03*
X020357Y009531D03*
D41*
X020349Y009739D03*
X020351Y009741D03*
X020295Y009865D03*
X020791Y009731D03*
X020909Y009739D03*
X020911Y009741D03*
X021001Y009515D03*
X021189Y009741D03*
X021459Y009515D03*
X021649Y009751D03*
X021765Y009665D03*
X021903Y009467D03*
X022209Y009649D03*
X021223Y011247D03*
D42*
X021223Y011259D03*
X021223Y011261D03*
X020983Y010341D03*
X020983Y010339D03*
X020983Y010337D03*
X020983Y010335D03*
X021113Y009517D03*
X020925Y009469D03*
X020369Y009539D03*
X021543Y009509D03*
X021989Y009467D03*
X022165Y009517D03*
X022219Y009517D03*
D43*
X021966Y010089D03*
X020738Y009469D03*
X020736Y009471D03*
D44*
X020827Y009469D03*
X020919Y009519D03*
X020799Y009749D03*
X020799Y009751D03*
X021181Y009665D03*
X021181Y009661D03*
X021181Y009659D03*
X021181Y009657D03*
X021181Y009655D03*
X021181Y009651D03*
X021181Y009649D03*
X021181Y009647D03*
X021181Y009645D03*
X021329Y009519D03*
X021329Y009517D03*
X021329Y009515D03*
X021329Y009511D03*
X021329Y009509D03*
X021461Y009645D03*
X021461Y009749D03*
X021759Y009697D03*
X021759Y009695D03*
X021759Y009691D03*
X021725Y009487D03*
X021981Y009509D03*
X021981Y009511D03*
X021981Y009515D03*
X021981Y009517D03*
X021981Y009519D03*
X022041Y009729D03*
X022041Y009731D03*
X022041Y009735D03*
X022043Y009739D03*
X022215Y009667D03*
X022215Y009665D03*
X020979Y010397D03*
X020979Y010399D03*
X020979Y010401D03*
X020979Y010405D03*
X020979Y010407D03*
X021223Y011251D03*
D45*
X021223Y011245D03*
X020975Y010471D03*
X020975Y010469D03*
X020975Y010467D03*
X020975Y010465D03*
X020915Y009747D03*
X020913Y009745D03*
X020789Y009729D03*
X020731Y009667D03*
X020733Y009665D03*
X020739Y009657D03*
X020741Y009655D03*
X020745Y009649D03*
X020749Y009645D03*
X020751Y009641D03*
X020753Y009639D03*
X020755Y009637D03*
X020759Y009631D03*
X020761Y009629D03*
X020763Y009627D03*
X020769Y009619D03*
X020775Y009611D03*
X021001Y009469D03*
X021459Y009469D03*
X021711Y009515D03*
X021715Y009491D03*
X021771Y009655D03*
X021769Y009657D03*
X021903Y009515D03*
X021899Y009495D03*
X022051Y009751D03*
X022205Y009645D03*
X020353Y009745D03*
D46*
X021000Y009509D03*
X021254Y009469D03*
X021460Y009509D03*
X021262Y010499D03*
X021222Y011237D03*
D47*
X021337Y009469D03*
X021987Y009471D03*
D48*
X021903Y009469D03*
X021711Y009469D03*
X020593Y009471D03*
X020593Y009511D03*
X020973Y010489D03*
D49*
X020978Y009475D03*
X021024Y009475D03*
X020714Y009487D03*
X021540Y009507D03*
X021588Y009509D03*
X021688Y009501D03*
X021808Y009469D03*
X021880Y009501D03*
D50*
X021902Y009519D03*
X021988Y009469D03*
X021808Y009475D03*
X021732Y009485D03*
X021576Y009517D03*
X021336Y009471D03*
X021270Y009497D03*
X021254Y009519D03*
X021166Y009517D03*
X020924Y009471D03*
X020366Y009537D03*
X021024Y010071D03*
X020982Y010345D03*
X020982Y010347D03*
X020982Y010349D03*
X020982Y010351D03*
X020982Y010355D03*
X020586Y010559D03*
X021224Y011257D03*
D51*
X021679Y010567D03*
X021255Y010481D03*
X021255Y010479D03*
X021255Y010477D03*
X021255Y010475D03*
X021255Y010471D03*
X021255Y010469D03*
X021255Y010467D03*
X021255Y010465D03*
X021255Y010461D03*
X021255Y010459D03*
X021255Y010457D03*
X021255Y010455D03*
X021255Y010451D03*
X021255Y010449D03*
X021255Y010447D03*
X021255Y010445D03*
X021255Y010441D03*
X021255Y010439D03*
X021255Y010437D03*
X021255Y010435D03*
X021255Y010431D03*
X021255Y010429D03*
X020587Y010569D03*
X020357Y009749D03*
X020497Y009511D03*
X020497Y009471D03*
X020917Y009749D03*
X022057Y009511D03*
X022059Y009471D03*
D52*
X021781Y009647D03*
X021253Y009471D03*
X020839Y009471D03*
X021221Y011235D03*
D53*
X021678Y010569D03*
X021256Y010427D03*
X021256Y010425D03*
X021256Y010421D03*
X021256Y010419D03*
X021256Y010417D03*
X021256Y010415D03*
X020974Y010491D03*
X020974Y010495D03*
X020974Y010497D03*
X020974Y010499D03*
X020974Y010501D03*
X021196Y009749D03*
X021000Y009471D03*
X021460Y009471D03*
D54*
X021712Y009471D03*
X021902Y009511D03*
X020972Y010515D03*
X020972Y010517D03*
X020972Y010519D03*
X020972Y010521D03*
X020972Y010525D03*
X020972Y010527D03*
X021672Y010575D03*
X021222Y011239D03*
D55*
X021669Y010579D03*
X021671Y010577D03*
X021677Y010571D03*
X021255Y010411D03*
X021255Y010409D03*
X021255Y010407D03*
X021255Y010405D03*
X021255Y010401D03*
X021255Y010399D03*
X021255Y010397D03*
X021255Y010395D03*
X021255Y010391D03*
X021255Y010389D03*
X021255Y010387D03*
X021255Y010385D03*
X021255Y010381D03*
X021255Y010379D03*
X021255Y010377D03*
X021255Y010375D03*
X021255Y010371D03*
X021255Y010369D03*
X021255Y010367D03*
X021255Y010365D03*
X021255Y010361D03*
X021255Y010359D03*
X021255Y010357D03*
X021255Y010355D03*
X020973Y010505D03*
X020973Y010507D03*
X020973Y010509D03*
X020973Y010511D03*
X020587Y010571D03*
X021775Y009651D03*
X021711Y009511D03*
X021903Y009471D03*
X021255Y009491D03*
X021253Y009511D03*
X020739Y009491D03*
X020737Y009511D03*
D56*
X020593Y009473D03*
X020497Y009473D03*
X020973Y010503D03*
X020973Y010513D03*
X021255Y010413D03*
X021255Y010403D03*
X021255Y010393D03*
X021255Y010383D03*
X021255Y010373D03*
X021255Y010363D03*
X021255Y010353D03*
X021675Y010573D03*
X022059Y009473D03*
D57*
X020712Y009473D03*
D58*
X020755Y009473D03*
X021273Y009473D03*
X021809Y009473D03*
X020983Y010333D03*
X021773Y010593D03*
D59*
X020839Y009473D03*
D60*
X020924Y009473D03*
X021336Y009473D03*
X021986Y009473D03*
X020982Y010343D03*
X020982Y010353D03*
D61*
X021101Y009513D03*
X021001Y009473D03*
D62*
X021075Y009473D03*
X021075Y009483D03*
X021075Y009493D03*
X021129Y009493D03*
X021129Y009483D03*
X021129Y009473D03*
X021183Y009473D03*
X021183Y009483D03*
X021183Y009493D03*
X021279Y009503D03*
X021279Y009483D03*
X021535Y009513D03*
X021795Y009483D03*
X021821Y009483D03*
X021833Y009503D03*
X022085Y009503D03*
D63*
X021229Y009473D03*
X020283Y009863D03*
D64*
X021255Y010333D03*
X021255Y010343D03*
X020719Y010613D03*
X021459Y009473D03*
D65*
X021712Y009473D03*
X021904Y009473D03*
D66*
X021878Y009475D03*
X021926Y009509D03*
X022036Y009475D03*
X022078Y009509D03*
X022130Y009505D03*
X022166Y009519D03*
X022220Y009519D03*
X021734Y009509D03*
X021686Y009475D03*
X021576Y009519D03*
X021538Y009505D03*
X021488Y009505D03*
X021486Y009477D03*
X021276Y009499D03*
X021226Y009475D03*
X021166Y009519D03*
X021078Y009505D03*
X021028Y009477D03*
X020974Y009477D03*
X020760Y009499D03*
X020714Y009509D03*
X020570Y009475D03*
X020474Y009475D03*
X020436Y009517D03*
X020586Y010555D03*
D67*
X020812Y009475D03*
X021432Y009505D03*
X022082Y009475D03*
D68*
X022003Y009475D03*
X021903Y009521D03*
X021711Y009521D03*
X021253Y009521D03*
X020941Y009475D03*
D69*
X021000Y009521D03*
X021352Y009475D03*
X021460Y009521D03*
X020612Y009481D03*
X020592Y009521D03*
X020814Y010721D03*
X021222Y011275D03*
D70*
X021482Y009475D03*
X020592Y009519D03*
D71*
X020516Y009481D03*
X020496Y009521D03*
X021166Y009521D03*
X021576Y009521D03*
X022056Y009521D03*
X022076Y009481D03*
X022166Y009521D03*
D72*
X021880Y009481D03*
X021688Y009481D03*
X020924Y009537D03*
X020736Y009521D03*
X020380Y009531D03*
X020586Y010547D03*
D73*
X021327Y009523D03*
X021327Y009503D03*
X021327Y009493D03*
X021327Y009483D03*
X021827Y009493D03*
X022127Y009513D03*
D74*
X022057Y009495D03*
X022057Y009491D03*
X022057Y009489D03*
X020497Y009495D03*
X020497Y009491D03*
X020497Y009489D03*
X020307Y009867D03*
X020587Y010575D03*
D75*
X021005Y010331D03*
X020593Y009495D03*
X020593Y009489D03*
D76*
X020592Y009491D03*
X020970Y010571D03*
D77*
X021256Y010497D03*
X021256Y010495D03*
X021256Y010491D03*
X021256Y010489D03*
X021256Y010487D03*
X021256Y010485D03*
X021906Y009491D03*
D78*
X022057Y009493D03*
X020497Y009493D03*
D79*
X020593Y009493D03*
X021221Y011233D03*
D80*
X021222Y011243D03*
X020974Y010483D03*
X021000Y009513D03*
X020742Y009493D03*
X021460Y009513D03*
X021712Y009493D03*
X021902Y009493D03*
D81*
X021258Y009493D03*
X021256Y010483D03*
X021256Y010493D03*
D82*
X020978Y010435D03*
X020978Y010431D03*
X020978Y010429D03*
X020978Y010427D03*
X020978Y010425D03*
X020586Y010565D03*
X020348Y009737D03*
X020746Y009495D03*
X020908Y009737D03*
X021186Y009735D03*
X021188Y009739D03*
X021646Y009727D03*
X021648Y009729D03*
X021648Y009667D03*
X022046Y009747D03*
D83*
X022210Y009651D03*
X021764Y009667D03*
X021764Y009669D03*
X021650Y009647D03*
X021650Y009645D03*
X021650Y009747D03*
X021650Y009749D03*
X021702Y009497D03*
X021262Y009495D03*
X020794Y009735D03*
X021490Y010079D03*
X021490Y010095D03*
X021680Y010561D03*
D84*
X020737Y009661D03*
X020737Y009659D03*
X020747Y009647D03*
X020767Y009621D03*
X020787Y009595D03*
X020737Y009515D03*
X021707Y009495D03*
D85*
X021711Y009517D03*
X021651Y009649D03*
X021651Y009651D03*
X021651Y009655D03*
X021651Y009657D03*
X021651Y009739D03*
X021651Y009741D03*
X021651Y009745D03*
X021761Y009679D03*
X021761Y009677D03*
X021761Y009675D03*
X021763Y009671D03*
X021903Y009517D03*
X021893Y009497D03*
X021491Y010081D03*
X021491Y010085D03*
X021491Y010087D03*
X021491Y010089D03*
X021491Y010091D03*
X020593Y009515D03*
X020421Y009511D03*
X021223Y011249D03*
D86*
X020717Y009503D03*
D87*
X020971Y009503D03*
X021031Y009503D03*
X021593Y009503D03*
X022183Y009503D03*
D88*
X021234Y009503D03*
D89*
X021925Y009505D03*
X020585Y010549D03*
X021317Y011187D03*
D90*
X021942Y009999D03*
X020442Y009507D03*
D91*
X021000Y009511D03*
X021200Y009751D03*
X021460Y009511D03*
X021256Y010347D03*
X021256Y010349D03*
X021256Y010351D03*
X021668Y010581D03*
D92*
X021028Y011017D03*
X021030Y011019D03*
X021026Y011015D03*
X021020Y011009D03*
X021018Y011007D03*
X021016Y011005D03*
X021010Y010999D03*
X021008Y010997D03*
X021006Y010995D03*
X021000Y010989D03*
X020998Y010987D03*
X020996Y010985D03*
X021218Y011207D03*
X021520Y010221D03*
X021520Y010219D03*
X021520Y010217D03*
X021520Y010215D03*
X021520Y010211D03*
X021520Y010209D03*
X021520Y010207D03*
X021520Y010205D03*
X021128Y009511D03*
D93*
X021564Y009511D03*
D94*
X022181Y009511D03*
X021521Y010225D03*
X021521Y010227D03*
X021521Y010229D03*
X021521Y010231D03*
X021521Y010235D03*
X021521Y010237D03*
X021521Y010239D03*
X020953Y010941D03*
X020957Y010945D03*
X020959Y010947D03*
X020961Y010949D03*
X020963Y010951D03*
X020967Y010955D03*
X020969Y010957D03*
X020971Y010959D03*
X020973Y010961D03*
X020977Y010965D03*
X020979Y010967D03*
X020981Y010969D03*
X020983Y010971D03*
X020987Y010975D03*
X020989Y010977D03*
X020991Y010979D03*
X020993Y010981D03*
X020333Y009871D03*
D95*
X020347Y009733D03*
X020355Y009513D03*
X020907Y009733D03*
X021185Y009733D03*
X021575Y009513D03*
X021649Y009663D03*
D96*
X020422Y009513D03*
D97*
X020496Y009513D03*
X020592Y009513D03*
X020750Y009643D03*
X020758Y009633D03*
X020788Y009593D03*
X020796Y009583D03*
X020912Y009743D03*
X021190Y009743D03*
X021648Y009643D03*
X022058Y009513D03*
X020976Y010453D03*
X021680Y010563D03*
X020352Y009743D03*
D98*
X020737Y009513D03*
X021417Y010043D03*
X021255Y010433D03*
X021255Y010443D03*
X021255Y010453D03*
X021255Y010463D03*
X021255Y010473D03*
D99*
X020978Y010413D03*
X020608Y009743D03*
X020608Y009733D03*
X020608Y009723D03*
X020608Y009713D03*
X020608Y009703D03*
X020608Y009693D03*
X020608Y009683D03*
X020608Y009673D03*
X020608Y009663D03*
X020608Y009653D03*
X020608Y009643D03*
X020608Y009633D03*
X020608Y009623D03*
X020608Y009613D03*
X020608Y009603D03*
X020608Y009593D03*
X020608Y009583D03*
X020918Y009513D03*
X021650Y009733D03*
X021758Y009733D03*
X021758Y009723D03*
X021758Y009713D03*
X021758Y009703D03*
X021760Y009683D03*
X021758Y009743D03*
X021758Y009753D03*
X021758Y009763D03*
X021758Y009773D03*
X021758Y009783D03*
X021758Y009793D03*
X021758Y009803D03*
X021938Y009803D03*
X021938Y009793D03*
X021938Y009783D03*
X021938Y009773D03*
X021938Y009763D03*
X021938Y009753D03*
X021938Y009743D03*
X021938Y009733D03*
X021938Y009723D03*
X021938Y009713D03*
X021938Y009703D03*
X021938Y009693D03*
X021938Y009683D03*
X021938Y009673D03*
X021938Y009663D03*
X021938Y009653D03*
X022044Y009743D03*
X022214Y009663D03*
X022218Y009513D03*
D100*
X022165Y009513D03*
X021981Y009513D03*
X022041Y009733D03*
X021759Y009693D03*
X021329Y009513D03*
X021165Y009513D03*
X021181Y009653D03*
X021181Y009663D03*
X020797Y009743D03*
X020979Y010403D03*
X020587Y010563D03*
D101*
X020974Y010493D03*
X021256Y010423D03*
X021254Y009513D03*
D102*
X021711Y009513D03*
X021773Y009653D03*
X021903Y009513D03*
D103*
X022057Y009517D03*
X022165Y009515D03*
X022219Y009515D03*
X021165Y009515D03*
X020497Y009517D03*
D104*
X021074Y009519D03*
X021982Y010001D03*
X020586Y010551D03*
D105*
X021677Y009975D03*
X020437Y009521D03*
D106*
X020825Y009581D03*
X021113Y009521D03*
X022219Y009521D03*
X020819Y010729D03*
D107*
X020982Y010363D03*
X021494Y009953D03*
X021494Y009943D03*
X021494Y009933D03*
X021494Y009923D03*
X021494Y009913D03*
X021494Y009903D03*
X021494Y009893D03*
X021494Y009883D03*
X021494Y009873D03*
X020364Y009533D03*
D108*
X020919Y009533D03*
X021981Y009533D03*
D109*
X021330Y009533D03*
D110*
X021332Y009535D03*
X020922Y009535D03*
D111*
X021984Y009535D03*
X021226Y011271D03*
D112*
X021317Y011191D03*
X021999Y010095D03*
X021987Y009537D03*
X021335Y009537D03*
D113*
X021462Y009643D03*
X021462Y009653D03*
X021462Y009663D03*
X021462Y009673D03*
X021462Y009683D03*
X021462Y009693D03*
X021462Y009703D03*
X021462Y009713D03*
X021462Y009723D03*
X021462Y009733D03*
X021462Y009743D03*
X021492Y010053D03*
X021492Y010063D03*
X021492Y010073D03*
X020902Y009663D03*
X020902Y009653D03*
X020342Y009653D03*
X020342Y009643D03*
X020342Y009633D03*
X020342Y009623D03*
X020342Y009613D03*
X020342Y009603D03*
X020342Y009593D03*
X020342Y009583D03*
X020342Y009663D03*
D114*
X020992Y009643D03*
X020992Y009633D03*
X020992Y009623D03*
X020992Y009613D03*
X020992Y009603D03*
X020992Y009593D03*
X020992Y009583D03*
X021272Y009583D03*
X021272Y009593D03*
X021272Y009603D03*
X021272Y009613D03*
X021272Y009623D03*
X021272Y009633D03*
X021552Y009793D03*
D115*
X021539Y009583D03*
X020979Y009673D03*
X020979Y009683D03*
X020979Y009693D03*
X020979Y009703D03*
X021005Y009783D03*
X020437Y009773D03*
D116*
X020348Y009873D03*
X021584Y009703D03*
X021888Y009583D03*
X021528Y010393D03*
X021528Y010403D03*
X021216Y011193D03*
D117*
X022097Y009583D03*
D118*
X022212Y009655D03*
X022212Y009657D03*
X022042Y009737D03*
X021462Y009741D03*
X021462Y009739D03*
X021462Y009737D03*
X021462Y009735D03*
X021462Y009731D03*
X021462Y009729D03*
X021462Y009727D03*
X021462Y009725D03*
X021462Y009721D03*
X021462Y009719D03*
X021462Y009717D03*
X021462Y009715D03*
X021462Y009711D03*
X021462Y009709D03*
X021462Y009707D03*
X021462Y009705D03*
X021462Y009701D03*
X021462Y009699D03*
X021462Y009697D03*
X021462Y009695D03*
X021462Y009691D03*
X021462Y009689D03*
X021462Y009687D03*
X021462Y009685D03*
X021462Y009681D03*
X021462Y009679D03*
X021462Y009677D03*
X021462Y009675D03*
X021462Y009671D03*
X021462Y009669D03*
X021462Y009667D03*
X021462Y009665D03*
X021462Y009661D03*
X021462Y009659D03*
X021462Y009657D03*
X021462Y009655D03*
X021462Y009651D03*
X021462Y009649D03*
X021462Y009647D03*
X021462Y009745D03*
X021462Y009747D03*
X021462Y009751D03*
X021182Y009667D03*
X020902Y009667D03*
X020902Y009665D03*
X020902Y009661D03*
X020902Y009659D03*
X020902Y009657D03*
X020902Y009655D03*
X020902Y009651D03*
X020902Y009649D03*
X020902Y009647D03*
X020902Y009645D03*
X020342Y009651D03*
X020342Y009649D03*
X020342Y009647D03*
X020342Y009645D03*
X020342Y009641D03*
X020342Y009639D03*
X020342Y009637D03*
X020342Y009635D03*
X020342Y009631D03*
X020342Y009629D03*
X020342Y009627D03*
X020342Y009625D03*
X020342Y009621D03*
X020342Y009619D03*
X020342Y009617D03*
X020342Y009615D03*
X020342Y009611D03*
X020342Y009609D03*
X020342Y009607D03*
X020342Y009605D03*
X020342Y009601D03*
X020342Y009599D03*
X020342Y009597D03*
X020342Y009595D03*
X020342Y009591D03*
X020342Y009589D03*
X020342Y009587D03*
X020342Y009585D03*
X020342Y009655D03*
X020342Y009657D03*
X020342Y009659D03*
X020342Y009661D03*
X020342Y009665D03*
X020342Y009667D03*
X021492Y010051D03*
X021492Y010055D03*
X021492Y010057D03*
X021492Y010059D03*
X021492Y010061D03*
X021492Y010065D03*
X021492Y010067D03*
X021492Y010069D03*
X021492Y010071D03*
X021492Y010075D03*
X021492Y010077D03*
D119*
X021552Y009795D03*
X021552Y009601D03*
X021272Y009605D03*
X021272Y009607D03*
X021272Y009609D03*
X021272Y009611D03*
X021272Y009615D03*
X021272Y009617D03*
X021272Y009619D03*
X021272Y009621D03*
X021272Y009625D03*
X021272Y009627D03*
X021272Y009629D03*
X021272Y009631D03*
X021272Y009635D03*
X021272Y009637D03*
X021272Y009639D03*
X021272Y009641D03*
X021272Y009601D03*
X021272Y009599D03*
X021272Y009597D03*
X021272Y009595D03*
X021272Y009591D03*
X021272Y009589D03*
X021272Y009587D03*
X021272Y009585D03*
X020992Y009589D03*
X020992Y009591D03*
X020992Y009587D03*
X020992Y009585D03*
X020992Y009595D03*
X020992Y009597D03*
X020992Y009599D03*
X020992Y009601D03*
X020992Y009605D03*
X020992Y009607D03*
X020992Y009609D03*
X020992Y009611D03*
X020992Y009615D03*
X020992Y009617D03*
X020992Y009619D03*
X020992Y009621D03*
X020992Y009625D03*
X020992Y009627D03*
X020992Y009629D03*
X020992Y009631D03*
X020992Y009635D03*
X020992Y009637D03*
X020992Y009639D03*
X020992Y009641D03*
X021482Y010859D03*
X021472Y010871D03*
D120*
X021282Y009777D03*
X021002Y009775D03*
X021542Y009585D03*
X022122Y009619D03*
X022122Y009621D03*
D121*
X021884Y009585D03*
X021588Y009687D03*
X021588Y009711D03*
X021530Y010449D03*
X021530Y010451D03*
X021530Y010455D03*
X021530Y010457D03*
X021530Y010459D03*
X021530Y010461D03*
X021530Y010465D03*
X021708Y010585D03*
X021310Y011107D03*
X021216Y011189D03*
D122*
X021013Y010569D03*
X021707Y010591D03*
X021919Y010081D03*
X022101Y009585D03*
X020729Y009709D03*
X020729Y009711D03*
D123*
X020999Y009765D03*
X021279Y009769D03*
X021279Y009767D03*
X021545Y009807D03*
X021545Y009587D03*
X021855Y009635D03*
X021855Y009637D03*
X022125Y009637D03*
X022125Y009635D03*
X022125Y009631D03*
X022131Y009759D03*
X022131Y009761D03*
X021895Y010077D03*
D124*
X021591Y009725D03*
X021591Y009675D03*
X021591Y009671D03*
X021881Y009587D03*
X021531Y010501D03*
D125*
X021704Y010597D03*
X021310Y011099D03*
X020360Y009875D03*
X020732Y009727D03*
X020732Y009725D03*
X021300Y009807D03*
X022104Y009587D03*
D126*
X022126Y009639D03*
X022126Y009641D03*
X022130Y009755D03*
X022130Y009757D03*
X021854Y009641D03*
X021854Y009639D03*
X021546Y009589D03*
X021278Y009765D03*
X020998Y009761D03*
X020998Y009759D03*
X021228Y011171D03*
D127*
X021310Y011101D03*
X021088Y010079D03*
X020730Y009715D03*
X020454Y009805D03*
X021878Y009589D03*
D128*
X022106Y009589D03*
X022150Y009807D03*
X021310Y011097D03*
D129*
X021276Y009755D03*
X021548Y009591D03*
X022128Y009669D03*
X022128Y009671D03*
X022128Y009675D03*
X022128Y009677D03*
X022128Y009679D03*
X022128Y009681D03*
X022128Y009685D03*
X022128Y009687D03*
X022128Y009689D03*
X022128Y009691D03*
X022128Y009695D03*
X022128Y009697D03*
X022128Y009699D03*
X022128Y009701D03*
X022128Y009705D03*
X022128Y009707D03*
X022128Y009709D03*
X022128Y009711D03*
X022128Y009715D03*
X022128Y009717D03*
X022128Y009719D03*
X022128Y009721D03*
X022128Y009725D03*
X022128Y009727D03*
D130*
X021876Y009591D03*
D131*
X022108Y009591D03*
X022148Y009805D03*
X021016Y009807D03*
X021016Y009805D03*
X020448Y009797D03*
D132*
X021549Y009593D03*
X021307Y011073D03*
D133*
X021874Y009593D03*
D134*
X022110Y009593D03*
X021014Y009803D03*
D135*
X021550Y009799D03*
X021550Y009595D03*
X021306Y011071D03*
D136*
X021309Y011095D03*
X020449Y009799D03*
X021873Y009595D03*
D137*
X022112Y009595D03*
X021012Y009797D03*
D138*
X021551Y009797D03*
X021551Y009599D03*
X021551Y009597D03*
X021227Y011165D03*
D139*
X021871Y009597D03*
D140*
X022113Y009597D03*
X021291Y009797D03*
X021011Y009795D03*
X020443Y009789D03*
D141*
X021014Y009801D03*
X021294Y009801D03*
X021870Y009599D03*
X021318Y010501D03*
D142*
X021290Y009795D03*
X022114Y009599D03*
X022142Y009797D03*
X020442Y009787D03*
D143*
X020444Y009791D03*
X021868Y009601D03*
X022144Y009799D03*
D144*
X022141Y009795D03*
X022115Y009601D03*
X021865Y009607D03*
X020441Y009785D03*
X021309Y011087D03*
D145*
X020975Y010473D03*
X020975Y010463D03*
X020735Y009663D03*
X020743Y009653D03*
X020765Y009623D03*
X020773Y009613D03*
X020781Y009603D03*
D146*
X021553Y009603D03*
D147*
X021867Y009603D03*
D148*
X022116Y009603D03*
X022140Y009793D03*
D149*
X021553Y009791D03*
X021553Y009605D03*
X021483Y010857D03*
X021481Y010861D03*
D150*
X021866Y009605D03*
D151*
X022117Y009605D03*
X021287Y009789D03*
X021007Y009789D03*
D152*
X021554Y009789D03*
X021554Y009787D03*
X021554Y009785D03*
X021554Y009609D03*
X021554Y009607D03*
D153*
X021258Y009669D03*
X021258Y009671D03*
X021258Y009675D03*
X021258Y009677D03*
X021258Y009679D03*
X021258Y009681D03*
X021258Y009685D03*
X021258Y009687D03*
X021258Y009689D03*
X021258Y009691D03*
X021258Y009695D03*
X021258Y009697D03*
X021258Y009699D03*
X021258Y009701D03*
X021258Y009705D03*
X021258Y009707D03*
X021258Y009709D03*
X021258Y009711D03*
X021258Y009715D03*
X021258Y009717D03*
X021258Y009719D03*
X021258Y009721D03*
X021258Y009725D03*
X021286Y009787D03*
X021006Y009787D03*
X021006Y009785D03*
X020438Y009777D03*
X020438Y009775D03*
X022118Y009607D03*
X022138Y009789D03*
X021228Y011179D03*
D154*
X021288Y009791D03*
X021008Y009791D03*
X020440Y009781D03*
X021864Y009609D03*
D155*
X022119Y009609D03*
X022137Y009785D03*
X022137Y009787D03*
X021285Y009785D03*
X020979Y009711D03*
X020979Y009709D03*
X020979Y009707D03*
X020979Y009705D03*
X020979Y009701D03*
X020979Y009699D03*
X020979Y009697D03*
X020979Y009695D03*
X020979Y009691D03*
X020979Y009689D03*
X020979Y009687D03*
X020979Y009685D03*
X020979Y009681D03*
X020979Y009679D03*
X020979Y009677D03*
X020979Y009675D03*
X020979Y009671D03*
X020979Y009669D03*
X020437Y009771D03*
D156*
X021555Y009779D03*
X021555Y009781D03*
X021555Y009615D03*
X021555Y009611D03*
X021491Y010845D03*
X021491Y010847D03*
X021489Y010849D03*
X021465Y010877D03*
D157*
X021309Y011085D03*
X020373Y009877D03*
X020439Y009779D03*
X020979Y009727D03*
X021259Y009727D03*
X021863Y009611D03*
X022139Y009791D03*
D158*
X022120Y009611D03*
X021860Y009619D03*
X021004Y009781D03*
X021106Y010081D03*
X020436Y009769D03*
X021308Y011081D03*
X021228Y011177D03*
D159*
X021555Y009783D03*
X021555Y009613D03*
D160*
X021862Y009613D03*
X020980Y009713D03*
X020980Y009723D03*
D161*
X021284Y009783D03*
X022136Y009783D03*
X022120Y009613D03*
D162*
X021861Y009617D03*
X021861Y009615D03*
D163*
X021859Y009621D03*
X022121Y009617D03*
X022121Y009615D03*
X022135Y009779D03*
X022135Y009781D03*
X021283Y009781D03*
X021283Y009779D03*
X021003Y009779D03*
X021003Y009777D03*
X020435Y009767D03*
X020435Y009765D03*
X020421Y009711D03*
X020421Y009709D03*
X020421Y009707D03*
X020421Y009705D03*
X020421Y009701D03*
X020421Y009699D03*
X020421Y009697D03*
X020421Y009695D03*
X020421Y009691D03*
X020421Y009689D03*
X020421Y009687D03*
X020421Y009685D03*
X020421Y009681D03*
X020421Y009679D03*
X020421Y009677D03*
X020421Y009675D03*
X020421Y009671D03*
X020421Y009669D03*
D164*
X021556Y009627D03*
X021556Y009625D03*
X021556Y009621D03*
X021556Y009619D03*
X021556Y009617D03*
X021556Y009769D03*
X021556Y009771D03*
X021556Y009775D03*
X021556Y009777D03*
X021462Y010879D03*
X021306Y011065D03*
X021226Y011159D03*
D165*
X021492Y010843D03*
X021122Y010083D03*
X021556Y009773D03*
X021556Y009623D03*
D166*
X021858Y009623D03*
X020434Y009763D03*
D167*
X021001Y009773D03*
X021281Y009773D03*
X022133Y009773D03*
X022123Y009623D03*
D168*
X022134Y009775D03*
X022134Y009777D03*
X021858Y009625D03*
X020434Y009759D03*
X020434Y009761D03*
X021308Y011079D03*
X021228Y011175D03*
D169*
X021073Y010327D03*
X021001Y009771D03*
X021281Y009775D03*
X020433Y009757D03*
X020433Y009755D03*
X022123Y009625D03*
X022133Y009771D03*
D170*
X021857Y009629D03*
X021857Y009627D03*
D171*
X022124Y009629D03*
X022124Y009627D03*
X022132Y009765D03*
X022132Y009767D03*
X022132Y009769D03*
X021544Y009809D03*
X021280Y009771D03*
X021000Y009769D03*
X021000Y009767D03*
D172*
X021557Y009767D03*
X021557Y009765D03*
X021557Y009761D03*
X021557Y009759D03*
X021557Y009757D03*
X021557Y009755D03*
X021557Y009641D03*
X021557Y009639D03*
X021557Y009637D03*
X021557Y009635D03*
X021557Y009631D03*
X021557Y009629D03*
D173*
X021856Y009631D03*
D174*
X021557Y009633D03*
X021557Y009753D03*
X021557Y009763D03*
D175*
X021856Y009633D03*
X021228Y011173D03*
D176*
X020999Y009763D03*
X022129Y009753D03*
X022131Y009763D03*
X022125Y009633D03*
D177*
X021271Y009643D03*
D178*
X021278Y009763D03*
X021854Y009643D03*
X022126Y009643D03*
D179*
X021785Y009645D03*
X020587Y010577D03*
D180*
X021255Y010345D03*
X021255Y010341D03*
X021255Y010339D03*
X021255Y010337D03*
X021255Y010335D03*
X021255Y010331D03*
X021255Y010329D03*
X021255Y010327D03*
X021777Y009649D03*
D181*
X021763Y009673D03*
X021651Y009653D03*
X021651Y009743D03*
X022211Y009653D03*
X021491Y010083D03*
X021491Y010093D03*
D182*
X020977Y010437D03*
X020977Y010439D03*
X020977Y010441D03*
X020977Y010445D03*
X020977Y010447D03*
X021767Y009661D03*
D183*
X021766Y009663D03*
X020978Y010423D03*
X020978Y010433D03*
D184*
X020703Y009669D03*
D185*
X020706Y009671D03*
X021076Y011067D03*
X021078Y011069D03*
X021086Y011077D03*
X021088Y011079D03*
X021096Y011087D03*
X021098Y011089D03*
X021106Y011097D03*
X021108Y011099D03*
X021116Y011107D03*
X021218Y011209D03*
D186*
X020421Y009713D03*
X020421Y009703D03*
X020421Y009693D03*
X020421Y009683D03*
X020421Y009673D03*
D187*
X020709Y009673D03*
X021521Y010223D03*
X021521Y010233D03*
X020955Y010943D03*
X020965Y010953D03*
X020975Y010963D03*
X020985Y010973D03*
D188*
X021308Y011083D03*
X021258Y009723D03*
X021258Y009713D03*
X021258Y009703D03*
X021258Y009693D03*
X021258Y009683D03*
X021258Y009673D03*
D189*
X021591Y009673D03*
X021591Y009723D03*
D190*
X021548Y009803D03*
X022128Y009723D03*
X022128Y009713D03*
X022128Y009703D03*
X022128Y009693D03*
X022128Y009683D03*
X022128Y009673D03*
D191*
X021522Y010277D03*
X020712Y009675D03*
X020830Y010815D03*
X020832Y010817D03*
X020834Y010819D03*
X020840Y010825D03*
X020842Y010827D03*
X020844Y010829D03*
X020850Y010835D03*
X020852Y010837D03*
X020854Y010839D03*
X020860Y010845D03*
X020862Y010847D03*
X020864Y010849D03*
D192*
X020786Y010769D03*
X020784Y010767D03*
X020782Y010765D03*
X020778Y010761D03*
X020776Y010759D03*
X020774Y010757D03*
X020772Y010755D03*
X020768Y010751D03*
X020766Y010749D03*
X020764Y010747D03*
X020762Y010745D03*
X020758Y010741D03*
X020756Y010739D03*
X020754Y010737D03*
X020746Y010729D03*
X021294Y011139D03*
X021296Y011137D03*
X021524Y010315D03*
X021524Y010311D03*
X021524Y010309D03*
X021524Y010307D03*
X021524Y010305D03*
X021524Y010301D03*
X021524Y010299D03*
X021074Y010077D03*
X020714Y009677D03*
D193*
X021590Y009681D03*
X021590Y009679D03*
X021590Y009677D03*
X021590Y009717D03*
X021590Y009719D03*
X021590Y009721D03*
X021532Y010487D03*
X021532Y010489D03*
X021532Y010491D03*
X021532Y010495D03*
X021532Y010497D03*
X021532Y010499D03*
X021310Y011105D03*
D194*
X021306Y011121D03*
X021216Y011199D03*
X020746Y010727D03*
X020736Y010717D03*
X021038Y010329D03*
X021526Y010335D03*
X021526Y010337D03*
X021526Y010339D03*
X021526Y010341D03*
X021526Y010345D03*
X021526Y010347D03*
X021526Y010349D03*
X021526Y010351D03*
X020716Y009679D03*
D195*
X020717Y009681D03*
X021309Y011117D03*
X021307Y011119D03*
X021217Y011197D03*
D196*
X021311Y011113D03*
X021527Y010383D03*
X021527Y010373D03*
X020719Y009683D03*
D197*
X021589Y009683D03*
X021589Y009713D03*
X021531Y010473D03*
X021531Y010483D03*
D198*
X021528Y010409D03*
X021528Y010407D03*
X021528Y010405D03*
X021528Y010401D03*
X021528Y010399D03*
X021528Y010397D03*
X021528Y010395D03*
X021584Y009695D03*
X020720Y009685D03*
D199*
X020725Y009695D03*
X020725Y009697D03*
X020459Y009809D03*
X021589Y009715D03*
X021589Y009685D03*
X021531Y010467D03*
X021531Y010469D03*
X021531Y010471D03*
X021531Y010475D03*
X021531Y010477D03*
X021531Y010479D03*
X021531Y010481D03*
X021531Y010485D03*
X021215Y011187D03*
D200*
X021311Y011111D03*
X020721Y009687D03*
D201*
X020722Y009689D03*
X021530Y010429D03*
X021530Y010431D03*
D202*
X021587Y009709D03*
X021587Y009689D03*
D203*
X020723Y009691D03*
X021529Y010435D03*
X021529Y010437D03*
X021529Y010439D03*
X021529Y010441D03*
X021529Y010445D03*
X021529Y010447D03*
X021311Y011109D03*
D204*
X021216Y011191D03*
X021586Y009707D03*
X021586Y009691D03*
D205*
X020724Y009693D03*
X021530Y010453D03*
X021530Y010463D03*
D206*
X021708Y010583D03*
X021586Y009693D03*
D207*
X021583Y009697D03*
X021527Y010375D03*
X021527Y010377D03*
X021527Y010379D03*
X021527Y010381D03*
X021527Y010385D03*
X021527Y010387D03*
X021527Y010389D03*
X021527Y010391D03*
D208*
X021708Y010587D03*
X020726Y009699D03*
D209*
X021582Y009701D03*
X021582Y009699D03*
D210*
X020727Y009701D03*
X021215Y011185D03*
D211*
X020727Y009703D03*
D212*
X020728Y009705D03*
X020728Y009707D03*
X020456Y009807D03*
X021708Y010589D03*
D213*
X021529Y010427D03*
X021529Y010425D03*
X021529Y010421D03*
X021529Y010419D03*
X021529Y010417D03*
X021529Y010415D03*
X021529Y010411D03*
X021585Y009705D03*
D214*
X020730Y009713D03*
D215*
X020422Y009717D03*
X020422Y009719D03*
X020422Y009721D03*
X020422Y009725D03*
X020422Y009727D03*
X020422Y009715D03*
D216*
X020980Y009721D03*
X020980Y009719D03*
X020980Y009717D03*
X020980Y009715D03*
X020980Y009725D03*
D217*
X020731Y009721D03*
X020731Y009719D03*
X020731Y009717D03*
X022153Y009809D03*
D218*
X020422Y009723D03*
D219*
X020731Y009723D03*
D220*
X020793Y009733D03*
D221*
X021194Y009747D03*
X020354Y009747D03*
X020974Y010475D03*
X020974Y010477D03*
X020974Y010479D03*
X020974Y010481D03*
X020974Y010485D03*
X020974Y010487D03*
X021680Y010565D03*
D222*
X020971Y010529D03*
X020921Y009751D03*
X020361Y009751D03*
D223*
X020432Y009753D03*
D224*
X020703Y009753D03*
X020703Y009763D03*
X020703Y009773D03*
X020703Y009783D03*
X020703Y009793D03*
X020703Y009803D03*
D225*
X020997Y009753D03*
D226*
X021275Y009753D03*
D227*
X020703Y009759D03*
X020703Y009761D03*
X020703Y009757D03*
X020703Y009755D03*
X020703Y009765D03*
X020703Y009767D03*
X020703Y009769D03*
X020703Y009771D03*
X020703Y009775D03*
X020703Y009777D03*
X020703Y009779D03*
X020703Y009781D03*
X020703Y009785D03*
X020703Y009787D03*
X020703Y009789D03*
X020703Y009791D03*
X020703Y009795D03*
X020703Y009797D03*
X020703Y009799D03*
X020703Y009801D03*
X020703Y009805D03*
X020703Y009807D03*
X020703Y009809D03*
X021883Y010075D03*
X021495Y010839D03*
X021493Y010841D03*
D228*
X021307Y011075D03*
X021227Y011169D03*
X021547Y009805D03*
X021277Y009761D03*
X021277Y009759D03*
X021277Y009757D03*
X020997Y009757D03*
X020997Y009755D03*
D229*
X021009Y009793D03*
X021289Y009793D03*
X020441Y009783D03*
D230*
X020445Y009793D03*
D231*
X020447Y009795D03*
D232*
X021013Y009799D03*
X021293Y009799D03*
X022145Y009801D03*
X021309Y011091D03*
D233*
X021019Y009809D03*
X020451Y009801D03*
D234*
X020385Y009879D03*
X021549Y009801D03*
X021227Y011167D03*
D235*
X020452Y009803D03*
D236*
X021296Y009803D03*
D237*
X021485Y010153D03*
X022147Y009803D03*
X021309Y011093D03*
D238*
X021297Y009805D03*
D239*
X021302Y009809D03*
D240*
X020950Y009861D03*
X020934Y010021D03*
X020934Y010025D03*
X020934Y010027D03*
X020934Y010029D03*
X020934Y010031D03*
X020932Y010039D03*
X020914Y010207D03*
X020914Y010209D03*
X020914Y010211D03*
X021220Y011225D03*
D241*
X021575Y010683D03*
X020949Y009893D03*
X020951Y009873D03*
X020951Y009863D03*
D242*
X020951Y009865D03*
X020951Y009867D03*
X020951Y009869D03*
X020951Y009871D03*
X020951Y009875D03*
X020951Y009877D03*
X020951Y009879D03*
X020951Y009881D03*
X020949Y009885D03*
X020949Y009887D03*
X020949Y009889D03*
X020949Y009891D03*
X020949Y009895D03*
X020949Y009897D03*
X021579Y010679D03*
X021573Y010687D03*
X021571Y010689D03*
D243*
X020320Y009869D03*
D244*
X020398Y009881D03*
X021500Y010827D03*
X021306Y011059D03*
D245*
X020410Y009883D03*
D246*
X020950Y009883D03*
X020934Y010023D03*
X020914Y010213D03*
D247*
X020423Y009885D03*
X021125Y010855D03*
X021303Y011031D03*
D248*
X021129Y010325D03*
X021129Y010321D03*
X021129Y010319D03*
X021129Y010317D03*
X020435Y009887D03*
D249*
X020449Y009889D03*
D250*
X020464Y009891D03*
X021300Y010987D03*
D251*
X020476Y009893D03*
D252*
X020487Y009895D03*
X021789Y010059D03*
D253*
X020498Y009897D03*
X021296Y010951D03*
D254*
X021295Y010937D03*
X020511Y009899D03*
D255*
X020948Y009901D03*
X020948Y009899D03*
X020936Y010011D03*
X020928Y010079D03*
X020928Y010081D03*
X020926Y010097D03*
X020918Y010175D03*
X020918Y010177D03*
X020918Y010179D03*
D256*
X020523Y009901D03*
D257*
X020536Y009903D03*
D258*
X020948Y009903D03*
X020936Y010013D03*
D259*
X020548Y009905D03*
D260*
X020947Y009909D03*
X020947Y009907D03*
X020947Y009905D03*
X020587Y010581D03*
X021577Y010681D03*
D261*
X021285Y010127D03*
X021285Y010125D03*
X021285Y010121D03*
X021285Y010119D03*
X020561Y009907D03*
D262*
X020573Y009909D03*
D263*
X020634Y009911D03*
D264*
X020634Y009913D03*
D265*
X020633Y009915D03*
X020633Y009917D03*
X020633Y009919D03*
D266*
X020634Y009921D03*
D267*
X020647Y009923D03*
D268*
X020659Y009925D03*
D269*
X020671Y009927D03*
X021279Y010761D03*
D270*
X021278Y010747D03*
X020684Y009929D03*
D271*
X020696Y009931D03*
X021276Y010735D03*
D272*
X020723Y009933D03*
D273*
X020723Y009935D03*
D274*
X020734Y009937D03*
D275*
X020746Y009939D03*
D276*
X020759Y009941D03*
D277*
X020771Y009943D03*
D278*
X020791Y009945D03*
D279*
X020796Y009947D03*
D280*
X020811Y009949D03*
X021121Y009975D03*
D281*
X021198Y009981D03*
X020844Y009951D03*
D282*
X020859Y009953D03*
D283*
X020884Y009955D03*
D284*
X020908Y009957D03*
D285*
X020955Y009959D03*
D286*
X020966Y009961D03*
D287*
X020978Y009963D03*
D288*
X021005Y009965D03*
X021029Y009967D03*
D289*
X021054Y009969D03*
D290*
X021077Y009971D03*
D291*
X021101Y009973D03*
D292*
X021653Y009973D03*
D293*
X021268Y009987D03*
X021150Y009977D03*
D294*
X021175Y009979D03*
D295*
X021223Y009983D03*
D296*
X021247Y009985D03*
D297*
X021296Y009989D03*
D298*
X021319Y009991D03*
D299*
X021344Y009993D03*
D300*
X021370Y009995D03*
D301*
X021382Y009997D03*
D302*
X021394Y009999D03*
X021134Y010659D03*
D303*
X021422Y010001D03*
D304*
X021422Y010003D03*
D305*
X021446Y010005D03*
X021446Y010007D03*
X021446Y010009D03*
D306*
X021506Y010011D03*
D307*
X021517Y010013D03*
X021305Y010613D03*
D308*
X020869Y010581D03*
X020867Y010597D03*
X020915Y010205D03*
X020915Y010201D03*
X020915Y010199D03*
X020915Y010197D03*
X020915Y010195D03*
X020915Y010191D03*
X020915Y010189D03*
X020915Y010187D03*
X020919Y010171D03*
X020919Y010169D03*
X020919Y010167D03*
X020919Y010165D03*
X020919Y010161D03*
X020919Y010159D03*
X020919Y010157D03*
X020919Y010155D03*
X020925Y010111D03*
X020925Y010109D03*
X020925Y010107D03*
X020925Y010105D03*
X020925Y010101D03*
X020925Y010099D03*
X020927Y010095D03*
X020927Y010091D03*
X020927Y010089D03*
X020927Y010087D03*
X020927Y010085D03*
X020935Y010019D03*
X020935Y010017D03*
X020935Y010015D03*
D309*
X021529Y010015D03*
D310*
X021541Y010017D03*
D311*
X021546Y010019D03*
D312*
X021565Y010021D03*
X021353Y010607D03*
D313*
X021276Y010733D03*
X021576Y010023D03*
D314*
X021588Y010025D03*
D315*
X021600Y010027D03*
D316*
X021612Y010029D03*
X021280Y010771D03*
D317*
X021624Y010031D03*
D318*
X020933Y010033D03*
X020933Y010043D03*
X020923Y010123D03*
X020921Y010143D03*
D319*
X021635Y010033D03*
D320*
X020933Y010037D03*
X020933Y010035D03*
X020933Y010041D03*
X020933Y010045D03*
X020933Y010047D03*
X020923Y010117D03*
X020923Y010119D03*
X020923Y010121D03*
X020923Y010125D03*
X020923Y010127D03*
X020923Y010129D03*
X020923Y010131D03*
X020921Y010137D03*
X020921Y010139D03*
X020921Y010141D03*
X020921Y010145D03*
X020921Y010147D03*
X020913Y010215D03*
X020913Y010217D03*
X020913Y010219D03*
D321*
X021647Y010035D03*
D322*
X021659Y010037D03*
X021275Y010555D03*
X021275Y010557D03*
D323*
X021672Y010039D03*
D324*
X021684Y010041D03*
D325*
X021736Y010043D03*
X021292Y010903D03*
D326*
X021270Y010101D03*
X021736Y010049D03*
X021736Y010047D03*
X021736Y010045D03*
D327*
X021441Y010047D03*
D328*
X020932Y010051D03*
X020932Y010049D03*
X020932Y010055D03*
X020932Y010057D03*
X020932Y010059D03*
X020932Y010061D03*
X020922Y010135D03*
X020912Y010221D03*
X020912Y010225D03*
X020912Y010227D03*
X020912Y010229D03*
X020912Y010231D03*
X020902Y010311D03*
X020882Y010471D03*
X020882Y010475D03*
X020882Y010477D03*
X020882Y010479D03*
X020882Y010481D03*
X020872Y010559D03*
X020872Y010561D03*
D329*
X021770Y010051D03*
D330*
X020932Y010053D03*
X020932Y010063D03*
X020922Y010133D03*
X020912Y010223D03*
X020902Y010313D03*
X020882Y010473D03*
X020872Y010563D03*
D331*
X021769Y010053D03*
D332*
X021769Y010055D03*
X021295Y010941D03*
D333*
X021777Y010057D03*
D334*
X021801Y010061D03*
D335*
X021813Y010063D03*
D336*
X020931Y010071D03*
X020931Y010069D03*
X020931Y010067D03*
X020931Y010065D03*
X020931Y010075D03*
X020931Y010077D03*
X020909Y010249D03*
X020909Y010251D03*
X020907Y010265D03*
X020907Y010267D03*
X020907Y010269D03*
X020905Y010285D03*
X020905Y010287D03*
X020905Y010289D03*
X020903Y010299D03*
X020903Y010301D03*
X020903Y010305D03*
X020903Y010307D03*
X020903Y010309D03*
X020901Y010315D03*
X020901Y010317D03*
X020901Y010319D03*
X020901Y010321D03*
X020901Y010325D03*
X020901Y010327D03*
X020899Y010335D03*
X020899Y010337D03*
X020899Y010339D03*
X020899Y010341D03*
X020899Y010345D03*
X020899Y010347D03*
X020897Y010349D03*
X020897Y010351D03*
X020897Y010355D03*
X020897Y010357D03*
X020897Y010359D03*
X020897Y010361D03*
X020895Y010369D03*
X020895Y010371D03*
X020895Y010375D03*
X020895Y010377D03*
X020895Y010379D03*
X020895Y010381D03*
X020893Y010387D03*
X020893Y010389D03*
X020893Y010391D03*
X020893Y010395D03*
X020893Y010397D03*
X020891Y010405D03*
X020889Y010415D03*
X020889Y010417D03*
X020889Y010419D03*
X020889Y010421D03*
X020887Y010435D03*
X020887Y010437D03*
X020885Y010449D03*
X020885Y010451D03*
X020883Y010465D03*
X020883Y010467D03*
X020883Y010469D03*
X020881Y010485D03*
X020879Y010499D03*
X020879Y010501D03*
X020875Y010535D03*
X020875Y010537D03*
X020875Y010539D03*
X020875Y010541D03*
X020875Y010545D03*
X020875Y010547D03*
X020587Y010579D03*
X021221Y011229D03*
D337*
X021824Y010065D03*
D338*
X021836Y010067D03*
D339*
X021848Y010069D03*
X021138Y010211D03*
X021138Y010215D03*
X021138Y010217D03*
X021138Y010219D03*
X021138Y010221D03*
X021114Y010841D03*
D340*
X021304Y011039D03*
X021860Y010071D03*
D341*
X020931Y010073D03*
X020905Y010283D03*
X020903Y010303D03*
X020901Y010323D03*
X020899Y010333D03*
X020899Y010343D03*
X020897Y010353D03*
X020897Y010363D03*
X020895Y010373D03*
X020893Y010393D03*
X020887Y010433D03*
X020885Y010453D03*
X020881Y010483D03*
X020875Y010533D03*
X020875Y010543D03*
D342*
X021040Y010073D03*
D343*
X021872Y010073D03*
D344*
X021057Y010075D03*
X020587Y010585D03*
X021219Y011219D03*
X021545Y010721D03*
X021547Y010719D03*
X021549Y010717D03*
D345*
X021309Y011089D03*
X021907Y010079D03*
D346*
X020927Y010083D03*
X020927Y010093D03*
X020925Y010103D03*
X020925Y010113D03*
X020919Y010163D03*
X020919Y010173D03*
X020915Y010193D03*
X020915Y010203D03*
D347*
X021931Y010083D03*
D348*
X021138Y010085D03*
X021506Y010807D03*
D349*
X021114Y011105D03*
X021110Y011101D03*
X021104Y011095D03*
X021100Y011091D03*
X021094Y011085D03*
X021090Y011081D03*
X021084Y011075D03*
X021080Y011071D03*
X021520Y010191D03*
X021520Y010189D03*
X021520Y010187D03*
X021520Y010185D03*
X021942Y010085D03*
D350*
X021156Y010087D03*
X021140Y010195D03*
X021140Y010197D03*
X021118Y010847D03*
X021506Y010785D03*
D351*
X021562Y010701D03*
X021566Y010695D03*
X021570Y010691D03*
X021574Y010685D03*
X021580Y010677D03*
X021954Y010087D03*
D352*
X021171Y010089D03*
X021101Y010815D03*
D353*
X021189Y010091D03*
D354*
X021205Y010093D03*
X021299Y010973D03*
D355*
X021296Y010957D03*
X021220Y010095D03*
D356*
X021259Y010097D03*
X021259Y010099D03*
X021293Y010915D03*
D357*
X021286Y010103D03*
D358*
X021285Y010105D03*
X021285Y010107D03*
D359*
X021286Y010109D03*
X021286Y010111D03*
X021286Y010115D03*
X021286Y010117D03*
D360*
X021286Y010113D03*
D361*
X020924Y010115D03*
X020920Y010149D03*
X020920Y010151D03*
X020916Y010181D03*
X020916Y010185D03*
X020910Y010235D03*
X020910Y010237D03*
X020910Y010239D03*
X020910Y010241D03*
X020910Y010245D03*
X020910Y010247D03*
X020908Y010255D03*
X020908Y010257D03*
X020908Y010259D03*
X020908Y010261D03*
X020906Y010271D03*
X020906Y010275D03*
X020906Y010277D03*
X020906Y010279D03*
X020906Y010281D03*
X020904Y010291D03*
X020904Y010295D03*
X020904Y010297D03*
X020900Y010329D03*
X020900Y010331D03*
X020890Y010407D03*
X020890Y010409D03*
X020890Y010411D03*
X020888Y010425D03*
X020888Y010427D03*
X020888Y010429D03*
X020888Y010431D03*
X020886Y010439D03*
X020886Y010441D03*
X020886Y010445D03*
X020886Y010447D03*
X020884Y010455D03*
X020884Y010457D03*
X020884Y010459D03*
X020884Y010461D03*
X020880Y010487D03*
X020880Y010489D03*
X020880Y010491D03*
X020880Y010495D03*
X020880Y010497D03*
X020878Y010505D03*
X020878Y010507D03*
X020878Y010509D03*
X020878Y010511D03*
X020876Y010515D03*
X020876Y010517D03*
X020876Y010519D03*
X020876Y010521D03*
X020876Y010525D03*
X020876Y010527D03*
X020876Y010529D03*
X020876Y010531D03*
X020870Y010565D03*
X020870Y010567D03*
X020870Y010569D03*
X020870Y010571D03*
X020870Y010575D03*
X020870Y010577D03*
X020870Y010579D03*
X020868Y010585D03*
X020868Y010587D03*
X020868Y010589D03*
X020868Y010591D03*
X020868Y010595D03*
X020866Y010599D03*
X020866Y010601D03*
X020866Y010605D03*
X020866Y010607D03*
X021220Y011227D03*
D362*
X021285Y010123D03*
D363*
X021286Y010129D03*
X021286Y010131D03*
D364*
X021285Y010133D03*
X021285Y010143D03*
D365*
X021285Y010141D03*
X021285Y010139D03*
X021285Y010137D03*
X021285Y010135D03*
D366*
X021284Y010145D03*
D367*
X021285Y010147D03*
X021285Y010149D03*
X021285Y010151D03*
D368*
X020920Y010153D03*
X020916Y010183D03*
X020910Y010233D03*
X020910Y010243D03*
X020908Y010253D03*
X020908Y010263D03*
X020906Y010273D03*
X020904Y010293D03*
X020890Y010413D03*
X020888Y010423D03*
X020886Y010443D03*
X020884Y010463D03*
X020880Y010493D03*
X020878Y010503D03*
X020878Y010513D03*
X020876Y010523D03*
X020870Y010573D03*
X020868Y010583D03*
X020868Y010593D03*
X020866Y010603D03*
D369*
X020782Y010683D03*
X021144Y010153D03*
D370*
X021385Y010153D03*
X020815Y010723D03*
D371*
X021150Y010879D03*
X021144Y010157D03*
X021144Y010155D03*
D372*
X021518Y010159D03*
X021518Y010161D03*
X021518Y010157D03*
X021518Y010155D03*
X021518Y010165D03*
X021218Y011211D03*
D373*
X021303Y011029D03*
X021153Y010881D03*
X021121Y010851D03*
X021143Y010169D03*
X021143Y010167D03*
X021143Y010165D03*
X021143Y010161D03*
X021143Y010159D03*
D374*
X021143Y010163D03*
D375*
X021518Y010163D03*
D376*
X021519Y010167D03*
X021519Y010169D03*
X021519Y010171D03*
X021519Y010175D03*
X021519Y010177D03*
X021519Y010179D03*
X021519Y010181D03*
X021119Y011111D03*
X021123Y011115D03*
X021125Y011117D03*
X021129Y011121D03*
X021133Y011125D03*
X021135Y011127D03*
X021139Y011131D03*
X021143Y011135D03*
X021145Y011137D03*
X021149Y011141D03*
X021153Y011145D03*
X021155Y011147D03*
D377*
X021142Y010181D03*
X021142Y010179D03*
X021142Y010177D03*
X021142Y010175D03*
X021142Y010171D03*
D378*
X021142Y010173D03*
X021142Y010183D03*
D379*
X021519Y010183D03*
X021519Y010173D03*
X021121Y011113D03*
X021131Y011123D03*
X021141Y011133D03*
X021151Y011143D03*
D380*
X021303Y011027D03*
X021117Y010845D03*
X021139Y010209D03*
X021139Y010207D03*
X021139Y010205D03*
X021139Y010201D03*
X021139Y010199D03*
X021141Y010191D03*
X021141Y010189D03*
X021141Y010187D03*
X021141Y010185D03*
D381*
X021140Y010193D03*
D382*
X021520Y010193D03*
X021082Y011073D03*
X021092Y011083D03*
X021102Y011093D03*
X021112Y011103D03*
D383*
X021075Y011065D03*
X021069Y011059D03*
X021067Y011057D03*
X021065Y011055D03*
X021059Y011049D03*
X021057Y011047D03*
X021055Y011045D03*
X021049Y011039D03*
X021047Y011037D03*
X021045Y011035D03*
X021039Y011029D03*
X021037Y011027D03*
X021035Y011025D03*
X021519Y010201D03*
X021519Y010199D03*
X021519Y010197D03*
X021519Y010195D03*
D384*
X021139Y010203D03*
X021115Y010843D03*
D385*
X020994Y010983D03*
X021004Y010993D03*
X021014Y011003D03*
X021024Y011013D03*
X021034Y011023D03*
X021520Y010213D03*
X021520Y010203D03*
D386*
X021138Y010213D03*
X021138Y010223D03*
D387*
X021137Y010225D03*
X021137Y010227D03*
X021137Y010229D03*
X021137Y010231D03*
X021137Y010235D03*
D388*
X021137Y010233D03*
X021159Y010883D03*
X021505Y010783D03*
D389*
X021136Y010249D03*
X021136Y010247D03*
X021136Y010245D03*
X021136Y010241D03*
X021136Y010239D03*
X021136Y010237D03*
D390*
X021522Y010241D03*
X021522Y010245D03*
X021522Y010247D03*
X021522Y010249D03*
X021522Y010251D03*
X021522Y010255D03*
X021522Y010257D03*
X021522Y010259D03*
X020912Y010899D03*
X020922Y010909D03*
X020932Y010919D03*
X020942Y010929D03*
X020952Y010939D03*
D391*
X021136Y010243D03*
D392*
X021522Y010243D03*
X021522Y010253D03*
D393*
X021135Y010257D03*
X021135Y010259D03*
X021135Y010261D03*
X021135Y010255D03*
X021135Y010251D03*
X021133Y010269D03*
X021133Y010271D03*
X021133Y010275D03*
X021505Y010781D03*
X021111Y010835D03*
D394*
X021303Y011023D03*
X021133Y010273D03*
X021135Y010263D03*
X021135Y010253D03*
D395*
X021523Y010261D03*
X021523Y010265D03*
X021523Y010267D03*
X021523Y010269D03*
X021523Y010271D03*
X021523Y010275D03*
X020903Y010889D03*
X020901Y010887D03*
X020893Y010879D03*
X020891Y010877D03*
X020883Y010869D03*
X020881Y010867D03*
X020873Y010859D03*
X020871Y010857D03*
D396*
X021523Y010273D03*
X021523Y010263D03*
D397*
X021134Y010267D03*
X021134Y010265D03*
X021132Y010277D03*
X021132Y010279D03*
X021132Y010281D03*
X021132Y010285D03*
X021132Y010287D03*
X021132Y010289D03*
X021108Y010831D03*
X021302Y011021D03*
D398*
X021293Y011141D03*
X021289Y011145D03*
X021289Y011147D03*
X020825Y010809D03*
X020823Y010807D03*
X020821Y010805D03*
X020815Y010799D03*
X020813Y010797D03*
X020811Y010795D03*
X020805Y010789D03*
X020803Y010787D03*
X020801Y010785D03*
X020795Y010779D03*
X020793Y010777D03*
X020791Y010775D03*
X020901Y010715D03*
X021523Y010297D03*
X021523Y010295D03*
X021523Y010291D03*
X021523Y010289D03*
X021523Y010287D03*
X021523Y010285D03*
X021523Y010281D03*
X021523Y010279D03*
D399*
X021132Y010283D03*
X021110Y010833D03*
D400*
X020819Y010803D03*
X020809Y010793D03*
X020799Y010783D03*
X020789Y010773D03*
X021291Y011143D03*
X021523Y010293D03*
X021523Y010283D03*
D401*
X021131Y010291D03*
X021131Y010295D03*
X021131Y010297D03*
X021131Y010299D03*
X021131Y010301D03*
D402*
X021131Y010303D03*
X021131Y010293D03*
D403*
X021524Y010303D03*
X021524Y010313D03*
X020780Y010763D03*
X020770Y010753D03*
X020760Y010743D03*
X021298Y011133D03*
D404*
X021302Y011019D03*
X021504Y010779D03*
X021130Y010315D03*
X021130Y010311D03*
X021130Y010309D03*
X021130Y010307D03*
X021130Y010305D03*
D405*
X021130Y010313D03*
D406*
X021525Y010317D03*
X021525Y010319D03*
X021525Y010321D03*
X021525Y010325D03*
X021525Y010327D03*
X021525Y010329D03*
X021525Y010331D03*
X020753Y010735D03*
X020749Y010731D03*
X020739Y010721D03*
X020733Y010715D03*
X020729Y010711D03*
X020725Y010707D03*
X020723Y010705D03*
X020719Y010701D03*
X020715Y010697D03*
X020713Y010695D03*
X020709Y010691D03*
X020705Y010687D03*
X021299Y011131D03*
X021301Y011129D03*
D407*
X021129Y010323D03*
D408*
X021525Y010323D03*
X021525Y010333D03*
X020751Y010733D03*
X020741Y010723D03*
X020731Y010713D03*
X020721Y010703D03*
X020711Y010693D03*
D409*
X021526Y010343D03*
D410*
X021525Y010353D03*
X021305Y011123D03*
D411*
X021310Y011115D03*
X021216Y011195D03*
X020740Y010719D03*
X020706Y010685D03*
X021526Y010371D03*
X021526Y010369D03*
X021526Y010367D03*
X021526Y010365D03*
X021526Y010361D03*
X021526Y010359D03*
X021526Y010357D03*
X021526Y010355D03*
D412*
X021526Y010363D03*
D413*
X021520Y010561D03*
X020874Y010557D03*
X020874Y010555D03*
X020874Y010551D03*
X020874Y010549D03*
X020894Y010385D03*
X020896Y010367D03*
X020896Y010365D03*
D414*
X020981Y010373D03*
X021223Y011253D03*
D415*
X020874Y010553D03*
X020894Y010383D03*
D416*
X020980Y010383D03*
X020980Y010393D03*
X021540Y010563D03*
X021540Y010573D03*
X021540Y010583D03*
X021540Y010593D03*
D417*
X020892Y010401D03*
X020892Y010399D03*
D418*
X020892Y010403D03*
D419*
X021529Y010413D03*
X021529Y010423D03*
D420*
X021530Y010433D03*
D421*
X020977Y010443D03*
D422*
X021529Y010443D03*
D423*
X021532Y010493D03*
D424*
X021419Y010503D03*
X021299Y010983D03*
D425*
X021420Y010521D03*
X021420Y010519D03*
X021420Y010517D03*
X021420Y010515D03*
X021420Y010511D03*
X021420Y010509D03*
X021420Y010507D03*
X021420Y010505D03*
D426*
X021420Y010513D03*
X021420Y010523D03*
D427*
X020972Y010523D03*
D428*
X021409Y010525D03*
D429*
X021374Y010527D03*
X021294Y010931D03*
D430*
X021343Y010529D03*
D431*
X021276Y010531D03*
X021276Y010535D03*
X021276Y010537D03*
X021276Y010539D03*
D432*
X021276Y010533D03*
D433*
X021275Y010541D03*
D434*
X021276Y010543D03*
X021276Y010553D03*
D435*
X021276Y010551D03*
X021276Y010549D03*
X021276Y010547D03*
X021276Y010545D03*
D436*
X021262Y010559D03*
D437*
X021195Y010561D03*
D438*
X021149Y010563D03*
D439*
X021481Y010563D03*
D440*
X021102Y010565D03*
X021100Y010811D03*
X021302Y011009D03*
D441*
X021226Y011149D03*
X021060Y010567D03*
D442*
X020586Y010573D03*
D443*
X020587Y010583D03*
D444*
X020589Y010587D03*
X021219Y011217D03*
D445*
X020600Y010597D03*
X020598Y010595D03*
X020590Y010589D03*
D446*
X020592Y010591D03*
D447*
X020596Y010593D03*
D448*
X020916Y010903D03*
X020926Y010913D03*
X020936Y010923D03*
X020946Y010933D03*
X021686Y010593D03*
D449*
X021705Y010595D03*
X021215Y011181D03*
D450*
X020603Y010599D03*
D451*
X021304Y011037D03*
X021646Y010599D03*
D452*
X021219Y011215D03*
X020605Y010601D03*
D453*
X021573Y010601D03*
D454*
X020607Y010603D03*
D455*
X021500Y010603D03*
D456*
X020614Y010609D03*
X020612Y010607D03*
X020610Y010605D03*
D457*
X021427Y010605D03*
D458*
X021306Y010609D03*
D459*
X020616Y010611D03*
D460*
X021305Y010611D03*
D461*
X020618Y010613D03*
D462*
X021177Y010615D03*
D463*
X021178Y010617D03*
D464*
X021179Y010619D03*
D465*
X021180Y010621D03*
D466*
X021181Y010623D03*
D467*
X021182Y010625D03*
D468*
X021183Y010627D03*
D469*
X021184Y010629D03*
D470*
X021185Y010631D03*
D471*
X021186Y010633D03*
D472*
X021187Y010635D03*
D473*
X021187Y010637D03*
D474*
X021188Y010639D03*
D475*
X021189Y010641D03*
D476*
X021190Y010643D03*
D477*
X021190Y010645D03*
D478*
X021175Y010647D03*
D479*
X021174Y010649D03*
D480*
X021152Y010651D03*
D481*
X021140Y010653D03*
D482*
X021138Y010655D03*
D483*
X021136Y010657D03*
D484*
X021132Y010661D03*
D485*
X021131Y010663D03*
D486*
X021130Y010665D03*
D487*
X021129Y010667D03*
D488*
X021129Y010669D03*
D489*
X021128Y010671D03*
D490*
X021128Y010673D03*
D491*
X021128Y010675D03*
D492*
X021010Y010677D03*
D493*
X020934Y010679D03*
D494*
X020858Y010681D03*
X021296Y010947D03*
D495*
X021297Y011135D03*
X020727Y010709D03*
X020717Y010699D03*
X020707Y010689D03*
D496*
X021220Y011223D03*
X021560Y010703D03*
X021568Y010693D03*
D497*
X021565Y010697D03*
X021563Y010699D03*
X021559Y010705D03*
X021555Y010709D03*
D498*
X021557Y010707D03*
D499*
X021554Y010711D03*
X021550Y010715D03*
X021220Y011221D03*
D500*
X021552Y010713D03*
D501*
X021503Y010819D03*
X021305Y011055D03*
X020961Y010717D03*
D502*
X021022Y010719D03*
X021300Y010991D03*
D503*
X021083Y010721D03*
D504*
X021144Y010723D03*
D505*
X021543Y010723D03*
D506*
X021304Y011125D03*
X021302Y011127D03*
X020744Y010725D03*
D507*
X021218Y010725D03*
D508*
X021265Y010727D03*
X021277Y010739D03*
D509*
X021276Y010729D03*
D510*
X021276Y010731D03*
D511*
X021277Y010737D03*
D512*
X021277Y010741D03*
D513*
X021277Y010743D03*
D514*
X021277Y010745D03*
D515*
X021279Y010749D03*
D516*
X021279Y010751D03*
D517*
X021279Y010753D03*
D518*
X021279Y010755D03*
D519*
X021279Y010757D03*
D520*
X021279Y010759D03*
D521*
X021280Y010763D03*
D522*
X021280Y010765D03*
D523*
X021280Y010767D03*
D524*
X021280Y010769D03*
D525*
X020827Y010811D03*
X020817Y010801D03*
X020807Y010791D03*
X020797Y010781D03*
X020787Y010771D03*
X021217Y011201D03*
D526*
X021280Y010773D03*
D527*
X021106Y010775D03*
D528*
X021496Y010775D03*
D529*
X021101Y010777D03*
D530*
X021302Y011015D03*
X021502Y010777D03*
D531*
X021299Y010975D03*
X021099Y010779D03*
D532*
X021098Y010781D03*
D533*
X021097Y010783D03*
D534*
X021097Y010785D03*
D535*
X021096Y010787D03*
D536*
X021119Y010849D03*
X021507Y010787D03*
D537*
X021300Y010989D03*
X021096Y010789D03*
D538*
X021507Y010789D03*
D539*
X021096Y010791D03*
D540*
X021137Y010869D03*
X021507Y010791D03*
D541*
X021300Y010993D03*
X021096Y010793D03*
D542*
X021507Y010793D03*
D543*
X021300Y010995D03*
X021096Y010795D03*
D544*
X021507Y010795D03*
D545*
X021097Y010797D03*
D546*
X021507Y010797D03*
D547*
X021097Y010799D03*
D548*
X021508Y010799D03*
D549*
X021097Y010801D03*
D550*
X021507Y010801D03*
D551*
X021098Y010803D03*
D552*
X021507Y010803D03*
D553*
X021098Y010805D03*
D554*
X021506Y010805D03*
D555*
X021301Y011005D03*
X021099Y010807D03*
D556*
X021099Y010809D03*
D557*
X021305Y011049D03*
X021505Y010811D03*
X021505Y010809D03*
D558*
X020868Y010853D03*
X020858Y010843D03*
X020848Y010833D03*
X020838Y010823D03*
X020828Y010813D03*
D559*
X021101Y010813D03*
D560*
X021505Y010813D03*
D561*
X021504Y010815D03*
D562*
X021102Y010817D03*
D563*
X021503Y010817D03*
D564*
X021103Y010819D03*
D565*
X020866Y010851D03*
X020856Y010841D03*
X020846Y010831D03*
X020836Y010821D03*
D566*
X021104Y010821D03*
D567*
X021502Y010821D03*
D568*
X021105Y010823D03*
D569*
X021502Y010823D03*
D570*
X021106Y010825D03*
D571*
X021501Y010825D03*
D572*
X021106Y010827D03*
D573*
X021107Y010829D03*
D574*
X021499Y010829D03*
D575*
X021498Y010831D03*
X021306Y011061D03*
X021226Y011155D03*
D576*
X021497Y010833D03*
D577*
X021496Y010835D03*
X021496Y010837D03*
X021458Y010881D03*
X021226Y011157D03*
D578*
X021112Y010837D03*
D579*
X021113Y010839D03*
X021303Y011025D03*
D580*
X021306Y011067D03*
X021468Y010875D03*
X021488Y010851D03*
D581*
X021123Y010853D03*
D582*
X021486Y010853D03*
D583*
X020909Y010895D03*
X020905Y010891D03*
X020899Y010885D03*
X020895Y010881D03*
X020889Y010875D03*
X020885Y010871D03*
X020879Y010865D03*
X020875Y010861D03*
X020869Y010855D03*
D584*
X021485Y010855D03*
D585*
X021146Y010877D03*
X021144Y010875D03*
X021130Y010861D03*
X021128Y010859D03*
X021126Y010857D03*
D586*
X020907Y010893D03*
X020897Y010883D03*
X020887Y010873D03*
X020877Y010863D03*
X021217Y011203D03*
D587*
X021303Y011033D03*
X021141Y010873D03*
X021131Y010863D03*
D588*
X021227Y011163D03*
X021479Y010863D03*
D589*
X021139Y010871D03*
X021135Y010867D03*
X021133Y010865D03*
D590*
X021306Y011069D03*
X021474Y010869D03*
X021476Y010867D03*
X021478Y010865D03*
D591*
X021470Y010873D03*
D592*
X021453Y010883D03*
D593*
X021291Y010885D03*
D594*
X021291Y010887D03*
D595*
X021291Y010889D03*
D596*
X021291Y010891D03*
D597*
X021291Y010893D03*
D598*
X021291Y010895D03*
D599*
X021218Y011205D03*
X020950Y010937D03*
X020948Y010935D03*
X020944Y010931D03*
X020940Y010927D03*
X020938Y010925D03*
X020934Y010921D03*
X020930Y010917D03*
X020928Y010915D03*
X020924Y010911D03*
X020920Y010907D03*
X020918Y010905D03*
X020914Y010901D03*
X020910Y010897D03*
D600*
X021292Y010897D03*
D601*
X021292Y010899D03*
D602*
X021292Y010901D03*
D603*
X021292Y010905D03*
D604*
X021292Y010907D03*
D605*
X021292Y010909D03*
D606*
X021293Y010911D03*
D607*
X021293Y010913D03*
D608*
X021293Y010917D03*
D609*
X021293Y010919D03*
D610*
X021293Y010921D03*
D611*
X021294Y010923D03*
D612*
X021294Y010925D03*
D613*
X021294Y010927D03*
D614*
X021294Y010929D03*
D615*
X021294Y010933D03*
D616*
X021295Y010935D03*
D617*
X021295Y010939D03*
D618*
X021295Y010943D03*
D619*
X021295Y010945D03*
D620*
X021296Y010949D03*
D621*
X021296Y010953D03*
D622*
X021296Y010955D03*
D623*
X021297Y010959D03*
D624*
X021297Y010961D03*
D625*
X021297Y010963D03*
D626*
X021297Y010965D03*
D627*
X021297Y010967D03*
D628*
X021297Y010969D03*
D629*
X021297Y010971D03*
D630*
X021299Y010977D03*
D631*
X021299Y010979D03*
D632*
X021299Y010981D03*
D633*
X021300Y010985D03*
D634*
X021032Y011021D03*
X021022Y011011D03*
X021012Y011001D03*
X021002Y010991D03*
D635*
X021301Y010997D03*
D636*
X021301Y010999D03*
D637*
X021301Y011001D03*
D638*
X021301Y011003D03*
D639*
X021301Y011007D03*
D640*
X021302Y011011D03*
D641*
X021302Y011013D03*
D642*
X021302Y011017D03*
D643*
X021071Y011061D03*
X021061Y011051D03*
X021051Y011041D03*
X021041Y011031D03*
D644*
X021043Y011033D03*
X021053Y011043D03*
X021063Y011053D03*
X021073Y011063D03*
D645*
X021304Y011035D03*
D646*
X021304Y011041D03*
D647*
X021304Y011043D03*
D648*
X021304Y011045D03*
D649*
X021305Y011047D03*
D650*
X021305Y011051D03*
D651*
X021305Y011053D03*
D652*
X021305Y011057D03*
D653*
X021306Y011063D03*
D654*
X021307Y011077D03*
D655*
X021310Y011103D03*
D656*
X021147Y011139D03*
X021137Y011129D03*
X021127Y011119D03*
X021117Y011109D03*
D657*
X021226Y011151D03*
D658*
X021226Y011153D03*
D659*
X021227Y011161D03*
D660*
X021215Y011183D03*
D661*
X021317Y011185D03*
D662*
X021317Y011189D03*
D663*
X021219Y011213D03*
D664*
X021221Y011231D03*
D665*
X021222Y011241D03*
D666*
X021224Y011263D03*
D667*
X021226Y011273D03*
D668*
X022611Y011681D02*
X022611Y012181D01*
X022861Y012431D01*
X022611Y012681D01*
X022611Y013181D01*
X022861Y013431D01*
X022611Y013681D01*
X022611Y014181D01*
X022861Y014431D01*
X022611Y014681D01*
X022611Y015181D01*
X022861Y015431D01*
X022611Y015681D01*
X022611Y016181D01*
X022861Y016431D01*
X022611Y016681D01*
X022611Y017181D01*
X022861Y017431D01*
X023361Y017431D01*
X023611Y017181D01*
X023611Y016681D01*
X023361Y016431D01*
X023611Y016181D01*
X023611Y015681D01*
X023361Y015431D01*
X022861Y015431D01*
X023361Y015431D02*
X023611Y015181D01*
X023611Y014681D01*
X023361Y014431D01*
X023611Y014181D01*
X023611Y013681D01*
X023361Y013431D01*
X023611Y013181D01*
X023611Y012681D01*
X023361Y012431D01*
X023611Y012181D01*
X023611Y011681D01*
X023361Y011431D01*
X022861Y011431D01*
X022611Y011681D01*
X022911Y011231D02*
X023311Y011231D01*
X023411Y011204D01*
X023484Y011131D01*
X023511Y011031D01*
X023511Y006431D01*
X023461Y006381D02*
X022761Y006381D01*
X022761Y007081D01*
X023461Y007081D01*
X023461Y006381D01*
X023511Y006431D02*
X023484Y006331D01*
X023411Y006258D01*
X023311Y006231D01*
X022911Y006231D01*
X022811Y006258D01*
X022738Y006331D01*
X022711Y006431D01*
X022711Y011031D01*
X022738Y011131D01*
X022811Y011204D01*
X022911Y011231D01*
X022861Y012431D02*
X023361Y012431D01*
X023361Y013431D02*
X022861Y013431D01*
X022261Y013681D02*
X022261Y013831D01*
X022211Y013881D01*
X022211Y015781D01*
X022261Y015831D01*
X022261Y015981D01*
X022248Y016031D01*
X022211Y016068D01*
X022161Y016081D01*
X021461Y016081D01*
X021411Y016068D01*
X021374Y016031D01*
X021361Y015981D01*
X021361Y015831D01*
X021411Y015781D01*
X021411Y013881D01*
X021361Y013831D01*
X021361Y013681D01*
X021374Y013631D01*
X021411Y013594D01*
X021461Y013581D01*
X022161Y013581D01*
X022211Y013594D01*
X022248Y013631D01*
X022261Y013681D01*
X021311Y013531D02*
X021311Y015131D01*
X021298Y015181D01*
X021261Y015218D01*
X021211Y015231D01*
X020611Y015231D01*
X020561Y015218D01*
X020524Y015181D01*
X020511Y015131D01*
X020511Y013531D01*
X020524Y013481D01*
X020561Y013444D01*
X020611Y013431D01*
X021211Y013431D01*
X021261Y013444D01*
X021298Y013481D01*
X021311Y013531D01*
X020911Y013731D02*
X020911Y014331D01*
X021161Y014331D01*
X021161Y014231D01*
X020911Y014331D02*
X020661Y013931D01*
X021161Y013931D01*
X020911Y014331D01*
X020661Y014331D01*
X020911Y014331D02*
X020911Y014581D01*
X022861Y014431D02*
X023361Y014431D01*
X023361Y016431D02*
X022861Y016431D01*
X024461Y018431D02*
X024961Y018431D01*
X025061Y018458D01*
X025134Y018531D01*
X025161Y018631D01*
X025161Y019931D01*
X025134Y020031D01*
X025061Y020104D01*
X024961Y020131D01*
X024461Y020131D01*
X024361Y020104D01*
X024288Y020031D01*
X024261Y019931D01*
X024261Y018631D01*
X024288Y018531D01*
X024361Y018458D01*
X024461Y018431D01*
X024111Y019281D02*
X024111Y021581D01*
X020111Y021581D01*
X020111Y020831D01*
X020264Y020801D01*
X020394Y020714D01*
X020481Y020584D01*
X020511Y020431D01*
X020481Y020278D01*
X020394Y020148D01*
X020264Y020061D01*
X020111Y020031D01*
X020111Y019281D01*
X024111Y019281D01*
X018561Y019381D02*
X018561Y018681D01*
X018548Y018631D01*
X018511Y018594D01*
X018461Y018581D01*
X018311Y018581D01*
X018261Y018631D01*
X016361Y018631D01*
X016311Y018581D01*
X016161Y018581D01*
X016111Y018594D01*
X016074Y018631D01*
X016061Y018681D01*
X016061Y019381D01*
X016074Y019431D01*
X016111Y019468D01*
X016161Y019481D01*
X016311Y019481D01*
X016361Y019431D01*
X018261Y019431D01*
X018311Y019481D01*
X018461Y019481D01*
X018511Y019468D01*
X018548Y019431D01*
X018561Y019381D01*
X018461Y019581D02*
X018311Y019581D01*
X018261Y019631D01*
X016361Y019631D01*
X016311Y019581D01*
X016161Y019581D01*
X016111Y019594D01*
X016074Y019631D01*
X016061Y019681D01*
X016061Y020381D01*
X016074Y020431D01*
X016111Y020468D01*
X016161Y020481D01*
X016311Y020481D01*
X016361Y020431D01*
X018261Y020431D01*
X018311Y020481D01*
X018461Y020481D01*
X018511Y020468D01*
X018548Y020431D01*
X018561Y020381D01*
X018561Y019681D01*
X018548Y019631D01*
X018511Y019594D01*
X018461Y019581D01*
X018461Y020581D02*
X018311Y020581D01*
X018261Y020631D01*
X016361Y020631D01*
X016311Y020581D01*
X016161Y020581D01*
X016111Y020594D01*
X016074Y020631D01*
X016061Y020681D01*
X016061Y021381D01*
X016074Y021431D01*
X016111Y021468D01*
X016161Y021481D01*
X016311Y021481D01*
X016361Y021431D01*
X018261Y021431D01*
X018311Y021481D01*
X018461Y021481D01*
X018511Y021468D01*
X018548Y021431D01*
X018561Y021381D01*
X018561Y020681D01*
X018548Y020631D01*
X018511Y020594D01*
X018461Y020581D01*
X018461Y021581D02*
X018311Y021581D01*
X018261Y021631D01*
X016361Y021631D01*
X016311Y021581D01*
X016161Y021581D01*
X016111Y021594D01*
X016074Y021631D01*
X016061Y021681D01*
X016061Y022381D01*
X016074Y022431D01*
X016111Y022468D01*
X016161Y022481D01*
X016311Y022481D01*
X016361Y022431D01*
X018261Y022431D01*
X018311Y022481D01*
X018461Y022481D01*
X018511Y022468D01*
X018548Y022431D01*
X018561Y022381D01*
X018561Y021681D01*
X018548Y021631D01*
X018511Y021594D01*
X018461Y021581D01*
X014311Y019081D02*
X014311Y018781D01*
X014161Y018931D02*
X014461Y018931D01*
X013261Y019431D02*
X013161Y019431D01*
X013161Y018981D01*
X012911Y018981D01*
X012911Y019881D01*
X013161Y019881D01*
X013161Y019431D01*
X010811Y019431D02*
X010849Y019821D01*
X010963Y020196D01*
X011148Y020542D01*
X011397Y020845D01*
X011700Y021094D01*
X012046Y021279D01*
X012421Y021393D01*
X012811Y021431D01*
X013201Y021393D01*
X013576Y021279D01*
X013922Y021094D01*
X014225Y020845D01*
X014474Y020542D01*
X014659Y020196D01*
X014773Y019821D01*
X014811Y019431D01*
X014773Y019041D01*
X014659Y018666D01*
X014474Y018320D01*
X014225Y018017D01*
X013922Y017768D01*
X013576Y017583D01*
X013201Y017469D01*
X012811Y017431D01*
X012421Y017469D01*
X012046Y017583D01*
X011700Y017768D01*
X011397Y018017D01*
X011148Y018320D01*
X010963Y018666D01*
X010849Y019041D01*
X010811Y019431D01*
X012361Y019431D02*
X012561Y019431D01*
X009311Y019831D02*
X007111Y019831D01*
X007111Y005231D01*
X007961Y005231D01*
X007986Y005339D01*
X008055Y005426D01*
X008155Y005475D01*
X008267Y005475D01*
X008367Y005426D01*
X008436Y005339D01*
X008461Y005231D01*
X009311Y005231D01*
X009311Y019831D01*
X006011Y020581D02*
X005861Y020431D01*
X005161Y020431D01*
X005011Y020581D01*
X004861Y020431D01*
X004161Y020431D01*
X004011Y020581D01*
X003861Y020431D01*
X003161Y020431D01*
X003011Y020581D01*
X003011Y022281D01*
X003161Y022431D01*
X003861Y022431D01*
X004011Y022281D01*
X004161Y022431D01*
X004861Y022431D01*
X005011Y022281D01*
X005161Y022431D01*
X005861Y022431D01*
X006011Y022281D01*
X006011Y020581D01*
X004221Y019631D02*
X004221Y019031D01*
X004208Y018981D01*
X004171Y018944D01*
X004121Y018931D01*
X002521Y018931D01*
X002471Y018944D01*
X002434Y018981D01*
X002421Y019031D01*
X002421Y019631D01*
X002434Y019681D01*
X002471Y019718D01*
X002521Y019731D01*
X004121Y019731D01*
X004171Y019718D01*
X004208Y019681D01*
X004221Y019631D01*
X003571Y019331D02*
X003321Y019331D01*
X003321Y019081D01*
X003221Y019081D01*
X003321Y019331D02*
X002721Y019331D01*
X002921Y019081D02*
X003321Y019331D01*
X003321Y019581D01*
X003321Y019331D02*
X002921Y019581D01*
X002921Y019081D01*
X001361Y018131D02*
X001361Y016431D01*
X001411Y016431D01*
X001411Y015831D01*
X001361Y015831D01*
X001361Y015281D01*
X001561Y015131D01*
X001561Y014931D01*
X001561Y014331D01*
X001561Y014131D01*
X001361Y013981D01*
X001361Y012431D01*
X001761Y012431D01*
X001861Y012431D01*
X001861Y014331D01*
X001861Y014931D01*
X001861Y017631D01*
X004361Y017631D01*
X004361Y005631D01*
X001861Y005631D01*
X001861Y007331D01*
X001861Y007931D01*
X001861Y010831D01*
X001761Y010831D01*
X001361Y010831D01*
X001361Y012431D01*
X001861Y012431D02*
X002161Y012431D01*
X002161Y010831D01*
X001861Y010831D01*
X001361Y010831D02*
X001361Y008281D01*
X001561Y008131D01*
X001561Y007931D01*
X001561Y007331D01*
X001761Y007331D01*
X001861Y007331D01*
X001561Y007331D02*
X001561Y007131D01*
X001361Y006981D01*
X001361Y005131D01*
X004861Y005131D01*
X004861Y005631D01*
X004961Y005631D01*
X004961Y006131D01*
X004861Y006131D01*
X004861Y011381D01*
X004961Y011381D01*
X004961Y011881D01*
X004861Y011881D01*
X004861Y017131D01*
X004961Y017131D01*
X004961Y017631D01*
X004861Y017631D01*
X004861Y018131D01*
X001361Y018131D01*
X005111Y016381D02*
X005111Y013681D01*
X005124Y013631D01*
X005161Y013594D01*
X005211Y013581D01*
X006011Y013581D01*
X006011Y013481D02*
X005211Y013481D01*
X005161Y013468D01*
X005124Y013431D01*
X005111Y013381D01*
X005111Y010681D01*
X005124Y010631D01*
X005161Y010594D01*
X005211Y010581D01*
X006011Y010581D01*
X006061Y010594D01*
X006098Y010631D01*
X006111Y010681D01*
X006111Y013381D01*
X006098Y013431D01*
X006061Y013468D01*
X006011Y013481D01*
X006011Y013581D02*
X006061Y013594D01*
X006098Y013631D01*
X006111Y013681D01*
X006111Y016381D01*
X006098Y016431D01*
X006061Y016468D01*
X006011Y016481D01*
X005211Y016481D01*
X005161Y016468D01*
X005124Y016431D01*
X005111Y016381D01*
X005611Y015631D02*
X005611Y015151D01*
X005611Y014901D02*
X005611Y014431D01*
X005611Y012631D02*
X005611Y012151D01*
X005611Y011901D02*
X005611Y011431D01*
X010561Y009191D02*
X010561Y009041D01*
X010611Y008991D01*
X010611Y007091D01*
X010561Y007041D01*
X010561Y006891D01*
X010574Y006841D01*
X010611Y006804D01*
X010661Y006791D01*
X011361Y006791D01*
X011411Y006804D01*
X011448Y006841D01*
X011461Y006891D01*
X011461Y007041D01*
X011411Y007091D01*
X011411Y008991D01*
X011461Y009041D01*
X011461Y009191D01*
X011448Y009241D01*
X011411Y009278D01*
X011361Y009291D01*
X010661Y009291D01*
X010611Y009278D01*
X010574Y009241D01*
X010561Y009191D01*
X013611Y009381D02*
X013611Y009881D01*
X013861Y010131D01*
X013611Y010381D01*
X013611Y010881D01*
X013861Y011131D01*
X014361Y011131D01*
X014611Y010881D01*
X014611Y010381D01*
X014361Y010131D01*
X014611Y009881D01*
X014611Y009381D01*
X014361Y009131D01*
X013861Y009131D01*
X013611Y009381D01*
X013861Y009131D02*
X013611Y008881D01*
X013611Y008381D01*
X013861Y008131D01*
X013611Y007881D01*
X013611Y007381D01*
X013861Y007131D01*
X013611Y006881D01*
X013611Y006381D01*
X013861Y006131D01*
X013611Y005881D01*
X013611Y005381D01*
X013861Y005131D01*
X014361Y005131D01*
X014611Y005381D01*
X014611Y005881D01*
X014361Y006131D01*
X013861Y006131D01*
X014361Y006131D02*
X014611Y006381D01*
X014611Y006881D01*
X014361Y007131D01*
X013861Y007131D01*
X014361Y007131D02*
X014611Y007381D01*
X014611Y007881D01*
X014361Y008131D01*
X013861Y008131D01*
X014361Y008131D02*
X014611Y008381D01*
X014611Y008881D01*
X014361Y009131D01*
X015111Y009831D02*
X015111Y014431D01*
X015138Y014531D01*
X015211Y014604D01*
X015311Y014631D01*
X015711Y014631D01*
X015811Y014604D01*
X015884Y014531D01*
X015911Y014431D01*
X015911Y009831D01*
X015861Y009781D02*
X015161Y009781D01*
X015161Y010481D01*
X015861Y010481D01*
X015861Y009781D01*
X015911Y009831D02*
X015884Y009731D01*
X015811Y009658D01*
X015711Y009631D01*
X015311Y009631D01*
X015211Y009658D01*
X015138Y009731D01*
X015111Y009831D01*
X014361Y010131D02*
X013861Y010131D01*
X016911Y008631D02*
X016911Y008031D01*
X016924Y007981D01*
X016961Y007944D01*
X017011Y007931D01*
X018611Y007931D01*
X018661Y007944D01*
X018698Y007981D01*
X018711Y008031D01*
X018711Y008631D01*
X018698Y008681D01*
X018661Y008718D01*
X018611Y008731D01*
X017011Y008731D01*
X016961Y008718D01*
X016924Y008681D01*
X016911Y008631D01*
X017211Y008331D02*
X017811Y008331D01*
X017811Y008081D01*
X017711Y008081D01*
X017811Y008331D02*
X017411Y008081D01*
X017411Y008581D01*
X017811Y008331D01*
X017811Y008581D01*
X017811Y008331D02*
X018061Y008331D01*
X018231Y007521D02*
X017031Y007521D01*
X017031Y006821D01*
X018231Y006821D01*
X018231Y007521D01*
X017681Y007371D02*
X017681Y007171D01*
X017681Y006971D01*
X017581Y006971D01*
X017681Y007171D02*
X017131Y007171D01*
X017281Y006971D02*
X017681Y007171D01*
X017281Y007371D01*
X017281Y006971D01*
X017681Y007171D02*
X017831Y007171D01*
X018461Y006531D02*
X018511Y006581D01*
X018661Y006581D01*
X018711Y006568D01*
X018748Y006531D01*
X018761Y006481D01*
X018761Y005781D01*
X018748Y005731D01*
X018711Y005694D01*
X018661Y005681D01*
X018511Y005681D01*
X018461Y005731D01*
X016561Y005731D01*
X016511Y005681D01*
X016361Y005681D01*
X016361Y005581D02*
X016511Y005581D01*
X016561Y005531D01*
X018461Y005531D01*
X018511Y005581D01*
X018661Y005581D01*
X018711Y005568D01*
X018748Y005531D01*
X018761Y005481D01*
X018761Y004781D01*
X018748Y004731D01*
X018711Y004694D01*
X018661Y004681D01*
X018511Y004681D01*
X018461Y004731D01*
X016561Y004731D01*
X016511Y004681D01*
X016361Y004681D01*
X016311Y004694D01*
X016274Y004731D01*
X016261Y004781D01*
X016261Y005481D01*
X016274Y005531D01*
X016311Y005568D01*
X016361Y005581D01*
X016361Y005681D02*
X016311Y005694D01*
X016274Y005731D01*
X016261Y005781D01*
X016261Y006481D01*
X016274Y006531D01*
X016311Y006568D01*
X016361Y006581D01*
X016511Y006581D01*
X016561Y006531D01*
X018461Y006531D01*
X020741Y004349D02*
X020883Y004121D01*
X021082Y003942D01*
X021324Y003825D01*
X021589Y003781D01*
X021856Y003813D01*
X022103Y003918D01*
X022311Y004089D01*
X022311Y005373D01*
X022103Y005544D01*
X021856Y005649D01*
X021589Y005681D01*
X021324Y005637D01*
X021082Y005520D01*
X020883Y005341D01*
X020741Y005113D01*
X018961Y004431D02*
X018961Y003631D01*
X018948Y003581D01*
X018911Y003544D01*
X018861Y003531D01*
X016161Y003531D01*
X016111Y003544D01*
X016074Y003581D01*
X016061Y003631D01*
X016061Y004431D01*
X016074Y004481D01*
X016111Y004518D01*
X016161Y004531D01*
X018861Y004531D01*
X018911Y004518D01*
X018948Y004481D01*
X018961Y004431D01*
X018111Y004031D02*
X017631Y004031D01*
X017381Y004031D02*
X016911Y004031D01*
X016511Y003481D02*
X016361Y003481D01*
X016311Y003468D01*
X016274Y003431D01*
X016261Y003381D01*
X016261Y002681D01*
X016274Y002631D01*
X016311Y002594D01*
X016361Y002581D01*
X016511Y002581D01*
X016561Y002631D01*
X018461Y002631D01*
X018511Y002581D01*
X018661Y002581D01*
X018661Y002481D02*
X018511Y002481D01*
X018461Y002431D01*
X016561Y002431D01*
X016511Y002481D01*
X016361Y002481D01*
X016311Y002468D01*
X016274Y002431D01*
X016261Y002381D01*
X016261Y001681D01*
X016274Y001631D01*
X016311Y001594D01*
X016361Y001581D01*
X016511Y001581D01*
X016561Y001631D01*
X018461Y001631D01*
X018511Y001581D01*
X018661Y001581D01*
X018661Y001481D02*
X018511Y001481D01*
X018461Y001431D01*
X016561Y001431D01*
X016511Y001481D01*
X016361Y001481D01*
X016311Y001468D01*
X016274Y001431D01*
X016261Y001381D01*
X016261Y000681D01*
X016274Y000631D01*
X016311Y000594D01*
X016361Y000581D01*
X016511Y000581D01*
X016561Y000631D01*
X018461Y000631D01*
X018511Y000581D01*
X018661Y000581D01*
X018711Y000594D01*
X018748Y000631D01*
X018761Y000681D01*
X018761Y001381D01*
X018748Y001431D01*
X018711Y001468D01*
X018661Y001481D01*
X018661Y001581D02*
X018711Y001594D01*
X018748Y001631D01*
X018761Y001681D01*
X018761Y002381D01*
X018748Y002431D01*
X018711Y002468D01*
X018661Y002481D01*
X018661Y002581D02*
X018711Y002594D01*
X018748Y002631D01*
X018761Y002681D01*
X018761Y003381D01*
X018748Y003431D01*
X018711Y003468D01*
X018661Y003481D01*
X018511Y003481D01*
X018461Y003431D01*
X016561Y003431D01*
X016511Y003481D01*
X014611Y002731D02*
X014511Y002831D01*
X013711Y002831D01*
X013611Y002731D01*
X013611Y001931D01*
X013711Y001831D01*
X013611Y001731D01*
X013611Y000931D01*
X013711Y000831D01*
X014511Y000831D01*
X014611Y000931D01*
X014611Y001731D01*
X014511Y001831D01*
X014611Y001931D01*
X014611Y002731D01*
X012461Y002406D02*
X012461Y004056D01*
X011911Y004118D02*
X011911Y004276D01*
X010561Y003781D02*
X010561Y002481D01*
X010534Y002381D01*
X010461Y002308D01*
X010361Y002281D01*
X009861Y002281D02*
X009761Y002308D01*
X009688Y002381D01*
X009661Y002481D01*
X009661Y003781D01*
X009688Y003881D01*
X009761Y003954D01*
X009861Y003981D01*
X010111Y003631D02*
X010111Y003261D01*
X010111Y003011D02*
X010111Y002631D01*
X009011Y002531D02*
X009011Y003001D01*
X009011Y003251D02*
X009011Y003731D01*
X010361Y003981D02*
X010461Y003954D01*
X010534Y003881D01*
X010561Y003781D01*
X009511Y004481D02*
X009511Y001781D01*
X009498Y001731D01*
X009461Y001694D01*
X009411Y001681D01*
X008611Y001681D01*
X008561Y001694D01*
X008524Y001731D01*
X008511Y001781D01*
X008511Y004481D01*
X008524Y004531D01*
X008561Y004568D01*
X008611Y004581D01*
X009411Y004581D01*
X009461Y004568D01*
X009498Y004531D01*
X009511Y004481D01*
X011911Y003344D02*
X011911Y003118D01*
X012461Y002406D02*
X012244Y002274D01*
X012002Y002198D01*
X011748Y002183D01*
X011499Y002229D01*
X011267Y002333D01*
X011068Y002490D01*
X010911Y002690D01*
X010808Y002921D01*
X010808Y003541D02*
X010911Y003772D01*
X011068Y003972D01*
X011267Y004129D01*
X011499Y004233D01*
X011748Y004279D01*
X012002Y004264D01*
X012244Y004188D01*
X012461Y004056D01*
X011911Y002344D02*
X011911Y002186D01*
X012011Y001481D02*
X011961Y001431D01*
X010061Y001431D01*
X010011Y001481D01*
X009861Y001481D01*
X009811Y001468D01*
X009774Y001431D01*
X009761Y001381D01*
X009761Y000681D01*
X009774Y000631D01*
X009811Y000594D01*
X009861Y000581D01*
X010011Y000581D01*
X010061Y000631D01*
X011961Y000631D01*
X012011Y000581D01*
X012161Y000581D01*
X012211Y000594D01*
X012248Y000631D01*
X012261Y000681D01*
X012261Y001381D01*
X012248Y001431D01*
X012211Y001468D01*
X012161Y001481D01*
X012011Y001481D01*
X006761Y001381D02*
X006761Y000681D01*
X006748Y000631D01*
X006711Y000594D01*
X006661Y000581D01*
X006511Y000581D01*
X006461Y000631D01*
X004561Y000631D01*
X004511Y000581D01*
X004361Y000581D01*
X004311Y000594D01*
X004274Y000631D01*
X004261Y000681D01*
X004261Y001381D01*
X004274Y001431D01*
X004311Y001468D01*
X004361Y001481D01*
X004511Y001481D01*
X004561Y001431D01*
X006461Y001431D01*
X006511Y001481D01*
X006661Y001481D01*
X006711Y001468D01*
X006748Y001431D01*
X006761Y001381D01*
X006661Y001581D02*
X006511Y001581D01*
X006461Y001631D01*
X004561Y001631D01*
X004511Y001581D01*
X004361Y001581D01*
X004311Y001594D01*
X004274Y001631D01*
X004261Y001681D01*
X004261Y002381D01*
X004274Y002431D01*
X004311Y002468D01*
X004361Y002481D01*
X004511Y002481D01*
X004561Y002431D01*
X006461Y002431D01*
X006511Y002481D01*
X006661Y002481D01*
X006711Y002468D01*
X006748Y002431D01*
X006761Y002381D01*
X006761Y001681D01*
X006748Y001631D01*
X006711Y001594D01*
X006661Y001581D01*
X006311Y002531D02*
X004711Y002531D01*
X004661Y002544D01*
X004624Y002581D01*
X004611Y002631D01*
X004611Y003231D01*
X004624Y003281D01*
X004661Y003318D01*
X004711Y003331D01*
X006311Y003331D01*
X006361Y003318D01*
X006398Y003281D01*
X006411Y003231D01*
X006411Y002631D01*
X006398Y002581D01*
X006361Y002544D01*
X006311Y002531D01*
X005761Y002931D02*
X005511Y002931D01*
X005511Y002681D01*
X005411Y002681D01*
X005511Y002931D02*
X004911Y002931D01*
X005111Y002681D02*
X005511Y002931D01*
X005511Y003181D01*
X005511Y002931D02*
X005111Y003181D01*
X005111Y002681D01*
X006373Y003431D02*
X002773Y003431D01*
X002773Y004831D01*
X006373Y004831D01*
X006373Y003431D01*
X001861Y007931D02*
X001761Y007931D01*
X001561Y007931D01*
X010791Y012241D02*
X010791Y013941D01*
X010804Y013991D01*
X010841Y014028D01*
X010891Y014041D01*
X011691Y014041D01*
X011741Y014028D01*
X011778Y013991D01*
X011791Y013941D01*
X011791Y012241D01*
X011778Y012191D01*
X011741Y012154D01*
X011691Y012141D01*
X010891Y012141D01*
X010841Y012154D01*
X010804Y012191D01*
X010791Y012241D01*
X011291Y012941D02*
X011291Y012991D01*
X011291Y013191D02*
X011291Y013241D01*
X011381Y014121D02*
X014081Y014121D01*
X014441Y014041D02*
X013641Y014041D01*
X013591Y014028D01*
X013554Y013991D01*
X013541Y013941D01*
X013541Y012241D01*
X013554Y012191D01*
X013591Y012154D01*
X013641Y012141D01*
X014441Y012141D01*
X014491Y012154D01*
X014528Y012191D01*
X014541Y012241D01*
X014541Y013941D01*
X014528Y013991D01*
X014491Y014028D01*
X014441Y014041D01*
X014041Y013241D02*
X014041Y013191D01*
X014041Y012991D02*
X014041Y012941D01*
X014081Y014121D02*
X014335Y014157D01*
X014568Y014264D01*
X014761Y014432D01*
X014900Y014647D01*
X014972Y014893D01*
X014972Y015149D01*
X014900Y015395D01*
X014761Y015610D01*
X014568Y015778D01*
X014335Y015885D01*
X014081Y015921D01*
X011381Y015921D01*
X011127Y015885D01*
X010894Y015778D01*
X010701Y015610D01*
X010562Y015395D01*
X010490Y015149D01*
X010490Y014893D01*
X010562Y014647D01*
X010701Y014432D01*
X010894Y014264D01*
X011127Y014157D01*
X011381Y014121D01*
X018211Y011081D02*
X018511Y011081D01*
X018361Y010931D02*
X018361Y011231D01*
X017011Y012131D02*
X017050Y012454D01*
X017166Y012758D01*
X017351Y013026D01*
X017594Y013242D01*
X017882Y013393D01*
X018198Y013471D01*
X018524Y013471D01*
X018840Y013393D01*
X019128Y013242D01*
X019371Y013026D01*
X019556Y012758D01*
X019672Y012454D01*
X019711Y012131D01*
X019672Y011808D01*
X019556Y011504D01*
X019371Y011236D01*
X019128Y011020D01*
X018840Y010869D01*
X018524Y010791D01*
X018198Y010791D01*
X017882Y010869D01*
X017594Y011020D01*
X017351Y011236D01*
X017166Y011504D01*
X017050Y011808D01*
X017011Y012131D01*
X001861Y014331D02*
X001761Y014331D01*
X001561Y014331D01*
X001561Y014931D02*
X001761Y014931D01*
X001861Y014931D01*
D669*
X015891Y019031D03*
X015891Y020031D03*
X015891Y021031D03*
X015891Y022031D03*
X018731Y022031D03*
X018731Y021031D03*
X018731Y020031D03*
X018731Y019031D03*
X018931Y006131D03*
X018931Y005131D03*
X016091Y005131D03*
X016091Y006131D03*
X016091Y003031D03*
X016091Y002031D03*
X016091Y001031D03*
X018931Y001031D03*
X018931Y002031D03*
X018931Y003031D03*
X012431Y001031D03*
X009591Y001031D03*
X006931Y001031D03*
X006931Y002031D03*
X004091Y002031D03*
X004091Y001031D03*
D670*
X005136Y000956D02*
X005361Y000956D01*
X005436Y001031D01*
X005436Y001181D01*
X005361Y001256D01*
X005136Y001256D01*
X005136Y000806D01*
X005286Y000956D02*
X005436Y000806D01*
X005596Y000881D02*
X005596Y000956D01*
X005671Y001031D01*
X005821Y001031D01*
X005896Y000956D01*
X005896Y000881D01*
X005821Y000806D01*
X005671Y000806D01*
X005596Y000881D01*
X005671Y001031D02*
X005596Y001106D01*
X005596Y001181D01*
X005671Y001256D01*
X005821Y001256D01*
X005896Y001181D01*
X005896Y001106D01*
X005821Y001031D01*
X005821Y001856D02*
X005671Y001856D01*
X005596Y001931D01*
X005436Y001856D02*
X005286Y002006D01*
X005361Y002006D02*
X005136Y002006D01*
X005136Y001856D02*
X005136Y002306D01*
X005361Y002306D01*
X005436Y002231D01*
X005436Y002081D01*
X005361Y002006D01*
X005596Y002231D02*
X005671Y002306D01*
X005821Y002306D01*
X005896Y002231D01*
X005896Y002156D01*
X005821Y002081D01*
X005896Y002006D01*
X005896Y001931D01*
X005821Y001856D01*
X005821Y002081D02*
X005746Y002081D01*
X002826Y002881D02*
X002751Y002806D01*
X002601Y002806D01*
X002525Y002881D01*
X002365Y002881D02*
X002365Y003181D01*
X002290Y003256D01*
X002065Y003256D01*
X002065Y002806D01*
X002290Y002806D01*
X002365Y002881D01*
X002525Y003181D02*
X002601Y003256D01*
X002751Y003256D01*
X002826Y003181D01*
X002826Y003106D01*
X002751Y003031D01*
X002826Y002956D01*
X002826Y002881D01*
X002751Y003031D02*
X002676Y003031D01*
X004348Y003906D02*
X004574Y003906D01*
X004649Y003981D01*
X004649Y004281D01*
X004574Y004356D01*
X004348Y004356D01*
X004348Y003906D01*
X004809Y003906D02*
X005109Y004206D01*
X005109Y004281D01*
X005034Y004356D01*
X004884Y004356D01*
X004809Y004281D01*
X004809Y003906D02*
X005109Y003906D01*
X008686Y004781D02*
X008761Y004706D01*
X008911Y004706D01*
X008986Y004781D01*
X009146Y004706D02*
X009446Y005006D01*
X009446Y005081D01*
X009371Y005156D01*
X009221Y005156D01*
X009146Y005081D01*
X008986Y005081D02*
X008911Y005156D01*
X008761Y005156D01*
X008686Y005081D01*
X008686Y004781D01*
X009146Y004706D02*
X009446Y004706D01*
X012586Y003596D02*
X012736Y003446D01*
X012661Y003286D02*
X012961Y003286D01*
X013036Y003210D01*
X013036Y003060D01*
X012961Y002985D01*
X012661Y002985D01*
X012586Y003060D01*
X012586Y003210D01*
X012661Y003286D01*
X012886Y003135D02*
X013036Y003286D01*
X013036Y003446D02*
X013036Y003746D01*
X013036Y003596D02*
X012586Y003596D01*
X013536Y003131D02*
X013611Y003056D01*
X013686Y003056D01*
X013761Y003131D01*
X013761Y003506D01*
X013686Y003506D02*
X013836Y003506D01*
X013996Y003506D02*
X014221Y003506D01*
X014296Y003431D01*
X014296Y003281D01*
X014221Y003206D01*
X013996Y003206D01*
X013996Y003056D02*
X013996Y003506D01*
X014457Y003356D02*
X014607Y003506D01*
X014607Y003056D01*
X014457Y003056D02*
X014757Y003056D01*
X014780Y003856D02*
X014630Y003856D01*
X014555Y003931D01*
X014555Y004231D01*
X014630Y004306D01*
X014780Y004306D01*
X014855Y004231D01*
X015015Y004156D02*
X015165Y004306D01*
X015165Y003856D01*
X015015Y003856D02*
X015315Y003856D01*
X015475Y003931D02*
X015776Y004231D01*
X015776Y003931D01*
X015701Y003856D01*
X015550Y003856D01*
X015475Y003931D01*
X015475Y004231D01*
X015550Y004306D01*
X015701Y004306D01*
X015776Y004231D01*
X014855Y003931D02*
X014780Y003856D01*
X016955Y004856D02*
X016955Y005306D01*
X017180Y005306D01*
X017255Y005231D01*
X017255Y005081D01*
X017180Y005006D01*
X016955Y005006D01*
X017105Y005006D02*
X017255Y004856D01*
X017415Y004856D02*
X017715Y004856D01*
X017565Y004856D02*
X017565Y005306D01*
X017415Y005156D01*
X017875Y005231D02*
X017950Y005306D01*
X018101Y005306D01*
X018176Y005231D01*
X018176Y005156D01*
X017875Y004856D01*
X018176Y004856D01*
X018132Y005906D02*
X017982Y005906D01*
X017907Y005981D01*
X017746Y005906D02*
X017446Y005906D01*
X017596Y005906D02*
X017596Y006356D01*
X017446Y006206D01*
X017286Y006131D02*
X017211Y006056D01*
X016986Y006056D01*
X016986Y005906D02*
X016986Y006356D01*
X017211Y006356D01*
X017286Y006281D01*
X017286Y006131D01*
X017136Y006056D02*
X017286Y005906D01*
X017907Y006281D02*
X017982Y006356D01*
X018132Y006356D01*
X018207Y006281D01*
X018207Y006206D01*
X018132Y006131D01*
X018207Y006056D01*
X018207Y005981D01*
X018132Y005906D01*
X018132Y006131D02*
X018057Y006131D01*
X019935Y007046D02*
X020160Y007046D01*
X020235Y007121D01*
X020235Y007421D01*
X020160Y007496D01*
X019935Y007496D01*
X019935Y007046D01*
X020395Y007121D02*
X020471Y007046D01*
X020621Y007046D01*
X020696Y007121D01*
X020696Y007271D01*
X020621Y007346D01*
X020546Y007346D01*
X020395Y007271D01*
X020395Y007496D01*
X020696Y007496D01*
X018476Y008981D02*
X018401Y008906D01*
X018251Y008906D01*
X018175Y008981D01*
X018175Y009131D01*
X018401Y009131D01*
X018476Y009056D01*
X018476Y008981D01*
X018326Y009281D02*
X018175Y009131D01*
X018326Y009281D02*
X018476Y009356D01*
X018015Y009281D02*
X018015Y008981D01*
X017940Y008906D01*
X017715Y008906D01*
X017715Y009356D01*
X017940Y009356D01*
X018015Y009281D01*
X015686Y009256D02*
X015686Y009483D01*
X015686Y009369D02*
X015346Y009369D01*
X015459Y009256D01*
X013356Y008201D02*
X012906Y008201D01*
X013131Y007976D01*
X013131Y008276D01*
X013131Y007815D02*
X013206Y007740D01*
X013206Y007515D01*
X013356Y007515D02*
X012906Y007515D01*
X012906Y007740D01*
X012981Y007815D01*
X013131Y007815D01*
X012906Y007355D02*
X012906Y007205D01*
X012906Y007280D02*
X013281Y007280D01*
X013356Y007205D01*
X013356Y007130D01*
X013281Y007055D01*
X011236Y007666D02*
X010786Y007666D01*
X010786Y007891D01*
X010861Y007966D01*
X011011Y007966D01*
X011086Y007891D01*
X011086Y007666D01*
X011086Y007816D02*
X011236Y007966D01*
X011161Y008126D02*
X011236Y008201D01*
X011236Y008352D01*
X011161Y008427D01*
X010861Y008427D01*
X010786Y008352D01*
X010786Y008201D01*
X010861Y008126D01*
X010936Y008126D01*
X011011Y008201D01*
X011011Y008427D01*
X006046Y010081D02*
X005971Y010006D01*
X005821Y010006D01*
X005746Y010081D01*
X005746Y010231D02*
X005896Y010306D01*
X005971Y010306D01*
X006046Y010231D01*
X006046Y010081D01*
X005746Y010231D02*
X005746Y010456D01*
X006046Y010456D01*
X005586Y010381D02*
X005511Y010456D01*
X005361Y010456D01*
X005286Y010381D01*
X005286Y010081D01*
X005361Y010006D01*
X005511Y010006D01*
X005586Y010081D01*
X001986Y011135D02*
X001686Y011436D01*
X001611Y011436D01*
X001536Y011360D01*
X001536Y011210D01*
X001611Y011135D01*
X001986Y011135D02*
X001986Y011436D01*
X001911Y011596D02*
X001611Y011596D01*
X001536Y011671D01*
X001536Y011821D01*
X001611Y011896D01*
X001911Y011596D01*
X001986Y011671D01*
X001986Y011821D01*
X001911Y011896D01*
X001611Y011896D01*
X002536Y016446D02*
X002386Y016596D01*
X002836Y016596D01*
X002836Y016446D02*
X002836Y016746D01*
X003386Y016671D02*
X003386Y016521D01*
X003461Y016446D01*
X003386Y016671D02*
X003461Y016746D01*
X003536Y016746D01*
X003836Y016446D01*
X003836Y016746D01*
X005165Y016781D02*
X005240Y016706D01*
X005390Y016706D01*
X005465Y016781D01*
X005625Y016781D02*
X005625Y016706D01*
X005625Y016781D02*
X005926Y017081D01*
X005926Y017156D01*
X005625Y017156D01*
X005465Y017081D02*
X005390Y017156D01*
X005240Y017156D01*
X005165Y017081D01*
X005165Y016781D01*
X004086Y018356D02*
X003785Y018356D01*
X003936Y018356D02*
X003936Y018806D01*
X003785Y018656D01*
X003625Y018731D02*
X003550Y018806D01*
X003325Y018806D01*
X003325Y018356D01*
X003550Y018356D01*
X003625Y018431D01*
X003625Y018731D01*
X003636Y019806D02*
X003336Y019806D01*
X003486Y019806D02*
X003486Y020256D01*
X003336Y020106D01*
X004336Y020181D02*
X004411Y020256D01*
X004561Y020256D01*
X004636Y020181D01*
X004636Y020106D01*
X004336Y019806D01*
X004636Y019806D01*
X005336Y019881D02*
X005411Y019806D01*
X005561Y019806D01*
X005636Y019881D01*
X005636Y019956D01*
X005561Y020031D01*
X005486Y020031D01*
X005561Y020031D02*
X005636Y020106D01*
X005636Y020181D01*
X005561Y020256D01*
X005411Y020256D01*
X005336Y020181D01*
X002836Y020800D02*
X002836Y020875D01*
X002761Y020950D01*
X002386Y020950D01*
X002386Y020875D02*
X002386Y021025D01*
X002386Y021185D02*
X002386Y021410D01*
X002461Y021485D01*
X002611Y021485D01*
X002686Y021410D01*
X002686Y021185D01*
X002836Y021185D02*
X002386Y021185D01*
X002461Y021646D02*
X002386Y021721D01*
X002386Y021871D01*
X002461Y021946D01*
X002536Y021946D01*
X002611Y021871D01*
X002686Y021946D01*
X002761Y021946D01*
X002836Y021871D01*
X002836Y021721D01*
X002761Y021646D01*
X002611Y021796D02*
X002611Y021871D01*
X002836Y020800D02*
X002761Y020725D01*
X012285Y015171D02*
X012360Y015246D01*
X012510Y015246D01*
X012585Y015171D01*
X012585Y014871D01*
X012510Y014796D01*
X012360Y014796D01*
X012285Y014871D01*
X012285Y015171D01*
X012435Y014946D02*
X012585Y014796D01*
X012745Y014871D02*
X012821Y014796D01*
X012971Y014796D01*
X013046Y014871D01*
X013046Y014946D01*
X012971Y015021D01*
X012896Y015021D01*
X012971Y015021D02*
X013046Y015096D01*
X013046Y015171D01*
X012971Y015246D01*
X012821Y015246D01*
X012745Y015171D01*
X016236Y013202D02*
X016236Y013052D01*
X016311Y012977D01*
X016236Y012817D02*
X016686Y012817D01*
X016236Y012516D01*
X016686Y012516D01*
X016686Y012356D02*
X016536Y012206D01*
X016536Y012281D02*
X016536Y012056D01*
X016686Y012056D02*
X016236Y012056D01*
X016236Y012281D01*
X016311Y012356D01*
X016461Y012356D01*
X016536Y012281D01*
X016686Y012977D02*
X016386Y013277D01*
X016311Y013277D01*
X016236Y013202D01*
X016686Y013277D02*
X016686Y012977D01*
X013466Y012652D02*
X013466Y012501D01*
X013391Y012426D01*
X013316Y012426D01*
X013241Y012501D01*
X013241Y012652D01*
X013316Y012727D01*
X013391Y012727D01*
X013466Y012652D01*
X013241Y012652D02*
X013166Y012727D01*
X013091Y012727D01*
X013016Y012652D01*
X013016Y012501D01*
X013091Y012426D01*
X013166Y012426D01*
X013241Y012501D01*
X013391Y012266D02*
X013466Y012191D01*
X013466Y012041D01*
X013391Y011966D01*
X013091Y011966D01*
X013016Y012041D01*
X013016Y012191D01*
X013091Y012266D01*
X012366Y012141D02*
X012291Y012216D01*
X012366Y012141D02*
X012366Y011991D01*
X012291Y011916D01*
X011991Y011916D01*
X011916Y011991D01*
X011916Y012141D01*
X011991Y012216D01*
X011991Y012376D02*
X012066Y012376D01*
X012141Y012451D01*
X012141Y012677D01*
X012291Y012677D02*
X011991Y012677D01*
X011916Y012602D01*
X011916Y012451D01*
X011991Y012376D01*
X012291Y012376D02*
X012366Y012451D01*
X012366Y012602D01*
X012291Y012677D01*
X019886Y012417D02*
X019961Y012266D01*
X020111Y012116D01*
X020111Y012342D01*
X020186Y012417D01*
X020261Y012417D01*
X020336Y012342D01*
X020336Y012191D01*
X020261Y012116D01*
X020111Y012116D01*
X020261Y011956D02*
X020336Y011881D01*
X020336Y011731D01*
X020261Y011656D01*
X019961Y011656D01*
X019886Y011731D01*
X019886Y011881D01*
X019961Y011956D01*
X019936Y013185D02*
X019936Y013410D01*
X020011Y013486D01*
X020311Y013486D01*
X020386Y013410D01*
X020386Y013185D01*
X019936Y013185D01*
X020161Y013646D02*
X020161Y013946D01*
X020386Y013871D02*
X019936Y013871D01*
X020161Y013646D01*
X021536Y014535D02*
X021986Y014535D01*
X021986Y014836D01*
X021986Y014996D02*
X021986Y015296D01*
X021986Y015146D02*
X021536Y015146D01*
X021686Y014996D01*
X023956Y015090D02*
X023956Y014865D01*
X024406Y014865D01*
X024256Y014865D02*
X024256Y015090D01*
X024181Y015165D01*
X024031Y015165D01*
X023956Y015090D01*
X024031Y015326D02*
X023956Y015401D01*
X023956Y015551D01*
X024031Y015626D01*
X024106Y015626D01*
X024406Y015326D01*
X024406Y015626D01*
X024331Y014630D02*
X023956Y014630D01*
X023956Y014555D02*
X023956Y014705D01*
X024331Y014630D02*
X024406Y014555D01*
X024406Y014480D01*
X024331Y014405D01*
X025461Y018785D02*
X025386Y018860D01*
X025386Y019010D01*
X025461Y019086D01*
X025461Y019246D02*
X025386Y019321D01*
X025386Y019471D01*
X025461Y019546D01*
X025536Y019546D01*
X025611Y019471D01*
X025686Y019546D01*
X025761Y019546D01*
X025836Y019471D01*
X025836Y019321D01*
X025761Y019246D01*
X025761Y019086D02*
X025836Y019010D01*
X025836Y018860D01*
X025761Y018785D01*
X025461Y018785D01*
X025611Y019396D02*
X025611Y019471D01*
X022526Y020231D02*
X022451Y020156D01*
X022300Y020156D01*
X022225Y020231D01*
X022065Y020231D02*
X021990Y020156D01*
X021840Y020156D01*
X021765Y020231D01*
X021765Y020531D01*
X021840Y020606D01*
X021990Y020606D01*
X022065Y020531D01*
X022225Y020531D02*
X022300Y020606D01*
X022451Y020606D01*
X022526Y020531D01*
X022526Y020456D01*
X022451Y020381D01*
X022526Y020306D01*
X022526Y020231D01*
X022451Y020381D02*
X022376Y020381D01*
X021608Y020156D02*
X021458Y020156D01*
X021533Y020156D02*
X021533Y020606D01*
X021458Y020606D02*
X021608Y020606D01*
X018107Y020181D02*
X018107Y019881D01*
X018032Y019806D01*
X017882Y019806D01*
X017807Y019881D01*
X018107Y020181D01*
X018032Y020256D01*
X017882Y020256D01*
X017807Y020181D01*
X017807Y019881D01*
X017646Y019806D02*
X017346Y019806D01*
X017496Y019806D02*
X017496Y020256D01*
X017346Y020106D01*
X017186Y020031D02*
X017111Y019956D01*
X016886Y019956D01*
X016886Y019806D02*
X016886Y020256D01*
X017111Y020256D01*
X017186Y020181D01*
X017186Y020031D01*
X017036Y019956D02*
X017186Y019806D01*
X017211Y019256D02*
X017286Y019181D01*
X017286Y019031D01*
X017211Y018956D01*
X016986Y018956D01*
X016986Y018806D02*
X016986Y019256D01*
X017211Y019256D01*
X017446Y019181D02*
X017521Y019256D01*
X017671Y019256D01*
X017746Y019181D01*
X017746Y019106D01*
X017446Y018806D01*
X017746Y018806D01*
X017286Y018806D02*
X017136Y018956D01*
X014826Y017856D02*
X014826Y017406D01*
X014976Y017406D02*
X014675Y017406D01*
X014515Y017481D02*
X014440Y017406D01*
X014290Y017406D01*
X014215Y017481D01*
X014215Y017781D01*
X014290Y017856D01*
X014440Y017856D01*
X014515Y017781D01*
X014675Y017706D02*
X014826Y017856D01*
X016905Y020796D02*
X016905Y021246D01*
X017130Y021246D01*
X017205Y021171D01*
X017205Y021021D01*
X017130Y020946D01*
X016905Y020946D01*
X017055Y020946D02*
X017205Y020796D01*
X017365Y020796D02*
X017666Y020796D01*
X017516Y020796D02*
X017516Y021246D01*
X017365Y021096D01*
X017471Y021756D02*
X017396Y021831D01*
X017471Y021756D02*
X017621Y021756D01*
X017696Y021831D01*
X017696Y021981D01*
X017621Y022056D01*
X017546Y022056D01*
X017396Y021981D01*
X017396Y022206D01*
X017696Y022206D01*
X017236Y022131D02*
X017236Y021981D01*
X017161Y021906D01*
X016936Y021906D01*
X016936Y021756D02*
X016936Y022206D01*
X017161Y022206D01*
X017236Y022131D01*
X017086Y021906D02*
X017236Y021756D01*
X024336Y008577D02*
X024336Y008277D01*
X024336Y008427D02*
X023886Y008427D01*
X024036Y008277D01*
X023886Y008117D02*
X024336Y008117D01*
X023886Y007816D01*
X024336Y007816D01*
X024336Y007656D02*
X024186Y007506D01*
X024186Y007581D02*
X024186Y007356D01*
X024336Y007356D02*
X023886Y007356D01*
X023886Y007581D01*
X023961Y007656D01*
X024111Y007656D01*
X024186Y007581D01*
X023286Y006083D02*
X023286Y005856D01*
X023286Y005969D02*
X022946Y005969D01*
X023059Y005856D01*
X022861Y005117D02*
X022786Y005117D01*
X022711Y005042D01*
X022711Y004816D01*
X022861Y004816D01*
X022936Y004891D01*
X022936Y005042D01*
X022861Y005117D01*
X022561Y004966D02*
X022711Y004816D01*
X022561Y004966D02*
X022486Y005117D01*
X022561Y004656D02*
X022861Y004656D01*
X022936Y004581D01*
X022936Y004431D01*
X022861Y004356D01*
X022561Y004356D01*
X022486Y004431D01*
X022486Y004581D01*
X022561Y004656D01*
X022786Y004506D02*
X022936Y004656D01*
X022061Y002856D02*
X022061Y001206D01*
X021461Y001478D02*
X021461Y001584D01*
X022286Y001731D02*
X022286Y001881D01*
X022361Y001956D01*
X022661Y001956D01*
X022736Y001881D01*
X022736Y001731D01*
X022661Y001656D01*
X022361Y001656D01*
X022286Y001731D01*
X022586Y001806D02*
X022736Y001956D01*
X022736Y002116D02*
X022436Y002417D01*
X022361Y002417D01*
X022286Y002342D01*
X022286Y002191D01*
X022361Y002116D01*
X022736Y002116D02*
X022736Y002417D01*
X021461Y002478D02*
X021461Y002584D01*
X021849Y002985D02*
X022061Y002856D01*
X020964Y002981D02*
X020742Y002840D01*
X020561Y002648D01*
X020435Y002417D01*
X020369Y002163D01*
X020369Y001899D01*
X020435Y001645D01*
X020561Y001414D01*
X020742Y001222D01*
X020964Y001081D01*
X021858Y001081D02*
X022061Y001206D01*
X018326Y001806D02*
X018025Y001806D01*
X018176Y001806D02*
X018176Y002256D01*
X018025Y002106D01*
X017865Y001806D02*
X017565Y001806D01*
X017715Y001806D02*
X017715Y002256D01*
X017565Y002106D01*
X017405Y002031D02*
X017330Y001956D01*
X017105Y001956D01*
X017255Y001956D02*
X017405Y001806D01*
X017405Y002031D02*
X017405Y002181D01*
X017330Y002256D01*
X017105Y002256D01*
X017105Y001806D01*
X017136Y001256D02*
X017361Y001256D01*
X017436Y001181D01*
X017436Y001031D01*
X017361Y000956D01*
X017136Y000956D01*
X017136Y000806D02*
X017136Y001256D01*
X017286Y000956D02*
X017436Y000806D01*
X017596Y001031D02*
X017896Y001031D01*
X017821Y000806D02*
X017821Y001256D01*
X017596Y001031D01*
X017651Y002806D02*
X017801Y002806D01*
X017876Y002881D01*
X017876Y002956D01*
X017801Y003031D01*
X017575Y003031D01*
X017575Y002881D01*
X017651Y002806D01*
X017415Y002806D02*
X017265Y002956D01*
X017340Y002956D02*
X017115Y002956D01*
X017115Y002806D02*
X017115Y003256D01*
X017340Y003256D01*
X017415Y003181D01*
X017415Y003031D01*
X017340Y002956D01*
X017575Y003031D02*
X017726Y003181D01*
X017876Y003256D01*
X011276Y001881D02*
X010975Y001881D01*
X011201Y002106D01*
X011201Y001656D01*
X010815Y001731D02*
X010740Y001656D01*
X010590Y001656D01*
X010515Y001731D01*
X010515Y002031D01*
X010590Y002106D01*
X010740Y002106D01*
X010815Y002031D01*
X010840Y001306D02*
X010615Y001306D01*
X010615Y000856D01*
X010615Y001006D02*
X010840Y001006D01*
X010915Y001081D01*
X010915Y001231D01*
X010840Y001306D01*
X011075Y001306D02*
X011376Y001306D01*
X011376Y001231D01*
X011075Y000931D01*
X011075Y000856D01*
X010915Y000856D02*
X010765Y001006D01*
D671*
X010411Y003011D02*
X010111Y003011D01*
X009811Y003011D01*
X009811Y003261D02*
X010111Y003261D01*
X010411Y003261D01*
X009261Y003251D02*
X009011Y003251D01*
X008761Y003251D01*
X008761Y003001D02*
X009011Y003001D01*
X009261Y003001D01*
X017381Y003781D02*
X017381Y004031D01*
X017381Y004281D01*
X017631Y004281D02*
X017631Y004031D01*
X017631Y003781D01*
X005861Y011901D02*
X005611Y011901D01*
X005361Y011901D01*
X005361Y012151D02*
X005611Y012151D01*
X005861Y012151D01*
X005861Y014901D02*
X005611Y014901D01*
X005361Y014901D01*
X005361Y015151D02*
X005611Y015151D01*
X005861Y015151D01*
X024411Y019151D02*
X025011Y019151D01*
X025011Y019401D02*
X024411Y019401D01*
D672*
X014081Y015721D02*
X011381Y015721D01*
X011165Y015687D01*
X010970Y015587D01*
X010815Y015432D01*
X010715Y015237D01*
X010681Y015021D01*
X010715Y014805D01*
X010815Y014610D01*
X010970Y014455D01*
X011165Y014355D01*
X011381Y014321D01*
X014081Y014321D01*
X014297Y014355D01*
X014492Y014455D01*
X014647Y014610D01*
X014747Y014805D01*
X014781Y015021D01*
X014747Y015237D01*
X014647Y015432D01*
X014492Y015587D01*
X014297Y015687D01*
X014081Y015721D01*
X004461Y017731D02*
X001761Y017731D01*
X001761Y014931D01*
X001761Y014331D02*
X001761Y012431D01*
X001761Y010831D02*
X001761Y007931D01*
X001761Y007331D02*
X001761Y005531D01*
X004461Y005531D01*
X004461Y017731D01*
D673*
X010991Y013191D02*
X011291Y013191D01*
X011591Y013191D01*
X011591Y012991D02*
X011291Y012991D01*
X010991Y012991D01*
X013741Y012991D02*
X014041Y012991D01*
X014341Y012991D01*
X014341Y013191D02*
X014041Y013191D01*
X013741Y013191D01*
D674*
X008556Y017737D02*
X008556Y017947D01*
X008556Y017842D02*
X007925Y017842D01*
X007925Y017737D02*
X007925Y017947D01*
X008030Y018167D02*
X007925Y018272D01*
X007925Y018482D01*
X008030Y018587D01*
X008030Y018811D02*
X007925Y018917D01*
X007925Y019127D01*
X008030Y019232D01*
X008136Y019232D01*
X008556Y018811D01*
X008556Y019232D01*
X008451Y018587D02*
X008556Y018482D01*
X008556Y018272D01*
X008451Y018167D01*
X008030Y018167D01*
X005676Y008392D02*
X005676Y007971D01*
X005676Y008182D02*
X005045Y008182D01*
X005256Y007971D01*
X005045Y007747D02*
X005676Y007327D01*
X005676Y007747D02*
X005045Y007327D01*
D675*
X011011Y006621D03*
X011011Y009461D03*
X021811Y012911D03*
X021811Y013411D03*
X021811Y016251D03*
X021811Y016751D03*
D676*
X012586Y019431D03*
D677*
X020911Y014981D03*
D678*
X020911Y015606D03*
X020911Y013056D03*
D679*
X021811Y013081D02*
X021811Y013231D01*
X021811Y016431D02*
X021811Y016581D01*
D680*
X003173Y004131D03*
D681*
X002503Y004131D03*
X006643Y004131D03*
D682*
X018006Y007171D03*
D683*
X018506Y007171D03*
X016756Y007171D03*
D684*
X015865Y016031D02*
X015904Y016437D01*
X016019Y016829D01*
X016206Y017191D01*
X016458Y017512D01*
X016766Y017779D01*
X017120Y017983D01*
X017505Y018117D01*
X017909Y018175D01*
X018316Y018155D01*
X018713Y018059D01*
X019084Y017889D01*
X019416Y017653D01*
X019698Y017358D01*
X019918Y017014D01*
X020070Y016636D01*
X020147Y016235D01*
X020147Y015827D01*
X020070Y015426D01*
X019918Y015048D01*
X019698Y014704D01*
X019416Y014409D01*
X019084Y014173D01*
X018713Y014003D01*
X018316Y013907D01*
X017909Y013887D01*
X017505Y013945D01*
X017120Y014079D01*
X016766Y014283D01*
X016458Y014550D01*
X016206Y014871D01*
X016019Y015233D01*
X015904Y015625D01*
X015865Y016031D01*
X015590Y016031D02*
X015629Y016463D01*
X015744Y016882D01*
X015933Y017273D01*
X016188Y017624D01*
X016502Y017924D01*
X016864Y018163D01*
X017263Y018334D01*
X017686Y018430D01*
X018120Y018450D01*
X018550Y018391D01*
X018963Y018257D01*
X019345Y018052D01*
X019684Y017781D01*
X019970Y017454D01*
X020192Y017081D01*
X020345Y016675D01*
X020422Y016248D01*
X020422Y015814D01*
X020345Y015387D01*
X020192Y014981D01*
X019970Y014608D01*
X019684Y014281D01*
X019345Y014010D01*
X018963Y013805D01*
X018550Y013671D01*
X018120Y013612D01*
X017686Y013632D01*
X017263Y013728D01*
X016864Y013899D01*
X016502Y014138D01*
X016188Y014438D01*
X015933Y014789D01*
X015744Y015180D01*
X015629Y015599D01*
X015590Y016031D01*
D685*
X017643Y015024D02*
X017643Y014564D01*
X017950Y014564D01*
X018103Y014564D02*
X018410Y014871D01*
X018410Y014947D01*
X018333Y015024D01*
X018180Y015024D01*
X018103Y014947D01*
X018103Y014564D02*
X018410Y014564D01*
D686*
X018461Y008331D03*
X006161Y002931D03*
X003971Y019331D03*
D687*
X004596Y019331D03*
X002046Y019331D03*
X016536Y008331D03*
X019086Y008331D03*
X006786Y002931D03*
X004236Y002931D03*
M02*
