G75*
G70*
%OFA0B0*%
%FSLAX24Y24*%
%IPPOS*%
%LPD*%
%AMOC8*
5,1,8,0,0,1.08239X$1,22.5*
%
%ADD10C,0.0000*%
%ADD11C,0.0040*%
%ADD12C,0.0030*%
%ADD13R,0.0330X0.0003*%
%ADD14C,0.0060*%
%ADD15C,0.0050*%
%ADD16C,0.0080*%
%ADD17C,0.0020*%
%ADD18C,0.0100*%
%ADD19R,0.0340X0.0240*%
%ADD20R,0.0250X0.0900*%
%ADD21C,0.0070*%
%ADD22R,0.1000X0.0200*%
%ADD23R,0.0300X0.0750*%
%ADD24C,0.0120*%
D10*
X003282Y000145D02*
X003282Y026641D01*
X035817Y026643D01*
X035817Y025391D01*
X037252Y025391D01*
X037252Y001395D01*
X035817Y001395D01*
X035817Y000143D01*
X003282Y000145D01*
X014066Y001643D02*
X014103Y001842D01*
X014210Y002014D01*
X014371Y002136D01*
X014566Y002192D01*
X014768Y002173D01*
X014949Y002083D01*
X015085Y001933D01*
X015159Y001744D01*
X015159Y001542D01*
X015085Y001353D01*
X014949Y001203D01*
X014768Y001113D01*
X014566Y001094D01*
X014371Y001150D01*
X014210Y001272D01*
X014103Y001444D01*
X014066Y001643D01*
X019766Y001643D02*
X019803Y001842D01*
X019910Y002014D01*
X020071Y002136D01*
X020266Y002192D01*
X020468Y002173D01*
X020649Y002083D01*
X020785Y001933D01*
X020859Y001744D01*
X020859Y001542D01*
X020785Y001353D01*
X020649Y001203D01*
X020468Y001113D01*
X020266Y001094D01*
X020071Y001150D01*
X019910Y001272D01*
X019803Y001444D01*
X019766Y001643D01*
X019766Y025143D02*
X019803Y025342D01*
X019910Y025514D01*
X020071Y025636D01*
X020266Y025692D01*
X020468Y025673D01*
X020649Y025583D01*
X020785Y025433D01*
X020859Y025244D01*
X020859Y025042D01*
X020785Y024853D01*
X020649Y024703D01*
X020468Y024613D01*
X020266Y024594D01*
X020071Y024650D01*
X019910Y024772D01*
X019803Y024944D01*
X019766Y025143D01*
D11*
X016947Y024558D02*
X016947Y024404D01*
X016870Y024328D01*
X016717Y024328D02*
X016640Y024481D01*
X016640Y024558D01*
X016717Y024634D01*
X016870Y024634D01*
X016947Y024558D01*
X016717Y024328D02*
X016487Y024328D01*
X016487Y024634D01*
X016947Y024174D02*
X016947Y023867D01*
X016487Y023867D01*
X016487Y023714D02*
X016487Y023407D01*
X016947Y023407D01*
X016947Y023714D01*
X016717Y023560D02*
X016717Y023407D01*
X016717Y023253D02*
X016794Y023177D01*
X016794Y022947D01*
X016794Y023100D02*
X016947Y023253D01*
X016717Y023253D02*
X016563Y023253D01*
X016487Y023177D01*
X016487Y022947D01*
X016947Y022947D01*
X016870Y020759D02*
X016794Y020759D01*
X016717Y020683D01*
X016717Y020453D01*
X016870Y020453D01*
X016947Y020529D01*
X016947Y020683D01*
X016870Y020759D01*
X016717Y020453D02*
X016563Y020606D01*
X016487Y020759D01*
X016947Y020299D02*
X016947Y019992D01*
X016487Y019992D01*
X016487Y019839D02*
X016487Y019532D01*
X016947Y019532D01*
X016947Y019839D01*
X016717Y019685D02*
X016717Y019532D01*
X016717Y019378D02*
X016794Y019302D01*
X016794Y019072D01*
X016794Y019225D02*
X016947Y019378D01*
X016717Y019378D02*
X016563Y019378D01*
X016487Y019302D01*
X016487Y019072D01*
X016947Y019072D01*
X016563Y016759D02*
X016870Y016453D01*
X016947Y016453D01*
X016947Y016299D02*
X016947Y015992D01*
X016487Y015992D01*
X016487Y015839D02*
X016487Y015532D01*
X016947Y015532D01*
X016947Y015839D01*
X016717Y015685D02*
X016717Y015532D01*
X016717Y015378D02*
X016794Y015302D01*
X016794Y015072D01*
X016794Y015225D02*
X016947Y015378D01*
X016717Y015378D02*
X016563Y015378D01*
X016487Y015302D01*
X016487Y015072D01*
X016947Y015072D01*
X016487Y016453D02*
X016487Y016759D01*
X016563Y016759D01*
X023862Y016743D02*
X023862Y016436D01*
X024322Y016436D01*
X024322Y016743D01*
X024322Y016896D02*
X023862Y016896D01*
X024092Y016589D02*
X024092Y016436D01*
X024092Y016282D02*
X024169Y016206D01*
X024169Y015976D01*
X024169Y016129D02*
X024322Y016282D01*
X024092Y016282D02*
X023939Y016282D01*
X023862Y016206D01*
X023862Y015976D01*
X024322Y015976D01*
X024322Y016896D02*
X024322Y017203D01*
X024322Y017357D02*
X024015Y017664D01*
X023939Y017664D01*
X023862Y017587D01*
X023862Y017433D01*
X023939Y017357D01*
X024322Y017357D02*
X024322Y017664D01*
X024322Y019101D02*
X023862Y019101D01*
X023862Y019331D01*
X023938Y019407D01*
X024092Y019407D01*
X024169Y019331D01*
X024169Y019101D01*
X024169Y019254D02*
X024322Y019407D01*
X024322Y019561D02*
X023862Y019561D01*
X023862Y019868D01*
X023862Y020021D02*
X024322Y020021D01*
X024322Y020328D01*
X024245Y020482D02*
X024322Y020558D01*
X024322Y020712D01*
X024245Y020789D01*
X024169Y020789D01*
X024092Y020712D01*
X024092Y020635D01*
X024092Y020712D02*
X024015Y020789D01*
X023938Y020789D01*
X023862Y020712D01*
X023862Y020558D01*
X023938Y020482D01*
X024322Y019868D02*
X024322Y019561D01*
X024092Y019561D02*
X024092Y019714D01*
X024169Y022788D02*
X024169Y023018D01*
X024092Y023095D01*
X023938Y023095D01*
X023862Y023018D01*
X023862Y022788D01*
X024322Y022788D01*
X024169Y022942D02*
X024322Y023095D01*
X024322Y023248D02*
X024322Y023555D01*
X024322Y023709D02*
X024322Y024016D01*
X024092Y024169D02*
X024092Y024476D01*
X024322Y024399D02*
X023862Y024399D01*
X024092Y024169D01*
X023862Y023709D02*
X024322Y023709D01*
X024092Y023402D02*
X024092Y023248D01*
X023862Y023248D02*
X024322Y023248D01*
X023862Y023248D02*
X023862Y023555D01*
X013973Y009998D02*
X014050Y009922D01*
X014050Y009845D01*
X013973Y009768D01*
X013820Y009768D01*
X013743Y009845D01*
X013743Y009922D01*
X013820Y009998D01*
X013973Y009998D01*
X013973Y009768D02*
X014050Y009691D01*
X014050Y009615D01*
X013973Y009538D01*
X013820Y009538D01*
X013743Y009615D01*
X013743Y009691D01*
X013820Y009768D01*
X013590Y009538D02*
X013283Y009538D01*
X013283Y009998D01*
X013129Y009998D02*
X012822Y009998D01*
X012822Y009538D01*
X013129Y009538D01*
X012976Y009768D02*
X012822Y009768D01*
X012669Y009768D02*
X012592Y009691D01*
X012362Y009691D01*
X012362Y009538D02*
X012362Y009998D01*
X012592Y009998D01*
X012669Y009922D01*
X012669Y009768D01*
X012516Y009691D02*
X012669Y009538D01*
X025137Y009198D02*
X025137Y009045D01*
X025137Y009121D02*
X025597Y009121D01*
X025597Y009045D02*
X025597Y009198D01*
X025521Y008891D02*
X025214Y008891D01*
X025137Y008814D01*
X025137Y008661D01*
X025214Y008584D01*
X025137Y008431D02*
X025444Y008124D01*
X025521Y008124D01*
X025597Y008201D01*
X025597Y008354D01*
X025521Y008431D01*
X025521Y008584D02*
X025597Y008661D01*
X025597Y008814D01*
X025521Y008891D01*
X025137Y008431D02*
X025137Y008124D01*
X026458Y009288D02*
X026458Y009748D01*
X026688Y009748D01*
X026765Y009672D01*
X026765Y009518D01*
X026688Y009442D01*
X026458Y009442D01*
X026611Y009442D02*
X026765Y009288D01*
X026918Y009288D02*
X027225Y009288D01*
X027379Y009288D02*
X027686Y009288D01*
X027839Y009288D02*
X028146Y009288D01*
X027993Y009288D02*
X027993Y009748D01*
X027839Y009595D01*
X027379Y009748D02*
X027379Y009288D01*
X027072Y009518D02*
X026918Y009518D01*
X026918Y009748D02*
X026918Y009288D01*
X026918Y009748D02*
X027225Y009748D01*
X031175Y005686D02*
X031175Y005226D01*
X031405Y005226D01*
X031481Y005302D01*
X031481Y005456D01*
X031405Y005532D01*
X031175Y005532D01*
X031635Y005532D02*
X031635Y005302D01*
X031712Y005226D01*
X031942Y005226D01*
X031942Y005532D01*
X032095Y005456D02*
X032172Y005532D01*
X032402Y005532D01*
X032325Y005379D02*
X032172Y005379D01*
X032095Y005456D01*
X032095Y005226D02*
X032325Y005226D01*
X032402Y005302D01*
X032325Y005379D01*
X033016Y005456D02*
X033323Y005456D01*
X033169Y005609D02*
X033169Y005302D01*
X031592Y004526D02*
X031592Y002471D01*
X031137Y002248D02*
X031137Y001788D01*
X031367Y001788D01*
X031444Y001865D01*
X031444Y002018D01*
X031367Y002095D01*
X031137Y002095D01*
X031597Y002095D02*
X031597Y001865D01*
X031674Y001788D01*
X031904Y001788D01*
X031904Y002095D01*
X032058Y002018D02*
X032134Y002095D01*
X032365Y002095D01*
X032288Y001941D02*
X032134Y001941D01*
X032058Y002018D01*
X032058Y001788D02*
X032288Y001788D01*
X032365Y001865D01*
X032288Y001941D01*
X032979Y002018D02*
X033285Y002018D01*
X032246Y003626D02*
X031939Y003626D01*
X032093Y003626D02*
X032093Y004086D01*
X031939Y003932D01*
X031786Y004009D02*
X031709Y004086D01*
X031479Y004086D01*
X031479Y003626D01*
X031709Y003626D01*
X031786Y003702D01*
X031786Y004009D01*
X030092Y004526D02*
X030092Y002471D01*
X028465Y003615D02*
X028465Y003922D01*
X028388Y003998D01*
X028158Y003998D01*
X028158Y003538D01*
X028388Y003538D01*
X028465Y003615D01*
X028004Y003538D02*
X028004Y003998D01*
X027697Y003998D02*
X027697Y003538D01*
X027544Y003615D02*
X027544Y003768D01*
X027391Y003768D01*
X027544Y003615D02*
X027467Y003538D01*
X027314Y003538D01*
X027237Y003615D01*
X027237Y003922D01*
X027314Y003998D01*
X027467Y003998D01*
X027544Y003922D01*
X027697Y003998D02*
X028004Y003538D01*
D12*
X028232Y001092D02*
X028232Y000907D01*
X028294Y000846D01*
X028356Y000907D01*
X028417Y000846D01*
X028479Y000907D01*
X028479Y001092D01*
X028600Y001092D02*
X028600Y000907D01*
X028662Y000846D01*
X028724Y000907D01*
X028786Y000846D01*
X028847Y000907D01*
X028847Y001092D01*
X028969Y001092D02*
X028969Y000907D01*
X029030Y000846D01*
X029092Y000907D01*
X029154Y000846D01*
X029216Y000907D01*
X029216Y001092D01*
X029337Y000907D02*
X029399Y000907D01*
X029399Y000846D01*
X029337Y000846D01*
X029337Y000907D01*
X029521Y001031D02*
X029645Y001031D01*
X029767Y001092D02*
X029767Y000846D01*
X029767Y000969D02*
X029890Y001092D01*
X029952Y001092D01*
X030074Y001031D02*
X030135Y001092D01*
X030259Y001092D01*
X030320Y001031D01*
X030320Y000969D01*
X030074Y000969D01*
X030074Y000907D02*
X030074Y001031D01*
X030074Y000907D02*
X030135Y000846D01*
X030259Y000846D01*
X030442Y000907D02*
X030442Y001031D01*
X030504Y001092D01*
X030627Y001092D01*
X030689Y001031D01*
X030689Y000969D01*
X030442Y000969D01*
X030442Y000907D02*
X030504Y000846D01*
X030627Y000846D01*
X030810Y000846D02*
X030995Y000846D01*
X031057Y000907D01*
X031057Y001031D01*
X030995Y001092D01*
X030810Y001092D01*
X030810Y001216D02*
X030810Y000846D01*
X031179Y000907D02*
X031179Y001092D01*
X031179Y000907D02*
X031240Y000846D01*
X031425Y000846D01*
X031425Y001092D01*
X031547Y001031D02*
X031609Y001092D01*
X031794Y001092D01*
X031732Y000969D02*
X031609Y000969D01*
X031547Y001031D01*
X031547Y000846D02*
X031732Y000846D01*
X031794Y000907D01*
X031732Y000969D01*
X031915Y000907D02*
X031977Y000907D01*
X031977Y000846D01*
X031915Y000846D01*
X031915Y000907D01*
X032099Y000907D02*
X032161Y000846D01*
X032284Y000846D01*
X032346Y000907D01*
X032346Y001031D01*
X032284Y001092D01*
X032161Y001092D01*
X032099Y001031D01*
X032099Y000907D01*
X032468Y000846D02*
X032468Y001092D01*
X032591Y001092D02*
X032653Y001092D01*
X032591Y001092D02*
X032468Y000969D01*
X032774Y001031D02*
X032836Y001092D01*
X033021Y001092D01*
X033021Y000784D01*
X032960Y000722D01*
X032898Y000722D01*
X032836Y000846D02*
X033021Y000846D01*
X032836Y000846D02*
X032774Y000907D01*
X032774Y001031D01*
X029645Y001216D02*
X029583Y001154D01*
X029583Y000846D01*
X013278Y008470D02*
X013216Y008531D01*
X013093Y008531D01*
X013031Y008593D01*
X013093Y008655D01*
X013278Y008655D01*
X013278Y008470D02*
X013216Y008408D01*
X013031Y008408D01*
X012910Y008408D02*
X012910Y008655D01*
X012910Y008408D02*
X012725Y008408D01*
X012663Y008470D01*
X012663Y008655D01*
X012541Y008593D02*
X012480Y008655D01*
X012295Y008655D01*
X012295Y008778D02*
X012295Y008408D01*
X012480Y008408D01*
X012541Y008470D01*
X012541Y008593D01*
X011217Y008655D02*
X011094Y008655D01*
X011155Y008717D02*
X011155Y008470D01*
X011217Y008408D01*
X010972Y008408D02*
X010725Y008655D01*
X010604Y008593D02*
X010604Y008531D01*
X010357Y008531D01*
X010357Y008470D02*
X010357Y008593D01*
X010419Y008655D01*
X010542Y008655D01*
X010604Y008593D01*
X010542Y008408D02*
X010419Y008408D01*
X010357Y008470D01*
X010725Y008408D02*
X010972Y008655D01*
X009331Y003029D02*
X009331Y002782D01*
X009208Y002906D02*
X009454Y002906D01*
X009085Y002967D02*
X008962Y002967D01*
X009024Y003029D02*
X009024Y002782D01*
X009085Y002721D01*
X008841Y002721D02*
X008594Y002967D01*
X008472Y002906D02*
X008411Y002967D01*
X008287Y002967D01*
X008225Y002906D01*
X008225Y002782D01*
X008287Y002721D01*
X008411Y002721D01*
X008472Y002844D02*
X008225Y002844D01*
X008104Y002844D02*
X008104Y003091D01*
X007857Y003091D02*
X007857Y002844D01*
X007981Y002721D01*
X008104Y002844D01*
X008472Y002844D02*
X008472Y002906D01*
X008594Y002721D02*
X008841Y002967D01*
X009086Y001217D02*
X009086Y000970D01*
X009148Y000908D01*
X009270Y001093D02*
X009517Y001093D01*
X009148Y001155D02*
X009024Y001155D01*
X008903Y001155D02*
X008656Y000908D01*
X008535Y001031D02*
X008288Y001031D01*
X008288Y000970D02*
X008288Y001093D01*
X008350Y001155D01*
X008473Y001155D01*
X008535Y001093D01*
X008535Y001031D01*
X008473Y000908D02*
X008350Y000908D01*
X008288Y000970D01*
X008166Y001031D02*
X008166Y001278D01*
X007920Y001278D02*
X007920Y001031D01*
X008043Y000908D01*
X008166Y001031D01*
X008656Y001155D02*
X008903Y000908D01*
D13*
X021724Y021486D03*
D14*
X033497Y021429D02*
X033577Y021429D01*
X033577Y025359D01*
X036177Y025359D01*
X037117Y025359D01*
X037117Y021429D01*
X036177Y021429D01*
X033577Y021429D01*
X033577Y021359D02*
X036177Y021359D01*
X037117Y021359D01*
X037117Y017429D01*
X036177Y017429D01*
X033577Y017429D01*
X033497Y017429D01*
X033497Y021359D01*
X033577Y021359D01*
X033577Y017429D01*
X033577Y017359D02*
X036177Y017359D01*
X037117Y017359D01*
X037117Y013429D01*
X036177Y013429D01*
X033577Y013429D01*
X033497Y013429D01*
X033497Y017359D01*
X033577Y017359D01*
X033577Y013429D01*
X033577Y013359D02*
X036177Y013359D01*
X037117Y013359D01*
X037117Y009429D01*
X036177Y009429D01*
X033577Y009429D01*
X033497Y009429D01*
X033497Y013359D01*
X033577Y013359D01*
X033577Y009429D01*
X033897Y010409D02*
X033929Y010517D01*
X034014Y010591D01*
X034125Y010607D01*
X034228Y010560D01*
X034289Y010465D01*
X034289Y010353D01*
X034228Y010258D01*
X034125Y010211D01*
X034014Y010227D01*
X033929Y010301D01*
X033897Y010409D01*
X036177Y010759D02*
X036177Y012029D01*
X036177Y012729D02*
X036177Y013359D01*
X036177Y013429D02*
X036177Y014059D01*
X036177Y014759D02*
X036177Y016029D01*
X036177Y016729D02*
X036177Y017359D01*
X036177Y017429D02*
X036177Y018059D01*
X036177Y018759D02*
X036177Y020029D01*
X036177Y020729D02*
X036177Y021359D01*
X036177Y021429D02*
X036177Y022059D01*
X036177Y022759D02*
X036177Y024029D01*
X036177Y024729D02*
X036177Y025359D01*
X033897Y024379D02*
X033929Y024487D01*
X034014Y024561D01*
X034125Y024577D01*
X034228Y024530D01*
X034289Y024435D01*
X034289Y024323D01*
X034228Y024228D01*
X034125Y024181D01*
X034014Y024197D01*
X033929Y024271D01*
X033897Y024379D01*
X033577Y025359D02*
X033497Y025359D01*
X033497Y021429D01*
X033897Y022409D02*
X033929Y022517D01*
X034014Y022591D01*
X034125Y022607D01*
X034228Y022560D01*
X034289Y022465D01*
X034289Y022353D01*
X034228Y022258D01*
X034125Y022211D01*
X034014Y022227D01*
X033929Y022301D01*
X033897Y022409D01*
X033897Y020379D02*
X033929Y020487D01*
X034014Y020561D01*
X034125Y020577D01*
X034228Y020530D01*
X034289Y020435D01*
X034289Y020323D01*
X034228Y020228D01*
X034125Y020181D01*
X034014Y020197D01*
X033929Y020271D01*
X033897Y020379D01*
X033897Y018409D02*
X033929Y018517D01*
X034014Y018591D01*
X034125Y018607D01*
X034228Y018560D01*
X034289Y018465D01*
X034289Y018353D01*
X034228Y018258D01*
X034125Y018211D01*
X034014Y018227D01*
X033929Y018301D01*
X033897Y018409D01*
X033897Y016379D02*
X033929Y016487D01*
X034014Y016561D01*
X034125Y016577D01*
X034228Y016530D01*
X034289Y016435D01*
X034289Y016323D01*
X034228Y016228D01*
X034125Y016181D01*
X034014Y016197D01*
X033929Y016271D01*
X033897Y016379D01*
X033897Y014409D02*
X033929Y014517D01*
X034014Y014591D01*
X034125Y014607D01*
X034228Y014560D01*
X034289Y014465D01*
X034289Y014353D01*
X034228Y014258D01*
X034125Y014211D01*
X034014Y014227D01*
X033929Y014301D01*
X033897Y014409D01*
X033897Y012379D02*
X033929Y012487D01*
X034014Y012561D01*
X034125Y012577D01*
X034228Y012530D01*
X034289Y012435D01*
X034289Y012323D01*
X034228Y012228D01*
X034125Y012181D01*
X034014Y012197D01*
X033929Y012271D01*
X033897Y012379D01*
X036177Y010059D02*
X036177Y009429D01*
X036177Y005359D02*
X033577Y005359D01*
X033577Y001429D01*
X033497Y001429D01*
X033497Y005359D01*
X033577Y005359D01*
X033897Y004379D02*
X033929Y004487D01*
X034014Y004561D01*
X034125Y004577D01*
X034228Y004530D01*
X034289Y004435D01*
X034289Y004323D01*
X034228Y004228D01*
X034125Y004181D01*
X034014Y004197D01*
X033929Y004271D01*
X033897Y004379D01*
X036177Y004729D02*
X036177Y005359D01*
X037117Y005359D01*
X037117Y001429D01*
X036177Y001429D01*
X033577Y001429D01*
X033897Y002409D02*
X033929Y002517D01*
X034014Y002591D01*
X034125Y002607D01*
X034228Y002560D01*
X034289Y002465D01*
X034289Y002353D01*
X034228Y002258D01*
X034125Y002211D01*
X034014Y002227D01*
X033929Y002301D01*
X033897Y002409D01*
X036177Y002759D02*
X036177Y004029D01*
X036177Y002059D02*
X036177Y001429D01*
X026717Y002393D02*
X026717Y005893D01*
X025017Y005893D01*
X025017Y005843D01*
X024417Y005843D01*
X024417Y005893D01*
X023867Y005893D01*
X023717Y005693D01*
X023517Y005693D01*
X022917Y005693D01*
X022717Y005693D01*
X022567Y005893D01*
X021017Y005893D01*
X021017Y005493D01*
X021017Y005393D01*
X022917Y005393D01*
X023517Y005393D01*
X026217Y005393D01*
X026217Y002893D01*
X014217Y002893D01*
X014217Y005393D01*
X015917Y005393D01*
X016517Y005393D01*
X019417Y005393D01*
X019417Y005493D01*
X019417Y005893D01*
X021017Y005893D01*
X021017Y005393D02*
X021017Y005093D01*
X019417Y005093D01*
X019417Y005393D01*
X019417Y005893D02*
X016867Y005893D01*
X016717Y005693D01*
X016517Y005693D01*
X015917Y005693D01*
X015917Y005493D01*
X015917Y005393D01*
X015917Y005693D02*
X015717Y005693D01*
X015567Y005893D01*
X013717Y005893D01*
X013717Y002393D01*
X014217Y002393D01*
X014217Y002293D01*
X014717Y002293D01*
X014717Y002393D01*
X019967Y002393D01*
X019967Y002293D01*
X020467Y002293D01*
X020467Y002393D01*
X025717Y002393D01*
X025717Y002293D01*
X026217Y002293D01*
X026217Y002393D01*
X026717Y002393D01*
X023517Y005393D02*
X023517Y005493D01*
X023517Y005693D01*
X022917Y005693D02*
X022917Y005493D01*
X022917Y005393D01*
X024967Y006868D02*
X024967Y009168D01*
X014967Y009168D01*
X014967Y008418D01*
X014780Y008156D02*
X014780Y006856D01*
X014967Y006868D02*
X014967Y007618D01*
X015120Y007648D01*
X015250Y007735D01*
X015337Y007865D01*
X015367Y008018D01*
X015337Y008171D01*
X015250Y008301D01*
X015120Y008388D01*
X014967Y008418D01*
X014780Y008156D02*
X014753Y008256D01*
X014680Y008329D01*
X014580Y008356D01*
X014080Y008356D02*
X013980Y008329D01*
X013907Y008256D01*
X013880Y008156D01*
X013880Y006856D01*
X013907Y006756D01*
X013980Y006683D01*
X014080Y006656D01*
X014580Y006656D02*
X014680Y006683D01*
X014753Y006756D01*
X014780Y006856D01*
X014967Y006868D02*
X024967Y006868D01*
X016517Y005693D02*
X016517Y005493D01*
X016517Y005393D01*
X014330Y007006D02*
X014330Y007376D01*
X014330Y007626D02*
X014330Y008006D01*
X012742Y007393D02*
X012492Y007643D01*
X011992Y007643D01*
X011742Y007393D01*
X011492Y007643D01*
X010992Y007643D01*
X010742Y007393D01*
X010492Y007643D01*
X009992Y007643D01*
X009742Y007393D01*
X009742Y006893D01*
X009992Y006643D01*
X010492Y006643D01*
X010742Y006893D01*
X010742Y007393D01*
X010742Y006893D02*
X010992Y006643D01*
X011492Y006643D01*
X011742Y006893D01*
X011742Y007393D01*
X012742Y007393D02*
X012742Y006893D01*
X012492Y006643D01*
X011992Y006643D01*
X011742Y006893D01*
X012217Y006368D02*
X010317Y006368D01*
X010267Y006418D01*
X010117Y006418D01*
X010067Y006405D01*
X010030Y006368D01*
X010017Y006318D01*
X010017Y005618D01*
X010030Y005568D01*
X010067Y005531D01*
X010117Y005518D01*
X010267Y005518D01*
X010317Y005568D01*
X012217Y005568D01*
X012267Y005518D01*
X012417Y005518D01*
X012467Y005531D01*
X012504Y005568D01*
X012517Y005618D01*
X012517Y006318D01*
X012504Y006368D01*
X012467Y006405D01*
X012417Y006418D01*
X012267Y006418D01*
X012217Y006368D01*
X008880Y006443D02*
X008880Y004843D01*
X007880Y004843D01*
X007880Y006443D01*
X008880Y006443D01*
X008380Y005893D02*
X008380Y005643D01*
X008130Y005643D01*
X008380Y005643D02*
X008630Y005643D01*
X008380Y005643D02*
X008630Y005243D01*
X008130Y005243D01*
X008380Y005643D01*
X008380Y005043D01*
X007387Y004357D02*
X007307Y004357D01*
X007307Y000427D01*
X004707Y000427D01*
X003767Y000427D01*
X003767Y004357D01*
X004707Y004357D01*
X007307Y004357D01*
X007387Y004357D02*
X007387Y000427D01*
X007307Y000427D01*
X006587Y001407D02*
X006619Y001515D01*
X006704Y001589D01*
X006815Y001605D01*
X006918Y001558D01*
X006979Y001463D01*
X006979Y001351D01*
X006918Y001256D01*
X006815Y001209D01*
X006704Y001225D01*
X006619Y001299D01*
X006587Y001407D01*
X004707Y001057D02*
X004707Y000427D01*
X004707Y001757D02*
X004707Y003027D01*
X004707Y003727D02*
X004707Y004357D01*
X005785Y004919D02*
X005910Y005051D01*
X005990Y005214D01*
X006017Y005393D01*
X005990Y005572D01*
X005910Y005735D01*
X005785Y005867D01*
X004817Y005393D02*
X004845Y005210D01*
X004928Y005045D01*
X005057Y004913D01*
X004817Y005393D02*
X004847Y005580D01*
X004933Y005748D01*
X005068Y005881D01*
X004917Y006193D02*
X004567Y006193D01*
X004917Y006193D02*
X005917Y006193D01*
X006267Y006193D01*
X006617Y006993D02*
X006617Y007093D01*
X006717Y007093D01*
X006717Y007693D01*
X006617Y007693D01*
X006617Y007793D01*
X005317Y007393D02*
X005346Y007464D01*
X005417Y007493D01*
X005488Y007464D01*
X005517Y007393D01*
X005488Y007322D01*
X005417Y007293D01*
X005346Y007322D01*
X005317Y007393D01*
X004717Y007393D02*
X004755Y007620D01*
X004865Y007823D01*
X005034Y007979D01*
X005245Y008072D01*
X005475Y008091D01*
X005698Y008034D01*
X005891Y007908D01*
X006033Y007726D01*
X006107Y007508D01*
X006107Y007278D01*
X006033Y007060D01*
X005891Y006878D01*
X005698Y006752D01*
X005475Y006695D01*
X005245Y006714D01*
X005034Y006807D01*
X004865Y006963D01*
X004755Y007166D01*
X004717Y007393D01*
X004217Y007093D02*
X004217Y006993D01*
X004217Y007093D02*
X004117Y007093D01*
X004117Y007693D01*
X004217Y007693D01*
X004217Y007793D01*
X004567Y008593D02*
X004967Y008593D01*
X005917Y008593D01*
X006267Y008593D01*
X007307Y010427D02*
X004707Y010427D01*
X003767Y010427D01*
X003767Y014357D01*
X004707Y014357D01*
X007307Y014357D01*
X007387Y014357D01*
X007387Y010427D01*
X007307Y010427D01*
X007307Y014357D01*
X007307Y014427D02*
X004707Y014427D01*
X003767Y014427D01*
X003767Y018357D01*
X004707Y018357D01*
X007307Y018357D01*
X007387Y018357D01*
X007387Y014427D01*
X007307Y014427D01*
X007307Y018357D01*
X007307Y018427D02*
X004707Y018427D01*
X003767Y018427D01*
X003767Y022357D01*
X004707Y022357D01*
X007307Y022357D01*
X007387Y022357D01*
X007387Y018427D01*
X007307Y018427D01*
X007307Y022357D01*
X007307Y022427D02*
X004707Y022427D01*
X003767Y022427D01*
X003767Y026357D01*
X004707Y026357D01*
X007307Y026357D01*
X007387Y026357D01*
X007387Y022427D01*
X007307Y022427D01*
X007307Y026357D01*
X006587Y025377D02*
X006619Y025485D01*
X006704Y025559D01*
X006815Y025575D01*
X006918Y025528D01*
X006979Y025433D01*
X006979Y025321D01*
X006918Y025226D01*
X006815Y025179D01*
X006704Y025195D01*
X006619Y025269D01*
X006587Y025377D01*
X004707Y025027D02*
X004707Y023757D01*
X004707Y023057D02*
X004707Y022427D01*
X004707Y022357D02*
X004707Y021727D01*
X004707Y021027D02*
X004707Y019757D01*
X004707Y019057D02*
X004707Y018427D01*
X004707Y018357D02*
X004707Y017727D01*
X004707Y017027D02*
X004707Y015757D01*
X004707Y015057D02*
X004707Y014427D01*
X004707Y014357D02*
X004707Y013727D01*
X004707Y013027D02*
X004707Y011757D01*
X004707Y011057D02*
X004707Y010427D01*
X006587Y011407D02*
X006619Y011515D01*
X006704Y011589D01*
X006815Y011605D01*
X006918Y011558D01*
X006979Y011463D01*
X006979Y011351D01*
X006918Y011256D01*
X006815Y011209D01*
X006704Y011225D01*
X006619Y011299D01*
X006587Y011407D01*
X006587Y013377D02*
X006619Y013485D01*
X006704Y013559D01*
X006815Y013575D01*
X006918Y013528D01*
X006979Y013433D01*
X006979Y013321D01*
X006918Y013226D01*
X006815Y013179D01*
X006704Y013195D01*
X006619Y013269D01*
X006587Y013377D01*
X006587Y015407D02*
X006619Y015515D01*
X006704Y015589D01*
X006815Y015605D01*
X006918Y015558D01*
X006979Y015463D01*
X006979Y015351D01*
X006918Y015256D01*
X006815Y015209D01*
X006704Y015225D01*
X006619Y015299D01*
X006587Y015407D01*
X006587Y017377D02*
X006619Y017485D01*
X006704Y017559D01*
X006815Y017575D01*
X006918Y017528D01*
X006979Y017433D01*
X006979Y017321D01*
X006918Y017226D01*
X006815Y017179D01*
X006704Y017195D01*
X006619Y017269D01*
X006587Y017377D01*
X006587Y019407D02*
X006619Y019515D01*
X006704Y019589D01*
X006815Y019605D01*
X006918Y019558D01*
X006979Y019463D01*
X006979Y019351D01*
X006918Y019256D01*
X006815Y019209D01*
X006704Y019225D01*
X006619Y019299D01*
X006587Y019407D01*
X006587Y021377D02*
X006619Y021485D01*
X006704Y021559D01*
X006815Y021575D01*
X006918Y021528D01*
X006979Y021433D01*
X006979Y021321D01*
X006918Y021226D01*
X006815Y021179D01*
X006704Y021195D01*
X006619Y021269D01*
X006587Y021377D01*
X006587Y023407D02*
X006619Y023515D01*
X006704Y023589D01*
X006815Y023605D01*
X006918Y023558D01*
X006979Y023463D01*
X006979Y023351D01*
X006918Y023256D01*
X006815Y023209D01*
X006704Y023225D01*
X006619Y023299D01*
X006587Y023407D01*
X004707Y025727D02*
X004707Y026357D01*
X015967Y013543D02*
X015967Y012793D01*
X016120Y012763D01*
X016250Y012676D01*
X016337Y012546D01*
X016367Y012393D01*
X016337Y012240D01*
X016250Y012110D01*
X016120Y012023D01*
X015967Y011993D01*
X015967Y011243D01*
X024967Y011243D01*
X024967Y013543D01*
X015967Y013543D01*
X011755Y003906D02*
X011505Y003906D01*
X011505Y003006D01*
X011755Y003006D01*
X011755Y003456D01*
X011755Y003906D01*
X011755Y003456D02*
X011855Y003456D01*
X009405Y003456D02*
X009443Y003846D01*
X009557Y004221D01*
X009742Y004567D01*
X009991Y004870D01*
X010294Y005119D01*
X010640Y005304D01*
X011015Y005418D01*
X011405Y005456D01*
X011795Y005418D01*
X012170Y005304D01*
X012516Y005119D01*
X012819Y004870D01*
X013068Y004567D01*
X013253Y004221D01*
X013367Y003846D01*
X013405Y003456D01*
X013367Y003066D01*
X013253Y002691D01*
X013068Y002345D01*
X012819Y002042D01*
X012516Y001793D01*
X012170Y001608D01*
X011795Y001494D01*
X011405Y001456D01*
X011015Y001494D01*
X010640Y001608D01*
X010294Y001793D01*
X009991Y002042D01*
X009742Y002345D01*
X009557Y002691D01*
X009443Y003066D01*
X009405Y003456D01*
X010955Y003456D02*
X011155Y003456D01*
X012755Y002956D02*
X013055Y002956D01*
X012905Y002806D02*
X012905Y003106D01*
X006587Y003377D02*
X006619Y003485D01*
X006704Y003559D01*
X006815Y003575D01*
X006918Y003528D01*
X006979Y003433D01*
X006979Y003321D01*
X006918Y003226D01*
X006815Y003179D01*
X006704Y003195D01*
X006619Y003269D01*
X006587Y003377D01*
D15*
X006642Y003742D02*
X006642Y004042D01*
X006642Y003892D02*
X006192Y003892D01*
X006342Y003742D01*
X006404Y004452D02*
X006855Y004452D01*
X006855Y004752D01*
X006855Y004912D02*
X006404Y004912D01*
X006404Y005212D01*
X006404Y005372D02*
X006404Y005597D01*
X006479Y005672D01*
X006780Y005672D01*
X006855Y005597D01*
X006855Y005372D01*
X006404Y005372D01*
X006855Y005212D02*
X006855Y004912D01*
X006629Y004912D02*
X006629Y005062D01*
X006554Y005833D02*
X006404Y005983D01*
X006855Y005983D01*
X006855Y005833D02*
X006855Y006133D01*
X009054Y006083D02*
X009129Y006008D01*
X009054Y006083D02*
X009054Y006233D01*
X009129Y006308D01*
X009204Y006308D01*
X009505Y006008D01*
X009505Y006308D01*
X009430Y005848D02*
X009129Y005848D01*
X009054Y005772D01*
X009054Y005547D01*
X009505Y005547D01*
X009505Y005772D01*
X009430Y005848D01*
X010946Y005468D02*
X011171Y005468D01*
X011247Y005393D01*
X011247Y005243D01*
X011171Y005168D01*
X010946Y005168D01*
X010946Y005018D02*
X010946Y005468D01*
X011096Y005168D02*
X011247Y005018D01*
X011407Y005018D02*
X011707Y005018D01*
X011557Y005018D02*
X011557Y005468D01*
X011407Y005318D01*
X014904Y007535D02*
X014979Y007460D01*
X015280Y007460D01*
X015355Y007535D01*
X015355Y007685D01*
X015280Y007760D01*
X015355Y007920D02*
X015054Y008220D01*
X014979Y008220D01*
X014904Y008145D01*
X014904Y007995D01*
X014979Y007920D01*
X014979Y007760D02*
X014904Y007685D01*
X014904Y007535D01*
X015355Y007920D02*
X015355Y008220D01*
X019721Y005643D02*
X019796Y005718D01*
X019946Y005718D01*
X020022Y005643D01*
X020022Y005568D01*
X019721Y005268D01*
X020022Y005268D01*
X020182Y005343D02*
X020482Y005643D01*
X020482Y005343D01*
X020407Y005268D01*
X020257Y005268D01*
X020182Y005343D01*
X020182Y005643D01*
X020257Y005718D01*
X020407Y005718D01*
X020482Y005643D01*
X025282Y004718D02*
X025432Y004868D01*
X025432Y004418D01*
X025282Y004418D02*
X025582Y004418D01*
X025507Y003868D02*
X025357Y003868D01*
X025282Y003793D01*
X025507Y003868D02*
X025582Y003793D01*
X025582Y003718D01*
X025282Y003418D01*
X025582Y003418D01*
X034242Y003659D02*
X034317Y003584D01*
X034242Y003659D02*
X034242Y003809D01*
X034317Y003884D01*
X034392Y003884D01*
X034692Y003584D01*
X034692Y003884D01*
X036462Y002589D02*
X036462Y002439D01*
X036537Y002364D01*
X036612Y002364D01*
X036687Y002439D01*
X036687Y002664D01*
X036837Y002664D02*
X036537Y002664D01*
X036462Y002589D01*
X036837Y002664D02*
X036912Y002589D01*
X036912Y002439D01*
X036837Y002364D01*
X036912Y002204D02*
X036462Y001904D01*
X036462Y002204D02*
X036912Y001904D01*
X034692Y001934D02*
X034692Y001634D01*
X034692Y001784D02*
X034242Y001784D01*
X034392Y001634D01*
X034392Y009634D02*
X034242Y009784D01*
X034692Y009784D01*
X034692Y009634D02*
X034692Y009934D01*
X036462Y009904D02*
X036912Y010204D01*
X036912Y010364D02*
X036912Y010664D01*
X036912Y010514D02*
X036462Y010514D01*
X036612Y010364D01*
X036462Y010204D02*
X036912Y009904D01*
X034692Y011584D02*
X034392Y011884D01*
X034317Y011884D01*
X034242Y011809D01*
X034242Y011659D01*
X034317Y011584D01*
X034692Y011584D02*
X034692Y011884D01*
X034692Y013634D02*
X034692Y013934D01*
X034692Y013784D02*
X034242Y013784D01*
X034392Y013634D01*
X036462Y013904D02*
X036912Y014204D01*
X036912Y014364D02*
X036612Y014664D01*
X036537Y014664D01*
X036462Y014589D01*
X036462Y014439D01*
X036537Y014364D01*
X036462Y014204D02*
X036912Y013904D01*
X036912Y014364D02*
X036912Y014664D01*
X034692Y015584D02*
X034392Y015884D01*
X034317Y015884D01*
X034242Y015809D01*
X034242Y015659D01*
X034317Y015584D01*
X034692Y015584D02*
X034692Y015884D01*
X034692Y017634D02*
X034692Y017934D01*
X034692Y017784D02*
X034242Y017784D01*
X034392Y017634D01*
X036462Y017904D02*
X036912Y018204D01*
X036837Y018364D02*
X036912Y018439D01*
X036912Y018589D01*
X036837Y018664D01*
X036762Y018664D01*
X036687Y018589D01*
X036687Y018514D01*
X036687Y018589D02*
X036612Y018664D01*
X036537Y018664D01*
X036462Y018589D01*
X036462Y018439D01*
X036537Y018364D01*
X036462Y018204D02*
X036912Y017904D01*
X034692Y019584D02*
X034392Y019884D01*
X034317Y019884D01*
X034242Y019809D01*
X034242Y019659D01*
X034317Y019584D01*
X034692Y019584D02*
X034692Y019884D01*
X034692Y021634D02*
X034692Y021934D01*
X034692Y021784D02*
X034242Y021784D01*
X034392Y021634D01*
X036462Y021904D02*
X036912Y022204D01*
X036687Y022364D02*
X036687Y022664D01*
X036912Y022589D02*
X036462Y022589D01*
X036687Y022364D01*
X036462Y022204D02*
X036912Y021904D01*
X034692Y023584D02*
X034392Y023884D01*
X034317Y023884D01*
X034242Y023809D01*
X034242Y023659D01*
X034317Y023584D01*
X034692Y023584D02*
X034692Y023884D01*
X015792Y012708D02*
X015792Y012408D01*
X015792Y012558D02*
X015342Y012558D01*
X015492Y012408D01*
X015417Y012248D02*
X015342Y012172D01*
X015342Y012022D01*
X015417Y011947D01*
X015717Y011947D01*
X015792Y012022D01*
X015792Y012172D01*
X015717Y012248D01*
X015792Y011791D02*
X015792Y011640D01*
X015792Y011715D02*
X015342Y011715D01*
X015342Y011640D02*
X015342Y011791D01*
X009512Y008011D02*
X009437Y008086D01*
X009287Y008086D01*
X009212Y008011D01*
X009052Y008011D02*
X009052Y007861D01*
X008976Y007786D01*
X008751Y007786D01*
X008751Y007636D02*
X008751Y008086D01*
X008976Y008086D01*
X009052Y008011D01*
X009212Y007636D02*
X009512Y007936D01*
X009512Y008011D01*
X009512Y007636D02*
X009212Y007636D01*
X008516Y007711D02*
X008516Y008086D01*
X008441Y008086D02*
X008591Y008086D01*
X008516Y007711D02*
X008441Y007636D01*
X008366Y007636D01*
X008291Y007711D01*
X004103Y005818D02*
X004103Y005368D01*
X004253Y005368D02*
X003952Y005368D01*
X003792Y005443D02*
X003717Y005368D01*
X003567Y005368D01*
X003492Y005443D01*
X003567Y005593D02*
X003492Y005668D01*
X003492Y005743D01*
X003567Y005818D01*
X003717Y005818D01*
X003792Y005743D01*
X003717Y005593D02*
X003792Y005518D01*
X003792Y005443D01*
X003717Y005593D02*
X003567Y005593D01*
X003952Y005668D02*
X004103Y005818D01*
X004047Y003772D02*
X004347Y003472D01*
X004422Y003547D01*
X004422Y003697D01*
X004347Y003772D01*
X004047Y003772D01*
X003972Y003697D01*
X003972Y003547D01*
X004047Y003472D01*
X004347Y003472D01*
X004422Y003312D02*
X004422Y003012D01*
X004422Y003162D02*
X003972Y003162D01*
X004122Y003012D01*
X003972Y002851D02*
X004422Y002551D01*
X004422Y002851D02*
X003972Y002551D01*
X006192Y002017D02*
X006192Y001867D01*
X006267Y001792D01*
X006192Y002017D02*
X006267Y002092D01*
X006342Y002092D01*
X006642Y001792D01*
X006642Y002092D01*
X012521Y001568D02*
X012521Y001268D01*
X012596Y001193D01*
X012746Y001193D01*
X012822Y001268D01*
X012982Y001193D02*
X013282Y001193D01*
X013132Y001193D02*
X013132Y001643D01*
X012982Y001493D01*
X012822Y001568D02*
X012746Y001643D01*
X012596Y001643D01*
X012521Y001568D01*
X006642Y011792D02*
X006342Y012092D01*
X006267Y012092D01*
X006192Y012017D01*
X006192Y011867D01*
X006267Y011792D01*
X006642Y011792D02*
X006642Y012092D01*
X004422Y013012D02*
X003972Y013312D01*
X004047Y013472D02*
X004122Y013472D01*
X004197Y013547D01*
X004197Y013697D01*
X004272Y013772D01*
X004347Y013772D01*
X004422Y013697D01*
X004422Y013547D01*
X004347Y013472D01*
X004272Y013472D01*
X004197Y013547D01*
X004197Y013697D02*
X004122Y013772D01*
X004047Y013772D01*
X003972Y013697D01*
X003972Y013547D01*
X004047Y013472D01*
X004422Y013312D02*
X003972Y013012D01*
X006192Y013892D02*
X006642Y013892D01*
X006642Y013742D02*
X006642Y014042D01*
X006342Y013742D02*
X006192Y013892D01*
X006267Y015792D02*
X006192Y015867D01*
X006192Y016017D01*
X006267Y016092D01*
X006342Y016092D01*
X006642Y015792D01*
X006642Y016092D01*
X004422Y017012D02*
X003972Y017312D01*
X003972Y017472D02*
X003972Y017772D01*
X004047Y017772D01*
X004347Y017472D01*
X004422Y017472D01*
X004422Y017312D02*
X003972Y017012D01*
X006192Y017892D02*
X006642Y017892D01*
X006642Y017742D02*
X006642Y018042D01*
X006342Y017742D02*
X006192Y017892D01*
X006267Y019792D02*
X006192Y019867D01*
X006192Y020017D01*
X006267Y020092D01*
X006342Y020092D01*
X006642Y019792D01*
X006642Y020092D01*
X004422Y021012D02*
X003972Y021312D01*
X004197Y021472D02*
X004047Y021622D01*
X003972Y021772D01*
X004197Y021697D02*
X004197Y021472D01*
X004347Y021472D01*
X004422Y021547D01*
X004422Y021697D01*
X004347Y021772D01*
X004272Y021772D01*
X004197Y021697D01*
X004422Y021312D02*
X003972Y021012D01*
X006192Y021892D02*
X006642Y021892D01*
X006642Y021742D02*
X006642Y022042D01*
X006342Y021742D02*
X006192Y021892D01*
X006267Y023792D02*
X006192Y023867D01*
X006192Y024017D01*
X006267Y024092D01*
X006342Y024092D01*
X006642Y023792D01*
X006642Y024092D01*
X004422Y025012D02*
X003972Y025312D01*
X003972Y025472D02*
X004197Y025472D01*
X004122Y025622D01*
X004122Y025697D01*
X004197Y025772D01*
X004347Y025772D01*
X004422Y025697D01*
X004422Y025547D01*
X004347Y025472D01*
X004422Y025312D02*
X003972Y025012D01*
X003972Y025472D02*
X003972Y025772D01*
X006192Y025892D02*
X006642Y025892D01*
X006642Y025742D02*
X006642Y026042D01*
X006342Y025742D02*
X006192Y025892D01*
D16*
X008036Y026072D02*
X008036Y022214D01*
X014351Y022214D01*
X014851Y022072D02*
X012536Y022072D01*
X010351Y022072D02*
X009036Y022072D01*
X008036Y022072D02*
X008036Y018214D01*
X014351Y018214D01*
X014851Y018072D02*
X012536Y018072D01*
X010351Y018072D02*
X009036Y018072D01*
X008036Y018072D02*
X008036Y014214D01*
X014351Y014214D01*
X014851Y014072D02*
X012536Y014072D01*
X010351Y014072D02*
X009036Y014072D01*
X008036Y014072D02*
X008036Y010214D01*
X014351Y010214D01*
X015851Y010214D02*
X015851Y014072D01*
X015851Y014214D02*
X015851Y018072D01*
X015851Y018214D02*
X015851Y022072D01*
X015851Y022214D02*
X015851Y026072D01*
X014851Y026072D02*
X012536Y026072D01*
X010351Y026072D02*
X009036Y026072D01*
X025083Y025822D02*
X025083Y021964D01*
X025083Y021822D02*
X025083Y017964D01*
X025083Y017822D02*
X025083Y013964D01*
X025083Y013822D02*
X025083Y009964D01*
X026083Y009964D02*
X028398Y009964D01*
X030583Y009964D02*
X031898Y009964D01*
X032898Y009964D02*
X032898Y013822D01*
X026583Y013822D01*
X026083Y013964D02*
X028398Y013964D01*
X030583Y013964D02*
X031898Y013964D01*
X032898Y013964D02*
X032898Y017822D01*
X026583Y017822D01*
X026083Y017964D02*
X028398Y017964D01*
X030583Y017964D02*
X031898Y017964D01*
X032898Y017964D02*
X032898Y021822D01*
X026583Y021822D01*
X026083Y021964D02*
X028398Y021964D01*
X030583Y021964D02*
X031898Y021964D01*
X032898Y021964D02*
X032898Y025822D01*
X026583Y025822D01*
X030448Y003735D02*
X030842Y003735D01*
X031236Y003735D01*
X030842Y003735D02*
X030460Y003312D01*
X031212Y003312D01*
X030842Y003735D01*
D17*
X026317Y002793D02*
X026317Y005493D01*
X023517Y005493D01*
X022917Y005493D02*
X021017Y005493D01*
X019417Y005493D02*
X016517Y005493D01*
X015917Y005493D02*
X014117Y005493D01*
X014117Y002793D01*
X026317Y002793D01*
X005917Y006193D02*
X005917Y006293D01*
X004917Y006293D01*
X004917Y006193D01*
X004967Y008493D02*
X004967Y008593D01*
X004967Y008493D02*
X005917Y008493D01*
X005917Y008593D01*
D18*
X004617Y005393D02*
X004646Y005179D01*
X004731Y004981D01*
X004866Y004813D01*
X005041Y004687D01*
X005814Y004698D02*
X005981Y004825D01*
X006109Y004991D01*
X006190Y005185D01*
X006217Y005393D01*
X006184Y005621D01*
X006087Y005831D01*
X005934Y006004D01*
X004905Y006008D02*
X004750Y005834D01*
X004651Y005623D01*
X004617Y005393D01*
D19*
X009847Y005968D03*
X012687Y005968D03*
D20*
X011180Y003456D03*
D21*
X024818Y001583D02*
X024924Y001478D01*
X025029Y001478D01*
X025134Y001583D01*
X025134Y002109D01*
X025029Y002109D02*
X025239Y002109D01*
X025463Y002109D02*
X025778Y002109D01*
X025883Y002004D01*
X025883Y001793D01*
X025778Y001688D01*
X025463Y001688D01*
X025463Y001478D02*
X025463Y002109D01*
X026108Y001898D02*
X026318Y002109D01*
X026318Y001478D01*
X026108Y001478D02*
X026528Y001478D01*
D22*
X008380Y006193D03*
D23*
X008380Y006818D03*
X008380Y004468D03*
D24*
X014030Y007376D02*
X014330Y007376D01*
X014630Y007376D01*
X014630Y007626D02*
X014330Y007626D01*
X014030Y007626D01*
M02*
