G75*
G70*
%OFA0B0*%
%FSLAX24Y24*%
%IPPOS*%
%LPD*%
%AMOC8*
5,1,8,0,0,1.08239X$1,22.5*
%
%ADD10C,0.1182*%
%ADD11OC8,0.0674*%
%ADD12C,0.0674*%
%ADD13OC8,0.0634*%
%ADD14C,0.0634*%
%ADD15R,0.0674X0.0674*%
%ADD16C,0.0634*%
%ADD17C,0.1080*%
%ADD18OC8,0.1080*%
%ADD19OC8,0.0710*%
%ADD20C,0.0710*%
%ADD21C,0.0907*%
%ADD22C,0.0730*%
%ADD23OC8,0.0555*%
%ADD24OC8,0.1025*%
%ADD25C,0.0480*%
%ADD26OC8,0.0611*%
D10*
X001611Y002141D03*
X025361Y002141D03*
X025361Y021391D03*
X001611Y021391D03*
D11*
X003511Y001041D03*
X003511Y002041D03*
X007511Y002041D03*
X009011Y002141D03*
X010111Y002141D03*
X009011Y001041D03*
X007511Y001041D03*
X013011Y001041D03*
X015511Y001041D03*
X015511Y002041D03*
X015511Y003041D03*
X016511Y004041D03*
X015511Y005141D03*
X015511Y006141D03*
X018511Y004041D03*
X019511Y005141D03*
X019511Y006141D03*
X019511Y003041D03*
X019511Y002041D03*
X019511Y001041D03*
X011011Y006051D03*
X010111Y004141D03*
X009011Y004141D03*
X003611Y007141D03*
X002611Y007141D03*
X002611Y008141D03*
X003611Y008141D03*
X003611Y009141D03*
X002611Y009141D03*
X002611Y010141D03*
X003611Y010141D03*
X003611Y011141D03*
X002611Y011141D03*
X002611Y012141D03*
X003611Y012141D03*
X005611Y013041D03*
X005611Y014041D03*
X003611Y014141D03*
X002611Y014141D03*
X002611Y013141D03*
X003611Y013141D03*
X003611Y015141D03*
X002611Y015141D03*
X003611Y016141D03*
X005611Y016041D03*
X005511Y020941D03*
X004511Y020941D03*
X003511Y020941D03*
X003511Y021941D03*
X004511Y021941D03*
X005511Y021941D03*
X015311Y022041D03*
X015311Y021041D03*
X015311Y020041D03*
X015311Y019041D03*
X019311Y019041D03*
X019311Y020041D03*
X019311Y021041D03*
X019311Y022041D03*
X021811Y017341D03*
X021811Y012341D03*
X011011Y010051D03*
X005611Y011041D03*
D12*
X011731Y014734D02*
X011731Y015328D01*
X013731Y015328D02*
X013731Y014734D01*
X020911Y016044D02*
X020911Y016638D01*
X022814Y016941D02*
X023408Y016941D01*
X023408Y015941D02*
X022814Y015941D01*
X022814Y014941D02*
X023408Y014941D01*
X023408Y013941D02*
X022814Y013941D01*
X022814Y012941D02*
X023408Y012941D01*
X023408Y011941D02*
X022814Y011941D01*
X020911Y012044D02*
X020911Y012638D01*
X014408Y010641D02*
X013814Y010641D01*
X013814Y009641D02*
X014408Y009641D01*
X014408Y008641D02*
X013814Y008641D01*
X013814Y007641D02*
X014408Y007641D01*
X015514Y008341D02*
X016108Y008341D01*
X015834Y007181D02*
X016428Y007181D01*
X014408Y006641D02*
X013814Y006641D01*
X013814Y005641D02*
X014408Y005641D01*
X018834Y007181D02*
X019428Y007181D01*
X019514Y008341D02*
X020108Y008341D01*
X014408Y002341D02*
X013814Y002341D01*
X013814Y001341D02*
X014408Y001341D01*
X007808Y002941D02*
X007214Y002941D01*
X003808Y002941D02*
X003214Y002941D01*
X001618Y019341D02*
X001024Y019341D01*
X005024Y019341D02*
X005618Y019341D01*
X006534Y020451D02*
X007128Y020451D01*
X009094Y020451D02*
X009688Y020451D01*
X009688Y022231D02*
X009094Y022231D01*
X007128Y022231D02*
X006534Y022231D01*
D13*
X010511Y021841D03*
X012111Y016891D03*
X011291Y013601D03*
X011291Y012601D03*
X013111Y013141D03*
X014041Y013601D03*
X014041Y012601D03*
X012111Y009391D03*
X013111Y005641D03*
X011811Y003741D03*
X011061Y003241D03*
X011811Y002741D03*
X020861Y004741D03*
X021611Y004241D03*
X021611Y005241D03*
X025111Y005641D03*
X024111Y009391D03*
X025111Y013141D03*
X024111Y016891D03*
X024711Y018791D03*
X024711Y019791D03*
D14*
X023611Y019218D02*
X023611Y018664D01*
X022611Y018664D02*
X022611Y019218D01*
X021611Y019218D02*
X021611Y018664D01*
X020611Y018664D02*
X020611Y019218D01*
X020611Y021664D02*
X020611Y022218D01*
X021611Y022218D02*
X021611Y021664D01*
X022611Y021664D02*
X022611Y022218D01*
X023611Y022218D02*
X023611Y021664D01*
X009988Y019041D02*
X009434Y019041D01*
X009434Y018041D02*
X009988Y018041D01*
X009988Y017041D02*
X009434Y017041D01*
X009434Y016041D02*
X009988Y016041D01*
X009988Y015041D02*
X009434Y015041D01*
X009434Y014041D02*
X009988Y014041D01*
X009988Y013041D02*
X009434Y013041D01*
X009434Y012041D02*
X009988Y012041D01*
X009988Y011041D02*
X009434Y011041D01*
X009434Y010041D02*
X009988Y010041D01*
X009988Y009041D02*
X009434Y009041D01*
X009434Y008041D02*
X009988Y008041D01*
X009988Y007041D02*
X009434Y007041D01*
X009434Y006041D02*
X009988Y006041D01*
X006988Y006041D02*
X006434Y006041D01*
X006434Y007041D02*
X006988Y007041D01*
X006988Y008041D02*
X006434Y008041D01*
X006434Y009041D02*
X006988Y009041D01*
X006988Y010041D02*
X006434Y010041D01*
X006434Y011041D02*
X006988Y011041D01*
X006988Y012041D02*
X006434Y012041D01*
X006434Y013041D02*
X006988Y013041D01*
X006988Y014041D02*
X006434Y014041D01*
X006434Y015041D02*
X006988Y015041D01*
X006988Y016041D02*
X006434Y016041D01*
X006434Y017041D02*
X006988Y017041D01*
X006988Y018041D02*
X006434Y018041D01*
X006434Y019041D02*
X006988Y019041D01*
X015234Y014141D02*
X015788Y014141D01*
X015788Y013141D02*
X015234Y013141D01*
X015234Y012141D02*
X015788Y012141D01*
X015788Y011141D02*
X015234Y011141D01*
X015234Y010141D02*
X015788Y010141D01*
X022834Y009741D02*
X023388Y009741D01*
X023388Y008741D02*
X022834Y008741D01*
X022834Y007741D02*
X023388Y007741D01*
X023388Y006741D02*
X022834Y006741D01*
X021688Y003041D02*
X021134Y003041D01*
X021134Y002041D02*
X021688Y002041D01*
X021688Y001041D02*
X021134Y001041D01*
X022834Y010741D02*
X023388Y010741D01*
D15*
X002611Y016141D03*
D16*
X010511Y020841D03*
X013111Y016891D03*
X012111Y013141D03*
X013111Y009391D03*
X012111Y005641D03*
X024111Y005641D03*
X025111Y009391D03*
X024111Y013141D03*
X025111Y016891D03*
D17*
X013811Y019441D03*
D18*
X011811Y019441D03*
D19*
X018361Y012641D03*
D20*
X018361Y011641D03*
D21*
X007987Y004141D02*
X007160Y004141D01*
X001987Y004141D02*
X001160Y004141D01*
D22*
X017027Y015716D02*
X017027Y016366D01*
X018995Y016366D02*
X018995Y015716D01*
D23*
X019811Y013891D03*
X017111Y013691D03*
X011211Y011591D03*
X012061Y010191D03*
X015511Y009141D03*
X012211Y008191D03*
X008011Y006041D03*
X018111Y006141D03*
X023886Y004516D03*
X007548Y014541D03*
X011111Y018041D03*
X005111Y018541D03*
X002411Y020241D03*
X001511Y017341D03*
X001511Y015341D03*
D24*
X019436Y009516D03*
D25*
X017811Y010241D03*
X012611Y011041D03*
X008311Y010941D03*
X007911Y010141D03*
X005511Y009641D03*
X003111Y008741D03*
X003111Y010541D03*
X004311Y011041D03*
X008511Y007141D03*
X010511Y006441D03*
X010511Y005641D03*
X013011Y006241D03*
X012711Y014441D03*
X013111Y015441D03*
X014411Y015441D03*
D26*
X008411Y018541D03*
M02*
