%
M48
M72
T01C0.0315
T02C0.0354
T03C0.0394
T04C0.0433
T05C0.0551
T06C0.0630
T07C0.1102
%
T01
X10511Y5341
X12011Y4841
X8011Y6041
X12211Y8191
X15511Y9141
X17111Y9641
X16561Y11141
X12611Y11141
X11211Y11591
X12061Y10191
X8473Y9416
X7961Y10041
X7961Y11004
X8473Y11591
X7548Y14541
X1511Y15341
X1511Y17341
X5111Y18541
X2411Y20241
X11111Y18041
X17111Y13691
X19811Y13891
X18111Y6141
X23886Y4516
X4661Y8591
T02
X6711Y9041
X6711Y8041
X6711Y7041
X6711Y6041
X9711Y6041
X9711Y7041
X9711Y8041
X9711Y9041
X9711Y10041
X9711Y11041
X9711Y12041
X11291Y12601
X12111Y13141
X11291Y13601
X9711Y14041
X9711Y13041
X6711Y13041
X6711Y12041
X6711Y11041
X6711Y10041
X12111Y9391
X13111Y9391
X15511Y10141
X15511Y11141
X15511Y12141
X15511Y13141
X14041Y13601
X13111Y13141
X14041Y12601
X15511Y14141
X18361Y12641
X18361Y11641
X23111Y10741
X23111Y9741
X24111Y9391
X23111Y8741
X23111Y7741
X23111Y6741
X24111Y5641
X25111Y5641
X21611Y5241
X20861Y4741
X21611Y4241
X21411Y3041
X21411Y2041
X21411Y1041
X13111Y5641
X12111Y5641
X11811Y3741
X11061Y3241
X11811Y2741
X25111Y9391
X25111Y13141
X24111Y13141
X24111Y16891
X25111Y16891
X24711Y18791
X23611Y18941
X22611Y18941
X21611Y18941
X20611Y18941
X24711Y19791
X23611Y21941
X22611Y21941
X21611Y21941
X20611Y21941
X13111Y16891
X12111Y16891
X9711Y17041
X9711Y16041
X9711Y15041
X6711Y15041
X6711Y14041
X6711Y16041
X6711Y17041
X6711Y18041
X6711Y19041
X8411Y18541
X9711Y18041
X9711Y19041
X10511Y20841
X10511Y21841
T03
X3511Y1041
X3511Y2041
X3511Y2941
X7511Y2941
X9011Y2141
X10111Y2141
X9011Y1041
X7511Y1041
X7511Y2041
X9011Y4141
X10111Y4141
X11011Y6051
X14111Y5641
X15511Y5141
X16511Y4041
X15511Y3041
X14111Y2341
X15511Y2041
X14111Y1341
X13011Y1041
X15511Y1041
X19511Y1041
X19511Y2041
X19511Y3041
X18511Y4041
X19511Y5141
X19511Y6141
X19131Y7181
X19811Y8341
X16131Y7181
X15511Y6141
X14111Y6641
X14111Y7641
X15811Y8341
X14111Y8641
X14111Y9641
X14111Y10641
X11011Y10051
X5611Y11041
X3611Y11141
X2611Y11141
X2611Y10141
X3611Y10141
X3611Y9141
X2611Y9141
X2611Y8141
X3611Y8141
X3611Y7141
X2611Y7141
X2611Y12141
X3611Y12141
X3611Y13141
X2611Y13141
X2611Y14141
X3611Y14141
X3611Y15141
X2611Y15141
X2611Y16141
X3611Y16141
X5611Y16041
X5611Y14041
X5611Y13041
X11731Y15031
X13731Y15031
X20911Y16341
X21811Y17341
X23111Y16941
X23111Y15941
X23111Y14941
X23111Y13941
X23111Y12941
X21811Y12341
X20911Y12341
X23111Y11941
X19311Y19041
X19311Y20041
X19311Y21041
X19311Y22041
X15311Y22041
X15311Y21041
X15311Y20041
X15311Y19041
X9391Y20451
X6831Y20451
X5511Y20941
X4511Y20941
X3511Y20941
X3511Y21941
X4511Y21941
X5511Y21941
X6831Y22231
X9391Y22231
X5321Y19341
X1321Y19341
T04
X11811Y19441
X13811Y19441
X17027Y16041
X18995Y16041
T05
X7573Y4141
X1573Y4141
T06
X19436Y9516
T07
X25361Y2141
X1611Y2141
X1611Y21391
X25361Y21391
M30
