G75*
G70*
%OFA0B0*%
%FSLAX24Y24*%
%IPPOS*%
%LPD*%
%AMOC8*
5,1,8,0,0,1.08239X$1,22.5*
%
%ADD10C,0.0000*%
%ADD11C,0.0040*%
%ADD12C,0.0030*%
%ADD13C,0.0060*%
%ADD14C,0.0050*%
%ADD15C,0.0020*%
%ADD16C,0.0100*%
%ADD17R,0.0200X0.0150*%
%ADD18C,0.0080*%
%ADD19C,0.0160*%
%ADD20C,0.0240*%
%ADD21C,0.0120*%
D10*
X000672Y000105D02*
X000672Y026601D01*
X033207Y026603D01*
X033207Y025351D01*
X034642Y025351D01*
X034642Y001355D01*
X033207Y001355D01*
X033207Y000103D01*
X000672Y000105D01*
X017156Y001603D02*
X017193Y001802D01*
X017300Y001974D01*
X017461Y002096D01*
X017656Y002152D01*
X017858Y002133D01*
X018039Y002043D01*
X018175Y001893D01*
X018249Y001704D01*
X018249Y001502D01*
X018175Y001313D01*
X018039Y001163D01*
X017858Y001073D01*
X017656Y001054D01*
X017461Y001110D01*
X017300Y001232D01*
X017193Y001404D01*
X017156Y001603D01*
X017156Y025103D02*
X017193Y025302D01*
X017300Y025474D01*
X017461Y025596D01*
X017656Y025652D01*
X017858Y025633D01*
X018039Y025543D01*
X018175Y025393D01*
X018249Y025204D01*
X018249Y025002D01*
X018175Y024813D01*
X018039Y024663D01*
X017858Y024573D01*
X017656Y024554D01*
X017461Y024610D01*
X017300Y024732D01*
X017193Y024904D01*
X017156Y025103D01*
D11*
X031877Y006083D02*
X031877Y005623D01*
X032107Y005623D01*
X032184Y005699D01*
X032184Y005853D01*
X032107Y005930D01*
X031877Y005930D01*
X032337Y005930D02*
X032337Y005699D01*
X032414Y005623D01*
X032644Y005623D01*
X032644Y005930D01*
X032797Y005853D02*
X032874Y005930D01*
X033104Y005930D01*
X033028Y005776D02*
X032874Y005776D01*
X032797Y005853D01*
X032797Y005623D02*
X033028Y005623D01*
X033104Y005699D01*
X033028Y005776D01*
X033718Y005853D02*
X034025Y005853D01*
X033872Y006006D02*
X033872Y005699D01*
X030044Y003673D02*
X030044Y001618D01*
X030777Y001083D02*
X030777Y000623D01*
X031007Y000623D01*
X031084Y000699D01*
X031084Y000853D01*
X031007Y000930D01*
X030777Y000930D01*
X031237Y000930D02*
X031237Y000699D01*
X031314Y000623D01*
X031544Y000623D01*
X031544Y000930D01*
X031697Y000853D02*
X031774Y000776D01*
X031928Y000776D01*
X032004Y000699D01*
X031928Y000623D01*
X031697Y000623D01*
X031697Y000853D02*
X031774Y000930D01*
X032004Y000930D01*
X032618Y000853D02*
X032925Y000853D01*
X028761Y001037D02*
X028684Y000960D01*
X028530Y000960D01*
X028454Y001037D01*
X028300Y001037D02*
X028300Y001344D01*
X028224Y001421D01*
X027993Y001421D01*
X027993Y000960D01*
X028224Y000960D01*
X028300Y001037D01*
X028607Y001190D02*
X028684Y001190D01*
X028761Y001114D01*
X028761Y001037D01*
X028684Y001190D02*
X028761Y001267D01*
X028761Y001344D01*
X028684Y001421D01*
X028530Y001421D01*
X028454Y001344D01*
X028544Y001618D02*
X028544Y003673D01*
D12*
X033784Y002930D02*
X034154Y002930D01*
X034154Y003115D01*
X034093Y003177D01*
X033969Y003177D01*
X033907Y003115D01*
X033907Y002930D01*
X033907Y003299D02*
X034093Y003299D01*
X034154Y003360D01*
X034154Y003545D01*
X033907Y003545D01*
X033969Y003667D02*
X033907Y003729D01*
X033907Y003914D01*
X034031Y003852D02*
X034031Y003729D01*
X033969Y003667D01*
X034154Y003667D02*
X034154Y003852D01*
X034093Y003914D01*
X034031Y003852D01*
X025085Y010829D02*
X025036Y010780D01*
X024940Y010780D01*
X024891Y010829D01*
X024790Y010829D02*
X024742Y010780D01*
X024645Y010780D01*
X024597Y010829D01*
X024597Y011022D01*
X024645Y011071D01*
X024742Y011071D01*
X024790Y011022D01*
X024891Y011022D02*
X024940Y011071D01*
X025036Y011071D01*
X025085Y011022D01*
X025085Y010974D01*
X025036Y010925D01*
X025085Y010877D01*
X025085Y010829D01*
X025036Y010925D02*
X024988Y010925D01*
X024049Y011695D02*
X023856Y011695D01*
X023952Y011695D02*
X023952Y011986D01*
X023856Y011889D01*
X023754Y011647D02*
X023561Y011647D01*
X023460Y011695D02*
X023266Y011695D01*
X023460Y011889D01*
X023460Y011937D01*
X023411Y011986D01*
X023315Y011986D01*
X023266Y011937D01*
X023165Y011937D02*
X023117Y011986D01*
X022972Y011986D01*
X022972Y011695D01*
X023117Y011695D01*
X023165Y011744D01*
X023165Y011937D01*
X024118Y013585D02*
X024263Y013585D01*
X024312Y013634D01*
X024312Y013827D01*
X024263Y013876D01*
X024118Y013876D01*
X024118Y013585D01*
X024413Y013585D02*
X024606Y013585D01*
X024509Y013585D02*
X024509Y013876D01*
X024413Y013779D01*
X024707Y013537D02*
X024901Y013537D01*
X025002Y013585D02*
X025196Y013585D01*
X025099Y013585D02*
X025099Y013876D01*
X025002Y013779D01*
X025036Y014905D02*
X024940Y014905D01*
X024891Y014954D01*
X024891Y015050D02*
X024988Y015099D01*
X025036Y015099D01*
X025085Y015050D01*
X025085Y014954D01*
X025036Y014905D01*
X024891Y015050D02*
X024891Y015196D01*
X025085Y015196D01*
X024790Y015147D02*
X024742Y015196D01*
X024645Y015196D01*
X024597Y015147D01*
X024597Y014954D01*
X024645Y014905D01*
X024742Y014905D01*
X024790Y014954D01*
X023754Y015772D02*
X023561Y015772D01*
X023460Y015820D02*
X023266Y015820D01*
X023460Y016014D01*
X023460Y016062D01*
X023411Y016111D01*
X023315Y016111D01*
X023266Y016062D01*
X023165Y016062D02*
X023117Y016111D01*
X022972Y016111D01*
X022972Y015820D01*
X023117Y015820D01*
X023165Y015869D01*
X023165Y016062D01*
X023856Y016062D02*
X023904Y016111D01*
X024001Y016111D01*
X024049Y016062D01*
X024049Y016014D01*
X023856Y015820D01*
X024049Y015820D01*
X023666Y013996D02*
X023715Y013947D01*
X023715Y013899D01*
X023666Y013850D01*
X023715Y013802D01*
X023715Y013754D01*
X023666Y013705D01*
X023570Y013705D01*
X023521Y013754D01*
X023420Y013705D02*
X023323Y013802D01*
X023372Y013802D02*
X023227Y013802D01*
X023227Y013705D02*
X023227Y013996D01*
X023372Y013996D01*
X023420Y013947D01*
X023420Y013850D01*
X023372Y013802D01*
X023521Y013947D02*
X023570Y013996D01*
X023666Y013996D01*
X023666Y013850D02*
X023618Y013850D01*
X024118Y017710D02*
X024263Y017710D01*
X024312Y017759D01*
X024312Y017952D01*
X024263Y018001D01*
X024118Y018001D01*
X024118Y017710D01*
X024413Y017710D02*
X024606Y017710D01*
X024509Y017710D02*
X024509Y018001D01*
X024413Y017904D01*
X024707Y017662D02*
X024901Y017662D01*
X025002Y017710D02*
X025196Y017904D01*
X025196Y017952D01*
X025147Y018001D01*
X025050Y018001D01*
X025002Y017952D01*
X025002Y017710D02*
X025196Y017710D01*
X023715Y017879D02*
X023666Y017830D01*
X023570Y017830D01*
X023521Y017879D01*
X023521Y017975D02*
X023618Y018024D01*
X023666Y018024D01*
X023715Y017975D01*
X023715Y017879D01*
X023521Y017975D02*
X023521Y018121D01*
X023715Y018121D01*
X023420Y018072D02*
X023420Y017975D01*
X023372Y017927D01*
X023227Y017927D01*
X023323Y017927D02*
X023420Y017830D01*
X023227Y017830D02*
X023227Y018121D01*
X023372Y018121D01*
X023420Y018072D01*
X024597Y019079D02*
X024645Y019030D01*
X024742Y019030D01*
X024790Y019079D01*
X024891Y019079D02*
X024891Y019030D01*
X024891Y019079D02*
X025085Y019272D01*
X025085Y019321D01*
X024891Y019321D01*
X024790Y019272D02*
X024742Y019321D01*
X024645Y019321D01*
X024597Y019272D01*
X024597Y019079D01*
X024001Y019945D02*
X023904Y019945D01*
X023856Y019994D01*
X023952Y020090D02*
X024001Y020090D01*
X024049Y020042D01*
X024049Y019994D01*
X024001Y019945D01*
X024001Y020090D02*
X024049Y020139D01*
X024049Y020187D01*
X024001Y020236D01*
X023904Y020236D01*
X023856Y020187D01*
X023754Y019897D02*
X023561Y019897D01*
X023460Y019945D02*
X023266Y019945D01*
X023460Y020139D01*
X023460Y020187D01*
X023411Y020236D01*
X023315Y020236D01*
X023266Y020187D01*
X023165Y020187D02*
X023117Y020236D01*
X022972Y020236D01*
X022972Y019945D01*
X023117Y019945D01*
X023165Y019994D01*
X023165Y020187D01*
X024118Y021835D02*
X024263Y021835D01*
X024312Y021884D01*
X024312Y022077D01*
X024263Y022126D01*
X024118Y022126D01*
X024118Y021835D01*
X024413Y021835D02*
X024606Y021835D01*
X024509Y021835D02*
X024509Y022126D01*
X024413Y022029D01*
X024707Y021787D02*
X024901Y021787D01*
X025002Y021884D02*
X025050Y021835D01*
X025147Y021835D01*
X025196Y021884D01*
X025196Y021932D01*
X025147Y021980D01*
X025099Y021980D01*
X025147Y021980D02*
X025196Y022029D01*
X025196Y022077D01*
X025147Y022126D01*
X025050Y022126D01*
X025002Y022077D01*
X025036Y023155D02*
X025085Y023204D01*
X025085Y023397D01*
X025036Y023446D01*
X024940Y023446D01*
X024891Y023397D01*
X024891Y023349D01*
X024940Y023300D01*
X025085Y023300D01*
X025036Y023155D02*
X024940Y023155D01*
X024891Y023204D01*
X024790Y023204D02*
X024742Y023155D01*
X024645Y023155D01*
X024597Y023204D01*
X024597Y023397D01*
X024645Y023446D01*
X024742Y023446D01*
X024790Y023397D01*
X024001Y024070D02*
X024001Y024361D01*
X023856Y024215D01*
X024049Y024215D01*
X023754Y024022D02*
X023561Y024022D01*
X023460Y024070D02*
X023266Y024070D01*
X023460Y024264D01*
X023460Y024312D01*
X023411Y024361D01*
X023315Y024361D01*
X023266Y024312D01*
X023165Y024312D02*
X023117Y024361D01*
X022972Y024361D01*
X022972Y024070D01*
X023117Y024070D01*
X023165Y024119D01*
X023165Y024312D01*
X024707Y025912D02*
X024901Y025912D01*
X025002Y026105D02*
X025196Y026105D01*
X025147Y025960D02*
X025147Y026251D01*
X025002Y026105D01*
X024606Y025960D02*
X024413Y025960D01*
X024509Y025960D02*
X024509Y026251D01*
X024413Y026154D01*
X024312Y026202D02*
X024263Y026251D01*
X024118Y026251D01*
X024118Y025960D01*
X024263Y025960D01*
X024312Y026009D01*
X024312Y026202D01*
X023715Y026225D02*
X023570Y026225D01*
X023521Y026274D01*
X023521Y026322D01*
X023570Y026371D01*
X023666Y026371D01*
X023715Y026322D01*
X023715Y026129D01*
X023666Y026080D01*
X023570Y026080D01*
X023521Y026129D01*
X023420Y026080D02*
X023323Y026177D01*
X023372Y026177D02*
X023227Y026177D01*
X023227Y026080D02*
X023227Y026371D01*
X023372Y026371D01*
X023420Y026322D01*
X023420Y026225D01*
X023372Y026177D01*
X023372Y022246D02*
X023420Y022197D01*
X023420Y022100D01*
X023372Y022052D01*
X023227Y022052D01*
X023323Y022052D02*
X023420Y021955D01*
X023521Y021955D02*
X023521Y022004D01*
X023715Y022197D01*
X023715Y022246D01*
X023521Y022246D01*
X023372Y022246D02*
X023227Y022246D01*
X023227Y021955D01*
X028927Y021960D02*
X028927Y022251D01*
X029073Y022251D01*
X029121Y022202D01*
X029121Y022105D01*
X029073Y022057D01*
X028927Y022057D01*
X029024Y022057D02*
X029121Y021960D01*
X029222Y022009D02*
X029270Y021960D01*
X029367Y021960D01*
X029416Y022009D01*
X029416Y022057D01*
X029367Y022105D01*
X029222Y022105D01*
X029222Y022009D01*
X029222Y022105D02*
X029319Y022202D01*
X029416Y022251D01*
X029367Y026085D02*
X029270Y026085D01*
X029222Y026134D01*
X029222Y026182D01*
X029270Y026230D01*
X029367Y026230D01*
X029416Y026182D01*
X029416Y026134D01*
X029367Y026085D01*
X029367Y026230D02*
X029416Y026279D01*
X029416Y026327D01*
X029367Y026376D01*
X029270Y026376D01*
X029222Y026327D01*
X029222Y026279D01*
X029270Y026230D01*
X029121Y026230D02*
X029073Y026182D01*
X028927Y026182D01*
X028927Y026085D02*
X028927Y026376D01*
X029073Y026376D01*
X029121Y026327D01*
X029121Y026230D01*
X029024Y026182D02*
X029121Y026085D01*
X029073Y018126D02*
X029121Y018077D01*
X029121Y017980D01*
X029073Y017932D01*
X028927Y017932D01*
X028927Y017835D02*
X028927Y018126D01*
X029073Y018126D01*
X029024Y017932D02*
X029121Y017835D01*
X029222Y017980D02*
X029416Y017980D01*
X029367Y017835D02*
X029367Y018126D01*
X029222Y017980D01*
X029270Y014001D02*
X029222Y013952D01*
X029270Y014001D02*
X029367Y014001D01*
X029416Y013952D01*
X029416Y013904D01*
X029222Y013710D01*
X029416Y013710D01*
X029121Y013710D02*
X029024Y013807D01*
X029073Y013807D02*
X028927Y013807D01*
X028927Y013710D02*
X028927Y014001D01*
X029073Y014001D01*
X029121Y013952D01*
X029121Y013855D01*
X029073Y013807D01*
X012546Y016275D02*
X012352Y016081D01*
X012352Y016033D01*
X012251Y015984D02*
X012057Y015984D01*
X011956Y016033D02*
X011763Y016033D01*
X011956Y016226D01*
X011956Y016275D01*
X011908Y016323D01*
X011811Y016323D01*
X011763Y016275D01*
X011662Y016275D02*
X011613Y016323D01*
X011468Y016323D01*
X011468Y016033D01*
X011613Y016033D01*
X011662Y016081D01*
X011662Y016275D01*
X012352Y016323D02*
X012546Y016323D01*
X012546Y016275D01*
X010921Y016996D02*
X010872Y016948D01*
X010775Y016948D01*
X010727Y016996D01*
X010727Y017093D02*
X010824Y017141D01*
X010872Y017141D01*
X010921Y017093D01*
X010921Y016996D01*
X010727Y017093D02*
X010727Y017238D01*
X010921Y017238D01*
X010529Y017238D02*
X010529Y016948D01*
X010432Y016948D02*
X010626Y016948D01*
X010432Y017141D02*
X010529Y017238D01*
X010331Y017190D02*
X010283Y017238D01*
X010186Y017238D01*
X010138Y017190D01*
X010138Y016996D01*
X010186Y016948D01*
X010283Y016948D01*
X010331Y016996D01*
X011508Y018148D02*
X011508Y018438D01*
X011653Y018438D01*
X011701Y018390D01*
X011701Y018293D01*
X011653Y018244D01*
X011508Y018244D01*
X011604Y018244D02*
X011701Y018148D01*
X011802Y018148D02*
X011996Y018148D01*
X011899Y018148D02*
X011899Y018438D01*
X011802Y018341D01*
X012097Y018390D02*
X012145Y018438D01*
X012242Y018438D01*
X012291Y018390D01*
X012291Y018341D01*
X012242Y018293D01*
X012291Y018244D01*
X012291Y018196D01*
X012242Y018148D01*
X012145Y018148D01*
X012097Y018196D01*
X012194Y018293D02*
X012242Y018293D01*
X011399Y018316D02*
X011399Y018364D01*
X011351Y018413D01*
X011206Y018413D01*
X011206Y018316D01*
X011254Y018268D01*
X011351Y018268D01*
X011399Y018316D01*
X011302Y018510D02*
X011206Y018413D01*
X011302Y018510D02*
X011399Y018558D01*
X011104Y018219D02*
X010911Y018219D01*
X010810Y018268D02*
X010616Y018268D01*
X010713Y018268D02*
X010713Y018558D01*
X010616Y018461D01*
X010515Y018510D02*
X010515Y018316D01*
X010467Y018268D01*
X010322Y018268D01*
X010322Y018558D01*
X010467Y018558D01*
X010515Y018510D01*
X011468Y020158D02*
X011613Y020158D01*
X011662Y020206D01*
X011662Y020400D01*
X011613Y020448D01*
X011468Y020448D01*
X011468Y020158D01*
X011763Y020158D02*
X011956Y020351D01*
X011956Y020400D01*
X011908Y020448D01*
X011811Y020448D01*
X011763Y020400D01*
X011763Y020158D02*
X011956Y020158D01*
X012057Y020109D02*
X012251Y020109D01*
X012352Y020206D02*
X012400Y020158D01*
X012497Y020158D01*
X012546Y020206D01*
X012546Y020254D01*
X012497Y020303D01*
X012352Y020303D01*
X012352Y020206D01*
X012352Y020303D02*
X012449Y020400D01*
X012546Y020448D01*
X010921Y021121D02*
X010872Y021073D01*
X010775Y021073D01*
X010727Y021121D01*
X010626Y021073D02*
X010432Y021073D01*
X010529Y021073D02*
X010529Y021363D01*
X010432Y021266D01*
X010331Y021315D02*
X010283Y021363D01*
X010186Y021363D01*
X010138Y021315D01*
X010138Y021121D01*
X010186Y021073D01*
X010283Y021073D01*
X010331Y021121D01*
X010727Y021315D02*
X010775Y021363D01*
X010872Y021363D01*
X010921Y021315D01*
X010921Y021266D01*
X010872Y021218D01*
X010921Y021169D01*
X010921Y021121D01*
X010872Y021218D02*
X010824Y021218D01*
X010911Y022344D02*
X011104Y022344D01*
X011206Y022441D02*
X011254Y022393D01*
X011351Y022393D01*
X011399Y022441D01*
X011399Y022538D01*
X011351Y022586D01*
X011302Y022586D01*
X011206Y022538D01*
X011206Y022683D01*
X011399Y022683D01*
X011508Y022563D02*
X011653Y022563D01*
X011701Y022515D01*
X011701Y022418D01*
X011653Y022369D01*
X011508Y022369D01*
X011508Y022273D02*
X011508Y022563D01*
X011604Y022369D02*
X011701Y022273D01*
X011802Y022273D02*
X011996Y022273D01*
X011899Y022273D02*
X011899Y022563D01*
X011802Y022466D01*
X012097Y022466D02*
X012194Y022563D01*
X012194Y022273D01*
X012097Y022273D02*
X012291Y022273D01*
X010810Y022393D02*
X010616Y022393D01*
X010713Y022393D02*
X010713Y022683D01*
X010616Y022586D01*
X010515Y022635D02*
X010467Y022683D01*
X010322Y022683D01*
X010322Y022393D01*
X010467Y022393D01*
X010515Y022441D01*
X010515Y022635D01*
X011468Y024283D02*
X011613Y024283D01*
X011662Y024331D01*
X011662Y024525D01*
X011613Y024573D01*
X011468Y024573D01*
X011468Y024283D01*
X011763Y024283D02*
X011956Y024476D01*
X011956Y024525D01*
X011908Y024573D01*
X011811Y024573D01*
X011763Y024525D01*
X011763Y024283D02*
X011956Y024283D01*
X012057Y024234D02*
X012251Y024234D01*
X012352Y024331D02*
X012400Y024283D01*
X012497Y024283D01*
X012546Y024331D01*
X012546Y024428D01*
X012497Y024476D01*
X012449Y024476D01*
X012352Y024428D01*
X012352Y024573D01*
X012546Y024573D01*
X010921Y025198D02*
X010727Y025198D01*
X010824Y025198D02*
X010824Y025488D01*
X010727Y025391D01*
X010626Y025198D02*
X010432Y025198D01*
X010529Y025198D02*
X010529Y025488D01*
X010432Y025391D01*
X010331Y025440D02*
X010283Y025488D01*
X010186Y025488D01*
X010138Y025440D01*
X010138Y025246D01*
X010186Y025198D01*
X010283Y025198D01*
X010331Y025246D01*
X006884Y022510D02*
X006691Y022316D01*
X006739Y022268D01*
X006836Y022268D01*
X006884Y022316D01*
X006884Y022510D01*
X006836Y022558D01*
X006739Y022558D01*
X006691Y022510D01*
X006691Y022316D01*
X006590Y022268D02*
X006396Y022268D01*
X006493Y022268D02*
X006493Y022558D01*
X006396Y022461D01*
X006295Y022413D02*
X006247Y022364D01*
X006102Y022364D01*
X006102Y022268D02*
X006102Y022558D01*
X006247Y022558D01*
X006295Y022510D01*
X006295Y022413D01*
X006198Y022364D02*
X006295Y022268D01*
X006247Y018433D02*
X006295Y018385D01*
X006295Y018288D01*
X006247Y018239D01*
X006102Y018239D01*
X006102Y018143D02*
X006102Y018433D01*
X006247Y018433D01*
X006396Y018336D02*
X006493Y018433D01*
X006493Y018143D01*
X006396Y018143D02*
X006590Y018143D01*
X006691Y018143D02*
X006884Y018336D01*
X006884Y018385D01*
X006836Y018433D01*
X006739Y018433D01*
X006691Y018385D01*
X006691Y018143D02*
X006884Y018143D01*
X006295Y018143D02*
X006198Y018239D01*
X006247Y014308D02*
X006295Y014260D01*
X006295Y014163D01*
X006247Y014114D01*
X006102Y014114D01*
X006102Y014018D02*
X006102Y014308D01*
X006247Y014308D01*
X006396Y014211D02*
X006493Y014308D01*
X006493Y014018D01*
X006396Y014018D02*
X006590Y014018D01*
X006691Y014163D02*
X006884Y014163D01*
X006836Y014018D02*
X006836Y014308D01*
X006691Y014163D01*
X006295Y014018D02*
X006198Y014114D01*
X010221Y011354D02*
X010221Y011161D01*
X010221Y011354D02*
X010270Y011354D01*
X010463Y011161D01*
X010512Y011161D01*
X010512Y011059D02*
X010512Y010866D01*
X010512Y010963D02*
X010221Y010963D01*
X010318Y010866D01*
X010270Y010765D02*
X010221Y010716D01*
X010221Y010620D01*
X010270Y010571D01*
X010463Y010571D01*
X010512Y010620D01*
X010512Y010716D01*
X010463Y010765D01*
X010351Y010246D02*
X010254Y010246D01*
X010206Y010197D01*
X010206Y010149D01*
X010254Y010100D01*
X010351Y010100D01*
X010399Y010052D01*
X010399Y010004D01*
X010351Y009955D01*
X010254Y009955D01*
X010206Y010004D01*
X010206Y010052D01*
X010254Y010100D01*
X010351Y010100D02*
X010399Y010149D01*
X010399Y010197D01*
X010351Y010246D01*
X010104Y009907D02*
X009911Y009907D01*
X009810Y009955D02*
X009616Y009955D01*
X009713Y009955D02*
X009713Y010246D01*
X009616Y010149D01*
X009515Y010197D02*
X009467Y010246D01*
X009322Y010246D01*
X009322Y009955D01*
X009467Y009955D01*
X009515Y010004D01*
X009515Y010197D01*
X010883Y010250D02*
X010883Y009960D01*
X010883Y010057D02*
X011028Y010057D01*
X011076Y010105D01*
X011076Y010202D01*
X011028Y010250D01*
X010883Y010250D01*
X010979Y010057D02*
X011076Y009960D01*
X011177Y009960D02*
X011371Y009960D01*
X011274Y009960D02*
X011274Y010250D01*
X011177Y010154D01*
X011472Y010250D02*
X011666Y010250D01*
X011666Y010202D01*
X011472Y010009D01*
X011472Y009960D01*
X007572Y009746D02*
X007475Y009697D01*
X007379Y009600D01*
X007524Y009600D01*
X007572Y009552D01*
X007572Y009504D01*
X007524Y009455D01*
X007427Y009455D01*
X007379Y009504D01*
X007379Y009600D01*
X007277Y009455D02*
X007084Y009455D01*
X007181Y009455D02*
X007181Y009746D01*
X007084Y009649D01*
X006983Y009697D02*
X006983Y009600D01*
X006934Y009552D01*
X006789Y009552D01*
X006789Y009455D02*
X006789Y009746D01*
X006934Y009746D01*
X006983Y009697D01*
X006886Y009552D02*
X006983Y009455D01*
X010406Y013533D02*
X010551Y013533D01*
X010599Y013581D01*
X010599Y013775D01*
X010551Y013823D01*
X010406Y013823D01*
X010406Y013533D01*
X010700Y013533D02*
X010894Y013726D01*
X010894Y013775D01*
X010845Y013823D01*
X010749Y013823D01*
X010700Y013775D01*
X010700Y013533D02*
X010894Y013533D01*
X010995Y013484D02*
X011188Y013484D01*
X011290Y013581D02*
X011290Y013629D01*
X011338Y013678D01*
X011435Y013678D01*
X011483Y013629D01*
X011483Y013581D01*
X011435Y013533D01*
X011338Y013533D01*
X011290Y013581D01*
X011338Y013678D02*
X011290Y013726D01*
X011290Y013775D01*
X011338Y013823D01*
X011435Y013823D01*
X011483Y013775D01*
X011483Y013726D01*
X011435Y013678D01*
X011508Y014023D02*
X011508Y014313D01*
X011653Y014313D01*
X011701Y014265D01*
X011701Y014168D01*
X011653Y014119D01*
X011508Y014119D01*
X011604Y014119D02*
X011701Y014023D01*
X011802Y014023D02*
X011996Y014023D01*
X011899Y014023D02*
X011899Y014313D01*
X011802Y014216D01*
X012097Y014168D02*
X012194Y014216D01*
X012242Y014216D01*
X012291Y014168D01*
X012291Y014071D01*
X012242Y014023D01*
X012145Y014023D01*
X012097Y014071D01*
X012097Y014168D02*
X012097Y014313D01*
X012291Y014313D01*
X011399Y014385D02*
X011206Y014191D01*
X011206Y014143D01*
X011104Y014094D02*
X010911Y014094D01*
X010810Y014143D02*
X010616Y014143D01*
X010713Y014143D02*
X010713Y014433D01*
X010616Y014336D01*
X010515Y014385D02*
X010467Y014433D01*
X010322Y014433D01*
X010322Y014143D01*
X010467Y014143D01*
X010515Y014191D01*
X010515Y014385D01*
X011206Y014433D02*
X011399Y014433D01*
X011399Y014385D01*
D13*
X011732Y014978D02*
X011770Y015169D01*
X011878Y015332D01*
X012041Y015440D01*
X012232Y015478D01*
X012423Y015440D01*
X012586Y015332D01*
X012694Y015169D01*
X012732Y014978D01*
X012694Y014787D01*
X012586Y014624D01*
X012423Y014516D01*
X012232Y014478D01*
X012041Y014516D01*
X011878Y014624D01*
X011770Y014787D01*
X011732Y014978D01*
X011707Y015628D02*
X011707Y015828D01*
X011707Y016078D02*
X011707Y016278D01*
X011607Y016178D02*
X011807Y016178D01*
X010257Y015978D02*
X010295Y016229D01*
X010405Y016457D01*
X010577Y016643D01*
X010796Y016769D01*
X011043Y016826D01*
X011296Y016807D01*
X011532Y016714D01*
X011730Y016556D01*
X011873Y016347D01*
X011948Y016105D01*
X011948Y015851D01*
X011873Y015609D01*
X011730Y015400D01*
X011532Y015242D01*
X011296Y015149D01*
X011043Y015130D01*
X010796Y015187D01*
X010577Y015313D01*
X010405Y015499D01*
X010295Y015727D01*
X010257Y015978D01*
X010157Y015878D02*
X010157Y018078D01*
X010144Y018128D01*
X010107Y018165D01*
X010057Y018178D01*
X006157Y018178D01*
X006107Y018165D01*
X006070Y018128D01*
X006057Y018078D01*
X006057Y015878D01*
X006070Y015828D01*
X006107Y015791D01*
X006157Y015778D01*
X010057Y015778D01*
X010107Y015791D01*
X010144Y015828D01*
X010157Y015878D01*
X009157Y016978D02*
X008957Y016978D01*
X008607Y016978D02*
X007057Y016978D01*
X004577Y018317D02*
X004497Y018317D01*
X004497Y014387D01*
X001897Y014387D01*
X000957Y014387D01*
X000957Y018317D01*
X001897Y018317D01*
X004497Y018317D01*
X004497Y018387D02*
X001897Y018387D01*
X000957Y018387D01*
X000957Y022317D01*
X001897Y022317D01*
X004497Y022317D01*
X004577Y022317D01*
X004577Y018387D01*
X004497Y018387D01*
X004497Y022317D01*
X004497Y022387D02*
X001897Y022387D01*
X000957Y022387D01*
X000957Y026317D01*
X001897Y026317D01*
X004497Y026317D01*
X004577Y026317D01*
X004577Y022387D01*
X004497Y022387D01*
X004497Y026317D01*
X003777Y025337D02*
X003809Y025445D01*
X003894Y025519D01*
X004005Y025535D01*
X004108Y025488D01*
X004169Y025393D01*
X004169Y025281D01*
X004108Y025186D01*
X004005Y025139D01*
X003894Y025155D01*
X003809Y025229D01*
X003777Y025337D01*
X001897Y024987D02*
X001897Y023717D01*
X001897Y023017D02*
X001897Y022387D01*
X001897Y022317D02*
X001897Y021687D01*
X001897Y020987D02*
X001897Y019717D01*
X001897Y019017D02*
X001897Y018387D01*
X001897Y018317D02*
X001897Y017687D01*
X001897Y016987D02*
X001897Y015717D01*
X001897Y015017D02*
X001897Y014387D01*
X001897Y014317D02*
X004497Y014317D01*
X004577Y014317D01*
X004577Y010387D01*
X004497Y010387D01*
X001897Y010387D01*
X000957Y010387D01*
X000957Y014317D01*
X001897Y014317D01*
X001897Y013687D01*
X001897Y012987D02*
X001897Y011717D01*
X001897Y011017D02*
X001897Y010387D01*
X003777Y011367D02*
X003809Y011475D01*
X003894Y011549D01*
X004005Y011565D01*
X004108Y011518D01*
X004169Y011423D01*
X004169Y011311D01*
X004108Y011216D01*
X004005Y011169D01*
X003894Y011185D01*
X003809Y011259D01*
X003777Y011367D01*
X004497Y010387D02*
X004497Y014317D01*
X004497Y014387D02*
X004577Y014387D01*
X004577Y018317D01*
X003777Y017337D02*
X003809Y017445D01*
X003894Y017519D01*
X004005Y017535D01*
X004108Y017488D01*
X004169Y017393D01*
X004169Y017281D01*
X004108Y017186D01*
X004005Y017139D01*
X003894Y017155D01*
X003809Y017229D01*
X003777Y017337D01*
X003777Y015367D02*
X003809Y015475D01*
X003894Y015549D01*
X004005Y015565D01*
X004108Y015518D01*
X004169Y015423D01*
X004169Y015311D01*
X004108Y015216D01*
X004005Y015169D01*
X003894Y015185D01*
X003809Y015259D01*
X003777Y015367D01*
X006057Y013953D02*
X006057Y011753D01*
X006070Y011703D01*
X006107Y011666D01*
X006157Y011653D01*
X010057Y011653D01*
X010107Y011666D01*
X010144Y011703D01*
X010157Y011753D01*
X010157Y013953D01*
X010144Y014003D01*
X010107Y014040D01*
X010057Y014053D01*
X006157Y014053D01*
X006107Y014040D01*
X006070Y014003D01*
X006057Y013953D01*
X005982Y014978D02*
X006020Y015169D01*
X006128Y015332D01*
X006291Y015440D01*
X006482Y015478D01*
X006673Y015440D01*
X006836Y015332D01*
X006944Y015169D01*
X006982Y014978D01*
X006944Y014787D01*
X006836Y014624D01*
X006673Y014516D01*
X006482Y014478D01*
X006291Y014516D01*
X006128Y014624D01*
X006020Y014787D01*
X005982Y014978D01*
X003777Y013337D02*
X003809Y013445D01*
X003894Y013519D01*
X004005Y013535D01*
X004108Y013488D01*
X004169Y013393D01*
X004169Y013281D01*
X004108Y013186D01*
X004005Y013139D01*
X003894Y013155D01*
X003809Y013229D01*
X003777Y013337D01*
X007057Y012853D02*
X008607Y012853D01*
X008957Y012853D02*
X009157Y012853D01*
X010257Y011853D02*
X010295Y012104D01*
X010405Y012332D01*
X010577Y012518D01*
X010796Y012644D01*
X011043Y012701D01*
X011296Y012682D01*
X011532Y012589D01*
X011730Y012431D01*
X011873Y012222D01*
X011948Y011980D01*
X011948Y011726D01*
X011873Y011484D01*
X011730Y011275D01*
X011532Y011117D01*
X011296Y011024D01*
X011043Y011005D01*
X010796Y011062D01*
X010577Y011188D01*
X010405Y011374D01*
X010295Y011602D01*
X010257Y011853D01*
X011607Y012053D02*
X011807Y012053D01*
X011707Y012153D02*
X011707Y011953D01*
X011707Y011703D02*
X011707Y011503D01*
X011732Y010853D02*
X011770Y011044D01*
X011878Y011207D01*
X012041Y011315D01*
X012232Y011353D01*
X012423Y011315D01*
X012586Y011207D01*
X012694Y011044D01*
X012732Y010853D01*
X012694Y010662D01*
X012586Y010499D01*
X012423Y010391D01*
X012232Y010353D01*
X012041Y010391D01*
X011878Y010499D01*
X011770Y010662D01*
X011732Y010853D01*
X013582Y010353D02*
X015882Y010353D01*
X015882Y013353D01*
X015132Y013353D01*
X015102Y013200D01*
X015015Y013070D01*
X014885Y012983D01*
X014732Y012953D01*
X014579Y012983D01*
X014449Y013070D01*
X014362Y013200D01*
X014332Y013353D01*
X013582Y013353D01*
X013582Y010353D01*
X014919Y009665D02*
X014919Y005665D01*
X014919Y004665D01*
X015169Y004915D01*
X014919Y004665D02*
X015919Y004665D01*
X015919Y005665D01*
X015919Y009665D01*
X014919Y009665D01*
X013057Y007065D02*
X013057Y005765D01*
X013030Y005665D01*
X012957Y005592D01*
X012857Y005565D01*
X012607Y005915D02*
X012607Y006295D01*
X012607Y006545D02*
X012607Y006915D01*
X012857Y007265D02*
X012957Y007238D01*
X013030Y007165D01*
X013057Y007065D01*
X012357Y007265D02*
X012257Y007238D01*
X012184Y007165D01*
X012157Y007065D01*
X012157Y005765D01*
X012184Y005665D01*
X012257Y005592D01*
X012357Y005565D01*
X013107Y004353D02*
X013607Y004353D01*
X013857Y004103D01*
X013857Y002603D01*
X013607Y002353D01*
X013107Y002353D01*
X012857Y002603D01*
X012857Y004103D01*
X013107Y004353D01*
X013857Y004103D02*
X014107Y004353D01*
X014607Y004353D01*
X014857Y004103D01*
X014857Y002603D01*
X014607Y002353D01*
X014107Y002353D01*
X013857Y002603D01*
X014857Y002603D02*
X015107Y002353D01*
X015607Y002353D01*
X015857Y002603D01*
X015857Y004103D01*
X016107Y004353D01*
X016607Y004353D01*
X016857Y004103D01*
X016857Y002603D01*
X016607Y002353D01*
X016107Y002353D01*
X015857Y002603D01*
X016857Y002603D02*
X017107Y002353D01*
X017607Y002353D01*
X017857Y002603D01*
X017857Y004103D01*
X017607Y004353D01*
X017107Y004353D01*
X016857Y004103D01*
X017857Y004103D02*
X018107Y004353D01*
X018607Y004353D01*
X018857Y004103D01*
X018857Y002603D01*
X018607Y002353D01*
X018107Y002353D01*
X017857Y002603D01*
X018857Y002603D02*
X019107Y002353D01*
X019607Y002353D01*
X019857Y002603D01*
X019857Y004103D01*
X019607Y004353D01*
X019107Y004353D01*
X018857Y004103D01*
X019294Y004665D02*
X019294Y005665D01*
X020294Y005665D01*
X020294Y009665D01*
X019294Y009665D01*
X019294Y005665D01*
X019544Y005415D01*
X019544Y004915D02*
X019294Y004665D01*
X020294Y004665D01*
X020294Y005665D01*
X020044Y005415D01*
X020044Y004915D02*
X020294Y004665D01*
X020107Y004353D02*
X020607Y004353D01*
X020857Y004103D01*
X020857Y002603D01*
X020607Y002353D01*
X020107Y002353D01*
X019857Y002603D01*
X020857Y002603D02*
X021107Y002353D01*
X021607Y002353D01*
X021857Y002603D01*
X021857Y004103D01*
X021607Y004353D01*
X021107Y004353D01*
X020857Y004103D01*
X020107Y004353D02*
X019857Y004103D01*
X021507Y005565D02*
X021707Y005565D01*
X021957Y005565D02*
X022157Y005565D01*
X022057Y005665D02*
X022057Y005465D01*
X021007Y006165D02*
X021045Y006416D01*
X021155Y006644D01*
X021327Y006830D01*
X021546Y006956D01*
X021793Y007013D01*
X022046Y006994D01*
X022282Y006901D01*
X022480Y006743D01*
X022623Y006534D01*
X022698Y006292D01*
X022698Y006038D01*
X022623Y005796D01*
X022480Y005587D01*
X022282Y005429D01*
X022046Y005336D01*
X021793Y005317D01*
X021546Y005374D01*
X021327Y005500D01*
X021155Y005686D01*
X021045Y005914D01*
X021007Y006165D01*
X022107Y004353D02*
X022607Y004353D01*
X022857Y004103D01*
X022857Y002603D01*
X022607Y002353D01*
X022107Y002353D01*
X021857Y002603D01*
X021857Y004103D02*
X022107Y004353D01*
X024957Y007290D02*
X025707Y007290D01*
X025737Y007137D01*
X025824Y007007D01*
X025954Y006920D01*
X026107Y006890D01*
X026260Y006920D01*
X026390Y007007D01*
X026477Y007137D01*
X026507Y007290D01*
X027257Y007290D01*
X027257Y000290D01*
X024957Y000290D01*
X024957Y007290D01*
X025532Y009840D02*
X029432Y009840D01*
X029482Y009853D01*
X029519Y009890D01*
X029532Y009940D01*
X029532Y012140D01*
X029519Y012190D01*
X029482Y012227D01*
X029432Y012240D01*
X025532Y012240D01*
X025482Y012227D01*
X025445Y012190D01*
X025432Y012140D01*
X025432Y009940D01*
X025445Y009890D01*
X025482Y009853D01*
X025532Y009840D01*
X026432Y011040D02*
X026632Y011040D01*
X026982Y011040D02*
X028532Y011040D01*
X028607Y013040D02*
X028645Y013231D01*
X028753Y013394D01*
X028916Y013502D01*
X029107Y013540D01*
X029298Y013502D01*
X029461Y013394D01*
X029569Y013231D01*
X029607Y013040D01*
X029569Y012849D01*
X029461Y012686D01*
X029298Y012578D01*
X029107Y012540D01*
X028916Y012578D01*
X028753Y012686D01*
X028645Y012849D01*
X028607Y013040D01*
X029432Y013965D02*
X025532Y013965D01*
X025482Y013978D01*
X025445Y014015D01*
X025432Y014065D01*
X025432Y016265D01*
X025445Y016315D01*
X025482Y016352D01*
X025532Y016365D01*
X029432Y016365D01*
X029482Y016352D01*
X029519Y016315D01*
X029532Y016265D01*
X029532Y014065D01*
X029519Y014015D01*
X029482Y013978D01*
X029432Y013965D01*
X028532Y015165D02*
X026982Y015165D01*
X026632Y015165D02*
X026432Y015165D01*
X023632Y016165D02*
X023670Y016416D01*
X023780Y016644D01*
X023952Y016830D01*
X024171Y016956D01*
X024418Y017013D01*
X024671Y016994D01*
X024907Y016901D01*
X025105Y016743D01*
X025248Y016534D01*
X025323Y016292D01*
X025323Y016038D01*
X025248Y015796D01*
X025105Y015587D01*
X024907Y015429D01*
X024671Y015336D01*
X024418Y015317D01*
X024171Y015374D01*
X023952Y015500D01*
X023780Y015686D01*
X023670Y015914D01*
X023632Y016165D01*
X023782Y015965D02*
X023982Y015965D01*
X023882Y015865D02*
X023882Y016065D01*
X023882Y016315D02*
X023882Y016515D01*
X022857Y017165D02*
X022895Y017356D01*
X023003Y017519D01*
X023166Y017627D01*
X023357Y017665D01*
X023548Y017627D01*
X023711Y017519D01*
X023819Y017356D01*
X023857Y017165D01*
X023819Y016974D01*
X023711Y016811D01*
X023548Y016703D01*
X023357Y016665D01*
X023166Y016703D01*
X023003Y016811D01*
X022895Y016974D01*
X022857Y017165D01*
X022007Y017665D02*
X019707Y017665D01*
X019707Y014665D01*
X020457Y014665D01*
X020487Y014818D01*
X020574Y014948D01*
X020704Y015035D01*
X020857Y015065D01*
X021010Y015035D01*
X021140Y014948D01*
X021227Y014818D01*
X021257Y014665D01*
X022007Y014665D01*
X022007Y017665D01*
X022007Y018790D02*
X021257Y018790D01*
X021227Y018943D01*
X021140Y019073D01*
X021010Y019160D01*
X020857Y019190D01*
X020704Y019160D01*
X020574Y019073D01*
X020487Y018943D01*
X020457Y018790D01*
X019707Y018790D01*
X019707Y021790D01*
X022007Y021790D01*
X022007Y018790D01*
X022607Y019040D02*
X022644Y019272D01*
X022750Y019481D01*
X022916Y019647D01*
X023125Y019753D01*
X023357Y019790D01*
X023589Y019753D01*
X023798Y019647D01*
X023964Y019481D01*
X024070Y019272D01*
X024107Y019040D01*
X024070Y018808D01*
X023964Y018599D01*
X023798Y018433D01*
X023589Y018327D01*
X023357Y018290D01*
X023125Y018327D01*
X022916Y018433D01*
X022750Y018599D01*
X022644Y018808D01*
X022607Y019040D01*
X023782Y020090D02*
X023982Y020090D01*
X023882Y019990D02*
X023882Y020190D01*
X023882Y020440D02*
X023882Y020640D01*
X023632Y020290D02*
X023670Y020541D01*
X023780Y020769D01*
X023952Y020955D01*
X024171Y021081D01*
X024418Y021138D01*
X024671Y021119D01*
X024907Y021026D01*
X025105Y020868D01*
X025248Y020659D01*
X025323Y020417D01*
X025323Y020163D01*
X025248Y019921D01*
X025105Y019712D01*
X024907Y019554D01*
X024671Y019461D01*
X024418Y019442D01*
X024171Y019499D01*
X023952Y019625D01*
X023780Y019811D01*
X023670Y020039D01*
X023632Y020290D01*
X022857Y021290D02*
X022895Y021481D01*
X023003Y021644D01*
X023166Y021752D01*
X023357Y021790D01*
X023548Y021752D01*
X023711Y021644D01*
X023819Y021481D01*
X023857Y021290D01*
X023819Y021099D01*
X023711Y020936D01*
X023548Y020828D01*
X023357Y020790D01*
X023166Y020828D01*
X023003Y020936D01*
X022895Y021099D01*
X022857Y021290D01*
X022007Y022915D02*
X021257Y022915D01*
X021227Y023068D01*
X021140Y023198D01*
X021010Y023285D01*
X020857Y023315D01*
X020704Y023285D01*
X020574Y023198D01*
X020487Y023068D01*
X020457Y022915D01*
X019707Y022915D01*
X019707Y025915D01*
X022007Y025915D01*
X022007Y022915D01*
X022607Y023165D02*
X022644Y023397D01*
X022750Y023606D01*
X022916Y023772D01*
X023125Y023878D01*
X023357Y023915D01*
X023589Y023878D01*
X023798Y023772D01*
X023964Y023606D01*
X024070Y023397D01*
X024107Y023165D01*
X024070Y022933D01*
X023964Y022724D01*
X023798Y022558D01*
X023589Y022452D01*
X023357Y022415D01*
X023125Y022452D01*
X022916Y022558D01*
X022750Y022724D01*
X022644Y022933D01*
X022607Y023165D01*
X023782Y024215D02*
X023982Y024215D01*
X023882Y024115D02*
X023882Y024315D01*
X023882Y024565D02*
X023882Y024765D01*
X023632Y024415D02*
X023670Y024666D01*
X023780Y024894D01*
X023952Y025080D01*
X024171Y025206D01*
X024418Y025263D01*
X024671Y025244D01*
X024907Y025151D01*
X025105Y024993D01*
X025248Y024784D01*
X025323Y024542D01*
X025323Y024288D01*
X025248Y024046D01*
X025105Y023837D01*
X024907Y023679D01*
X024671Y023586D01*
X024418Y023567D01*
X024171Y023624D01*
X023952Y023750D01*
X023780Y023936D01*
X023670Y024164D01*
X023632Y024415D01*
X022857Y025415D02*
X022895Y025606D01*
X023003Y025769D01*
X023166Y025877D01*
X023357Y025915D01*
X023548Y025877D01*
X023711Y025769D01*
X023819Y025606D01*
X023857Y025415D01*
X023819Y025224D01*
X023711Y025061D01*
X023548Y024953D01*
X023357Y024915D01*
X023166Y024953D01*
X023003Y025061D01*
X022895Y025224D01*
X022857Y025415D01*
X025432Y024515D02*
X025432Y022315D01*
X025445Y022265D01*
X025482Y022228D01*
X025532Y022215D01*
X029432Y022215D01*
X029482Y022228D01*
X029519Y022265D01*
X029532Y022315D01*
X029532Y024515D01*
X029519Y024565D01*
X029482Y024602D01*
X029432Y024615D01*
X025532Y024615D01*
X025482Y024602D01*
X025445Y024565D01*
X025432Y024515D01*
X026432Y023415D02*
X026632Y023415D01*
X026982Y023415D02*
X028532Y023415D01*
X028607Y025415D02*
X028645Y025606D01*
X028753Y025769D01*
X028916Y025877D01*
X029107Y025915D01*
X029298Y025877D01*
X029461Y025769D01*
X029569Y025606D01*
X029607Y025415D01*
X029569Y025224D01*
X029461Y025061D01*
X029298Y024953D01*
X029107Y024915D01*
X028916Y024953D01*
X028753Y025061D01*
X028645Y025224D01*
X028607Y025415D01*
X026107Y025415D02*
X026144Y025647D01*
X026250Y025856D01*
X026416Y026022D01*
X026625Y026128D01*
X026857Y026165D01*
X027089Y026128D01*
X027298Y026022D01*
X027464Y025856D01*
X027570Y025647D01*
X027607Y025415D01*
X027570Y025183D01*
X027464Y024974D01*
X027298Y024808D01*
X027089Y024702D01*
X026857Y024665D01*
X026625Y024702D01*
X026416Y024808D01*
X026250Y024974D01*
X026144Y025183D01*
X026107Y025415D01*
X031137Y025319D02*
X031137Y021389D01*
X031217Y021389D01*
X031217Y025319D01*
X033817Y025319D01*
X034757Y025319D01*
X034757Y021389D01*
X033817Y021389D01*
X031217Y021389D01*
X031217Y021319D02*
X033817Y021319D01*
X034757Y021319D01*
X034757Y017389D01*
X033817Y017389D01*
X031217Y017389D01*
X031137Y017389D01*
X031137Y021319D01*
X031217Y021319D01*
X031217Y017389D01*
X031217Y017319D02*
X033817Y017319D01*
X034757Y017319D01*
X034757Y013389D01*
X033817Y013389D01*
X031217Y013389D01*
X031137Y013389D01*
X031137Y017319D01*
X031217Y017319D01*
X031217Y013389D01*
X031217Y013319D02*
X033817Y013319D01*
X034757Y013319D01*
X034757Y009389D01*
X033817Y009389D01*
X031217Y009389D01*
X031137Y009389D01*
X031137Y013319D01*
X031217Y013319D01*
X031217Y009389D01*
X031537Y010369D02*
X031569Y010477D01*
X031654Y010551D01*
X031765Y010567D01*
X031868Y010520D01*
X031929Y010425D01*
X031929Y010313D01*
X031868Y010218D01*
X031765Y010171D01*
X031654Y010187D01*
X031569Y010261D01*
X031537Y010369D01*
X033817Y010719D02*
X033817Y011989D01*
X033817Y012689D02*
X033817Y013319D01*
X033817Y013389D02*
X033817Y014019D01*
X033817Y014719D02*
X033817Y015989D01*
X033817Y016689D02*
X033817Y017319D01*
X033817Y017389D02*
X033817Y018019D01*
X033817Y018719D02*
X033817Y019989D01*
X033817Y020689D02*
X033817Y021319D01*
X033817Y021389D02*
X033817Y022019D01*
X033817Y022719D02*
X033817Y023989D01*
X033817Y024689D02*
X033817Y025319D01*
X031537Y024339D02*
X031569Y024447D01*
X031654Y024521D01*
X031765Y024537D01*
X031868Y024490D01*
X031929Y024395D01*
X031929Y024283D01*
X031868Y024188D01*
X031765Y024141D01*
X031654Y024157D01*
X031569Y024231D01*
X031537Y024339D01*
X031217Y025319D02*
X031137Y025319D01*
X031537Y022369D02*
X031569Y022477D01*
X031654Y022551D01*
X031765Y022567D01*
X031868Y022520D01*
X031929Y022425D01*
X031929Y022313D01*
X031868Y022218D01*
X031765Y022171D01*
X031654Y022187D01*
X031569Y022261D01*
X031537Y022369D01*
X031537Y020339D02*
X031569Y020447D01*
X031654Y020521D01*
X031765Y020537D01*
X031868Y020490D01*
X031929Y020395D01*
X031929Y020283D01*
X031868Y020188D01*
X031765Y020141D01*
X031654Y020157D01*
X031569Y020231D01*
X031537Y020339D01*
X029532Y020390D02*
X029532Y018190D01*
X029519Y018140D01*
X029482Y018103D01*
X029432Y018090D01*
X025532Y018090D01*
X025482Y018103D01*
X025445Y018140D01*
X025432Y018190D01*
X025432Y020390D01*
X025445Y020440D01*
X025482Y020477D01*
X025532Y020490D01*
X029432Y020490D01*
X029482Y020477D01*
X029519Y020440D01*
X029532Y020390D01*
X028607Y021290D02*
X028645Y021481D01*
X028753Y021644D01*
X028916Y021752D01*
X029107Y021790D01*
X029298Y021752D01*
X029461Y021644D01*
X029569Y021481D01*
X029607Y021290D01*
X029569Y021099D01*
X029461Y020936D01*
X029298Y020828D01*
X029107Y020790D01*
X028916Y020828D01*
X028753Y020936D01*
X028645Y021099D01*
X028607Y021290D01*
X026107Y021290D02*
X026144Y021522D01*
X026250Y021731D01*
X026416Y021897D01*
X026625Y022003D01*
X026857Y022040D01*
X027089Y022003D01*
X027298Y021897D01*
X027464Y021731D01*
X027570Y021522D01*
X027607Y021290D01*
X027570Y021058D01*
X027464Y020849D01*
X027298Y020683D01*
X027089Y020577D01*
X026857Y020540D01*
X026625Y020577D01*
X026416Y020683D01*
X026250Y020849D01*
X026144Y021058D01*
X026107Y021290D01*
X026432Y019290D02*
X026632Y019290D01*
X026982Y019290D02*
X028532Y019290D01*
X028607Y017165D02*
X028645Y017356D01*
X028753Y017519D01*
X028916Y017627D01*
X029107Y017665D01*
X029298Y017627D01*
X029461Y017519D01*
X029569Y017356D01*
X029607Y017165D01*
X029569Y016974D01*
X029461Y016811D01*
X029298Y016703D01*
X029107Y016665D01*
X028916Y016703D01*
X028753Y016811D01*
X028645Y016974D01*
X028607Y017165D01*
X026107Y017165D02*
X026144Y017397D01*
X026250Y017606D01*
X026416Y017772D01*
X026625Y017878D01*
X026857Y017915D01*
X027089Y017878D01*
X027298Y017772D01*
X027464Y017606D01*
X027570Y017397D01*
X027607Y017165D01*
X027570Y016933D01*
X027464Y016724D01*
X027298Y016558D01*
X027089Y016452D01*
X026857Y016415D01*
X026625Y016452D01*
X026416Y016558D01*
X026250Y016724D01*
X026144Y016933D01*
X026107Y017165D01*
X022607Y014915D02*
X022644Y015147D01*
X022750Y015356D01*
X022916Y015522D01*
X023125Y015628D01*
X023357Y015665D01*
X023589Y015628D01*
X023798Y015522D01*
X023964Y015356D01*
X024070Y015147D01*
X024107Y014915D01*
X024070Y014683D01*
X023964Y014474D01*
X023798Y014308D01*
X023589Y014202D01*
X023357Y014165D01*
X023125Y014202D01*
X022916Y014308D01*
X022750Y014474D01*
X022644Y014683D01*
X022607Y014915D01*
X022007Y013540D02*
X019707Y013540D01*
X019707Y010540D01*
X020457Y010540D01*
X020487Y010693D01*
X020574Y010823D01*
X020704Y010910D01*
X020857Y010940D01*
X021010Y010910D01*
X021140Y010823D01*
X021227Y010693D01*
X021257Y010540D01*
X022007Y010540D01*
X022007Y013540D01*
X022857Y013040D02*
X022895Y013231D01*
X023003Y013394D01*
X023166Y013502D01*
X023357Y013540D01*
X023548Y013502D01*
X023711Y013394D01*
X023819Y013231D01*
X023857Y013040D01*
X023819Y012849D01*
X023711Y012686D01*
X023548Y012578D01*
X023357Y012540D01*
X023166Y012578D01*
X023003Y012686D01*
X022895Y012849D01*
X022857Y013040D01*
X023882Y012390D02*
X023882Y012190D01*
X023882Y011940D02*
X023882Y011740D01*
X023982Y011840D02*
X023782Y011840D01*
X023632Y012040D02*
X023670Y012291D01*
X023780Y012519D01*
X023952Y012705D01*
X024171Y012831D01*
X024418Y012888D01*
X024671Y012869D01*
X024907Y012776D01*
X025105Y012618D01*
X025248Y012409D01*
X025323Y012167D01*
X025323Y011913D01*
X025248Y011671D01*
X025105Y011462D01*
X024907Y011304D01*
X024671Y011211D01*
X024418Y011192D01*
X024171Y011249D01*
X023952Y011375D01*
X023780Y011561D01*
X023670Y011789D01*
X023632Y012040D01*
X022607Y010790D02*
X022644Y011022D01*
X022750Y011231D01*
X022916Y011397D01*
X023125Y011503D01*
X023357Y011540D01*
X023589Y011503D01*
X023798Y011397D01*
X023964Y011231D01*
X024070Y011022D01*
X024107Y010790D01*
X024070Y010558D01*
X023964Y010349D01*
X023798Y010183D01*
X023589Y010077D01*
X023357Y010040D01*
X023125Y010077D01*
X022916Y010183D01*
X022750Y010349D01*
X022644Y010558D01*
X022607Y010790D01*
X026107Y013040D02*
X026144Y013272D01*
X026250Y013481D01*
X026416Y013647D01*
X026625Y013753D01*
X026857Y013790D01*
X027089Y013753D01*
X027298Y013647D01*
X027464Y013481D01*
X027570Y013272D01*
X027607Y013040D01*
X027570Y012808D01*
X027464Y012599D01*
X027298Y012433D01*
X027089Y012327D01*
X026857Y012290D01*
X026625Y012327D01*
X026416Y012433D01*
X026250Y012599D01*
X026144Y012808D01*
X026107Y013040D01*
X031537Y012339D02*
X031569Y012447D01*
X031654Y012521D01*
X031765Y012537D01*
X031868Y012490D01*
X031929Y012395D01*
X031929Y012283D01*
X031868Y012188D01*
X031765Y012141D01*
X031654Y012157D01*
X031569Y012231D01*
X031537Y012339D01*
X031537Y014369D02*
X031569Y014477D01*
X031654Y014551D01*
X031765Y014567D01*
X031868Y014520D01*
X031929Y014425D01*
X031929Y014313D01*
X031868Y014218D01*
X031765Y014171D01*
X031654Y014187D01*
X031569Y014261D01*
X031537Y014369D01*
X031537Y016339D02*
X031569Y016447D01*
X031654Y016521D01*
X031765Y016537D01*
X031868Y016490D01*
X031929Y016395D01*
X031929Y016283D01*
X031868Y016188D01*
X031765Y016141D01*
X031654Y016157D01*
X031569Y016231D01*
X031537Y016339D01*
X031537Y018369D02*
X031569Y018477D01*
X031654Y018551D01*
X031765Y018567D01*
X031868Y018520D01*
X031929Y018425D01*
X031929Y018313D01*
X031868Y018218D01*
X031765Y018171D01*
X031654Y018187D01*
X031569Y018261D01*
X031537Y018369D01*
X033817Y010019D02*
X033817Y009389D01*
X030194Y007240D02*
X028894Y007240D01*
X028794Y007213D01*
X028721Y007140D01*
X028694Y007040D01*
X029044Y006790D02*
X029424Y006790D01*
X029674Y006790D02*
X030044Y006790D01*
X030394Y006540D02*
X030367Y006440D01*
X030294Y006367D01*
X030194Y006340D01*
X028894Y006340D01*
X028794Y006367D01*
X028721Y006440D01*
X028694Y006540D01*
X030194Y007240D02*
X030294Y007213D01*
X030367Y007140D01*
X030394Y007040D01*
X031137Y005319D02*
X031137Y001389D01*
X031217Y001389D01*
X031217Y005319D01*
X033817Y005319D01*
X034757Y005319D01*
X034757Y001389D01*
X033817Y001389D01*
X031217Y001389D01*
X031537Y002369D02*
X031569Y002477D01*
X031654Y002551D01*
X031765Y002567D01*
X031868Y002520D01*
X031929Y002425D01*
X031929Y002313D01*
X031868Y002218D01*
X031765Y002171D01*
X031654Y002187D01*
X031569Y002261D01*
X031537Y002369D01*
X033817Y002719D02*
X033817Y003989D01*
X033817Y004689D02*
X033817Y005319D01*
X031537Y004339D02*
X031569Y004447D01*
X031654Y004521D01*
X031765Y004537D01*
X031868Y004490D01*
X031929Y004395D01*
X031929Y004283D01*
X031868Y004188D01*
X031765Y004141D01*
X031654Y004157D01*
X031569Y004231D01*
X031537Y004339D01*
X031217Y005319D02*
X031137Y005319D01*
X033817Y002019D02*
X033817Y001389D01*
X015857Y004103D02*
X015607Y004353D01*
X015107Y004353D01*
X014857Y004103D01*
X015669Y004915D02*
X015919Y004665D01*
X015669Y005415D02*
X015919Y005665D01*
X014919Y005665D01*
X015169Y005415D01*
X010694Y007290D02*
X009944Y007290D01*
X009914Y007137D01*
X009827Y007007D01*
X009697Y006920D01*
X009544Y006890D01*
X009391Y006920D01*
X009261Y007007D01*
X009174Y007137D01*
X009144Y007290D01*
X008394Y007290D01*
X008394Y000290D01*
X010694Y000290D01*
X010694Y007290D01*
X007982Y010853D02*
X008019Y011085D01*
X008125Y011294D01*
X008291Y011460D01*
X008500Y011566D01*
X008732Y011603D01*
X008964Y011566D01*
X009173Y011460D01*
X009339Y011294D01*
X009445Y011085D01*
X009482Y010853D01*
X009445Y010621D01*
X009339Y010412D01*
X009173Y010246D01*
X008964Y010140D01*
X008732Y010103D01*
X008500Y010140D01*
X008291Y010246D01*
X008125Y010412D01*
X008019Y010621D01*
X007982Y010853D01*
X005982Y010853D02*
X006020Y011044D01*
X006128Y011207D01*
X006291Y011315D01*
X006482Y011353D01*
X006673Y011315D01*
X006836Y011207D01*
X006944Y011044D01*
X006982Y010853D01*
X006944Y010662D01*
X006836Y010499D01*
X006673Y010391D01*
X006482Y010353D01*
X006291Y010391D01*
X006128Y010499D01*
X006020Y010662D01*
X005982Y010853D01*
X003707Y008553D02*
X003357Y008553D01*
X002407Y008553D01*
X002007Y008553D01*
X001657Y007753D02*
X001657Y007653D01*
X001557Y007653D01*
X001557Y007053D01*
X001657Y007053D01*
X001657Y006953D01*
X002007Y006153D02*
X002357Y006153D01*
X003357Y006153D01*
X003707Y006153D01*
X003457Y005353D02*
X003430Y005174D01*
X003350Y005011D01*
X003225Y004879D01*
X003457Y005353D02*
X003430Y005532D01*
X003350Y005695D01*
X003225Y005827D01*
X002257Y005353D02*
X002285Y005170D01*
X002368Y005005D01*
X002497Y004873D01*
X002257Y005353D02*
X002287Y005540D01*
X002373Y005708D01*
X002508Y005841D01*
X004057Y006953D02*
X004057Y007053D01*
X004157Y007053D01*
X004157Y007653D01*
X004057Y007653D01*
X004057Y007753D01*
X002757Y007353D02*
X002786Y007424D01*
X002857Y007453D01*
X002928Y007424D01*
X002957Y007353D01*
X002928Y007282D01*
X002857Y007253D01*
X002786Y007282D01*
X002757Y007353D01*
X002157Y007353D02*
X002195Y007580D01*
X002305Y007783D01*
X002474Y007939D01*
X002685Y008032D01*
X002915Y008051D01*
X003138Y007994D01*
X003331Y007868D01*
X003473Y007686D01*
X003547Y007468D01*
X003547Y007238D01*
X003473Y007020D01*
X003331Y006838D01*
X003138Y006712D01*
X002915Y006655D01*
X002685Y006674D01*
X002474Y006767D01*
X002305Y006923D01*
X002195Y007126D01*
X002157Y007353D01*
X005269Y007253D02*
X005269Y007103D01*
X005319Y007053D01*
X005319Y005653D01*
X005269Y005603D01*
X005269Y005453D01*
X005282Y005403D01*
X005319Y005366D01*
X005369Y005353D01*
X005969Y005353D01*
X006019Y005366D01*
X006056Y005403D01*
X006069Y005453D01*
X006069Y005603D01*
X006019Y005653D01*
X006019Y007053D01*
X006069Y007103D01*
X006069Y007253D01*
X006056Y007303D01*
X006019Y007340D01*
X005969Y007353D01*
X005369Y007353D01*
X005319Y007340D01*
X005282Y007303D01*
X005269Y007253D01*
X011482Y013103D02*
X011519Y013335D01*
X011625Y013544D01*
X011791Y013710D01*
X012000Y013816D01*
X012232Y013853D01*
X012464Y013816D01*
X012673Y013710D01*
X012839Y013544D01*
X012945Y013335D01*
X012982Y013103D01*
X012945Y012871D01*
X012839Y012662D01*
X012673Y012496D01*
X012464Y012390D01*
X012232Y012353D01*
X012000Y012390D01*
X011791Y012496D01*
X011625Y012662D01*
X011519Y012871D01*
X011482Y013103D01*
X013582Y014478D02*
X015882Y014478D01*
X015882Y017478D01*
X015132Y017478D01*
X015102Y017325D01*
X015015Y017195D01*
X014885Y017108D01*
X014732Y017078D01*
X014579Y017108D01*
X014449Y017195D01*
X014362Y017325D01*
X014332Y017478D01*
X013582Y017478D01*
X013582Y014478D01*
X011482Y017228D02*
X011519Y017460D01*
X011625Y017669D01*
X011791Y017835D01*
X012000Y017941D01*
X012232Y017978D01*
X012464Y017941D01*
X012673Y017835D01*
X012839Y017669D01*
X012945Y017460D01*
X012982Y017228D01*
X012945Y016996D01*
X012839Y016787D01*
X012673Y016621D01*
X012464Y016515D01*
X012232Y016478D01*
X012000Y016515D01*
X011791Y016621D01*
X011625Y016787D01*
X011519Y016996D01*
X011482Y017228D01*
X013582Y018603D02*
X015882Y018603D01*
X015882Y021603D01*
X015132Y021603D01*
X015102Y021450D01*
X015015Y021320D01*
X014885Y021233D01*
X014732Y021203D01*
X014579Y021233D01*
X014449Y021320D01*
X014362Y021450D01*
X014332Y021603D01*
X013582Y021603D01*
X013582Y018603D01*
X011732Y019103D02*
X011770Y019294D01*
X011878Y019457D01*
X012041Y019565D01*
X012232Y019603D01*
X012423Y019565D01*
X012586Y019457D01*
X012694Y019294D01*
X012732Y019103D01*
X012694Y018912D01*
X012586Y018749D01*
X012423Y018641D01*
X012232Y018603D01*
X012041Y018641D01*
X011878Y018749D01*
X011770Y018912D01*
X011732Y019103D01*
X011707Y019753D02*
X011707Y019953D01*
X011707Y020203D02*
X011707Y020403D01*
X011607Y020303D02*
X011807Y020303D01*
X010257Y020103D02*
X010295Y020354D01*
X010405Y020582D01*
X010577Y020768D01*
X010796Y020894D01*
X011043Y020951D01*
X011296Y020932D01*
X011532Y020839D01*
X011730Y020681D01*
X011873Y020472D01*
X011948Y020230D01*
X011948Y019976D01*
X011873Y019734D01*
X011730Y019525D01*
X011532Y019367D01*
X011296Y019274D01*
X011043Y019255D01*
X010796Y019312D01*
X010577Y019438D01*
X010405Y019624D01*
X010295Y019852D01*
X010257Y020103D01*
X010157Y020003D02*
X010157Y022203D01*
X010144Y022253D01*
X010107Y022290D01*
X010057Y022303D01*
X006157Y022303D01*
X006107Y022290D01*
X006070Y022253D01*
X006057Y022203D01*
X006057Y020003D01*
X006070Y019953D01*
X006107Y019916D01*
X006157Y019903D01*
X010057Y019903D01*
X010107Y019916D01*
X010144Y019953D01*
X010157Y020003D01*
X009157Y021103D02*
X008957Y021103D01*
X008607Y021103D02*
X007057Y021103D01*
X005982Y019103D02*
X006020Y019294D01*
X006128Y019457D01*
X006291Y019565D01*
X006482Y019603D01*
X006673Y019565D01*
X006836Y019457D01*
X006944Y019294D01*
X006982Y019103D01*
X006944Y018912D01*
X006836Y018749D01*
X006673Y018641D01*
X006482Y018603D01*
X006291Y018641D01*
X006128Y018749D01*
X006020Y018912D01*
X005982Y019103D01*
X003777Y019367D02*
X003809Y019475D01*
X003894Y019549D01*
X004005Y019565D01*
X004108Y019518D01*
X004169Y019423D01*
X004169Y019311D01*
X004108Y019216D01*
X004005Y019169D01*
X003894Y019185D01*
X003809Y019259D01*
X003777Y019367D01*
X003777Y021337D02*
X003809Y021445D01*
X003894Y021519D01*
X004005Y021535D01*
X004108Y021488D01*
X004169Y021393D01*
X004169Y021281D01*
X004108Y021186D01*
X004005Y021139D01*
X003894Y021155D01*
X003809Y021229D01*
X003777Y021337D01*
X003777Y023367D02*
X003809Y023475D01*
X003894Y023549D01*
X004005Y023565D01*
X004108Y023518D01*
X004169Y023423D01*
X004169Y023311D01*
X004108Y023216D01*
X004005Y023169D01*
X003894Y023185D01*
X003809Y023259D01*
X003777Y023367D01*
X006057Y024128D02*
X006057Y026328D01*
X006070Y026378D01*
X006107Y026415D01*
X006157Y026428D01*
X010057Y026428D01*
X010107Y026415D01*
X010144Y026378D01*
X010157Y026328D01*
X010157Y024128D01*
X010144Y024078D01*
X010107Y024041D01*
X010057Y024028D01*
X006157Y024028D01*
X006107Y024041D01*
X006070Y024078D01*
X006057Y024128D01*
X005982Y023228D02*
X006020Y023419D01*
X006128Y023582D01*
X006291Y023690D01*
X006482Y023728D01*
X006673Y023690D01*
X006836Y023582D01*
X006944Y023419D01*
X006982Y023228D01*
X006944Y023037D01*
X006836Y022874D01*
X006673Y022766D01*
X006482Y022728D01*
X006291Y022766D01*
X006128Y022874D01*
X006020Y023037D01*
X005982Y023228D01*
X007057Y025228D02*
X008607Y025228D01*
X008957Y025228D02*
X009157Y025228D01*
X010257Y024228D02*
X010295Y024479D01*
X010405Y024707D01*
X010577Y024893D01*
X010796Y025019D01*
X011043Y025076D01*
X011296Y025057D01*
X011532Y024964D01*
X011730Y024806D01*
X011873Y024597D01*
X011948Y024355D01*
X011948Y024101D01*
X011873Y023859D01*
X011730Y023650D01*
X011532Y023492D01*
X011296Y023399D01*
X011043Y023380D01*
X010796Y023437D01*
X010577Y023563D01*
X010405Y023749D01*
X010295Y023977D01*
X010257Y024228D01*
X011607Y024428D02*
X011807Y024428D01*
X011707Y024528D02*
X011707Y024328D01*
X011707Y024078D02*
X011707Y023878D01*
X011732Y023228D02*
X011770Y023419D01*
X011878Y023582D01*
X012041Y023690D01*
X012232Y023728D01*
X012423Y023690D01*
X012586Y023582D01*
X012694Y023419D01*
X012732Y023228D01*
X012694Y023037D01*
X012586Y022874D01*
X012423Y022766D01*
X012232Y022728D01*
X012041Y022766D01*
X011878Y022874D01*
X011770Y023037D01*
X011732Y023228D01*
X013582Y022728D02*
X015882Y022728D01*
X015882Y025728D01*
X015132Y025728D01*
X015102Y025575D01*
X015015Y025445D01*
X014885Y025358D01*
X014732Y025328D01*
X014579Y025358D01*
X014449Y025445D01*
X014362Y025575D01*
X014332Y025728D01*
X013582Y025728D01*
X013582Y022728D01*
X011482Y021353D02*
X011519Y021585D01*
X011625Y021794D01*
X011791Y021960D01*
X012000Y022066D01*
X012232Y022103D01*
X012464Y022066D01*
X012673Y021960D01*
X012839Y021794D01*
X012945Y021585D01*
X012982Y021353D01*
X012945Y021121D01*
X012839Y020912D01*
X012673Y020746D01*
X012464Y020640D01*
X012232Y020603D01*
X012000Y020640D01*
X011791Y020746D01*
X011625Y020912D01*
X011519Y021121D01*
X011482Y021353D01*
X007982Y023228D02*
X008019Y023460D01*
X008125Y023669D01*
X008291Y023835D01*
X008500Y023941D01*
X008732Y023978D01*
X008964Y023941D01*
X009173Y023835D01*
X009339Y023669D01*
X009445Y023460D01*
X009482Y023228D01*
X009445Y022996D01*
X009339Y022787D01*
X009173Y022621D01*
X008964Y022515D01*
X008732Y022478D01*
X008500Y022515D01*
X008291Y022621D01*
X008125Y022787D01*
X008019Y022996D01*
X007982Y023228D01*
X011482Y025478D02*
X011519Y025710D01*
X011625Y025919D01*
X011791Y026085D01*
X012000Y026191D01*
X012232Y026228D01*
X012464Y026191D01*
X012673Y026085D01*
X012839Y025919D01*
X012945Y025710D01*
X012982Y025478D01*
X012945Y025246D01*
X012839Y025037D01*
X012673Y024871D01*
X012464Y024765D01*
X012232Y024728D01*
X012000Y024765D01*
X011791Y024871D01*
X011625Y025037D01*
X011519Y025246D01*
X011482Y025478D01*
X007982Y019103D02*
X008019Y019335D01*
X008125Y019544D01*
X008291Y019710D01*
X008500Y019816D01*
X008732Y019853D01*
X008964Y019816D01*
X009173Y019710D01*
X009339Y019544D01*
X009445Y019335D01*
X009482Y019103D01*
X009445Y018871D01*
X009339Y018662D01*
X009173Y018496D01*
X008964Y018390D01*
X008732Y018353D01*
X008500Y018390D01*
X008291Y018496D01*
X008125Y018662D01*
X008019Y018871D01*
X007982Y019103D01*
X007982Y014978D02*
X008019Y015210D01*
X008125Y015419D01*
X008291Y015585D01*
X008500Y015691D01*
X008732Y015728D01*
X008964Y015691D01*
X009173Y015585D01*
X009339Y015419D01*
X009445Y015210D01*
X009482Y014978D01*
X009445Y014746D01*
X009339Y014537D01*
X009173Y014371D01*
X008964Y014265D01*
X008732Y014228D01*
X008500Y014265D01*
X008291Y014371D01*
X008125Y014537D01*
X008019Y014746D01*
X007982Y014978D01*
X001897Y025687D02*
X001897Y026317D01*
D14*
X001537Y025732D02*
X001387Y025732D01*
X001311Y025657D01*
X001311Y025582D01*
X001387Y025432D01*
X001161Y025432D01*
X001161Y025732D01*
X001537Y025732D02*
X001612Y025657D01*
X001612Y025507D01*
X001537Y025432D01*
X001612Y025271D02*
X001161Y024971D01*
X001161Y025271D02*
X001612Y024971D01*
X003381Y025852D02*
X003832Y025852D01*
X003832Y025702D02*
X003832Y026002D01*
X003531Y025702D02*
X003381Y025852D01*
X003456Y024052D02*
X003381Y023977D01*
X003381Y023827D01*
X003456Y023752D01*
X003456Y024052D02*
X003531Y024052D01*
X003832Y023752D01*
X003832Y024052D01*
X003832Y022002D02*
X003832Y021702D01*
X003832Y021852D02*
X003381Y021852D01*
X003531Y021702D01*
X001612Y021657D02*
X001537Y021732D01*
X001462Y021732D01*
X001387Y021657D01*
X001387Y021432D01*
X001537Y021432D01*
X001612Y021507D01*
X001612Y021657D01*
X001387Y021432D02*
X001236Y021582D01*
X001161Y021732D01*
X001161Y021271D02*
X001612Y020971D01*
X001612Y021271D02*
X001161Y020971D01*
X003381Y019977D02*
X003381Y019827D01*
X003456Y019752D01*
X003381Y019977D02*
X003456Y020052D01*
X003531Y020052D01*
X003832Y019752D01*
X003832Y020052D01*
X003832Y018002D02*
X003832Y017702D01*
X003832Y017852D02*
X003381Y017852D01*
X003531Y017702D01*
X001612Y017432D02*
X001537Y017432D01*
X001236Y017732D01*
X001161Y017732D01*
X001161Y017432D01*
X001161Y017271D02*
X001612Y016971D01*
X001612Y017271D02*
X001161Y016971D01*
X003381Y015977D02*
X003381Y015827D01*
X003456Y015752D01*
X003381Y015977D02*
X003456Y016052D01*
X003531Y016052D01*
X003832Y015752D01*
X003832Y016052D01*
X003832Y014002D02*
X003832Y013702D01*
X003832Y013852D02*
X003381Y013852D01*
X003531Y013702D01*
X001612Y013657D02*
X001612Y013507D01*
X001537Y013432D01*
X001462Y013432D01*
X001387Y013507D01*
X001387Y013657D01*
X001462Y013732D01*
X001537Y013732D01*
X001612Y013657D01*
X001387Y013657D02*
X001311Y013732D01*
X001236Y013732D01*
X001161Y013657D01*
X001161Y013507D01*
X001236Y013432D01*
X001311Y013432D01*
X001387Y013507D01*
X001612Y013271D02*
X001161Y012971D01*
X001161Y013271D02*
X001612Y012971D01*
X003381Y011977D02*
X003381Y011827D01*
X003456Y011752D01*
X003381Y011977D02*
X003456Y012052D01*
X003531Y012052D01*
X003832Y011752D01*
X003832Y012052D01*
X006963Y011978D02*
X007038Y011903D01*
X007188Y011903D01*
X007263Y011978D01*
X007423Y011903D02*
X007724Y011903D01*
X007574Y011903D02*
X007574Y012353D01*
X007423Y012203D01*
X007263Y012278D02*
X007188Y012353D01*
X007038Y012353D01*
X006963Y012278D01*
X006963Y011978D01*
X007884Y011978D02*
X007959Y011903D01*
X008109Y011903D01*
X008184Y011978D01*
X008184Y012053D01*
X008109Y012128D01*
X007884Y012128D01*
X007884Y011978D01*
X007884Y012128D02*
X008034Y012278D01*
X008184Y012353D01*
X007671Y016153D02*
X007671Y016603D01*
X007446Y016378D01*
X007746Y016378D01*
X007286Y016153D02*
X006986Y016153D01*
X007136Y016153D02*
X007136Y016603D01*
X006986Y016453D01*
X006826Y016528D02*
X006751Y016603D01*
X006601Y016603D01*
X006526Y016528D01*
X006526Y016228D01*
X006601Y016153D01*
X006751Y016153D01*
X006826Y016228D01*
X006751Y020278D02*
X006826Y020353D01*
X006751Y020278D02*
X006601Y020278D01*
X006526Y020353D01*
X006526Y020653D01*
X006601Y020728D01*
X006751Y020728D01*
X006826Y020653D01*
X006986Y020578D02*
X007136Y020728D01*
X007136Y020278D01*
X006986Y020278D02*
X007286Y020278D01*
X007446Y020278D02*
X007746Y020578D01*
X007746Y020653D01*
X007671Y020728D01*
X007521Y020728D01*
X007446Y020653D01*
X007446Y020278D02*
X007746Y020278D01*
X007671Y024403D02*
X007521Y024403D01*
X007446Y024478D01*
X007746Y024778D01*
X007746Y024478D01*
X007671Y024403D01*
X007446Y024478D02*
X007446Y024778D01*
X007521Y024853D01*
X007671Y024853D01*
X007746Y024778D01*
X007286Y024403D02*
X006986Y024403D01*
X007136Y024403D02*
X007136Y024853D01*
X006986Y024703D01*
X006826Y024778D02*
X006751Y024853D01*
X006601Y024853D01*
X006526Y024778D01*
X006526Y024478D01*
X006601Y024403D01*
X006751Y024403D01*
X006826Y024478D01*
X013607Y025928D02*
X013682Y025853D01*
X013832Y025853D01*
X013907Y025928D01*
X013907Y026228D01*
X013832Y026303D01*
X013682Y026303D01*
X013607Y026228D01*
X013607Y025928D01*
X014067Y026003D02*
X014367Y026303D01*
X014527Y026303D02*
X014527Y026078D01*
X014678Y026153D01*
X014753Y026153D01*
X014828Y026078D01*
X014828Y025928D01*
X014753Y025853D01*
X014602Y025853D01*
X014527Y025928D01*
X014367Y025853D02*
X014142Y026078D01*
X014067Y026303D02*
X014067Y025853D01*
X014527Y026303D02*
X014828Y026303D01*
X014828Y022178D02*
X014678Y022103D01*
X014527Y021953D01*
X014753Y021953D01*
X014828Y021878D01*
X014828Y021803D01*
X014753Y021728D01*
X014602Y021728D01*
X014527Y021803D01*
X014527Y021953D01*
X014367Y022178D02*
X014067Y021878D01*
X014142Y021953D02*
X014367Y021728D01*
X014067Y021728D02*
X014067Y022178D01*
X013907Y022103D02*
X013832Y022178D01*
X013682Y022178D01*
X013607Y022103D01*
X013607Y021803D01*
X013682Y021728D01*
X013832Y021728D01*
X013907Y021803D01*
X013907Y022103D01*
X013832Y018053D02*
X013907Y017978D01*
X013907Y017678D01*
X013832Y017603D01*
X013682Y017603D01*
X013607Y017678D01*
X013607Y017978D01*
X013682Y018053D01*
X013832Y018053D01*
X014067Y018053D02*
X014067Y017603D01*
X014067Y017753D02*
X014367Y018053D01*
X014527Y018053D02*
X014828Y018053D01*
X014828Y017978D01*
X014527Y017678D01*
X014527Y017603D01*
X014367Y017603D02*
X014142Y017828D01*
X014067Y013928D02*
X014067Y013478D01*
X014067Y013628D02*
X014367Y013928D01*
X014527Y013853D02*
X014527Y013778D01*
X014602Y013703D01*
X014753Y013703D01*
X014828Y013628D01*
X014828Y013553D01*
X014753Y013478D01*
X014602Y013478D01*
X014527Y013553D01*
X014527Y013628D01*
X014602Y013703D01*
X014753Y013703D02*
X014828Y013778D01*
X014828Y013853D01*
X014753Y013928D01*
X014602Y013928D01*
X014527Y013853D01*
X014367Y013478D02*
X014142Y013703D01*
X013907Y013853D02*
X013832Y013928D01*
X013682Y013928D01*
X013607Y013853D01*
X013607Y013553D01*
X013682Y013478D01*
X013832Y013478D01*
X013907Y013553D01*
X013907Y013853D01*
X014682Y009536D02*
X014682Y009236D01*
X014682Y009386D02*
X014231Y009386D01*
X014381Y009236D01*
X014231Y009076D02*
X014682Y009076D01*
X014231Y008776D01*
X014682Y008776D01*
X014682Y008616D02*
X014532Y008465D01*
X014532Y008540D02*
X014532Y008315D01*
X014682Y008315D02*
X014231Y008315D01*
X014231Y008540D01*
X014306Y008616D01*
X014457Y008616D01*
X014532Y008540D01*
X013582Y006874D02*
X013507Y006874D01*
X013432Y006799D01*
X013432Y006649D01*
X013356Y006574D01*
X013281Y006574D01*
X013206Y006649D01*
X013206Y006799D01*
X013281Y006874D01*
X013356Y006874D01*
X013432Y006799D01*
X013432Y006649D02*
X013507Y006574D01*
X013582Y006574D01*
X013657Y006649D01*
X013657Y006799D01*
X013582Y006874D01*
X013657Y006413D02*
X013657Y006113D01*
X013657Y006263D02*
X013206Y006263D01*
X013356Y006113D01*
X013281Y005953D02*
X013206Y005878D01*
X013206Y005728D01*
X013281Y005653D01*
X013582Y005653D01*
X013657Y005728D01*
X013657Y005878D01*
X013582Y005953D01*
X009437Y007465D02*
X009136Y007465D01*
X009437Y007765D01*
X009437Y007841D01*
X009362Y007916D01*
X009211Y007916D01*
X009136Y007841D01*
X008976Y007841D02*
X008901Y007916D01*
X008751Y007916D01*
X008676Y007841D01*
X008676Y007540D01*
X008751Y007465D01*
X008901Y007465D01*
X008976Y007540D01*
X008519Y007465D02*
X008369Y007465D01*
X008444Y007465D02*
X008444Y007916D01*
X008369Y007916D02*
X008519Y007916D01*
X006869Y006543D02*
X006869Y006242D01*
X006869Y006392D02*
X006419Y006392D01*
X006569Y006242D01*
X006644Y006082D02*
X006719Y006007D01*
X006719Y005782D01*
X006719Y005932D02*
X006869Y006082D01*
X006644Y006082D02*
X006494Y006082D01*
X006419Y006007D01*
X006419Y005782D01*
X006869Y005782D01*
X005721Y004978D02*
X005421Y004978D01*
X005571Y004978D02*
X005571Y005428D01*
X005421Y005278D01*
X005261Y005353D02*
X005261Y005053D01*
X005186Y004978D01*
X004961Y004978D01*
X004961Y005428D01*
X005186Y005428D01*
X005261Y005353D01*
X004801Y005428D02*
X004501Y005428D01*
X004501Y004978D01*
X004801Y004978D01*
X004651Y005203D02*
X004501Y005203D01*
X004340Y004978D02*
X004040Y004978D01*
X004040Y005428D01*
X001692Y005328D02*
X001392Y005328D01*
X001542Y005328D02*
X001542Y005778D01*
X001392Y005628D01*
X001232Y005703D02*
X001157Y005778D01*
X001007Y005778D01*
X000932Y005703D01*
X000932Y005628D01*
X001007Y005553D01*
X001157Y005553D01*
X001232Y005478D01*
X001232Y005403D01*
X001157Y005328D01*
X001007Y005328D01*
X000932Y005403D01*
X018751Y001453D02*
X018826Y001378D01*
X018901Y001378D01*
X018976Y001453D01*
X018976Y001828D01*
X018901Y001828D02*
X019051Y001828D01*
X019211Y001828D02*
X019211Y001378D01*
X019211Y001528D02*
X019436Y001528D01*
X019511Y001603D01*
X019511Y001753D01*
X019436Y001828D01*
X019211Y001828D01*
X019671Y001678D02*
X019821Y001828D01*
X019821Y001378D01*
X019671Y001378D02*
X019971Y001378D01*
X020544Y004940D02*
X020544Y005165D01*
X020619Y005241D01*
X020769Y005241D01*
X020844Y005165D01*
X020844Y004940D01*
X020994Y004940D02*
X020544Y004940D01*
X020844Y005090D02*
X020994Y005241D01*
X020872Y005340D02*
X020571Y005340D01*
X020544Y005401D02*
X020994Y005701D01*
X020544Y005701D01*
X020571Y005641D02*
X020721Y005791D01*
X020721Y005340D01*
X020544Y005401D02*
X020994Y005401D01*
X020994Y005861D02*
X020694Y006161D01*
X020619Y006161D01*
X020544Y006086D01*
X020544Y005936D01*
X020619Y005861D01*
X020411Y005716D02*
X020336Y005791D01*
X020186Y005791D01*
X020111Y005716D01*
X020111Y005415D01*
X020186Y005340D01*
X020336Y005340D01*
X020411Y005415D01*
X020994Y005861D02*
X020994Y006161D01*
X024932Y007465D02*
X025082Y007465D01*
X025007Y007465D02*
X025007Y007916D01*
X024932Y007916D02*
X025082Y007916D01*
X025239Y007841D02*
X025239Y007540D01*
X025314Y007465D01*
X025464Y007465D01*
X025539Y007540D01*
X025699Y007465D02*
X025999Y007465D01*
X025849Y007465D02*
X025849Y007916D01*
X025699Y007766D01*
X025539Y007841D02*
X025464Y007916D01*
X025314Y007916D01*
X025239Y007841D01*
X021871Y009965D02*
X021571Y009965D01*
X021721Y009965D02*
X021721Y010416D01*
X021571Y010266D01*
X021411Y010416D02*
X021111Y010115D01*
X021186Y010190D02*
X021411Y009965D01*
X021111Y009965D02*
X021111Y010416D01*
X020951Y010341D02*
X020951Y010040D01*
X020876Y009965D01*
X020726Y009965D01*
X020651Y010040D01*
X020651Y010341D01*
X020726Y010416D01*
X020876Y010416D01*
X020951Y010341D01*
X020876Y014090D02*
X020951Y014165D01*
X020951Y014466D01*
X020876Y014541D01*
X020726Y014541D01*
X020651Y014466D01*
X020651Y014165D01*
X020726Y014090D01*
X020876Y014090D01*
X021111Y014090D02*
X021111Y014541D01*
X021186Y014315D02*
X021411Y014090D01*
X021571Y014090D02*
X021871Y014391D01*
X021871Y014466D01*
X021796Y014541D01*
X021646Y014541D01*
X021571Y014466D01*
X021411Y014541D02*
X021111Y014240D01*
X021571Y014090D02*
X021871Y014090D01*
X021796Y018215D02*
X021646Y018215D01*
X021571Y018290D01*
X021411Y018215D02*
X021186Y018440D01*
X021111Y018365D02*
X021411Y018666D01*
X021571Y018591D02*
X021646Y018666D01*
X021796Y018666D01*
X021871Y018591D01*
X021871Y018516D01*
X021796Y018440D01*
X021871Y018365D01*
X021871Y018290D01*
X021796Y018215D01*
X021796Y018440D02*
X021721Y018440D01*
X021111Y018666D02*
X021111Y018215D01*
X020951Y018290D02*
X020951Y018591D01*
X020876Y018666D01*
X020726Y018666D01*
X020651Y018591D01*
X020651Y018290D01*
X020726Y018215D01*
X020876Y018215D01*
X020951Y018290D01*
X020876Y022340D02*
X020951Y022415D01*
X020951Y022716D01*
X020876Y022791D01*
X020726Y022791D01*
X020651Y022716D01*
X020651Y022415D01*
X020726Y022340D01*
X020876Y022340D01*
X021111Y022340D02*
X021111Y022791D01*
X021186Y022565D02*
X021411Y022340D01*
X021571Y022565D02*
X021871Y022565D01*
X021796Y022340D02*
X021796Y022791D01*
X021571Y022565D01*
X021411Y022791D02*
X021111Y022490D01*
X027732Y023865D02*
X027807Y023790D01*
X027957Y023790D01*
X028032Y023865D01*
X028192Y023865D02*
X028267Y023790D01*
X028417Y023790D01*
X028492Y023865D01*
X028492Y023940D01*
X028417Y024015D01*
X028267Y024015D01*
X028192Y024091D01*
X028192Y024166D01*
X028267Y024241D01*
X028417Y024241D01*
X028492Y024166D01*
X028492Y024091D01*
X028417Y024015D01*
X028267Y024015D02*
X028192Y023940D01*
X028192Y023865D01*
X028032Y024166D02*
X027957Y024241D01*
X027807Y024241D01*
X027732Y024166D01*
X027732Y023865D01*
X031881Y023769D02*
X031881Y023619D01*
X031956Y023544D01*
X031881Y023769D02*
X031956Y023844D01*
X032031Y023844D01*
X032332Y023544D01*
X032332Y023844D01*
X034101Y022549D02*
X034327Y022324D01*
X034327Y022624D01*
X034552Y022549D02*
X034101Y022549D01*
X034101Y022164D02*
X034552Y021864D01*
X034552Y022164D02*
X034101Y021864D01*
X032332Y021894D02*
X032332Y021594D01*
X032332Y021744D02*
X031881Y021744D01*
X032031Y021594D01*
X032031Y019844D02*
X031956Y019844D01*
X031881Y019769D01*
X031881Y019619D01*
X031956Y019544D01*
X032031Y019844D02*
X032332Y019544D01*
X032332Y019844D01*
X034101Y018549D02*
X034176Y018624D01*
X034251Y018624D01*
X034327Y018549D01*
X034402Y018624D01*
X034477Y018624D01*
X034552Y018549D01*
X034552Y018399D01*
X034477Y018324D01*
X034552Y018164D02*
X034101Y017864D01*
X034101Y018164D02*
X034552Y017864D01*
X034176Y018324D02*
X034101Y018399D01*
X034101Y018549D01*
X034327Y018549D02*
X034327Y018474D01*
X032332Y017894D02*
X032332Y017594D01*
X032332Y017744D02*
X031881Y017744D01*
X032031Y017594D01*
X032031Y015844D02*
X031956Y015844D01*
X031881Y015769D01*
X031881Y015619D01*
X031956Y015544D01*
X032031Y015844D02*
X032332Y015544D01*
X032332Y015844D01*
X034101Y014549D02*
X034101Y014399D01*
X034176Y014324D01*
X034101Y014164D02*
X034552Y013864D01*
X034552Y014164D02*
X034101Y013864D01*
X034552Y014324D02*
X034251Y014624D01*
X034176Y014624D01*
X034101Y014549D01*
X034552Y014624D02*
X034552Y014324D01*
X032332Y013894D02*
X032332Y013594D01*
X032332Y013744D02*
X031881Y013744D01*
X032031Y013594D01*
X032031Y011844D02*
X031956Y011844D01*
X031881Y011769D01*
X031881Y011619D01*
X031956Y011544D01*
X032031Y011844D02*
X032332Y011544D01*
X032332Y011844D01*
X034101Y010474D02*
X034552Y010474D01*
X034552Y010324D02*
X034552Y010624D01*
X034251Y010324D02*
X034101Y010474D01*
X034101Y010164D02*
X034552Y009864D01*
X034552Y010164D02*
X034101Y009864D01*
X032332Y009894D02*
X032332Y009594D01*
X032332Y009744D02*
X031881Y009744D01*
X032031Y009594D01*
X029940Y007741D02*
X029865Y007816D01*
X029715Y007816D01*
X029640Y007741D01*
X029640Y007666D01*
X029715Y007590D01*
X029940Y007590D01*
X029940Y007440D02*
X029940Y007741D01*
X029940Y007440D02*
X029865Y007365D01*
X029715Y007365D01*
X029640Y007440D01*
X029480Y007365D02*
X029180Y007365D01*
X029330Y007365D02*
X029330Y007816D01*
X029180Y007666D01*
X029019Y007741D02*
X028944Y007816D01*
X028794Y007816D01*
X028719Y007741D01*
X028719Y007440D01*
X028794Y007365D01*
X028944Y007365D01*
X029019Y007440D01*
X031956Y003844D02*
X031881Y003769D01*
X031881Y003619D01*
X031956Y003544D01*
X031956Y003844D02*
X032031Y003844D01*
X032332Y003544D01*
X032332Y003844D01*
X034101Y002549D02*
X034101Y002399D01*
X034176Y002324D01*
X034251Y002324D01*
X034327Y002399D01*
X034327Y002624D01*
X034477Y002624D02*
X034176Y002624D01*
X034101Y002549D01*
X034477Y002624D02*
X034552Y002549D01*
X034552Y002399D01*
X034477Y002324D01*
X034552Y002164D02*
X034101Y001864D01*
X034101Y002164D02*
X034552Y001864D01*
X032332Y001894D02*
X032332Y001594D01*
X032332Y001744D02*
X031881Y001744D01*
X032031Y001594D01*
X028492Y011415D02*
X028192Y011415D01*
X028492Y011716D01*
X028492Y011791D01*
X028417Y011866D01*
X028267Y011866D01*
X028192Y011791D01*
X028032Y011791D02*
X027957Y011866D01*
X027807Y011866D01*
X027732Y011791D01*
X027732Y011490D01*
X027807Y011415D01*
X027957Y011415D01*
X028032Y011490D01*
X027957Y015540D02*
X028032Y015615D01*
X027957Y015540D02*
X027807Y015540D01*
X027732Y015615D01*
X027732Y015916D01*
X027807Y015991D01*
X027957Y015991D01*
X028032Y015916D01*
X028192Y015765D02*
X028492Y015765D01*
X028417Y015540D02*
X028417Y015991D01*
X028192Y015765D01*
X028267Y019665D02*
X028417Y019665D01*
X028492Y019740D01*
X028492Y019815D01*
X028417Y019890D01*
X028192Y019890D01*
X028192Y019740D01*
X028267Y019665D01*
X028192Y019890D02*
X028342Y020041D01*
X028492Y020116D01*
X028032Y020041D02*
X027957Y020116D01*
X027807Y020116D01*
X027732Y020041D01*
X027732Y019740D01*
X027807Y019665D01*
X027957Y019665D01*
X028032Y019740D01*
D15*
X003357Y008553D02*
X003357Y008453D01*
X002407Y008453D01*
X002407Y008553D01*
X002357Y006253D02*
X002357Y006153D01*
X002357Y006253D02*
X003357Y006253D01*
X003357Y006153D01*
D16*
X002057Y005353D02*
X002086Y005139D01*
X002171Y004941D01*
X002306Y004773D01*
X002481Y004647D01*
X003254Y004658D02*
X003421Y004785D01*
X003549Y004951D01*
X003630Y005145D01*
X003657Y005353D01*
X003624Y005581D01*
X003527Y005791D01*
X003374Y005964D01*
X002345Y005968D02*
X002190Y005794D01*
X002091Y005583D01*
X002057Y005353D01*
D17*
X005669Y005278D03*
X005669Y007428D03*
D18*
X028900Y002882D02*
X029294Y002882D01*
X029688Y002882D01*
X029294Y002882D02*
X029664Y002459D01*
X028912Y002459D01*
X029294Y002882D01*
D19*
X026982Y010540D02*
X026982Y011040D01*
X026982Y011540D01*
X026632Y011540D02*
X026632Y011040D01*
X026632Y010540D01*
X026632Y014665D02*
X026632Y015165D01*
X026632Y015665D01*
X026982Y015665D02*
X026982Y015165D01*
X026982Y014665D01*
X026982Y018790D02*
X026982Y019290D01*
X026982Y019790D01*
X026632Y019790D02*
X026632Y019290D01*
X026632Y018790D01*
X026632Y022915D02*
X026632Y023415D01*
X026632Y023915D01*
X026982Y023915D02*
X026982Y023415D01*
X026982Y022915D01*
X008957Y021603D02*
X008957Y021103D01*
X008957Y020603D01*
X008607Y020603D02*
X008607Y021103D01*
X008607Y021603D01*
X008607Y024728D02*
X008607Y025228D01*
X008607Y025728D01*
X008957Y025728D02*
X008957Y025228D01*
X008957Y024728D01*
X008957Y017478D02*
X008957Y016978D01*
X008957Y016478D01*
X008607Y016478D02*
X008607Y016978D01*
X008607Y017478D01*
X008607Y013353D02*
X008607Y012853D01*
X008607Y012353D01*
X008957Y012353D02*
X008957Y012853D01*
X008957Y013353D01*
D20*
X009122Y014978D02*
X009352Y014978D01*
X011632Y014978D02*
X011832Y014978D01*
X011842Y013103D02*
X011612Y013103D01*
X011632Y010853D02*
X011832Y010853D01*
X009352Y010853D02*
X009122Y010853D01*
X007082Y010853D02*
X006882Y010853D01*
X006882Y014978D02*
X007082Y014978D01*
X011612Y017228D02*
X011842Y017228D01*
X011832Y019103D02*
X011632Y019103D01*
X009352Y019103D02*
X009122Y019103D01*
X007082Y019103D02*
X006882Y019103D01*
X011612Y021353D02*
X011842Y021353D01*
X011832Y023228D02*
X011632Y023228D01*
X009352Y023228D02*
X009122Y023228D01*
X007082Y023228D02*
X006882Y023228D01*
X011612Y025478D02*
X011842Y025478D01*
X023757Y025415D02*
X023957Y025415D01*
X026237Y025415D02*
X026467Y025415D01*
X028507Y025415D02*
X028707Y025415D01*
X023977Y023165D02*
X023747Y023165D01*
X023757Y021290D02*
X023957Y021290D01*
X026237Y021290D02*
X026467Y021290D01*
X028507Y021290D02*
X028707Y021290D01*
X023977Y019040D02*
X023747Y019040D01*
X023757Y017165D02*
X023957Y017165D01*
X026237Y017165D02*
X026467Y017165D01*
X028507Y017165D02*
X028707Y017165D01*
X023977Y014915D02*
X023747Y014915D01*
X023757Y013040D02*
X023957Y013040D01*
X026237Y013040D02*
X026467Y013040D01*
X028507Y013040D02*
X028707Y013040D01*
X023977Y010790D02*
X023747Y010790D01*
D21*
X029424Y007090D02*
X029424Y006790D01*
X029424Y006490D01*
X029674Y006490D02*
X029674Y006790D01*
X029674Y007090D01*
X012907Y006545D02*
X012607Y006545D01*
X012307Y006545D01*
X012307Y006295D02*
X012607Y006295D01*
X012907Y006295D01*
M02*
