G75*
G70*
%OFA0B0*%
%FSLAX24Y24*%
%IPPOS*%
%LPD*%
%AMOC8*
5,1,8,0,0,1.08239X$1,22.5*
%
%ADD10C,0.1182*%
%ADD11C,0.0848*%
%ADD12C,0.0674*%
%ADD13OC8,0.0634*%
%ADD14C,0.0634*%
%ADD15R,0.0674X0.0674*%
%ADD16OC8,0.0674*%
%ADD17R,0.0761X0.0737*%
%ADD18C,0.0634*%
%ADD19OC8,0.0740*%
%ADD20OC8,0.0671*%
%ADD21OC8,0.0907*%
D10*
X017707Y001603D03*
X017707Y025103D03*
D11*
X004754Y025254D02*
X003987Y025254D01*
X002991Y025337D02*
X002223Y025337D01*
X002223Y023369D02*
X002991Y023369D01*
X003987Y023286D02*
X004754Y023286D01*
X004754Y021317D02*
X003987Y021317D01*
X002991Y021337D02*
X002223Y021337D01*
X002223Y019369D02*
X002991Y019369D01*
X003987Y019349D02*
X004754Y019349D01*
X004754Y017341D02*
X003987Y017341D01*
X002991Y017337D02*
X002223Y017337D01*
X002223Y015369D02*
X002991Y015369D01*
X003987Y015372D02*
X004754Y015372D01*
X004754Y013404D02*
X003987Y013404D01*
X002991Y013337D02*
X002223Y013337D01*
X002223Y011369D02*
X002991Y011369D01*
X003987Y011435D02*
X004754Y011435D01*
X030824Y012322D02*
X031592Y012322D01*
X032723Y012337D02*
X033491Y012337D01*
X033491Y014369D02*
X032723Y014369D01*
X031593Y014309D02*
X030825Y014309D01*
X030825Y016278D02*
X031593Y016278D01*
X032723Y016337D02*
X033491Y016337D01*
X033491Y018369D02*
X032723Y018369D01*
X031592Y018228D02*
X030824Y018228D01*
X030824Y020196D02*
X031592Y020196D01*
X032723Y020337D02*
X033491Y020337D01*
X031592Y022165D02*
X030824Y022165D01*
X032723Y022369D02*
X033491Y022369D01*
X033491Y024337D02*
X032723Y024337D01*
X031592Y024133D02*
X030824Y024133D01*
X030824Y010354D02*
X031592Y010354D01*
X032723Y010369D02*
X033491Y010369D01*
X032593Y005350D02*
X031825Y005350D01*
X031597Y004500D02*
X030829Y004500D01*
X031825Y003086D02*
X032593Y003086D01*
X032723Y002369D02*
X033491Y002369D01*
X031597Y002532D02*
X030829Y002532D01*
X032723Y004337D02*
X033491Y004337D01*
D12*
X004434Y006463D02*
X003840Y006463D01*
X001874Y006463D02*
X001280Y006463D01*
X001280Y008243D02*
X001874Y008243D01*
X003840Y008243D02*
X004434Y008243D01*
D13*
X005669Y007853D03*
X005669Y004853D03*
X002857Y004853D03*
X006482Y010853D03*
X007482Y010853D03*
X009732Y010853D03*
X011232Y010853D03*
X011107Y011453D03*
X012232Y010853D03*
X011232Y013103D03*
X011232Y014978D03*
X011107Y015578D03*
X012232Y014978D03*
X009732Y014978D03*
X007482Y014978D03*
X006482Y014978D03*
X011232Y017228D03*
X011232Y019103D03*
X011107Y019703D03*
X012232Y019103D03*
X009732Y019103D03*
X007482Y019103D03*
X006482Y019103D03*
X011232Y021353D03*
X011232Y023228D03*
X011107Y023828D03*
X012232Y023228D03*
X009732Y023228D03*
X007482Y023228D03*
X006482Y023228D03*
X011232Y025478D03*
X023357Y025415D03*
X024357Y025415D03*
X024482Y024815D03*
X025857Y025415D03*
X028107Y025415D03*
X029107Y025415D03*
X024357Y023165D03*
X024357Y021290D03*
X024482Y020690D03*
X023357Y021290D03*
X025857Y021290D03*
X028107Y021290D03*
X029107Y021290D03*
X024357Y019040D03*
X024357Y017165D03*
X024482Y016565D03*
X023357Y017165D03*
X025857Y017165D03*
X028107Y017165D03*
X029107Y017165D03*
X024357Y014915D03*
X024357Y013040D03*
X024482Y012440D03*
X023357Y013040D03*
X025857Y013040D03*
X028107Y013040D03*
X029107Y013040D03*
X024357Y010790D03*
X028544Y006790D03*
X030544Y006790D03*
X021457Y006165D03*
X012607Y005415D03*
X012607Y007415D03*
D14*
X008732Y010853D03*
X011107Y012253D03*
X012232Y013103D03*
X008732Y014978D03*
X011107Y016378D03*
X012232Y017228D03*
X008732Y019103D03*
X011107Y020503D03*
X012232Y021353D03*
X008732Y023228D03*
X011107Y024628D03*
X012232Y025478D03*
X023357Y023165D03*
X024482Y024015D03*
X026857Y025415D03*
X026857Y021290D03*
X024482Y019890D03*
X023357Y019040D03*
X026857Y017165D03*
X024482Y015765D03*
X023357Y014915D03*
X026857Y013040D03*
X024482Y011640D03*
X023357Y010790D03*
X022257Y006165D03*
X002857Y005853D03*
D15*
X022357Y003853D03*
D16*
X021357Y003853D03*
X020357Y003853D03*
X019357Y003853D03*
X018357Y003853D03*
X017357Y003853D03*
X016357Y003853D03*
X015357Y003853D03*
X014357Y003853D03*
X013357Y003853D03*
X013357Y002853D03*
X014357Y002853D03*
X015357Y002853D03*
X016357Y002853D03*
X017357Y002853D03*
X018357Y002853D03*
X019357Y002853D03*
X020357Y002853D03*
X021357Y002853D03*
X022357Y002853D03*
X025982Y011040D03*
X028982Y011040D03*
X028982Y015165D03*
X025982Y015165D03*
X025982Y019290D03*
X028982Y019290D03*
X028982Y023415D03*
X025982Y023415D03*
X009607Y025228D03*
X006607Y025228D03*
X006607Y021103D03*
X009607Y021103D03*
X009607Y016978D03*
X006607Y016978D03*
X006607Y012853D03*
X009607Y012853D03*
D17*
X029294Y003286D03*
X029300Y002043D03*
D18*
X027884Y001790D02*
X027330Y001790D01*
X027330Y000790D02*
X027884Y000790D01*
X027884Y002790D02*
X027330Y002790D01*
X027330Y003790D02*
X027884Y003790D01*
X027884Y004790D02*
X027330Y004790D01*
X027330Y005790D02*
X027884Y005790D01*
X027884Y006790D02*
X027330Y006790D01*
X024884Y006790D02*
X024330Y006790D01*
X024330Y005790D02*
X024884Y005790D01*
X024884Y004790D02*
X024330Y004790D01*
X024330Y003790D02*
X024884Y003790D01*
X024884Y002790D02*
X024330Y002790D01*
X024330Y001790D02*
X024884Y001790D01*
X024884Y000790D02*
X024330Y000790D01*
X020071Y005165D02*
X019517Y005165D01*
X019517Y006165D02*
X020071Y006165D01*
X020071Y007165D02*
X019517Y007165D01*
X019517Y008165D02*
X020071Y008165D01*
X020071Y009165D02*
X019517Y009165D01*
X019634Y011040D02*
X019080Y011040D01*
X019080Y012040D02*
X019634Y012040D01*
X019634Y013040D02*
X019080Y013040D01*
X016509Y012853D02*
X015955Y012853D01*
X015955Y011853D02*
X016509Y011853D01*
X016509Y010853D02*
X015955Y010853D01*
X015696Y009165D02*
X015142Y009165D01*
X015142Y008165D02*
X015696Y008165D01*
X015696Y007165D02*
X015142Y007165D01*
X015142Y006165D02*
X015696Y006165D01*
X015696Y005165D02*
X015142Y005165D01*
X011321Y004790D02*
X010767Y004790D01*
X010767Y003790D02*
X011321Y003790D01*
X011321Y002790D02*
X010767Y002790D01*
X010767Y001790D02*
X011321Y001790D01*
X011321Y000790D02*
X010767Y000790D01*
X008321Y000790D02*
X007767Y000790D01*
X007767Y001790D02*
X008321Y001790D01*
X008321Y002790D02*
X007767Y002790D01*
X007767Y003790D02*
X008321Y003790D01*
X008321Y004790D02*
X007767Y004790D01*
X007767Y005790D02*
X008321Y005790D01*
X008321Y006790D02*
X007767Y006790D01*
X010767Y006790D02*
X011321Y006790D01*
X011321Y005790D02*
X010767Y005790D01*
X012955Y010853D02*
X013509Y010853D01*
X013509Y011853D02*
X012955Y011853D01*
X012955Y012853D02*
X013509Y012853D01*
X013509Y014978D02*
X012955Y014978D01*
X012955Y015978D02*
X013509Y015978D01*
X013509Y016978D02*
X012955Y016978D01*
X012955Y019103D02*
X013509Y019103D01*
X013509Y020103D02*
X012955Y020103D01*
X012955Y021103D02*
X013509Y021103D01*
X015955Y021103D02*
X016509Y021103D01*
X016509Y020103D02*
X015955Y020103D01*
X015955Y019103D02*
X016509Y019103D01*
X019080Y019290D02*
X019634Y019290D01*
X019634Y020290D02*
X019080Y020290D01*
X019080Y021290D02*
X019634Y021290D01*
X022080Y021290D02*
X022634Y021290D01*
X022634Y020290D02*
X022080Y020290D01*
X022080Y019290D02*
X022634Y019290D01*
X022634Y017165D02*
X022080Y017165D01*
X022080Y016165D02*
X022634Y016165D01*
X022634Y015165D02*
X022080Y015165D01*
X019634Y015165D02*
X019080Y015165D01*
X019080Y016165D02*
X019634Y016165D01*
X019634Y017165D02*
X019080Y017165D01*
X016509Y016978D02*
X015955Y016978D01*
X015955Y015978D02*
X016509Y015978D01*
X016509Y014978D02*
X015955Y014978D01*
X022080Y013040D02*
X022634Y013040D01*
X022634Y012040D02*
X022080Y012040D01*
X022080Y011040D02*
X022634Y011040D01*
X016509Y023228D02*
X015955Y023228D01*
X015955Y024228D02*
X016509Y024228D01*
X016509Y025228D02*
X015955Y025228D01*
X013509Y025228D02*
X012955Y025228D01*
X012955Y024228D02*
X013509Y024228D01*
X013509Y023228D02*
X012955Y023228D01*
X019080Y023415D02*
X019634Y023415D01*
X019634Y024415D02*
X019080Y024415D01*
X019080Y025415D02*
X019634Y025415D01*
X022080Y025415D02*
X022634Y025415D01*
X022634Y024415D02*
X022080Y024415D01*
X022080Y023415D02*
X022634Y023415D01*
D19*
X022357Y001978D03*
X021357Y001603D03*
D20*
X028544Y004290D03*
X029669Y004103D03*
X029357Y001040D03*
D21*
X005544Y002915D03*
M02*
