%
M48
M72
T01C0.0354
T02C0.0394
T03C0.0512
T04C0.0551
T05C0.1102
%
T01
X2857Y4853
X2857Y5853
X5669Y4853
X8044Y4790
X8044Y3790
X8044Y2790
X8044Y1790
X8044Y790
X11044Y790
X11044Y1790
X11044Y2790
X11044Y3790
X11044Y4790
X11044Y5790
X11044Y6790
X12607Y7415
X12607Y5415
X15419Y5165
X15419Y6165
X15419Y7165
X15419Y8165
X15419Y9165
X16232Y10853
X16232Y11853
X16232Y12853
X16232Y14978
X16232Y15978
X16232Y16978
X16232Y19103
X16232Y20103
X16232Y21103
X16232Y23228
X16232Y24228
X16232Y25228
X13232Y25228
X12232Y25478
X11232Y25478
X11107Y24628
X11107Y23828
X11232Y23228
X12232Y23228
X13232Y23228
X13232Y24228
X9732Y23228
X8732Y23228
X7482Y23228
X6482Y23228
X11232Y21353
X11107Y20503
X11107Y19703
X11232Y19103
X12232Y19103
X13232Y19103
X13232Y20103
X13232Y21103
X12232Y21353
X9732Y19103
X8732Y19103
X7482Y19103
X6482Y19103
X11232Y17228
X11107Y16378
X11107Y15578
X11232Y14978
X12232Y14978
X13232Y14978
X13232Y15978
X13232Y16978
X12232Y17228
X9732Y14978
X8732Y14978
X7482Y14978
X6482Y14978
X11232Y13103
X11107Y12253
X11107Y11453
X11232Y10853
X12232Y10853
X13232Y10853
X13232Y11853
X13232Y12853
X12232Y13103
X9732Y10853
X8732Y10853
X7482Y10853
X6482Y10853
X5669Y7853
X8044Y6790
X8044Y5790
X19357Y11040
X19357Y12040
X19357Y13040
X19357Y15165
X19357Y16165
X19357Y17165
X19357Y19290
X19357Y20290
X19357Y21290
X19357Y23415
X19357Y24415
X19357Y25415
X22357Y25415
X23357Y25415
X24357Y25415
X24482Y24815
X24482Y24015
X24357Y23165
X23357Y23165
X22357Y23415
X22357Y24415
X25857Y25415
X26857Y25415
X28107Y25415
X29107Y25415
X29107Y21290
X28107Y21290
X26857Y21290
X25857Y21290
X24357Y21290
X24482Y20690
X24482Y19890
X24357Y19040
X23357Y19040
X22357Y19290
X22357Y20290
X22357Y21290
X23357Y21290
X23357Y17165
X24357Y17165
X24482Y16565
X24482Y15765
X24357Y14915
X23357Y14915
X22357Y15165
X22357Y16165
X22357Y17165
X25857Y17165
X26857Y17165
X28107Y17165
X29107Y17165
X29107Y13040
X28107Y13040
X26857Y13040
X25857Y13040
X24357Y13040
X24482Y12440
X24482Y11640
X24357Y10790
X23357Y10790
X22357Y11040
X22357Y12040
X22357Y13040
X23357Y13040
X19794Y9165
X19794Y8165
X19794Y7165
X19794Y6165
X19794Y5165
X21457Y6165
X22257Y6165
X24607Y5790
X24607Y4790
X24607Y3790
X24607Y2790
X24607Y1790
X24607Y790
X27607Y790
X27607Y1790
X27607Y2790
X27607Y3790
X27607Y4790
X27607Y5790
X27607Y6790
X28544Y6790
X30544Y6790
X24607Y6790
T02
X22357Y3853
X21357Y3853
X20357Y3853
X19357Y3853
X18357Y3853
X17357Y3853
X16357Y3853
X15357Y3853
X14357Y3853
X13357Y3853
X13357Y2853
X14357Y2853
X15357Y2853
X16357Y2853
X17357Y2853
X18357Y2853
X19357Y2853
X20357Y2853
X21357Y2853
X22357Y2853
X22357Y1978
X21357Y1603
X28544Y4290
X29669Y4103
X29357Y1040
X28982Y11040
X25982Y11040
X25982Y15165
X28982Y15165
X28982Y19290
X25982Y19290
X25982Y23415
X28982Y23415
X9607Y25228
X6607Y25228
X6607Y21103
X9607Y21103
X9607Y16978
X6607Y16978
X6607Y12853
X9607Y12853
X4137Y8243
X4137Y6463
X1577Y6463
X1577Y8243
T03
X2607Y11369
X4370Y11435
X2607Y13337
X4370Y13404
X4370Y15372
X2607Y15369
X2607Y17337
X4370Y17341
X4370Y19349
X2607Y19369
X2607Y21337
X4370Y21317
X4370Y23286
X2607Y23369
X2607Y25337
X4370Y25254
X31208Y24133
X33107Y24337
X33107Y22369
X31208Y22165
X33107Y20337
X31208Y20196
X31208Y18228
X33107Y18369
X33107Y16337
X31209Y16278
X31209Y14309
X33107Y14369
X33107Y12337
X31208Y12322
X31208Y10354
X33107Y10369
X32209Y5350
X31213Y4500
X32209Y3086
X31213Y2532
X33107Y2369
X33107Y4337
T04
X5544Y2915
T05
X17707Y1603
X17707Y25103
M30
