G75*
G70*
%OFA0B0*%
%FSLAX24Y24*%
%IPPOS*%
%LPD*%
%AMOC8*
5,1,8,0,0,1.08239X$1,22.5*
%
%ADD10C,0.0110*%
%ADD11C,0.0030*%
%ADD12C,0.0768*%
%ADD13C,0.0594*%
%ADD14OC8,0.0554*%
%ADD15C,0.0554*%
%ADD16R,0.0594X0.0594*%
%ADD17OC8,0.0594*%
%ADD18C,0.0554*%
%ADD19C,0.0500*%
%ADD20C,0.0660*%
%ADD21C,0.0160*%
%ADD22OC8,0.0660*%
%ADD23C,0.0400*%
%ADD24OC8,0.0591*%
%ADD25OC8,0.0827*%
%ADD26C,0.0320*%
%ADD27C,0.0100*%
D10*
X005127Y006599D02*
X005422Y006599D01*
X005521Y006697D01*
X005521Y006796D01*
X005422Y006894D01*
X005127Y006894D01*
X005127Y006599D02*
X005127Y007189D01*
X005422Y007189D01*
X005521Y007091D01*
X005521Y006993D01*
X005422Y006894D01*
X005772Y006697D02*
X005870Y006599D01*
X006067Y006599D01*
X006165Y006697D01*
X006165Y007091D01*
X006067Y007189D01*
X005870Y007189D01*
X005772Y007091D01*
X005772Y006697D01*
X006416Y007189D02*
X006810Y007189D01*
X006613Y007189D02*
X006613Y006599D01*
D11*
X006572Y007589D02*
X006766Y007783D01*
X006766Y007831D01*
X006717Y007879D01*
X006620Y007879D01*
X006572Y007831D01*
X006471Y007783D02*
X006277Y007589D01*
X006176Y007637D02*
X006128Y007589D01*
X006031Y007589D01*
X005983Y007637D01*
X005983Y007686D01*
X006031Y007734D01*
X006128Y007734D01*
X006176Y007686D01*
X006176Y007637D01*
X006128Y007734D02*
X006176Y007783D01*
X006176Y007831D01*
X006128Y007879D01*
X006031Y007879D01*
X005983Y007831D01*
X005983Y007783D01*
X006031Y007734D01*
X005883Y007783D02*
X005786Y007783D01*
X005835Y007831D02*
X005835Y007637D01*
X005883Y007589D01*
X005685Y007589D02*
X005685Y007783D01*
X005492Y007783D02*
X005492Y007637D01*
X005540Y007589D01*
X005685Y007589D01*
X005391Y007637D02*
X005342Y007589D01*
X005197Y007589D01*
X005197Y007492D02*
X005197Y007783D01*
X005342Y007783D01*
X005391Y007734D01*
X005391Y007637D01*
X005096Y007589D02*
X005096Y007734D01*
X005048Y007783D01*
X004902Y007783D01*
X004902Y007589D01*
X004803Y007589D02*
X004706Y007589D01*
X004754Y007589D02*
X004754Y007879D01*
X004706Y007879D02*
X004803Y007879D01*
X006277Y007783D02*
X006471Y007589D01*
X006572Y007589D02*
X006766Y007589D01*
X006867Y007637D02*
X006915Y007589D01*
X007012Y007589D01*
X007060Y007637D01*
X007060Y007686D01*
X007012Y007734D01*
X006963Y007734D01*
X007012Y007734D02*
X007060Y007783D01*
X007060Y007831D01*
X007012Y007879D01*
X006915Y007879D01*
X006867Y007831D01*
X007161Y007831D02*
X007161Y007637D01*
X007355Y007831D01*
X007355Y007637D01*
X007306Y007589D01*
X007210Y007589D01*
X007161Y007637D01*
X007161Y007831D02*
X007210Y007879D01*
X007306Y007879D01*
X007355Y007831D01*
X007504Y007637D02*
X007504Y007589D01*
X007553Y007589D01*
X007553Y007637D01*
X007504Y007637D01*
X007553Y007589D02*
X007456Y007492D01*
X007947Y007589D02*
X007947Y007879D01*
X008092Y007879D01*
X008141Y007831D01*
X008141Y007734D01*
X008092Y007686D01*
X007947Y007686D01*
X008044Y007686D02*
X008141Y007589D01*
X008242Y007637D02*
X008242Y007734D01*
X008290Y007783D01*
X008387Y007783D01*
X008435Y007734D01*
X008435Y007686D01*
X008242Y007686D01*
X008242Y007637D02*
X008290Y007589D01*
X008387Y007589D01*
X008536Y007783D02*
X008633Y007589D01*
X008730Y007783D01*
X008831Y007637D02*
X008879Y007637D01*
X008879Y007589D01*
X008831Y007589D01*
X008831Y007637D01*
X009273Y007734D02*
X009466Y007734D01*
X009568Y007637D02*
X009616Y007637D01*
X009616Y007589D01*
X009568Y007589D01*
X009568Y007637D01*
X009715Y007589D02*
X009908Y007589D01*
X009812Y007589D02*
X009812Y007879D01*
X009715Y007783D01*
X009418Y007879D02*
X009273Y007734D01*
X009418Y007589D02*
X009418Y007879D01*
D12*
X007939Y010354D02*
X007171Y010354D01*
X006290Y010369D02*
X005522Y010369D01*
X005522Y012337D02*
X006290Y012337D01*
X007171Y012322D02*
X007939Y012322D01*
X007938Y014309D02*
X007170Y014309D01*
X006290Y014369D02*
X005522Y014369D01*
X007170Y016278D02*
X007938Y016278D01*
X006290Y016337D02*
X005522Y016337D01*
X005522Y018369D02*
X006290Y018369D01*
X007171Y018228D02*
X007939Y018228D01*
X007939Y020196D02*
X007171Y020196D01*
X006290Y020337D02*
X005522Y020337D01*
X007171Y022165D02*
X007939Y022165D01*
X006290Y022369D02*
X005522Y022369D01*
X005522Y024337D02*
X006290Y024337D01*
X007171Y024133D02*
X007939Y024133D01*
X034009Y023286D02*
X034776Y023286D01*
X035572Y023369D02*
X036340Y023369D01*
X036340Y025337D02*
X035572Y025337D01*
X034776Y025254D02*
X034009Y025254D01*
X034009Y021317D02*
X034776Y021317D01*
X035572Y021337D02*
X036340Y021337D01*
X036340Y019369D02*
X035572Y019369D01*
X034776Y019349D02*
X034009Y019349D01*
X034009Y017341D02*
X034776Y017341D01*
X035572Y017337D02*
X036340Y017337D01*
X036340Y015369D02*
X035572Y015369D01*
X034776Y015372D02*
X034009Y015372D01*
X034009Y013404D02*
X034776Y013404D01*
X035572Y013337D02*
X036340Y013337D01*
X036340Y011369D02*
X035572Y011369D01*
X034776Y011435D02*
X034009Y011435D01*
X007934Y004500D02*
X007166Y004500D01*
X006290Y004337D02*
X005522Y004337D01*
X006170Y005350D02*
X006938Y005350D01*
X006938Y003086D02*
X006170Y003086D01*
X007166Y002532D02*
X007934Y002532D01*
X006290Y002369D02*
X005522Y002369D01*
D13*
X034379Y006463D02*
X034973Y006463D01*
X036939Y006463D02*
X037533Y006463D01*
X037533Y008243D02*
X036939Y008243D01*
X034973Y008243D02*
X034379Y008243D01*
D14*
X033094Y007353D03*
X035956Y004853D03*
X033094Y004353D03*
X026156Y005415D03*
X026156Y007415D03*
X026531Y010853D03*
X027531Y010853D03*
X027656Y011453D03*
X029031Y010853D03*
X031281Y010853D03*
X032281Y010853D03*
X027531Y013103D03*
X027531Y014978D03*
X026531Y014978D03*
X027656Y015578D03*
X029031Y014978D03*
X031281Y014978D03*
X032281Y014978D03*
X027531Y017228D03*
X027531Y019103D03*
X027656Y019703D03*
X026531Y019103D03*
X029031Y019103D03*
X031281Y019103D03*
X032281Y019103D03*
X027531Y021353D03*
X027531Y023228D03*
X026531Y023228D03*
X027656Y023828D03*
X029031Y023228D03*
X031281Y023228D03*
X032281Y023228D03*
X027531Y025478D03*
X015406Y025415D03*
X014406Y025415D03*
X014281Y024815D03*
X012906Y025415D03*
X010656Y025415D03*
X009656Y025415D03*
X014406Y023165D03*
X014406Y021290D03*
X014281Y020690D03*
X015406Y021290D03*
X012906Y021290D03*
X010656Y021290D03*
X009656Y021290D03*
X014406Y019040D03*
X014406Y017165D03*
X015406Y017165D03*
X014281Y016565D03*
X012906Y017165D03*
X010656Y017165D03*
X009656Y017165D03*
X014406Y014915D03*
X014406Y013040D03*
X014281Y012440D03*
X015406Y013040D03*
X012906Y013040D03*
X010656Y013040D03*
X009656Y013040D03*
X014406Y010790D03*
X010219Y006790D03*
X008219Y006790D03*
X017306Y006165D03*
D15*
X016506Y006165D03*
X015406Y010790D03*
X014281Y011640D03*
X011906Y013040D03*
X015406Y014915D03*
X014281Y015765D03*
X011906Y017165D03*
X015406Y019040D03*
X014281Y019890D03*
X011906Y021290D03*
X015406Y023165D03*
X014281Y024015D03*
X011906Y025415D03*
X026531Y025478D03*
X027656Y024628D03*
X030031Y023228D03*
X026531Y021353D03*
X027656Y020503D03*
X030031Y019103D03*
X026531Y017228D03*
X027656Y016378D03*
X030031Y014978D03*
X026531Y013103D03*
X027656Y012253D03*
X030031Y010853D03*
X035956Y005853D03*
D16*
X016406Y003853D03*
D17*
X017406Y003853D03*
X018406Y003853D03*
X019406Y003853D03*
X020406Y003853D03*
X021406Y003853D03*
X022406Y003853D03*
X023406Y003853D03*
X024406Y003853D03*
X025406Y003853D03*
X025406Y002853D03*
X024406Y002853D03*
X023406Y002853D03*
X022406Y002853D03*
X021406Y002853D03*
X020406Y002853D03*
X019406Y002853D03*
X018406Y002853D03*
X017406Y002853D03*
X016406Y002853D03*
X012781Y011040D03*
X009781Y011040D03*
X009781Y015165D03*
X012781Y015165D03*
X012781Y019290D03*
X009781Y019290D03*
X009781Y023415D03*
X012781Y023415D03*
X029156Y025228D03*
X032156Y025228D03*
X032156Y021103D03*
X029156Y021103D03*
X029156Y016978D03*
X032156Y016978D03*
X032156Y012853D03*
X029156Y012853D03*
D18*
X025808Y012853D02*
X025254Y012853D01*
X025254Y011853D02*
X025808Y011853D01*
X025808Y010853D02*
X025254Y010853D01*
X022808Y010853D02*
X022254Y010853D01*
X022254Y011853D02*
X022808Y011853D01*
X022808Y012853D02*
X022254Y012853D01*
X019683Y013040D02*
X019129Y013040D01*
X019129Y012040D02*
X019683Y012040D01*
X019683Y011040D02*
X019129Y011040D01*
X016683Y011040D02*
X016129Y011040D01*
X016129Y012040D02*
X016683Y012040D01*
X016683Y013040D02*
X016129Y013040D01*
X016129Y015165D02*
X016683Y015165D01*
X016683Y016165D02*
X016129Y016165D01*
X016129Y017165D02*
X016683Y017165D01*
X019129Y017165D02*
X019683Y017165D01*
X019683Y016165D02*
X019129Y016165D01*
X019129Y015165D02*
X019683Y015165D01*
X022254Y014978D02*
X022808Y014978D01*
X022808Y015978D02*
X022254Y015978D01*
X022254Y016978D02*
X022808Y016978D01*
X025254Y016978D02*
X025808Y016978D01*
X025808Y015978D02*
X025254Y015978D01*
X025254Y014978D02*
X025808Y014978D01*
X025808Y019103D02*
X025254Y019103D01*
X025254Y020103D02*
X025808Y020103D01*
X025808Y021103D02*
X025254Y021103D01*
X022808Y021103D02*
X022254Y021103D01*
X022254Y020103D02*
X022808Y020103D01*
X022808Y019103D02*
X022254Y019103D01*
X019683Y019290D02*
X019129Y019290D01*
X019129Y020290D02*
X019683Y020290D01*
X019683Y021290D02*
X019129Y021290D01*
X016683Y021290D02*
X016129Y021290D01*
X016129Y020290D02*
X016683Y020290D01*
X016683Y019290D02*
X016129Y019290D01*
X016129Y023415D02*
X016683Y023415D01*
X016683Y024415D02*
X016129Y024415D01*
X016129Y025415D02*
X016683Y025415D01*
X019129Y025415D02*
X019683Y025415D01*
X019683Y024415D02*
X019129Y024415D01*
X019129Y023415D02*
X019683Y023415D01*
X022254Y023228D02*
X022808Y023228D01*
X022808Y024228D02*
X022254Y024228D01*
X022254Y025228D02*
X022808Y025228D01*
X025254Y025228D02*
X025808Y025228D01*
X025808Y024228D02*
X025254Y024228D01*
X025254Y023228D02*
X025808Y023228D01*
X022996Y009165D02*
X022441Y009165D01*
X022441Y008165D02*
X022996Y008165D01*
X022996Y007165D02*
X022441Y007165D01*
X022441Y006165D02*
X022996Y006165D01*
X022996Y005165D02*
X022441Y005165D01*
X019246Y005165D02*
X018691Y005165D01*
X018691Y006165D02*
X019246Y006165D01*
X019246Y007165D02*
X018691Y007165D01*
X018691Y008165D02*
X019246Y008165D01*
X019246Y009165D02*
X018691Y009165D01*
X014433Y006790D02*
X013879Y006790D01*
X013879Y005790D02*
X014433Y005790D01*
X014433Y004790D02*
X013879Y004790D01*
X013879Y003790D02*
X014433Y003790D01*
X014433Y002790D02*
X013879Y002790D01*
X013879Y001790D02*
X014433Y001790D01*
X014433Y000790D02*
X013879Y000790D01*
X011433Y000790D02*
X010879Y000790D01*
X010879Y001790D02*
X011433Y001790D01*
X011433Y002790D02*
X010879Y002790D01*
X010879Y003790D02*
X011433Y003790D01*
X011433Y004790D02*
X010879Y004790D01*
X010879Y005790D02*
X011433Y005790D01*
X011433Y006790D02*
X010879Y006790D01*
X027441Y006790D02*
X027996Y006790D01*
X027996Y005790D02*
X027441Y005790D01*
X027441Y004790D02*
X027996Y004790D01*
X027996Y003790D02*
X027441Y003790D01*
X027441Y002790D02*
X027996Y002790D01*
X027996Y001790D02*
X027441Y001790D01*
X027441Y000790D02*
X027996Y000790D01*
X030441Y000790D02*
X030996Y000790D01*
X030996Y001790D02*
X030441Y001790D01*
X030441Y002790D02*
X030996Y002790D01*
X030996Y003790D02*
X030441Y003790D01*
X030441Y004790D02*
X030996Y004790D01*
X030996Y005790D02*
X030441Y005790D01*
X030441Y006790D02*
X030996Y006790D01*
D19*
X031281Y010853D02*
X030031Y010853D01*
X029031Y010853D02*
X027656Y010853D01*
X027656Y011453D01*
X027656Y010853D02*
X027531Y010853D01*
X027656Y012253D02*
X028556Y012253D01*
X029156Y012853D01*
X027656Y012253D02*
X027131Y012253D01*
X026531Y012853D01*
X026531Y013103D01*
X027531Y014978D02*
X027656Y014978D01*
X027656Y015578D01*
X027656Y014978D02*
X029031Y014978D01*
X030031Y014978D02*
X031281Y014978D01*
X032281Y014978D02*
X032676Y015372D01*
X034392Y015372D01*
X034392Y015353D01*
X034412Y015353D02*
X035906Y015353D01*
X035956Y015369D01*
X035956Y017337D02*
X035906Y017353D01*
X034404Y017353D01*
X034392Y017341D02*
X032519Y017341D01*
X032156Y016978D01*
X032281Y019103D02*
X032527Y019349D01*
X034392Y019349D01*
X034396Y019353D01*
X035906Y019353D01*
X035956Y019369D01*
X035956Y021337D02*
X035906Y021353D01*
X034428Y021353D01*
X034392Y021317D01*
X032433Y021317D01*
X032406Y021290D01*
X032406Y021317D01*
X032371Y021317D01*
X032156Y021103D01*
X031281Y019103D02*
X030094Y019103D01*
X029031Y019103D02*
X027719Y019103D01*
X027656Y019165D01*
X027656Y019703D01*
X027719Y019103D02*
X027531Y019103D01*
X027656Y020503D02*
X028556Y020503D01*
X029156Y021103D01*
X027656Y020503D02*
X027131Y020503D01*
X026531Y021103D01*
X026531Y021353D01*
X027531Y023228D02*
X027656Y023228D01*
X027656Y023828D01*
X027656Y023228D02*
X029031Y023228D01*
X030031Y023228D02*
X031281Y023228D01*
X032281Y023228D02*
X034344Y023228D01*
X034406Y023290D02*
X034469Y023353D01*
X035906Y023353D01*
X035956Y023369D01*
X035956Y025337D02*
X035906Y025353D01*
X034491Y025353D01*
X034392Y025254D01*
X032183Y025254D01*
X029156Y025228D02*
X028556Y024628D01*
X027656Y024628D01*
X027131Y024628D01*
X026531Y025228D01*
X026531Y025478D01*
X015406Y023415D02*
X015406Y023165D01*
X015406Y023415D02*
X014806Y024015D01*
X014281Y024015D01*
X013381Y024015D01*
X012781Y023415D01*
X014281Y024815D02*
X014281Y025415D01*
X014406Y025415D01*
X014281Y025415D02*
X012906Y025415D01*
X011906Y025415D02*
X010656Y025415D01*
X009656Y025415D02*
X008844Y025415D01*
X007531Y024103D01*
X006844Y024103D01*
X006594Y024353D01*
X005922Y024353D01*
X005906Y024337D01*
X007531Y024103D02*
X007555Y024103D01*
X007555Y024133D01*
X008281Y022165D02*
X009531Y023415D01*
X009781Y023415D01*
X008281Y022165D02*
X007594Y022165D01*
X007555Y022165D01*
X006907Y022165D01*
X006719Y022353D01*
X005906Y022353D01*
X005906Y022369D01*
X007594Y022165D02*
X007594Y022165D01*
X008562Y020196D02*
X009656Y021290D01*
X010656Y021290D02*
X011906Y021290D01*
X012906Y021290D02*
X014281Y021290D01*
X014281Y020690D01*
X014281Y021290D02*
X014406Y021290D01*
X014281Y019890D02*
X014806Y019890D01*
X015406Y019290D01*
X015406Y019040D01*
X014281Y019890D02*
X013381Y019890D01*
X012781Y019290D01*
X009781Y019290D02*
X009531Y019290D01*
X008469Y018228D01*
X007531Y018228D01*
X006844Y018228D01*
X006719Y018353D01*
X005906Y018353D01*
X005906Y018369D01*
X007531Y018228D02*
X007555Y018228D01*
X008769Y016278D02*
X009656Y017165D01*
X010656Y017165D02*
X011906Y017165D01*
X012906Y017165D02*
X014281Y017165D01*
X014281Y016565D01*
X014281Y017165D02*
X014406Y017165D01*
X014281Y015765D02*
X014806Y015765D01*
X015406Y015165D01*
X015406Y014915D01*
X014281Y015765D02*
X013381Y015765D01*
X012781Y015165D01*
X009781Y015165D02*
X008925Y014309D01*
X007554Y014309D01*
X007550Y014309D01*
X007531Y014290D01*
X005969Y014290D01*
X005906Y014353D01*
X005906Y014369D01*
X007531Y014309D02*
X007554Y014309D01*
X007531Y014309D02*
X007531Y014290D01*
X008938Y012322D02*
X009656Y013040D01*
X008938Y012322D02*
X007624Y012322D01*
X007594Y012353D01*
X007594Y012322D01*
X007555Y012322D01*
X005937Y012322D01*
X005906Y012353D01*
X005906Y012337D01*
X005906Y010369D02*
X005906Y010353D01*
X007554Y010353D01*
X007555Y010354D02*
X007532Y010354D01*
X007531Y010353D01*
X007531Y010354D01*
X007555Y010354D01*
X009095Y010354D01*
X009781Y011040D01*
X010656Y013040D02*
X011906Y013040D01*
X012906Y013040D02*
X014281Y013040D01*
X014281Y012440D01*
X014281Y013040D02*
X014406Y013040D01*
X014281Y011640D02*
X014806Y011640D01*
X015406Y011040D01*
X015406Y010790D01*
X014281Y011640D02*
X013381Y011640D01*
X012781Y011040D01*
X008769Y016278D02*
X007554Y016278D01*
X005918Y016278D01*
X005906Y016290D01*
X005906Y016337D01*
X005906Y020290D02*
X006719Y020290D01*
X006813Y020196D01*
X007555Y020196D01*
X008562Y020196D01*
X005906Y020290D02*
X005906Y020337D01*
X026531Y017228D02*
X026531Y016978D01*
X027131Y016378D01*
X027656Y016378D01*
X028556Y016378D01*
X029156Y016978D01*
X032707Y013404D02*
X034392Y013404D01*
X034444Y013353D01*
X035906Y013353D01*
X035956Y013337D01*
X035956Y011369D02*
X035906Y011353D01*
X034475Y011353D01*
X034392Y011435D01*
X032864Y011435D01*
X032281Y010853D01*
X032156Y012853D02*
X032707Y013404D01*
X009094Y004103D02*
X008696Y004500D01*
X007550Y004500D01*
X007527Y004478D01*
X006719Y004478D01*
X006594Y004353D01*
X005906Y004353D01*
X005906Y004337D01*
X006554Y004643D02*
X006719Y004478D01*
X006554Y004643D02*
X006554Y005350D01*
D20*
X007554Y010353D02*
X007555Y010354D01*
X034392Y015372D02*
X034412Y015353D01*
X034392Y017341D02*
X034404Y017353D01*
D21*
X005612Y001635D02*
X004401Y001635D01*
X004401Y007229D01*
X004832Y007233D01*
X004832Y007131D01*
X004832Y006953D01*
X004832Y006835D01*
X004832Y006658D01*
X004832Y006540D01*
X004877Y006432D01*
X004960Y006349D01*
X005068Y006304D01*
X005481Y006304D01*
X005527Y006323D01*
X005589Y006349D01*
X005589Y006349D01*
X005591Y006350D01*
X005646Y006406D01*
X005703Y006349D01*
X005811Y006304D01*
X006008Y006304D01*
X006125Y006304D01*
X006125Y006304D01*
X006169Y006322D01*
X006234Y006349D01*
X006349Y006464D01*
X006363Y006432D01*
X006446Y006349D01*
X006554Y006304D01*
X006672Y006304D01*
X006780Y006349D01*
X006863Y006432D01*
X006908Y006540D01*
X006908Y006911D01*
X006977Y006939D01*
X007060Y007022D01*
X007105Y007131D01*
X007105Y007248D01*
X007101Y007256D01*
X007355Y007258D01*
X007405Y007237D01*
X007507Y007237D01*
X007562Y007261D01*
X010531Y007290D01*
X010531Y007853D01*
X012829Y007853D01*
X012412Y007437D01*
X012412Y007437D01*
X012322Y007347D01*
X012274Y007229D01*
X012274Y006298D01*
X012086Y006110D01*
X011788Y006110D01*
X011704Y006195D01*
X011528Y006267D01*
X010784Y006267D01*
X010609Y006195D01*
X010474Y006061D01*
X010402Y005885D01*
X010402Y005695D01*
X010437Y005610D01*
X009842Y005610D01*
X009725Y005562D01*
X009635Y005472D01*
X009635Y005471D01*
X009385Y005222D01*
X009336Y005104D01*
X009336Y004977D01*
X009336Y004617D01*
X009315Y004638D01*
X009251Y004638D01*
X008974Y004916D01*
X008793Y004990D01*
X008599Y004990D01*
X008269Y004990D01*
X008264Y004995D01*
X008050Y005084D01*
X007460Y005084D01*
X007521Y005233D01*
X007521Y005466D01*
X007432Y005680D01*
X007268Y005845D01*
X007054Y005933D01*
X006054Y005933D01*
X005839Y005845D01*
X005675Y005680D01*
X005586Y005466D01*
X005586Y005233D01*
X005675Y005019D01*
X005773Y004921D01*
X005406Y004921D01*
X005192Y004832D01*
X005027Y004668D01*
X004938Y004453D01*
X004938Y004221D01*
X005027Y004006D01*
X005192Y003842D01*
X005406Y003753D01*
X006406Y003753D01*
X006621Y003842D01*
X006641Y003863D01*
X006691Y003863D01*
X006871Y003937D01*
X006909Y003975D01*
X007050Y003917D01*
X008050Y003917D01*
X008264Y004005D01*
X008269Y004010D01*
X008493Y004010D01*
X008558Y003945D01*
X008558Y003881D01*
X008872Y003567D01*
X009315Y003567D01*
X009465Y003717D01*
X009787Y003394D01*
X009905Y003345D01*
X010032Y003345D01*
X010595Y003345D01*
X010651Y003368D01*
X010784Y003313D01*
X011528Y003313D01*
X011704Y003386D01*
X011838Y003520D01*
X011910Y003695D01*
X011910Y003885D01*
X011875Y003970D01*
X013437Y003970D01*
X013402Y003885D01*
X013402Y003695D01*
X013474Y003520D01*
X013609Y003386D01*
X013784Y003313D01*
X014528Y003313D01*
X014704Y003386D01*
X014838Y003520D01*
X014910Y003695D01*
X014910Y003885D01*
X014875Y003970D01*
X015836Y003970D01*
X015909Y003897D01*
X015909Y003473D01*
X016026Y003356D01*
X016700Y003356D01*
X016725Y003331D01*
X016954Y003103D01*
X016909Y003059D01*
X016909Y002647D01*
X017086Y002470D01*
X017086Y002089D01*
X016836Y001839D01*
X016836Y001367D01*
X016905Y001298D01*
X016539Y001298D01*
X016101Y001735D01*
X016101Y001977D01*
X016101Y002104D01*
X016052Y002222D01*
X015802Y002472D01*
X015712Y002562D01*
X015595Y002610D01*
X014853Y002610D01*
X014890Y002699D01*
X014890Y002782D01*
X014165Y002782D01*
X014165Y002799D01*
X014890Y002799D01*
X014890Y002881D01*
X014821Y003049D01*
X014692Y003178D01*
X014524Y003247D01*
X014165Y003247D01*
X014165Y002799D01*
X014147Y002799D01*
X013422Y002799D01*
X013422Y002881D01*
X013491Y003049D01*
X013620Y003178D01*
X013788Y003247D01*
X014147Y003247D01*
X014147Y002799D01*
X014147Y002782D01*
X013422Y002782D01*
X013422Y002699D01*
X013459Y002610D01*
X013226Y002610D01*
X012865Y002972D01*
X012775Y003062D01*
X012657Y003110D01*
X011788Y003110D01*
X011704Y003195D01*
X011528Y003267D01*
X010784Y003267D01*
X010609Y003195D01*
X010474Y003061D01*
X010402Y002885D01*
X010402Y002695D01*
X010474Y002520D01*
X010609Y002386D01*
X010784Y002313D01*
X011528Y002313D01*
X011704Y002386D01*
X011788Y002470D01*
X012461Y002470D01*
X012912Y002019D01*
X013030Y001970D01*
X013157Y001970D01*
X013437Y001970D01*
X013402Y001885D01*
X013402Y001695D01*
X013437Y001610D01*
X013030Y001610D01*
X012912Y001562D01*
X012822Y001472D01*
X012461Y001110D01*
X011788Y001110D01*
X011704Y001195D01*
X011528Y001267D01*
X010784Y001267D01*
X010609Y001195D01*
X010474Y001061D01*
X010402Y000885D01*
X010402Y000695D01*
X010474Y000520D01*
X010609Y000386D01*
X010615Y000383D01*
X005836Y000383D01*
X005836Y001299D01*
X005836Y001410D01*
X005794Y001513D01*
X005715Y001592D01*
X005612Y001635D01*
X005645Y001621D02*
X010433Y001621D01*
X010402Y001695D02*
X010402Y001885D01*
X010474Y002061D01*
X010609Y002195D01*
X010784Y002267D01*
X011528Y002267D01*
X011704Y002195D01*
X011838Y002061D01*
X011910Y001885D01*
X011910Y001695D01*
X011838Y001520D01*
X011704Y001386D01*
X011528Y001313D01*
X010784Y001313D01*
X010609Y001386D01*
X010474Y001520D01*
X010402Y001695D01*
X010402Y001780D02*
X004401Y001780D01*
X004401Y001938D02*
X005155Y001938D01*
X005203Y001890D02*
X005044Y002049D01*
X004958Y002256D01*
X004958Y002320D01*
X005858Y002320D01*
X005858Y001805D01*
X005410Y001805D01*
X005203Y001890D01*
X005025Y002097D02*
X004401Y002097D01*
X004401Y002255D02*
X004959Y002255D01*
X004958Y002416D02*
X004958Y002481D01*
X005044Y002688D01*
X005203Y002846D01*
X005410Y002932D01*
X005623Y002932D01*
X005606Y002974D01*
X005606Y003038D01*
X006505Y003038D01*
X006505Y003134D01*
X005606Y003134D01*
X005606Y003198D01*
X005692Y003405D01*
X005850Y003564D01*
X006058Y003650D01*
X006506Y003650D01*
X006506Y003134D01*
X006602Y003134D01*
X006602Y003038D01*
X006914Y003038D01*
X007054Y003096D01*
X007502Y003096D01*
X007502Y002580D01*
X007598Y002580D01*
X007598Y003096D01*
X008046Y003096D01*
X008253Y003010D01*
X008412Y002851D01*
X008498Y002644D01*
X008498Y002580D01*
X007598Y002580D01*
X007598Y002484D01*
X008498Y002484D01*
X008498Y002420D01*
X008412Y002212D01*
X008253Y002054D01*
X008046Y001968D01*
X007598Y001968D01*
X007598Y002484D01*
X007502Y002484D01*
X007502Y001968D01*
X007054Y001968D01*
X006847Y002054D01*
X006792Y002108D01*
X006768Y002049D01*
X006609Y001890D01*
X006402Y001805D01*
X005954Y001805D01*
X005954Y002320D01*
X005858Y002320D01*
X005858Y002416D01*
X004958Y002416D01*
X004996Y002572D02*
X004401Y002572D01*
X004401Y002414D02*
X005858Y002414D01*
X005858Y002255D02*
X005954Y002255D01*
X005954Y002097D02*
X005858Y002097D01*
X005858Y001938D02*
X005954Y001938D01*
X005815Y001463D02*
X010532Y001463D01*
X010559Y001145D02*
X005836Y001145D01*
X005836Y000987D02*
X010444Y000987D01*
X010402Y000828D02*
X005836Y000828D01*
X005836Y000670D02*
X010412Y000670D01*
X010483Y000511D02*
X005836Y000511D01*
X005836Y001304D02*
X012655Y001304D01*
X012813Y001463D02*
X011780Y001463D01*
X011880Y001621D02*
X013433Y001621D01*
X013402Y001780D02*
X011910Y001780D01*
X011888Y001938D02*
X013424Y001938D01*
X013094Y002290D02*
X012594Y002790D01*
X011156Y002790D01*
X010637Y003207D02*
X007498Y003207D01*
X007501Y003198D02*
X007416Y003405D01*
X007257Y003564D01*
X007050Y003650D01*
X006602Y003650D01*
X006602Y003134D01*
X007501Y003134D01*
X007501Y003198D01*
X007502Y003048D02*
X007598Y003048D01*
X007598Y002889D02*
X007502Y002889D01*
X007502Y002731D02*
X007598Y002731D01*
X007598Y002572D02*
X010453Y002572D01*
X010402Y002731D02*
X008462Y002731D01*
X008374Y002889D02*
X010404Y002889D01*
X010469Y003048D02*
X008161Y003048D01*
X008495Y002414D02*
X010581Y002414D01*
X010755Y002255D02*
X008429Y002255D01*
X008296Y002097D02*
X010511Y002097D01*
X010424Y001938D02*
X006657Y001938D01*
X006788Y002097D02*
X006804Y002097D01*
X007502Y002097D02*
X007598Y002097D01*
X007598Y002255D02*
X007502Y002255D01*
X007502Y002414D02*
X007598Y002414D01*
X006939Y003048D02*
X006602Y003048D01*
X006505Y003048D02*
X004401Y003048D01*
X004401Y003207D02*
X005609Y003207D01*
X005675Y003365D02*
X004401Y003365D01*
X004401Y003524D02*
X005810Y003524D01*
X005195Y003841D02*
X004401Y003841D01*
X004401Y003999D02*
X005034Y003999D01*
X004965Y004158D02*
X004401Y004158D01*
X004401Y004316D02*
X004938Y004316D01*
X004947Y004475D02*
X004401Y004475D01*
X004401Y004633D02*
X005013Y004633D01*
X005152Y004792D02*
X004401Y004792D01*
X004401Y004951D02*
X005743Y004951D01*
X005638Y005109D02*
X004401Y005109D01*
X004401Y005268D02*
X005586Y005268D01*
X005586Y005426D02*
X004401Y005426D01*
X004401Y005585D02*
X005635Y005585D01*
X005738Y005743D02*
X004401Y005743D01*
X004401Y005902D02*
X005977Y005902D01*
X006263Y006377D02*
X006417Y006377D01*
X006809Y006377D02*
X007985Y006377D01*
X008029Y006333D02*
X007762Y006601D01*
X007762Y006782D01*
X008210Y006782D01*
X008210Y006799D01*
X008227Y006799D01*
X008227Y007247D01*
X008408Y007247D01*
X008676Y006980D01*
X008676Y006799D01*
X008228Y006799D01*
X008228Y006782D01*
X008676Y006782D01*
X008676Y006601D01*
X008408Y006333D01*
X008227Y006333D01*
X008227Y006781D01*
X008210Y006781D01*
X008210Y006333D01*
X008029Y006333D01*
X008210Y006377D02*
X008227Y006377D01*
X008227Y006536D02*
X008210Y006536D01*
X008227Y006694D02*
X008210Y006694D01*
X008210Y006799D02*
X007762Y006799D01*
X007762Y006980D01*
X008029Y007247D01*
X008210Y007247D01*
X008210Y006799D01*
X008210Y006853D02*
X008227Y006853D01*
X008227Y007012D02*
X008210Y007012D01*
X008227Y007170D02*
X008210Y007170D01*
X007952Y007170D02*
X007105Y007170D01*
X007049Y007012D02*
X007794Y007012D01*
X007762Y006853D02*
X006908Y006853D01*
X006908Y006694D02*
X007762Y006694D01*
X007826Y006536D02*
X006906Y006536D01*
X007130Y005902D02*
X010409Y005902D01*
X010402Y005743D02*
X007370Y005743D01*
X007472Y005585D02*
X009781Y005585D01*
X009589Y005426D02*
X007521Y005426D01*
X007521Y005268D02*
X009431Y005268D01*
X009338Y005109D02*
X007470Y005109D01*
X008890Y004951D02*
X009336Y004951D01*
X009336Y004792D02*
X009097Y004792D01*
X009320Y004633D02*
X009336Y004633D01*
X009656Y005040D02*
X009906Y005290D01*
X012719Y005290D01*
X013219Y005790D01*
X013219Y006853D01*
X013719Y007353D01*
X015531Y007353D01*
X015656Y007478D01*
X017656Y007478D01*
X018344Y008165D01*
X019031Y008165D01*
X018969Y008165D01*
X018969Y007165D02*
X018281Y007165D01*
X018219Y007103D01*
X015844Y007103D01*
X015531Y006790D01*
X014156Y006790D01*
X014844Y006790D01*
X015156Y005790D02*
X016094Y006728D01*
X017656Y006728D01*
X017969Y006415D01*
X017969Y005915D01*
X018219Y005665D01*
X019781Y005665D01*
X020406Y005040D01*
X020406Y003853D01*
X019909Y003841D02*
X019903Y003841D01*
X019909Y003999D02*
X019903Y003999D01*
X019903Y004059D02*
X019903Y003647D01*
X019612Y003356D01*
X019487Y003356D01*
X019481Y003350D01*
X019612Y003350D01*
X019903Y003059D01*
X019903Y002647D01*
X019726Y002470D01*
X019726Y001938D01*
X019727Y001938D01*
X019726Y001938D02*
X020086Y002298D01*
X020086Y002470D01*
X019909Y002647D01*
X019909Y003059D01*
X020200Y003350D01*
X020612Y003350D01*
X020903Y003059D01*
X020903Y002647D01*
X020726Y002470D01*
X020726Y002366D01*
X020891Y002434D01*
X021122Y002434D01*
X020909Y002647D01*
X020909Y003059D01*
X021200Y003350D01*
X021612Y003350D01*
X021903Y003059D01*
X021903Y002647D01*
X021612Y002356D01*
X021410Y002356D01*
X021527Y002307D01*
X021761Y002074D01*
X021887Y001768D01*
X021887Y001437D01*
X021761Y001132D01*
X021527Y000898D01*
X021221Y000772D01*
X020891Y000772D01*
X020585Y000898D01*
X020352Y001132D01*
X020225Y001437D01*
X020225Y001532D01*
X019077Y000384D01*
X027175Y000384D01*
X027171Y000386D01*
X027087Y000470D01*
X023907Y000470D01*
X023780Y000470D01*
X023662Y000519D01*
X022225Y001956D01*
X022135Y002046D01*
X022086Y002164D01*
X022086Y002470D01*
X021909Y002647D01*
X021909Y003059D01*
X022200Y003350D01*
X022612Y003350D01*
X022903Y003059D01*
X022903Y002647D01*
X022726Y002470D01*
X022726Y002360D01*
X023086Y002000D01*
X023086Y002470D01*
X022909Y002647D01*
X022909Y003059D01*
X023200Y003350D01*
X023612Y003350D01*
X023903Y003059D01*
X023903Y002647D01*
X023726Y002470D01*
X023726Y002173D01*
X024289Y001610D01*
X027000Y001610D01*
X026964Y001695D01*
X026964Y001885D01*
X027037Y002061D01*
X027171Y002195D01*
X027347Y002267D01*
X028091Y002267D01*
X028266Y002195D01*
X028343Y002117D01*
X029696Y003470D01*
X029532Y003470D01*
X029405Y003470D01*
X029405Y003470D01*
X029343Y003470D01*
X029342Y003470D01*
X029225Y003519D01*
X029135Y003609D01*
X028787Y003957D01*
X028774Y003970D01*
X028416Y003970D01*
X028453Y003881D01*
X028453Y003799D01*
X027728Y003799D01*
X027728Y003782D01*
X028453Y003782D01*
X028453Y003699D01*
X028383Y003531D01*
X028255Y003403D01*
X028087Y003333D01*
X027727Y003333D01*
X027727Y003781D01*
X027710Y003781D01*
X027710Y003333D01*
X027351Y003333D01*
X027183Y003403D01*
X027054Y003531D01*
X026984Y003699D01*
X026984Y003782D01*
X027710Y003782D01*
X027710Y003799D01*
X026984Y003799D01*
X026984Y003881D01*
X027021Y003970D01*
X026220Y003970D01*
X026092Y003970D01*
X025975Y004019D01*
X025524Y004470D01*
X024476Y004470D01*
X024355Y004350D01*
X024612Y004350D01*
X024903Y004059D01*
X024903Y003647D01*
X024612Y003356D01*
X024200Y003356D01*
X023909Y003647D01*
X023909Y003903D01*
X023903Y003897D01*
X023903Y003647D01*
X023612Y003356D01*
X023200Y003356D01*
X022909Y003647D01*
X022909Y004059D01*
X023200Y004350D01*
X023450Y004350D01*
X024072Y004971D01*
X024072Y004972D01*
X024154Y005054D01*
X024162Y005062D01*
X024280Y005110D01*
X024407Y005110D01*
X025720Y005110D01*
X025834Y005063D01*
X025679Y005218D01*
X025679Y005613D01*
X025724Y005658D01*
X025592Y005658D01*
X025101Y005658D01*
X024927Y005484D01*
X024837Y005394D01*
X024720Y005345D01*
X023438Y005345D01*
X023473Y005260D01*
X023473Y005070D01*
X023400Y004895D01*
X023266Y004761D01*
X023091Y004688D01*
X022347Y004688D01*
X022221Y004740D01*
X022612Y004350D01*
X022903Y004059D01*
X022903Y003647D01*
X022612Y003356D01*
X022200Y003356D01*
X021909Y003647D01*
X021909Y004059D01*
X021954Y004103D01*
X021475Y004581D01*
X021385Y004671D01*
X021336Y004789D01*
X021336Y005289D01*
X021336Y005416D01*
X021385Y005534D01*
X021697Y005847D01*
X021787Y005937D01*
X021876Y005973D01*
X020992Y006857D01*
X020992Y006857D01*
X020910Y006938D01*
X020871Y007033D01*
X019824Y005985D01*
X019845Y005985D01*
X019962Y005937D01*
X020052Y005847D01*
X020587Y005312D01*
X020677Y005222D01*
X020726Y005104D01*
X020726Y004235D01*
X020903Y004059D01*
X020903Y003647D01*
X020612Y003356D01*
X020200Y003356D01*
X019909Y003647D01*
X019909Y004059D01*
X020086Y004235D01*
X020086Y004908D01*
X019715Y005279D01*
X019723Y005260D01*
X019723Y005070D01*
X019650Y004895D01*
X019516Y004761D01*
X019341Y004688D01*
X018846Y004688D01*
X018846Y004115D01*
X018903Y004059D01*
X018903Y003677D01*
X018909Y003683D01*
X018909Y004059D01*
X019200Y004350D01*
X019612Y004350D01*
X019903Y004059D01*
X019804Y004158D02*
X020009Y004158D01*
X020086Y004316D02*
X019645Y004316D01*
X020086Y004475D02*
X018846Y004475D01*
X018846Y004633D02*
X020086Y004633D01*
X020086Y004792D02*
X019547Y004792D01*
X019673Y004951D02*
X020043Y004951D01*
X019885Y005109D02*
X019723Y005109D01*
X019726Y005268D02*
X019720Y005268D01*
X020156Y005743D02*
X021594Y005743D01*
X021436Y005585D02*
X020314Y005585D01*
X020473Y005426D02*
X021340Y005426D01*
X021336Y005268D02*
X020631Y005268D01*
X020724Y005109D02*
X021336Y005109D01*
X021336Y004951D02*
X020726Y004951D01*
X020726Y004792D02*
X021336Y004792D01*
X021423Y004633D02*
X020726Y004633D01*
X020726Y004475D02*
X021581Y004475D01*
X021612Y004350D02*
X021903Y004059D01*
X021903Y003647D01*
X021612Y003356D01*
X021200Y003356D01*
X020909Y003647D01*
X020909Y004059D01*
X021200Y004350D01*
X021612Y004350D01*
X021645Y004316D02*
X021740Y004316D01*
X021804Y004158D02*
X021899Y004158D01*
X021909Y003999D02*
X021903Y003999D01*
X021909Y003841D02*
X021903Y003841D01*
X021909Y003682D02*
X021903Y003682D01*
X021780Y003524D02*
X022033Y003524D01*
X022191Y003365D02*
X021621Y003365D01*
X021755Y003207D02*
X022057Y003207D01*
X021909Y003048D02*
X021903Y003048D01*
X021909Y002889D02*
X021903Y002889D01*
X021909Y002731D02*
X021903Y002731D01*
X021828Y002572D02*
X021984Y002572D01*
X022086Y002414D02*
X021670Y002414D01*
X021579Y002255D02*
X022086Y002255D01*
X022114Y002097D02*
X021738Y002097D01*
X021817Y001938D02*
X022243Y001938D01*
X022402Y001780D02*
X021883Y001780D01*
X021887Y001621D02*
X022560Y001621D01*
X022719Y001463D02*
X021887Y001463D01*
X021832Y001304D02*
X022877Y001304D01*
X023036Y001145D02*
X021766Y001145D01*
X021616Y000987D02*
X023194Y000987D01*
X023353Y000828D02*
X021359Y000828D01*
X020754Y000828D02*
X019522Y000828D01*
X019363Y000670D02*
X023511Y000670D01*
X023681Y000511D02*
X019205Y000511D01*
X018844Y000603D02*
X020406Y002165D01*
X020406Y002853D01*
X020057Y003207D02*
X019755Y003207D01*
X019621Y003365D02*
X020191Y003365D01*
X020033Y003524D02*
X019780Y003524D01*
X019903Y003682D02*
X019909Y003682D01*
X020621Y003365D02*
X021191Y003365D01*
X021057Y003207D02*
X020755Y003207D01*
X020903Y003048D02*
X020909Y003048D01*
X020909Y002889D02*
X020903Y002889D01*
X020909Y002731D02*
X020903Y002731D01*
X020828Y002572D02*
X020984Y002572D01*
X020842Y002414D02*
X020726Y002414D01*
X020086Y002414D02*
X019726Y002414D01*
X019726Y002255D02*
X020044Y002255D01*
X019885Y002097D02*
X019726Y002097D01*
X019406Y001790D02*
X018594Y000978D01*
X018594Y000978D01*
X018594Y000978D01*
X016406Y000978D01*
X015781Y001603D01*
X015781Y002040D01*
X015531Y002290D01*
X013094Y002290D01*
X012835Y002097D02*
X011802Y002097D01*
X011557Y002255D02*
X012676Y002255D01*
X012518Y002414D02*
X011732Y002414D01*
X011675Y003207D02*
X013689Y003207D01*
X013659Y003365D02*
X011654Y003365D01*
X011839Y003524D02*
X013473Y003524D01*
X013407Y003682D02*
X011905Y003682D01*
X011910Y003841D02*
X013402Y003841D01*
X013459Y004610D02*
X013422Y004699D01*
X013422Y004782D01*
X014147Y004782D01*
X014147Y004799D01*
X013422Y004799D01*
X013422Y004881D01*
X013446Y004940D01*
X013116Y004610D01*
X013459Y004610D01*
X013449Y004633D02*
X013139Y004633D01*
X013298Y004792D02*
X014147Y004792D01*
X014165Y004792D02*
X016077Y004792D01*
X016032Y004610D02*
X016150Y004562D01*
X016240Y004472D01*
X016362Y004350D01*
X016519Y004350D01*
X015899Y004970D01*
X014853Y004970D01*
X014890Y004881D01*
X014890Y004799D01*
X014165Y004799D01*
X014165Y004782D01*
X014890Y004782D01*
X014890Y004699D01*
X014853Y004610D01*
X016032Y004610D01*
X016235Y004633D02*
X014863Y004633D01*
X014862Y004951D02*
X015918Y004951D01*
X016031Y005290D02*
X013344Y005290D01*
X012844Y004790D01*
X011156Y004790D01*
X010219Y004290D02*
X015969Y004290D01*
X016406Y003853D01*
X015909Y003841D02*
X014910Y003841D01*
X014905Y003682D02*
X015909Y003682D01*
X015909Y003524D02*
X014839Y003524D01*
X014654Y003365D02*
X016017Y003365D01*
X016086Y003207D02*
X014623Y003207D01*
X014821Y003048D02*
X015929Y003048D01*
X015929Y003050D02*
X016209Y003330D01*
X016388Y003330D01*
X016388Y002871D01*
X016387Y002871D02*
X015929Y002871D01*
X015929Y003050D01*
X015929Y002889D02*
X014887Y002889D01*
X014890Y002731D02*
X015929Y002731D01*
X015929Y002655D02*
X015929Y002834D01*
X016387Y002834D01*
X016387Y002871D01*
X016388Y002871D02*
X016425Y002871D01*
X016425Y002834D01*
X016883Y002834D01*
X016883Y002655D01*
X016604Y002376D01*
X016425Y002376D01*
X016425Y002834D01*
X016388Y002834D01*
X016388Y002376D01*
X016209Y002376D01*
X015929Y002655D01*
X016012Y002572D02*
X015686Y002572D01*
X015860Y002414D02*
X016171Y002414D01*
X016388Y002414D02*
X016425Y002414D01*
X016425Y002572D02*
X016388Y002572D01*
X016388Y002731D02*
X016425Y002731D01*
X016425Y002871D02*
X016883Y002871D01*
X016883Y003050D01*
X016604Y003330D01*
X016425Y003330D01*
X016425Y002871D01*
X016425Y002889D02*
X016388Y002889D01*
X016388Y003048D02*
X016425Y003048D01*
X016425Y003207D02*
X016388Y003207D01*
X016727Y003207D02*
X016850Y003207D01*
X016883Y003048D02*
X016909Y003048D01*
X016909Y002889D02*
X016883Y002889D01*
X016883Y002731D02*
X016909Y002731D01*
X016984Y002572D02*
X016800Y002572D01*
X016642Y002414D02*
X017086Y002414D01*
X017086Y002255D02*
X016019Y002255D01*
X016101Y002097D02*
X017086Y002097D01*
X016936Y001938D02*
X016101Y001938D01*
X016101Y001780D02*
X016836Y001780D01*
X016836Y001621D02*
X016215Y001621D01*
X016374Y001463D02*
X016836Y001463D01*
X016899Y001304D02*
X016532Y001304D01*
X016219Y000603D02*
X018844Y000603D01*
X019680Y000987D02*
X020497Y000987D01*
X020346Y001145D02*
X019839Y001145D01*
X019997Y001304D02*
X020280Y001304D01*
X020225Y001463D02*
X020156Y001463D01*
X019406Y001790D02*
X019406Y002853D01*
X019903Y002889D02*
X019909Y002889D01*
X019909Y002731D02*
X019903Y002731D01*
X019828Y002572D02*
X019984Y002572D01*
X019909Y003048D02*
X019903Y003048D01*
X019406Y003728D02*
X019031Y003353D01*
X017156Y003353D01*
X016906Y003603D01*
X016906Y004415D01*
X016031Y005290D01*
X015156Y005790D02*
X014156Y005790D01*
X012594Y006165D02*
X012219Y005790D01*
X011156Y005790D01*
X011528Y006313D02*
X010784Y006313D01*
X010609Y006386D01*
X010549Y006446D01*
X010416Y006313D01*
X010021Y006313D01*
X009742Y006593D01*
X009742Y006988D01*
X010021Y007267D01*
X010416Y007267D01*
X010549Y007135D01*
X010609Y007195D01*
X010784Y007267D01*
X011528Y007267D01*
X011704Y007195D01*
X011838Y007061D01*
X011910Y006885D01*
X011910Y006695D01*
X011838Y006520D01*
X011704Y006386D01*
X011528Y006313D01*
X011645Y006219D02*
X012195Y006219D01*
X012274Y006377D02*
X011683Y006377D01*
X011844Y006536D02*
X012274Y006536D01*
X012274Y006694D02*
X011910Y006694D01*
X011910Y006853D02*
X012274Y006853D01*
X012274Y007012D02*
X011858Y007012D01*
X011728Y007170D02*
X012274Y007170D01*
X012315Y007329D02*
X010531Y007329D01*
X010531Y007487D02*
X012463Y007487D01*
X012622Y007646D02*
X010531Y007646D01*
X010531Y007804D02*
X012780Y007804D01*
X013281Y007853D02*
X012594Y007165D01*
X012594Y006165D01*
X010667Y006219D02*
X004401Y006219D01*
X004401Y006377D02*
X004931Y006377D01*
X004834Y006536D02*
X004401Y006536D01*
X004401Y006694D02*
X004832Y006694D01*
X004832Y006853D02*
X004401Y006853D01*
X004401Y007012D02*
X004832Y007012D01*
X004832Y007170D02*
X004401Y007170D01*
X005618Y006377D02*
X005674Y006377D01*
X004401Y006060D02*
X010474Y006060D01*
X010481Y006377D02*
X010629Y006377D01*
X009957Y006377D02*
X008452Y006377D01*
X008611Y006536D02*
X009798Y006536D01*
X009742Y006694D02*
X008676Y006694D01*
X008676Y006853D02*
X009742Y006853D01*
X009765Y007012D02*
X008644Y007012D01*
X008485Y007170D02*
X009924Y007170D01*
X010514Y007170D02*
X010584Y007170D01*
X013281Y007853D02*
X017031Y007853D01*
X018344Y009165D01*
X018344Y009165D01*
X018969Y009165D01*
X021781Y008068D02*
X021781Y007888D01*
X022135Y007534D01*
X022171Y007570D01*
X022347Y007642D01*
X023091Y007642D01*
X023266Y007570D01*
X023351Y007485D01*
X024532Y007485D01*
X024650Y007437D01*
X024740Y007347D01*
X024914Y007173D01*
X025752Y007173D01*
X025699Y007226D01*
X025699Y007407D01*
X026147Y007407D01*
X026147Y007424D01*
X025699Y007424D01*
X025699Y007595D01*
X024345Y007595D01*
X024217Y007595D01*
X024100Y007644D01*
X023899Y007845D01*
X023351Y007845D01*
X023266Y007761D01*
X023091Y007688D01*
X022347Y007688D01*
X022171Y007761D01*
X022057Y007875D01*
X022036Y007875D01*
X021929Y007919D01*
X021781Y008068D01*
X021781Y007963D02*
X021886Y007963D01*
X021865Y007804D02*
X022128Y007804D01*
X022023Y007646D02*
X024098Y007646D01*
X023940Y007804D02*
X023310Y007804D01*
X023349Y007487D02*
X025699Y007487D01*
X025699Y007329D02*
X024758Y007329D01*
X024469Y007165D02*
X022719Y007165D01*
X022719Y006165D02*
X024469Y006165D01*
X024781Y006478D01*
X026469Y006478D01*
X027156Y005790D01*
X027719Y005790D01*
X027156Y006290D02*
X028344Y006290D01*
X028594Y006040D01*
X028594Y005165D01*
X029469Y004290D01*
X031219Y004290D01*
X031656Y003853D01*
X031656Y003728D01*
X031219Y003290D01*
X029969Y003290D01*
X028469Y001790D01*
X028344Y001790D01*
X028344Y001790D01*
X027719Y001790D01*
X028120Y002255D02*
X028481Y002255D01*
X028640Y002414D02*
X028294Y002414D01*
X028266Y002386D02*
X028400Y002520D01*
X028473Y002695D01*
X028473Y002885D01*
X028400Y003061D01*
X028266Y003195D01*
X028091Y003267D01*
X027347Y003267D01*
X027171Y003195D01*
X027037Y003061D01*
X026964Y002885D01*
X026964Y002695D01*
X027037Y002520D01*
X027171Y002386D01*
X027347Y002313D01*
X028091Y002313D01*
X028266Y002386D01*
X028422Y002572D02*
X028798Y002572D01*
X028957Y002731D02*
X028473Y002731D01*
X028471Y002889D02*
X029115Y002889D01*
X029274Y003048D02*
X028406Y003048D01*
X028238Y003207D02*
X029432Y003207D01*
X029591Y003365D02*
X028164Y003365D01*
X028376Y003524D02*
X029220Y003524D01*
X029135Y003609D02*
X029135Y003609D01*
X029062Y003682D02*
X028446Y003682D01*
X028453Y003841D02*
X028903Y003841D01*
X028787Y003957D02*
X028787Y003957D01*
X028969Y004228D02*
X028906Y004290D01*
X026156Y004290D01*
X025656Y004790D01*
X024344Y004790D01*
X023406Y003853D01*
X022909Y003841D02*
X022903Y003841D01*
X022909Y003999D02*
X022903Y003999D01*
X022804Y004158D02*
X023009Y004158D01*
X023167Y004316D02*
X022645Y004316D01*
X022612Y004350D02*
X022612Y004350D01*
X022487Y004475D02*
X023576Y004475D01*
X023734Y004633D02*
X022328Y004633D01*
X022406Y004103D02*
X021656Y004853D01*
X021656Y005353D01*
X021969Y005665D01*
X024656Y005665D01*
X024969Y005978D01*
X025656Y005978D01*
X026406Y005978D01*
X026844Y005540D01*
X026844Y005103D01*
X027156Y004790D01*
X027719Y004790D01*
X026984Y003841D02*
X025903Y003841D01*
X025903Y003999D02*
X026023Y003999D01*
X025903Y004059D02*
X025903Y003647D01*
X025612Y003356D01*
X025200Y003356D01*
X024909Y003647D01*
X024909Y004059D01*
X025200Y004350D01*
X025612Y004350D01*
X025903Y004059D01*
X025836Y004158D02*
X025804Y004158D01*
X025678Y004316D02*
X025645Y004316D01*
X025167Y004316D02*
X024645Y004316D01*
X024804Y004158D02*
X025009Y004158D01*
X024909Y003999D02*
X024903Y003999D01*
X024909Y003841D02*
X024903Y003841D01*
X024909Y003682D02*
X024903Y003682D01*
X024780Y003524D02*
X025033Y003524D01*
X025191Y003365D02*
X024621Y003365D01*
X024612Y003350D02*
X024903Y003059D01*
X024903Y002647D01*
X024612Y002356D01*
X024200Y002356D01*
X023909Y002647D01*
X023909Y003059D01*
X024200Y003350D01*
X024612Y003350D01*
X024755Y003207D02*
X025057Y003207D01*
X025200Y003350D02*
X024909Y003059D01*
X024909Y002647D01*
X025200Y002356D01*
X025612Y002356D01*
X025903Y002647D01*
X025903Y003059D01*
X025612Y003350D01*
X025200Y003350D01*
X024909Y003048D02*
X024903Y003048D01*
X024909Y002889D02*
X024903Y002889D01*
X024909Y002731D02*
X024903Y002731D01*
X024828Y002572D02*
X024984Y002572D01*
X025142Y002414D02*
X024670Y002414D01*
X024142Y002414D02*
X023726Y002414D01*
X023726Y002255D02*
X027317Y002255D01*
X027143Y002414D02*
X025670Y002414D01*
X025828Y002572D02*
X027015Y002572D01*
X026964Y002731D02*
X025903Y002731D01*
X025903Y002889D02*
X026966Y002889D01*
X027032Y003048D02*
X025903Y003048D01*
X025755Y003207D02*
X027200Y003207D01*
X027273Y003365D02*
X025621Y003365D01*
X025780Y003524D02*
X027062Y003524D01*
X026991Y003682D02*
X025903Y003682D01*
X024191Y003365D02*
X023621Y003365D01*
X023755Y003207D02*
X024057Y003207D01*
X023909Y003048D02*
X023903Y003048D01*
X023909Y002889D02*
X023903Y002889D01*
X023909Y002731D02*
X023903Y002731D01*
X023828Y002572D02*
X023984Y002572D01*
X023802Y002097D02*
X027073Y002097D01*
X026986Y001938D02*
X023961Y001938D01*
X024119Y001780D02*
X026964Y001780D01*
X026995Y001621D02*
X024278Y001621D01*
X024156Y001290D02*
X023406Y002040D01*
X023406Y002853D01*
X023057Y003207D02*
X022755Y003207D01*
X022621Y003365D02*
X023191Y003365D01*
X023033Y003524D02*
X022780Y003524D01*
X022903Y003682D02*
X022909Y003682D01*
X022406Y003853D02*
X022406Y004103D01*
X023297Y004792D02*
X023893Y004792D01*
X024051Y004951D02*
X023423Y004951D01*
X023473Y005109D02*
X024277Y005109D01*
X024870Y005426D02*
X025679Y005426D01*
X025679Y005268D02*
X023470Y005268D01*
X024927Y005484D02*
X024927Y005484D01*
X025028Y005585D02*
X025679Y005585D01*
X025723Y005109D02*
X025788Y005109D01*
X025719Y005978D02*
X025656Y005978D01*
X024781Y006853D02*
X026594Y006853D01*
X027156Y006290D01*
X028473Y006885D02*
X028412Y007033D01*
X030047Y007033D01*
X029984Y006881D01*
X029984Y006799D01*
X030710Y006799D01*
X030710Y006782D01*
X029984Y006782D01*
X029984Y006699D01*
X030054Y006531D01*
X030183Y006403D01*
X030351Y006333D01*
X030710Y006333D01*
X030710Y006781D01*
X030727Y006781D01*
X030727Y006333D01*
X031087Y006333D01*
X031255Y006403D01*
X031274Y006422D01*
X031274Y006187D01*
X031266Y006195D01*
X031091Y006267D01*
X030347Y006267D01*
X030171Y006195D01*
X030037Y006061D01*
X029964Y005885D01*
X029964Y005695D01*
X030037Y005520D01*
X030171Y005386D01*
X030347Y005313D01*
X031091Y005313D01*
X031266Y005386D01*
X031274Y005393D01*
X031274Y005235D01*
X031243Y005204D01*
X031091Y005267D01*
X030347Y005267D01*
X030171Y005195D01*
X030037Y005061D01*
X029964Y004885D01*
X029964Y004695D01*
X030000Y004610D01*
X029601Y004610D01*
X028914Y005298D01*
X028914Y005977D01*
X028914Y006104D01*
X028865Y006222D01*
X028615Y006472D01*
X028525Y006562D01*
X028433Y006599D01*
X028473Y006695D01*
X028473Y006885D01*
X028473Y006853D02*
X029984Y006853D01*
X029986Y006694D02*
X028473Y006694D01*
X028551Y006536D02*
X030052Y006536D01*
X030244Y006377D02*
X028709Y006377D01*
X028866Y006219D02*
X030229Y006219D01*
X030037Y006060D02*
X028914Y006060D01*
X028914Y005902D02*
X029971Y005902D01*
X029964Y005743D02*
X028914Y005743D01*
X028914Y005585D02*
X030010Y005585D01*
X030131Y005426D02*
X028914Y005426D01*
X028944Y005268D02*
X031274Y005268D01*
X031594Y005103D02*
X031594Y006978D01*
X031219Y007353D01*
X027094Y007353D01*
X026531Y007915D01*
X024281Y007915D01*
X024031Y008165D01*
X022719Y008165D01*
X022719Y009165D02*
X022719Y009790D01*
X023344Y010415D01*
X023344Y011603D01*
X023094Y011853D01*
X022531Y011853D01*
X027851Y008228D02*
X027879Y008199D01*
X027879Y008048D01*
X031470Y008048D01*
X031587Y007999D01*
X031677Y007909D01*
X032427Y007159D01*
X032476Y007041D01*
X032476Y006914D01*
X032476Y003664D01*
X032427Y003546D01*
X032337Y003456D01*
X031400Y002519D01*
X031399Y002519D01*
X031266Y002386D01*
X031091Y002313D01*
X030347Y002313D01*
X030171Y002386D01*
X030037Y002520D01*
X029964Y002695D01*
X029964Y002833D01*
X029241Y002110D01*
X030087Y002110D01*
X030171Y002195D01*
X030347Y002267D01*
X031091Y002267D01*
X031266Y002195D01*
X031400Y002061D01*
X031473Y001885D01*
X031473Y001695D01*
X031400Y001520D01*
X031266Y001386D01*
X031091Y001313D01*
X030347Y001313D01*
X030171Y001386D01*
X030087Y001470D01*
X029289Y001470D01*
X028927Y001109D01*
X028837Y001019D01*
X028720Y000970D01*
X028438Y000970D01*
X028473Y000885D01*
X028473Y000695D01*
X028400Y000520D01*
X028266Y000386D01*
X028262Y000384D01*
X030227Y000384D01*
X030183Y000403D01*
X030054Y000531D01*
X029984Y000699D01*
X029984Y000782D01*
X030710Y000782D01*
X030710Y000799D01*
X030727Y000799D01*
X030727Y001247D01*
X031087Y001247D01*
X031255Y001178D01*
X031383Y001049D01*
X031453Y000881D01*
X031453Y000799D01*
X030728Y000799D01*
X030728Y000782D01*
X031453Y000782D01*
X031453Y000699D01*
X031383Y000531D01*
X031255Y000403D01*
X031210Y000384D01*
X037811Y000385D01*
X037811Y006067D01*
X037803Y006059D01*
X037628Y005986D01*
X037255Y005986D01*
X037255Y006444D01*
X037218Y006444D01*
X037218Y005986D01*
X036844Y005986D01*
X036669Y006059D01*
X036535Y006193D01*
X036462Y006368D01*
X036462Y006444D01*
X037217Y006444D01*
X037217Y006481D01*
X036462Y006481D01*
X036462Y006558D01*
X036535Y006733D01*
X036669Y006867D01*
X036844Y006940D01*
X037218Y006940D01*
X037218Y006481D01*
X037255Y006481D01*
X037255Y006940D01*
X037628Y006940D01*
X037803Y006867D01*
X037811Y006859D01*
X037811Y007820D01*
X037632Y007746D01*
X036840Y007746D01*
X036658Y007822D01*
X036557Y007923D01*
X036233Y007923D01*
X036269Y006215D01*
X036361Y006123D01*
X036433Y005948D01*
X036433Y005758D01*
X036361Y005582D01*
X036226Y005448D01*
X036051Y005376D01*
X035861Y005376D01*
X035686Y005448D01*
X035552Y005582D01*
X035479Y005758D01*
X035479Y005948D01*
X035552Y006123D01*
X035629Y006200D01*
X035593Y007923D01*
X035356Y007923D01*
X035254Y007822D01*
X035072Y007746D01*
X034280Y007746D01*
X034098Y007822D01*
X033958Y007961D01*
X033882Y008144D01*
X033882Y008228D01*
X027851Y008228D01*
X027879Y008121D02*
X033892Y008121D01*
X033957Y007963D02*
X031624Y007963D01*
X031782Y007804D02*
X032870Y007804D01*
X032896Y007830D02*
X033291Y007830D01*
X033571Y007550D01*
X033571Y007155D01*
X033291Y006876D01*
X032896Y006876D01*
X032616Y007155D01*
X032616Y007550D01*
X032896Y007830D01*
X032712Y007646D02*
X031941Y007646D01*
X032099Y007487D02*
X032616Y007487D01*
X032616Y007329D02*
X032258Y007329D01*
X032416Y007170D02*
X032616Y007170D01*
X032476Y007012D02*
X032760Y007012D01*
X032476Y006853D02*
X034095Y006853D01*
X034109Y006867D02*
X034284Y006940D01*
X034658Y006940D01*
X034658Y006481D01*
X034695Y006481D01*
X034695Y006444D01*
X035450Y006444D01*
X035450Y006368D01*
X035377Y006193D01*
X035243Y006059D01*
X035068Y005986D01*
X034695Y005986D01*
X034695Y006444D01*
X034658Y006444D01*
X034658Y005986D01*
X034284Y005986D01*
X034109Y006059D01*
X033975Y006193D01*
X033902Y006368D01*
X033902Y006444D01*
X034657Y006444D01*
X034657Y006481D01*
X033902Y006481D01*
X033902Y006558D01*
X033975Y006733D01*
X034109Y006867D01*
X033959Y006694D02*
X032476Y006694D01*
X032476Y006536D02*
X033902Y006536D01*
X033902Y006377D02*
X032476Y006377D01*
X032476Y006219D02*
X033964Y006219D01*
X034107Y006060D02*
X032476Y006060D01*
X032476Y005902D02*
X035479Y005902D01*
X035485Y005743D02*
X032476Y005743D01*
X032476Y005585D02*
X035551Y005585D01*
X035739Y005426D02*
X032476Y005426D01*
X032476Y005268D02*
X035696Y005268D01*
X035759Y005330D02*
X035601Y005173D01*
X033657Y005173D01*
X033530Y005173D01*
X033412Y005124D01*
X033118Y004830D01*
X032896Y004830D01*
X032616Y004550D01*
X032616Y004155D01*
X032896Y003876D01*
X033291Y003876D01*
X033571Y004155D01*
X033571Y004377D01*
X033726Y004533D01*
X035601Y004533D01*
X035759Y004376D01*
X036154Y004376D01*
X036433Y004655D01*
X036433Y005050D01*
X036154Y005330D01*
X035759Y005330D01*
X036173Y005426D02*
X037811Y005426D01*
X037811Y005268D02*
X036216Y005268D01*
X036375Y005109D02*
X037811Y005109D01*
X037811Y004951D02*
X036433Y004951D01*
X036433Y004792D02*
X037811Y004792D01*
X037811Y004633D02*
X036412Y004633D01*
X036253Y004475D02*
X037811Y004475D01*
X037811Y004316D02*
X033571Y004316D01*
X033571Y004158D02*
X037811Y004158D01*
X037811Y003999D02*
X033415Y003999D01*
X033094Y004353D02*
X033094Y004353D01*
X033594Y004853D01*
X035956Y004853D01*
X035659Y004475D02*
X033668Y004475D01*
X033239Y004951D02*
X032476Y004951D01*
X032476Y005109D02*
X033397Y005109D01*
X032858Y004792D02*
X032476Y004792D01*
X032476Y004633D02*
X032700Y004633D01*
X032616Y004475D02*
X032476Y004475D01*
X032476Y004316D02*
X032616Y004316D01*
X032616Y004158D02*
X032476Y004158D01*
X032476Y003999D02*
X032772Y003999D01*
X032476Y003841D02*
X037811Y003841D01*
X037811Y003682D02*
X032476Y003682D01*
X032405Y003524D02*
X037811Y003524D01*
X037811Y003365D02*
X032246Y003365D01*
X032088Y003207D02*
X037811Y003207D01*
X037811Y003048D02*
X031929Y003048D01*
X031770Y002889D02*
X037811Y002889D01*
X037811Y002731D02*
X031612Y002731D01*
X031453Y002572D02*
X037811Y002572D01*
X037811Y002414D02*
X031294Y002414D01*
X031120Y002255D02*
X037811Y002255D01*
X037811Y002097D02*
X031364Y002097D01*
X031451Y001938D02*
X037811Y001938D01*
X037811Y001780D02*
X031473Y001780D01*
X031442Y001621D02*
X037811Y001621D01*
X037811Y001463D02*
X031343Y001463D01*
X031287Y001145D02*
X037811Y001145D01*
X037811Y000987D02*
X031409Y000987D01*
X031453Y000828D02*
X037811Y000828D01*
X037811Y000670D02*
X031441Y000670D01*
X031363Y000511D02*
X037811Y000511D01*
X037811Y001304D02*
X029122Y001304D01*
X028964Y001145D02*
X030150Y001145D01*
X030183Y001178D02*
X030351Y001247D01*
X030710Y001247D01*
X030710Y000799D01*
X029984Y000799D01*
X029984Y000881D01*
X030054Y001049D01*
X030183Y001178D01*
X030028Y000987D02*
X028760Y000987D01*
X028656Y001290D02*
X024156Y001290D01*
X023844Y000790D02*
X022406Y002228D01*
X022406Y002853D01*
X022903Y002889D02*
X022909Y002889D01*
X022909Y002731D02*
X022903Y002731D01*
X022828Y002572D02*
X022984Y002572D01*
X023086Y002414D02*
X022726Y002414D01*
X022831Y002255D02*
X023086Y002255D01*
X023086Y002097D02*
X022990Y002097D01*
X022909Y003048D02*
X022903Y003048D01*
X023780Y003524D02*
X024033Y003524D01*
X023909Y003682D02*
X023903Y003682D01*
X023909Y003841D02*
X023903Y003841D01*
X021167Y004316D02*
X020726Y004316D01*
X020804Y004158D02*
X021009Y004158D01*
X020909Y003999D02*
X020903Y003999D01*
X020909Y003841D02*
X020903Y003841D01*
X020909Y003682D02*
X020903Y003682D01*
X020780Y003524D02*
X021033Y003524D01*
X019406Y003728D02*
X019406Y003853D01*
X018909Y003841D02*
X018903Y003841D01*
X018909Y003999D02*
X018903Y003999D01*
X018846Y004158D02*
X019009Y004158D01*
X019167Y004316D02*
X018846Y004316D01*
X018903Y003682D02*
X018908Y003682D01*
X017406Y002853D02*
X017406Y001603D01*
X016219Y000603D02*
X015531Y001290D01*
X013094Y001290D01*
X012594Y000790D01*
X011156Y000790D01*
X011697Y000383D02*
X013667Y000383D01*
X013620Y000403D01*
X013491Y000531D01*
X013422Y000699D01*
X013422Y000782D01*
X014147Y000782D01*
X014147Y000799D01*
X013422Y000799D01*
X013422Y000881D01*
X013459Y000970D01*
X013226Y000970D01*
X012775Y000519D01*
X012657Y000470D01*
X012530Y000470D01*
X011788Y000470D01*
X011704Y000386D01*
X011697Y000383D01*
X011753Y001145D02*
X012496Y001145D01*
X012926Y000670D02*
X013434Y000670D01*
X013422Y000828D02*
X013084Y000828D01*
X012756Y000511D02*
X013511Y000511D01*
X014165Y000782D02*
X014890Y000782D01*
X014890Y000699D01*
X014821Y000531D01*
X014692Y000403D01*
X014645Y000383D01*
X015986Y000383D01*
X015947Y000421D01*
X015399Y000970D01*
X014853Y000970D01*
X014890Y000881D01*
X014890Y000799D01*
X014165Y000799D01*
X014165Y000782D01*
X014801Y000511D02*
X015858Y000511D01*
X015947Y000421D02*
X015947Y000421D01*
X015699Y000670D02*
X014878Y000670D01*
X014890Y000828D02*
X015541Y000828D01*
X014165Y002889D02*
X014147Y002889D01*
X014147Y003048D02*
X014165Y003048D01*
X014165Y003207D02*
X014147Y003207D01*
X013491Y003048D02*
X012788Y003048D01*
X012947Y002889D02*
X013425Y002889D01*
X013422Y002731D02*
X013106Y002731D01*
X011156Y003790D02*
X010656Y003790D01*
X010531Y003665D01*
X009969Y003665D01*
X009656Y003978D01*
X009656Y005040D01*
X008504Y003999D02*
X008250Y003999D01*
X008599Y003841D02*
X006618Y003841D01*
X006602Y003524D02*
X006506Y003524D01*
X006506Y003365D02*
X006602Y003365D01*
X006602Y003207D02*
X006506Y003207D01*
X007297Y003524D02*
X009658Y003524D01*
X009499Y003682D02*
X009430Y003682D01*
X009857Y003365D02*
X007432Y003365D01*
X008757Y003682D02*
X004401Y003682D01*
X004401Y002889D02*
X005307Y002889D01*
X005087Y002731D02*
X004401Y002731D01*
X010643Y003365D02*
X010659Y003365D01*
X016237Y004475D02*
X016394Y004475D01*
X019899Y006060D02*
X021789Y006060D01*
X021753Y005902D02*
X019997Y005902D01*
X020057Y006219D02*
X021630Y006219D01*
X021471Y006377D02*
X020216Y006377D01*
X020374Y006536D02*
X021313Y006536D01*
X021154Y006694D02*
X020533Y006694D01*
X020692Y006853D02*
X020996Y006853D01*
X020880Y007012D02*
X020850Y007012D01*
X024469Y007165D02*
X024781Y006853D01*
X027344Y007978D02*
X027594Y007728D01*
X031406Y007728D01*
X032156Y006978D01*
X032156Y003728D01*
X031219Y002790D01*
X030719Y002790D01*
X030143Y002414D02*
X029545Y002414D01*
X029703Y002572D02*
X030015Y002572D01*
X029964Y002731D02*
X029862Y002731D01*
X030317Y002255D02*
X029386Y002255D01*
X029156Y001790D02*
X028656Y001290D01*
X028473Y000828D02*
X029984Y000828D01*
X029997Y000670D02*
X028462Y000670D01*
X028392Y000511D02*
X030074Y000511D01*
X030719Y000790D02*
X031781Y000790D01*
X032344Y001353D01*
X032344Y002728D01*
X030719Y001790D02*
X029156Y001790D01*
X029281Y001463D02*
X030094Y001463D01*
X030710Y001145D02*
X030727Y001145D01*
X030727Y000987D02*
X030710Y000987D01*
X030727Y000828D02*
X030710Y000828D01*
X030719Y000790D02*
X030719Y000790D01*
X027719Y000790D02*
X023844Y000790D01*
X027710Y003365D02*
X027727Y003365D01*
X027727Y003524D02*
X027710Y003524D01*
X027727Y003682D02*
X027710Y003682D01*
X028969Y004228D02*
X029406Y003790D01*
X029469Y003790D01*
X029469Y003790D01*
X030719Y003790D01*
X030719Y004790D02*
X031281Y004790D01*
X031594Y005103D01*
X030086Y005109D02*
X029102Y005109D01*
X029261Y004951D02*
X029991Y004951D01*
X029964Y004792D02*
X029419Y004792D01*
X029578Y004633D02*
X029990Y004633D01*
X030710Y006377D02*
X030727Y006377D01*
X030727Y006536D02*
X030710Y006536D01*
X030727Y006694D02*
X030710Y006694D01*
X031194Y006377D02*
X031274Y006377D01*
X031274Y006219D02*
X031208Y006219D01*
X030038Y007012D02*
X028421Y007012D01*
X033317Y007804D02*
X034140Y007804D01*
X034656Y008228D02*
X034671Y008243D01*
X035906Y008243D01*
X035956Y005853D01*
X035526Y006060D02*
X035245Y006060D01*
X035388Y006219D02*
X035629Y006219D01*
X035625Y006377D02*
X035450Y006377D01*
X035450Y006481D02*
X034695Y006481D01*
X034695Y006940D01*
X035068Y006940D01*
X035243Y006867D01*
X035377Y006733D01*
X035450Y006558D01*
X035450Y006481D01*
X035450Y006536D02*
X035622Y006536D01*
X035619Y006694D02*
X035393Y006694D01*
X035257Y006853D02*
X035615Y006853D01*
X035612Y007012D02*
X033427Y007012D01*
X033571Y007170D02*
X035609Y007170D01*
X035605Y007329D02*
X033571Y007329D01*
X033571Y007487D02*
X035602Y007487D01*
X035599Y007646D02*
X033475Y007646D01*
X034656Y008228D02*
X034656Y008243D01*
X034676Y008243D01*
X035213Y007804D02*
X035595Y007804D01*
X035906Y008243D02*
X037236Y008243D01*
X036700Y007804D02*
X036235Y007804D01*
X036239Y007646D02*
X037811Y007646D01*
X037811Y007804D02*
X037773Y007804D01*
X037811Y007487D02*
X036242Y007487D01*
X036245Y007329D02*
X037811Y007329D01*
X037811Y007170D02*
X036249Y007170D01*
X036252Y007012D02*
X037811Y007012D01*
X037255Y006853D02*
X037218Y006853D01*
X037218Y006694D02*
X037255Y006694D01*
X037255Y006536D02*
X037218Y006536D01*
X037218Y006377D02*
X037255Y006377D01*
X037255Y006219D02*
X037218Y006219D01*
X037218Y006060D02*
X037255Y006060D01*
X036667Y006060D02*
X036387Y006060D01*
X036433Y005902D02*
X037811Y005902D01*
X037811Y006060D02*
X037805Y006060D01*
X037811Y005743D02*
X036427Y005743D01*
X036362Y005585D02*
X037811Y005585D01*
X036524Y006219D02*
X036269Y006219D01*
X036265Y006377D02*
X036462Y006377D01*
X036462Y006536D02*
X036262Y006536D01*
X036259Y006694D02*
X036519Y006694D01*
X036655Y006853D02*
X036255Y006853D01*
X034695Y006853D02*
X034658Y006853D01*
X034658Y006694D02*
X034695Y006694D01*
X034695Y006536D02*
X034658Y006536D01*
X034626Y006478D02*
X034676Y006463D01*
X034658Y006377D02*
X034695Y006377D01*
X034695Y006219D02*
X034658Y006219D01*
X034658Y006060D02*
X034695Y006060D01*
D22*
X017406Y001603D03*
X016406Y001978D03*
D23*
X016406Y002853D01*
X016406Y001978D02*
X016406Y001978D01*
X018406Y003853D02*
X018406Y005165D01*
X018381Y005140D01*
X018406Y005165D02*
X018969Y005165D01*
X017281Y005165D01*
X016506Y005940D01*
X016506Y006165D01*
X009406Y001040D02*
X008531Y001040D01*
D24*
X009406Y001040D03*
X009094Y004103D03*
X010219Y004290D03*
X027344Y007978D03*
D25*
X032344Y002728D03*
D26*
X026531Y010853D02*
X026531Y011603D01*
X026281Y011853D01*
X025531Y011853D01*
X025531Y012853D02*
X026281Y012853D01*
X026531Y013103D01*
X026531Y014978D02*
X026531Y015728D01*
X026281Y015978D01*
X025656Y015978D01*
X025594Y015915D01*
X025531Y015978D01*
X025531Y016978D02*
X026281Y016978D01*
X026531Y017228D01*
X026531Y019103D02*
X026531Y019790D01*
X026219Y020103D01*
X025531Y020103D01*
X025531Y021103D02*
X026281Y021103D01*
X026531Y021353D01*
X026531Y023228D02*
X026531Y023978D01*
X026281Y024228D01*
X025531Y024228D01*
X025531Y025228D02*
X026281Y025228D01*
X026531Y025478D01*
X032156Y025228D02*
X032183Y025254D01*
X034392Y023286D02*
X034406Y023286D01*
X034406Y023290D01*
X034344Y023228D01*
X030094Y019103D02*
X030031Y019040D01*
X030031Y019103D01*
X016406Y019290D02*
X015656Y019290D01*
X015406Y019040D01*
X015656Y020290D02*
X016406Y020290D01*
X015656Y020290D02*
X015406Y020540D01*
X015406Y021290D01*
X015406Y023165D02*
X015406Y023228D01*
X015594Y023415D01*
X016406Y023415D01*
X016406Y024415D02*
X015656Y024415D01*
X015406Y024665D01*
X015406Y025415D01*
X015406Y017165D02*
X015406Y016415D01*
X015656Y016165D01*
X016406Y016165D01*
X016406Y015165D02*
X015656Y015165D01*
X015406Y014915D01*
X015406Y013040D02*
X015406Y012290D01*
X015656Y012040D01*
X016406Y012040D01*
X016406Y011040D02*
X015656Y011040D01*
X015406Y010790D01*
D27*
X019031Y008165D02*
X019594Y008165D01*
X020156Y008728D01*
X020156Y015978D01*
X019969Y016165D01*
X019406Y016165D01*
X021781Y015853D02*
X021781Y008478D01*
X022094Y008165D01*
X022719Y008165D01*
X022094Y007165D02*
X021469Y007790D01*
X021469Y019603D01*
X021969Y020103D01*
X022531Y020103D01*
X020469Y019790D02*
X019969Y020290D01*
X019969Y020290D01*
X019406Y020290D01*
X020469Y019790D02*
X020469Y008040D01*
X019594Y007165D01*
X018969Y007165D01*
X018969Y006165D02*
X019594Y006165D01*
X020781Y007353D01*
X020781Y023603D01*
X019969Y024415D01*
X019406Y024415D01*
X021156Y023415D02*
X021156Y007103D01*
X022094Y006165D01*
X022719Y006165D01*
X022719Y007165D02*
X022094Y007165D01*
X021781Y015853D02*
X021906Y015978D01*
X022531Y015978D01*
X021156Y023415D02*
X021969Y024228D01*
X022531Y024228D01*
M02*
